<?xml version="1.0" encoding="utf-8"?>
<!-- Generator: Adobe Illustrator 27.7.0, SVG Export Plug-In . SVG Version: 6.00 Build 0)  -->
<svg version="1.1" id="레이어_1" xmlns="http://www.w3.org/2000/svg" xmlns:xlink="http://www.w3.org/1999/xlink" x="0px"
	 y="0px" viewBox="0 0 800 800" style="enable-background:new 0 0 800 800;" xml:space="preserve">
<style type="text/css">
	.st0{fill:#4E576C;}
	.st1{fill:#FFFFFF;}
	.st2{fill:#F37321;}
</style>
<path class="st0" d="M607.5,411c-12.4-149.3-147-177.2-147-177.2L403,313.4h-6l-57.5-79.6c0,0-134.5,27.9-147,177.2l59.7,10.4v167.4
	h295.6V421.3L607.5,411z"/>
<path d="M403.4,308.4l56.8-78.3l1,0.2c1.4,0.3,34.8,7.4,70.2,33.2c20.8,15.2,37.9,33.6,50.9,54.9c16.2,26.6,25.8,57.6,28.7,92.2l0,0
	c0.2,1.8-1.1,3.4-2.9,3.7l-56.8,9.9v164.5c0,1.9-1.6,3.5-3.5,3.5H252.2c-1.9,0-3.5-1.6-3.5-3.5V424.3l-56.8-9.9
	c-1.8-0.3-3-1.9-2.9-3.7l0,0c2.9-34.6,12.5-65.6,28.7-92.2c12.9-21.3,30.1-39.8,50.9-54.9c35.4-25.8,68.8-32.9,70.2-33.2l1-0.2
	l56.8,78.3c0,0,2.3,3.3,3.5,3.3C400.9,311.7,403.4,308.5,403.4,308.4z M259.2,585.2h281.6c1.9,0,3.5-1.6,3.5-3.5V421.3
	c0-1.7,1.2-3.2,2.9-3.4l53.3-9.3c1.8-0.3,3.1-2,2.9-3.8c-6.3-57.7-31.8-103.3-75.9-135.4c-27.9-20.4-53.4-28.9-62.4-31.3
	c-1.4-0.4-2.9,0.1-3.8,1.3l-55.7,77.5l-1.1,1.3c-2.2,2.6-6.2,2.5-8.4-0.1l-0.9-1.2l-55.7-77.5c-0.9-1.2-2.3-1.7-3.8-1.3
	c-9.1,2.5-35.3,11-63.2,31.3c-44.1,32.2-69.6,77.7-75.9,135.4c-0.2,1.8,1.1,3.5,2.9,3.8l53.3,9.3c1.7,0.3,2.9,1.7,2.9,3.4v160.4
	C255.7,583.7,257.3,585.2,259.2,585.2z"/>
<rect x="248.8" y="366.6" width="7" height="58.7"/>
<rect x="544.3" y="366.6" width="7" height="58.7"/>
<rect x="396.8" y="329" width="7.1" height="257.8"/>
<polygon points="193.9,398.8 251.2,409 251.7,401 194.8,390.8 "/>
<polygon points="331.7,237.4 399.2,329.4 399.2,341.9 323.2,238.3 "/>
<polygon points="607.1,398.8 549.7,409 549.3,401 606.2,390.8 "/>
<polygon points="469.3,237.4 401.7,329.4 401.7,341.9 477.7,238.3 "/>
<g>
	<g>
		<path class="st1" d="M380.1,367.2c-5,2.1-11.9,3.8-22.4,3.5c0,0-16.4-1.1-25.2-0.3l0,0c-3.4,0.1-18.1,1.7-31.4,6.7
			c-1.5,0.6-2.2,1.1-2.9,1.8c-0.3,0.4-0.9,1.5-1.2,2.1c0,0-4.1,0.5-6.6,1.6c-3.5,1.5-4.9,3.4-3.9,6.7c2.3,7.8,11.6,9.3,11.6,9.3
			s-2.3-5.5-0.2-5.5c0.9,0,3.6,0.6,5.6,1.5c1.1,0.5,6.1,2.8,11,7l-5.7,18.4l67.1-0.4c2.2,0,4.4-0.5,6.3-1.3c-0.4,0.5-0.7,0.8-1,1.3
			l-4.9,8.7l27.3-0.2c6.8-0.1,12.7-3.6,15.1-8.8l61.8-0.3c7.7,0,13.6-3.5,15.7-8.6c2.6-6-0.5-9.2-0.5-9.2c3-1.9,4.5-4.4,5-6.2l3-9.6
			l-59.9,0.3l3.2-10.4h-8c-7.5,0.1-13.1,4.5-15,10.4l-52.6,0.3c5-2.2,13-7.4,17-23.3C388.5,362.9,385,365.3,380.1,367.2z"/>
	</g>
	<g>
		<path class="st1" d="M349.1,404.8c3.9-0.1,6.8-1.7,8-2.8c0,0-1.9,11.7-15.8,11.9l-27.8,0.2l4.7-15.2c0,0-5.6-6.5-15.9-9
			c-3.6-1-8.9-1.3-9.3,0.4c-0.1,0.5,0.2,2.3,0.5,3.6c0,0-1.6-0.7-2.6-2c-0.3-0.3-1.9-2.3-2-4.4c-0.1-1.2,0.5-2,1.3-2.6
			c2.2-1.4,8.4-2.1,8.4-2.1l0.6-1.3c0.6-1.3,1.1-1.9,1.9-2.2c14.2-5.7,30.9-6.8,31.1-6.8h-0.1c1.2-0.1,2.8-0.1,4.5-0.2
			c7.6-0.5,17.9,0.4,18.6,0.5c7.4,0.4,12.3,0.2,15.5-0.3c4.9-0.6,9.3-3.6,9.3-3.6s-4.1,9.5-14.1,12.2c-4.2,1.2-8.5,1.3-12.5,1.3
			h-7.6c-3.8,0-4.8,1.5-5.2,2.7l-1,3.3c3.2,0,12.6-0.1,12.6-0.1c4.7,0.1,7.9-1.8,9.3-3c0,0-1.9,11.6-15.7,11.9c0,0-7,0-8.9,0.1
			l-2.3,7.5H349.1z"/>
	</g>
	<g>
		<g>
			<path class="st1" d="M439.1,377.7c-5.7,0.1-10.7,3.4-11.9,7.5l-8.5,28.2l11.9-0.1l10.9-35.6H439.1z"/>
		</g>
		<g>
			<path class="st1" d="M463.6,401.1c1.6-1.2,2.8-2.7,3.3-4.5l2.6-8.7l-19,0.1c-7.1,0.2-10.2,3.6-11.2,6.5l0,0l-5.7,18.7l19.4-0.1
				c5.3,0,9.7-2.5,11.3-7.5l1.4-4.5H463.6z M450.4,396.9l0.6-2h4.5l-0.6,2H450.4z M452.2,406.2c-1.1,0-2.8,0-4.6,0
				c0.3-1.1,0.5-1.7,0.8-2.5c1.5,0,4.3,0,5.6,0C453.1,404.5,452.6,405.1,452.2,406.2z"/>
		</g>
		<g>
			<path class="st1" d="M403.2,415.3c-1.8,0-7.8,0-7.8,0c-5.7,0-9.2,1.5-10.9,4.5l-1.4,2.5l20.3-0.1c5.7-0.1,10.5-3.1,11.9-7.5
				l8.1-26.5l-18.9,0.1c0,0-9.1-0.1-11.5,7.4l-5.4,17.8l12.6-0.1c1.6,0,2.8-0.3,3.8-0.7L403.2,415.3z M409.3,395.1
				c-0.9,2.8-3,9.7-3.5,11.4c-1.1,0-2.4,0-4.1,0c0.9-2.8,3-9.7,3.5-11.4C406.3,395.1,407.6,395.1,409.3,395.1z"/>
		</g>
		<g>
			<path class="st1" d="M356.1,413.7l19.6-0.1c5.3-0.1,9.8-3.1,11.1-7.2l5.5-18l-19.3,0.1c-5.5,0-10.1,2.9-11.4,7.3l-1.5,4.8h1.9
				c-1.6,1.1-2.8,2.9-3.3,4.7L356.1,413.7z M370.2,406.6l0.6-2.1h4.7l-0.6,2.1H370.2z M378.3,395.3l-0.7,2.4h-6
				c1.1-0.7,1.6-1.6,2-2.4H378.3z"/>
		</g>
		<g>
			<path class="st1" d="M463.6,413.1l16.8-0.1c6.6,0,10.1-3.9,11.2-7.5c0,0,0.6-2-0.1-3.7c-0.4-1.1-1.1-1.9-2.4-2.5
				c-0.7-0.3-2-0.9-3.1-1.5c6.7-0.5,9-3.4,9.8-5.8l0.6-2l0.7-2.2h-2.3l-14.7,0.1c-5.6,0.1-9.7,2.9-11,7.5c-1.1,4.2,2.2,5.7,2.2,5.7
				l3.8,1.8c-6.9,0.3-9.3,3.4-10,5.9L463.6,413.1z M481,395.4l0.2-0.7h1.8l-0.5,1.4L481,395.4z M477.7,406c0.1-0.5,0.3-1.1,0.3-1.1
				s0.1-0.3,0.2-0.5c0.6,0.3,1.4,0.7,1.6,0.8c-0.1,0.2-0.2,0.5-0.3,0.8C478.9,406,478.6,406,477.7,406z"/>
		</g>
	</g>
	<g>
		<g>
			<path class="st2" d="M345.3,380.2c-4.2,0-6,1.7-6.7,3.8l-1.6,5.4l14.8-0.1c2.5,0,5.1-0.1,7-1.7c-1.4,3.5-5.6,7.5-13.4,7.3
				l-10.1,0.1l-3.2,10.7l15.4-0.1c2.5,0,4.9-0.2,6.9-1.6c-1.4,3.5-5.8,7.5-13.5,7.3l-25.6,0.1l4.3-14.1c0,0-9.3-9.6-22.7-10.2
				c-2.5,0-4.1,0.2-5.1,0.7c-1.2,0.6-0.5,2.6-0.5,2.6s-1.4-1.4-1.7-3.1c-0.3-1.7,1.9-2.7,5-3.3c2.3-0.4,4.3-0.6,4.3-0.6l0.8-1.9
				c0.2-0.5,0.5-0.9,0.8-1.2c0.5-0.5,1.4-0.8,1.4-0.8c13.5-4.8,29.3-6.2,29.3-6.2l0,0c1.2-0.1,2.7-0.1,4.5-0.2
				c7.7-0.6,18.5,0.5,18.5,0.5c18,1.2,21.4-1.8,23.1-3l0,0c-6.4,8.3-14.2,9.4-24.8,9.4L345.3,380.2z"/>
		</g>
		<g>
			<g>
				<g>
					<path class="st2" d="M420.4,411l7.8-25.7c1.2-3.7,5.7-6.5,10.4-6.6l-9.8,32.2L420.4,411z"/>
				</g>
				<g>
					<path class="st2" d="M455.1,401.5c4.9-0.2,8.6-2.7,9.6-6l2-6.6L450,389c-4.7,0.1-8.5,2.3-9.8,6l-4.9,15.9l17-0.1
						c5,0,8.3-2.3,9.6-6.3l0.7-2.4c-4.5,0-8.8,1.3-9.8,4.7l-0.1,0.3h-8l1.7-5.7L455.1,401.5z M457.2,392.7l-1.6,5.2h-8l1.6-5.2
						H457.2z"/>
				</g>
				<g>
					<path class="st2" d="M406.5,407.5h-7.6l4.4-14.5h7.6L406.5,407.5z M385.5,420l17.3-0.1c4.7-0.1,9.1-2.5,10.3-6.3l7.4-24.4
						l-16.6,0.1c-4.7,0.1-8.5,2.7-9.8,6.4l-4.7,15.5l10.3-0.1c4.5,0,6.3-1.9,6.3-1.9l-2.1,7l-9,0.1
						C390.9,416.3,387.1,417.1,385.5,420z"/>
				</g>
				<g>
					<path class="st2" d="M375.6,407.6h-8.1l1.6-5.3h8.1L375.6,407.6z M372.4,389.5c-4.6,0-8.7,2.7-9.8,6.2l-0.8,2.7
						c4.4,0.1,8.8-1.3,9.8-4.8l0.1-0.4h8.2l-1.7,5.6h-8.7c-5,0.1-8.8,2.9-9.8,6.3l-1.9,6.2l17.3-0.1c4.7-0.1,8.5-2.6,9.5-6l4.8-15.9
						L372.4,389.5z"/>
				</g>
				<g>
					<path class="st2" d="M489.5,404.4c-1,3.4-4.3,6.3-9.6,6.3l-14.4,0.1l0.7-2.2c1-3.4,5.2-4.7,9.8-4.7l-1,3.2h5.3l0.8-2.5
						c0.1-0.5,0-0.9-0.4-1.2l-9.1-4.4c-1-0.5-1.8-2.2-1.4-3.8l0,0c1.1-3.7,4.4-6.2,9.5-6.4l14.6-0.1l-0.6,2.1
						c-1,3.4-4.9,4.7-9.8,4.7l0.9-3h-5.3l-0.7,2.3c-0.2,0.5,0,0.9,0.4,1.2l9,4.2C490.3,401.6,489.5,404.4,489.5,404.4z"/>
				</g>
			</g>
		</g>
	</g>
	<g>
		<path class="st1" d="M321.3,392.2l1.5-4.9c1-3.4,1.9-4.5,5-5.9s9.2-2.1,9.2-2.1c-8.8-1.2-27.1-0.3-33.7,1.9
			c-1.4,0.5-1.9,1.8-1.9,1.8l9.3-0.8l-3.5,2.2c-3.5-1.2-6.1-0.6-6.1-0.6c-2.2,1-2.6,2.9-2.6,2.9
			C310.2,386.7,321.3,392.2,321.3,392.2z"/>
	</g>
	<g>
		<g>
			<polygon points="419.3,369 417.6,369 417.6,362.1 409.3,362.1 409.3,369 407.6,369 407.5,355.8 409.2,355.8 409.3,360.1 
				417.5,360.1 417.5,355.7 419.3,355.7 			"/>
		</g>
		<g>
			<path d="M485.6,363.8h-3c-0.6,0-1.1,0.1-1.4,0.2c-0.5,0.2-0.8,0.7-0.8,1.4c0,0.6,0.3,1.1,0.8,1.3c0.3,0.1,0.8,0.2,1.5,0.2h2.5
				c0.9,0,1.5-0.1,1.9-0.4c0.3-0.3,0.5-0.7,0.5-1.3C487.4,364.2,486.7,363.7,485.6,363.8 M479.5,358.6h5.7c1.6,0,2.7,0.5,3.4,1.4
				c0.9,1.2,0.7,2.9,0.7,4.4c0,0.5,0,1,0,1.4c0,0.7-0.2,1.4-0.6,2c-0.4,0.5-0.9,0.8-1.6,0.8c-0.6,0-1.2,0-1.8,0h-2.9
				c-1.3,0-2.3-0.2-2.8-0.5c-0.7-0.5-1.1-1.4-1.1-2.8l0,0c0-1.3,0.4-2.2,1.2-2.7c0.5-0.3,1.4-0.5,2.7-0.5h4.9c0-0.5-0.1-1.1-0.6-1.4
				s-1.1-0.3-1.6-0.3h-5.6L479.5,358.6z"/>
		</g>
		<g>
			<path d="M440.5,358.9c1.3,0,2.3,0.4,3,1.1c0.7,0.8,1.1,1.5,1.1,3v5.8h-1.7V363c0-0.8-0.2-1.2-0.7-1.6c-0.5-0.5-1.1-0.7-1.8-0.7
				h-1.6c-0.7,0-1.3,0.2-1.8,0.7s-0.7,0.8-0.7,1.6v5.8h-1.7V363c0-1.5,0.3-2.2,1-3s1.7-1.2,3-1.2L440.5,358.9z"/>
		</g>
		<g>
			<path d="M462.4,358.8v5.7c0,0.8-0.2,1.2-0.7,1.6c-0.5,0.5-1,0.7-1.8,0.7h-1.1c-0.7,0-1.3-0.2-1.8-0.7s-0.7-0.8-0.7-1.6v-5.7h-1.8
				v5.7c0,0.8-0.2,1.2-0.7,1.6c-0.4,0.5-1,0.7-1.8,0.7h-1.1c-0.7,0-1.3-0.2-1.8-0.7s-0.7-0.8-0.7-1.6v-5.7h-1.7v5.8
				c0,1.5,0.4,2.2,1.1,3s1.7,1.1,3,1.1h1.4c1.3,0,2.3-0.4,3-1.2c0.1-0.1,0.2-0.2,0.2-0.3c0.1,0.1,0.2,0.2,0.2,0.3
				c0.7,0.8,1.7,1.1,3,1.1h1.4c1.3,0,2.3-0.4,3-1.2c0.7-0.8,1.1-1.5,1-3v-5.8L462.4,358.8z"/>
		</g>
		<g>
			<path d="M475.3,359.8c-0.7-0.8-1.7-1.1-3-1.1h-1.9c-0.9,0-1.7,0.2-2.3,0.6v-4h-1.7l0.1,13.3h1.8v-5.8c0-0.8,0.2-1.2,0.7-1.6
				c0.5-0.5,1-0.7,1.8-0.7h1.6c0.7,0,1.3,0.2,1.8,0.7s0.7,0.8,0.7,1.6v5.8h1.7v-5.8C476.4,361.4,476,360.6,475.3,359.8z"/>
		</g>
		<g>
			<path d="M428.7,364.1h-3c-0.6,0-1.1,0.1-1.4,0.2c-0.5,0.2-0.8,0.7-0.8,1.4c0,0.6,0.3,1.1,0.8,1.3c0.3,0.1,0.8,0.2,1.5,0.2h2.5
				c0.9,0,1.5-0.1,1.9-0.4c0.3-0.3,0.5-0.7,0.5-1.3C430.5,364.5,429.9,364.1,428.7,364.1 M422.7,358.9h5.7c1.6,0,2.7,0.5,3.4,1.4
				c0.9,1.2,0.6,2.9,0.7,4.4c0,0.5,0,1,0,1.4c0,0.7-0.2,1.4-0.6,2c-0.4,0.5-0.9,0.8-1.6,0.8c-0.6,0-1.2,0-1.8,0h-2.9
				c-1.3,0-2.2-0.2-2.8-0.5c-0.7-0.5-1.1-1.4-1.1-2.8l0,0c0-1.3,0.4-2.2,1.2-2.7c0.5-0.3,1.4-0.5,2.7-0.5h4.9c0-0.5-0.1-1.1-0.6-1.4
				s-1.1-0.3-1.6-0.3h-5.6L422.7,358.9z"/>
		</g>
	</g>
</g>
</svg>
