<?xml version="1.0" encoding="utf-8"?>
<!-- Generator: Adobe Illustrator 27.7.0, SVG Export Plug-In . SVG Version: 6.00 Build 0)  -->
<svg version="1.1" id="레이어_1" xmlns="http://www.w3.org/2000/svg" xmlns:xlink="http://www.w3.org/1999/xlink" x="0px"
	 y="0px" viewBox="0 0 800 800" style="enable-background:new 0 0 800 800;" xml:space="preserve">
<style type="text/css">
	.st0{fill:#0054CE;}
	.st1{fill:#F24922;}
	.st2{fill:#F37321;}
	.st3{fill:#FFECDE;}
</style>
<path class="st0" d="M607.5,411c-12.4-149.3-147-177.2-147-177.2L403,313.4h-6l-57.5-79.6c0,0-134.5,27.9-147,177.2l59.7,10.4v167.4
	h295.6V421.3L607.5,411z"/>
<rect x="396.8" y="316.1" width="7.1" height="270.7"/>
<polygon class="st1" points="193.9,398.8 251.2,409 251.7,401 194.8,390.8 "/>
<polygon class="st1" points="607.1,398.8 549.7,409 549.3,401 606.2,390.8 "/>
<g>
	<path class="st2" d="M407.9,415.9c0,0,46.2-0.8,80.1,4.3c0.2,0,0.2,0.4-0.1,0.4c-14.4-0.5-76.6-2.5-84.2-0.5l3.3,0
		c0,0,69.8,0.7,102.2,6.9c0.2,0,0.2,0.4-0.1,0.3c-20.1-1.7-104.8-4.8-110.2-2l13.3-0.2l54.7,3.5c0,0-72.3,0.6-100.1,3.7
		c-0.4,0-0.5-0.4-0.2-0.6c8.2-1.9,22.3-5.3,26-5.8c5.3-0.8,9.4-5.5,9.4-5.5S406.5,413.9,407.9,415.9z"/>
	<path class="st3" d="M407.1,415.5c0.2,0,0.6,0.1,0.8,0.4c0,0,46.2-0.8,80.1,4.3c0.2,0,0.3,0.3,0,0.4l0,0c-13.2-0.5-66.3-2.1-81-0.9
		c-1.5,0.1-2.4,0.2-3.2,0.4l3.3,0c0,0,69.8,0.7,102.2,6.9c0.2,0,0.1,0.2,0,0.2l0,0c-18.1-1.6-88.7-4.3-106.4-2.7
		c-2,0.2-3.3,0.4-3.8,0.7l13.3-0.2l54.7,3.5c0,0-62.7,0.5-93.9,3.2c-2.3,0.2-4.4,0.4-6.2,0.7l0,0c-0.4,0-0.5-0.4-0.2-0.6
		c8.2-1.9,22.3-5.3,26-5.8c5.3-0.8,9.4-5.5,9.4-5.5S405.2,415.6,407.1,415.5 M406.9,413.8L406.9,413.8c-2.2,0.2-4.9,3.5-6.2,5.6
		c-0.6,0.5-4.1,4.2-8.3,4.9c-3.8,0.6-18,3.9-26.2,5.8c-1.1,0.2-1.7,1.3-1.6,2.4c0.2,1.1,1.1,1.9,2.2,1.8l0,0l0,0
		c1.8-0.2,3.9-0.5,6.2-0.7c30.7-2.7,93-3.1,93.6-3.2l0.1-3.5c18.1,0.6,34.8,1.5,42,2.1c0.1,0,0.2,0,0.4,0c1-0.1,1.8-0.9,1.8-1.9
		c0-1-0.6-1.8-1.7-2.1c-6-1.1-13.3-2-21.4-2.8c1-0.1,1.6-0.9,1.7-1.9c0-1-0.7-1.9-1.7-2.1c-31.4-4.7-73.8-4.4-79.7-4.3
		C408,413.8,407.5,413.7,406.9,413.8L406.9,413.8z"/>
</g>
<g>
	<path class="st2" d="M493.5,401.4c-1.8-2.5-5.5-7.5-1.8-11.4c0.4-0.5-8.5-1.1-8.8,0.4c-1.1,4.3-13,19.1-21.2,19.2
		c-8.4,0-6-6.7-6-6.7c4.1,0.4,13.8-2.7,15.8-6.7c2-4-1.3-12.3-11.6-8.7c-10.3,3.6-13.6,15.3-13.6,15.3s-3.7,5.6-10,5.4
		c-6.2-0.2-2.4-11-2.4-11c10.5-5.5,20-24.3,18.4-28.5c-0.8-2.3-10.4-0.2-12.1,1.9c-7.4,8.9-13.8,28.6-16.7,32
		c-2.9,3.5-8.9,5.1-9.4,5.5c-0.6,0.4,6.9-16.1,7.9-20.1c1.4-5.7-1.4-1.6-4.5-1c-3.1,0.6-8.7-6.5-17.6-0.9c-8.9,5.6-9.3,14-11.7,16.9
		c-2.4,3-5.1,3.6-7.1,3c-2-0.7,5.3-15.7,6.2-18.5c0.8-2.6-0.6-3.8-4.1-1.4c-3.4,2.4-5.9,1.7-5.9,1.7c-2.3-3.5-10-4.3-15.7,1.1
		c-5.8,5.4-8.7,13.1-8.7,13.1l-7.6,2.9c-0.5,5.1-2.6,5.3-2.6,5.3c-8.2,3.3-22.6,2.2-22.6,2.2c6.9-5.8,10.2-17.1,10.2-17.1
		c11.6-1.1,19.8-5.3,17.1-5.2c-2.6,0.2-16.1,0.2-16.1,0.2l4.9-17.2c0,0,4.3-1.4,7.3-0.6c3,0.8,4.4,4.9,4.4,4.9l7.8-5.2
		c-3.1-5.5-14.4-6.3-44,3.7c-15.4,5.2-8.8,20.1-8.8,20.1l7.7-3.9c0,0-1.4-1.6-1.2-8c0.2-6.5,14-9.7,14-9.7s-0.7,8.1-2.2,14
		c-1.7,5.9-6.6,8.2-6.6,8.2s5.5-2.2,1.8,6.7c-3.5,8.9-13,14.9-13,14.9s27.1-0.9,35-1.8c7.7-1,13.7-9.6,14-10.1
		c-0.3,0.4-4.6,6.9,4.9,7.9c9.8,1,14.8-7.7,14.8-7.7s-2.4,8.1,6,7.2c8.4-1,10.8-8.7,10.8-8.7l1.3,2.5c7,7.3,14.6-0.8,15.6-0.2
		c-1,4.1-8.5,6.5-11.7,7.2c-3.1,0.6-4.7-0.1-6.4,1.2s-7.4,1.1-7.4,1.1c-25.1,1.4-62.4,9-76.4,11.9c-0.2,0-0.1,0.4,0,0.4
		c12.1-1.9,40.7-6.1,56.6-7.4c20.4-1.5,23.7-3.5,26.8-3.2c3.1,0.3-4.5,7.9,7.3,9.2c11.8,1.3,17.8-16.3,17.8-16.3l10.8-4.4
		c5.6,15.5,22.9-0.8,22.9-0.8s-0.5,9.8,11.6,8.7c12.1-1,24.2-16.5,24.2-16.5s1,1,2.3,3.5s3.9,7.9-1.6,10.1c-5.5,2.2-5.8-4.3-5.8-4.3
		l-6.2,4c0.9,5.2,9.4,4.7,14.2,2.5C489.9,411.8,495.3,403.9,493.5,401.4z M447,372.3c4.6,1.5-4.1,14-10,16.1
		C437,388.5,442.5,371,447,372.3z M375.3,395.1c-2.8,7.1-6.1,13.3-12.6,11.7c0,0-3.8-3.6,1.8-12C370,386.5,378.1,388,375.3,395.1z
		 M392.5,423.6c-2.9-1.2-1-4.8,3.2-4.8c4.2,0,5.5-3.8,5.5-3.2C402,421.8,395.5,424.9,392.5,423.6z M402.3,404.6
		c-6.4,1.2-2.2-8.7,1.5-13.8c0,0,2.5-3.9,7-2.1C415.3,390.5,408.6,403.4,402.3,404.6z M464.5,391.7c6.8,4.5-7.1,7.6-10.1,7.3
		C454.3,399,457.7,387.2,464.5,391.7z"/>
	<path class="st3" d="M342.1,368.4c7.9-0.7,11.9,0.9,13.6,3.9l-7.8,5.2c0,0-1.3-4.1-4.4-4.9c-1-0.3-2.2-0.3-3.3-0.2
		c-2.2,0.2-4,0.8-4,0.8l-4.9,17.2c0,0,13.5,0.1,16.1-0.2c2.6-0.2-5.7,4.1-17.1,5.2c0,0-3.3,11.4-10.2,17.1c0,0,5.9,0.5,12.3-0.1
		c3.5-0.3,7.3-0.9,10.3-2.1c0,0,2.1-0.2,2.6-5.3l7.6-2.9c0,0,2.9-7.6,8.7-13.1c2.6-2.4,5.6-3.7,8.3-3.9c3.3-0.3,6.2,0.8,7.4,2.8
		c0,0,0.5,0.2,1.5,0.1c1.1-0.1,2.7-0.5,4.4-1.7c1.2-0.8,2.1-1.3,2.8-1.4c1.2-0.1,1.7,1,1.1,2.7c-0.8,2.6-8.2,17.8-6.2,18.5
		c0.6,0.2,1.3,0.3,2,0.2c1.6-0.1,3.5-1,5.1-3.2c2.4-3,2.8-11.3,11.7-16.9c2.1-1.3,4.1-2,5.8-2.1c5.4-0.5,9,3.3,11.5,3.1
		c0.1,0,0.1,0,0.2,0c1.8-0.4,3.6-1.9,4.4-2c0.6-0.1,0.7,0.7,0.1,2.9c-1,4-8.2,20.2-7.9,20.1l0,0c0.6-0.4,6.5-2.2,9.4-5.5
		c2.9-3.5,9.3-23.2,16.7-32c1.1-1.3,5.2-2.5,8.2-2.8c2-0.2,3.6,0.1,3.9,0.9c1.6,4.4-8,23.2-18.4,28.5c0,0-3.7,10.8,2.4,11
		c0.4,0,0.7,0.1,1.2,0c5.5-0.5,8.8-5.4,8.8-5.4s3.3-11.7,13.6-15.3c1.3-0.5,2.5-0.7,3.6-0.8c7.3-0.6,9.6,6.1,7.8,9.5
		c-1.7,3.5-9.3,6.3-13.9,6.7c-0.7,0.1-1.3,0.1-1.8,0c0,0-2.2,6.7,6,6.7c0.2,0,0.4,0,0.6-0.1c8.3-0.7,19.5-15,20.6-19.1
		c0.2-0.5,1.3-0.8,2.7-1c2.7-0.2,6.5,0.2,6.2,0.4c-3.6,3.9,0,8.9,1.8,11.4c1.8,2.5-3.7,10.3-8.6,12.6c-1.8,0.8-3.9,1.3-6,1.5
		c-3.9,0.3-7.6-0.7-8.2-4.1l6.2-4c0,0,0.2,5.2,4.1,4.8c0.5,0,1.1-0.2,1.7-0.4c5.5-2.2,2.9-7.6,1.6-10.1c-1.3-2.5-2.3-3.5-2.3-3.5
		s-12.1,15.4-24,16.5l0,0c-12.1,1-11.6-8.7-11.6-8.7s-7.3,6.9-14,7.5c-3.5,0.3-7-1.2-8.9-6.6l-10.8,4.4c0,0-5.3,15.3-15.7,16.2
		c-0.7,0.1-1.5,0-2.2-0.1c-11.8-1.3-4.2-8.9-7.3-9.2c-0.5-0.1-1,0-1.5,0c-2.8,0.2-7.2,1.6-21.5,2.8c-1.2,0.1-2.4,0.2-3.8,0.3
		c-0.7,0.1-1.5,0.1-2.3,0.2c-16.1,1.4-42.7,5.4-54.3,7.2l0,0c-0.2,0-0.3-0.2,0-0.4c12.8-2.7,45.5-9.4,70.1-11.5
		c2.2-0.2,4.3-0.4,6.2-0.4c0,0,1.7,0.1,3.6-0.1c1.5-0.1,3.2-0.4,3.9-0.9c0.8-0.6,1.5-0.7,2.4-0.8c0.6-0.1,1.3-0.1,2.2-0.2
		c0.5,0,1.1-0.1,1.7-0.3c3.1-0.6,10.7-3,11.7-7.2l-0.1,0c-1,0.1-4.2,2.9-8.1,3.3c-2.3,0.2-4.8-0.4-7.4-3.1l-1.3-2.5
		c0,0-2.4,7.7-10.8,8.7c-0.1,0-0.2,0-0.4,0c-7.9,0.7-5.7-7.3-5.7-7.3s-4.1,7.1-12,7.8c-0.9,0.1-1.8,0-2.8,0c-9.4-1-5.2-7.5-4.9-7.9
		c-0.3,0.5-6.3,9.2-14,10.1c-0.7,0.1-1.7,0.1-2.8,0.2c-10.1,0.9-32.1,1.5-32.1,1.5s9.4-6,13-14.9c2.5-6.4,0.5-7.1-0.8-6.9
		c-0.6,0.1-1,0.2-1,0.2s5-2.3,6.6-8.2c1.7-5.9,2.2-14,2.2-14s-13.9,3.2-14,9.7c-0.2,6.5,1.2,8,1.2,8l-7.7,3.9c0,0-6.6-14.9,8.8-20.1
		C325.4,371.4,335.3,369,342.1,368.4 M437,388.5c6-2.1,14.6-14.8,10-16.1c-0.3-0.1-0.5-0.1-0.7-0.1C442,372.6,437,388.5,437,388.5
		 M365.3,407.1c4.9-0.4,7.6-5.8,10-11.9c1.6-4-0.2-6.1-3.1-5.9c-2.3,0.2-5.4,1.9-7.7,5.7c-5.6,8.2-1.8,12-1.8,12
		C363.5,407.1,364.4,407.1,365.3,407.1 M401.7,404.6c0.1,0,0.4,0,0.6-0.1c6.4-1.2,12.9-14,8.5-15.9c-1-0.4-2-0.6-2.8-0.5
		c-2.7,0.2-4.2,2.6-4.2,2.6C400.2,395.8,396.2,405.1,401.7,404.6 M455.7,399c4.5-0.4,14.7-3.4,8.7-7.3c-1.2-0.8-2.3-1-3.3-0.9
		c-4.5,0.4-6.8,8.3-6.8,8.3C454.6,399.1,455.1,399,455.7,399 M396.2,418.8c-0.1,0-0.4,0-0.5,0c-0.2,0-0.4,0-0.6,0.1
		c-3.8,0.3-5.4,3.5-2.5,4.8c0.5,0.2,1.3,0.4,2,0.3c3.2-0.3,7.4-3.2,6.7-8.2l0-0.1C400.8,415.5,399.5,418.5,396.2,418.8 M341.9,366.6
		c-7.5,0.6-17.6,3.1-30.8,7.6c-5,1.7-8.5,4.5-10.2,8.5c-2.9,6.5,0.2,13.6,0.2,14l0.8,1.8l1.6-0.9l7.7-3.9l2.5-1.2l-1.9-1.6
		c-0.2-0.4-0.9-2.1-0.8-6.8c0.1-3.3,6.1-5.9,10.2-7.3c-0.4,2.9-1,7.3-2,11c-1.4,4.9-5.4,6.9-5.7,7l1.4,3.3c0,0,0.2-0.1,0.5-0.2
		c0,0,0,0,0.1,0c0,0.4,0.1,1.6-1.1,4.5c-3.3,8.3-12.2,14-12.3,14.1l-5.6,3.6l6.6-0.2c0.2,0,22.2-0.7,32.2-1.6
		c1.1-0.1,2.1-0.2,2.9-0.3c4.5-0.6,8.4-3.4,11.3-6.1l0,0.1c1,2.1,3.4,3.5,7.2,3.9c1.1,0.1,2.1,0.2,3.2,0.1c4.5-0.4,7.9-2.5,10.1-4.7
		c0.2,0.7,0.6,1.3,1,1.9c0.8,1,1.9,1.7,3.2,1.9c-0.2,0-0.5,0-0.6,0.1c-24.7,2.1-57.4,8.8-70.3,11.5c-1,0.2-1.7,1.1-1.5,2.2
		c0.2,1,1.1,1.7,2.1,1.7l0.1,0l0.1,0c10.8-1.7,37.9-5.7,54.1-7.1c0.7-0.1,1.6-0.1,2.3-0.2c1.3-0.1,2.6-0.2,3.8-0.3
		c10-0.9,15.2-1.8,18.5-2.3c1.3-0.2,2.3-0.4,3.2-0.5c0.1,0,0.1,0,0.2,0c0,0.1,0,0.1,0,0.1c-0.2,1.5-0.7,3.7,0.8,5.8
		c1.3,1.7,3.8,2.9,7.4,3.2c0.9,0,1.7,0.1,2.5,0c10.1-0.9,15.7-13.4,16.9-16.7l8.4-3.4c2.7,5.6,6.8,6.4,10.1,6.1
		c4.8-0.4,9.7-3.7,12.5-5.9c0.4,1.3,1.1,2.9,2.6,4.2c2.4,2.3,5.9,3.3,10.5,2.9c3.8-0.3,7.6-2,11.1-4.2c1,3.5,4.6,5.4,10,4.9
		c2.3-0.2,4.6-0.8,6.6-1.7c4-1.8,8.7-7.3,9.7-11.3c0.5-1.6,0.2-3-0.5-4l0-0.1c-2.2-3-4.3-6.5-2-9.1c0.6-0.5,0.6-1.4,0.3-2.1
		c-0.5-1.1-1.6-1.2-3.7-1.4c-1.5-0.1-3.1-0.1-4.3,0c-1.7,0.1-3.8,0.6-4.2,2.2c-0.9,3.6-11.7,17.1-19.1,17.8c-0.1,0-0.2,0-0.5,0
		c-1.4,0-3.2-0.2-4-1.2c-0.4-0.6-0.5-1.2-0.4-1.8c0.1,0,0.4,0,0.5,0c4.9-0.4,13.2-3.4,15.3-7.7c1.3-2.4,1-5.9-0.9-8.4
		c-1.1-1.6-3.7-4.2-8.8-3.8c-1.3,0.1-2.7,0.5-4.1,1c-10.1,3.6-14,14.3-14.6,16.3c-0.7,0.8-3.3,4.1-7.2,4.4c-0.4,0-0.6,0.1-1,0.1
		c-0.9,0-1.1-0.3-1.3-0.6c-1-1.4-0.4-4.9,0.3-7.4c6.7-3.8,11.8-11.7,13.8-15c3.1-5.3,6.1-12.1,4.8-15.4c-0.6-1.7-2.5-2.4-5.7-2.1
		c-2.9,0.3-7.9,1.5-9.5,3.5c-4.7,5.6-8.8,14.9-12.1,22.6c-1.8,4.3-3.6,8.3-4.6,9.5c-1.2,1.5-3.1,2.5-4.9,3.4c0.3-0.8,0.7-1.7,1-2.4
		c2.1-5.1,4.8-11.5,5.4-14c0.6-2.1,0.7-3.5-0.1-4.4c-0.4-0.6-1.2-0.8-1.9-0.7c-0.7,0.1-1.4,0.5-2.3,0.9c-0.7,0.4-1.6,1-2.4,1.1l0,0
		c-0.5,0-1.6-0.5-2.7-1c-2.2-1-5.1-2.4-8.9-2.1c-2.2,0.2-4.5,1-6.7,2.4c-6.8,4.3-9,10-10.5,13.8c-0.6,1.5-1.1,2.8-1.7,3.5
		c-1.2,1.5-2.6,2.4-3.8,2.5c-0.1,0-0.1,0-0.2,0c0.5-2.5,3.2-8.8,4.4-11.6c1-2.3,1.6-4,1.9-4.8c0.7-2.2,0.1-3.3-0.3-4
		c-0.6-0.8-1.6-1.1-2.7-1c-1.1,0.1-2.3,0.7-3.8,1.7c-1.5,1.1-2.7,1.3-3.4,1.4c-0.1,0-0.2,0-0.4,0c-1.8-2.1-4.9-3.1-8.5-2.8
		c-3.4,0.3-6.7,1.8-9.3,4.4c-5,4.7-7.9,10.8-8.8,12.9l-6.9,2.7l-1.1,0.3l-0.1,1.1c-0.3,2.5-0.9,3.5-1.3,3.7l0,0l-0.2,0.1
		c-2.4,0.9-5.6,1.6-9.7,1.9c-2.9,0.3-5.9,0.3-8,0.2c4.1-4.9,6.5-11.3,7.4-13.8c5.5-0.6,9.7-1.8,11.8-2.6c1.6-0.5,2.9-1.1,3.9-1.6
		c0.9-0.5,2.5-1.2,2.4-2.7c-0.1-0.7-0.7-1.9-2.4-1.8c-1.8,0.2-9.6,0.1-13.6,0.2l4-13.9c0.7-0.2,1.7-0.4,2.8-0.5c1.1-0.1,2,0,2.7,0.1
		c1.6,0.5,2.8,2.8,3.2,3.8l0.8,2.3l2-1.3l7.8-5.2l1.4-1l-0.9-1.4C355.1,367.6,350.1,365.9,341.9,366.6L341.9,366.6z M440.6,383.8
		c0.3-0.9,0.7-1.7,1.1-2.6c2.9-6.5,4.5-7.2,4.8-7.2c0,0.2,0,1-0.5,2.3C444.9,378.9,442.8,381.6,440.6,383.8L440.6,383.8z
		 M363.6,405.2c-0.6-0.9-1.4-3.8,2.3-9.3c2.3-3.4,4.8-4.7,6.5-4.9c0.4,0,1.1,0,1.5,0.5c0.4,0.6,0.3,1.7-0.2,3
		c-2.5,6.2-4.9,10.5-8.5,10.8C364.6,405.4,364.1,405.3,363.6,405.2L363.6,405.2z M401.6,402.9c-0.5,0-0.6-0.1-0.6-0.1
		c-0.1-0.1-0.4-1.3,0.6-4.1c0.8-2.2,2.2-4.9,3.7-7l0,0l0,0c0,0,1.1-1.6,2.8-1.7c0.6-0.1,1.2,0,2,0.3c0.5,0.2,0.4,1.3,0.4,1.6
		c-0.4,4-4.8,10.1-8.4,10.8C401.8,402.9,401.7,402.9,401.6,402.9L401.6,402.9z M457,397c0.9-2,2.4-4.4,4.3-4.6
		c0.6-0.1,1.4,0.1,2.2,0.7c0.8,0.4,0.9,0.8,1.1,0.9C464,395.1,460.6,396.5,457,397L457,397z M380.8,414.9c4.1-1.2,6.6-3.9,8-6.1
		c1.9,1.9,4.1,3.1,6.4,3.4c-0.6,0.2-1.2,0.4-1.7,0.4s-1,0.2-1.6,0.3c-0.4,0-0.9,0.1-1.2,0.1c-0.4,0-0.7,0.1-1,0.1
		c-1,0.1-2.1,0.3-3.3,1.2c0,0-0.6,0.4-3,0.6C382.5,414.9,381.4,414.9,380.8,414.9L380.8,414.9z M478.4,404.8
		c1.4-1.3,2.5-2.6,3.4-3.6c0.3,0.3,0.4,0.8,0.7,1.4c0.5,0.9,2.1,3.9,1.4,5.8c-0.3,0.8-1,1.3-2.1,1.8c-0.5,0.2-0.8,0.3-1.2,0.4
		c-0.6,0.1-0.9-0.2-1-0.3c-0.7-0.7-1.1-2.2-1.1-2.9L478.4,404.8L478.4,404.8z M396.3,420.6c0.6-0.1,1.2-0.2,1.7-0.4
		c-1,1.1-2.3,1.7-3.7,1.8c-0.5,0-0.9,0-1.1-0.1c-0.1-0.1-0.3-0.1-0.3-0.2c0.1-0.3,0.8-1.1,2.4-1.2c0.1,0,0.2,0,0.5,0
		C395.8,420.6,396.1,420.6,396.3,420.6L396.3,420.6z"/>
</g>
<path d="M403.4,308.4l56.8-78.3l1,0.2c1.4,0.3,34.8,7.4,70.2,33.2c20.8,15.2,37.9,33.6,50.9,54.9c16.2,26.6,25.8,57.6,28.7,92.2l0,0
	c0.2,1.8-1.1,3.4-2.9,3.7l-56.8,9.9v164.5c0,1.9-1.6,3.5-3.5,3.5H252.2c-1.9,0-3.5-1.6-3.5-3.5V424.3l-56.8-9.9
	c-1.8-0.3-3-1.9-2.9-3.7l0,0c2.9-34.6,12.5-65.6,28.7-92.2c12.9-21.3,30.1-39.8,50.9-54.9c35.4-25.8,68.8-32.9,70.2-33.2l1-0.2
	l56.8,78.3c0,0,2.3,3.3,3.5,3.3C400.9,311.7,403.4,308.5,403.4,308.4z M259.2,585.2h281.6c1.9,0,3.5-1.6,3.5-3.5V421.3
	c0-1.7,1.2-3.2,2.9-3.4l53.3-9.3c1.8-0.3,3.1-2,2.9-3.8c-6.3-57.7-31.8-103.3-75.9-135.4c-27.9-20.4-53.4-28.9-62.4-31.3
	c-1.4-0.4-2.9,0.1-3.8,1.3l-55.7,77.5l-1.1,1.3c-2.2,2.6-6.2,2.5-8.4-0.1l-0.9-1.2l-55.7-77.5c-0.9-1.2-2.3-1.7-3.8-1.3
	c-9.1,2.5-35.3,11-63.2,31.3c-44.1,32.2-69.6,77.7-75.9,135.4c-0.2,1.8,1.1,3.5,2.9,3.8l53.3,9.3c1.7,0.3,2.9,1.7,2.9,3.4v160.4
	C255.7,583.7,257.3,585.2,259.2,585.2z"/>
<rect x="248.8" y="366.6" width="7" height="58.7"/>
<rect x="544.3" y="366.6" width="7" height="58.7"/>
</svg>
