<?xml version="1.0" encoding="utf-8"?>
<!-- Generator: Adobe Illustrator 27.7.0, SVG Export Plug-In . SVG Version: 6.00 Build 0)  -->
<svg version="1.1" id="레이어_1" xmlns="http://www.w3.org/2000/svg" xmlns:xlink="http://www.w3.org/1999/xlink" x="0px"
	 y="0px" viewBox="0 0 800 800" style="enable-background:new 0 0 800 800;" xml:space="preserve">
<style type="text/css">
	.st0{fill:#EFEADC;}
	.st1{fill:#F24922;}
	.st2{fill:#22232A;}
	.st3{fill:#ED7F4F;}
</style>
<path class="st0" d="M607.5,411c-12.4-149.3-147-177.2-147-177.2L403,313.4h-6l-57.5-79.6c0,0-134.5,27.9-147,177.2l59.7,10.4v167.4
	h295.6V421.3L607.5,411z"/>
<polygon class="st1" points="193,408.9 250.3,419.1 250.8,403.3 193.9,393.1 "/>
<g id="_x34_">
	<g>
		<path class="st2" d="M495,405.8c-0.3-1.8-1.5-2.6-2.9-3.1c-1.4-0.3-3.1,0-4,0.7c-0.9,0.7-3,2.7-5.7,5.3c-2.7,2.6-6.1,6-9.8,9.5
			c-3.6,3.4-8.1,6.2-12.1,7.7c-3.9,1.5-7.6,1.6-9.3,0c-1.7-1.5-1.7-3.5-1.3-5.1c0.4-1.7,1.3-2.9,1.3-2.9c4.4,1.2,9.1,1.3,13.1,0.4
			c4-0.9,7.2-2.9,8.6-5.5c1.4-2.6,1.5-5.6,0.2-7.8c-1.4-2.3-4.4-3.8-9.4-4.1c-5-0.2-9.8,2.7-14,6.7c-4.2,3.9-7.5,8.8-9.6,12.4
			c-2.1,3.6-4.6,5.5-6.6,6.2c-1.9,0.5-3.2-0.1-2.6-2c0.5-1.9,7.5-12.6,14.3-22.6s13.5-19.9,13.5-19.9l-4.5-0.3l-4.5-0.3
			c0,0-5.6,8.5-11.7,17.7c-6.1,9.2-12.9,19.1-15.5,21.9c-2.6,2.8-4.9,4.2-6.6,5c-1.7,0.8-2.8,0.7-2.8,0.7l7.5-12.4l7.5-12.4
			c0,0-1.4-0.2-3-0.4s-3.3-0.5-4.3-0.4c-0.9,0-1.7,0.5-2.3,1.2s-1.1,1.1-1.1,1.1c-8.6-5.3-15.9-3-21.5,1.1
			c-5.6,4.1-9.4,10.4-10.8,13.2c-1.4,2.6-3.4,5.6-5.2,7.3c-1.9,1.7-3.7,2.5-4.7,0.9c-1-1.5,2.3-8,5.7-14c3.5-6,7.2-11.6,7.2-11.6
			s-0.5,0.1-1.3,0.2c-0.8,0-2,0.2-3.5,0.1c-1.5,0.1-2.9,0.7-3.8,1.2c-0.9,0.5-1.6,1.2-1.6,1.2s-1.6-1.4-4.3-2.2
			c-2.7-0.8-6.6-1.1-11.4,0.9c-4.8,2-8.4,5.9-11.2,9.9c-2.8,4-4.8,7.8-6.2,9.9c-1.4,2.1-3.6,4.3-6.1,6c-2.5,1.7-5.3,3.2-7.9,3.4
			c-2.6,0.3-5.7,0.7-8.2,1c-2.6,0.3-4.5,0.6-4.5,0.6c4.3-2.6,7.5-8,9.7-12.6c2.2-4.7,3.4-8.6,3.4-8.6s0.3-0.1,1.5-0.2
			s3.1-0.1,6.1,0.1c3.2,0.1,4.8-1.1,5.6-2.6c0.8-1.3,0.8-2.7,0.8-2.7l-6.1,0.7l-6.1,0.7l5.1-10.2l5.1-10.2c0,0,0.3-0.6,1.6-1.1
			c1.3-0.5,3.4-0.8,7-0.5c3.6,0.4,5.6,2.7,6.9,5c1.1,2.2,1.5,4.4,1.5,4.4l1.1-7.7l1.1-7.7c0,0-2.9,0.4-7,0.6
			c-4,0.4-9.2,0.8-13.4,1.1c-4.2,0.3-11.2,0.9-17.7,2.9c-6.4,2-12.4,5.3-14.5,11.1c-2.1,5.7-0.8,10.3,1.1,13.5
			c1.9,3.2,4.4,4.9,4.4,4.9c-3.8-12.2,0.3-18.9,5.4-22.4c5-3.5,11-3.9,11-3.9s-1,1.2-2.5,4.2c-1.5,3-3.6,7.9-5.5,15.4
			c-2.1,7.4-4.1,13-6.1,17.3s-4,7.1-5.7,8.9c-1.7,1.8-2.7,3.5-3.1,4.8c-0.5,1.3-0.6,2-0.6,2s3.4-0.5,8-1.1
			c4.6-0.7,10.4-1.6,15.5-2.4c5-0.8,8.5-3.6,10.7-6.3c2.2-2.7,3.2-5.1,3.2-5.1s-0.3,1.9,0.4,3.8c0.7,1.9,2.5,3.9,6.5,4.3
			c4.1,0.3,7.8-1.8,10.4-4.2c2.7-2.3,4.4-4.8,4.4-4.8c-0.4,1.4-0.6,3.7,0.2,5.4c0.8,1.9,2.6,3.2,6,2.8c3.4-0.4,6.1-2.5,7.9-4.6
			c1.8-2.1,2.9-4.1,2.9-4.1c0.5,7.9,5.1,8.8,9.5,7.5c4.4-1.2,8.8-4.4,8.8-4.4s-0.6,1.6-2.1,3.6c-1.4,2.1-3.6,4.6-6.7,6.6
			c-3.1,2-6.3,1.9-8.7,1.4c-2.4-0.6-4-1.6-4-1.6c-0.1,2.8,1.9,5.5,4.8,7.1c2.9,1.7,6.8,2.3,10.5,1.1s7.1-4.6,9.6-7.7
			c2.5-3,3.9-5.8,3.9-5.8c2.2,0.3,5-0.9,7.2-2.2c2.2-1.3,3.8-2.6,3.8-2.6c3.2,6.9,8,6.6,12.2,4.6c4-2,7.4-5.8,7.4-5.8
			c0.2,2.7,1.7,5.1,4.8,6.4c3.1,1.3,7.7,1.3,14.2-0.4c6.5-1.8,13.3-6.9,18.5-11.5c5.1-4.7,8.7-8.8,8.7-8.8s0.5,3.2,0.4,6.6
			c-0.1,3.5-0.9,7.5-3.3,9.1c-2.5,1.6-4.8,1.3-6.3,0.5c-1.7-0.8-2.7-2-2.7-2c-0.5,2.3,0.2,5.1,2.2,7c2,1.9,5.3,2.9,10.1,1.1
			c4.9-1.6,6.9-7.7,7.6-13.6C495.9,413.5,495.3,407.5,495,405.8z M467.9,410.2c-1.8,3.1-5.5,4.2-8.6,4.7c-3.2,0.4-5.9,0-5.9,0
			c3.7-5.6,8.3-8.2,11.4-8.8S469.6,407,467.9,410.2z M355.9,426.8c-1.3-0.5-1.9-2.8-1.1-5.8c0.8-3.1,3.1-7.2,7.3-11.5
			s7.5-4.9,9.7-4.5c2.3,0.4,3.4,1.9,3.4,1.9c-2.5,4.9-6.3,10.4-10,14.4C361.6,425.2,358.1,427.7,355.9,426.8z M394.2,424.8
			c-1.8-2.6,0.4-7.1,3.7-11.1c3.1-4,7.4-7.6,9.7-8.4c2-0.8,3.8-0.3,5.1,0.4s2.2,1.4,2.2,1.4c-2.3,3.9-6.4,9.8-10.5,14.1
			C400.3,425.5,396.2,427.9,394.2,424.8z"/>
		<g>
			<path class="st2" d="M306.3,367.5c-0.1,0-0.3-0.1-0.4-0.1c-0.1-0.1-0.1-0.2-0.1-0.4l-0.2-3.9l-0.2-3.9c0-0.1,0.1-0.3,0.1-0.4
				c0.1-0.1,0.2-0.1,0.4-0.1c0.1,0,0.3,0.1,0.4,0.1c0.1,0.1,0.1,0.2,0.1,0.4l0.2,3.9l0.2,3.9c0,0.1-0.1,0.3-0.1,0.4
				C306.5,367.4,306.4,367.5,306.3,367.5z"/>
			<path class="st2" d="M313,367.3c-0.1,0-0.3,0-0.4-0.1c-0.1-0.1-0.1-0.2-0.1-0.4l-0.3-4.2l-0.3-4.2c0-0.1,0-0.3,0.1-0.4
				c0.1-0.1,0.2-0.1,0.4-0.1c0.1,0,0.3,0,0.4,0.1c0.1,0.1,0.1,0.2,0.1,0.4l0.3,4.2l0.3,4.2c0,0.1,0,0.3-0.1,0.4
				C313.4,367.3,313.2,367.3,313,367.3C313.1,367.3,313.1,367.3,313,367.3C313.1,367.3,313.1,367.3,313,367.3z"/>
			<path class="st2" d="M306,362.6c-0.1,0-0.3,0-0.3-0.1c0-0.1-0.1-0.1-0.1-0.2c0-0.1,0-0.3,0.1-0.3c0.1,0,0.1-0.1,0.2-0.1l3.3-0.1
				l3.3-0.1c0.1,0,0.3,0,0.3,0.1c0,0.1,0.1,0.1,0.1,0.2c0,0.1,0,0.3-0.1,0.3c-0.1,0-0.1,0.1-0.2,0.1l-3.3,0.1L306,362.6L306,362.6
				L306,362.6z"/>
			<path class="st2" d="M317.8,365.9c-0.3,0-0.5,0-0.8-0.1s-0.5-0.2-0.6-0.4c-0.3-0.1-0.4-0.4-0.5-0.7c-0.1-0.2-0.2-0.6-0.2-1
				c0-0.3,0-0.5,0.1-0.6c0.1-0.3,0.2-0.4,0.4-0.5c0.6-0.5,1.6-0.8,2.6-1c1-0.2,2-0.1,2.5-0.1l0-0.1l0-0.1c0-0.1,0-0.1-0.1-0.2
				s-0.1-0.1-0.1-0.2c-0.5-0.4-1.4-0.3-2.4-0.3c-1,0-1.9,0.2-2.4,0.3c-0.1,0-0.3,0-0.4,0c-0.1,0-0.1-0.1-0.1-0.2c0-0.1,0-0.3,0-0.4
				c0-0.1,0.1-0.1,0.2-0.1c0.3,0,1.3-0.3,2.4-0.3c1.1,0,2.4-0.1,3.2,0.4c0.1,0.1,0.4,0.2,0.4,0.5c0.1,0.1,0.1,0.4,0.3,0.5
				c0,0.1,0,0.1,0,0.3c0,0.1,0,0.1,0,0.3c0.1,0.5,0.2,1,0.2,1.6c0,0.6-0.1,1.1-0.6,1.7c-0.2,0.4-0.7,0.7-1.2,0.8
				c-0.5,0.1-1.1,0.3-2,0.3l-0.1,0l-0.1,0c-0.1,0-0.3,0-0.3,0C318,365.9,317.9,365.9,317.8,365.9z M320.4,362.4
				c-0.6,0-1.4,0.1-2,0.2c-0.6,0.2-1.3,0.3-1.6,0.7c-0.1,0.1-0.1,0.1-0.2,0.3c0,0.1-0.1,0.3-0.1,0.3c0,0.3,0,0.5,0.2,0.6
				c0,0.1,0.1,0.4,0.3,0.4c0.1,0.1,0.4,0.2,0.6,0.2c0.3,0,0.5,0,0.8,0c0.1,0,0.1,0,0.3,0l0.1,0c0.6,0,1.1,0,1.6-0.2
				c0.4-0.1,0.8-0.3,1-0.5c0.2-0.3,0.2-0.5,0.3-0.9c0-0.3,0-0.6,0-1c-0.1,0-0.3,0-0.5,0S320.5,362.4,320.4,362.4z"/>
			<path class="st2" d="M330,364.8c-0.1,0-0.3-0.1-0.4-0.1c-0.1-0.1-0.1-0.2-0.1-0.4s0-0.1,0-0.3c0-0.1,0-0.3,0-0.3
				c0-0.8-0.1-1.6-0.1-2.4c-0.2-0.8-0.3-1.5-0.8-1.9c-0.1-0.1-0.3-0.2-0.5-0.4c-0.3-0.1-0.4-0.1-0.6-0.1c-1,0-1.6,0.4-2,0.8
				s-0.5,0.9-0.5,1l0.1,1.8l0.1,1.8c0,0.1-0.1,0.3-0.1,0.4c-0.1,0.1-0.2,0.1-0.4,0.1c-0.1,0-0.3-0.1-0.4-0.1
				c-0.1-0.1-0.1-0.2-0.1-0.4l-0.1-1.9l-0.1-1.9c0.1-0.5,0.3-1.2,0.8-1.8c0.6-0.5,1.5-1.1,2.7-1.1c0.4,0,0.8,0.1,1.2,0.2
				c0.4,0.1,0.6,0.4,0.9,0.6c0.7,0.6,0.9,1.4,1.1,2.4c0.2,0.9,0.2,1.9,0.2,2.8c0,0.1,0,0.3,0,0.3c0,0.1,0,0.1,0,0.3
				c0,0.1-0.1,0.3-0.1,0.4C330.3,364.8,330.2,364.8,330,364.8z"/>
			<path class="st2" d="M335.1,364.1c-0.4,0-0.8-0.1-1-0.2c-0.4-0.1-0.6-0.4-0.9-0.6c-0.8-0.9-1-2.1-1.1-3.3c0-1.1,0-2,0-2.2
				c0-0.1,0.1-0.3,0.2-0.4c0.1-0.1,0.2-0.1,0.4-0.1c0.1,0,0.3,0.1,0.4,0.2c0.1,0.1,0.1,0.2,0.1,0.4c-0.1,0.5-0.1,1.3,0,2.2
				c0,0.9,0.3,1.8,0.7,2.3c0.1,0.1,0.3,0.2,0.5,0.4c0.3,0.1,0.4,0.1,0.6,0.1c0.4,0,0.8,0,1-0.2c0.2-0.1,0.5-0.3,0.7-0.5
				c0.2-0.3,0.4-0.8,0.5-1c0-0.4,0-0.5,0-0.5l0.5,0l0.5,0c0,0.1,0.1,0.5,0.3,1c0.1,0.5,0.7,0.7,1.4,0.8c0.9,0,1.5-0.2,1.7-1
				c0.4-0.8,0.4-2.2,0.3-4.7c0-0.1,0.1-0.3,0.1-0.4c0.1-0.1,0.2-0.1,0.4-0.1c0.1,0,0.3,0.1,0.4,0.1c0.1,0.1,0.1,0.2,0.1,0.4
				c0.1,2.3,0,3.9-0.3,5.1c-0.5,1.2-1.2,1.7-2.9,1.8c-0.5,0-0.9-0.1-1.3-0.2c-0.4-0.1-0.6-0.4-0.9-0.7c0,0.1-0.1,0.3-0.1,0.3
				c-0.1,0.1-0.1,0.1-0.2,0.3c-0.2,0.4-0.6,0.7-1.1,0.8C336.1,363.9,335.6,364.1,335.1,364.1z"/>
			<path class="st2" d="M337.8,361.5c-0.1,0-0.3-0.1-0.4-0.1c-0.1-0.1-0.1-0.2-0.1-0.4l-0.1-1.6l-0.1-1.6c0-0.1,0.1-0.3,0.1-0.4
				c0.1-0.1,0.2-0.1,0.4-0.1c0.1,0,0.3,0.1,0.4,0.1c0.1,0,0.1,0.2,0.1,0.4l0.1,1.6l0.1,1.6c0,0.1-0.1,0.3-0.1,0.4
				C338.2,361.5,338,361.5,337.8,361.5z"/>
			<path class="st2" d="M345.8,363.2c-0.1,0-0.3,0-0.4-0.1c-0.1-0.1-0.1-0.2-0.1-0.4l-0.1-3.7l-0.1-3.7c0-0.1,0.1-0.3,0.1-0.4
				c0.1-0.1,0.2-0.1,0.4-0.1c0.1,0,0.3,0,0.4,0.1c0.1,0.1,0.1,0.2,0.1,0.4l0,1.1l0,1.1c0.1-0.1,0.2-0.3,0.2-0.4
				c0-0.1,0.2-0.3,0.4-0.4c0.2-0.3,0.6-0.4,0.9-0.5c0.4-0.1,0.6-0.2,1-0.2c1.8,0.1,2.7,1.5,3.2,2.9c0.4,1.4,0.4,2.9,0.4,2.9
				c0,0.1-0.1,0.3-0.1,0.4c-0.1,0.1-0.2,0.1-0.4,0.1c-0.1,0-0.3-0.1-0.4-0.1c-0.1-0.1-0.1-0.2-0.1-0.4c0,0,0-1.1-0.3-2.4
				c-0.3-1.1-0.9-2.4-2.1-2.5c-0.3,0-0.4,0-0.6,0c-0.1,0-0.4,0.1-0.5,0.3c-0.5,0.5-0.8,1.3-1.1,2.3c-0.2,0.9-0.2,1.9-0.2,2.5l0,0
				l0,0c0,0.1-0.1,0.3-0.1,0.4C346.2,362.8,346,363.2,345.8,363.2z"/>
			<path class="st2" d="M356.9,362.9c-0.6,0-1.1-0.1-1.5-0.1c-0.4-0.1-0.8-0.2-1-0.5c-0.3-0.2-0.4-0.6-0.5-0.9
				c-0.1-0.4-0.2-0.6-0.2-1c0-1,0.7-1.4,1.8-1.7c1.1-0.3,2.7-0.4,4.3-0.4c0-0.1,0-0.3-0.1-0.4c0-0.1-0.1-0.2-0.1-0.4
				c-0.3-0.8-1.3-1-2.4-0.9s-2.3,0.2-2.9,0.4c-0.1,0-0.3,0-0.4-0.1c-0.1-0.1-0.3-0.2-0.3-0.4s0-0.3,0.1-0.4c0.1-0.1,0.2-0.3,0.4-0.3
				c0.3,0,1.8-0.5,3.2-0.4c1.5,0.1,2.9,0.4,3.5,1.6c0.3,0.9,0.4,1.6,0.5,2.4c0,0.8-0.2,1.3-0.4,1.8c-0.2,0.4-0.6,0.8-1,0.9
				c-0.5,0.3-1,0.4-1.6,0.4c-0.3,0-0.4,0-0.6,0C357.3,362.9,357.1,362.9,356.9,362.9z M360,359.3c-1.1,0-2.4,0.1-3.4,0.3
				c-1,0.2-1.8,0.3-1.7,0.8c0,0.3,0,0.5,0,0.8s0.1,0.2,0.3,0.4c0.1,0.1,0.5,0.2,1,0.3c0.5,0,1.1,0,1.9-0.1c0.4,0,0.8-0.2,1.1-0.3
				c0.4-0.1,0.5-0.4,0.7-0.7c0.1-0.1,0.2-0.4,0.2-0.6C360.2,359.9,360,359.6,360,359.3z"/>
		</g>
		<g>
			<g>
				<g>
					<path class="st3" d="M452.9,452c0,0,0.1-1.4,0.1-2.9c0.2-1.5,0.5-3.3,0.9-4c0.7-1.1,1.9-2.1,3-2.7c1-0.6,2-1,2.1-0.8
						c0.1,0.1,0,0.5-0.3,1.1c-0.3,0.6-0.8,1.4-1.3,2.4c-0.2,0.4-0.3,0.6-0.4,1c-0.1,0.4-0.2,0.7-0.2,1.1l-0.1,8.4l-0.1,8.4
						c0,0.5-0.1,0.9-0.2,1.3c-0.1,0.5-0.3,0.8-0.5,1.3c-0.3,0.7-0.9,1.4-1.7,2.2c-0.8,0.7-2,1.3-3.6,1.6c-0.1,0-0.2,0-0.2-0.1
						c0-0.1,0-0.1,0-0.2c0.3-0.4,0.9-1.1,1.3-1.7c0.4-0.6,0.8-1.2,0.9-1.6c0.1-0.4,0.3-1.9,0.2-3.3c0.1-1.4,0-2.7,0-2.7
						s-0.4,0-0.8,0.3s-1.2,0.6-2,1.3c-0.7,0.6-0.6,0-0.2-0.9c0.6-1,1.6-2.2,3-2.8l0-2l0-2c0,0-0.3,0.1-0.9,0.5
						c-0.6,0.4-1.4,1-2.4,1.9c-0.1,0.1-0.2-0.3,0.2-1.1C450.1,454.7,451,453.5,452.9,452z"/>
				</g>
				<g>
					<g>
						<path class="st3" d="M479.7,454c-0.2-0.2-1.3,0.5-2.1,1.3c-0.8,0.7-1.5,1.4-1.3,0.6c0.3-0.7,1.2-1.6,2.1-2.7
							c0.9-1.1,1.7-2.5,1.5-4.3c-0.1-1.8-0.7-3.4-1.6-4.5c-0.9-1.1-1.6-2.1-2.2-2.3c-0.6-0.2-1.4,0.3-2.2,1.1
							c-0.8,0.9-1.6,1.9-2,2.6c-0.4,0.7-0.6,1.7-0.7,2.6c-0.1,0.9-0.2,2.1-0.1,3.1s-0.4,1.7-0.7,2c-0.3,0.4-0.7,0.6-0.7,0.6
							s0.2-1.3,0.1-2.9c-0.1-1.6-0.4-3.8-1.4-5.2c-0.9-1.5-2-2.6-2.8-3.3c-0.9-0.7-1.6-0.9-1.8-0.6c-0.2,0.2-1.8,1.4-3.1,2.7
							c-1.4,1.2-2.4,2.6-1.9,3.3c0.2,0.3,0.4,1,0.5,1.7c0,0.7,0.1,1.5,0,2.4c-0.1,0.6-0.2,1.2-0.4,1.8c-0.2,0.6-0.4,1.1-0.8,1.7
							c-0.6,1-0.8,1.7-0.6,2c0,0.4,0.2,0.3,0.6-0.1c0.4-0.7,1-1.1,1.7-1.5c0.7-0.4,1.5-0.5,2.4-0.7c0.7-0.1,1.6-0.7,2.4-1.3
							c0.8-0.6,1.6-1.4,2.1-1.7c0.1-0.1,0.2-0.1,0.4,0c0.1,0,0.2,0.1,0.1,0.2c0,5.4-2.2,10-4.2,13.1c-1.9,3.1-3.6,4.7-2.3,4.2
							c1.3-0.5,2.6-1.9,3.9-3.6c1.2-1.7,2.4-3.9,3.3-5.9c0.9-2,1.3-3.2,1.6-4s0.7-1.1,1.2-1.5c0.6-0.4,1.1-1,1.7-1.4
							c0.5-0.4,0.8-0.4,0.8,0.3s-0.5,1.3-1.2,2.2s-1.6,1.7-2.1,3c-0.5,1.2-0.8,3-0.9,4.9c0,1.8,0.4,3.6,1,5c0.6,1.4,1.5,1.7,2.4,1.4
							s2.1-1,3.3-1.9c1.3-0.8,1.8-1.7,2-2.6c0.2-0.7,0.2-1.3,0.2-1.3s0-1.2-0.1-2.6c-0.1-1.4,0-3.1,0.2-4c0.2-1,0.6-1.8,1-2.4
							C479.6,454.7,480,454.2,479.7,454z M466.1,450.5c-0.5,0.4-1.5,1.1-2.4,1.6c-1,0.5-2,0.8-2.2,0.6c-0.4-0.3-0.3-1.5-0.1-2.7
							c0.2-1.2,0.5-2.5,0.6-3.2c0-0.2,0.1-0.4,0.3-0.4c0.1-0.1,0.3-0.1,0.5,0c1.4,0.4,2.5,1.3,3,2.1
							C466.4,449.2,466.5,450,466.1,450.5z M473.2,449.2c0-1.1-0.1-2.1,0.1-2.7c0.2-0.6,0.7-1,1.7-0.5c1.1,0.4,1.8,1.1,2.2,1.8
							s0.3,1.4-0.3,1.8s-1.3,0.8-2,1c-0.6,0.3-1,0.4-1,0.4s-0.2,0.1-0.4,0C473.4,450.7,473.2,450.3,473.2,449.2z M470.8,461.2
							c-0.2-0.1-0.1-0.6,0.3-1.4c0.4-0.8,1.4-2.2,2.8-4c1.3-1.9,2.2-3.3,2.8-4.1s0.8-1.2,1.1-1.1c0.6,0.3-1.1,3-2.8,5.6
							C473.2,458.8,471.1,461.4,470.8,461.2z M475.7,466.2c-0.6,0.3-1.2,0.2-1.6,0.1s-0.8-0.3-0.8-0.3s-0.7-0.3-1.2-0.9
							c-0.5-0.6-1-1.4-0.3-2.3c0.6-1,1.6-2.2,2.6-3c1-0.9,1.9-1.5,2.4-1.3c0.4,0.3,0.4,2.1,0.3,4
							C476.8,464.2,476.3,465.9,475.7,466.2z"/>
					</g>
				</g>
				<g>
					<path class="st3" d="M481.3,459.8c-0.2,0-0.4-0.1-0.5-0.2c-0.1-0.1-0.1-0.3,0-0.6c0.1-0.2,0.3-0.7,0.4-1.3
						c0.1-0.6,0.2-1.2,0.3-2.1c0.1-1.7,0-4,0.1-6c0.2-2.1,0.3-3.9,0.9-4.6c0.6-0.7,1.1-1.5,1.7-2.1c0.6-0.5,1.3-0.8,1.9-0.4
						c0.7,0.4,1,0.8,1.2,1.1c0.2,0.2,0.5,0.5,1.2,0.3c0.7-0.1,1.1,0.1,1,0.4c-0.1,0.4-0.8,1-2.3,1.6c0,0-0.2,0.1-0.5,0.4
						c-0.2,0.2-0.4,0.7-0.4,1.2l0,0.7l0,0.7c0,0.4,0.1,0.7,0.3,1c0.1,0.3,0.4,0.6,0.7,0.7c0.7,0.3,1.6,1.1,2.3,2.3
						c0.8,1.1,1.3,2.8,1.3,5c0,0,0,0.2,0.3,0.5c0.1,0.2,0.5,0.5,0.8,0.4c0.4,0,0.3,0.5-0.1,1.1s-0.9,1.2-1.3,1.7
						c-0.5,0.4-0.3,2-0.7,3.8c-0.4,1.8-1.2,3.6-3.6,4.4c-2.3,0.8-4.1-0.5-5.2-2.2c-1.1-1.6-1.4-3.6-1.1-4c0.5-0.4,0.7,0.6,1.2,1.6
						c0.6,1,1.5,2.2,3.4,2c1.8-0.1,2.6-1.5,3.2-3c0.4-1.4,0.5-2.7,0.5-2.7s-0.7-0.1-1.7-0.2c-0.8-0.1-1.8,0-2.2,0.4
						c-0.5,0.4-1,1.1-1.5,1.5c-0.5,0.4-0.6,0.1-0.2-1.2c0.4-1.3,0.6-2.1,0.7-2.5c0.2-0.4,0.5-0.5,1.2-0.5c0.7,0,1.7,0.1,2.5,0
						c0.8,0,1.4,0.1,1.4,0.1s0.2-0.8,0-1.9c0-1.2-0.3-2.6-1.1-3.8c-0.8-1.3-1.5-1.5-1.8-1.7c-0.4-0.3-0.6-0.6-0.6-2.1
						c0.1-1.5,0.1-2.5,0.1-3.2c0-0.7-0.2-1.1-0.5-1.2c-0.4-0.1-0.6,1-0.6,2.5c-0.1,1.5,0,3.3-0.1,4.6c0,1.1,0,2.8-0.3,4.4
						C483.2,458.3,482.5,459.5,481.3,459.8z"/>
				</g>
				<g>
					<polygon class="st3" points="485.5,469.3 485.3,469.3 484.9,469.3 485.2,459.9 485.3,450.5 485.5,450.5 485.7,450.4 
						485.6,459.9 					"/>
				</g>
			</g>
		</g>
	</g>
</g>
<polygon class="st2" points="194.8,397.6 251.4,407.4 251.7,413.3 193.8,403 "/>
<polygon class="st1" points="606.7,393.1 549.8,403.3 550.3,419.1 607.6,408.9 "/>
<polygon class="st2" points="605.9,397.6 549.3,407.4 549,413.3 606.8,403 "/>
<path class="st1" d="M329.3,237c0.7,0.2,49.7,68.8,65.8,91.3c2.5,3.5,7.6,3.5,10.1,0l66.9-91.7l-10.7-2.7l-59.9,82.4h-3.3
	l-60.7-82.7L329.3,237z"/>
<path d="M403.4,308.4l56.8-78.3l1,0.2c1.4,0.3,34.8,7.4,70.2,33.2c20.8,15.2,37.9,33.6,50.9,54.9c16.2,26.6,25.8,57.6,28.7,92.2l0,0
	c0.2,1.8-1.1,3.4-2.9,3.7l-56.8,9.9v164.5c0,1.9-1.6,3.5-3.5,3.5H252.2c-1.9,0-3.5-1.6-3.5-3.5V424.3l-56.8-9.9
	c-1.8-0.3-3-1.9-2.9-3.7l0,0c2.9-34.6,12.5-65.6,28.7-92.2c12.9-21.3,30.1-39.8,50.9-54.9c35.4-25.8,68.8-32.9,70.2-33.2l1-0.2
	l56.8,78.3c0,0,2.3,3.3,3.5,3.3C400.9,311.7,403.4,308.5,403.4,308.4z M259.2,585.2h281.6c1.9,0,3.5-1.6,3.5-3.5V421.3
	c0-1.7,1.2-3.2,2.9-3.4l53.3-9.3c1.8-0.3,3.1-2,2.9-3.8c-6.3-57.7-31.8-103.3-75.9-135.4c-27.9-20.4-53.4-28.9-62.4-31.3
	c-1.4-0.4-2.9,0.1-3.8,1.3l-55.7,77.5l-1.1,1.3c-2.2,2.6-6.2,2.5-8.4-0.1l-0.9-1.2l-55.7-77.5c-0.9-1.2-2.3-1.7-3.8-1.3
	c-9.1,2.5-35.3,11-63.2,31.3c-44.1,32.2-69.6,77.7-75.9,135.4c-0.2,1.8,1.1,3.5,2.9,3.8l53.3,9.3c1.7,0.3,2.9,1.7,2.9,3.4v160.4
	C255.7,583.7,257.3,585.2,259.2,585.2z"/>
<rect x="248.8" y="366.6" width="7" height="58.7"/>
<rect x="544.3" y="366.6" width="7" height="58.7"/>
</svg>
