<?xml version="1.0" encoding="utf-8"?>
<!-- Generator: Adobe Illustrator 27.7.0, SVG Export Plug-In . SVG Version: 6.00 Build 0)  -->
<svg version="1.1" id="레이어_1" xmlns="http://www.w3.org/2000/svg" xmlns:xlink="http://www.w3.org/1999/xlink" x="0px"
	 y="0px" viewBox="0 0 800 800" style="enable-background:new 0 0 800 800;" xml:space="preserve">
<style type="text/css">
	.st0{fill:#FFFFFF;}
	.st1{fill:#F24922;}
	.st2{fill:#22232A;}
	.st3{fill:#FFDC8F;}
	.st4{fill:none;}
	.st5{fill:#F2F1EF;}
	.st6{fill:#412A1B;}
	.st7{fill:#F7C0BD;}
	.st8{fill:#FFF5CF;}
	.st9{fill:#9E6240;}
	.st10{fill:#F93858;}
	.st11{fill:#B5CBDB;}
	.st12{fill:#EFBD7D;}
	.st13{fill:#652711;}
	.st14{fill:#FDBDBA;}
</style>
<path class="st0" d="M609.3,411c-12.4-149.3-147-177.2-147-177.2l-57.5,79.6h-6l-57.5-79.6c0,0-134.5,27.9-147,177.2l59.7,10.4
	v167.4h295.6V421.3L609.3,411z"/>
<polygon class="st1" points="193,408.9 250.3,419.1 250.8,403.3 193.9,393.1 "/>
<polygon class="st2" points="194.8,397.6 251.4,407.4 251.7,413.3 193.8,403 "/>
<polygon class="st1" points="606.7,393.1 549.8,403.3 550.3,419.1 607.6,408.9 "/>
<polygon class="st2" points="605.9,397.6 549.3,407.4 549,413.3 606.8,403 "/>
<path class="st3" d="M289,254.2c0,0-35.6,64.6-36.7,127.4v39.8l-51-9c0,0-8.4,2.5-7.5-9.4C194.8,391.1,198.9,303.4,289,254.2z"/>
<path class="st3" d="M509.7,254.2c0,0,35.6,64.6,36.7,127.4v39.8l51-9c0,0,8.4,2.5,7.5-9.4C604,391.1,599.8,303.4,509.7,254.2z"/>
<path d="M403.4,308.4l56.8-78.3l1,0.2c1.4,0.3,34.8,7.4,70.2,33.2c20.8,15.2,37.9,33.6,50.9,54.9c16.2,26.6,25.8,57.6,28.7,92.2l0,0
	c0.2,1.8-1.1,3.4-2.9,3.7l-56.8,9.9v164.5c0,1.9-1.6,3.5-3.5,3.5H252.2c-1.9,0-3.5-1.6-3.5-3.5V424.3l-56.8-9.9
	c-1.8-0.3-3-1.9-2.9-3.7l0,0c2.9-34.6,12.5-65.6,28.7-92.2c12.9-21.3,30.1-39.8,50.9-54.9c35.4-25.8,68.8-32.9,70.2-33.2l1-0.2
	l56.8,78.3c0,0,2.3,3.3,3.5,3.3C400.9,311.7,403.4,308.5,403.4,308.4z M259.2,585.2h281.6c1.9,0,3.5-1.6,3.5-3.5V421.3
	c0-1.7,1.2-3.2,2.9-3.4l53.3-9.3c1.8-0.3,3.1-2,2.9-3.8c-6.3-57.7-31.8-103.3-75.9-135.4c-27.9-20.4-53.4-28.9-62.4-31.3
	c-1.4-0.4-2.9,0.1-3.8,1.3l-55.7,77.5l-1.1,1.3c-2.2,2.6-6.2,2.5-8.4-0.1l-0.9-1.2l-55.7-77.5c-0.9-1.2-2.3-1.7-3.8-1.3
	c-9.1,2.5-35.3,11-63.2,31.3c-44.1,32.2-69.6,77.7-75.9,135.4c-0.2,1.8,1.1,3.5,2.9,3.8l53.3,9.3c1.7,0.3,2.9,1.7,2.9,3.4v160.4
	C255.7,583.7,257.3,585.2,259.2,585.2z"/>
<path d="M252.3,366.6L252.3,366.6c1.9,0,3.5,1.6,3.5,3.5v55.2h-7v-55.2C248.8,368.2,250.4,366.6,252.3,366.6z"/>
<path d="M547.8,366.6L547.8,366.6c1.9,0,3.5,1.6,3.5,3.5v51.7c0,1.9-1.6,3.5-3.5,3.5l0,0c-1.9,0-3.5-1.6-3.5-3.5v-51.7
	C544.3,368.2,545.9,366.6,547.8,366.6z"/>
<g>
	<path class="st4" d="M395.5,384.9"/>
	<g>
		<g>
			<g>
				<path class="st3" d="M301.4,352.5c-0.4,0-0.8,0.4-0.8,0.9l0,3.3l-5.7-0.1l0.1-2.7c0-0.4-0.4-0.8-0.9-0.8c-0.4,0-0.8,0.4-0.8,0.9
					l-0.1,3.1c-0.1,0.1-0.1,0.3-0.1,0.4c0,0.1,0,0.3,0.1,0.4l-0.1,5c0,0.4,0.4,0.8,0.9,0.8c0.4,0,0.8-0.4,0.8-0.9l0.1-4.5l5.7,0.1
					l0.1,4.5c0,0.4,0.4,0.8,0.9,0.8l0,0c0.4,0,0.8-0.4,0.8-0.9l-0.1-9.7C302.3,352.9,301.9,352.4,301.4,352.5z"/>
				<path class="st3" d="M301.4,353c0.1,0,0.4,0.1,0.4,0.4l0.1,9.7c0,0.1,0,0.1-0.1,0.3c0,0-0.1,0.1-0.3,0.1c-0.1,0-0.4-0.1-0.4-0.4
					l-0.1-4.5l0-0.6l-0.6,0l-5.7-0.1l-0.6,0l0,0.6l-0.1,4.5c0,0.1-0.1,0.4-0.4,0.4l0,0c-0.1,0-0.4-0.1-0.4-0.4l0.1-5l0-0.1l0-0.1
					l0-0.1l0-0.1l0.1-0.1l0-0.1l0.1-3.1c0-0.1,0.1-0.4,0.4-0.4l0,0c0.1,0,0.4,0.1,0.4,0.4l-0.1,2.7l0,0.6l0.6,0l5.7,0.1l0.6,0l0-0.6
					l0-3.3c0-0.1,0-0.1,0.1-0.3C301.2,353,301.3,353,301.4,353L301.4,353 M301.4,352.5L301.4,352.5c-0.6,0-0.8,0.4-0.8,0.9l0,3.3
					l-5.7-0.1l0.1-2.7c0-0.4-0.4-0.8-0.9-0.8l0,0c-0.4,0-0.8,0.4-0.8,0.9l-0.1,3.1c-0.1,0.1-0.1,0.3-0.1,0.4c0,0.1,0,0.3,0.1,0.4
					l-0.1,5c0,0.4,0.4,0.8,0.9,0.8l0,0c0.4,0,0.8-0.4,0.8-0.9l0.1-4.5l5.7,0.1l0.1,4.5c0,0.4,0.4,0.8,0.9,0.8l0,0l0,0
					c0.4,0,0.8-0.4,0.8-0.9l-0.1-9.7C302.3,352.9,301.9,352.4,301.4,352.5L301.4,352.5z"/>
			</g>
			<g>
				<path class="st3" d="M312.4,357c0-0.6-0.3-1.1-0.9-1.4c-1.7-1.3-5.8-0.6-6.5-0.5c-0.4,0.1-0.8,0.6-0.7,1c0.1,0.4,0.6,0.8,1,0.7
					c1.7-0.3,4.4-0.5,5.3,0.1c0,0,0.1,0,0.1,0.1c-1.6-0.1-4.4-0.1-5.7,1.1c-0.6,0.4-0.7,1-0.8,1.6c0,1,0.3,1.7,0.7,2.3
					c0.6,0.6,1.3,0.7,1.9,0.7c0.3,0,0.6,0,0.7,0c0.1,0,0.3,0,0.3,0c1.8,0,3.3-0.3,4-1.3c1-1.1,0.8-2.9,0.7-4
					C312.6,357.3,312.4,357.2,312.4,357z M310.6,360.3c-0.4,0.4-1.3,0.7-2.6,0.6c-0.1,0-0.3,0-0.4,0c-0.4,0-1,0.2-1.3-0.1
					c-0.1-0.1-0.3-0.4-0.3-1c0-0.1,0-0.1,0.1-0.3c0.6-0.6,2.4-0.7,3.8-0.6c0.3,0,0.6,0,0.9,0C310.9,359.4,310.9,360,310.6,360.3z"/>
				<path class="st3" d="M308.3,355.4c1.4,0,2.4,0.3,3,0.7c0.4,0.3,0.6,0.7,0.6,1.1c0,0.1,0,0.3,0,0.6l0,0c0.2,1.1,0.5,2.6-0.5,3.6
					c-0.7,0.7-1.7,1.2-3.4,1l-0.1,0l0,0l0,0c0,0-0.1,0-0.3,0c-0.1,0-0.4,0-0.7,0l-0.1,0c-0.7,0-1.1-0.1-1.6-0.6
					c-0.4-0.4-0.6-1-0.6-1.8c0-0.4,0.3-0.9,0.6-1.3c0.7-0.7,2.3-1,4.4-1c0.3,0,0.6,0,1,0l1.1,0.1l-0.7-0.8l-0.1-0.1
					c-0.4-0.3-1.3-0.6-2.4-0.5c-1,0-2.1,0.2-3.1,0.3c0,0,0,0-0.1,0c-0.1,0-0.3-0.1-0.4-0.3c0-0.1,0-0.1,0-0.3c0-0.1,0.1-0.1,0.3-0.1
					C305.4,355.5,306.9,355.4,308.3,355.4 M306.9,361.5c0.3,0,0.4,0,0.6,0c0.1,0,0.3,0,0.4,0l0,0l0.1,0c1.4,0,2.3-0.3,2.8-0.9
					c0.4-0.6,0.6-1.3,0.4-1.7l0-0.4l-0.4,0c-0.3,0-0.6,0-0.9,0c-0.1,0-0.1,0-0.3,0c-1.1,0-3.1,0-4,0.8c-0.3,0.1-0.3,0.4-0.4,0.7
					c0,0.6,0.2,1,0.4,1.3C306.1,361.3,306.5,361.5,306.9,361.5 M308.3,354.8c-1.4,0-2.8,0.2-3.3,0.3c-0.4,0.1-0.8,0.6-0.7,1
					c0.1,0.4,0.4,0.7,0.9,0.7l0.1,0c0.9-0.2,2-0.3,3-0.3c1,0,1.7,0.1,2.1,0.4c0,0,0.1,0,0.1,0.1c-0.3,0-0.6,0-1,0
					c-1.6,0-3.7,0.2-4.7,1.2c-0.6,0.4-0.7,1-0.8,1.6c0,1,0.3,1.7,0.7,2.3c0.6,0.6,1.3,0.7,1.9,0.7c0,0,0,0,0.1,0c0.3,0,0.6,0,0.7,0
					c0.1,0,0.1,0,0.3,0l0,0l0.1,0c1.8,0,3-0.5,3.8-1.3c1-1.1,0.8-2.9,0.7-4c0-0.1,0-0.3,0-0.6c0-0.6-0.3-1.1-0.9-1.4
					C310.8,355,309.6,354.8,308.3,354.8L308.3,354.8z M306.9,361.1c-0.3,0-0.6,0-0.7-0.1c-0.1-0.1-0.3-0.4-0.3-1
					c0-0.1,0-0.1,0.1-0.3c0.6-0.6,2.1-0.7,3.5-0.6c0.1,0,0.1,0,0.3,0c0.3,0,0.6,0,0.9,0c0,0.6,0,1-0.3,1.4c-0.4,0.4-1.3,0.7-2.4,0.6
					l-0.1,0l0,0c-0.1,0-0.3,0-0.4,0C307.4,360.9,307.2,361.1,306.9,361.1L306.9,361.1z"/>
			</g>
			<g>
				<path class="st3" d="M318.1,353.5c-3.1-0.1-4.4,2-4.5,3.3l-0.1,4.3c0,0.4,0.4,0.8,0.9,0.8c0.4,0,0.8-0.4,0.8-0.9l0.1-4.1
					c0.1-0.3,0.5-1.7,2.7-1.7c0.6,0,0.9,0.1,1.1,0.4c0.9,0.8,0.7,3.1,0.8,4.8c0,0.3,0,0.4,0,0.7c0,0.4,0.4,0.8,0.9,0.8
					c0.4,0,0.8-0.4,0.8-0.9c0-0.1,0-0.4,0-0.6c0.1-2,0.1-4.7-1.2-6.1C319.9,353.8,319.1,353.5,318.1,353.5z"/>
				<path class="st3" d="M317.9,354C317.9,354,318.1,354,317.9,354c1,0,1.6,0.3,2.1,0.8c1.2,1.3,1.2,3.7,1.1,5.7c0,0.3,0,0.4,0,0.7
					c0,0.1-0.1,0.4-0.4,0.4l0,0c-0.1,0-0.1,0-0.3-0.1c0-0.1-0.1-0.1-0.1-0.3c0-0.1,0-0.4,0-0.7c0.1-1.8,0.1-4.1-0.9-5.1
					c-0.4-0.4-0.9-0.6-1.6-0.6c0,0,0,0-0.1,0c-2.6,0-3,1.7-3.1,2.2l0,0l0,0l-0.1,4.1c0,0.1-0.1,0.4-0.4,0.4l0,0
					c-0.1,0-0.1,0-0.3-0.1c-0.1-0.1-0.1-0.1-0.1-0.3l0.1-4.3C314.3,355.7,315.2,354,317.9,354 M317.9,353.4c-3.1,0-4.2,2.2-4.4,3.3
					l-0.1,4.3c0,0.4,0.4,0.8,0.9,0.8l0,0c0.4,0,0.8-0.4,0.8-0.9l0.1-4.1c0.1-0.3,0.5-1.7,2.5-1.7c0,0,0,0,0.1,0
					c0.6,0,0.9,0.1,1.1,0.4c0.9,0.8,0.7,3.1,0.8,4.8c0,0.3,0,0.4,0,0.7c0,0.4,0.4,0.8,0.9,0.8l0,0c0.4,0,0.8-0.4,0.8-0.9
					c0-0.1,0-0.4,0-0.6c0.1-2,0.1-4.7-1.2-6.1C319.9,353.8,319.1,353.5,317.9,353.4C318.1,353.4,317.9,353.4,317.9,353.4
					L317.9,353.4z"/>
			</g>
			<g>
				<path class="st3" d="M335.7,352.2c-0.4,0-0.8,0.4-0.8,0.9c-0.1,5.8-0.6,6.1-2.5,6.1c-1.3,0-1.6-1.4-1.6-1.8l0.1-3.4
					c0-0.4-0.4-0.8-0.9-0.8c-0.4,0-0.8,0.4-0.8,0.9l-0.1,3.8l0,0c0,0.3-0.1,0.9-0.6,1.3c-0.4,0.4-1,0.6-1.8,0.6
					c-0.4,0-0.7-0.1-1-0.4c-1-1.1-0.8-4-0.5-5c0.1-0.4-0.3-1-0.7-1c-0.4-0.1-1,0.3-1,0.7c-0.1,0.4-0.7,4.4,0.9,6.4
					c0.6,0.7,1.4,1.1,2.3,1.1c1.4,0,2.4-0.3,3.1-1.2c0.1-0.1,0.3-0.3,0.3-0.4c0.6,0.6,1.3,1,2.3,1c3.8,0.1,4.1-2.7,4.3-7.9
					C336.7,352.6,336.2,352.2,335.7,352.2z"/>
				<path class="st3" d="M335.7,352.8L335.7,352.8c0.1,0,0.4,0.1,0.4,0.4c-0.1,5.4-0.5,7.4-3.6,7.3l-0.1,0c-0.9,0-1.4-0.3-2-0.8
					l-0.4-0.4l-0.4,0.6c-0.1,0.1-0.1,0.3-0.3,0.3c-0.6,0.7-1.6,1-2.7,1c0,0,0,0-0.1,0c-0.9,0-1.4-0.3-2-1c-1.2-1.4-1-4.4-0.8-6
					c0-0.1,0.1-0.3,0.4-0.3l0,0c0.1,0,0.3,0.3,0.3,0.4c0,0-0.7,3.8,0.6,5.4c0.3,0.4,0.9,0.7,1.4,0.7c0,0,0,0,0.1,0
					c1,0,1.7-0.3,2.1-0.7c0.6-0.6,0.7-1.3,0.7-1.7l0,0l0,0l0,0l0.1-3.8c0-0.1,0.1-0.4,0.4-0.4l0,0c0.1,0,0.1,0,0.3,0.1
					c0.1,0.1,0.1,0.1,0.1,0.3l-0.1,3.4l0,0l0,0c0.2,1,0.7,2.1,2.2,2.2c0.1,0,0.1,0,0.1,0c2.3,0,2.7-1,2.8-6.6
					C335.4,352.9,335.5,352.8,335.7,352.8 M335.7,352.2c-0.4,0-0.8,0.4-0.8,0.9c-0.1,5.7-0.6,6.1-2.2,6.1l-0.1,0
					c-1.3,0-1.6-1.4-1.6-1.8l0.1-3.4c0-0.4-0.4-0.8-0.9-0.8l0,0c-0.4,0-0.8,0.4-0.8,0.9l-0.1,3.8l0,0c0,0.3-0.1,0.9-0.6,1.3
					c-0.4,0.4-1,0.6-1.7,0.6c0,0,0,0-0.1,0c-0.4,0-0.7-0.1-1-0.4c-1-1.1-0.8-4-0.5-5c0.1-0.4-0.3-1-0.7-1l-0.1,0
					c-0.4,0-0.8,0.3-0.8,0.7c-0.1,0.4-0.7,4.4,0.9,6.4c0.6,0.7,1.4,1.1,2.3,1.1l0.1,0c1.3,0,2.3-0.3,3.1-1.2
					c0.1-0.1,0.3-0.3,0.3-0.4c0.6,0.6,1.3,1,2.3,1l0.1,0c3.8,0,4.1-2.9,4.2-7.9C336.7,352.6,336.2,352.2,335.7,352.2L335.7,352.2
					L335.7,352.2z"/>
			</g>
			<g>
				<path class="st3" d="M342.2,351.7c-0.9-0.1-1.7,0.2-2.4,0.7c-0.1,0.1-0.3,0.1-0.3,0.3l0.1-2.1c0-0.4-0.4-0.8-0.9-0.8
					c-0.4,0-0.8,0.4-0.8,0.9l-0.2,9c0,0.4,0.4,0.8,0.9,0.8c0.4,0,0.8-0.4,0.8-0.9l0,0c0-1.6,0.4-4.7,1.6-5.8c0.3-0.3,0.7-0.4,1-0.3
					c2.6,0.3,2.3,5.8,2.2,5.8c0,0.4,0.3,0.8,0.9,1c0.4,0,0.8-0.3,1-0.9C346.1,359.2,346.6,352.2,342.2,351.7z"/>
				<path class="st3" d="M338.6,350.3L338.6,350.3c0.1,0,0.1,0,0.3,0.1s0.1,0.1,0.1,0.3l-0.1,2.1l0,1.4l1-1c0.1-0.1,0.1-0.1,0.3-0.3
					c0.6-0.4,1.1-0.7,1.7-0.6c0.1,0,0.1,0,0.3,0c3.8,0.4,3.3,6.9,3.4,7.2c0,0.1-0.1,0.3-0.4,0.3l0,0c-0.1,0-0.4-0.1-0.3-0.4
					c0,0,0.4-6.1-2.8-6.4c-0.1,0-0.1,0-0.3,0c-0.4,0-0.9,0.2-1.3,0.4c-1.7,1.4-1.8,6-1.8,6.1s-0.1,0.4-0.4,0.4l0,0
					c-0.1,0-0.4-0.1-0.4-0.4l0.2-9C338.2,350.5,338.5,350.3,338.6,350.3 M338.6,349.7c-0.4,0-0.8,0.4-0.8,0.9l-0.2,9
					c0,0.4,0.4,0.8,0.9,0.8l0,0c0.4,0,0.8-0.4,0.8-0.9l0,0c0-1.6,0.4-4.7,1.6-5.8c0.3-0.3,0.6-0.3,0.8-0.3l0.1,0
					c2.6,0.3,2.3,5.8,2.2,5.8c0,0.4,0.3,0.8,0.9,1l0,0c0.4,0,0.8-0.3,0.8-0.9c0-0.3,0.5-7.3-3.8-7.8c-0.1,0-0.3,0-0.4,0
					c-0.7,0-1.4,0.3-2.1,0.7c-0.1,0.1-0.3,0.1-0.3,0.3l0.1-2.1C339.5,350.2,339.2,349.7,338.6,349.7L338.6,349.7L338.6,349.7z"/>
			</g>
			<g>
				<path class="st3" d="M355.7,353.2c-1-3.3-7-2.2-7.7-2c-0.4,0.1-0.8,0.6-0.7,1c0.1,0.4,0.6,0.8,1,0.7c2.1-0.5,5.3-0.3,5.7,0.8
					c0,0.1,0.1,0.3,0.1,0.4c-1.6,0-3,0-4.1,0.2c-1.8,0.3-2.8,1-2.8,2.2c0,0.9,0,1.7,0.7,2.4c0.6,0.6,1.6,0.8,3,0.8
					c0.4,0,0.9,0,1.3,0c1.4,0,2.6-0.6,3.2-1.6C356.3,357.1,356.4,355.4,355.7,353.2z M354,357.2c-0.3,0.4-1,0.7-1.8,0.7
					c-2.1,0.2-2.8-0.1-3-0.4c-0.1-0.1-0.1-0.4-0.2-1.1c0-0.1,0.4-0.4,1.3-0.4c1.1-0.2,2.6-0.2,4.1,0
					C354.3,356.5,354.3,357,354,357.2z"/>
				<path class="st3" d="M351,351.5c1.7,0,3.8,0.4,4.3,1.9c0.6,2,0.5,3.5-0.2,4.5c-0.6,0.9-1.5,1.3-2.8,1.3c-0.4,0-0.7,0-1.1,0
					c-0.1,0-0.1,0-0.3,0c-1.3,0-2.1-0.3-2.7-0.7c-0.6-0.4-0.6-1.1-0.6-2c0-0.3,0-1.4,2.4-1.7c0.7-0.2,1.6-0.2,2.8-0.2
					c0.3,0,0.7,0,1.1,0l0.7,0l-0.2-0.7c0-0.1-0.1-0.3-0.1-0.4c-0.3-1.1-2.1-1.4-3.6-1.4c-0.9,0-1.8,0-2.7,0.2l0,0
					c-0.1,0-0.3-0.1-0.4-0.3c0-0.1,0-0.1,0-0.3c0-0.1,0.1-0.1,0.3-0.1C348.4,351.8,349.6,351.5,351,351.5 M351.2,358.6
					c0.3,0,0.7,0,1,0c1.1,0,1.8-0.4,2.3-1c0.3-0.4,0.4-0.9,0.4-1.4l0-0.6l-0.6,0c-0.4,0-1,0-1.4,0c-1.3,0-2,0-2.7,0.2
					c-1.1,0.2-1.7,0.4-1.7,1c0,0.7,0,1.1,0.3,1.4C349.2,358.4,349.9,358.6,351.2,358.6 M351,351c-1.4,0-2.6,0.2-2.8,0.3
					c-0.4,0.1-0.8,0.6-0.7,1c0.1,0.4,0.4,0.7,0.9,0.7l0.1,0c0.7-0.2,1.7-0.3,2.6-0.2c1.6,0,2.8,0.3,3.1,1.1c0,0.1,0.1,0.3,0.1,0.4
					c-0.4,0-0.9,0-1.3,0c-1.1,0-2.1,0-2.8,0.2c-1.8,0.3-2.8,1-2.8,2.2c0,0.9,0,1.7,0.7,2.4c0.6,0.6,1.6,0.8,3,0.8c0.1,0,0.1,0,0.3,0
					c0.3,0,0.7,0,1.1,0c1.4,0,2.6-0.6,3.2-1.6c0.8-1.1,1-2.9,0.2-5C355.3,351.4,353,351,351,351L351,351z M351.2,358.1
					c-1.4,0-1.8-0.3-2-0.4c-0.1-0.1-0.1-0.4-0.2-1.1c0-0.1,0.4-0.4,1.3-0.4c0.7-0.2,1.7-0.2,2.7-0.2c0.4,0,1,0,1.4,0
					c0,0.6-0.1,0.9-0.4,1.3c-0.3,0.4-1,0.7-1.8,0.7C351.8,358.1,351.5,358.1,351.2,358.1L351.2,358.1z"/>
			</g>
		</g>
		<g>
			<g>
				<path class="st5" d="M465.2,384.7c0,0-1-1.9-2.8-1.2c-1.8,0.7-0.6,8,0.3,9S465.2,384.7,465.2,384.7z"/>
				<path class="st6" d="M462.7,393c-0.1,0-0.2-0.1-0.3-0.2c-0.9-1-1.6-6-1.1-8.2c0.2-0.8,0.5-1.2,1-1.5c1.7-0.7,2.9,0.5,3.2,1.3
					l0.1,0.1l0,0.1c-0.6,3.7-1.7,8-2.6,8.3C462.9,393,462.8,393,462.7,393z M463.6,383.8c-0.3-0.1-0.7-0.1-1,0.1
					c-0.2,0.1-0.4,0.4-0.5,0.9c-0.5,2.1,0.3,6.3,0.9,7.4c0.5-0.8,1.4-4.2,1.9-7.4C464.7,384.5,464.2,383.9,463.6,383.8z"/>
			</g>
			<g>
				<path class="st5" d="M465.4,401.7c0,0-6.9-3-2.5-13.9c4.4-10.8,14.6-7.2,20.6-7.9c5.9-0.7,5.1-0.8,3.1,2.6
					c-0.1,0.1,0,0.3,0.2,0.3c0.8,0.1,2.6,0.5,2.5,1.1c-0.2,0.7-1.3,0.2-2.2,1.1c-0.1,0.1-0.1,0.2,0,0.3c0.7,0.9,4.5,6.1,3.3,12.6
					s-4.4,9.6-6.9,11.1c-0.8,0.5-1.9,0.2-2.2-0.6C479.9,405.5,475.6,399.1,465.4,401.7z"/>
				<path class="st6" d="M482.2,409.7L482.2,409.7c-0.6-0.2-1-0.5-1.2-1c-1.4-2.8-5.5-9-15.4-6.6l-0.1,0l-0.1,0
					c-0.1,0-7.3-3.4-2.7-14.4c3.6-8.6,10.7-8.3,16.3-8.1c1.7,0.1,3.2,0.2,4.6-0.1l0.9-0.1c2.8-0.4,3.7-0.5,4,0.1
					c0.3,0.4-0.1,1-0.8,2c-0.2,0.3-0.4,0.6-0.7,1c2.1,0.4,2.3,0.9,2.5,1c0.1,0.1,0.1,0.3,0.1,0.6c-0.1,0.6-0.7,0.7-1.1,0.8
					c-0.3,0.1-0.8,0.1-1.1,0.5c0.9,1.2,4.5,6.4,3.3,12.8c-1.3,6.6-4.4,9.7-7,11.3C483.3,409.8,482.7,409.8,482.2,409.7z
					 M473.4,401.1c4.8,1.3,7.3,5.1,8.2,7.1c0.1,0.3,0.5,0.6,0.8,0.7c0.3,0.1,0.7,0,1-0.1c2.4-1.5,5.5-4.6,6.7-10.9
					c1.1-6.3-2.5-11.4-3.1-12.3c-0.2-0.2-0.1-0.6,0-0.8c0.5-0.6,1.1-0.7,1.5-0.8c0.3-0.1,0.4-0.1,0.4-0.2c-0.1-0.1-0.7-0.4-2.1-0.6
					c-0.2,0-0.3-0.2-0.4-0.3c-0.1-0.2-0.1-0.4,0-0.6c0.2-0.4,0.5-0.8,0.7-1.1c0.3-0.6,0.7-1,0.7-1.2l0,0c-0.3-0.1-1.7,0-3.2,0.3
					l-0.9,0.1c-1.4,0.1-3,0.1-4.7,0.1c-5.8-0.3-12.2-0.5-15.6,7.6c-4,9.7,1.4,13,2.2,13.4C468.8,400.5,471.3,400.6,473.4,401.1z"/>
			</g>
			<g>
				<path class="st5" d="M480.7,393.5c0,0,2.6-2.4,4.1-0.8s-1.5,5.5-1.5,5.5"/>
				<path class="st6" d="M483.3,398.5c0,0-0.1,0-0.1-0.1c-0.1-0.1-0.2-0.3-0.1-0.6c0.8-1,2.5-3.8,1.5-4.9c-1.2-1.3-3.5,0.8-3.5,0.8
					c-0.1,0.1-0.4,0.1-0.6,0s-0.1-0.4,0-0.6s2.9-2.7,4.7-0.8c1.7,1.8-1.2,5.6-1.5,5.9C483.6,398.5,483.4,398.6,483.3,398.5z"/>
			</g>
			<path class="st6" d="M488.6,403.4c0,0-0.1,0-0.1-0.1c-0.1-0.1-0.2-0.3-0.1-0.6c0-0.1,1.3-1.8,3.4-1.6c0.2,0,0.3,0.2,0.3,0.4
				c0,0.2-0.2,0.3-0.4,0.3c-1.7-0.1-2.8,1.4-2.8,1.4C488.9,403.4,488.7,403.4,488.6,403.4z"/>
			<g>
				
					<ellipse transform="matrix(0.2598 -0.9657 0.9657 0.2598 -22.4954 774.7073)" class="st7" cx="494.1" cy="402" rx="2.4" ry="2.2"/>
				<path class="st6" d="M493.2,404.7c-1.4-0.4-2.2-1.9-1.8-3.4c0.4-1.4,1.9-2.5,3.3-2c1.4,0.4,2.2,1.9,1.8,3.4
					C496.1,404.2,494.7,405.1,493.2,404.7z M494.5,400c-1-0.3-2.1,0.4-2.3,1.5c-0.3,1.1,0.2,2.2,1.3,2.5c1,0.3,2.1-0.4,2.3-1.5
					C496.1,401.3,495.5,400.2,494.5,400z"/>
			</g>
			
				<ellipse transform="matrix(0.2598 -0.9657 0.9657 0.2598 -26.6453 737.0429)" class="st6" cx="467.4" cy="385.9" rx="1.3" ry="0.9"/>
			
				<ellipse transform="matrix(0.2598 -0.9657 0.9657 0.2598 -22.5642 751.4717)" class="st6" cx="478.9" cy="390.5" rx="1.3" ry="1.1"/>
			<g>
				<path class="st7" d="M470.3,387.6c0,0-1.1,5.2,0.8,5.7c1.8,0.5,3.5-4.5,3.5-4.5S473,386,470.3,387.6z"/>
				<path class="st6" d="M471,393.6c-2.1-0.5-1.2-5.5-1.1-6.1l0-0.2l0.1-0.1c2.4-1.4,4.2,0.3,4.9,1.3l0.1,0.1l-0.1,0.1
					C474.7,389.4,473,394.1,471,393.6z M470.6,387.8c-0.3,1.7-0.5,4.8,0.6,5.1c1.1,0.3,2.4-2.5,3.1-4
					C473.8,388.3,472.6,386.8,470.6,387.8z"/>
			</g>
			<g>
				<path class="st8" d="M470.3,387.6c0,0,3,0.4,3.9,1.4c0.9,1,1.3-1.9-1.1-3C470.9,385,469.8,387.5,470.3,387.6z"/>
				<path class="st6" d="M474.3,389.6c-0.1,0-0.3-0.1-0.4-0.3c-0.7-0.8-2.9-1.2-3.7-1.3l0,0c-0.2,0-0.3-0.2-0.3-0.3
					c-0.1-0.4,0.3-1.2,0.9-1.7c0.7-0.6,1.5-0.7,2.4-0.3c1.5,0.6,2.1,2,2,3c0,0.4-0.2,0.9-0.5,0.9
					C474.6,389.6,474.5,389.7,474.3,389.6z M471.9,387.6c0.9,0.2,2,0.6,2.5,1.2l0,0c0-0.1,0.1-0.3,0-0.7s-0.3-1.3-1.6-1.9
					c-0.6-0.2-1.1-0.2-1.6,0c-0.3,0.2-0.7,0.7-0.7,0.9C470.9,387.3,471.4,387.4,471.9,387.6z"/>
			</g>
			<g>
				<path class="st9" d="M491.2,389.4c0,0-1.6-2.8-5-1.7c-3.4,1-3.2,6.1-1.8,8.1c1.7,2.4,7.6,3.6,7.8-1.4
					C492.3,390.8,491.2,389.4,491.2,389.4z"/>
				<path class="st6" d="M487.3,397.9c-1.2-0.3-2.5-1.1-3.1-2c-0.9-1.3-1.4-3.9-0.6-6c0.4-1.3,1.4-2.3,2.6-2.7
					c3.4-1,5.2,1.6,5.4,1.8s1.2,1.8,1.1,5.2c-0.1,1.9-1,3.2-2.5,3.7C489.2,398.2,488.2,398.2,487.3,397.9z M488.6,387.8
					c-0.7-0.2-1.4-0.2-2.3,0.1c-1.3,0.3-1.9,1.5-2.2,2.2c-0.6,1.9-0.2,4.2,0.6,5.3c0.9,1.3,3.2,2.3,5.1,1.8c1.2-0.3,1.9-1.4,2-3
					c0.2-3.2-0.9-4.7-0.9-4.7l0,0C490.8,389.5,490.2,388.3,488.6,387.8z"/>
			</g>
			<path id="XMLID_00000166669555830746069230000000080885729905885863_" class="st0" d="M488,394.6c-0.8-1-1-2.4-0.6-3.7
				c0.3-1.1,1.1-2.2,2.8-2.4c3.2-0.3,4.6,5.9,1.2,7C489.7,396.2,488.7,395.4,488,394.6z"/>
			<g>
				<path class="st10" d="M489.8,389.6c-0.1,0-0.1,0-0.2-0.1c-0.1-0.1-0.2-0.2-0.2-0.2c-0.1-0.1-0.1-0.3,0-0.6
					c0.1-0.1,0.3-0.1,0.6,0c0,0,0.1,0.1,0.2,0.3c0.1,0.1,0.1,0.3,0,0.6C490.1,389.6,490,389.7,489.8,389.6z"/>
				<path class="st10" d="M491.6,393.6c-0.1,0-0.2-0.1-0.2-0.3c0-0.2-0.1-0.4-0.1-0.6c0-0.2,0.1-0.3,0.2-0.4c0.2,0,0.3,0.1,0.4,0.2
					c0,0.2,0.1,0.4,0.1,0.7c0,0.2-0.1,0.3-0.3,0.4C491.7,393.6,491.7,393.6,491.6,393.6z M491,391.5c-0.1,0-0.2-0.1-0.2-0.2
					c-0.1-0.2-0.1-0.3-0.2-0.6c-0.1-0.2,0-0.4,0.1-0.4c0.2-0.1,0.4,0,0.4,0.1c0.1,0.2,0.2,0.4,0.3,0.6c0.1,0.2,0,0.4-0.2,0.4
					C491.2,391.5,491.1,391.5,491,391.5z"/>
				<path class="st10" d="M491.7,395.5c-0.1,0-0.2-0.2-0.2-0.3c0-0.1,0-0.2,0-0.3c0-0.2,0.2-0.3,0.3-0.3c0.2,0,0.3,0.2,0.3,0.3
					s0,0.2,0,0.3C492.1,395.4,491.9,395.5,491.7,395.5L491.7,395.5z"/>
			</g>
			<path class="st6" d="M489.5,396.1c-0.8-0.2-1.3-0.7-1.8-1.2l0,0c-0.9-1.1-1.1-2.5-0.7-4c0.5-1.6,1.6-2.5,3.1-2.6
				c1.9-0.1,3.1,1.6,3.5,3.3c0.4,1.8-0.2,3.8-2.1,4.4C490.7,396.3,490,396.3,489.5,396.1z M488.3,394.4c0.8,1,1.8,1.2,3,0.9
				c1.6-0.5,1.9-2.1,1.6-3.6c-0.2-1.4-1.3-2.9-2.7-2.7c-1.2,0.1-2.1,0.8-2.4,2.1C487.4,392.3,487.6,393.5,488.3,394.4L488.3,394.4z"
				/>
			
				<ellipse transform="matrix(0.2598 -0.9657 0.9657 0.2598 -29.849 736.8159)" class="st7" cx="465.7" cy="387.9" rx="0.9" ry="1.6"/>
			
				<ellipse transform="matrix(0.2598 -0.9657 0.9657 0.2598 -24.9257 753.6138)" class="st7" cx="479.1" cy="393.1" rx="0.9" ry="1.6"/>
		</g>
		<g>
			<g>
				<path class="st3" d="M506.1,406.2c-0.6-3.8-5.5-4.4-7.8-2.8c-2.1,1.5-9.2,8.2-17.6,15.5c-8.4,7.3-20.3,11.1-24.1,7.6
					c-3.7-3.4,0.2-8.7,0.2-8.7c9.8,3,21.2,1,24.5-4.7c3.3-5.7,1.1-12.5-10-13.3c-11.1-0.8-22.1,12.3-26.9,19.9s-11.7,8.1-10.4,4.1
					c1.3-4,32.1-45.3,32.1-45.3l-9.9-0.9c0,0-25.5,36.3-31.4,42.1c-5.9,5.8-10.8,5.8-10.8,5.8l17.6-26.4c0,0-6.1-1-8-1.1
					c-1.9-0.1-4,2.4-4,2.4c-18.9-12.1-33.2,8.5-36.5,14.3c-3.3,5.8-9.2,12-11.5,8.6c-2.2-3.4,15.1-27.4,15.1-27.4s-2,0.2-5.3,0.2
					c-3.3-0.1-6.2,2.5-6.2,2.5s-6.8-6-17.6-2c-10.7,4-16.7,16.4-20,20.8c-3.3,4.4-10.1,9.2-15.9,9.7c-5.8,0.5-14.2,1.4-14.2,1.4
					c9.6-5.4,15.2-22.6,15.2-22.6s1.6-0.4,8.6,0.2c7,0.6,7.4-5.5,7.4-5.5l-13.8,1.2l12-21.9c0,0,1.7-2.5,9.8-1.3s9.1,10.6,9.1,10.6
					l2.8-16.8c0,0-13.3,0.8-22.9,1.2c-9.4,0.3-31.3,1.7-36.4,14c-5.2,12.3,5.7,20.3,5.7,20.3c-7.9-27,19-27.9,19-27.9
					s-4.6,5.1-9.5,21.1c-4.9,15.9-9.8,24.2-13.8,28c-4,3.8-4.4,7.4-4.4,7.4s15.1-1.5,26.3-2.9c11.2-1.4,16-11.8,16-11.8
					s-1.6,8,7.7,9.1c9.1,1.1,16.8-9.1,16.8-9.1c-1.1,3-0.8,9.7,6.9,9.3c7.7-0.4,12.3-9.1,12.3-9.1c0.8,17.3,20.5,4.1,20.5,4.1
					s-3,6.6-10.1,10.8c-7.1,4.2-14.1-0.8-14.1-0.8c-0.4,6.1,8.5,11.9,17,9.5c8.4-2.3,15.4-14.2,15.4-14.2c5.1,0.8,12.4-4.7,12.4-4.7
					c6.8,15.5,22-0.6,22-0.6c0.5,6,6.5,10.7,21.2,7.2c14.7-3.4,31-21.1,31-21.1s2,13.6-3.7,17c-5.7,3.4-10-2-10-2
					c-1.2,4.8,2.7,12.6,13.6,9.4C508.2,432.5,506.9,410,506.1,406.2z M475.6,409.9c-4.3,6.6-16.5,4.5-16.5,4.5
					C467.6,402.5,479.8,403.3,475.6,409.9z M349.6,423.8c-3-1.4-2.2-9.6,7.5-18.6c9.7-9,14.9-2.3,14.9-2.3
					C366,413.5,354.4,426.1,349.6,423.8z M392.7,423.1c-3.7-5.8,10.2-19,15.4-20.7c4.5-1.5,8.1,2.2,8.1,2.2
					C410.9,412.8,397.1,429.9,392.7,423.1z"/>
				<path class="st3" d="M295.9,436.5l0.1-0.6c0-0.1,0.5-3.8,4.5-7.6c3.3-3.3,8.4-10.7,13.7-27.9c3.9-12.5,7.5-18.3,8.9-20.4
					c-3,0.4-11.4,1.8-15.9,8.1c-3.4,4.7-4,11.2-1.6,19.2l0.3,1.3l-1.1-0.9c-0.1-0.1-11.1-8.4-5.9-20.8c3.7-8.8,16.1-13.6,36.8-14.3
					c9.3-0.3,22.7-1.2,22.9-1.2l0.6,0l-3.4,20.5l-0.4-3.1c0-0.1-1.2-9.1-8.8-10.1c-7.2-1-9.1,1-9.3,1.1l-11.5,21.1l13.4-1l0,0.6
					c0,0.1-0.2,2.7-2.2,4.5c-1.4,1.2-3.3,1.7-5.6,1.5c-5.3-0.4-7.6-0.4-8.2-0.2c-0.8,2.2-5.6,15.6-13.6,21.6
					c2.9-0.3,8.3-0.9,12.3-1.1c5.6-0.4,12.2-5.3,15.6-9.5c0.7-0.9,1.4-2,2.3-3.4c3.6-5.7,9.2-14.3,17.9-17.5
					c9.6-3.6,16.2,0.7,17.8,1.8c0.9-0.7,3.3-2.5,6.3-2.4c3.3,0.1,5.2-0.2,5.2-0.2l1.1-0.1l-0.7,0.9c0,0.1-4.4,6-8.4,12.4
					c-7.2,11.3-7.1,13.9-6.7,14.5c0.3,0.6,0.8,0.8,1.3,0.8c2.6,0,6.8-4.9,9.2-9.3c0.9-1.5,8.6-14.8,20.5-17.7c5.4-1.4,11-0.3,16.4,3
					c0.7-0.7,2.4-2.2,4.1-2.2c1.9,0.1,7.8,1.1,8,1.1l0.7,0.1l-17.4,26.2c1.7-0.4,5.3-1.4,9.5-5.6c5.8-5.8,31.1-41.7,31.4-42l0.1-0.2
					l11,1l-0.5,0.7c-10.6,14.2-31.1,41.9-32,45.1c-0.2,0.6-0.3,1.4,0.4,1.8c1.5,0.6,5.8-0.8,9.1-6.2c6.1-9.7,17-20.9,27.3-20.1
					c6.9,0.5,9.8,3.2,10.9,5.3c1.4,2.5,1.2,5.7-0.6,8.7c-3.3,5.8-14.5,8.2-24.7,5.1c-0.7,1.1-2.9,5.1,0,7.8
					c3.6,3.3,15.5-0.5,23.6-7.6c3.2-2.8,6.2-5.5,8.9-7.9c4.3-3.8,7.5-6.6,8.8-7.7c1.4-1,3.8-1.3,5.7-0.5c1.6,0.6,2.6,2,2.9,3.5
					c0.4,2.2,0.8,8.8-0.2,15.1c-1.2,8.3-4.4,13.6-9,15c-6.2,1.8-9.8,0.1-11.7-1.6c-2.6-2.4-3.1-5.9-2.5-8.3l0.2-0.9l0.6,0.8
					c0.1,0.2,4.2,5.1,9.5,1.9c4.5-2.7,3.9-12.4,3.5-15.6c-3.3,3.4-17.5,17.5-30.5,20.5c-10.4,2.5-15.7,0.6-18.3-1.2
					c-1.8-1.3-3-3.2-3.4-5.4c-2.1,2-8.6,7.7-14.6,6.7c-3-0.5-5.5-2.6-7.2-6.4c-1.7,1.2-7.5,5-11.9,4.5c-1.1,1.8-7.6,12-15.5,14.2
					c-4.8,1.3-10,0.2-13.8-2.7c-2.6-2.1-3.9-4.6-3.7-7.2l0-0.9l0.7,0.4c0.1,0,6.9,4.7,13.6,0.7c4.7-2.8,7.7-6.9,9-9
					c-3.2,1.8-10.6,5.6-15.4,3.2c-2.3-1.2-3.7-3.5-4.1-7.2c-1.6,2.5-5.9,7.8-11.9,8.1c-3.7,0.2-5.6-1.3-6.5-2.5
					c-1.1-1.5-1.5-3.6-1.3-5.4c-2.5,2.8-8.8,8.7-16,7.9c-3-0.4-5.2-1.5-6.6-3.4c-1-1.4-1.4-3.1-1.5-4.3c-2,3.1-6.9,9.4-15.4,10.4
					c-11.1,1.4-26.1,2.9-26.3,2.9L295.9,436.5z M325.1,379l-0.8,0.8c0,0-4.6,5.3-9.4,20.9c-5.4,17.4-10.5,25-13.9,28.3
					c-2.9,2.7-3.8,5.4-4.1,6.5c3-0.3,15.9-1.6,25.6-2.9c10.9-1.3,15.5-11.5,15.6-11.6l1.6-3.6l-0.7,3.9c0,0-0.5,3.1,1.3,5.5
					c1.2,1.7,3.3,2.6,6,2.9c8.8,1,16.3-8.9,16.4-9l1.9-2.5l-1.1,2.9c-0.5,1.6-0.8,4.5,0.7,6.5c1.1,1.5,3,2.3,5.7,2.2
					c7.2-0.4,11.9-8.8,11.9-8.9l0.8-1.5l0.1,1.7c0.2,4,1.4,6.6,3.8,7.7c5.7,2.8,16-4,16.1-4.1l1.4-0.9l-0.8,1.6
					c-0.1,0.2-3.3,6.7-10.2,10.9c-5.8,3.5-11.8,0.8-13.9-0.4c0.1,2,1.4,4,3.4,5.6c3.5,2.8,8.5,3.8,12.9,2.5
					c8.2-2.3,15.1-13.8,15.2-14l0.1-0.2l0.3,0.1c4.8,0.8,11.9-4.6,12.1-4.6l0.4-0.3l0.2,0.6c1.6,3.8,4,5.8,6.7,6.4
					c6.7,1.1,14.4-7.1,14.5-7.1l0.8-0.8l0.1,1.1c0.1,2.3,1.3,4.3,3.2,5.6c2.5,1.7,7.5,3.5,17.6,1.1c14.4-3.4,30.5-20.8,30.8-20.9
					l0.7-0.7l0.1,1c0.1,0.6,2.1,14-3.9,17.5c-4.6,2.7-8.4,0-10-1.4c-0.2,2.1,0.4,4.7,2.4,6.5c1.7,1.6,4.9,3.2,10.7,1.4
					c10.4-3.1,9.3-24.9,8.6-29.1l0,0c-0.2-1.7-1.4-2.4-2.4-2.9c-1.6-0.6-3.6-0.5-4.8,0.4c-1.3,0.9-4.5,3.8-8.7,7.5
					c-2.6,2.4-5.7,5.1-8.9,7.9c-4.1,3.5-9.1,6.4-13.9,7.9c-5,1.6-8.9,1.4-10.9-0.4c-3.9-3.6,0.1-9.2,0.1-9.3l0.2-0.2l0.3,0.1
					c9.7,3,20.9,0.9,23.9-4.6c1.5-2.7,1.7-5.6,0.6-7.8c-1-2-3.7-4.4-10.2-4.9c-13-1-25.1,17.5-26.4,19.6c-3.6,5.7-8.4,7.5-10.4,6.6
					c-1-0.4-1.4-1.5-0.9-2.9c1.3-3.8,27.5-39.2,31.7-44.7l-8.8-0.8c-2.3,3.4-25.6,36.3-31.3,42c-5.9,6-10.9,6-11.2,6l-0.9,0
					l17.6-26.5c-1.7-0.3-5.8-0.9-7.2-1c-1.3-0.1-3,1.6-3.5,2.2l-0.2,0.3l-0.3-0.2c-5.3-3.4-10.7-4.4-16-3.1
					c-11.4,2.9-19,15.8-19.8,17.2c-2.6,4.7-7.1,9.7-10.1,9.8c-0.9,0-1.7-0.4-2.1-1.2c-0.7-1-0.7-3.8,6.7-15.5
					c3.2-4.9,6.4-9.7,7.8-11.6c-0.9,0.1-2.3,0.1-4.3,0.1c-3.1-0.1-5.9,2.4-6,2.4l-0.3,0.2l-0.3-0.2c-0.1-0.1-6.8-5.8-17.1-1.9
					c-8.4,3.2-13.9,11.6-17.5,17.2c-0.9,1.3-1.6,2.6-2.3,3.5c-3.4,4.5-10.4,9.5-16.2,10c-5.7,0.5-14.1,1.4-14.2,1.4l-2.2,0.2l2-1.1
					c9.3-5.2,14.9-22.2,15-22.4l0.1-0.2l0.2,0c0.1,0,1.8-0.4,8.8,0.2c2.1,0.2,3.8-0.3,5-1.3c1.2-1,1.6-2.5,1.7-3.2l-14.1,1.2
					l12.4-22.7c0.1-0.1,2-2.7,10.2-1.6c5.7,0.8,8.1,5.7,9,8.7l2.4-13.9c-2.7,0.1-14,0.8-22.3,1.1c-20.3,0.7-32.5,5.3-35.9,13.6
					c-2.1,4.9-1.8,9.8,0.8,14.3c1.1,2,2.6,3.5,3.6,4.4c-2-7.6-1.3-13.9,2.1-18.5c5.8-8.1,17.2-8.5,17.7-8.5L325.1,379z M350,424.4
					c-0.2,0-0.4-0.1-0.7-0.2c-0.9-0.4-1.6-1.4-1.7-2.6c-0.5-3.3,1.6-9.7,9-16.8c3.7-3.5,7.2-5.1,10.4-4.8c3.3,0.3,5,2.5,5.1,2.5
					l0.2,0.2l-0.1,0.2C366.9,412.8,355.6,425.7,350,424.4z M368,401.1c-0.3-0.1-0.7-0.1-1-0.1c-2.9-0.2-6.2,1.3-9.7,4.6
					c-6.8,6.3-9.3,12.6-8.7,15.9c0.1,1,0.6,1.7,1.2,2c0.1,0.1,0.3,0.1,0.4,0.1c4.6,1.1,15.2-10.3,21.1-20.7
					C370.9,402.4,369.8,401.4,368,401.1z M394.6,425c-0.9-0.2-1.7-0.8-2.4-1.8l0,0c-0.9-1.4-0.9-3.2-0.2-5.3
					c2.3-6.4,11.5-14.7,15.9-16.2c4.8-1.6,8.5,2.2,8.6,2.5l0.2,0.2l-0.2,0.3c-3.4,5.3-14.7,20.3-21.2,20.2
					C395.2,425.1,394.9,425.1,394.6,425z M411.8,402.6c-1-0.2-2.2-0.3-3.4,0.2c-4.1,1.4-13.1,9.6-15.3,15.6
					c-0.6,1.9-0.6,3.3,0.1,4.6c0.6,0.9,1.3,1.3,2.3,1.4c5.1,0.1,14.8-11.3,20.2-19.6C415.1,404.1,413.7,403,411.8,402.6z
					 M458.3,414.7l0.4-0.6c5.9-8.4,14.1-10.8,17-8.8c1.5,1,1.5,2.8,0.2,4.8l0,0c-4.4,6.8-16.5,4.7-16.9,4.6L458.3,414.7z
					 M474.4,405.7c-2.9-0.6-9.2,1.3-14.3,8.3c2.7,0.3,11.9,1,15.3-4.4l0,0c0.5-0.9,1.4-2.7,0.1-3.6
					C475,405.9,474.7,405.8,474.4,405.7z"/>
			</g>
		</g>
		<g>
			<path class="st6" d="M294.5,398.8c-0.1,0-0.2-0.1-0.2-0.2c-0.1-0.2-0.1-0.4,0.1-0.6c0,0,3.5-2.2,8.1-4.1c1.2-0.5,2.2-0.5,3.2,0.1
				c2.5,1.3,3.2,5.5,3.2,5.7c0,0.2-0.1,0.4-0.3,0.4s-0.4-0.1-0.4-0.3c0,0-0.7-4-2.8-5.2c-0.8-0.4-1.6-0.4-2.4-0.1c-4.5,1.8-8,4-8,4
				C294.8,398.7,294.6,398.7,294.5,398.8z"/>
			<g>
				<path class="st11" d="M290.6,396.5l1.1-1.2c0.4-0.4,1.1-0.2,1.2,0.3l0.3,1.2c0.1,0.2,0.2,0.4,0.4,0.4l1.1,0.4
					c0.6,0.2,0.7,0.9,0.2,1.3l-1,0.8c-0.2,0.1-0.3,0.3-0.3,0.6l0,1.7c0,0.7-0.8,1-1.2,0.6l-0.8-0.8c-0.2-0.2-0.6-0.2-0.8-0.1
					l-1.2,0.6c-0.6,0.2-1.2-0.3-1-0.9l0.5-1.5c0.1-0.2,0-0.6-0.1-0.8l-0.8-0.8c-0.4-0.4-0.1-1.1,0.4-1.2l1.4-0.2
					C290.4,396.6,290.5,396.6,290.6,396.5z"/>
				<path class="st6" d="M289.2,402.6c-0.2,0-0.3-0.1-0.6-0.3c-0.3-0.3-0.5-0.8-0.3-1.2l0.5-1.5c0-0.1,0-0.2-0.1-0.3l-0.8-0.8
					c-0.3-0.3-0.3-0.8-0.2-1.1c0.1-0.4,0.4-0.7,0.9-0.8l1.4-0.2c0.1,0,0.1,0,0.2-0.1l1.1-1.2c0.3-0.3,0.7-0.5,1.1-0.3l0,0
					c0.4,0.1,0.7,0.4,0.8,0.8l0.3,1.2c0,0.1,0.1,0.2,0.2,0.2l1.1,0.4c0.4,0.1,0.7,0.4,0.7,0.9c0.1,0.4-0.1,0.8-0.4,1.1l-1,0.8
					c-0.1,0.1-0.1,0.1-0.1,0.2l0,1.7c0,0.4-0.2,0.9-0.7,1c-0.4,0.2-0.9,0.1-1.2-0.2l-0.8-0.8c-0.1-0.1-0.2-0.1-0.3-0.1l-1.2,0.6
					C289.7,402.6,289.5,402.6,289.2,402.6z M291,396.7L291,396.7c-0.2,0.2-0.4,0.3-0.7,0.3l-1.4,0.2c-0.2,0-0.2,0.1-0.2,0.2
					c0,0.1,0,0.2,0.1,0.3l0.8,0.8c0.3,0.3,0.3,0.8,0.2,1.2l-0.5,1.5c-0.1,0.2,0,0.3,0.1,0.3c0,0,0.2,0.1,0.3,0.1l1.2-0.6
					c0.4-0.2,0.9-0.1,1.2,0.2l0.8,0.8c0.1,0.1,0.3,0.1,0.3,0.1s0.2-0.1,0.2-0.3l0-1.7c0-0.3,0.2-0.7,0.4-0.9l1-0.8
					c0.1-0.1,0.1-0.2,0.1-0.3c0-0.1,0-0.2-0.2-0.2l-1.1-0.4c-0.3-0.1-0.6-0.4-0.7-0.8l-0.3-1.2c0-0.2-0.2-0.2-0.2-0.2
					s-0.2,0-0.3,0.1L291,396.7z"/>
			</g>
			<g>
				<path class="st12" d="M327.4,414.1c0,0,2.4-3.2,3.7,0.4c1.3,3.7-4,6.6-4,6.6S325.6,417.8,327.4,414.1z"/>
				<path class="st6" d="M326.9,421.7l-0.2-0.4c-0.1-0.1-1.4-3.4,0.4-7.3l0-0.1c0.1-0.2,1.3-1.7,2.5-1.5c0.8,0.1,1.3,0.8,1.8,2
					c1.4,3.9-3.9,6.9-4.1,7L326.9,421.7z M327.7,414.3c-1.2,2.8-0.7,5.2-0.5,6.2c1.2-0.8,4.3-3.2,3.4-5.8c-0.2-0.7-0.6-1.3-1.1-1.4
					C328.8,413.1,328,413.9,327.7,414.3z"/>
			</g>
			<g>
				<path class="st12" d="M303.2,430.8c-0.2,0.8-3,6-1.9,10c1.2,4,1.9,6.6,1.6,7.4s-1.9,5,2.4,6c4.3,0.9,6-0.7,6.4-2.7
					c0,0,0.9,3.1,4.5,2.3c3.5-0.8,5.4-3.4,4.8-6.4c0,0,3-8-3.7-15.1C310.6,425.2,304.4,425.6,303.2,430.8z"/>
				<path class="st6" d="M305.3,454.6c-1.3-0.3-2.2-0.9-2.8-1.7c-0.9-1.5-0.4-3.4-0.1-4.3c0-0.1,0.1-0.2,0.1-0.3
					c0.2-0.9-1.2-5.5-1.6-7.3c-1-3.4,0.7-7.5,1.6-9.5c0.1-0.3,0.3-0.7,0.3-0.8c0.4-2,1.6-3.4,3.4-3.9c3.1-0.9,7.5,1,11.5,5.2
					c6.4,6.6,4.2,14.3,3.8,15.3c0.6,3.2-1.5,5.9-5.1,6.8c-2.5,0.6-3.9-0.6-4.5-1.6C311.3,454,309.5,455.6,305.3,454.6z M309.3,427.6
					c-1-0.2-2-0.2-2.9,0c-1.4,0.5-2.4,1.6-2.9,3.3c0,0.2-0.2,0.4-0.3,0.9c-0.8,1.7-2.4,5.7-1.5,8.9c1.4,4.7,1.9,6.9,1.6,7.6
					c0,0.1-0.1,0.2-0.1,0.3c-0.2,0.8-0.7,2.5-0.1,3.7c0.5,0.7,1.1,1.2,2.2,1.4c3.3,0.7,5.4-0.1,6-2.4l0.3-1.4l0.5,1.4
					c0,0.1,0.9,2.8,4,2c3.3-0.8,5-3.1,4.5-5.9l0-0.1l0-0.1c0-0.1,2.9-7.9-3.6-14.6C314.4,429.8,311.8,428.1,309.3,427.6z"/>
			</g>
			<g>
				<path class="st12" d="M315.6,433.2c0,0,12.3-1,13.8-7.7c1.5-6.8-2.3-15.5-11.6-22.6c-9.3-7.1-14.6-2.1-18.2,3
					c-3.6,5-14.3,24.3,3.6,26.6C303.3,432.4,308,433.5,315.6,433.2z"/>
				<path class="st6" d="M301.3,432.4c-3.9-0.8-6.5-2.7-7.6-5.6c-3-7,3.1-17.8,5.8-21.4c2-2.8,4.8-5.9,8.8-6.5c3-0.5,6.3,0.7,10,3.4
					c8.9,6.8,13.4,15.6,11.7,23.1c-1.6,7-13.7,8-14.2,8.1l0,0c-7.5,0.4-12.5-0.7-12.5-0.7C302.5,432.8,301.8,432.7,301.3,432.4z
					 M311.3,399.9c-1.1-0.2-2.1-0.3-3.1-0.2c-3.7,0.5-6.3,3.6-8.3,6.2c-2.5,3.5-8.5,14-5.6,20.6c1.3,3,4.3,4.8,9,5.5
					c0.1,0,4.8,1.1,12.2,0.7c0.3,0,12.1-1.1,13.5-7.4c1.6-7.1-2.7-15.6-11.5-22.2C315.4,401.4,313.3,400.3,311.3,399.9z
					 M315.6,433.2L315.6,433.2L315.6,433.2z"/>
			</g>
			<g>
				<path class="st12" d="M301.5,416.2c0,0-1.8-2.9-4-0.8c-2.2,2,0.4,7.2,1.9,8.3"/>
				<path class="st6" d="M299.3,424c-0.1,0-0.1,0-0.2-0.1c-1-0.9-2.7-3.9-2.9-6.3c0-1.2,0.3-2.1,1-2.7c0.7-0.7,1.3-0.9,2.1-0.8
					c1.4,0.2,2.5,1.7,2.5,1.7c0.1,0.2,0.1,0.4-0.1,0.6c-0.2,0.1-0.4,0.1-0.6-0.1c0,0-0.8-1.3-1.9-1.4c-0.4-0.1-1,0.1-1.4,0.6
					c-0.4,0.4-0.8,1.1-0.6,2.1c0.1,2.1,1.6,4.9,2.5,5.6c0.2,0.1,0.2,0.4,0,0.6C299.6,424,299.4,424,299.3,424z"/>
			</g>
			<path id="XMLID_00000088127166128906474050000006932917572433223865_" class="st13" d="M307.5,432.2c0,0,2.3-0.8,0.9-1.9
				c-1.5-1.1-7.6-27.1-7.6-27.1s-0.4-2.2-2.6-1.4c-2.2,0.8-1.9,2.5-0.7,6.9c1.1,4.4,8.4,21.9,8.3,22.7
				C305.4,432.1,306.1,432.4,307.5,432.2z"/>
			<polygon class="st0" points="304.7,428.5 307.1,427.7 308.1,430.1 308.9,431.1 307.6,431.9 306.6,431.4 305.6,431.3 			"/>
			<path class="st6" d="M306.1,432.6c-0.3-0.1-0.6-0.2-0.7-0.3c-0.1-0.2-0.3-0.4-0.2-1c0-0.7-1.7-5-3.2-8.9
				c-2.1-5.3-4.4-11.3-4.9-13.7c-1.2-4.5-1.6-6.5,1-7.5c0.8-0.2,1.6-0.2,2.1,0.1c0.9,0.5,1,1.5,1,1.7c2.3,9.9,6.5,26,7.5,26.9
				c0.6,0.4,0.7,0.9,0.6,1.2c-0.1,0.9-1.3,1.3-1.7,1.4l-0.1,0C306.9,432.7,306.5,432.6,306.1,432.6z M307.5,432.2L307.5,432.2
				L307.5,432.2z M299.2,401.9c-0.3-0.1-0.7,0-1.1,0.1c-1.8,0.6-1.6,1.8-0.5,6.4c0.6,2.3,2.9,8.3,4.9,13.6c2.7,7.1,3.4,8.8,3.3,9.3
				c0,0.2,0,0.2,0,0.2s0.3,0.2,1.3,0.1c0.4-0.1,1-0.5,1-0.8c0-0.1-0.2-0.3-0.3-0.4c-1.5-1.2-6.7-23-7.8-27.4c0,0-0.1-0.8-0.7-1.1
				C299.5,402,299.3,401.9,299.2,401.9z"/>
			<path class="st14" d="M315,420.8c0,0-0.5-1.8-3.7-0.4c-2.4,1-2.3,2.8,0.4,2.2C314.4,422,315.1,422.1,315,420.8"/>
			<path class="st14" d="M327.5,419c0,0-0.3-1.4-3.1-0.4c-2.1,0.8-2,2.4,0.4,1.8C327,419.9,327.7,419.9,327.5,419"/>
			<path class="st6" d="M316.8,419c-0.2,0.1-0.6,0-0.7-0.2c-0.6-1-2-3.9-1.2-5C316,412.5,318.3,418.3,316.8,419z"/>
			<path class="st6" d="M321.3,417.9c-0.2,0.1-0.4,0-0.6-0.2c-0.5-0.9-1.8-3.4-1.1-4.4C320.6,412,322.7,417.2,321.3,417.9z"/>
			<g>
				<path class="st12" d="M313.5,434.7c0,0-3.6-6.2-6.6-2.4c0,0-1.8,2.1,2,6.3s7.4,0.5,7.4,0.5"/>
				<path class="st6" d="M311.7,441c-1.1-0.2-2.1-0.9-3.1-2c-3.8-4.4-2-6.8-2-6.8c0.8-1,1.6-1.5,2.6-1.5c2.4,0.2,4.5,3.6,4.6,3.8
					c0.1,0.2,0,0.4-0.1,0.6c-0.2,0.1-0.4,0-0.6-0.1c0,0-1.9-3.3-3.9-3.4c-0.7,0-1.3,0.3-2,1.1c0,0-1.4,1.9,2,5.8
					c1,1.2,2.1,1.8,3.4,1.8c2,0.1,3.4-1.4,3.4-1.4c0.1-0.1,0.4-0.1,0.6,0s0.1,0.4,0,0.6c-0.1,0.1-1.8,1.7-4.1,1.7
					C312.2,441.1,311.9,441,311.7,441z"/>
			</g>
			<g>
				<path class="st12" d="M318.6,445.5c0,0,1.7,0.9,2.6,2.3"/>
				<path class="st6" d="M321.1,448.1c-0.1,0-0.2-0.1-0.2-0.2c-0.8-1.3-2.4-2.1-2.4-2.1c-0.2-0.1-0.3-0.3-0.2-0.6
					c0.1-0.2,0.3-0.3,0.6-0.2c0.1,0,1.8,0.9,2.7,2.4c0.1,0.2,0,0.4-0.1,0.6C321.3,448.2,321.2,448.2,321.1,448.1z"/>
			</g>
			<g>
				<path class="st12" d="M315.7,443.6c0,0-7.4-0.5-3.9,7.9"/>
				<path class="st6" d="M311.8,451.9c-0.1,0-0.2-0.1-0.3-0.2c-1.3-2.9-1.3-5.1-0.3-6.6c1.4-2,4.4-1.9,4.5-1.9
					c0.2,0,0.4,0.2,0.3,0.4c0,0.2-0.2,0.4-0.4,0.3c0,0-2.7-0.1-3.9,1.5c-0.9,1.2-0.7,3.2,0.4,5.8c0.1,0.2,0,0.4-0.2,0.6
					C311.9,451.9,311.8,451.9,311.8,451.9z"/>
			</g>
			<g>
				<path class="st12" d="M306.8,446.6c0,0,3.6,0.6,4.4,2.6"/>
				<path class="st6" d="M311,449.6c-0.1,0-0.2-0.1-0.3-0.2c-0.6-1.4-3.1-2.2-4.1-2.4c-0.2,0-0.3-0.2-0.3-0.4c0-0.2,0.2-0.3,0.4-0.3
					c0.1,0,3.8,0.7,4.7,2.8c0.1,0.2,0,0.4-0.2,0.6C311.2,449.6,311.1,449.6,311,449.6z"/>
			</g>
			<g>
				<path class="st12" d="M302.5,432.9c0,0,2.1-2.7,5.1-1.2c0,0-2.2,1.4,0.1,5.4c1,1.8-3.6,3.4-3.6,3.4"/>
				<path class="st6" d="M303.8,440.9c-0.1,0-0.2-0.1-0.3-0.2c-0.1-0.2,0-0.4,0.2-0.6c0.9-0.2,3.1-1.1,3.5-2.2
					c0.1-0.2,0.1-0.3,0-0.6c-1.7-3.1-0.9-4.8-0.4-5.4c-2.3-0.8-4,1.2-4,1.3c-0.1,0.2-0.4,0.2-0.6,0.1c-0.2-0.1-0.2-0.4-0.1-0.6
					c0,0,2.3-2.9,5.5-1.3l0.7,0.3l-0.7,0.3c-0.1,0-1.9,1.2,0.2,4.9c0.2,0.4,0.2,0.9,0.1,1.2c-0.6,1.6-3.6,2.6-4,2.7
					C304,441,303.9,441,303.8,440.9z"/>
			</g>
		</g>
	</g>
</g>
</svg>
