<?xml version="1.0" encoding="utf-8"?>
<!-- Generator: Adobe Illustrator 27.7.0, SVG Export Plug-In . SVG Version: 6.00 Build 0)  -->
<svg version="1.1" id="레이어_1" xmlns="http://www.w3.org/2000/svg" xmlns:xlink="http://www.w3.org/1999/xlink" x="0px"
	 y="0px" viewBox="0 0 1080 1013.3" style="enable-background:new 0 0 1080 1013.3;" xml:space="preserve">
<style type="text/css">
	.st0{fill:#FFFFFF;stroke:#231815;stroke-width:8;stroke-linecap:round;stroke-linejoin:round;stroke-miterlimit:10;}
	.st1{fill:#FFA1A2;}
	.st2{fill:#FFFFFF;}
	.st3{clip-path:url(#SVGID_00000054230458743711746030000001323186517716888223_);fill:#5D5D5D;}
	.st4{fill:none;stroke:#231815;stroke-width:8;stroke-linecap:round;stroke-linejoin:round;stroke-miterlimit:10;}
	.st5{fill:#231815;}
	.st6{fill:#FFA1A2;stroke:#231815;stroke-width:8;stroke-linecap:round;stroke-linejoin:round;stroke-miterlimit:10;}
</style>
<g>
	<g>
		<path class="st0" d="M386.2,644.3L374,658.7c-12.9,14.7-38.9,47.7-59.3,94.9c-18.5,42.8,51.6,83.1,73.7,22
			c0,0-15.7,107.1,5.2,176.4c0,0,6.7,17.3,46.9,17.3s20-40.9,39.7-47.6H600c19.8,6.8-0.4,47.6,39.7,47.6c40.2,0,46.9-17.3,46.9-17.3
			c21-69.3,5.2-176.4,5.2-176.4c22.2,61,92.2,20.8,73.7-22c-20.3-47.1-46.3-80.1-59.2-94.8c0,0-11.3-13.3-11.3-13.4L386.2,644.3z"/>
		<path class="st1" d="M547.1,856.4h-22.3c-28.4,0-51.4-23-51.4-51.4v-11.7c0-28.4,23-51.4,51.4-51.4h22.3c28.4,0,51.4,23,51.4,51.4
			V805C598.5,833.3,575.5,856.4,547.1,856.4z"/>
		<path class="st0" d="M458.7,919.7c0,0,4.8,2,27.4,2s96.6,3.4,135.2-2.7"/>
	</g>
	<g>
		<path class="st0" d="M706.3,655.8"/>
		<g>
			<g>
				<path id="SVGID_1_" class="st2" d="M678.5,661.7c25.1-4.9,49-15.2,69.4-30.7c9.4-7.1,17.8-15.1,25.3-24.5
					c33.3-42.2-0.3-94.3-0.3-150.9c0-79.5-47.3-144.6-100.4-172.7c-4.1-2.1-8-4-11.9-5.8c-7-14.8-25.9-54.2-41.5-80.7
					c-7-11.9-25.1-10.3-29.8,2.6l-18.7,52l-9.2-14.2l-10,14.1c-3.8-0.1-7.4-0.5-11.2-0.5c-4.3,0-8.5,0.4-12.8,0.6l-10-14.2
					l-9.1,14.1l-18.6-51.7c-4.7-13-22.8-14.6-29.8-2.6c-15.8,26.9-35,67-41.8,81.3c-4.2,1.9-8.2,4-11.9,6.2
					c-52.1,28.1-98.6,93.2-98.6,171.7c0,56-33.9,107.8-1.2,149.8c8.7,11.2,19,20.4,30.4,28.5c20.9,14.8,44.8,24.9,69.9,30.2
					C453.9,674.3,550.2,686.8,678.5,661.7z"/>
			</g>
			<g>
				<g>
					<g>
						<g>
							<defs>
								<path id="SVGID_00000055673325515023959200000015057763862153426609_" d="M678.5,661.7c25.1-4.9,49-15.2,69.4-30.7
									c9.4-7.1,17.8-15.1,25.3-24.5c33.3-42.2-0.3-94.3-0.3-150.9c0-79.5-47.3-144.6-100.4-172.7c-4.1-2.1-8-4-11.9-5.8
									c-7-14.8-25.9-54.2-41.5-80.7c-7-11.9-25.1-10.3-29.8,2.6l-18.7,52l-9.2-14.2l-10,14.1c-3.8-0.1-7.4-0.5-11.2-0.5
									c-4.3,0-8.5,0.4-12.8,0.6l-10-14.2l-9.1,14.1l-18.6-51.7c-4.7-13-22.8-14.6-29.8-2.6c-15.8,26.9-35,67-41.8,81.3
									c-4.2,1.9-8.2,4-11.9,6.2c-52.1,28.1-98.6,93.2-98.6,171.7c0,56-33.9,107.8-1.2,149.8c8.7,11.2,19,20.4,30.4,28.5
									c20.9,14.8,44.8,24.9,69.9,30.2C453.9,674.3,550.2,686.8,678.5,661.7z"/>
							</defs>
							<clipPath id="SVGID_00000111898097553811919620000008976864531047596734_">
								<use xlink:href="#SVGID_00000055673325515023959200000015057763862153426609_"  style="overflow:visible;"/>
							</clipPath>
							<path style="clip-path:url(#SVGID_00000111898097553811919620000008976864531047596734_);fill:#5D5D5D;" d="M527.4,250.9
								c0,0-29,134.9-209.1,140.2c-157.7,4.7,105.4-277.4,165.8-238.2S527.4,250.9,527.4,250.9z"/>
						</g>
					</g>
				</g>
			</g>
			<g>
				<path id="SVGID_00000059295612642983519250000016718818932439861689_" class="st4" d="M678.5,661.7c25.1-4.9,49-15.2,69.4-30.7
					c9.4-7.1,17.8-15.1,25.3-24.5c33.3-42.2-0.3-94.3-0.3-150.9c0-79.5-47.3-144.6-100.4-172.7c-4.1-2.1-8-4-11.9-5.8
					c-7-14.8-25.9-54.2-41.5-80.7c-7-11.9-25.1-10.3-29.8,2.6l-18.7,52l-9.2-14.2l-10,14.1c-3.8-0.1-7.4-0.5-11.2-0.5
					c-4.3,0-8.5,0.4-12.8,0.6l-10-14.2l-9.1,14.1l-18.6-51.7c-4.7-13-22.8-14.6-29.8-2.6c-15.8,26.9-35,67-41.8,81.3
					c-4.2,1.9-8.2,4-11.9,6.2c-52.1,28.1-98.6,93.2-98.6,171.7c0,56-33.9,107.8-1.2,149.8c8.7,11.2,19,20.4,30.4,28.5
					c20.9,14.8,44.8,24.9,69.9,30.2C453.9,674.3,550.2,686.8,678.5,661.7z"/>
			</g>
		</g>
		<line class="st4" x1="539.3" y1="529.9" x2="539.3" y2="500.8"/>
		<polyline class="st4" points="574.7,547.3 539.5,529.9 503.9,547.3 		"/>
		<g>
			<ellipse class="st1" cx="411.3" cy="510.8" rx="34.7" ry="27.7"/>
			<ellipse class="st1" cx="668.6" cy="510.8" rx="34.7" ry="27.7"/>
		</g>
		<g>
			<line class="st4" x1="456.6" y1="486.1" x2="405.7" y2="482.6"/>
			<line class="st4" x1="457.8" y1="510.2" x2="411.2" y2="520.7"/>
		</g>
		<g>
			<line class="st4" x1="622" y1="486.1" x2="673" y2="482.6"/>
			<line class="st4" x1="620.9" y1="510.2" x2="667.4" y2="520.7"/>
		</g>
		<g>
			<path class="st5" d="M491.9,452.6c0,10.1-6.6,18.2-14.7,18.2s-14.7-8.2-14.7-18.2s6.6-8.2,14.7-8.2S491.9,442.6,491.9,452.6z"/>
			<path class="st5" d="M587.1,452.6c0,10.1,6.6,18.2,14.7,18.2s14.7-8.2,14.7-18.2s-6.6-8.2-14.7-8.2S587.1,442.6,587.1,452.6z"/>
		</g>
		<path class="st4" d="M588.3,422.8c0,0,17.8,1.8,32.5-8.5"/>
		<path class="st6" d="M551.3,496.3l-8.1,5.1c-2.4,1.5-5.3,1.5-7.7,0l-8.1-5.1c-3.3-2-4.7-6.4-3.5-10.2l0.5-1.6
			c1.1-3.4,4-5.7,7.3-5.7H547c3.3,0,6.2,2.3,7.3,5.7l0.5,1.6C556,489.9,554.6,494.3,551.3,496.3z"/>
		<path class="st1" d="M471.3,227l-14,22c-1.1,1.8-0.2,4,1.7,4.1l22.2,0.7c1.9,0.1,3.4-2.1,2.7-3.9l-8.2-22.7
			C475,225.2,472.5,225.2,471.3,227z"/>
		<path class="st1" d="M608.3,227l14,22c1.1,1.8,0.2,4-1.7,4.1l-22.2,0.7c-1.9,0.1-3.4-2.1-2.7-3.9l8.2-22.7
			C604.6,225.2,607.1,225.2,608.3,227z"/>
	</g>
</g>
</svg>
