<?xml version="1.0" encoding="utf-8"?>
<!-- Generator: Adobe Illustrator 27.7.0, SVG Export Plug-In . SVG Version: 6.00 Build 0)  -->
<svg version="1.1" id="레이어_1" xmlns="http://www.w3.org/2000/svg" xmlns:xlink="http://www.w3.org/1999/xlink" x="0px"
	 y="0px" viewBox="0 0 1080 1013.3" style="enable-background:new 0 0 1080 1013.3;" xml:space="preserve">
<style type="text/css">
	.st0{fill:#F7F7F7;}
	.st1{fill:#9D9D9D;}
	.st2{fill:#04060A;}
	.st3{fill:#EB9889;}
	.st4{fill:#DEDF73;}
	.st5{fill:#322F28;}
</style>
<g>
	<g>
		<path class="st0" d="M751.3,749.5c0,0,34,40.4,82.3,79.8s92.6,80.3,66.5,104.4c-26.1,24.1-50.2-32-104.9-69.5
			c-54.7-37.4-83.2-80.3-83.2-80.3L751.3,749.5z"/>
		<path class="st1" d="M751.3,749.5l-25,21.8c0.9,9.5,2.2,22.9,3.4,35.1c13.9,15.8,35.8,37.6,65.4,57.8c0.9,0.6,1.9,1.3,2.8,1.9
			c18.9,6.5,42.4,13,49.4,7.9c5.8-4.2,8.2-14.6,7.7-26.8c-6.9-6-14.2-12-21.5-18C785.3,789.9,751.3,749.5,751.3,749.5z"/>
		<path class="st2" d="M887,942.5c-4.1,0-8.5-1.3-13.1-4c-9.1-5.2-18.8-15.3-30.1-26.9c-14-14.5-29.9-30.8-50.3-44.9
			c-54.5-37.3-83.7-80.7-84-81.1l-1.4-2.2l43.6-38.2l1.9,2.3c0.3,0.4,34.4,40.6,81.9,79.4c44.7,36.5,74.6,65.6,75.3,89.1
			c0.2,7.6-2.7,14.3-8.7,19.8C897.3,940.3,892.3,942.5,887,942.5z M715.9,784.4c6.5,9,34.3,45.4,81,77.4
			c21,14.4,37.8,31.7,51.2,45.6c24.3,25.1,36.5,36.6,50,24.1c4.8-4.4,7-9.4,6.8-15.3c-0.7-22.5-35.6-54-73.1-84.7
			c-41.4-33.8-72.7-68.8-80.7-77.9L715.9,784.4z"/>
	</g>
	<g>
		<path class="st0" d="M417.2,574.8c0,0-22.5,7.7-40.7,3.8c-18.2-3.9-33-13.8-33-13.8s-4.9-43.3-32-47.8c-27.1-4.4-66,3.9-69.5,3.9
			c-3.4,0-26.1,0-22.7,15.8c3.4,15.8,23.2,19.2,23.2,19.2s4.4,44.3,31,51.7c26.6,7.4,38.4,1.5,38.4,1.5s44.8,17.7,64.5,23.6
			c19.7,5.9,33,15.3,67,3s28.1-15.8,28.1-15.8s13.8,43.8,5.9,66s-12.8,19.7-26.6,19.7c-13.8,0-73.4-8.9-90.6,21.7
			c-17.2,30.5,44.3,102,67,114.3c0,0-28.1,35-18.7,58.1c9.4,23.2,33.5,25.1,63.1,7.4c29.6-17.7,45.3-55.2,38.9-69
			c-6.4-13.8-18-16-36.2-17c0,0-25.1-27.1-9.9-38.9c0,0,2.5-3,26.1,8.4c23.6,11.3,115.3,30.5,156.6,31.5c0,0,3,6.4,2.5,29.6
			c-0.5,23.2-0.5,26.1-5.9,34.5c-5.4,8.4-22.2,39.4,0.5,74.9c22.7,35.5,58.1,40.4,71.9,18.2c13.8-22.2-2.5-57.6-15.8-76.8
			c0,0,35-53.2,57.6-150.7S777.7,568,732.8,502c0,0,17.7-37.9,39.4-32.5c21.7,5.4,27.6,32.5,27.6,32.5s-9.4,34.5,10.8,51.7
			c20.2,17.2,21.7,2.5,21.7,2.5s15.3,16.7,42.4,1s28.6-88.7-29.1-91.1c0,0-47.3-62.1-98-58.6c-50.7,3.4-96.5,74.4-96.5,74.4
			L417.2,574.8z"/>
		<path class="st1" d="M732.8,502c0,0,1.2,3.2,2.2-3.2c3.9-5.9,4.9-14.3,11.3-24.6c11.4-18.4,13.6-18.7,14.3-32
			c0.5-9.4-4.4-26.9-49.3-21.8c-34.4,21.4-60.3,61.5-60.3,61.5l-233.9,93c0,0-8.2-0.7-26.9,3.3c-8.3,6.2-25.1,5.9-33.5,23.6
			c-2.3,5-3,19.2,7.4,28.1c8.1,2.9,6.7,1.3,12.3,3c19.7,5.9,33,15.3,67,3c23.5-8.5,27.9-12.8,28.4-14.6c2.1,7,12.7,44.8,5.6,64.9
			c-7.9,22.2-12.8,19.7-26.6,19.7c-8.8,0-36.4-3.6-59.6,1.7c-6.1,7.5-11.9,17.7-14,31c-5.4,33,16.3,55.7,29.6,62.1
			c13.3,6.4,24.6,14.3,41.4,2.5c6-4.2,9-9,11.5-12.6c0.4-3.1,1.9-5.8,4.8-8.1c0,0,2.5-3,26.1,8.4c9.7,4.6,30.7,10.6,55,16.1
			c-10.3-15.6-27.8-46.1-28.4-76.2c-1-42.9,5.9-88.7,26.6-100c20.7-11.3,59.6-11.8,77.8-18.2c18.2-6.4,34-9.9,42.9,13.8
			s16.7,105.9,0,139.4c-14.1,28.3-22.7,41.1-48.6,53.9c11.9,1.6,22.8,2.6,31.4,2.8c0,0,1.5,3.3,2.2,13.6
			c5.4,5.3,18.1,16.4,30.8,16.4c16.7,0,49.8-32,77.8-100.5C780.6,654.2,777.7,568,732.8,502z"/>
		<path class="st2" d="M751.7,407.3c49.2,0,93.9,58.8,93.9,58.8c57.6,2.5,56.2,75.4,29.1,91.1c-8.7,5-16.1,6.8-22.3,6.8
			c-13,0-20.1-7.7-20.1-7.7s-0.6,5.9-6.1,5.9c-3.2,0-8.1-2-15.6-8.4c-20.2-17.2-10.8-51.7-10.8-51.7s-5.9-27.1-27.6-32.5
			c-1.4-0.4-2.9-0.5-4.3-0.5c-19.7,0-35.1,33-35.1,33c44.8,66,47.8,152.2,25.1,249.7s-57.6,150.7-57.6,150.7
			c13.3,19.2,29.6,54.7,15.8,76.8c-5.5,8.8-14.5,13.4-24.7,13.4c-15.4,0-33.6-10.3-47.2-31.6c-22.7-35.5-5.9-66.5-0.5-74.9
			c5.4-8.4,5.4-11.3,5.9-34.5c0.5-23.2-2.5-29.6-2.5-29.6c-41.4-1-133-20.2-156.6-31.5c-15.5-7.4-21.9-8.7-24.5-8.7
			c-1.3,0-1.6,0.3-1.6,0.3c-15.3,11.8,9.9,38.9,9.9,38.9c18.2,1,29.8,3.2,36.2,17c6.4,13.8-9.4,51.2-38.9,69
			c-13.1,7.9-25.1,11.8-35.3,11.8c-12.8,0-22.6-6.3-27.8-19.2c-9.4-23.2,18.7-58.1,18.7-58.1c-22.7-12.3-84.2-83.7-67-114.3
			c10.9-19.3,38.8-22.9,61.3-22.9c13.1,0,24.3,1.2,29.4,1.2c2.5,0,4.7,0.1,6.7,0.1c9,0,13.4-1.6,19.9-19.8
			c7.1-20.1-3.5-57.9-5.6-64.9c0.2-0.8-0.3-1.1-0.3-1.1s0.1,0.4,0.3,1.1c-0.5,1.8-4.9,6.1-28.4,14.6c-12.2,4.4-21.7,6-29.8,6
			c-14.5,0-24.5-5.2-37.2-9c-19.7-5.9-64.5-23.6-64.5-23.6s-4.5,2.2-14.1,2.2c-6,0-14.1-0.9-24.3-3.7c-26.6-7.4-31-51.7-31-51.7
			s-19.7-3.4-23.2-19.2c-3.4-15.8,19.2-15.8,22.7-15.8c2.7,0,27.6-5.2,51.3-5.2c6.3,0,12.5,0.4,18.1,1.3c27.1,4.4,32,47.8,32,47.8
			s14.8,9.9,33,13.8c3.7,0.8,7.6,1.1,11.4,1.1c15,0,29.3-4.9,29.3-4.9l233.9-93c0,0,45.8-70.9,96.5-74.4
			C749,407.3,750.4,407.3,751.7,407.3 M751.7,401.3c-1.5,0-3,0.1-4.5,0.2c-12.6,0.9-25.7,5.5-39.2,14c-10.5,6.6-21.2,15.4-31.9,26.3
			c-15.1,15.4-25.6,30.4-28.9,35.2l-232,92.3c-1.3,0.4-14.1,4.5-27.3,4.5c-3.7,0-7.1-0.3-10.2-1c-13-2.8-24.2-8.9-28.8-11.6
			c-1.7-10.5-9.5-45.6-36.5-50c-5.6-0.9-12-1.4-19.1-1.4c-18.2,0-37.2,3-46.3,4.5c-2.2,0.3-4.5,0.7-5.1,0.8
			c-8.4,0-19.7,1.5-25.4,8.7c-2.2,2.7-4.4,7.4-2.9,14.3c3.2,14.5,16.6,20.5,23.6,22.7c1.9,11.9,9.5,45.7,34.8,52.7
			c9.4,2.6,18.1,3.9,25.9,3.9c6.7,0,11.4-1,14-1.8c9.2,3.6,45.4,17.7,62.9,23c3.1,0.9,6.1,2,9.1,3c8.8,3.1,18,6.2,29.8,6.2
			c9.5,0,20-2.1,31.8-6.4c10.2-3.7,18-7,23.1-9.9c4.6,18.3,7.6,40.4,3.3,52.6c-2.7,7.6-5.1,12.3-7.3,14.2c-1.4,1.3-3,1.6-7,1.6
			c-0.9,0-1.8,0-2.9,0c-1.2,0-2.5,0-3.9,0c-1.8,0-4.6-0.2-8-0.4c-5.6-0.3-13.2-0.8-21.4-0.8c-14.6,0-26.6,1.4-36.7,4.4
			c-14.1,4.2-24.1,11.4-29.8,21.4c-4.5,8-5,18.3-1.4,30.7c6.2,21.5,22.8,43.9,32.1,55.3c11.3,13.8,23.5,25.9,32.9,32.7
			c-2.7,3.9-6.3,9.5-9.7,16.2c-8.6,17-10.6,31.4-6,42.6c6,14.8,17.8,22.9,33.3,22.9c11.4,0,24.3-4.3,38.3-12.7
			c7.5-4.5,14.5-10.4,20.8-17.5c5.6-6.3,10.5-13.5,14.3-20.9c7.8-15.2,10.1-29.5,6.1-38.2c-3.7-7.9-9.2-13.2-16.8-16.3
			c-6.1-2.4-13.2-3.4-21.9-4c-1.4-1.7-3.6-4.5-5.7-7.7c-4.1-6.4-6.3-12.1-5.9-16c0.1-1.5,0.6-2.7,1.5-3.8c2.1,0.3,7.8,1.8,21,8.1
			c13.9,6.7,46.8,14.7,73,20.1c32,6.5,61.9,10.9,81.5,11.8c0.7,3.8,1.5,11.1,1.2,23.7l0,0.8c-0.5,22.8-0.7,24-4.9,30.6
			c-3.2,5-9,15.5-11.2,29.6c-1.2,8.1-1.1,16.2,0.4,24.1c1.8,9.5,5.6,18.7,11.2,27.6c6.9,10.8,15.5,19.6,24.8,25.6
			c8.9,5.7,18.4,8.7,27.5,8.7c6.1,0,11.8-1.4,16.9-4.1c5.2-2.8,9.5-6.9,12.8-12.1c3.8-6.1,5.9-13.4,6.1-21.6
			c0.2-6.9-0.9-14.5-3.2-22.7c-4.4-15.4-12.1-28.6-16.7-35.8c3.3-5.5,10.2-17.7,18.7-36.2c10.7-23.5,25.9-62.2,37.7-113
			c5.8-25.1,9.9-49.2,12.1-71.7c2.3-23.6,2.6-46.1,0.8-66.9c-1.8-21.8-5.9-42.4-12.1-61.3c-6.1-18.5-14.4-35.9-24.8-51.7
			c1.6-3,4.5-7.9,8.2-12.7c4.9-6.4,12.4-14,20.1-14c1,0,1.9,0.1,2.8,0.4c15.4,3.9,21.5,21.9,22.9,26.8c-1.7,7.5-7.3,38.8,13.1,56.2
			c7.7,6.6,14,9.8,19.4,9.8c3.4,0,6.1-1.3,8-3c4.1,2.4,10.3,4.9,18.2,4.9c8.1,0,16.6-2.5,25.2-7.6c8.3-4.8,14.8-14,18.3-26
			c3.4-11.4,3.6-24,0.8-35.5c-2.8-11.2-8.4-20.8-16.2-27.7c-8.5-7.5-19.2-11.8-31.9-12.8c-3.8-4.7-13.8-16.4-27.7-28.2
			c-10.4-8.8-20.9-15.9-31.2-21C776.7,404.6,763.9,401.3,751.7,401.3L751.7,401.3z"/>
	</g>
	<g>
		<path class="st1" d="M355.3,358.1c0,0-1-56.2,20.2-87.8c18.4-27.4,34.5-53.3,44.3-58.2c9.9-4.9,20.2-14.3,28.1-4.9
			s15.8,74.8,21.2,84.2c5.4,9.4,4.9,30.5,4.9,30.5s23.2,0.2,34.5,2.7c11.3,2.5,44.3,2,44.3,2s11.8-52.6,21.7-66.2
			c18.2-25.1,62.1-39.4,70.4-32.9c5.3,4.1,3.4,54.6,5.4,70.8c2,16.3,6.9,69.2,10.3,73.6s30,19.5,30,42.6c0,13.4-3.9,95.5-17.7,120.6
			c-13.8,25.1-59.1,49.3-92.6,55.2c-33.5,5.9-106.4,5.4-134-3c-27.6-8.4-49.3-30.1-60.6-35c-11.3-4.9-33-16.8-42.9-40.4
			c-9.9-23.7-22.7-60.7-14.8-90.2C336.1,392.1,355.3,358.1,355.3,358.1z"/>
		<path class="st0" d="M432.6,317.5c0,0,15.8-23.2,12.8-38.4s-13.3-43.8-28.1-40.4s-13.8,34.5-14.8,38.4c-1,3.9-30,29.6-22.2,48.8
			C388.3,345.1,421.3,328.8,432.6,317.5z"/>
		<path class="st0" d="M574,326.9c0,0,14.3-48.8,36.9-65.5s29.6-1.5,27.1,11.8c-2.5,13.3-8.4,21.2-8.4,21.2s21.2,17.2,11.3,31
			c-9.9,13.8-54.2,15.8-54.2,15.8S574.5,340.6,574,326.9z"/>
		<path class="st0" d="M481.4,419c0,0,11.3-71.9,22.2-74.9c10.8-3,12.8,21.2,15.3,36s16.7,37.9,30.5,45.3s63.5,36.9,63.1,78.8
			c-0.5,41.9-20.5,83-38.1,87.8c-17.6,4.8-91.5,6.3-136.3-8.5S391.7,480,413.9,455.4C436.1,430.8,445.4,417,481.4,419z"/>
		<path class="st2" d="M449.9,323.4c0,0-3.4-32-9.9-46.8c-6.4-14.8-4.4-37.4-1.5-37.4S461.2,308.6,449.9,323.4z"/>
		<path class="st2" d="M442,315c0,0-6.9-26.6-19.2-26.6s6.9,12.3,10.8,18.7S439,317.5,442,315z"/>
		<path class="st2" d="M439,321.9c0,0-14.3-5.9-22.2-10.8s-12.3-8.9-14.3-5.4c-2,3.4,2,6.4,17.2,14.3
			C435.1,327.8,443,330.3,439,321.9z"/>
		<path class="st2" d="M566.6,332.8c0,0,4.9-29.6,15.3-47.3c10.3-17.7,17.2-19.2,18.7-16.3c1.5,3-9.4,18.7-13.8,28.1
			c0,0-7.9,15.8-9.9,24.6C575,330.8,571.5,335.2,566.6,332.8z"/>
		<path class="st2" d="M579.9,334.2c0,0,16.7-20.2,21.7-20.2c4.9,0,1-8.9-8.9-2.5S570.5,333.3,579.9,334.2z"/>
		<path class="st2" d="M584.8,337.2c0,0,18.7-15.3,26.1-13.8S586.8,347.1,584.8,337.2z"/>
		<path class="st2" d="M501.6,420.9c0,0,6.4,3.4,9.4,4.4c3,1,2,6.4-2.5,4.9C504,428.8,494.7,425.4,501.6,420.9z"/>
		<path class="st3" d="M548.6,489.2c0,0-10.3,47.3-22.7,49.8s-30-27.1-30-27.1l-9.4-23.2l9.9-13.3l11.7-15.9l16.4,15.4L548.6,489.2z
			"/>
		<path class="st2" d="M507.5,450.5c0,0-18.7,36.9-33,36c-14.3-1-17.2-27.1-28.1-26.1s11.3,32.5,21.7,34c10.3,1.5,15.3,1.5,15.3,1.5
			s10.3,37.9,39.9,48.3c0,0,7.9,3.4,14.8-10.3c6.9-13.8,13.8-43.8,13.8-43.8s-4.7-4.7-7.1-1.2c-2.5,3.4-10.8,46.3-19.2,46.8
			c-8.4,0.5-29.1-22.2-34-41.4c0,0-3.4-5.9,3-10.8c6.4-4.9,13.8-15.8,15.3-23.6C511.2,451.7,509.2,449.3,507.5,450.5z"/>
		<path class="st2" d="M568.8,464.5c0,0-7.4,22.7-24.6,17.7c-17.2-4.9-30-21.7-32.5-30.5c0,0-2.5-3.4-4.2-1.2s-1.7,15.5,16,29.8
			c17.7,14.3,32,15.8,40.4,7.9c8.4-7.9,12.8-19.2,12.8-19.2s10.3-17.7,6.4-21.2C579.2,444.3,574.7,462.1,568.8,464.5z"/>
		<path class="st2" d="M561.4,454.7c0,0,6.9,8.9,27.6,10.8c20.7,2,61.1-1.5,61.6,4.9c0.5,6.4-54.7,3.9-69.9,0.5s-23.2-9.9-23.2-14.8
			C557.5,451.2,561.4,454.7,561.4,454.7z"/>
		<path class="st2" d="M565.1,442.7c-0.1,1.7,1.4,3.1,3.1,3c4.5-0.2,16.2-1.4,26.7-6.8c13.3-6.9,40.4-15.3,69.9-13.3
			c0,0,3.4-3.4-1.5-5.9c-4.9-2.5-22.7-2.5-53.7,6.9c0,0-8.1,3.2-18,4.2c-9.9,1-24.1-3.9-25.1-0.5c-1,3.4,19.3,4.5,20.7,5.9
			c1.2,1.2-12.9,5-19.5,3.7C567.8,439.9,565.3,440.7,565.1,442.7z"/>
		<path class="st2" d="M446.7,453.2c0,0-39.2-3.7-52.5-7.6s-29.8-5.2-49.5,6.2c-19.7,11.3-0.5-20.4,33.2-15.5
			c34,4.9,37.7,9.1,63.8,10.6C441.7,446.8,451.1,447.8,446.7,453.2z"/>
		<path class="st2" d="M440.3,473.4c0,0-4.9,1.5-36.7,9.1c-31.8,7.6-54.9,29.8-56.4,34.2s4.4,4.9,16.7-7.9
			c12.3-12.8,39.9-21.7,52.7-24.1C429.4,482.3,447.1,480.8,440.3,473.4z"/>
		<path class="st2" d="M520.5,597.3c-29.2,0-59.1-2.3-74.9-7.1c-18.5-5.6-34.5-17.1-46.1-25.5c-6-4.3-11.1-8-14.8-9.6
			c-12.3-5.3-34.4-17.9-44.4-42c-16.2-38.9-21.1-69-14.9-92.1c7.4-27.6,24.1-58.5,27-63.6c0-7.3,0.4-58.4,20.7-88.7
			c2.6-3.9,5.2-7.8,7.7-11.5c16-24.1,28.6-43.1,37.8-47.7c1.8-0.9,3.7-2,5.6-3.1c8.1-4.7,18.1-10.5,26.1-1.1
			c4.6,5.5,8.4,23.6,13.5,50.6c2.9,14.9,5.8,30.3,7.9,34c4.6,7.9,5.2,22.8,5.3,29.1c6.7,0.1,23,0.7,32.1,2.7c9.2,2,33.7,2,41.3,1.9
			c2.4-10.4,12.6-52.6,21.6-65c14.8-20.5,44.4-32.9,60.6-35.3c6.6-0.9,11.3-0.4,14,1.7c4.1,3.2,4.8,16.5,5.4,46.1
			c0.2,10.8,0.4,21,1.1,26.7c0.4,3.5,1,8.5,1.6,14.4c1.9,17.5,5.8,53.7,8.2,57.8c0.6,0.7,2.5,2.2,4.3,3.7c9.2,7.3,26.3,21,26.3,40.7
			c0,11.1-3.6,95.6-18.1,122c-6.7,12.2-20.9,25-40,36c-17.7,10.2-37.6,17.7-54.7,20.8C566,595.9,543.4,597.3,520.5,597.3z
			 M440,206.2c-3.2,0-7.3,2-12.9,5.3c-1.9,1.1-3.9,2.3-5.9,3.3c-7.7,3.9-21.2,24.2-35.5,45.6c-2.5,3.8-5.1,7.7-7.7,11.5
			c-20.4,30.4-19.7,85.5-19.7,86.1l0,0.8l-0.4,0.7c-0.2,0.3-19.1,34.1-26.8,62.9c-5.8,21.8-1,50.7,14.7,88.3
			c9.2,22.2,29.8,33.9,41.3,38.9c4.2,1.8,9.4,5.5,15.9,10.2c11.3,8.2,26.8,19.3,44.4,24.7c27.2,8.3,100,8.6,132.6,2.9
			c32-5.6,77-29.1,90.5-53.7c12.8-23.4,17.4-101.4,17.4-119.2c0-16.8-15.7-29.3-24.1-36.1c-2.6-2.1-4.4-3.5-5.3-4.7
			c-2.8-3.5-5.2-22.4-9.3-60.7c-0.6-5.9-1.2-10.9-1.6-14.3c-0.7-6-0.9-16.3-1.2-27.3c-0.2-9.4-0.4-19.2-0.9-27.2
			c-0.8-11.4-1.9-14-2.3-14.5c-0.6-0.4-2.8-1.4-9.5-0.5c-14.8,2.1-43,14-56.7,32.9c-9.4,12.9-21.1,64.6-21.2,65.1l-0.5,2.3l-2.3,0
			c-1.4,0-33.5,0.5-45-2c-10.9-2.4-33.6-2.6-33.9-2.6l-3,0l0.1-3c0.1-5.7-0.4-21.9-4.5-29c-2.5-4.3-4.9-16.4-8.6-35.8
			c-3.5-18.3-8.3-43.3-12.3-48C443.9,207.1,442.1,206.2,440,206.2z M643,229.6L643,229.6L643,229.6z"/>
		<path class="st4" d="M456.8,425.4c0,0,7.4,1.5,6.4-10.8s-3.9-46.3-24.1-47.8c-20.2-1.5-25.1,31.5-25.6,33.5
			c-0.5,2-8.4,13.3,14.3,21.2C450.3,429.3,456.8,425.4,456.8,425.4z"/>
		<path class="st2" d="M458.7,400.7c0,0,1.3,18.7,4.3,18.7s3.1-11.3,2.1-17.7c-1-6.4-4.9-39.4-24.1-41.4c-19.2-2-27.6,23.6-32,34
			c-4.4,10.3-1.5,25.1,16.7,28.6c18.2,3.4,31,7.9,35,3c3.9-4.9-11.8-3-24.1-7.4s-24.6-3.9-19.7-19.2s10.8-27.1,18.7-27.1
			S452.3,371.2,458.7,400.7z"/>
		<path class="st2" d="M434.1,367.7c0,0-10.8,41.4-6.4,50.7c4.4,9.4,14.8-9.4,18.7-25.1S452.8,355.4,434.1,367.7z"/>
		<path class="st5" d="M438.5,380.1c0,0-2,12.8,0.5,13.3C441.5,393.8,443,378.1,438.5,380.1z"/>
		<path class="st5" d="M433.6,405.7c0,0-3.9,0.5-3,3.9C431.6,413.1,442.5,410.6,433.6,405.7z"/>
		<path class="st4" d="M598.1,411.6c0,0-3.9,19.2-21.2,16.7c-17.2-2.5-37.9-13.3-34.5-23.6c3.4-10.3,13.8-26.6,18.2-30.5
			s16.7-18.2,25.1-12.3C594.2,367.7,598.6,386.5,598.1,411.6z"/>
		<path class="st2" d="M568.1,367.7c0,0-4.4,10.8-6.4,30c-2,19.2,2,25.6,5.9,25.6c3.9,0,7.4-12.3,8.9-24.1
			C577.9,387.4,579.9,354.4,568.1,367.7z"/>
		<path class="st2" d="M579.9,427.3c0,0-20.2-3-28.1-9.9c-7.9-6.9-4.4-19.7,4.9-33c9.4-13.3,21.7-25.6,29.6-17.7s12.8,33,10.3,46.8
			c0,0-1,3.9,3,2c3.5-1.8,6.4-27.6,0-42.4c-6.4-14.8-14.3-19.7-28.6-13.8c-14.3,5.9-27.1,28.1-31,38.9c-3.9,10.8-2.5,23.2,19.7,30
			C581.9,435.2,585.8,427.8,579.9,427.3z"/>
	</g>
</g>
</svg>
