<?xml version="1.0" encoding="utf-8"?>
<!-- Generator: Adobe Illustrator 27.7.0, SVG Export Plug-In . SVG Version: 6.00 Build 0)  -->
<svg version="1.1" id="레이어_1" xmlns="http://www.w3.org/2000/svg" xmlns:xlink="http://www.w3.org/1999/xlink" x="0px"
	 y="0px" viewBox="0 0 1080 1013.3" style="enable-background:new 0 0 1080 1013.3;" xml:space="preserve">
<style type="text/css">
	.st0{fill:#4E576C;}
	.st1{fill:#FFFFFF;}
	.st2{fill:#F37321;}
</style>
<g id="_x32_">
	<g>
		<path class="st0" d="M750.2,409.6l24.6-11.6l-44.4-94.4L691,320.8c0,0-1,101.5-26.1,125.6c-14.3,13.8-28.5,23.4-51.9,33.9
			c0,0-27,37-51.8,52.4c-14.9-9.1-38.4-38.6-38.4-38.6c-74.8,1.7-111-23.7-111-23.7l-6.8,0.3l-0.9,85.8c27.9,4.6,58.1-1.6,58.1-1.6
			c-1.8,21.3-12.7,47-12.7,47c22.7,8.4,75.6,19.2,98.5,23.7l11.6,2.1c0,0,126.4,22.7,209,22.7C768.6,650.2,794.9,500.6,750.2,409.6z
			"/>
		<path d="M770.7,652.7h-2.1c-81.9,0-208.2-22.5-209.5-22.7l-11.6-2.1c-22.1-4.3-75.9-15.3-98.9-23.8l-2.5-0.9l1-2.4
			c0.1-0.2,9.7-22.9,12.2-42.9c-8.7,1.5-32.8,4.8-55.6,1l-2.1-0.3l0.9-90.3l10-0.4l0.7,0.5c0.4,0.2,36.5,25,109.5,23.3h1.2l0.8,1
			c0.2,0.3,22.1,27.5,36.5,37.2c23.7-15.5,49.5-50.6,49.8-51l0.4-0.5l0.6-0.3c22.2-9.9,36.5-19.3,51.1-33.4
			c24-23.1,25.3-122.9,25.3-123.9v-1.6l43.1-18.8l46.5,98.9l-24.6,11.6c22.3,47.2,26,109.2,25.1,153.3c-1,48.4-7.6,86.2-7.6,86.6
			L770.7,652.7z M452.8,600.3c23.9,8.2,74.5,18.6,95.7,22.7l11.6,2.1c1.2,0.2,124.9,22.2,206.5,22.6c1.4-8.5,6.4-42.2,7.2-83.8
			c0.9-44.2-2.8-106.7-25.7-153.2l-1.1-2.3l24.6-11.6l-42.3-90l-35.7,15.6c-0.2,13.6-2.8,102.6-26.8,125.8
			c-14.9,14.4-29.5,24-52,34.1c-3.6,4.8-28.5,37.9-52.1,52.6l-1.3,0.8l-1.3-0.8c-13.7-8.4-34-32.9-38.3-38.2
			c-69.1,1.3-104.9-20.1-110.5-23.7l-3.6,0.2l-0.8,81.2c26.5,3.8,54.8-1.9,55-1.9l3.3-0.7l-0.3,3.3
			C463.2,572.9,455.5,593.3,452.8,600.3z"/>
	</g>
	<path d="M410.2,470.7l-0.4,86.2l4.7,0.3l-0.1-85.5c0-0.2-2.5-1.3-2.7-1.3L410.2,470.7z"/>
	<polygon points="725.1,305.5 769.2,400.1 764.1,403.1 719.9,307.8 	"/>
	<g>
		<g>
			<path class="st1" d="M556,545.8c-3.9,1.3-9.2,2-17.2,1.1c0,0-12.3-2-19.1-2l0,0c-2.6-0.2-13.8,0-24.3,2.9
				c-1.2,0.3-1.7,0.7-2.3,1.1c-0.2,0.3-0.8,1-1.1,1.5c0,0-3.1,0.1-5.1,0.7c-2.8,0.9-3.9,2.2-3.4,4.8c1.2,6.1,8.1,7.8,8.1,7.8
				s-1.3-4.3,0.2-4.2c0.7,0,2.7,0.7,4.2,1.6c0.8,0.4,4.4,2.6,7.9,6.1l-5.6,13.6l50.9,4.4c1.7,0.1,3.3-0.1,4.8-0.5
				c-0.3,0.3-0.6,0.5-0.8,0.9l-4.3,6.3l20.7,1.8c5.2,0.4,9.9-1.9,12-5.6l46.9,4.1c5.8,0.5,10.5-1.7,12.5-5.4c2.4-4.4,0.3-7,0.3-7
				c2.4-1.2,3.7-3,4.2-4.3l3-7.1l-45.4-3.9l3.1-7.6l-6-0.5c-5.7-0.4-10.2,2.5-12.1,6.8l-39.9-3.5c3.9-1.3,10.4-4.7,14.5-16.5
				C562.7,543.1,559.8,544.7,556,545.8z"/>
		</g>
		<g>
			<path class="st1" d="M529.9,572.1c2.9,0.2,5.2-0.8,6.3-1.6c0,0-2.3,8.8-12.8,7.9l-21.1-1.8l4.6-11.2c0,0-3.8-5.3-11.4-7.9
				c-2.7-1-6.7-1.6-7.1-0.3c-0.1,0.4,0,1.7,0.1,2.8c0,0-1.2-0.7-1.9-1.7c-0.2-0.3-1.3-1.8-1.2-3.5c0-0.9,0.5-1.5,1.2-1.9
				c1.8-0.9,6.5-1,6.5-1l0.5-0.9c0.5-0.9,1-1.3,1.6-1.5c11.1-3.3,23.9-3,24-3h-0.1c0.9,0,2.1,0.1,3.4,0.2c5.8,0.1,13.5,1.5,14.1,1.6
				c5.6,0.8,9.3,1,11.8,0.8c3.7-0.1,7.3-2.1,7.3-2.1s-3.8,6.9-11.6,8.2c-3.3,0.6-6.5,0.4-9.6,0.1l-5.7-0.5c-2.9-0.2-3.7,0.8-4.1,1.7
				l-1,2.4c2.4,0.2,9.6,0.8,9.6,0.8c3.5,0.4,6.1-0.8,7.3-1.7c0,0-2.2,8.7-12.7,7.9c0,0-5.3-0.5-6.7-0.6l-2.3,5.5L529.9,572.1z"/>
		</g>
		<g>
			<g>
				<path class="st1" d="M600,557.8c-4.3-0.4-8.3,1.8-9.6,4.9l-8.4,20.7l9,0.8l10.7-26.2L600,557.8z"/>
			</g>
			<g>
				<path class="st1" d="M616.9,577.3c1.3-0.8,2.3-1.9,2.8-3.2l2.6-6.4l-14.4-1.2c-5.4-0.4-8,2-9,4.1l0,0l-5.6,13.7l14.7,1.3
					c4,0.3,7.5-1.2,9.1-4.9l1.3-3.3L616.9,577.3z M607.2,573.2l0.6-1.5l3.4,0.3l-0.6,1.5L607.2,573.2z M607.9,580.3
					c-0.9-0.1-2.1-0.2-3.5-0.3c0.3-0.8,0.5-1.2,0.8-1.8c1.1,0.1,3.2,0.3,4.3,0.4C608.7,579.1,608.3,579.5,607.9,580.3z"/>
			</g>
			<g>
				<path class="st1" d="M570.2,583.8c-1.4-0.1-5.9-0.5-5.9-0.5c-4.3-0.4-7.1,0.5-8.6,2.6l-1.2,1.8l15.4,1.3
					c4.4,0.3,8.2-1.6,9.5-4.9l8-19.5l-14.3-1.2c0,0-6.9-0.7-9.2,4.8l-5.3,13.1l9.6,0.8c1.2,0.1,2.1,0,2.9-0.2L570.2,583.8z
					 M576.2,568.9c-0.9,2.1-3,7.2-3.5,8.4c-0.8-0.1-1.8-0.2-3.1-0.3c0.9-2.1,3-7.2,3.5-8.4C573.9,568.7,574.9,568.8,576.2,568.9z"/>
			</g>
			<g>
				<path class="st1" d="M534.6,579.3l14.9,1.3c4,0.3,7.7-1.6,8.9-4.7l5.4-13.2l-14.6-1.3c-4.2-0.4-7.9,1.5-9.2,4.7l-1.4,3.6
					l1.4,0.1c-1.3,0.7-2.3,2-2.9,3.3L534.6,579.3z M545.7,575l0.6-1.5l3.5,0.3l-0.6,1.5L545.7,575z M552.7,567l-0.7,1.8l-4.5-0.4
					c0.9-0.4,1.4-1.1,1.7-1.7L552.7,567z"/>
			</g>
			<g>
				<path class="st1" d="M616.1,586.4l12.7,1.1c5,0.4,8-2.2,9-4.9c0,0,0.6-1.5,0.1-2.8c-0.3-0.8-0.7-1.5-1.6-2.1
					c-0.5-0.3-1.4-0.8-2.3-1.3c5.1,0.1,7.1-1.9,7.8-3.7l0.6-1.5l0.7-1.6l-1.7-0.1l-11.1-1c-4.2-0.3-7.6,1.5-8.9,4.9
					c-1.1,3.1,1.3,4.5,1.3,4.5l2.8,1.6c-5.2-0.3-7.3,1.9-8,3.7L616.1,586.4z M630.5,574.2l0.2-0.5l1.4,0.1l-0.4,1.1L630.5,574.2z
					 M627.3,582c0.1-0.3,0.3-0.8,0.3-0.8s0.1-0.3,0.2-0.4c0.4,0.2,1,0.6,1.1,0.7c-0.1,0.2-0.2,0.4-0.3,0.6
					C628.2,582.1,627.9,582.1,627.3,582z"/>
			</g>
		</g>
		<g>
			<g>
				<path class="st2" d="M528.7,553.2c-3.2-0.3-4.6,0.9-5.3,2.5l-1.6,4l11.2,1c1.9,0.1,3.9,0.3,5.4-0.8c-1.3,2.6-4.8,5.3-10.7,4.6
					l-7.6-0.7l-3.2,7.9l11.7,1c1.9,0.1,3.7,0.2,5.4-0.7c-1.3,2.6-4.9,5.2-10.7,4.6l-19.4-1.7l4.3-10.4c0,0-6.4-7.9-16.5-9.3
					c-1.9-0.2-3.1-0.1-3.9,0.2c-0.9,0.4-0.5,2-0.5,2s-1-1.1-1.1-2.5c-0.1-1.3,1.6-1.9,4-2.2c1.8-0.2,3.3-0.2,3.3-0.2l0.8-1.4
					c0.2-0.4,0.4-0.6,0.7-0.8c0.4-0.3,1.1-0.5,1.1-0.5c10.5-2.7,22.7-2.7,22.7-2.7l0,0c0.9,0,2.1,0.1,3.4,0.2c5.8,0.1,14,1.6,14,1.6
					c13.5,2.2,16.3,0.1,17.7-0.7l0,0c-5.4,5.9-11.5,6.1-19.5,5.4L528.7,553.2z"/>
			</g>
			<g>
				<g>
					<g>
						<path class="st2" d="M583.5,581.8l7.7-18.9c1.2-2.7,4.8-4.5,8.3-4.3l-9.7,23.8L583.5,581.8z"/>
					</g>
					<g>
						<path class="st2" d="M610.4,577c3.7,0.2,6.7-1.4,7.7-3.9l1.9-4.9l-12.7-1.1c-3.6-0.2-6.6,1.1-7.8,3.9l-4.8,11.7l12.9,1.1
							c3.8,0.3,6.4-1.2,7.7-4.1l0.7-1.7c-3.4-0.3-6.7,0.3-7.8,2.9l-0.1,0.2l-6-0.5l1.7-4.2L610.4,577z M612.6,570.5l-1.6,3.8l-6-0.5
							l1.6-3.8L612.6,570.5z"/>
					</g>
					<g>
						<path class="st2" d="M573.2,578.1l-5.8-0.5l4.4-10.7l5.8,0.5L573.2,578.1z M556.4,586.1l13.2,1.1c3.6,0.3,7.1-1.2,8.3-4.1
							l7.3-17.9l-12.6-1.1c-3.6-0.2-6.6,1.5-7.9,4.1l-4.7,11.4l7.8,0.7c3.4,0.3,4.9-1,4.9-1l-2,5.2l-6.8-0.6
							C560.7,583.7,557.8,584.1,556.4,586.1z"/>
					</g>
					<g>
						<path class="st2" d="M549.7,576.1l-6.2-0.5l1.6-3.9l6.2,0.5L549.7,576.1z M548.6,562.1c-3.5-0.3-6.8,1.4-7.8,4l-0.8,2
							c3.3,0.4,6.8-0.4,7.8-2.9l0.1-0.3l6.2,0.5l-1.7,4.2l-6.6-0.6c-3.8-0.3-6.8,1.6-7.9,4.1l-1.9,4.6l13.1,1.1
							c3.6,0.3,6.6-1.4,7.6-3.9l4.8-11.7L548.6,562.1z"/>
					</g>
					<g>
						<path class="st2" d="M636.3,581.6c-1,2.5-3.7,4.4-7.7,4.1l-10.9-0.9l0.6-1.6c1-2.5,4.2-3.2,7.8-2.9l-1,2.4l4,0.3l0.8-1.8
							c0.1-0.4,0.1-0.7-0.2-0.9l-6.6-4c-0.7-0.5-1.2-1.8-0.8-3l0,0c1.1-2.7,3.8-4.4,7.6-4.2l11.1,1l-0.6,1.5c-1,2.5-4.1,3.2-7.8,2.9
							l0.9-2.2l-4-0.3l-0.7,1.7c-0.1,0.4-0.1,0.7,0.2,0.9l6.5,3.8C637.1,579.5,636.3,581.6,636.3,581.6z"/>
					</g>
				</g>
			</g>
		</g>
		<g>
			<path class="st1" d="M509.7,560.6l1.5-3.6c1-2.5,1.7-3.3,4.2-4.1s7.1-0.9,7.1-0.9c-6.6-1.5-20.5-2.1-25.7-0.9
				c-1.1,0.3-1.6,1.2-1.6,1.2h7.1l-2.8,1.4c-2.5-1.1-4.6-0.9-4.6-0.9c-1.7,0.6-2.1,2-2.1,2C501.6,555.6,509.7,560.6,509.7,560.6z"/>
		</g>
		<g>
			<g>
				<polygon points="585.6,549.8 584.3,549.7 584.7,544.5 578.5,544 578,549.2 576.7,549.1 577.6,539 578.9,539.1 578.6,542.4 
					584.9,543 585.2,539.7 586.5,539.8 				"/>
			</g>
			<g>
				<path d="M636.2,550.5l-2.3-0.2c-0.5,0-0.9,0-1.1,0.1c-0.4,0.1-0.6,0.5-0.7,1c0,0.5,0.1,0.8,0.5,1c0.2,0.1,0.6,0.2,1.1,0.2
					l1.9,0.2c0.7,0.1,1.1,0,1.4-0.2c0.3-0.2,0.4-0.5,0.5-0.9C637.5,551,637.1,550.6,636.2,550.5 M631.9,546.2l4.3,0.4
					c1.2,0.1,2,0.5,2.5,1.3c0.6,1,0.3,2.3,0.2,3.4c0,0.4-0.1,0.7-0.1,1.1c0,0.6-0.3,1.1-0.6,1.4c-0.3,0.4-0.7,0.6-1.3,0.5
					c-0.4,0-0.9-0.1-1.3-0.1l-2.2-0.2c-1-0.1-1.7-0.3-2.1-0.6c-0.5-0.4-0.7-1.2-0.7-2.2l0,0c0.1-1,0.5-1.7,1.1-2
					c0.4-0.2,1.1-0.3,2.1-0.2c0,0,3.7,0.4,3.7,0.3c0-0.4,0-0.8-0.4-1.1c-0.4-0.2-0.8-0.3-1.2-0.4l-4.2-0.4L631.9,546.2z"/>
			</g>
			<g>
				<path d="M602.4,543.7c1,0.1,1.7,0.4,2.2,1.1c0.5,0.6,0.7,1.2,0.6,2.3l-0.4,4.4l-1.3-0.1l0.4-4.4c0.1-0.6-0.1-0.9-0.4-1.3
					c-0.3-0.4-0.7-0.6-1.3-0.7l-1.2-0.1c-0.6,0-1,0.1-1.4,0.4c-0.4,0.3-0.6,0.6-0.6,1.2l-0.4,4.4l-1.3-0.1l0.4-4.4
					c0.1-1.1,0.4-1.7,1-2.2s1.4-0.8,2.3-0.7L602.4,543.7z"/>
			</g>
			<g>
				<path d="M618.9,545.1l-0.4,4.3c-0.1,0.6-0.2,0.9-0.6,1.2c-0.4,0.3-0.8,0.5-1.4,0.4l-0.8-0.1c-0.6,0-1-0.3-1.3-0.7
					s-0.5-0.6-0.4-1.3l0.4-4.3l-1.4-0.1l-0.4,4.3c-0.1,0.6-0.2,0.9-0.6,1.2c-0.4,0.3-0.8,0.5-1.4,0.4l-0.8-0.1c-0.6,0-1-0.3-1.3-0.7
					s-0.5-0.6-0.4-1.3l0.4-4.3l-1.3-0.1l-0.4,4.4c-0.1,1.1,0.1,1.7,0.6,2.3s1.2,1,2.2,1.1l1.1,0.1c1,0.1,1.7-0.1,2.3-0.7
					c0.1-0.1,0.1-0.1,0.2-0.2c0.1,0.1,0.1,0.1,0.2,0.2c0.5,0.6,1.2,1,2.2,1.1l1.1,0.1c1,0.1,1.7-0.1,2.3-0.7c0.6-0.5,0.9-1.1,1-2.2
					l0.4-4.4L618.9,545.1z"/>
			</g>
			<g>
				<path d="M628.7,546.8c-0.5-0.6-1.2-1-2.2-1.1l-1.5-0.1c-0.7-0.1-1.3,0-1.8,0.3l0.3-3l-1.3-0.1l-0.9,10.1l1.3,0.1l0.4-4.4
					c0.1-0.6,0.2-0.9,0.6-1.2c0.4-0.3,0.8-0.5,1.4-0.4l1.2,0.1c0.6,0,1,0.3,1.3,0.7s0.5,0.6,0.4,1.3l-0.4,4.4l1.3,0.1l0.4-4.4
					C629.4,548.1,629.2,547.5,628.7,546.8z"/>
			</g>
			<g>
				<path d="M593.1,546.8l-2.3-0.2c-0.5,0-0.9,0-1.1,0.1c-0.4,0.1-0.6,0.5-0.7,1c0,0.5,0.1,0.8,0.5,1c0.2,0.1,0.6,0.2,1.1,0.2
					l1.9,0.2c0.7,0.1,1.1,0,1.4-0.2c0.3-0.2,0.4-0.5,0.5-0.9C594.4,547.2,594,546.9,593.1,546.8 M588.8,542.5l4.3,0.4
					c1.2,0.1,2,0.5,2.5,1.3c0.6,1,0.3,2.3,0.2,3.4c0,0.4-0.1,0.7-0.1,1.1c0,0.6-0.3,1.1-0.6,1.4c-0.3,0.4-0.7,0.6-1.3,0.5
					c-0.4,0-0.9-0.1-1.3-0.1l-2.2-0.2c-1-0.1-1.7-0.3-2.1-0.6c-0.5-0.4-0.7-1.2-0.7-2.2l0,0c0.1-1,0.5-1.7,1.1-2
					c0.4-0.2,1.1-0.3,2.1-0.2c0,0,3.7,0.4,3.7,0.3c0-0.4,0-0.8-0.4-1.1c-0.4-0.2-0.8-0.3-1.2-0.4l-4.2-0.4L588.8,542.5z"/>
			</g>
		</g>
	</g>
	<rect x="515.5" y="581" transform="matrix(7.774001e-02 -0.997 0.997 7.774001e-02 -67.7464 1093.8459)" width="83.8" height="5"/>
	<path d="M516.9,494.3c0,0,20.4,31.6,45.1,44.9l-0.2,6.6c0,0-29.5-16-49.4-51.6L516.9,494.3z"/>
	<path d="M620.1,477.1c0,0-23.3,47.4-58.1,61.9l-0.3,6.8c0,0,21-6.4,44.2-35.9c21.1-26.8,21.4-36.5,21.4-36.5L620.1,477.1z"/>
</g>
</svg>
