<?xml version="1.0" encoding="utf-8"?>
<!-- Generator: Adobe Illustrator 27.7.0, SVG Export Plug-In . SVG Version: 6.00 Build 0)  -->
<svg version="1.1" id="레이어_1" xmlns="http://www.w3.org/2000/svg" xmlns:xlink="http://www.w3.org/1999/xlink" x="0px"
	 y="0px" viewBox="0 0 1080 1013.3" style="enable-background:new 0 0 1080 1013.3;" xml:space="preserve">
<style type="text/css">
	.st0{fill:#0054CE;}
	.st1{fill:#F24922;}
	.st2{fill:#F37321;}
	.st3{fill:#FFECDE;}
</style>
<g id="_x33_">
	<g>
		<path class="st0" d="M753.8,409.1l25-11.8l-45.1-95.9l-40,17.5c0,0-1,103.2-26.5,127.7c-14.5,14-29,23.8-52.7,34.5
			c0,0-27.4,37.6-52.6,53.3c-15.1-9.2-39-39.2-39-39.2c-76,1.7-112.8-24.1-112.8-24.1l-6.9,0.3l-0.9,87.2
			c28.4,4.7,59.1-1.6,59.1-1.6c-1.8,21.6-12.9,47.8-12.9,47.8c23.1,8.5,76.8,19.5,100.1,24.1l11.8,2.1c0,0,128.5,23.1,212.4,23.1
			C772.5,653.6,799.2,501.6,753.8,409.1z"/>
	</g>
	<path class="st1" d="M410.6,471.2l-0.4,87.6l4.8,0.3l-0.1-86.9c0-0.2-2.5-1.3-2.7-1.3L410.6,471.2z"/>
	<polygon class="st1" points="728.2,303.3 773.1,399.4 767.9,402.5 723,305.6 	"/>
	<polygon points="551.9,628.1 558.5,533 563.6,533.4 557,628.5 	"/>
	<g>
		<path d="M774.6,656.2h-2.1c-83.2,0-211.6-22.9-212.9-23.1l-11.8-2.1c-22.5-4.4-77.1-15.6-100.5-24.2l-2.5-0.9l1-2.4
			c0.1-0.2,9.9-23.3,12.4-43.6c-8.8,1.5-33.3,4.9-56.5,1l-2.1-0.3l0.9-91.8l10.2-0.4l0.7,0.5c0.4,0.2,37.1,25.4,111.3,23.7h1.2
			l0.8,1c0.2,0.3,22.5,27.9,37.1,37.8c24.1-15.8,50.3-51.4,50.6-51.8l0.4-0.5l0.6-0.3c22.6-10.1,37.1-19.6,51.9-33.9
			c24.4-23.5,25.7-124.9,25.7-125.9v-1.6l43.8-19.1L782,398.6l-25,11.8c22.7,48,26.4,111,25.5,155.8c-1,49.2-7.7,87.6-7.7,88
			L774.6,656.2z M451.5,602.9c24.3,8.3,75.7,18.9,97.3,23.1l11.8,2.1c1.2,0.2,126.9,22.6,209.9,23c1.4-8.6,6.5-42.9,7.3-85.2
			c0.9-44.9-2.8-108.4-26.1-155.7l-1.1-2.3l25-11.8l-43-91.5l-36.3,15.9c-0.2,13.8-2.8,104.3-27.2,127.9
			c-15.1,14.6-30,24.4-52.9,34.7c-3.7,4.9-29,38.5-53,53.5l-1.3,0.8l-1.3-0.8c-13.9-8.5-34.6-33.4-38.9-38.8
			c-70.2,1.3-106.6-20.4-112.3-24.1l-3.7,0.2l-0.8,82.5c26.9,3.9,55.7-1.9,55.9-1.9l3.4-0.7l-0.3,3.4
			C462.1,575,454.2,595.8,451.5,602.9z"/>
	</g>
	<g>
		<path class="st2" d="M574.7,583.1c0,0,37.6,2.6,64.8,9.1c0.2,0,0.1,0.3-0.1,0.3c-11.7-1.4-62.1-7.4-68.4-6.3l2.7,0.2
			c0,0,56.7,5.5,82.6,12.8c0.2,0,0.1,0.3-0.1,0.2c-16.2-2.8-84.8-11.3-89.4-9.4l10.8,0.8l44.2,6.7c0,0-58.8-4.6-81.6-4
			c-0.3,0-0.4-0.4-0.1-0.5c6.8-1,18.5-2.7,21.5-2.9c4.4-0.3,8-3.8,8-3.8S573.7,581.4,574.7,583.1z"/>
		<path class="st3" d="M574.1,582.7c0.2,0,0.5,0.1,0.6,0.4c0,0,37.6,2.6,64.8,9.1c0.2,0,0.2,0.3,0,0.3c0,0,0,0,0,0
			c-10.7-1.3-53.7-6.4-65.8-6.4c-1.2,0-2,0-2.6,0.1l2.7,0.2c0,0,56.7,5.5,82.6,12.8c0.2,0,0.1,0.2,0,0.2c0,0,0,0,0,0
			c-14.6-2.6-71.8-9.7-86.3-9.7c-1.6,0-2.7,0.1-3.1,0.3l10.8,0.8l44.2,6.7c0,0-51-4-76.5-4c-1.9,0-3.6,0-5.1,0.1c0,0,0,0,0,0
			c-0.3,0-0.4-0.4-0.1-0.5c6.8-1,18.5-2.7,21.5-2.9c4.4-0.3,8-3.8,8-3.8S572.6,582.7,574.1,582.7 M574.1,581.3L574.1,581.3
			c-1.8,0-4.2,2.5-5.4,4.1c-0.5,0.4-3.6,3.1-7.1,3.4c-3.1,0.2-14.9,1.9-21.7,2.9c-0.9,0.1-1.5,0.9-1.5,1.8c0.1,0.9,0.8,1.6,1.7,1.6
			h0l0,0c1.5,0,3.2-0.1,5.1-0.1c25.1,0,75.8,4,76.3,4l0.3-2.8c14.7,1.8,28.2,3.7,34,4.7c0.1,0,0.2,0,0.3,0c0.8,0,1.5-0.6,1.6-1.4
			c0.1-0.8-0.4-1.5-1.2-1.8c-4.8-1.3-10.7-2.6-17.2-3.8c0.8,0,1.4-0.6,1.5-1.4c0.1-0.8-0.4-1.6-1.2-1.8c-25.2-6-59.7-8.8-64.5-9.1
			C575,581.4,574.6,581.3,574.1,581.3L574.1,581.3z"/>
	</g>
	<g>
		<path class="st2" d="M645.3,577.3c-1.3-2.2-3.9-6.5-0.7-9.4c0.4-0.4-6.8-1.5-7.2-0.3c-1.2,3.4-11.9,14.6-18.6,14.1
			c-6.8-0.6-4.4-5.9-4.4-5.9c3.3,0.6,11.4-1.2,13.3-4.3c1.9-3.1-0.2-10.1-8.8-7.9s-12.1,11.5-12.1,11.5s-3.4,4.3-8.5,3.7
			c-5-0.6-1.2-9.1-1.2-9.1c8.9-3.7,18-18.3,17-21.9c-0.5-1.9-8.4-0.9-10,0.7c-6.6,6.7-13.2,22.3-15.8,24.8c-2.6,2.6-7.6,3.5-8,3.8
			c-0.5,0.3,6.7-12.6,7.8-15.8c1.5-4.5-1-1.4-3.6-1.1c-2.6,0.3-6.6-5.9-14.2-2c-7.6,3.9-8.5,10.7-10.7,12.9c-2.2,2.3-4.4,2.6-6,1.9
			s5.4-12.4,6.3-14.6c0.8-2.1-0.2-3.1-3.2-1.4c-2.9,1.7-4.9,1-4.9,1c-1.6-3-7.8-4.2-12.8-0.2c-5.1,4-8,10-8,10l-6.4,1.8
			c-0.8,4.1-2.5,4.1-2.5,4.1c-6.9,2.1-18.5,0.2-18.5,0.2c6-4.2,9.5-13.2,9.5-13.2c9.5-0.1,16.5-2.9,14.3-3c-2.1,0-13.1-1-13.1-1
			l5.2-13.6c0,0,3.6-0.8,6,0c2.4,0.9,3.2,4.3,3.2,4.3l6.7-3.7c-2.1-4.7-11.3-6.1-36-0.1c-12.9,3.1-8.6,15.7-8.6,15.7l6.5-2.6
			c0,0-1-1.4-0.4-6.6c0.6-5.3,12.1-6.9,12.1-6.9s-1.1,6.5-2.8,11.2c-1.8,4.7-5.9,6.2-5.9,6.2s4.6-1.4,1,5.6
			c-3.5,7-11.6,11.2-11.6,11.2s22.1,1.2,28.6,1c6.3-0.3,11.8-6.8,12.1-7.2c-0.3,0.3-4.2,5.3,3.4,6.8c7.9,1.5,12.6-5.2,12.6-5.2
			s-2.5,6.4,4.4,6.3c6.9-0.2,9.4-6.3,9.4-6.3l0.9,2.1c5.2,6.4,11.9,0.4,12.7,0.9c-1.1,3.3-7.4,4.7-10,5s-3.8-0.4-5.3,0.5
			s-6.1,0.4-6.1,0.4c-20.5-0.6-51.3,2.9-62.9,4.3c-0.2,0-0.1,0.3,0,0.3c10-0.7,33.5-2.1,46.5-2c16.7,0.2,19.5-1.2,22-0.7
			c2.5,0.5-4.2,6.1,5.3,8s15.6-12,15.6-12l9.1-2.8c3.5,13,18.7,1,18.7,1s-1.1,7.9,8.8,7.9c9.9,0,20.8-11.7,20.8-11.7s0.7,0.9,1.6,3
			s2.6,6.7-2,8.1c-4.6,1.4-4.4-3.9-4.4-3.9l-5.3,2.8c0.4,4.3,7.3,4.5,11.4,3S646.6,579.5,645.3,577.3z M609.6,550.4
			c3.6,1.5-4.3,11.1-9.3,12.4C600.3,562.9,606,549,609.6,550.4z M549.7,563.9c-2.8,5.6-5.9,10.4-11.1,8.6c0,0-2.8-3.2,2.3-9.6
			S552.5,558.3,549.7,563.9z M561.7,588.3c-2.3-1.2-0.5-4,2.9-3.7c3.4,0.3,4.7-2.7,4.7-2.2C569.5,587.5,564,589.5,561.7,588.3z
			 M571,573.5c-5.3,0.5-1.2-7.2,2.2-11.1c0,0,2.3-3,5.8-1.2C582.5,563,576.2,573,571,573.5z M622.4,567.4c5.2,4.1-6.3,5.7-8.7,5.2
			C613.6,572.6,617.2,563.3,622.4,567.4z"/>
		<path class="st3" d="M524.6,539.9c6.5,0,9.6,1.6,10.8,4.1l-6.7,3.7c0,0-0.8-3.4-3.2-4.3c-0.8-0.3-1.8-0.4-2.7-0.4
			c-1.8,0-3.3,0.4-3.3,0.4l-5.2,13.6c0,0,11,1,13.1,1c2.1,0-4.9,2.9-14.3,3c0,0-3.5,9-9.5,13.2c0,0,4.8,0.8,10,0.8
			c2.9,0,6-0.2,8.5-1c0,0,1.7,0,2.5-4.1l6.4-1.8c0,0,2.9-6,8-10c2.3-1.8,4.8-2.6,7-2.6c2.7,0,5,1.1,5.8,2.8c0,0,0.4,0.2,1.2,0.2
			c0.9,0,2.2-0.2,3.7-1.1c1-0.6,1.8-0.9,2.4-0.9c1,0,1.3,0.9,0.7,2.3c-0.8,2.1-7.9,13.9-6.3,14.6c0.5,0.2,1,0.3,1.6,0.3
			c1.3,0,2.9-0.6,4.4-2.2c2.2-2.3,3.1-9,10.7-12.9c1.8-0.9,3.5-1.3,4.9-1.3c4.4,0,7.1,3.3,9.1,3.3c0.1,0,0.1,0,0.2,0
			c1.5-0.2,3.1-1.3,3.7-1.3c0.5,0,0.5,0.6-0.1,2.4c-1.1,3.2-8.1,15.8-7.8,15.8c0,0,0,0,0,0c0.5-0.3,5.4-1.3,8-3.8
			c2.6-2.6,9.2-18.2,15.8-24.8c1-1,4.4-1.7,6.9-1.7c1.6,0,2.9,0.3,3.1,1c1,3.7-8.1,18.3-17,21.9c0,0-3.8,8.5,1.2,9.1
			c0.3,0,0.6,0.1,1,0.1c4.5,0,7.5-3.8,7.5-3.8s3.5-9.3,12.1-11.5c1.1-0.3,2.1-0.4,3-0.4c6,0,7.4,5.6,5.7,8.3
			c-1.6,2.7-8,4.5-11.8,4.5c-0.6,0-1.1,0-1.5-0.1c0,0-2.3,5.3,4.4,5.9c0.2,0,0.3,0,0.5,0c6.8,0,16.9-10.8,18.1-14.1
			c0.2-0.4,1.1-0.6,2.3-0.6c2.2,0,5.3,0.6,5,0.8c-3.2,2.9-0.6,7.2,0.7,9.4c1.3,2.2-3.7,8.1-7.9,9.6c-1.5,0.5-3.3,0.8-5,0.8
			c-3.2,0-6.1-1.1-6.4-3.9l5.3-2.8c0,0-0.2,4.2,3,4.2c0.4,0,0.9-0.1,1.4-0.2c4.6-1.4,2.9-6,2-8.1c-0.9-2.1-1.6-3-1.6-3
			s-10.9,11.7-20.7,11.7c0,0,0,0,0,0c-9.9,0-8.8-7.9-8.8-7.9s-6.4,5.1-11.9,5.1c-2.9,0-5.6-1.5-6.8-6l-9.1,2.8
			c0,0-5.4,12.1-13.9,12.1c-0.6,0-1.2-0.1-1.8-0.2c-9.5-1.9-2.8-7.5-5.3-8c-0.4-0.1-0.8-0.1-1.2-0.1c-2.3,0-6,0.8-17.7,0.8
			c-1,0-2,0-3.1,0c-0.6,0-1.2,0-1.9,0c-13.2,0-35.1,1.4-44.6,2c0,0,0,0,0,0c-0.2,0-0.2-0.2,0-0.3c10.6-1.3,37.6-4.4,57.8-4.4
			c1.8,0,3.5,0,5.1,0.1c0,0,1.4,0.2,2.9,0.2c1.2,0,2.6-0.1,3.2-0.5c0.7-0.4,1.3-0.5,2-0.5c0.5,0,1.1,0,1.8,0c0.4,0,0.9,0,1.4-0.1
			c2.6-0.3,8.9-1.7,10-5c0,0-0.1,0-0.1,0c-0.8,0-3.6,2.1-6.8,2.1c-1.9,0-3.9-0.7-5.8-3l-0.9-2.1c0,0-2.5,6.1-9.4,6.3
			c-0.1,0-0.2,0-0.3,0c-6.5,0-4.1-6.3-4.1-6.3s-3.8,5.5-10.3,5.5c-0.7,0-1.5-0.1-2.3-0.2c-7.6-1.5-3.7-6.5-3.4-6.8
			c-0.3,0.4-5.8,7-12.1,7.2c-0.6,0-1.4,0-2.3,0c-8.3,0-26.2-1-26.2-1s8.1-4.2,11.6-11.2c2.5-5,0.9-5.7-0.2-5.7
			c-0.5,0-0.8,0.1-0.8,0.1s4.2-1.5,5.9-6.2c1.8-4.7,2.8-11.2,2.8-11.2s-11.5,1.6-12.1,6.9c-0.6,5.3,0.4,6.6,0.4,6.6l-6.5,2.6
			c0,0-4.3-12.6,8.6-15.7C510.8,541.1,519,539.9,524.6,539.9 M600.3,562.9c5-1.3,12.9-11,9.3-12.4c-0.2-0.1-0.4-0.1-0.6-0.1
			C605.5,550.3,600.3,562.9,600.3,562.9 M540.7,572.9c4,0,6.6-4.2,9-9c1.6-3.1,0.3-5-2.1-5c-1.9,0-4.5,1.2-6.7,4.1
			c-5.1,6.3-2.3,9.6-2.3,9.6C539.3,572.8,540,572.9,540.7,572.9 M570.5,573.5c0.1,0,0.3,0,0.5,0c5.3-0.5,11.5-10.5,8-12.3
			c-0.8-0.4-1.6-0.6-2.2-0.6c-2.2,0-3.6,1.8-3.6,1.8C569.9,566.2,566,573.5,570.5,573.5 M614.8,572.7c3.7,0,12.2-1.7,7.6-5.3
			c-0.9-0.7-1.8-1-2.6-1c-3.7,0-6.1,6.3-6.1,6.3C613.9,572.7,614.3,572.7,614.8,572.7 M565,584.6c-0.1,0-0.3,0-0.4,0
			c-0.2,0-0.3,0-0.5,0c-3.1,0-4.6,2.5-2.4,3.7c0.4,0.2,1,0.4,1.6,0.4c2.6,0,6.2-2.1,6-6.2c0,0,0-0.1,0-0.1
			C569,582.3,567.7,584.6,565,584.6 M524.6,538.4c-6.1,0-14.5,1.3-25.6,4c-4.2,1-7.2,3.1-8.9,6.2c-2.8,5.1-0.8,11.1-0.8,11.4
			l0.5,1.5l1.4-0.6l6.5-2.6l2.1-0.8l-1.4-1.4c-0.1-0.3-0.6-1.8-0.2-5.6c0.3-2.7,5.4-4.4,8.8-5.2c-0.5,2.3-1.3,5.9-2.4,8.8
			c-1.5,3.9-4.9,5.2-5.1,5.3l0.9,2.8c0,0,0.2-0.1,0.4-0.1c0,0,0,0,0.1,0c0,0.3,0,1.3-1.2,3.6c-3.3,6.5-10.9,10.5-11,10.6l-4.8,2.5
			l5.4,0.3c0.2,0,18.1,1,26.3,1c0.9,0,1.7,0,2.4,0c3.7-0.2,7.1-2.2,9.6-4.2c0,0,0,0.1,0,0.1c0.7,1.8,2.5,3.1,5.6,3.7
			c0.9,0.2,1.7,0.3,2.6,0.3c3.7,0,6.6-1.5,8.5-3.1c0.1,0.6,0.4,1.1,0.7,1.6c0.6,0.9,1.4,1.5,2.5,1.8c-0.2,0-0.4,0-0.5,0
			c-20.2,0-47.3,3.1-57.9,4.4c-0.8,0.1-1.5,0.8-1.4,1.7c0.1,0.8,0.8,1.5,1.6,1.5h0.1l0.1,0c8.9-0.6,31.2-2,44.5-2c0.6,0,1.3,0,1.9,0
			c1.1,0,2.1,0,3.1,0c8.2,0,12.5-0.4,15.2-0.6c1.1-0.1,1.9-0.2,2.6-0.2c0.1,0,0.1,0,0.2,0c0,0.1,0,0.1,0,0.1c-0.3,1.2-0.8,3,0.2,4.8
			c0.9,1.5,2.9,2.6,5.8,3.1c0.7,0.1,1.4,0.2,2,0.2c8.3,0,13.7-9.8,14.9-12.4l7.1-2.2c1.8,4.7,5.1,5.7,7.8,5.7
			c3.9,0,8.1-2.3,10.6-3.9c0.2,1.1,0.7,2.4,1.8,3.6c1.8,2,4.6,3.1,8.3,3.1c3.1,0,6.3-1.1,9.3-2.6c0.6,2.9,3.4,4.7,7.8,4.7
			c1.9,0,3.8-0.3,5.5-0.9c3.4-1.2,7.6-5.3,8.7-8.5c0.5-1.3,0.4-2.4-0.1-3.3l0-0.1c-1.6-2.6-3-5.6-1-7.5c0.5-0.4,0.6-1.1,0.4-1.7
			c-0.3-0.9-1.2-1.1-2.9-1.4c-1.2-0.2-2.5-0.3-3.5-0.3c-1.4,0-3.1,0.2-3.6,1.5c-1,2.9-10.7,13.1-16.8,13.1c-0.1,0-0.2,0-0.4,0
			c-1.1-0.1-2.6-0.4-3.2-1.3c-0.3-0.5-0.3-1-0.2-1.5c0.1,0,0.3,0,0.4,0c4,0,11-1.8,13-5.2c1.2-1.9,1.2-4.7-0.1-6.9
			c-0.8-1.4-2.7-3.7-6.9-3.7c-1.1,0-2.2,0.2-3.4,0.5c-8.5,2.2-12.4,10.6-13,12.2c-0.6,0.6-3,3.1-6.2,3.1c-0.3,0-0.5,0-0.8,0
			c-0.7-0.1-0.9-0.3-1-0.6c-0.7-1.2,0-4,0.8-6c5.7-2.6,10.4-8.7,12.3-11.2c2.9-4.1,5.8-9.4,5-12.2c-0.4-1.4-1.9-2.1-4.5-2.1
			c-2.4,0-6.5,0.7-8,2.2c-4.2,4.2-8.2,11.5-11.4,17.5c-1.8,3.4-3.5,6.5-4.4,7.4c-1.1,1.1-2.7,1.8-4.2,2.4c0.3-0.6,0.7-1.3,1-1.9
			c2.1-4,4.7-9,5.4-11c0.6-1.7,0.8-2.8,0.2-3.6c-0.3-0.5-0.9-0.7-1.5-0.7c-0.6,0-1.2,0.3-1.9,0.6c-0.6,0.3-1.4,0.7-2,0.7
			c0,0,0,0,0,0c-0.4,0-1.3-0.5-2.1-1c-1.7-1-4-2.3-7.1-2.3c-1.8,0-3.7,0.5-5.6,1.5c-5.8,3-8,7.5-9.5,10.5c-0.6,1.2-1.1,2.2-1.6,2.7
			c-1.1,1.1-2.3,1.8-3.3,1.8c-0.1,0-0.1,0-0.2,0c0.6-2,3.2-6.9,4.4-9.1c1-1.8,1.6-3.1,1.9-3.8c0.7-1.7,0.3-2.7,0-3.3
			c-0.4-0.7-1.2-1-2.1-1c-0.9,0-1.9,0.4-3.2,1.1c-1.3,0.8-2.3,0.9-2.9,0.9c-0.1,0-0.2,0-0.3,0c-1.3-1.8-3.8-2.9-6.7-2.9
			c-2.8,0-5.6,1-7.9,2.9c-4.4,3.5-7.2,8.2-8.1,9.9l-5.8,1.7l-0.9,0.2l-0.2,0.9c-0.4,2-1,2.8-1.3,2.9l0,0l-0.2,0.1
			c-2,0.6-4.7,0.9-8,0.9c-2.4,0-4.8-0.2-6.5-0.4c3.7-3.7,6.1-8.7,7-10.7c4.5-0.1,8-0.8,9.8-1.3c1.3-0.3,2.4-0.7,3.3-1
			c0.8-0.3,2.1-0.8,2.1-2c0-0.6-0.4-1.6-1.8-1.6c-1.5,0-7.8-0.6-11.1-0.8l4.2-11c0.6-0.1,1.4-0.2,2.3-0.2c0.9,0,1.6,0.1,2.2,0.3
			c1.3,0.5,2.1,2.5,2.3,3.3l0.5,1.9l1.7-0.9l6.7-3.7l1.2-0.7l-0.6-1.2C535.2,540.1,531.3,538.4,524.6,538.4L524.6,538.4z
			 M603.6,559.3c0.3-0.7,0.7-1.3,1.1-2c2.8-5.1,4.2-5.5,4.4-5.5c0,0.2-0.1,0.8-0.6,1.8C607.4,555.6,605.5,557.7,603.6,559.3
			L603.6,559.3z M539.5,571.3c-0.4-0.8-0.9-3.2,2.5-7.4c2.1-2.6,4.2-3.5,5.6-3.5c0.3,0,0.9,0.1,1.2,0.5c0.3,0.5,0.1,1.4-0.4,2.4
			c-2.5,4.9-4.7,8.2-7.7,8.2C540.3,571.5,539.9,571.4,539.5,571.3L539.5,571.3z M570.5,572.1c-0.4,0-0.5-0.1-0.5-0.1
			c-0.1-0.1-0.2-1.1,0.8-3.3c0.8-1.7,2.1-3.8,3.5-5.4l0,0l0,0c0,0,1-1.2,2.4-1.2c0.5,0,1,0.1,1.6,0.4c0.4,0.2,0.2,1.1,0.2,1.3
			c-0.6,3.2-4.6,7.9-7.6,8.2C570.7,572.1,570.6,572.1,570.5,572.1L570.5,572.1z M616,571.2c0.9-1.6,2.3-3.4,3.8-3.4
			c0.5,0,1.1,0.2,1.7,0.7c0.6,0.4,0.7,0.7,0.8,0.8C621.8,570.1,618.9,571,616,571.2L616,571.2z M552.8,580.4
			c3.4-0.7,5.6-2.7,6.9-4.4c1.4,1.7,3.1,2.8,5,3.2c-0.5,0.1-1,0.2-1.4,0.2c-0.4,0-0.8,0.1-1.3,0.1c-0.3,0-0.7,0-1,0
			c-0.3,0-0.6,0-0.8,0c-0.8,0-1.7,0.1-2.8,0.7c0,0-0.5,0.3-2.5,0.3C554.2,580.5,553.3,580.4,552.8,580.4L552.8,580.4z M632.8,579
			c1.2-1,2.2-1.9,3-2.7c0.2,0.3,0.3,0.7,0.5,1.2c0.3,0.8,1.4,3.3,0.7,4.8c-0.3,0.6-0.9,1-1.8,1.3c-0.4,0.1-0.7,0.2-1,0.2
			c-0.5,0-0.7-0.2-0.8-0.3c-0.5-0.6-0.7-1.9-0.7-2.4L632.8,579L632.8,579z M565,586.1c0.5,0,1-0.1,1.4-0.2c-0.9,0.8-2,1.2-3.1,1.2
			c-0.4,0-0.7-0.1-0.9-0.2c-0.1-0.1-0.2-0.1-0.2-0.2c0.1-0.2,0.7-0.8,2-0.8c0.1,0,0.2,0,0.4,0C564.6,586.1,564.8,586.1,565,586.1
			L565,586.1z"/>
	</g>
</g>
</svg>
