<?xml version="1.0" encoding="utf-8"?>
<!-- Generator: Adobe Illustrator 27.7.0, SVG Export Plug-In . SVG Version: 6.00 Build 0)  -->
<svg version="1.1" id="레이어_1" xmlns="http://www.w3.org/2000/svg" xmlns:xlink="http://www.w3.org/1999/xlink" x="0px"
	 y="0px" viewBox="0 0 1080 1013.3" style="enable-background:new 0 0 1080 1013.3;" xml:space="preserve">
<style type="text/css">
	.st0{clip-path:url(#SVGID_00000085223608878606664670000015962999750574332346_);}
	.st1{fill:#D54B33;}
	.st2{fill:#22232A;}
	.st3{fill:#04060A;}
	.st4{fill:none;}
	.st5{fill:#ED7F4F;}
</style>
<g id="_x34_">
	<g>
		<defs>
			<path id="SVGID_1_" d="M781.8,396.4l-44.2-96.7c-14.2,4.9-46.6,19.1-46.6,19.1s-3.9,69.7-13.7,106s-65.8,57.9-65.8,57.9
				c-20.1,30.4-52.3,52.7-52.3,52.7c-17.7-13.7-37.3-40.2-37.3-40.2c-82.2,1.2-107.5-23.5-107.5-23.5L401,472l-1.5,86.8
				c20.1,4.9,58.4-0.5,58.4-0.5c-1,24.5-13,45.9-13,45.9c23.6,9.8,107.9,26.5,107.9,26.5C698.4,656.5,770.5,655,770.5,655
				c26.5-158.5-18.6-245.3-18.6-245.3L781.8,396.4z"/>
		</defs>
		<use xlink:href="#SVGID_1_"  style="overflow:visible;fill:#EFEADC;"/>
		<clipPath id="SVGID_00000050624247241325147770000014103279754525736074_">
			<use xlink:href="#SVGID_1_"  style="overflow:visible;"/>
		</clipPath>
		<g style="clip-path:url(#SVGID_00000050624247241325147770000014103279754525736074_);">
			<polygon class="st1" points="396,470.9 395.1,569.5 414.8,569.5 414.4,465.5 			"/>
			<polygon class="st2" points="406,567 406.5,449.8 410.4,452.2 410.9,569.4 			"/>
			<path class="st1" d="M510.4,493.4c0,0.5,23.8,36.2,48.3,51.4l5.5-20L526.9,489L510.4,493.4z"/>
		</g>
		<g style="clip-path:url(#SVGID_00000050624247241325147770000014103279754525736074_);">
			<polygon class="st1" points="721.4,302.5 772.4,409.9 797.4,407.5 750.3,277.9 			"/>
			<polygon class="st2" points="726.7,300.5 774.8,403.5 778.7,401.6 729.1,293.6 			"/>
			<path class="st1" d="M558.7,544.8l0.8-25l56.9-51l13.2-0.5C629.6,468.3,604.3,521.2,558.7,544.8z"/>
		</g>
	</g>
	<path class="st3" d="M768.7,657.2c-12.4,0-84.9-1.1-216.1-24.3c-0.8-0.1-84.9-16.8-108.4-26.6l-2.3-1l1.2-2.2
		c0.1-0.2,10.9-19.7,12.6-42.3c-9.1,1.1-39.1,4.4-56.6,0.1l-1.7-0.4l1.5-90.8l16.5-0.3l0.7,0.6c0.1,0.1,6.4,6.1,22.6,11.9
		c14.9,5.4,41.5,11.6,83.3,11l1.1,0l0.7,0.9c0.2,0.3,18.7,25.1,35.6,38.8c6.2-4.6,33-25,50.3-51.2l0.4-0.6l0.7-0.3
		c0.5-0.2,55-21.6,64.4-56.4c9.6-35.7,13.6-104.8,13.7-105.5l0.1-1.4l1.2-0.5c0.3-0.1,32.6-14.3,46.8-19.2l1.9-0.7l45.9,100.5
		l-29.9,13.2c3,6.4,11.8,27.2,18.4,61.7c4.7,24.2,7.2,50.2,7.7,77.3c0.6,33.8-2.2,69.3-8.3,105.6l-0.3,1.8l-1.8,0
		C770.5,657.2,769.9,657.2,768.7,657.2z M448.1,603.1c26,9.8,104.5,25.3,105.3,25.5c130.9,23.2,203.1,24.3,215.3,24.3c0,0,0,0,0,0
		c13.2-80.6,7.5-142.1,0.3-179.5c-7.8-40.7-18.9-62.4-19.1-62.6l-1.1-2.1l30-13.3l-42.4-92.8c-13.1,4.7-37.6,15.3-43.3,17.9
		c-0.6,9.9-4.7,71.8-13.7,105.1c-4.2,15.6-16.8,30.3-37.5,43.8c-13.5,8.8-26,14.1-28.9,15.3c-20.2,30.2-52.2,52.6-52.5,52.8
		l-1.3,0.9l-1.3-1c-16.1-12.5-33.4-34.9-37-39.8c-42.1,0.5-69-5.9-84.2-11.4c-14-5.1-20.9-10.3-23-12.1l-10.5,0.2l-1.4,82.9
		c19.9,4.1,55.5-0.9,55.8-0.9l2.6-0.4l-0.1,2.6C459.4,578.9,451.2,596.9,448.1,603.1z"/>
	<path id="XMLID_00000078046170598380795870000012823544406695519632_" class="st4" d="M559.3,535.5"/>
	<g>
		<path class="st2" d="M643.9,568.4c-0.2-1.5-1.2-2.3-2.4-2.7c-1.2-0.3-2.6-0.1-3.4,0.5c-0.8,0.6-2.6,2.2-5,4.3
			c-2.4,2.1-5.4,4.9-8.6,7.7c-3.2,2.8-7.1,5-10.5,6.1c-3.4,1.1-6.5,1.1-7.9-0.3c-1.4-1.3-1.3-3-0.9-4.4s1.2-2.4,1.2-2.4
			c3.7,1.2,7.7,1.4,11.1,0.8c3.4-0.6,6.2-2.2,7.5-4.4c1.3-2.2,1.5-4.7,0.4-6.6c-1.1-2-3.6-3.4-7.8-3.8c-4.2-0.3-8.4,2-12.1,5.2
			c-3.7,3.2-6.7,7.2-8.6,10.2c-1.9,3-4.1,4.5-5.8,5c-1.6,0.4-2.7-0.2-2.1-1.8c0.5-1.6,6.8-10.4,12.9-18.7s12.1-16.4,12.1-16.4
			l-3.8-0.4l-3.8-0.4c0,0-5,7-10.5,14.6c-5.5,7.6-11.6,15.8-13.9,18.1s-4.3,3.4-5.8,4c-1.5,0.6-2.4,0.5-2.4,0.5l6.8-10.3l6.8-10.3
			c0,0-1.2-0.2-2.5-0.4s-2.8-0.5-3.6-0.5s-1.5,0.4-2,0.9s-1,0.9-1,0.9c-7.1-4.8-13.4-3.1-18.3,0.2s-8.3,8.5-9.6,10.8
			c-1.3,2.2-3.1,4.6-4.7,6c-1.7,1.4-3.2,2-4,0.6c-0.8-1.3,2.2-6.7,5.3-11.7c3.2-5,6.5-9.6,6.5-9.6s-0.4,0.1-1.1,0.1
			c-0.7,0-1.7,0.1-3,0c-1.3,0-2.5,0.5-3.3,0.9s-1.4,1-1.4,1s-1.3-1.2-3.6-2c-2.3-0.8-5.6-1.2-9.7,0.4c-4.1,1.5-7.3,4.7-9.8,8
			s-4.3,6.5-5.6,8.2c-1.3,1.7-3.2,3.5-5.4,4.9s-4.6,2.5-6.8,2.6c-2.2,0.2-4.9,0.4-7,0.6c-2.2,0.2-3.8,0.4-3.8,0.4
			c3.7-2.1,6.6-6.5,8.7-10.4c2-3.9,3.2-7.2,3.2-7.2s0.3-0.1,1.3-0.1c1,0,2.6,0,5.2,0.3c2.7,0.2,4.1-0.8,4.8-2
			c0.7-1.1,0.8-2.3,0.8-2.3l-5.2,0.4l-5.2,0.4l4.7-8.5l4.7-8.5c0,0,0.3-0.5,1.4-0.9c1.1-0.4,2.9-0.6,6-0.2c3,0.5,4.7,2.5,5.7,4.5
			c0.9,1.9,1.1,3.8,1.1,3.8l1.2-6.5l1.2-6.5c0,0-2.5,0.2-6,0.3c-3.4,0.2-7.8,0.4-11.4,0.5c-3.6,0.1-9.5,0.4-15.1,1.9
			c-5.5,1.5-10.7,4.1-12.7,8.9c-2,4.8-1,8.7,0.5,11.5c1.5,2.8,3.6,4.3,3.6,4.3c-2.8-10.5,0.9-16,5.3-18.8c4.4-2.8,9.5-2.9,9.5-2.9
			s-0.9,1-2.3,3.5s-3.3,6.6-5.2,12.9c-2,6.2-3.9,10.9-5.8,14.5s-3.6,5.9-5.1,7.4c-1.5,1.5-2.4,2.9-2.8,4c-0.5,1.1-0.6,1.7-0.6,1.7
			s2.9-0.3,6.8-0.7c3.9-0.4,8.9-1,13.2-1.5s7.3-2.8,9.3-5c2-2.2,2.9-4.2,2.9-4.2s-0.3,1.6,0.2,3.2s2,3.4,5.4,3.9
			c3.5,0.4,6.7-1.3,9-3.2c2.4-1.9,3.9-3.9,3.9-3.9c-0.4,1.2-0.6,3.1,0,4.6c0.6,1.6,2.1,2.8,5,2.6s5.3-1.9,6.9-3.6s2.6-3.4,2.6-3.4
			c0.2,6.7,4,7.6,7.8,6.7c3.8-0.9,7.6-3.4,7.6-3.4s-0.6,1.3-1.9,3c-1.3,1.7-3.2,3.8-5.9,5.4c-2.7,1.6-5.4,1.4-7.4,0.9
			c-2-0.6-3.3-1.5-3.3-1.5c-0.2,2.4,1.4,4.7,3.8,6.2c2.4,1.5,5.7,2.2,8.9,1.3c3.2-0.9,6.2-3.7,8.4-6.2c2.2-2.5,3.5-4.8,3.5-4.8
			c1.9,0.3,4.3-0.6,6.2-1.6s3.3-2.1,3.3-2.1c2.5,6,6.6,5.9,10.2,4.3c3.5-1.6,6.5-4.7,6.5-4.7c0.1,2.3,1.3,4.4,3.9,5.6
			c2.6,1.2,6.5,1.4,12.1,0.1s11.5-5.4,16.1-9.1c4.5-3.8,7.7-7.2,7.7-7.2s0.3,2.7,0.1,5.6c-0.2,3-1,6.3-3.1,7.6
			c-2.2,1.3-4.1,0.9-5.4,0.2c-1.4-0.7-2.2-1.8-2.2-1.8c-0.5,1.9,0,4.3,1.6,6c1.6,1.7,4.4,2.6,8.5,1.3c4.2-1.2,6.1-6.3,6.9-11.3
			C644.4,575,644.1,569.9,643.9,568.4z M620.7,571.2c-1.6,2.6-4.8,3.4-7.5,3.7c-2.7,0.2-5-0.2-5-0.2c3.3-4.6,7.3-6.7,10-7.1
			S622.3,568.6,620.7,571.2z M525.1,581.5c-1.1-0.5-1.5-2.4-0.7-5c0.8-2.6,2.9-6,6.6-9.5s6.5-3.9,8.4-3.5s2.8,1.7,2.8,1.7
			c-2.3,4.1-5.7,8.6-9,11.9C530,580.4,526.9,582.4,525.1,581.5z M557.7,581.1c-1.4-2.3,0.6-6,3.5-9.3c2.8-3.3,6.5-6.2,8.5-6.8
			c1.7-0.6,3.2-0.1,4.3,0.5c1.1,0.6,1.8,1.3,1.8,1.3c-2.1,3.2-5.8,8.1-9.4,11.6S559.3,583.8,557.7,581.1z"/>
		<g>
			<path class="st2" d="M486.8,534.8c-0.1,0-0.2-0.1-0.3-0.1c-0.1-0.1-0.1-0.2-0.1-0.3l0-3.1l0-3.1c0-0.1,0.1-0.2,0.1-0.3
				c0.1-0.1,0.2-0.1,0.3-0.1c0.1,0,0.2,0.1,0.3,0.1c0.1,0.1,0.1,0.2,0.1,0.3l0,3.1l0,3.1c0,0.1-0.1,0.2-0.1,0.3
				C487,534.7,486.9,534.8,486.8,534.8z"/>
			<path class="st2" d="M492.1,534.8c-0.1,0-0.2,0-0.3-0.1s-0.1-0.2-0.1-0.3l-0.1-3.3l-0.1-3.3c0-0.1,0-0.2,0.1-0.3
				c0.1-0.1,0.2-0.1,0.3-0.1c0.1,0,0.2,0,0.3,0.1c0.1,0.1,0.1,0.2,0.1,0.3l0.1,3.3l0.1,3.3c0,0.1,0,0.2-0.1,0.3
				C492.4,534.8,492.3,534.8,492.1,534.8C492.2,534.8,492.2,534.8,492.1,534.8C492.2,534.8,492.2,534.8,492.1,534.8z"/>
			<path class="st2" d="M486.7,530.9c-0.1,0-0.2,0-0.2-0.1s-0.1-0.1-0.1-0.2c0-0.1,0-0.2,0.1-0.2s0.1-0.1,0.2-0.1l2.6,0l2.6,0
				c0.1,0,0.2,0,0.2,0.1s0.1,0.1,0.1,0.2c0,0.1,0,0.2-0.1,0.2s-0.1,0.1-0.2,0.1l-2.6,0L486.7,530.9
				C486.7,530.9,486.7,530.9,486.7,530.9C486.7,530.9,486.7,530.9,486.7,530.9z"/>
			<path class="st2" d="M495.9,533.9c-0.2,0-0.4,0-0.6-0.1c-0.2-0.1-0.4-0.2-0.5-0.3c-0.2-0.1-0.3-0.3-0.4-0.6
				c-0.1-0.2-0.1-0.5-0.1-0.8c0-0.2,0-0.4,0.1-0.5c0.1-0.2,0.2-0.3,0.3-0.4c0.5-0.4,1.3-0.6,2.1-0.7c0.8-0.1,1.6,0,2,0
				c0,0,0-0.1,0-0.1c0,0,0-0.1,0-0.1c0-0.1,0-0.1-0.1-0.2s-0.1-0.1-0.1-0.2c-0.4-0.3-1.1-0.3-1.9-0.3c-0.8,0-1.5,0.1-1.9,0.2
				c-0.1,0-0.2,0-0.3,0s-0.1-0.1-0.1-0.2c0-0.1,0-0.2,0-0.3s0.1-0.1,0.2-0.1c0.2,0,1-0.2,1.9-0.2s1.9,0,2.5,0.4
				c0.1,0.1,0.3,0.2,0.3,0.4c0.1,0.1,0.1,0.3,0.2,0.4c0,0.1,0,0.1,0,0.2c0,0.1,0,0.1,0,0.2c0.1,0.4,0.1,0.8,0.1,1.3
				s-0.1,0.9-0.5,1.3c-0.2,0.3-0.6,0.5-1,0.6s-0.9,0.2-1.6,0.2c0,0-0.1,0-0.1,0s-0.1,0-0.1,0c-0.1,0-0.2,0-0.2,0
				C496.1,533.9,496,533.9,495.9,533.9z M498.1,531.2c-0.5,0-1.1,0-1.6,0.1c-0.5,0.1-1,0.2-1.3,0.5c-0.1,0.1-0.1,0.1-0.2,0.2
				c0,0.1-0.1,0.2-0.1,0.2c0,0.2,0,0.4,0.1,0.5c0,0.1,0.1,0.3,0.2,0.3c0.1,0.1,0.3,0.2,0.5,0.2s0.4,0,0.6,0c0.1,0,0.1,0,0.2,0
				c0,0,0.1,0,0.1,0c0.5,0,0.9,0,1.3-0.1c0.3-0.1,0.6-0.2,0.8-0.4c0.2-0.2,0.2-0.4,0.3-0.7c0-0.2,0-0.5,0-0.8c-0.1,0-0.2,0-0.4,0
				S498.2,531.2,498.1,531.2z"/>
			<path class="st2" d="M505.6,533.4c-0.1,0-0.2-0.1-0.3-0.1c-0.1-0.1-0.1-0.2-0.1-0.3c0-0.1,0-0.1,0-0.2c0-0.1,0-0.2,0-0.2
				c0-0.6,0-1.3,0-1.9c-0.1-0.6-0.2-1.2-0.6-1.5c-0.1-0.1-0.2-0.2-0.4-0.3c-0.2-0.1-0.3-0.1-0.5-0.1c-0.8,0-1.3,0.3-1.6,0.6
				c-0.3,0.3-0.4,0.7-0.4,0.8l0,1.4l0,1.4c0,0.1-0.1,0.2-0.1,0.3c-0.1,0.1-0.2,0.1-0.3,0.1c-0.1,0-0.2-0.1-0.3-0.1
				c-0.1-0.1-0.1-0.2-0.1-0.3l0-1.5l0-1.5c0.1-0.4,0.3-0.9,0.7-1.4c0.5-0.4,1.2-0.8,2.2-0.8c0.3,0,0.6,0.1,0.9,0.2
				c0.3,0.1,0.5,0.3,0.7,0.5c0.5,0.5,0.7,1.1,0.8,1.9c0.1,0.7,0.1,1.5,0.1,2.2c0,0.1,0,0.2,0,0.2c0,0.1,0,0.1,0,0.2
				c0,0.1-0.1,0.2-0.1,0.3C505.8,533.4,505.7,533.4,505.6,533.4z"/>
			<path class="st2" d="M509.6,533c-0.3,0-0.6-0.1-0.8-0.2c-0.3-0.1-0.5-0.3-0.7-0.5c-0.6-0.7-0.7-1.7-0.8-2.6
				c0-0.9,0.1-1.6,0.1-1.7c0-0.1,0.1-0.2,0.2-0.3c0.1-0.1,0.2-0.1,0.3-0.1c0.1,0,0.2,0.1,0.3,0.2s0.1,0.2,0.1,0.3
				c-0.1,0.4-0.1,1-0.1,1.7s0.2,1.4,0.5,1.8c0.1,0.1,0.2,0.2,0.4,0.3s0.3,0.1,0.5,0.1c0.3,0,0.6,0,0.8-0.1c0.2-0.1,0.4-0.2,0.6-0.4
				c0.2-0.2,0.3-0.6,0.4-0.8c0-0.3,0-0.4,0-0.4l0.4,0l0.4,0c0,0.1,0.1,0.4,0.2,0.8s0.5,0.6,1.1,0.7c0.7,0,1.2-0.1,1.4-0.7
				c0.3-0.6,0.4-1.7,0.4-3.7c0-0.1,0.1-0.2,0.1-0.3c0.1-0.1,0.2-0.1,0.3-0.1c0.1,0,0.2,0.1,0.3,0.1c0.1,0.1,0.1,0.2,0.1,0.3
				c0,1.8-0.1,3.1-0.4,4c-0.4,0.9-1,1.3-2.3,1.3c-0.4,0-0.7-0.1-1-0.2c-0.3-0.1-0.5-0.3-0.7-0.6c0,0.1-0.1,0.2-0.1,0.2
				c-0.1,0.1-0.1,0.1-0.2,0.2c-0.2,0.3-0.5,0.5-0.9,0.6C510.4,532.9,510,533,509.6,533z"/>
			<path class="st2" d="M511.8,531c-0.1,0-0.2-0.1-0.3-0.1c-0.1-0.1-0.1-0.2-0.1-0.3l0-1.3l0-1.3c0-0.1,0.1-0.2,0.1-0.3
				c0.1-0.1,0.2-0.1,0.3-0.1c0.1,0,0.2,0.1,0.3,0.1s0.1,0.2,0.1,0.3l0,1.3l0,1.3c0,0.1-0.1,0.2-0.1,0.3C512.1,531,512,531,511.8,531
				z"/>
			<path class="st2" d="M518.1,532.6c-0.1,0-0.2,0-0.3-0.1c-0.1-0.1-0.1-0.2-0.1-0.3l0-2.9l0-2.9c0-0.1,0.1-0.2,0.1-0.3
				c0.1-0.1,0.2-0.1,0.3-0.1c0.1,0,0.2,0,0.3,0.1s0.1,0.2,0.1,0.3l0,0.9l0,0.9c0.1-0.1,0.2-0.2,0.2-0.3s0.2-0.2,0.3-0.3
				c0.2-0.2,0.5-0.3,0.7-0.4c0.3-0.1,0.5-0.1,0.8-0.1c1.4,0.1,2.1,1.3,2.4,2.4s0.2,2.3,0.2,2.3c0,0.1-0.1,0.2-0.1,0.3
				c-0.1,0.1-0.2,0.1-0.3,0.1c-0.1,0-0.2-0.1-0.3-0.1c-0.1-0.1-0.1-0.2-0.1-0.3c0,0,0-0.9-0.2-1.9c-0.2-0.9-0.6-1.9-1.6-2
				c-0.2,0-0.3,0-0.5,0c-0.1,0-0.3,0.1-0.4,0.2c-0.4,0.4-0.7,1-0.9,1.8c-0.2,0.7-0.2,1.5-0.2,2l0,0v0c0,0.1-0.1,0.2-0.1,0.3
				S518.2,532.6,518.1,532.6z"/>
			<path class="st2" d="M526.8,532.7c-0.5,0-0.9-0.1-1.2-0.1c-0.3-0.1-0.6-0.2-0.8-0.4c-0.2-0.2-0.3-0.5-0.4-0.7
				c-0.1-0.3-0.1-0.5-0.1-0.8c0-0.8,0.6-1.1,1.5-1.3c0.9-0.2,2.1-0.2,3.4-0.2c0-0.1,0-0.2-0.1-0.3c0-0.1-0.1-0.2-0.1-0.3
				c-0.2-0.6-1-0.8-1.9-0.8c-0.9,0-1.8,0.1-2.3,0.2c-0.1,0-0.2,0-0.3-0.1s-0.2-0.2-0.2-0.3c0-0.1,0-0.2,0.1-0.3
				c0.1-0.1,0.2-0.2,0.3-0.2c0.2,0,1.4-0.3,2.5-0.2c1.2,0.1,2.3,0.4,2.7,1.4c0.2,0.7,0.3,1.3,0.3,1.9s-0.2,1-0.4,1.4
				c-0.2,0.3-0.5,0.6-0.8,0.7c-0.4,0.2-0.8,0.3-1.3,0.3c-0.2,0-0.3,0-0.5,0C527.1,532.7,527,532.7,526.8,532.7z M529.4,530
				c-0.9,0-1.9,0-2.7,0.1c-0.8,0.1-1.4,0.2-1.4,0.6c0,0.2,0,0.4,0,0.6s0.1,0.2,0.2,0.3c0.1,0.1,0.4,0.2,0.8,0.3c0.4,0,0.9,0,1.5,0
				c0.3,0,0.6-0.1,0.9-0.2s0.4-0.3,0.6-0.5c0.1-0.1,0.2-0.3,0.2-0.5S529.4,530.2,529.4,530z"/>
		</g>
		<g>
			<g>
				<g>
					<path class="st5" d="M606.6,606.2c0,0,0.1-1.2,0.2-2.5c0.2-1.3,0.5-2.8,0.9-3.4c0.6-0.9,1.7-1.7,2.6-2.2s1.7-0.8,1.8-0.6
						c0.1,0.1,0,0.4-0.3,0.9c-0.3,0.5-0.7,1.2-1.2,2c-0.2,0.3-0.3,0.5-0.4,0.8s-0.2,0.6-0.2,0.9l-0.4,7.1l-0.4,7.1
						c0,0.4-0.1,0.8-0.2,1.1c-0.1,0.4-0.3,0.7-0.5,1.1c-0.3,0.6-0.8,1.2-1.5,1.8c-0.7,0.6-1.7,1-3.1,1.2c-0.1,0-0.2,0-0.2-0.1
						c0-0.1,0-0.1,0-0.2c0.3-0.3,0.8-0.9,1.2-1.4c0.4-0.5,0.7-1,0.8-1.3c0.1-0.3,0.3-1.6,0.3-2.8c0.1-1.2,0.1-2.3,0.1-2.3
						s-0.3,0-0.7,0.2c-0.4,0.2-1,0.5-1.7,1c-0.6,0.5-0.5,0-0.1-0.8c0.5-0.8,1.4-1.8,2.6-2.3l0.1-1.7l0.1-1.7c0,0-0.3,0.1-0.8,0.4
						s-1.2,0.8-2.1,1.5c-0.1,0.1-0.2-0.3,0.2-0.9C604.1,608.4,604.9,607.4,606.6,606.2z"/>
				</g>
				<g>
					<g>
						<path class="st5" d="M629.3,608.8c-0.2-0.2-1.1,0.4-1.8,1c-0.7,0.6-1.3,1.1-1.1,0.5c0.3-0.6,1.1-1.3,1.9-2.2
							c0.8-0.9,1.5-2.1,1.4-3.6c0-1.5-0.5-2.9-1.2-3.9s-1.3-1.8-1.8-2s-1.2,0.2-1.9,0.9s-1.4,1.6-1.8,2.1c-0.4,0.6-0.6,1.4-0.7,2.2
							s-0.2,1.8-0.2,2.6c0,0.8-0.4,1.4-0.7,1.7s-0.6,0.5-0.6,0.5s0.2-1.1,0.2-2.5s-0.2-3.2-1-4.5c-0.7-1.3-1.6-2.3-2.3-2.9
							c-0.7-0.6-1.3-0.8-1.5-0.6s-1.6,1.1-2.7,2.2c-1.2,1-2.1,2.1-1.7,2.7c0.2,0.3,0.3,0.9,0.4,1.5c0,0.6,0,1.3-0.1,2
							c-0.1,0.5-0.2,1-0.4,1.5s-0.4,0.9-0.7,1.4c-0.5,0.8-0.7,1.4-0.6,1.7c0,0.3,0.2,0.3,0.5-0.1c0.4-0.6,0.9-0.9,1.5-1.2
							c0.6-0.3,1.3-0.4,2.1-0.5c0.6-0.1,1.4-0.5,2.1-1c0.7-0.5,1.4-1.1,1.8-1.4c0.1-0.1,0.2-0.1,0.3,0c0.1,0,0.2,0.1,0.1,0.2
							c-0.2,4.6-2.2,8.4-4,11c-1.7,2.6-3.2,3.9-2.1,3.5c1.1-0.4,2.3-1.5,3.4-2.9c1.1-1.4,2.2-3.2,3-4.9c0.8-1.7,1.2-2.7,1.5-3.3
							c0.3-0.6,0.6-0.9,1.1-1.2s1-0.8,1.5-1.1c0.4-0.3,0.7-0.3,0.7,0.3s-0.5,1.1-1.1,1.8s-1.4,1.4-1.9,2.5c-0.5,1-0.8,2.5-0.9,4.1
							c-0.1,1.5,0.2,3.1,0.7,4.3c0.5,1.2,1.2,1.5,2,1.3c0.8-0.2,1.8-0.8,2.9-1.5c1.1-0.6,1.6-1.4,1.8-2.1c0.2-0.6,0.2-1.1,0.2-1.1
							s0-1,0-2.2c0-1.2,0.1-2.6,0.3-3.4c0.2-0.8,0.6-1.5,0.9-2C629.2,609.4,629.5,609,629.3,608.8z M617.8,605.4
							c-0.4,0.3-1.3,0.9-2.1,1.3c-0.9,0.4-1.7,0.6-1.9,0.4c-0.3-0.3-0.2-1.3,0-2.3s0.5-2.1,0.6-2.7c0-0.2,0.1-0.3,0.3-0.3
							c0.1-0.1,0.3-0.1,0.4,0c1.2,0.4,2.1,1.2,2.5,1.9C618.1,604.3,618.2,605,617.8,605.4z M623.9,604.5c0-0.9,0-1.8,0.2-2.3
							c0.2-0.5,0.6-0.8,1.5-0.4s1.5,1,1.8,1.6c0.3,0.6,0.2,1.2-0.3,1.5c-0.5,0.3-1.1,0.6-1.7,0.8c-0.5,0.2-0.9,0.3-0.9,0.3
							s-0.2,0.1-0.3,0C624,605.8,623.9,605.5,623.9,604.5z M621.5,614.6c-0.2-0.1-0.1-0.5,0.3-1.2c0.4-0.7,1.3-1.8,2.5-3.3
							c1.2-1.6,2-2.7,2.5-3.4c0.5-0.7,0.7-1,1-0.9c0.5,0.3-1,2.5-2.6,4.7S621.7,614.8,621.5,614.6z M625.5,619c-0.5,0.2-1,0.1-1.4,0
							c-0.4-0.1-0.7-0.3-0.7-0.3s-0.6-0.3-1-0.8s-0.8-1.2-0.2-2c0.5-0.8,1.4-1.8,2.3-2.5c0.9-0.7,1.7-1.2,2.1-1
							c0.3,0.3,0.3,1.8,0.1,3.4S626,618.8,625.5,619z"/>
					</g>
				</g>
				<g>
					<path class="st5" d="M630.4,613.8c-0.2,0-0.3-0.1-0.4-0.2c-0.1-0.1-0.1-0.3,0-0.5c0.1-0.2,0.3-0.6,0.4-1.1
						c0.1-0.5,0.2-1,0.3-1.8c0.1-1.4,0.1-3.4,0.3-5.1c0.2-1.8,0.4-3.3,0.9-3.9c0.5-0.6,1-1.2,1.5-1.7c0.5-0.4,1.1-0.6,1.6-0.3
						c0.6,0.4,0.8,0.7,1,1c0.2,0.2,0.4,0.4,1,0.3c0.6-0.1,0.9,0.1,0.8,0.4c-0.1,0.3-0.7,0.8-2,1.3c0,0-0.2,0.1-0.4,0.3
						c-0.2,0.2-0.4,0.6-0.4,1l0,0.6l0,0.6c0,0.3,0.1,0.6,0.2,0.9s0.3,0.5,0.6,0.6c0.6,0.3,1.3,1,1.9,2c0.6,1,1,2.4,0.9,4.3
						c0,0,0,0.2,0.2,0.4c0.1,0.2,0.4,0.4,0.7,0.4c0.3,0,0.2,0.4-0.1,0.9c-0.3,0.5-0.8,1-1.2,1.4c-0.4,0.3-0.3,1.7-0.7,3.2
						c-0.4,1.5-1.1,3-3.2,3.6c-2,0.6-3.5-0.6-4.3-2c-0.9-1.4-1.1-3.1-0.8-3.4c0.4-0.3,0.6,0.5,1,1.4c0.5,0.9,1.2,1.9,2.8,1.8
						c1.5,0,2.3-1.2,2.8-2.4c0.4-1.2,0.5-2.3,0.5-2.3s-0.6-0.1-1.4-0.2c-0.7-0.1-1.5-0.1-1.9,0.3c-0.4,0.3-0.9,0.9-1.3,1.2
						s-0.5,0.1-0.1-1s0.6-1.8,0.7-2.1c0.2-0.3,0.4-0.4,1-0.4c0.6,0,1.4,0.1,2.1,0.1c0.7,0,1.2,0.1,1.2,0.1s0.2-0.7,0.1-1.6
						c0-1-0.2-2.2-0.8-3.3c-0.6-1.1-1.2-1.3-1.5-1.5c-0.3-0.3-0.5-0.5-0.4-1.8s0.2-2.1,0.2-2.7c0-0.6-0.1-0.9-0.4-1
						c-0.3-0.1-0.5,0.8-0.6,2.1c-0.1,1.3-0.1,2.8-0.2,3.9c0,0.9-0.1,2.4-0.4,3.7C632.1,612.6,631.5,613.6,630.4,613.8z"/>
				</g>
				<g>
					<polygon class="st5" points="633.7,622 633.5,622 633.2,622 633.7,614 634.1,606 634.3,606 634.5,606 634.1,614 					"/>
				</g>
			</g>
		</g>
	</g>
</g>
</svg>
