<?xml version="1.0" encoding="utf-8"?>
<!-- Generator: Adobe Illustrator 27.7.0, SVG Export Plug-In . SVG Version: 6.00 Build 0)  -->
<svg version="1.1" id="레이어_1" xmlns="http://www.w3.org/2000/svg" xmlns:xlink="http://www.w3.org/1999/xlink" x="0px"
	 y="0px" viewBox="0 0 1080 1013.3" style="enable-background:new 0 0 1080 1013.3;" xml:space="preserve">
<style type="text/css">
	.st0{clip-path:url(#SVGID_00000026133035480079686030000000088534322583997332_);fill:#FFDC8F;}
	.st1{fill:#04060A;}
	.st2{fill:none;}
	.st3{fill:#FFDC8F;}
	.st4{fill:#F2F1EF;}
	.st5{fill:#412A1B;}
	.st6{fill:#F7C0BD;}
	.st7{fill:#FFF5CF;}
	.st8{fill:#9E6240;}
	.st9{fill:#FFFFFF;}
	.st10{fill:#F93858;}
	.st11{fill:#B5CBDB;}
	.st12{fill:#EFBD7D;}
	.st13{fill:#652711;}
	.st14{fill:#FDBDBA;}
</style>
<g id="_x35_">
	<g>
		<g>
			<defs>
				<path id="SVGID_00000131357924682517586380000001955863047206699193_" d="M781.8,396.4l-44.2-96.7
					c-14.2,4.9-46.6,19.1-46.6,19.1s-3.9,69.7-13.7,106s-65.8,57.9-65.8,57.9c-20.1,30.4-52.3,52.7-52.3,52.7
					c-17.7-13.7-37.3-40.2-37.3-40.2c-82.2,1.2-107.5-23.5-107.5-23.5L401,472l-1.5,86.8c20.1,4.9,58.4-0.5,58.4-0.5
					c-1,24.5-13,45.9-13,45.9c23.6,9.8,107.9,26.5,107.9,26.5C698.4,656.5,770.5,655,770.5,655c26.5-158.5-18.6-245.3-18.6-245.3
					L781.8,396.4z"/>
			</defs>
			<use xlink:href="#SVGID_00000131357924682517586380000001955863047206699193_"  style="overflow:visible;fill:#FFFFFF;"/>
			<clipPath id="SVGID_00000117661392258246918580000013884810525839637923_">
				<use xlink:href="#SVGID_00000131357924682517586380000001955863047206699193_"  style="overflow:visible;"/>
			</clipPath>
			<path style="clip-path:url(#SVGID_00000117661392258246918580000013884810525839637923_);fill:#FFDC8F;" d="M456.4,559.8
				c0,0,19.2-54.7,44.1-69.8c24.9-15,128.9-79.8,128.9-79.8s40.6-10.5,43.8-10.5c3.3,0,51.7,0,81.8,11.8
				c30.1,11.8,67.4-3.3,67.4-3.3l-68.7-125L606.4,297L357.8,408.3l-13.7,146.5l15.7,59.5L456.4,559.8z"/>
		</g>
		<path class="st1" d="M768.7,657.2c-12.4,0-84.9-1.1-216.1-24.3c-0.8-0.1-84.9-16.8-108.4-26.6l-2.3-1l1.2-2.2
			c0.1-0.2,10.9-19.7,12.6-42.3c-9.1,1.1-39.1,4.4-56.6,0.1l-1.7-0.4l1.5-90.8l16.5-0.3l0.7,0.6c0.1,0.1,6.4,6.1,22.6,11.9
			c14.9,5.4,41.5,11.6,83.3,11l1.1,0l0.7,0.9c0.2,0.3,18.7,25.1,35.6,38.8c6.2-4.6,33-25,50.3-51.2l0.4-0.6l0.7-0.3
			c0.5-0.2,55-21.6,64.4-56.4c9.6-35.7,13.6-104.8,13.7-105.5l0.1-1.4l1.2-0.5c0.3-0.1,32.6-14.3,46.8-19.2l1.9-0.7l45.9,100.5
			l-29.9,13.2c3,6.4,11.8,27.2,18.4,61.7c4.7,24.2,7.2,50.2,7.7,77.3c0.6,33.8-2.2,69.3-8.3,105.6l-0.3,1.8l-1.8,0
			C770.5,657.2,769.9,657.2,768.7,657.2z M448.1,603.1c26,9.8,104.5,25.3,105.3,25.5c130.9,23.2,203.1,24.3,215.3,24.3c0,0,0,0,0,0
			c13.2-80.6,7.5-142.1,0.3-179.5c-7.8-40.7-18.9-62.4-19.1-62.6l-1.1-2.1l30-13.3l-42.4-92.8c-13.1,4.7-37.6,15.3-43.3,17.9
			c-0.6,9.9-4.7,71.8-13.7,105.1c-4.2,15.6-16.8,30.3-37.5,43.8c-13.5,8.8-26,14.1-28.9,15.3c-20.2,30.2-52.2,52.6-52.5,52.8
			l-1.3,0.9l-1.3-1c-16.1-12.5-33.4-34.9-37-39.8c-42.1,0.5-69-5.9-84.2-11.4c-14-5.1-20.9-10.3-23-12.1l-10.5,0.2l-1.4,82.9
			c19.9,4.1,55.5-0.9,55.8-0.9l2.6-0.4l-0.1,2.6C459.4,578.9,451.2,596.9,448.1,603.1z"/>
		<path id="XMLID_00000140016409838487303010000008357936776931840390_" class="st2" d="M559.3,535.5"/>
	</g>
	<g>
		<path class="st2" d="M573.7,550.3"/>
		<g>
			<g>
				<g>
					<path class="st3" d="M493.8,523.8c-0.3,0-0.6,0.3-0.6,0.6l0,2.3l-4-0.1l0.1-1.9c0-0.3-0.3-0.6-0.6-0.6c-0.3,0-0.6,0.3-0.6,0.6
						l-0.1,2.2c-0.1,0.1-0.1,0.2-0.1,0.3c0,0.1,0,0.2,0.1,0.3l-0.1,3.5c0,0.3,0.3,0.6,0.6,0.6c0.3,0,0.6-0.3,0.6-0.6l0.1-3.2l4,0.1
						l0,3.2c0,0.3,0.3,0.6,0.6,0.6c0,0,0,0,0,0c0.3,0,0.6-0.3,0.6-0.6l0-6.8C494.4,524.1,494.1,523.8,493.8,523.8z"/>
					<path class="st3" d="M493.8,524.2c0.1,0,0.3,0.1,0.3,0.3l0,6.8c0,0.1,0,0.1-0.1,0.2c0,0-0.1,0.1-0.2,0.1
						c-0.1,0-0.3-0.1-0.3-0.3l0-3.2l0-0.4l-0.4,0l-4-0.1l-0.4,0l0,0.4l-0.1,3.2c0,0.1-0.1,0.3-0.3,0.3c0,0,0,0,0,0
						c-0.1,0-0.3-0.1-0.3-0.3l0.1-3.5l0-0.1l0-0.1c0,0,0-0.1,0-0.1c0,0,0-0.1,0-0.1l0.1-0.1l0-0.1l0.1-2.2c0-0.1,0.1-0.3,0.3-0.3
						c0,0,0,0,0,0c0.1,0,0.3,0.1,0.3,0.3l-0.1,1.9l0,0.4l0.4,0l4,0.1l0.4,0l0-0.4l0-2.3c0-0.1,0-0.1,0.1-0.2
						C493.6,524.2,493.7,524.2,493.8,524.2L493.8,524.2 M493.8,523.8C493.8,523.8,493.8,523.8,493.8,523.8c-0.4,0-0.6,0.3-0.6,0.6
						l0,2.3l-4-0.1l0.1-1.9c0-0.3-0.3-0.6-0.6-0.6c0,0,0,0,0,0c-0.3,0-0.6,0.3-0.6,0.6l-0.1,2.2c-0.1,0.1-0.1,0.2-0.1,0.3
						c0,0.1,0,0.2,0.1,0.3l-0.1,3.5c0,0.3,0.3,0.6,0.6,0.6c0,0,0,0,0,0c0.3,0,0.6-0.3,0.6-0.6l0.1-3.2l4,0.1l0,3.2
						c0,0.3,0.3,0.6,0.6,0.6c0,0,0,0,0,0c0,0,0,0,0,0c0.3,0,0.6-0.3,0.6-0.6l0-6.8C494.4,524.1,494.1,523.8,493.8,523.8L493.8,523.8
						z"/>
				</g>
				<g>
					<path class="st3" d="M501.5,527.1c0-0.4-0.2-0.8-0.6-1c-1.2-0.9-4.1-0.5-4.6-0.4c-0.3,0.1-0.6,0.4-0.5,0.7
						c0.1,0.3,0.4,0.6,0.7,0.5c1.2-0.2,3.1-0.3,3.7,0.1c0,0,0.1,0,0.1,0.1c-1.1-0.1-3.1-0.1-4,0.7c-0.4,0.3-0.5,0.7-0.6,1.1
						c0,0.7,0.2,1.2,0.5,1.6c0.4,0.4,0.9,0.5,1.3,0.5c0.2,0,0.4,0,0.5,0c0.1,0,0.2,0,0.2,0c1.3,0,2.3-0.2,2.8-0.9
						c0.7-0.8,0.6-2,0.5-2.8C501.6,527.3,501.5,527.2,501.5,527.1z M500.2,529.4c-0.3,0.3-0.9,0.5-1.8,0.4c-0.1,0-0.2,0-0.3,0
						c-0.3,0-0.7,0.1-0.9-0.1c-0.1-0.1-0.2-0.3-0.2-0.7c0-0.1,0-0.1,0.1-0.2c0.4-0.4,1.7-0.5,2.7-0.4c0.2,0,0.4,0,0.6,0
						C500.4,528.8,500.4,529.2,500.2,529.4z"/>
					<path class="st3" d="M498.6,525.9c1,0,1.7,0.2,2.1,0.5c0.3,0.2,0.4,0.5,0.4,0.8c0,0.1,0,0.2,0,0.4l0,0c0.1,0.8,0.3,1.8-0.4,2.5
						c-0.5,0.5-1.2,0.8-2.4,0.7c0,0-0.1,0-0.1,0l0,0l0,0c0,0-0.1,0-0.2,0c-0.1,0-0.3,0-0.5,0l-0.1,0c-0.5,0-0.8-0.1-1.1-0.4
						c-0.3-0.3-0.4-0.7-0.4-1.3c0-0.3,0.2-0.6,0.4-0.9c0.5-0.5,1.6-0.7,3.1-0.7c0.2,0,0.4,0,0.7,0l0.8,0.1l-0.5-0.6
						c0,0-0.1-0.1-0.1-0.1c-0.3-0.2-0.9-0.4-1.7-0.4c-0.7,0-1.5,0.1-2.2,0.2c0,0,0,0-0.1,0c-0.1,0-0.2-0.1-0.3-0.2
						c0-0.1,0-0.1,0-0.2c0-0.1,0.1-0.1,0.2-0.1C496.6,526,497.6,525.9,498.6,525.9 M497.6,530.2c0.2,0,0.3,0,0.4,0
						c0.1,0,0.2,0,0.3,0l0,0c0,0,0.1,0,0.1,0c1,0,1.6-0.2,2-0.6c0.3-0.4,0.4-0.9,0.3-1.2l0-0.3l-0.3,0c-0.2,0-0.4,0-0.6,0
						c-0.1,0-0.1,0-0.2,0c-0.8,0-2.2,0-2.8,0.5c-0.2,0.1-0.2,0.3-0.3,0.5c0,0.4,0.1,0.7,0.3,0.9C497,530.1,497.3,530.2,497.6,530.2
						 M498.6,525.5c-1,0-2,0.1-2.3,0.2c-0.3,0.1-0.6,0.4-0.5,0.7c0.1,0.3,0.3,0.5,0.6,0.5c0,0,0.1,0,0.1,0c0.6-0.1,1.4-0.2,2.1-0.2
						c0.7,0,1.2,0.1,1.5,0.3c0,0,0.1,0,0.1,0.1c-0.2,0-0.4,0-0.7,0c-1.1,0-2.6,0.1-3.3,0.8c-0.4,0.3-0.5,0.7-0.6,1.1
						c0,0.7,0.2,1.2,0.5,1.6c0.4,0.4,0.9,0.5,1.3,0.5c0,0,0,0,0.1,0c0.2,0,0.4,0,0.5,0c0.1,0,0.1,0,0.2,0c0,0,0,0,0,0
						c0,0,0.1,0,0.1,0c1.3,0,2.1-0.3,2.7-0.9c0.7-0.8,0.6-2,0.5-2.8c0-0.1,0-0.2,0-0.4c0-0.4-0.2-0.8-0.6-1
						C500.4,525.7,499.5,525.5,498.6,525.5L498.6,525.5z M497.6,529.9c-0.2,0-0.4,0-0.5-0.1c-0.1-0.1-0.2-0.3-0.2-0.7
						c0-0.1,0-0.1,0.1-0.2c0.4-0.4,1.5-0.5,2.5-0.4c0.1,0,0.1,0,0.2,0c0.2,0,0.4,0,0.6,0c0,0.4,0,0.7-0.2,1
						c-0.3,0.3-0.9,0.5-1.7,0.4c0,0-0.1,0-0.1,0c0,0,0,0,0,0c-0.1,0-0.2,0-0.3,0C497.9,529.8,497.8,529.9,497.6,529.9L497.6,529.9z"
						/>
				</g>
				<g>
					<path class="st3" d="M505.5,524.7c-2.2-0.1-3.1,1.4-3.2,2.3l-0.1,3c0,0.3,0.3,0.6,0.6,0.6c0.3,0,0.6-0.3,0.6-0.6l0.1-2.9
						c0.1-0.2,0.4-1.2,1.9-1.2c0.4,0,0.6,0.1,0.8,0.3c0.6,0.6,0.5,2.2,0.5,3.4c0,0.2,0,0.3,0,0.5c0,0.3,0.3,0.6,0.6,0.6
						c0.3,0,0.6-0.3,0.6-0.6c0-0.1,0-0.3,0-0.4c0.1-1.4,0.1-3.3-0.8-4.3C506.8,524.9,506.2,524.7,505.5,524.7z"/>
					<path class="st3" d="M505.4,525C505.4,525,505.5,525,505.4,525c0.7,0,1.1,0.2,1.5,0.6c0.8,0.9,0.8,2.6,0.7,4c0,0.2,0,0.3,0,0.5
						c0,0.1-0.1,0.3-0.3,0.3c0,0,0,0,0,0c-0.1,0-0.1,0-0.2-0.1c0-0.1-0.1-0.1-0.1-0.2c0-0.1,0-0.3,0-0.5c0.1-1.3,0.1-2.9-0.6-3.6
						c-0.3-0.3-0.6-0.4-1.1-0.4c0,0,0,0-0.1,0c-1.8,0-2.1,1.2-2.2,1.5l0,0l0,0l-0.1,2.9c0,0.1-0.1,0.3-0.3,0.3c0,0,0,0,0,0
						c-0.1,0-0.1,0-0.2-0.1s-0.1-0.1-0.1-0.2l0.1-3C502.8,526.2,503.5,525,505.4,525 M505.4,524.6c-2.2,0-3,1.5-3.1,2.3l-0.1,3
						c0,0.3,0.3,0.6,0.6,0.6c0,0,0,0,0,0c0.3,0,0.6-0.3,0.6-0.6l0.1-2.9c0.1-0.2,0.4-1.2,1.8-1.2c0,0,0,0,0.1,0
						c0.4,0,0.6,0.1,0.8,0.3c0.6,0.6,0.5,2.2,0.5,3.4c0,0.2,0,0.3,0,0.5c0,0.3,0.3,0.6,0.6,0.6c0,0,0,0,0,0c0.3,0,0.6-0.3,0.6-0.6
						c0-0.1,0-0.3,0-0.4c0.1-1.4,0.1-3.3-0.8-4.3C506.8,524.9,506.2,524.7,505.4,524.6C505.5,524.6,505.4,524.6,505.4,524.6
						L505.4,524.6z"/>
				</g>
				<g>
					<path class="st3" d="M517.9,523.9c-0.3,0-0.6,0.3-0.6,0.6c-0.1,4.1-0.5,4.3-1.8,4.3c-0.9,0-1.1-1-1.1-1.3l0.1-2.4
						c0-0.3-0.3-0.6-0.6-0.6s-0.6,0.3-0.6,0.6l-0.1,2.7c0,0,0,0,0,0c0,0.2-0.1,0.6-0.4,0.9c-0.3,0.3-0.7,0.4-1.3,0.4
						c-0.3,0-0.5-0.1-0.7-0.3c-0.7-0.8-0.5-2.8-0.3-3.5c0.1-0.3-0.2-0.7-0.5-0.7c-0.3-0.1-0.7,0.2-0.7,0.5c-0.1,0.3-0.5,3.1,0.6,4.5
						c0.4,0.5,1,0.8,1.6,0.8c1,0,1.7-0.2,2.2-0.8c0.1-0.1,0.2-0.2,0.2-0.3c0.4,0.4,0.9,0.7,1.6,0.7c2.7,0.1,2.9-1.9,3.1-5.5
						C518.6,524.2,518.3,523.9,517.9,523.9z"/>
					<path class="st3" d="M517.9,524.3L517.9,524.3c0.1,0,0.3,0.1,0.3,0.3c-0.1,3.8-0.4,5.2-2.6,5.1c0,0-0.1,0-0.1,0
						c-0.6,0-1-0.2-1.4-0.6l-0.3-0.3l-0.3,0.4c-0.1,0.1-0.1,0.2-0.2,0.2c-0.4,0.5-1.1,0.7-1.9,0.7c0,0,0,0-0.1,0
						c-0.6,0-1-0.2-1.4-0.7c-0.8-1-0.7-3.1-0.5-4.2c0-0.1,0.1-0.2,0.3-0.2c0,0,0,0,0,0c0.1,0,0.2,0.2,0.2,0.3c0,0-0.5,2.7,0.4,3.8
						c0.2,0.3,0.6,0.5,1,0.5c0,0,0,0,0.1,0c0.7,0,1.2-0.2,1.5-0.5c0.4-0.4,0.5-0.9,0.5-1.2l0,0l0,0c0,0,0,0,0,0l0.1-2.7
						c0-0.1,0.1-0.3,0.3-0.3c0,0,0,0,0,0c0.1,0,0.1,0,0.2,0.1s0.1,0.1,0.1,0.2l-0.1,2.4l0,0l0,0c0.1,0.7,0.5,1.5,1.5,1.6
						c0.1,0,0.1,0,0.1,0c1.6,0,1.9-0.7,2-4.6C517.7,524.4,517.8,524.3,517.9,524.3 M517.9,523.9c-0.3,0-0.6,0.3-0.6,0.6
						c-0.1,4-0.5,4.3-1.6,4.3c0,0-0.1,0-0.1,0c-0.9,0-1.1-1-1.1-1.3l0.1-2.4c0-0.3-0.3-0.6-0.6-0.6c0,0,0,0,0,0
						c-0.3,0-0.6,0.3-0.6,0.6l-0.1,2.7c0,0,0,0,0,0c0,0.2-0.1,0.6-0.4,0.9c-0.3,0.3-0.7,0.4-1.2,0.4c0,0,0,0-0.1,0
						c-0.3,0-0.5-0.1-0.7-0.3c-0.7-0.8-0.5-2.8-0.3-3.5c0.1-0.3-0.2-0.7-0.5-0.7c0,0-0.1,0-0.1,0c-0.3,0-0.6,0.2-0.6,0.5
						c-0.1,0.3-0.5,3.1,0.6,4.5c0.4,0.5,1,0.8,1.6,0.8c0,0,0.1,0,0.1,0c0.9,0,1.6-0.2,2.2-0.8c0.1-0.1,0.2-0.2,0.2-0.3
						c0.4,0.4,0.9,0.7,1.6,0.7c0,0,0.1,0,0.1,0c2.7,0,2.9-2,3-5.5C518.6,524.2,518.3,523.9,517.9,523.9
						C517.9,523.9,517.9,523.9,517.9,523.9L517.9,523.9z"/>
				</g>
				<g>
					<path class="st3" d="M522.5,523.6c-0.6-0.1-1.2,0.1-1.7,0.5c-0.1,0.1-0.2,0.1-0.2,0.2l0.1-1.5c0-0.3-0.3-0.6-0.6-0.6
						c-0.3,0-0.6,0.3-0.6,0.6l-0.2,6.3c0,0.3,0.3,0.6,0.6,0.6s0.6-0.3,0.6-0.6l0,0c0-1.1,0.3-3.3,1.2-4.1c0.2-0.2,0.5-0.3,0.7-0.2
						c1.8,0.2,1.6,4.1,1.5,4.1c0,0.3,0.2,0.6,0.6,0.7c0.3,0,0.6-0.2,0.7-0.6C525.2,528.9,525.6,524,522.5,523.6z"/>
					<path class="st3" d="M520,522.6L520,522.6c0.1,0,0.1,0,0.2,0.1s0.1,0.1,0.1,0.2l-0.1,1.5l0,1l0.7-0.7c0.1-0.1,0.1-0.1,0.2-0.2
						c0.4-0.3,0.8-0.5,1.2-0.4c0.1,0,0.1,0,0.2,0c2.7,0.3,2.3,4.9,2.3,5.1c0,0.1-0.1,0.2-0.3,0.2c0,0,0,0,0,0
						c-0.1,0-0.3-0.1-0.2-0.3c0,0,0.3-4.3-1.9-4.5c-0.1,0-0.1,0-0.2,0c-0.3,0-0.6,0.1-0.9,0.3c-1.2,1-1.3,4.2-1.3,4.3
						c0,0.1-0.1,0.3-0.3,0.3c0,0,0,0,0,0c-0.1,0-0.3-0.1-0.3-0.3l0.2-6.3C519.7,522.7,519.9,522.6,520,522.6 M520,522.2
						c-0.3,0-0.6,0.3-0.6,0.6l-0.2,6.3c0,0.3,0.3,0.6,0.6,0.6c0,0,0,0,0,0c0.3,0,0.6-0.3,0.6-0.6l0,0c0-1.1,0.3-3.3,1.2-4.1
						c0.2-0.2,0.4-0.2,0.6-0.2c0,0,0.1,0,0.1,0c1.8,0.2,1.6,4.1,1.5,4.1c0,0.3,0.2,0.6,0.6,0.7c0,0,0,0,0,0c0.3,0,0.6-0.2,0.6-0.6
						c0-0.2,0.4-5.1-2.6-5.5c-0.1,0-0.2,0-0.3,0c-0.5,0-1,0.2-1.5,0.5c-0.1,0.1-0.2,0.1-0.2,0.2l0.1-1.5
						C520.6,522.5,520.4,522.2,520,522.2C520,522.2,520,522.2,520,522.2L520,522.2z"/>
				</g>
				<g>
					<path class="st3" d="M532,524.8c-0.7-2.3-4.9-1.6-5.4-1.5c-0.3,0.1-0.6,0.4-0.5,0.7c0.1,0.3,0.4,0.6,0.7,0.5
						c1.5-0.3,3.7-0.2,4,0.6c0,0.1,0.1,0.2,0.1,0.3c-1.1,0-2.1,0-2.9,0.1c-1.3,0.2-2,0.7-2,1.5c0,0.6,0,1.2,0.5,1.7
						c0.4,0.4,1.1,0.6,2.1,0.6c0.3,0,0.6,0,0.9,0c1,0,1.8-0.4,2.3-1.1C532.4,527.5,532.5,526.3,532,524.8z M530.8,527.6
						c-0.2,0.3-0.7,0.5-1.3,0.5c-1.5,0.1-2-0.1-2.1-0.3c-0.1-0.1-0.1-0.3-0.1-0.8c0-0.1,0.3-0.3,0.9-0.3c0.8-0.1,1.8-0.1,2.9,0
						C531,527.1,531,527.4,530.8,527.6z"/>
					<path class="st3" d="M528.7,523.5c1.2,0,2.7,0.3,3,1.4c0.4,1.4,0.3,2.5-0.2,3.2c-0.4,0.6-1.1,0.9-2,0.9c-0.3,0-0.5,0-0.8,0
						c-0.1,0-0.1,0-0.2,0c-0.9,0-1.5-0.2-1.9-0.5c-0.4-0.3-0.4-0.8-0.4-1.4c0-0.2,0-1,1.7-1.2c0.5-0.1,1.1-0.1,2-0.1
						c0.2,0,0.5,0,0.8,0l0.5,0l-0.1-0.5c0-0.1-0.1-0.2-0.1-0.3c-0.2-0.8-1.5-1-2.5-1c-0.6,0-1.3,0-1.9,0.1c0,0,0,0,0,0
						c-0.1,0-0.2-0.1-0.3-0.2c0-0.1,0-0.1,0-0.2c0-0.1,0.1-0.1,0.2-0.1C526.9,523.7,527.7,523.5,528.7,523.5 M528.8,528.5
						c0.2,0,0.5,0,0.7,0c0.8,0,1.3-0.3,1.6-0.7c0.2-0.3,0.3-0.6,0.3-1l0-0.4l-0.4,0c-0.3,0-0.7,0-1,0c-0.9,0-1.4,0-1.9,0.1
						c-0.8,0.1-1.2,0.3-1.2,0.7c0,0.5,0,0.8,0.2,1C527.4,528.4,527.9,528.5,528.8,528.5 M528.7,523.2c-1,0-1.8,0.1-2,0.2
						c-0.3,0.1-0.6,0.4-0.5,0.7c0.1,0.3,0.3,0.5,0.6,0.5c0,0,0.1,0,0.1,0c0.5-0.1,1.2-0.2,1.8-0.1c1.1,0,2,0.2,2.2,0.8
						c0,0.1,0.1,0.2,0.1,0.3c-0.3,0-0.6,0-0.9,0c-0.8,0-1.5,0-2,0.1c-1.3,0.2-2,0.7-2,1.5c0,0.6,0,1.2,0.5,1.7
						c0.4,0.4,1.1,0.6,2.1,0.6c0.1,0,0.1,0,0.2,0c0.2,0,0.5,0,0.8,0c1,0,1.8-0.4,2.3-1.1c0.6-0.8,0.7-2,0.2-3.5
						C531.7,523.5,530.1,523.2,528.7,523.2L528.7,523.2z M528.8,528.2c-1,0-1.3-0.2-1.4-0.3c-0.1-0.1-0.1-0.3-0.1-0.8
						c0-0.1,0.3-0.3,0.9-0.3c0.5-0.1,1.2-0.1,1.9-0.1c0.3,0,0.7,0,1,0c0,0.4-0.1,0.6-0.3,0.9c-0.2,0.3-0.7,0.5-1.3,0.5
						C529.2,528.2,529,528.2,528.8,528.2L528.8,528.2z"/>
				</g>
			</g>
			<g>
				<g>
					<path class="st4" d="M636.5,550.8c0,0-0.9-1.7-2.5-1.1c-1.6,0.6-0.6,7.2,0.2,8.1S636.5,550.8,636.5,550.8z"/>
					<path class="st5" d="M634.1,558.3c-0.1,0-0.2-0.1-0.3-0.2c-0.8-0.9-1.4-5.4-0.9-7.4c0.2-0.7,0.5-1.1,0.9-1.3
						c1.5-0.6,2.6,0.5,2.9,1.2l0.1,0.1l0,0.1c-0.6,3.3-1.6,7.2-2.4,7.4C634.3,558.3,634.2,558.3,634.1,558.3z M635,550
						c-0.3-0.1-0.6-0.1-0.9,0.1c-0.2,0.1-0.4,0.4-0.5,0.8c-0.5,1.9,0.2,5.7,0.7,6.7c0.5-0.7,1.3-3.8,1.8-6.6
						C636,550.6,635.6,550.1,635,550z"/>
				</g>
				<g>
					<path class="st4" d="M636.5,566.1c0,0-6.2-2.8-2.1-12.5c4.1-9.7,13.2-6.3,18.6-6.9c5.3-0.6,4.6-0.7,2.8,2.4
						c-0.1,0.1,0,0.3,0.2,0.3c0.7,0.1,2.3,0.5,2.2,1c-0.2,0.6-1.2,0.2-2,1c-0.1,0.1-0.1,0.2,0,0.3c0.6,0.8,4,5.5,2.8,11.4
						c-1.2,5.9-4.1,8.6-6.3,9.9c-0.7,0.4-1.7,0.2-2-0.6C649.5,569.7,645.7,563.9,636.5,566.1z"/>
					<path class="st5" d="M651.5,573.5C651.5,573.5,651.5,573.5,651.5,573.5c-0.5-0.2-0.9-0.5-1.1-0.9c-1.2-2.5-4.9-8.2-13.8-6.1
						l-0.1,0l-0.1,0c-0.1,0-6.5-3.1-2.3-13c3.3-7.7,9.7-7.4,14.8-7.1c1.5,0.1,2.9,0.2,4.1,0l0.8-0.1c2.5-0.3,3.3-0.4,3.6,0.1
						c0.3,0.4-0.1,0.9-0.7,1.8c-0.2,0.3-0.4,0.5-0.6,0.9c1.9,0.4,2.1,0.8,2.2,0.9c0.1,0.1,0.1,0.3,0.1,0.5c-0.1,0.5-0.6,0.6-1,0.7
						c-0.3,0.1-0.7,0.1-1,0.4c0.8,1.1,4,5.8,2.8,11.6c-1.2,5.9-4.1,8.7-6.4,10.1C652.5,573.6,652,573.6,651.5,573.5z M643.7,565.7
						c4.3,1.2,6.5,4.7,7.3,6.5c0.1,0.3,0.4,0.5,0.7,0.6c0.3,0.1,0.6,0,0.9-0.1c2.2-1.3,5-4.1,6.1-9.7c1.1-5.7-2.1-10.3-2.7-11.1
						c-0.2-0.2-0.1-0.5,0-0.7c0.5-0.5,1-0.6,1.4-0.7c0.3-0.1,0.4-0.1,0.4-0.2c-0.1-0.1-0.6-0.4-1.9-0.6c-0.2,0-0.3-0.2-0.4-0.3
						c-0.1-0.2-0.1-0.4,0-0.5c0.2-0.4,0.5-0.7,0.6-1c0.3-0.5,0.6-0.9,0.6-1.1c0,0,0,0,0,0c-0.3-0.1-1.5,0-2.9,0.2l-0.8,0.1
						c-1.3,0.1-2.7,0.1-4.2,0c-5.2-0.3-11-0.6-14.1,6.7c-3.7,8.7,1.1,11.7,1.8,12.1C639.5,565.1,641.8,565.2,643.7,565.7z"/>
				</g>
				<g>
					<path class="st4" d="M650.3,558.9c0,0,2.4-2.1,3.7-0.7s-1.4,4.9-1.4,4.9"/>
					<path class="st5" d="M652.6,563.4c0,0-0.1,0-0.1-0.1c-0.1-0.1-0.2-0.3-0.1-0.5c0.7-0.9,2.3-3.4,1.4-4.4
						c-1.1-1.2-3.2,0.7-3.2,0.7c-0.1,0.1-0.4,0.1-0.5,0c-0.1-0.1-0.1-0.4,0-0.5c0.1-0.1,2.6-2.4,4.2-0.7c1.5,1.6-1.1,5-1.4,5.3
						C652.9,563.4,652.7,563.5,652.6,563.4z"/>
				</g>
				<path class="st5" d="M657.3,567.9c0,0-0.1,0-0.1-0.1c-0.1-0.1-0.2-0.3-0.1-0.5c0-0.1,1.2-1.6,3.1-1.4c0.2,0,0.3,0.2,0.3,0.4
					c0,0.2-0.2,0.3-0.4,0.3c-1.5-0.1-2.5,1.2-2.5,1.2C657.6,567.9,657.4,567.9,657.3,567.9z"/>
				<g>
					
						<ellipse transform="matrix(0.2709 -0.9626 0.9626 0.2709 -62.6248 1050.6403)" class="st6" cx="662.2" cy="566.7" rx="2.2" ry="2"/>
					<path class="st5" d="M661.5,569.1c-1.3-0.4-2-1.7-1.6-3.1c0.4-1.3,1.7-2.2,3-1.8c1.3,0.4,2,1.7,1.6,3.1
						S662.8,569.5,661.5,569.1z M662.7,564.9c-0.9-0.3-1.9,0.3-2.1,1.3c-0.3,1,0.2,2,1.1,2.3c0.9,0.3,1.9-0.3,2.1-1.3
						C664.1,566.1,663.6,565.1,662.7,564.9z"/>
				</g>
				
					<ellipse transform="matrix(0.2709 -0.9626 0.9626 0.2709 -65.7441 1016.9479)" class="st5" cx="638.4" cy="551.9" rx="1.2" ry="0.8"/>
				
					<ellipse transform="matrix(0.2709 -0.9626 0.9626 0.2709 -62.4128 1029.9147)" class="st5" cx="648.7" cy="556.2" rx="1.2" ry="1"/>
				<g>
					<path class="st6" d="M641,553.5c0,0-1,4.7,0.7,5.1c1.6,0.5,3.2-4,3.2-4S643.5,552.1,641,553.5z"/>
					<path class="st5" d="M641.6,558.9c-1.9-0.5-1-5-0.9-5.5l0-0.2l0.1-0.1c2.2-1.2,3.8,0.3,4.4,1.2l0.1,0.1l-0.1,0.1
						C645,555.2,643.4,559.4,641.6,558.9z M641.3,553.7c-0.3,1.5-0.5,4.3,0.5,4.6c1,0.3,2.2-2.2,2.8-3.6
						C644.2,554.2,643.1,552.8,641.3,553.7z"/>
				</g>
				<g>
					<path class="st7" d="M641,553.5c0,0,2.7,0.4,3.5,1.3c0.8,0.9,1.2-1.7-1-2.7C641.6,551.2,640.6,553.4,641,553.5z"/>
					<path class="st5" d="M644.6,555.3c-0.1,0-0.3-0.1-0.4-0.3c-0.6-0.7-2.6-1.1-3.3-1.2l0,0c-0.2,0-0.3-0.2-0.3-0.3
						c-0.1-0.4,0.3-1.1,0.8-1.5c0.6-0.5,1.4-0.6,2.2-0.2c1.3,0.6,1.9,1.8,1.8,2.7c0,0.4-0.2,0.8-0.5,0.8
						C644.9,555.3,644.8,555.4,644.6,555.3z M642.5,553.5c0.8,0.2,1.8,0.6,2.2,1.1c0,0,0,0,0,0c0-0.1,0.1-0.3,0-0.6
						c-0.1-0.3-0.3-1.2-1.4-1.7c-0.5-0.2-1-0.2-1.4,0c-0.3,0.2-0.6,0.6-0.6,0.8C641.6,553.2,642,553.3,642.5,553.5z"/>
				</g>
				<g>
					<path class="st8" d="M659.8,555.3c0,0-1.4-2.5-4.5-1.6s-2.9,5.5-1.7,7.3c1.5,2.2,6.8,3.3,7-1.2
						C660.8,556.6,659.8,555.3,659.8,555.3z"/>
					<path class="st5" d="M656.2,562.9c-1.1-0.3-2.2-1-2.8-1.8c-0.8-1.2-1.2-3.5-0.5-5.4c0.4-1.2,1.3-2.1,2.4-2.4
						c3.1-0.9,4.7,1.5,4.8,1.7c0.1,0.2,1.1,1.6,0.9,4.7c-0.1,1.7-0.9,2.9-2.3,3.3C657.9,563.2,657,563.2,656.2,562.9z M657.5,553.9
						c-0.6-0.2-1.3-0.2-2.1,0.1c-1.2,0.3-1.7,1.3-2,2c-0.6,1.7-0.2,3.8,0.5,4.8c0.8,1.2,2.9,2.1,4.6,1.7c1.1-0.3,1.7-1.2,1.8-2.7
						c0.2-2.9-0.8-4.2-0.8-4.2l0,0C659.5,555.4,658.9,554.3,657.5,553.9z"/>
				</g>
				<path id="XMLID_00000147937096875012971250000017521253039668606358_" class="st9" d="M656.9,560c-0.7-0.9-0.9-2.2-0.5-3.3
					c0.3-1,1-2,2.5-2.1c2.9-0.2,4.1,5.4,1,6.3C658.4,561.4,657.5,560.7,656.9,560z"/>
				<g>
					<path class="st10" d="M658.6,555.5c-0.1,0-0.1,0-0.2-0.1c-0.1-0.1-0.2-0.2-0.2-0.2c-0.1-0.1-0.1-0.3,0-0.5
						c0.1-0.1,0.3-0.1,0.5,0c0,0,0.1,0.1,0.2,0.3c0.1,0.1,0.1,0.3,0,0.5C658.8,555.5,658.7,555.6,658.6,555.5z"/>
					<path class="st10" d="M660.1,559.1c-0.1,0-0.2-0.1-0.2-0.3c0-0.2-0.1-0.4-0.1-0.5c0-0.2,0.1-0.3,0.2-0.4c0.2,0,0.3,0.1,0.4,0.2
						c0,0.2,0.1,0.4,0.1,0.6c0,0.2-0.1,0.3-0.3,0.4C660.2,559.1,660.2,559.1,660.1,559.1z M659.6,557.2c-0.1,0-0.2-0.1-0.2-0.2
						c-0.1-0.2-0.1-0.3-0.2-0.5c-0.1-0.2,0-0.4,0.1-0.4c0.2-0.1,0.4,0,0.4,0.1c0.1,0.2,0.2,0.4,0.3,0.5c0.1,0.2,0,0.4-0.2,0.4
						C659.8,557.2,659.7,557.2,659.6,557.2z"/>
					<path class="st10" d="M660.2,560.8c-0.1,0-0.2-0.2-0.2-0.3c0-0.1,0-0.2,0-0.3c0-0.2,0.2-0.3,0.3-0.3c0.2,0,0.3,0.2,0.3,0.3
						c0,0.1,0,0.2,0,0.3C660.6,560.7,660.4,560.8,660.2,560.8C660.2,560.8,660.2,560.8,660.2,560.8z"/>
				</g>
				<path class="st5" d="M658.2,561.3c-0.7-0.2-1.2-0.6-1.6-1.1l0,0c-0.8-1-1-2.3-0.6-3.6c0.5-1.4,1.5-2.2,2.8-2.3
					c1.7-0.1,2.8,1.5,3.1,3c0.3,1.6-0.2,3.4-1.9,3.9C659.3,561.5,658.7,561.5,658.2,561.3z M657.2,559.8c0.7,0.9,1.6,1.1,2.7,0.8
					c1.4-0.4,1.7-1.9,1.5-3.2c-0.2-1.3-1.1-2.6-2.4-2.5c-1.1,0.1-1.9,0.7-2.2,1.9C656.4,557.9,656.5,559,657.2,559.8L657.2,559.8z"
					/>
				
					<ellipse transform="matrix(0.2709 -0.9626 0.9626 0.2709 -68.6661 1016.7769)" class="st6" cx="636.9" cy="553.7" rx="0.8" ry="1.4"/>
				
					<ellipse transform="matrix(0.2709 -0.9626 0.9626 0.2709 -64.5133 1031.8369)" class="st6" cx="648.9" cy="558.5" rx="0.8" ry="1.4"/>
			</g>
			<g>
				<g>
					<path class="st3" d="M673.1,570.6c-0.5-3.4-4.9-4-7-2.6c-1.9,1.3-8.4,7.3-16,13.8c-7.6,6.5-18.4,9.8-21.8,6.6
						c-3.3-3.1,0.3-7.8,0.3-7.8c8.8,2.8,19.1,1.1,22.1-4s1.1-11.2-8.9-12.1c-10-0.8-20,10.8-24.4,17.6c-4.4,6.8-10.6,7.2-9.4,3.6
						s29.4-40.4,29.4-40.4l-8.9-0.9c0,0-23.3,32.4-28.7,37.6c-5.4,5.2-9.8,5.1-9.8,5.1l16.1-23.6c0,0-5.5-1-7.2-1.1
						c-1.7-0.1-3.6,2.1-3.6,2.1c-16.9-11.1-30,7.3-33,12.5s-8.4,10.7-10.4,7.6c-1.9-3.1,13.9-24.5,13.9-24.5s-1.8,0.2-4.8,0.1
						c-3-0.1-5.6,2.2-5.6,2.2s-6.1-5.5-15.8-2c-9.7,3.5-15.2,14.6-18.2,18.5s-9.2,8.2-14.4,8.6c-5.2,0.4-12.8,1.1-12.8,1.1
						c8.7-4.8,13.9-20.2,13.9-20.2s1.4-0.3,7.7,0.3c6.3,0.6,6.7-4.9,6.7-4.9l-12.4,0.9l11-19.6c0,0,1.6-2.2,8.8-1.1s8.1,9.6,8.1,9.6
						l2.7-15.1c0,0-12,0.6-20.6,0.8c-8.5,0.2-28.2,1.2-32.9,12.2c-4.8,11,4.9,18.3,4.9,18.3c-6.8-24.4,17.4-24.9,17.4-24.9
						s-4.2,4.5-8.8,18.9c-4.6,14.3-9.1,21.7-12.7,25.1c-3.6,3.4-4,6.6-4,6.6s13.6-1.2,23.7-2.3s14.5-10.5,14.5-10.5
						s-1.5,7.2,6.8,8.3c8.2,1.1,15.2-8,15.2-8c-1,2.7-0.8,8.7,6.1,8.4c6.9-0.3,11.2-8.1,11.2-8.1c0.5,15.6,18.4,3.9,18.4,3.9
						s-2.8,5.9-9.2,9.6c-6.4,3.7-12.7-0.9-12.7-0.9c-0.4,5.5,7.5,10.8,15.2,8.7c7.6-2,14-12.6,14-12.6c4.6,0.8,11.2-4.1,11.2-4.1
						c6,14,19.8-0.3,19.8-0.3c0.4,5.4,5.7,9.7,19,6.7c13.3-2.9,28.1-18.7,28.1-18.7s1.7,12.3-3.5,15.3c-5.2,3-9-1.9-9-1.9
						c-1.1,4.3,2.3,11.4,12.1,8.6C674.7,594.3,673.7,574,673.1,570.6z M645.6,573.6c-3.9,5.9-14.9,3.9-14.9,3.9
						C638.4,566.9,649.4,567.7,645.6,573.6z M532,584.8c-2.7-1.3-1.9-8.7,6.9-16.7c8.8-8,13.4-1.9,13.4-1.9
						C546.9,575.7,536.3,586.9,532,584.8z M570.8,584.6c-3.3-5.3,9.4-17,14.1-18.5c4.1-1.3,7.3,2.1,7.3,2.1
						C587.3,575.6,574.7,590.8,570.8,584.6z"/>
					<path class="st3" d="M483.5,595.7l0.1-0.5c0-0.1,0.5-3.4,4.1-6.8c3-2.9,7.7-9.5,12.6-25c3.6-11.2,6.9-16.4,8.2-18.3
						c-2.7,0.3-10.3,1.5-14.4,7.1c-3.1,4.2-3.7,10-1.6,17.3l0.3,1.2l-1-0.8c-0.1-0.1-9.9-7.7-5.1-18.8c3.4-7.9,14.6-12.1,33.3-12.5
						c8.4-0.2,20.4-0.8,20.6-0.8l0.5,0l-3.3,18.4l-0.3-2.8c0-0.1-1-8.2-7.8-9.2c-6.5-1-8.2,0.8-8.4,0.9L510.7,564l12.1-0.8l0,0.5
						c0,0.1-0.2,2.4-2,4c-1.3,1.1-3,1.5-5.1,1.3c-4.8-0.4-6.8-0.4-7.4-0.3c-0.7,2-5.2,14-12.5,19.3c2.6-0.2,7.5-0.7,11.1-0.9
						c5-0.3,11-4.6,14.1-8.4c0.6-0.8,1.3-1.8,2.1-3c3.3-5.1,8.4-12.8,16.3-15.6c8.7-3.1,14.6,0.8,16,1.8c0.8-0.6,3-2.2,5.7-2.1
						c3,0.1,4.7-0.1,4.7-0.1l1-0.1l-0.6,0.8c0,0.1-4,5.4-7.7,11.1c-6.6,10.1-6.5,12.4-6.2,13c0.3,0.5,0.7,0.7,1.2,0.7
						c2.3,0,6.2-4.3,8.4-8.3c0.8-1.3,7.9-13.2,18.6-15.7c4.9-1.2,9.9-0.2,14.7,2.9c0.6-0.6,2.2-2,3.7-1.9c1.7,0.1,7,1.1,7.2,1.1
						l0.6,0.1l-15.9,23.4c1.5-0.3,4.8-1.2,8.6-4.9c5.3-5.2,28.4-37.2,28.7-37.5l0.1-0.2l9.9,1l-0.5,0.6
						c-9.7,12.7-28.4,37.4-29.3,40.3c-0.2,0.5-0.3,1.3,0.3,1.6c1.3,0.6,5.2-0.7,8.3-5.5c5.6-8.7,15.5-18.6,24.8-17.8
						c6.2,0.5,8.8,3,9.8,4.9c1.2,2.3,1,5.1-0.6,7.8c-3,5.2-13.1,7.2-22.3,4.3c-0.6,1-2.7,4.6-0.1,7c3.2,3,14-0.3,21.3-6.6
						c2.9-2.5,5.6-4.9,8.1-7c3.9-3.4,6.8-5.9,8-6.8c1.3-0.9,3.4-1.1,5.1-0.4c1.4,0.6,2.3,1.8,2.6,3.2c0.3,2,0.6,7.9-0.3,13.6
						c-1.2,7.5-4.1,12.2-8.3,13.4c-5.6,1.6-8.8,0-10.5-1.6c-2.3-2.2-2.7-5.3-2.2-7.5l0.2-0.8l0.5,0.7c0.1,0.2,3.7,4.6,8.5,1.8
						c4.1-2.4,3.6-11.1,3.3-14c-3,3-15.9,15.6-27.7,18.1c-9.4,2.1-14.1,0.4-16.5-1.3c-1.6-1.2-2.7-2.9-3-4.9
						c-1.9,1.8-7.8,6.8-13.2,5.9c-2.7-0.5-4.9-2.4-6.4-5.8c-1.5,1.1-6.8,4.4-10.8,3.9c-1,1.6-7,10.7-14.1,12.6
						c-4.3,1.1-9,0.1-12.4-2.6c-2.3-1.9-3.5-4.2-3.3-6.5l0-0.8l0.6,0.4c0.1,0,6.2,4.3,12.2,0.8c4.3-2.5,7-6.1,8.2-8
						c-2.9,1.6-9.6,4.9-13.9,2.7c-2.1-1.1-3.3-3.2-3.6-6.5c-1.5,2.2-5.4,7-10.8,7.2c-3.3,0.1-5-1.2-5.8-2.3c-1-1.4-1.3-3.3-1.1-4.9
						c-2.3,2.5-8,7.7-14.5,6.9c-2.7-0.4-4.7-1.4-5.9-3.1c-0.9-1.3-1.2-2.8-1.3-3.9c-1.8,2.8-6.3,8.4-14,9.2
						c-10,1.1-23.5,2.3-23.7,2.3L483.5,595.7z M510.4,544.2l-0.7,0.7c0,0-4.2,4.7-8.7,18.7c-5,15.6-9.7,22.4-12.8,25.3
						c-2.6,2.4-3.5,4.8-3.8,5.8c2.7-0.2,14.3-1.3,23.1-2.3c9.8-1.1,14.1-10.2,14.2-10.3l1.5-3.2l-0.7,3.5c0,0-0.5,2.8,1.1,5
						c1.1,1.5,2.9,2.4,5.4,2.7c7.9,1,14.8-7.8,14.9-7.9l1.7-2.2l-1,2.6c-0.5,1.4-0.8,4,0.6,5.9c1,1.4,2.7,2.1,5.1,2
						c6.5-0.3,10.8-7.8,10.8-7.9l0.7-1.3l0.1,1.5c0.1,3.6,1.2,6,3.3,7c5.1,2.6,14.4-3.4,14.5-3.5l1.3-0.8l-0.7,1.4
						c-0.1,0.2-3,6-9.3,9.7c-5.3,3.1-10.6,0.6-12.5-0.5c0.1,1.8,1.2,3.6,3,5.1c3.1,2.6,7.6,3.5,11.6,2.4c7.4-2,13.7-12.3,13.8-12.4
						l0.1-0.2l0.3,0.1c4.3,0.8,10.8-4,10.9-4l0.4-0.3l0.2,0.5c1.4,3.4,3.5,5.3,6,5.8c6,1.1,13-6.2,13.1-6.2l0.7-0.7l0.1,1
						c0.1,2.1,1.1,3.9,2.8,5.1c2.2,1.6,6.7,3.2,15.8,1.2c13-2.9,27.7-18.4,27.9-18.5l0.6-0.6l0.1,0.9c0.1,0.5,1.7,12.6-3.7,15.7
						c-4.2,2.4-7.6-0.1-9-1.4c-0.2,1.9,0.3,4.2,2.1,5.9c1.5,1.5,4.4,2.9,9.6,1.4c9.4-2.7,8.6-22.3,8-26.1l0,0
						c-0.2-1.5-1.2-2.2-2.1-2.6c-1.4-0.6-3.2-0.5-4.3,0.3c-1.2,0.8-4.1,3.4-7.9,6.7c-2.4,2.1-5.2,4.5-8.1,7c-3.7,3.1-8.3,5.7-12.6,7
						c-4.5,1.4-8,1.2-9.8-0.5c-3.5-3.3,0.2-8.3,0.2-8.4l0.2-0.2l0.3,0.1c8.7,2.8,18.8,1,21.6-3.9c1.4-2.4,1.6-5,0.6-7
						c-0.9-1.8-3.3-4-9.1-4.5c-11.7-1-22.8,15.5-24,17.4c-3.3,5.1-7.6,6.7-9.4,5.8c-0.9-0.4-1.2-1.4-0.8-2.6
						c1.2-3.4,25.2-35,29-39.9l-7.9-0.8c-2.1,3-23.4,32.4-28.6,37.5c-5.4,5.3-9.9,5.3-10.1,5.3l-0.8,0l16.1-23.7
						c-1.5-0.3-5.2-0.9-6.5-1c-1.2-0.1-2.7,1.4-3.2,1.9l-0.2,0.3l-0.3-0.2c-4.7-3.1-9.6-4.1-14.4-3c-10.3,2.5-17.3,14-18,15.3
						c-2.4,4.2-6.5,8.7-9.2,8.7c-0.8,0-1.5-0.4-1.9-1.1c-0.6-0.9-0.6-3.4,6.2-13.9c2.9-4.4,5.9-8.7,7.1-10.4c-0.8,0.1-2.1,0.1-3.9,0
						c-2.8-0.1-5.3,2.1-5.4,2.1l-0.3,0.2l-0.3-0.2c-0.1-0.1-6.1-5.3-15.4-1.9c-7.6,2.8-12.6,10.3-15.9,15.3
						c-0.8,1.2-1.5,2.3-2.1,3.1c-3.1,4-9.5,8.4-14.7,8.8c-5.1,0.4-12.7,1.1-12.8,1.1l-2,0.2l1.8-1c8.4-4.6,13.6-19.8,13.7-20
						l0.1-0.2l0.2,0c0.1,0,1.6-0.3,7.9,0.3c1.9,0.2,3.4-0.2,4.5-1.1c1.1-0.9,1.5-2.2,1.6-2.9l-12.7,0.9l11.4-20.3
						c0.1-0.1,1.8-2.4,9.2-1.3c5.1,0.8,7.2,5.2,8,7.9l2.3-12.5c-2.4,0.1-12.6,0.6-20.1,0.8c-18.3,0.4-29.3,4.4-32.5,11.9
						c-1.9,4.4-1.7,8.8,0.6,12.9c1,1.8,2.3,3.2,3.2,4c-1.7-6.9-1-12.5,2.1-16.6c5.3-7.2,15.6-7.5,16-7.5L510.4,544.2z M532.4,585.4
						c-0.2,0-0.4-0.1-0.6-0.2c-0.8-0.4-1.4-1.3-1.5-2.4c-0.4-3,1.5-8.7,8.3-15c3.4-3.1,6.5-4.5,9.4-4.2c3,0.3,4.5,2.3,4.6,2.3
						l0.2,0.2l-0.1,0.2C547.7,575.1,537.4,586.6,532.4,585.4z M548.8,564.6c-0.3-0.1-0.6-0.1-0.9-0.1c-2.6-0.2-5.6,1.1-8.8,4
						c-6.2,5.6-8.5,11.2-8,14.2c0.1,0.9,0.5,1.5,1.1,1.8c0.1,0.1,0.3,0.1,0.4,0.1c4.1,1,13.8-9.1,19.2-18.4
						C551.4,565.8,550.4,564.9,548.8,564.6z M572.5,586.4c-0.8-0.2-1.5-0.7-2.1-1.6l0,0c-0.8-1.3-0.8-2.9-0.1-4.8
						c2.1-5.7,10.5-13.1,14.5-14.4c4.3-1.4,7.6,2.1,7.7,2.3l0.2,0.2l-0.2,0.3c-3.1,4.7-13.4,18.1-19.3,18
						C573,586.5,572.8,586.5,572.5,586.4z M588.2,566.4c-0.9-0.2-2-0.3-3.1,0.1c-3.7,1.2-11.9,8.5-13.9,13.9c-0.6,1.7-0.6,3,0,4.1
						c0.5,0.8,1.2,1.2,2.1,1.3c4.6,0.1,13.4-10,18.4-17.4C591.2,567.8,589.9,566.8,588.2,566.4z M629.9,577.8l0.4-0.5
						c5.4-7.5,12.8-9.6,15.4-7.7c1.3,0.9,1.3,2.5,0.1,4.3l0,0c-4,6.1-14.9,4.1-15.3,4L629.9,577.8z M644.5,569.8
						c-2.6-0.6-8.3,1.1-13,7.3c2.4,0.3,10.7,1,13.8-3.8l0,0c0.5-0.8,1.3-2.4,0.1-3.2C645.1,570,644.8,569.9,644.5,569.8z"/>
				</g>
			</g>
			<g>
				<path class="st5" d="M482.7,561.7c-0.1,0-0.2-0.1-0.2-0.2c-0.1-0.2-0.1-0.4,0.1-0.5c0,0,3.2-1.9,7.3-3.6c1.1-0.4,2-0.4,2.9,0.1
					c2.2,1.2,2.8,5,2.8,5.2c0,0.2-0.1,0.4-0.3,0.4c-0.2,0-0.4-0.1-0.4-0.3c0,0-0.6-3.6-2.5-4.7c-0.7-0.4-1.4-0.4-2.2-0.1
					c-4.1,1.6-7.2,3.5-7.2,3.5C482.9,561.7,482.8,561.7,482.7,561.7z"/>
				<g>
					<path class="st11" d="M479.2,559.6l1-1.1c0.4-0.4,1-0.2,1.1,0.3l0.3,1.1c0.1,0.2,0.2,0.4,0.4,0.4l1,0.4
						c0.5,0.2,0.6,0.8,0.2,1.2l-0.9,0.7c-0.2,0.1-0.3,0.3-0.3,0.5l0,1.5c0,0.6-0.7,0.9-1.1,0.5l-0.7-0.7c-0.2-0.2-0.5-0.2-0.7-0.1
						l-1.1,0.5c-0.5,0.2-1.1-0.3-0.9-0.8l0.5-1.3c0.1-0.2,0-0.5-0.1-0.7l-0.7-0.7c-0.4-0.4-0.1-1,0.4-1.1l1.3-0.2
						C479,559.7,479.1,559.7,479.2,559.6z"/>
					<path class="st5" d="M477.9,565.1c-0.2,0-0.3-0.1-0.5-0.3c-0.3-0.3-0.4-0.7-0.3-1.1l0.5-1.3c0-0.1,0-0.2-0.1-0.3l-0.7-0.7
						c-0.3-0.3-0.3-0.7-0.2-1c0.1-0.4,0.4-0.6,0.8-0.7l1.3-0.2c0.1,0,0.1,0,0.2-0.1l1-1.1c0.3-0.3,0.6-0.4,1-0.3c0,0,0,0,0,0
						c0.4,0.1,0.6,0.4,0.7,0.7l0.3,1.1c0,0.1,0.1,0.2,0.2,0.2l1,0.4c0.4,0.1,0.6,0.4,0.6,0.8c0.1,0.4-0.1,0.7-0.4,1l-0.9,0.7
						c-0.1,0.1-0.1,0.1-0.1,0.2l0,1.5c0,0.4-0.2,0.8-0.6,0.9c-0.4,0.2-0.8,0.1-1.1-0.2l-0.7-0.7c-0.1-0.1-0.2-0.1-0.3-0.1l-1.1,0.5
						C478.3,565.1,478.1,565.1,477.9,565.1z M479.5,559.8L479.5,559.8c-0.2,0.2-0.4,0.3-0.6,0.3l-1.3,0.2c-0.2,0-0.2,0.1-0.2,0.2
						c0,0.1,0,0.2,0.1,0.3l0.7,0.7c0.3,0.3,0.3,0.7,0.2,1.1l-0.5,1.3c-0.1,0.2,0,0.3,0.1,0.3c0,0,0.2,0.1,0.3,0.1l1.1-0.5
						c0.4-0.2,0.8-0.1,1.1,0.2l0.7,0.7c0.1,0.1,0.3,0.1,0.3,0.1c0,0,0.2-0.1,0.2-0.3l0-1.5c0-0.3,0.2-0.6,0.4-0.8l0.9-0.7
						c0.1-0.1,0.1-0.2,0.1-0.3c0-0.1,0-0.2-0.2-0.2l-1-0.4c-0.3-0.1-0.5-0.4-0.6-0.7l-0.3-1.1c0-0.2-0.2-0.2-0.2-0.2
						c0,0-0.2,0-0.3,0.1L479.5,559.8z"/>
				</g>
				<g>
					<path class="st12" d="M512.1,575.9c0,0,2.2-2.9,3.3,0.4c1.1,3.3-3.7,5.9-3.7,5.9S510.5,579.2,512.1,575.9z"/>
					<path class="st5" d="M511.6,582.7l-0.2-0.4c-0.1-0.1-1.2-3.1,0.4-6.6l0-0.1c0.1-0.2,1.2-1.5,2.3-1.3c0.7,0.1,1.2,0.7,1.6,1.8
						c1.2,3.5-3.6,6.2-3.8,6.3L511.6,582.7z M512.4,576c-1.1,2.5-0.7,4.7-0.5,5.6c1.1-0.7,3.9-2.8,3.1-5.2c-0.2-0.6-0.5-1.2-1-1.3
						C513.4,575,512.7,575.7,512.4,576z"/>
				</g>
				<g>
					<path class="st12" d="M490.2,590.6c-0.2,0.7-2.8,5.4-1.8,9c1,3.6,1.6,6,1.4,6.7c-0.2,0.7-1.8,4.5,2.1,5.4s5.4-0.6,5.8-2.4
						c0,0,0.8,2.8,4,2.1c3.2-0.7,4.9-3,4.4-5.7c0,0,2.8-7.2-3.2-13.6S491.3,586,490.2,590.6z"/>
					<path class="st5" d="M491.8,612.1c-1.2-0.3-2-0.8-2.5-1.6c-0.8-1.4-0.3-3.1,0-3.9c0-0.1,0.1-0.2,0.1-0.3c0.2-0.8-1-5-1.4-6.6
						c-0.9-3.1,0.7-6.7,1.5-8.5c0.1-0.3,0.3-0.6,0.3-0.7c0.4-1.8,1.5-3,3.1-3.5c2.8-0.8,6.7,1,10.3,4.8c5.7,6,3.6,12.9,3.3,13.8
						c0.5,2.9-1.4,5.3-4.7,6.1c-2.3,0.5-3.5-0.6-4-1.5C497.2,611.6,495.6,613,491.8,612.1z M495.7,587.8c-0.9-0.2-1.8-0.2-2.6,0
						c-1.3,0.4-2.2,1.4-2.6,2.9c0,0.2-0.2,0.4-0.3,0.8c-0.7,1.5-2.2,5.1-1.4,8c1.2,4.2,1.6,6.2,1.4,6.9c0,0.1-0.1,0.2-0.1,0.3
						c-0.2,0.7-0.7,2.2-0.1,3.3c0.4,0.6,1,1.1,2,1.3c3,0.7,4.9,0,5.4-2.1l0.3-1.3l0.4,1.3c0,0.1,0.8,2.5,3.6,1.8
						c3-0.7,4.5-2.7,4.1-5.3l0-0.1l0-0.1c0-0.1,2.7-7.1-3.1-13.2C500.3,589.9,497.9,588.3,495.7,587.8z"/>
				</g>
				<g>
					<path class="st12" d="M501.3,592.9c0,0,11.1-0.8,12.5-6.8c1.4-6.1-1.9-14-10.2-20.5c-8.3-6.5-13.1-2-16.4,2.5s-13.1,21.7,3,24
						C490.2,592.1,494.5,593.1,501.3,592.9z"/>
					<path class="st5" d="M488.4,592.1c-3.5-0.8-5.8-2.5-6.8-5.1c-2.6-6.3,3-16,5.4-19.2c1.8-2.5,4.4-5.3,8-5.8
						c2.7-0.4,5.7,0.7,9,3.2c7.9,6.2,11.9,14.2,10.3,20.9c-1.5,6.3-12.4,7.1-12.9,7.1l0,0c-6.8,0.3-11.2-0.8-11.2-0.8
						C489.5,592.4,488.9,592.3,488.4,592.1z M497.8,562.9c-1-0.2-1.9-0.3-2.8-0.2c-3.3,0.4-5.7,3.2-7.5,5.5
						c-2.3,3.1-7.8,12.5-5.3,18.5c1.1,2.7,3.8,4.4,8,5c0.1,0,4.3,1,11,0.8c0.3,0,10.9-0.9,12.2-6.5c1.5-6.4-2.3-14.1-10.1-20.1
						C501.5,564.3,499.6,563.3,497.8,562.9z M501.3,592.9L501.3,592.9L501.3,592.9z"/>
				</g>
				<g>
					<path class="st12" d="M488.8,577.5c0,0-1.6-2.6-3.6-0.8s0.3,6.5,1.6,7.5"/>
					<path class="st5" d="M486.7,584.5c-0.1,0-0.1,0-0.2-0.1c-0.9-0.8-2.4-3.5-2.5-5.7c0-1.1,0.3-1.9,0.9-2.4
						c0.6-0.6,1.2-0.8,1.9-0.7c1.3,0.2,2.2,1.6,2.2,1.6c0.1,0.2,0.1,0.4-0.1,0.5c-0.2,0.1-0.4,0.1-0.5-0.1c0,0-0.7-1.2-1.7-1.3
						c-0.4-0.1-0.9,0.1-1.3,0.5c-0.4,0.4-0.7,1-0.6,1.9c0.1,1.9,1.4,4.4,2.2,5.1c0.2,0.1,0.2,0.4,0,0.5
						C487,584.5,486.8,584.5,486.7,584.5z"/>
				</g>
				<path id="XMLID_00000098199935516074575430000008380346837097652609_" class="st13" d="M494,591.9c0,0,2.1-0.7,0.8-1.7
					s-6.6-24.5-6.6-24.5s-0.3-2-2.3-1.3s-1.7,2.2-0.7,6.2c0.9,4,7.3,19.8,7.2,20.5C492.1,591.8,492.8,592.1,494,591.9z"/>
				<polygon class="st9" points="491.5,588.6 493.7,587.9 494.6,590.1 495.3,591 494.1,591.7 493.2,591.2 492.3,591.1 				"/>
				<path class="st5" d="M492.8,592.3c-0.3-0.1-0.5-0.2-0.6-0.3c-0.1-0.2-0.3-0.4-0.2-0.9c0-0.6-1.5-4.5-2.8-8
					c-1.8-4.8-3.8-10.2-4.3-12.4c-1-4.1-1.4-5.9,1-6.7c0.7-0.2,1.4-0.2,1.9,0.1c0.8,0.5,0.9,1.4,0.9,1.5c2,8.9,5.6,23.5,6.5,24.3
					c0.5,0.4,0.6,0.8,0.5,1.1c-0.1,0.8-1.2,1.2-1.5,1.2l-0.1,0C493.5,592.4,493.1,592.3,492.8,592.3z M494,591.9L494,591.9
					L494,591.9z M486.9,564.6c-0.3-0.1-0.6,0-1,0.1c-1.6,0.5-1.5,1.6-0.5,5.8c0.5,2.1,2.5,7.5,4.3,12.3c2.4,6.4,3,8,2.9,8.4
					c0,0.2,0,0.2,0,0.2c0,0,0.3,0.2,1.2,0.1c0.4-0.1,0.9-0.4,0.9-0.7c0-0.1-0.2-0.3-0.3-0.4c-1.3-1.1-5.8-20.8-6.7-24.7
					c0,0-0.1-0.7-0.6-1C487.1,564.7,487,564.6,486.9,564.6z"/>
				<path class="st14" d="M500.9,581.8c0,0-0.4-1.6-3.3-0.4c-2.2,0.9-2.1,2.5,0.3,2C500.3,582.8,501,582.9,500.9,581.8"/>
				<path class="st14" d="M512.2,580.3c0,0-0.3-1.3-2.8-0.4c-1.9,0.7-1.8,2.1,0.3,1.6C511.7,581.1,512.3,581.1,512.2,580.3"/>
				<path class="st5" d="M502.5,580.2c-0.2,0.1-0.5,0-0.6-0.2c-0.5-0.9-1.8-3.5-1-4.5C501.9,574.3,503.9,579.5,502.5,580.2z"/>
				<path class="st5" d="M506.6,579.2c-0.2,0.1-0.4,0-0.5-0.2c-0.4-0.8-1.6-3.1-0.9-4C506,573.9,507.9,578.6,506.6,579.2z"/>
				<g>
					<path class="st12" d="M499.4,594.3c0,0-3.2-5.6-5.9-2.2c0,0-1.6,1.9,1.7,5.7s6.7,0.5,6.7,0.5"/>
					<path class="st5" d="M497.7,599.9c-1-0.2-1.9-0.8-2.8-1.8c-3.4-4-1.7-6.1-1.7-6.1c0.7-0.9,1.5-1.3,2.4-1.3
						c2.2,0.2,4,3.3,4.1,3.5c0.1,0.2,0,0.4-0.1,0.5c-0.2,0.1-0.4,0-0.5-0.1c0,0-1.7-3-3.5-3.1c-0.6,0-1.2,0.3-1.8,1
						c0,0-1.3,1.7,1.7,5.2c0.9,1.1,1.9,1.6,3,1.7c1.8,0.1,3.1-1.2,3.1-1.2c0.1-0.1,0.4-0.1,0.5,0c0.1,0.1,0.1,0.4,0,0.5
						c-0.1,0.1-1.6,1.5-3.7,1.5C498.2,600,497.9,599.9,497.7,599.9z"/>
				</g>
				<g>
					<path class="st12" d="M503.9,604c0,0,1.5,0.8,2.3,2.1"/>
					<path class="st5" d="M506.1,606.4c-0.1,0-0.2-0.1-0.2-0.2c-0.7-1.2-2.1-1.9-2.1-1.9c-0.2-0.1-0.3-0.3-0.2-0.5
						c0.1-0.2,0.3-0.3,0.5-0.2c0.1,0,1.6,0.8,2.4,2.2c0.1,0.2,0,0.4-0.1,0.5C506.3,606.5,506.2,606.5,506.1,606.4z"/>
				</g>
				<g>
					<path class="st12" d="M501.3,602.3c0,0-6.7-0.5-3.6,7.1"/>
					<path class="st5" d="M497.7,609.7c-0.1,0-0.2-0.1-0.3-0.2c-1.1-2.6-1.1-4.6-0.2-5.9c1.3-1.8,4-1.7,4.1-1.7
						c0.2,0,0.4,0.2,0.3,0.4c0,0.2-0.2,0.4-0.4,0.3c0,0-2.4-0.1-3.5,1.3c-0.8,1.1-0.7,2.9,0.3,5.2c0.1,0.2,0,0.4-0.2,0.5
						C497.8,609.7,497.7,609.7,497.7,609.7z"/>
				</g>
				<g>
					<path class="st12" d="M493.2,604.9c0,0,3.2,0.6,3.9,2.4"/>
					<path class="st5" d="M497,607.6c-0.1,0-0.2-0.1-0.3-0.2c-0.5-1.3-2.8-2-3.7-2.2c-0.2,0-0.3-0.2-0.3-0.4c0-0.2,0.2-0.3,0.4-0.3
						c0.1,0,3.4,0.7,4.2,2.6c0.1,0.2,0,0.4-0.2,0.5C497.2,607.6,497.1,607.6,497,607.6z"/>
				</g>
				<g>
					<path class="st12" d="M489.5,592.5c0,0,1.9-2.4,4.6-1c0,0-2,1.2,0,4.9c0.9,1.6-3.3,3-3.3,3"/>
					<path class="st5" d="M490.6,599.7c-0.1,0-0.2-0.1-0.3-0.2c-0.1-0.2,0-0.4,0.2-0.5c0.8-0.2,2.8-1,3.2-1.9c0.1-0.2,0.1-0.3,0-0.5
						c-1.5-2.8-0.8-4.3-0.3-4.9c-2.1-0.7-3.6,1-3.6,1.1c-0.1,0.2-0.4,0.2-0.5,0.1c-0.2-0.1-0.2-0.4-0.1-0.5c0,0,2.1-2.6,5-1.1
						l0.6,0.3l-0.6,0.3c-0.1,0-1.7,1.1,0.1,4.4c0.2,0.4,0.2,0.8,0.1,1.1c-0.6,1.4-3.3,2.3-3.6,2.4
						C490.8,599.8,490.7,599.8,490.6,599.7z"/>
				</g>
			</g>
		</g>
	</g>
</g>
</svg>
