<?xml version="1.0" encoding="utf-8"?>
<!-- Generator: Adobe Illustrator 27.7.0, SVG Export Plug-In . SVG Version: 6.00 Build 0)  -->
<svg version="1.1" id="레이어_1" xmlns="http://www.w3.org/2000/svg" xmlns:xlink="http://www.w3.org/1999/xlink" x="0px"
	 y="0px" viewBox="0 0 1080 1013.3" style="enable-background:new 0 0 1080 1013.3;" xml:space="preserve">
<style type="text/css">
	.st0{fill:#F7F7F7;}
	.st1{fill:#9D9D9D;}
	.st2{fill:#04060A;}
	.st3{fill:#EB9889;}
	.st4{fill:#DEDF73;}
	.st5{fill:#322F28;}
	.st6{display:none;fill:#303030;stroke:#000000;stroke-width:5;stroke-miterlimit:10;}
	.st7{display:none;}
	.st8{display:inline;fill:#182349;stroke:#000000;stroke-width:5;stroke-miterlimit:10;}
	.st9{display:inline;}
	.st10{fill:#303030;stroke:#000000;stroke-width:5;stroke-miterlimit:10;}
	.st11{display:inline;fill:none;stroke:#000000;stroke-width:5;stroke-miterlimit:10;}
	.st12{display:inline;fill:#303030;stroke:#000000;stroke-width:5;stroke-miterlimit:10;}
	.st13{display:inline;fill:#262626;stroke:#000000;stroke-width:5;stroke-miterlimit:10;}
	.st14{display:inline;fill:#FFFFFF;stroke:#000000;stroke-width:5;stroke-miterlimit:10;}
	.st15{display:inline;stroke:#000000;stroke-width:5;stroke-miterlimit:10;}
	.st16{display:none;fill:#DDC0AF;stroke:#000000;stroke-width:5;stroke-miterlimit:10;}
	.st17{display:inline;fill:#FAFBFF;}
	.st18{fill:#5584D8;stroke:#000000;stroke-width:5;stroke-miterlimit:10;}
	.st19{fill:#FFFFFF;}
	.st20{fill:#FF8B22;stroke:#000000;stroke-width:5;stroke-miterlimit:10;}
	.st21{fill:#F37321;}
	.st22{fill:none;stroke:#000000;stroke-width:5;stroke-miterlimit:10;}
	.st23{display:inline;fill:#4E576C;stroke:#000000;stroke-width:5;stroke-miterlimit:10;}
</style>
<g>
	<g>
		<path class="st0" d="M751.3,649.5c0,0,34,40.4,82.3,79.8s92.6,80.3,66.5,104.4c-26.1,24.1-50.2-32-104.9-69.5
			c-54.7-37.4-83.2-80.3-83.2-80.3L751.3,649.5z"/>
		<path class="st1" d="M751.3,649.5l-25,21.8c0.9,9.5,2.2,22.9,3.4,35.1c13.9,15.8,35.8,37.6,65.4,57.8c0.9,0.6,1.9,1.3,2.8,1.9
			c18.9,6.5,42.4,13,49.4,7.9c5.8-4.2,8.2-14.6,7.7-26.8c-6.9-6-14.2-12-21.5-18C785.3,689.9,751.3,649.5,751.3,649.5z"/>
		<path class="st2" d="M887,842.5c-4.1,0-8.5-1.3-13.1-4c-9.1-5.2-18.8-15.3-30.1-26.9c-14-14.5-29.9-30.8-50.3-44.9
			c-54.5-37.3-83.7-80.7-84-81.1l-1.4-2.2l43.6-38.2l1.9,2.3c0.3,0.4,34.4,40.6,81.9,79.4c44.7,36.5,74.6,65.6,75.3,89.1
			c0.2,7.6-2.7,14.3-8.7,19.8C897.3,840.3,892.3,842.5,887,842.5z M715.9,684.4c6.5,9,34.3,45.4,81,77.4
			c21,14.4,37.8,31.7,51.2,45.6c24.3,25.1,36.5,36.6,50,24.1c4.8-4.4,7-9.4,6.8-15.3c-0.7-22.5-35.6-54-73.1-84.7
			c-41.4-33.8-72.7-68.8-80.7-77.9L715.9,684.4z"/>
	</g>
	<g>
		<path class="st0" d="M417.2,474.8c0,0-22.5,7.7-40.7,3.8s-33-13.8-33-13.8s-4.9-43.3-32-47.8c-27.1-4.4-66,3.9-69.5,3.9
			c-3.4,0-26.1,0-22.7,15.8c3.4,15.8,23.2,19.2,23.2,19.2s4.4,44.3,31,51.7c26.6,7.4,38.4,1.5,38.4,1.5s44.8,17.7,64.5,23.6
			s33,15.3,67,3s28.1-15.8,28.1-15.8s13.8,43.8,5.9,66s-12.8,19.7-26.6,19.7c-13.8,0-73.4-8.9-90.6,21.7
			c-17.2,30.5,44.3,102,67,114.3c0,0-28.1,35-18.7,58.1c9.4,23.2,33.5,25.1,63.1,7.4c29.6-17.7,45.3-55.2,38.9-69s-18-16-36.2-17
			c0,0-25.1-27.1-9.9-38.9c0,0,2.5-3,26.1,8.4c23.6,11.3,115.3,30.5,156.6,31.5c0,0,3,6.4,2.5,29.6c-0.5,23.2-0.5,26.1-5.9,34.5
			s-22.2,39.4,0.5,74.9s58.1,40.4,71.9,18.2c13.8-22.2-2.5-57.6-15.8-76.8c0,0,35-53.2,57.6-150.7S777.7,468,732.8,402
			c0,0,17.7-37.9,39.4-32.5s27.6,32.5,27.6,32.5s-9.4,34.5,10.8,51.7s21.7,2.5,21.7,2.5s15.3,16.7,42.4,1s28.6-88.7-29.1-91.1
			c0,0-47.3-62.1-98-58.6c-50.7,3.4-96.5,74.4-96.5,74.4L417.2,474.8z"/>
		<path class="st1" d="M732.8,402c0,0,1.2,3.2,2.2-3.2c3.9-5.9,4.9-14.3,11.3-24.6c11.4-18.4,13.6-18.7,14.3-32
			c0.5-9.4-4.4-26.9-49.3-21.8c-34.4,21.4-60.3,61.5-60.3,61.5l-233.9,93c0,0-8.2-0.7-26.9,3.3c-8.3,6.2-25.1,5.9-33.5,23.6
			c-2.3,5-3,19.2,7.4,28.1c8.1,2.9,6.7,1.3,12.3,3c19.7,5.9,33,15.3,67,3c23.5-8.5,27.9-12.8,28.4-14.6c2.1,7,12.7,44.8,5.6,64.9
			c-7.9,22.2-12.8,19.7-26.6,19.7c-8.8,0-36.4-3.6-59.6,1.7c-6.1,7.5-11.9,17.7-14,31c-5.4,33,16.3,55.7,29.6,62.1
			c13.3,6.4,24.6,14.3,41.4,2.5c6-4.2,9-9,11.5-12.6c0.4-3.1,1.9-5.8,4.8-8.1c0,0,2.5-3,26.1,8.4c9.7,4.6,30.7,10.6,55,16.1
			c-10.3-15.6-27.8-46.1-28.4-76.2c-1-42.9,5.9-88.7,26.6-100c20.7-11.3,59.6-11.8,77.8-18.2s34-9.9,42.9,13.8
			c8.9,23.7,16.7,105.9,0,139.4c-14.1,28.3-22.7,41.1-48.6,53.9c11.9,1.6,22.8,2.6,31.4,2.8c0,0,1.5,3.3,2.2,13.6
			c5.4,5.3,18.1,16.4,30.8,16.4c16.7,0,49.8-32,77.8-100.5C780.6,554.2,777.7,468,732.8,402z"/>
		<path class="st2" d="M751.7,307.3c49.2,0,93.9,58.8,93.9,58.8c57.6,2.5,56.2,75.4,29.1,91.1c-8.7,5-16.1,6.8-22.3,6.8
			c-13,0-20.1-7.7-20.1-7.7s-0.6,5.9-6.1,5.9c-3.2,0-8.1-2-15.6-8.4c-20.2-17.2-10.8-51.7-10.8-51.7s-5.9-27.1-27.6-32.5
			c-1.4-0.4-2.9-0.5-4.3-0.5c-19.7,0-35.1,33-35.1,33c44.8,66,47.8,152.2,25.1,249.7s-57.6,150.7-57.6,150.7
			c13.3,19.2,29.6,54.7,15.8,76.8c-5.5,8.8-14.5,13.4-24.7,13.4c-15.4,0-33.6-10.3-47.2-31.6c-22.7-35.5-5.9-66.5-0.5-74.9
			s5.4-11.3,5.9-34.5s-2.5-29.6-2.5-29.6c-41.4-1-133-20.2-156.6-31.5c-15.5-7.4-21.9-8.7-24.5-8.7c-1.3,0-1.6,0.3-1.6,0.3
			c-15.3,11.8,9.9,38.9,9.9,38.9c18.2,1,29.8,3.2,36.2,17c6.4,13.8-9.4,51.2-38.9,69c-13.1,7.9-25.1,11.8-35.3,11.8
			c-12.8,0-22.6-6.3-27.8-19.2c-9.4-23.2,18.7-58.1,18.7-58.1c-22.7-12.3-84.2-83.7-67-114.3c10.9-19.3,38.8-22.9,61.3-22.9
			c13.1,0,24.3,1.2,29.4,1.2c2.5,0,4.7,0.1,6.7,0.1c9,0,13.4-1.6,19.9-19.8c7.1-20.1-3.5-57.9-5.6-64.9c0.2-0.8-0.3-1.1-0.3-1.1
			s0.1,0.4,0.3,1.1c-0.5,1.8-4.9,6.1-28.4,14.6c-12.2,4.4-21.7,6-29.8,6c-14.5,0-24.5-5.2-37.2-9C356.8,526.7,312,509,312,509
			s-4.5,2.2-14.1,2.2c-6,0-14.1-0.9-24.3-3.7c-26.6-7.4-31-51.7-31-51.7s-19.7-3.4-23.2-19.2c-3.4-15.8,19.2-15.8,22.7-15.8
			c2.7,0,27.6-5.2,51.3-5.2c6.3,0,12.5,0.4,18.1,1.3c27.1,4.4,32,47.8,32,47.8s14.8,9.9,33,13.8c3.7,0.8,7.6,1.1,11.4,1.1
			c15,0,29.3-4.9,29.3-4.9l233.9-93c0,0,45.8-70.9,96.5-74.4C749,307.3,750.4,307.3,751.7,307.3 M751.7,301.3c-1.5,0-3,0.1-4.5,0.2
			c-12.6,0.9-25.7,5.5-39.2,14c-10.5,6.6-21.2,15.4-31.9,26.3c-15.1,15.4-25.6,30.4-28.9,35.2l-232,92.3c-1.3,0.4-14.1,4.5-27.3,4.5
			c-3.7,0-7.1-0.3-10.2-1c-13-2.8-24.2-8.9-28.8-11.6c-1.7-10.5-9.5-45.6-36.5-50c-5.6-0.9-12-1.4-19.1-1.4c-18.2,0-37.2,3-46.3,4.5
			c-2.2,0.3-4.5,0.7-5.1,0.8c-8.4,0-19.7,1.5-25.4,8.7c-2.2,2.7-4.4,7.4-2.9,14.3c3.2,14.5,16.6,20.5,23.6,22.7
			c1.9,11.9,9.5,45.7,34.8,52.7c9.4,2.6,18.1,3.9,25.9,3.9c6.7,0,11.4-1,14-1.8c9.2,3.6,45.4,17.7,62.9,23c3.1,0.9,6.1,2,9.1,3
			c8.8,3.1,18,6.2,29.8,6.2c9.5,0,20-2.1,31.8-6.4c10.2-3.7,18-7,23.1-9.9c4.6,18.3,7.6,40.4,3.3,52.6c-2.7,7.6-5.1,12.3-7.3,14.2
			c-1.4,1.3-3,1.6-7,1.6c-0.9,0-1.8,0-2.9,0c-1.2,0-2.5,0-3.9,0c-1.8,0-4.6-0.2-8-0.4c-5.6-0.3-13.2-0.8-21.4-0.8
			c-14.6,0-26.6,1.4-36.7,4.4c-14.1,4.2-24.1,11.4-29.8,21.4c-4.5,8-5,18.3-1.4,30.7c6.2,21.5,22.8,43.9,32.1,55.3
			c11.3,13.8,23.5,25.9,32.9,32.7c-2.7,3.9-6.3,9.5-9.7,16.2c-8.6,17-10.6,31.4-6,42.6c6,14.8,17.8,22.9,33.3,22.9
			c11.4,0,24.3-4.3,38.3-12.7c7.5-4.5,14.5-10.4,20.8-17.5c5.6-6.3,10.5-13.5,14.3-20.9c7.8-15.2,10.1-29.5,6.1-38.2
			c-3.7-7.9-9.2-13.2-16.8-16.3c-6.1-2.4-13.2-3.4-21.9-4c-1.4-1.7-3.6-4.5-5.7-7.7c-4.1-6.4-6.3-12.1-5.9-16
			c0.1-1.5,0.6-2.7,1.5-3.8c2.1,0.3,7.8,1.8,21,8.1c13.9,6.7,46.8,14.7,73,20.1c32,6.5,61.9,10.9,81.5,11.8
			c0.7,3.8,1.5,11.1,1.2,23.7v0.8c-0.5,22.8-0.7,24-4.9,30.6c-3.2,5-9,15.5-11.2,29.6c-1.2,8.1-1.1,16.2,0.4,24.1
			c1.8,9.5,5.6,18.7,11.2,27.6c6.9,10.8,15.5,19.6,24.8,25.6c8.9,5.7,18.4,8.7,27.5,8.7c6.1,0,11.8-1.4,16.9-4.1
			c5.2-2.8,9.5-6.9,12.8-12.1c3.8-6.1,5.9-13.4,6.1-21.6c0.2-6.9-0.9-14.5-3.2-22.7c-4.4-15.4-12.1-28.6-16.7-35.8
			c3.3-5.5,10.2-17.7,18.7-36.2c10.7-23.5,25.9-62.2,37.7-113c5.8-25.1,9.9-49.2,12.1-71.7c2.3-23.6,2.6-46.1,0.8-66.9
			c-1.8-21.8-5.9-42.4-12.1-61.3c-6.1-18.5-14.4-35.9-24.8-51.7c1.6-3,4.5-7.9,8.2-12.7c4.9-6.4,12.4-14,20.1-14
			c1,0,1.9,0.1,2.8,0.4c15.4,3.9,21.5,21.9,22.9,26.8c-1.7,7.5-7.3,38.8,13.1,56.2c7.7,6.6,14,9.8,19.4,9.8c3.4,0,6.1-1.3,8-3
			c4.1,2.4,10.3,4.9,18.2,4.9c8.1,0,16.6-2.5,25.2-7.6c8.3-4.8,14.8-14,18.3-26c3.4-11.4,3.6-24,0.8-35.5
			c-2.8-11.2-8.4-20.8-16.2-27.7c-8.5-7.5-19.2-11.8-31.9-12.8c-3.8-4.7-13.8-16.4-27.7-28.2c-10.4-8.8-20.9-15.9-31.2-21
			C776.7,304.6,763.9,301.3,751.7,301.3L751.7,301.3z"/>
	</g>
	<g>
		<path class="st1" d="M355.3,258.1c0,0-1-56.2,20.2-87.8c18.4-27.4,34.5-53.3,44.3-58.2c9.9-4.9,20.2-14.3,28.1-4.9
			s15.8,74.8,21.2,84.2c5.4,9.4,4.9,30.5,4.9,30.5s23.2,0.2,34.5,2.7s44.3,2,44.3,2s11.8-52.6,21.7-66.2
			c18.2-25.1,62.1-39.4,70.4-32.9c5.3,4.1,3.4,54.6,5.4,70.8c2,16.3,6.9,69.2,10.3,73.6s30,19.5,30,42.6c0,13.4-3.9,95.5-17.7,120.6
			s-59.1,49.3-92.6,55.2s-106.4,5.4-134-3s-49.3-30.1-60.6-35c-11.3-4.9-33-16.8-42.9-40.4c-9.9-23.7-22.7-60.7-14.8-90.2
			C336.1,292.1,355.3,258.1,355.3,258.1z"/>
		<path class="st0" d="M432.6,217.5c0,0,15.8-23.2,12.8-38.4s-13.3-43.8-28.1-40.4s-13.8,34.5-14.8,38.4s-30,29.6-22.2,48.8
			C388.3,245.1,421.3,228.8,432.6,217.5z"/>
		<path class="st0" d="M574,226.9c0,0,14.3-48.8,36.9-65.5s29.6-1.5,27.1,11.8s-8.4,21.2-8.4,21.2s21.2,17.2,11.3,31
			s-54.2,15.8-54.2,15.8S574.5,240.6,574,226.9z"/>
		<path class="st0" d="M481.4,319c0,0,11.3-71.9,22.2-74.9c10.8-3,12.8,21.2,15.3,36s16.7,37.9,30.5,45.3s63.5,36.9,63.1,78.8
			c-0.5,41.9-20.5,83-38.1,87.8s-91.5,6.3-136.3-8.5S391.7,380,413.9,355.4C436.1,330.8,445.4,317,481.4,319z"/>
		<path class="st2" d="M449.9,223.4c0,0-3.4-32-9.9-46.8c-6.4-14.8-4.4-37.4-1.5-37.4S461.2,208.6,449.9,223.4z"/>
		<path class="st2" d="M442,215c0,0-6.9-26.6-19.2-26.6s6.9,12.3,10.8,18.7S439,217.5,442,215z"/>
		<path class="st2" d="M439,221.9c0,0-14.3-5.9-22.2-10.8s-12.3-8.9-14.3-5.4c-2,3.4,2,6.4,17.2,14.3
			C435.1,227.8,443,230.3,439,221.9z"/>
		<path class="st2" d="M566.6,232.8c0,0,4.9-29.6,15.3-47.3c10.3-17.7,17.2-19.2,18.7-16.3c1.5,3-9.4,18.7-13.8,28.1
			c0,0-7.9,15.8-9.9,24.6C575,230.8,571.5,235.2,566.6,232.8z"/>
		<path class="st2" d="M579.9,234.2c0,0,16.7-20.2,21.7-20.2c4.9,0,1-8.9-8.9-2.5S570.5,233.3,579.9,234.2z"/>
		<path class="st2" d="M584.8,237.2c0,0,18.7-15.3,26.1-13.8S586.8,247.1,584.8,237.2z"/>
		<path class="st2" d="M501.6,320.9c0,0,6.4,3.4,9.4,4.4s2,6.4-2.5,4.9C504,328.8,494.7,325.4,501.6,320.9z"/>
		<path class="st3" d="M548.6,389.2c0,0-10.3,47.3-22.7,49.8s-30-27.1-30-27.1l-9.4-23.2l9.9-13.3l11.7-15.9l16.4,15.4L548.6,389.2z
			"/>
		<path class="st2" d="M507.5,350.5c0,0-18.7,36.9-33,36c-14.3-1-17.2-27.1-28.1-26.1s11.3,32.5,21.7,34c10.3,1.5,15.3,1.5,15.3,1.5
			s10.3,37.9,39.9,48.3c0,0,7.9,3.4,14.8-10.3c6.9-13.8,13.8-43.8,13.8-43.8s-4.7-4.7-7.1-1.2c-2.5,3.4-10.8,46.3-19.2,46.8
			s-29.1-22.2-34-41.4c0,0-3.4-5.9,3-10.8s13.8-15.8,15.3-23.6C511.2,351.7,509.2,349.3,507.5,350.5z"/>
		<path class="st2" d="M568.8,364.5c0,0-7.4,22.7-24.6,17.7c-17.2-4.9-30-21.7-32.5-30.5c0,0-2.5-3.4-4.2-1.2s-1.7,15.5,16,29.8
			s32,15.8,40.4,7.9s12.8-19.2,12.8-19.2s10.3-17.7,6.4-21.2C579.2,344.3,574.7,362.1,568.8,364.5z"/>
		<path class="st2" d="M561.4,354.7c0,0,6.9,8.9,27.6,10.8c20.7,2,61.1-1.5,61.6,4.9s-54.7,3.9-69.9,0.5s-23.2-9.9-23.2-14.8
			C557.5,351.2,561.4,354.7,561.4,354.7z"/>
		<path class="st2" d="M565.1,342.7c-0.1,1.7,1.4,3.1,3.1,3c4.5-0.2,16.2-1.4,26.7-6.8c13.3-6.9,40.4-15.3,69.9-13.3
			c0,0,3.4-3.4-1.5-5.9s-22.7-2.5-53.7,6.9c0,0-8.1,3.2-18,4.2s-24.1-3.9-25.1-0.5s19.3,4.5,20.7,5.9c1.2,1.2-12.9,5-19.5,3.7
			C567.8,339.9,565.3,340.7,565.1,342.7z"/>
		<path class="st2" d="M446.7,353.2c0,0-39.2-3.7-52.5-7.6s-29.8-5.2-49.5,6.2c-19.7,11.3-0.5-20.4,33.2-15.5
			c34,4.9,37.7,9.1,63.8,10.6C441.7,346.8,451.1,347.8,446.7,353.2z"/>
		<path class="st2" d="M440.3,373.4c0,0-4.9,1.5-36.7,9.1s-54.9,29.8-56.4,34.2s4.4,4.9,16.7-7.9c12.3-12.8,39.9-21.7,52.7-24.1
			C429.4,382.3,447.1,380.8,440.3,373.4z"/>
		<path class="st2" d="M520.5,497.3c-29.2,0-59.1-2.3-74.9-7.1c-18.5-5.6-34.5-17.1-46.1-25.5c-6-4.3-11.1-8-14.8-9.6
			c-12.3-5.3-34.4-17.9-44.4-42c-16.2-38.9-21.1-69-14.9-92.1c7.4-27.6,24.1-58.5,27-63.6c0-7.3,0.4-58.4,20.7-88.7
			c2.6-3.9,5.2-7.8,7.7-11.5c16-24.1,28.6-43.1,37.8-47.7c1.8-0.9,3.7-2,5.6-3.1c8.1-4.7,18.1-10.5,26.1-1.1
			c4.6,5.5,8.4,23.6,13.5,50.6c2.9,14.9,5.8,30.3,7.9,34c4.6,7.9,5.2,22.8,5.3,29.1c6.7,0.1,23,0.7,32.1,2.7c9.2,2,33.7,2,41.3,1.9
			c2.4-10.4,12.6-52.6,21.6-65c14.8-20.5,44.4-32.9,60.6-35.3c6.6-0.9,11.3-0.4,14,1.7c4.1,3.2,4.8,16.5,5.4,46.1
			c0.2,10.8,0.4,21,1.1,26.7c0.4,3.5,1,8.5,1.6,14.4c1.9,17.5,5.8,53.7,8.2,57.8c0.6,0.7,2.5,2.2,4.3,3.7c9.2,7.3,26.3,21,26.3,40.7
			c0,11.1-3.6,95.6-18.1,122c-6.7,12.2-20.9,25-40,36c-17.7,10.2-37.6,17.7-54.7,20.8C566,495.9,543.4,497.3,520.5,497.3z
			 M440,106.2c-3.2,0-7.3,2-12.9,5.3c-1.9,1.1-3.9,2.3-5.9,3.3c-7.7,3.9-21.2,24.2-35.5,45.6c-2.5,3.8-5.1,7.7-7.7,11.5
			c-20.4,30.4-19.7,85.5-19.7,86.1v0.8l-0.4,0.7c-0.2,0.3-19.1,34.1-26.8,62.9c-5.8,21.8-1,50.7,14.7,88.3
			c9.2,22.2,29.8,33.9,41.3,38.9c4.2,1.8,9.4,5.5,15.9,10.2c11.3,8.2,26.8,19.3,44.4,24.7c27.2,8.3,100,8.6,132.6,2.9
			c32-5.6,77-29.1,90.5-53.7c12.8-23.4,17.4-101.4,17.4-119.2c0-16.8-15.7-29.3-24.1-36.1c-2.6-2.1-4.4-3.5-5.3-4.7
			c-2.8-3.5-5.2-22.4-9.3-60.7c-0.6-5.9-1.2-10.9-1.6-14.3c-0.7-6-0.9-16.3-1.2-27.3c-0.2-9.4-0.4-19.2-0.9-27.2
			c-0.8-11.4-1.9-14-2.3-14.5c-0.6-0.4-2.8-1.4-9.5-0.5c-14.8,2.1-43,14-56.7,32.9c-9.4,12.9-21.1,64.6-21.2,65.1l-0.5,2.3H553
			c-1.4,0-33.5,0.5-45-2c-10.9-2.4-33.6-2.6-33.9-2.6h-3l0.1-3c0.1-5.7-0.4-21.9-4.5-29c-2.5-4.3-4.9-16.4-8.6-35.8
			c-3.5-18.3-8.3-43.3-12.3-48C443.9,107.1,442.1,106.2,440,106.2z M643,129.6L643,129.6L643,129.6z"/>
		<path class="st4" d="M456.8,325.4c0,0,7.4,1.5,6.4-10.8s-3.9-46.3-24.1-47.8s-25.1,31.5-25.6,33.5s-8.4,13.3,14.3,21.2
			C450.3,329.3,456.8,325.4,456.8,325.4z"/>
		<path class="st2" d="M458.7,300.7c0,0,1.3,18.7,4.3,18.7s3.1-11.3,2.1-17.7c-1-6.4-4.9-39.4-24.1-41.4s-27.6,23.6-32,34
			c-4.4,10.3-1.5,25.1,16.7,28.6c18.2,3.4,31,7.9,35,3c3.9-4.9-11.8-3-24.1-7.4s-24.6-3.9-19.7-19.2s10.8-27.1,18.7-27.1
			S452.3,271.2,458.7,300.7z"/>
		<path class="st2" d="M434.1,267.7c0,0-10.8,41.4-6.4,50.7c4.4,9.4,14.8-9.4,18.7-25.1S452.8,255.4,434.1,267.7z"/>
		<path class="st5" d="M438.5,280.1c0,0-2,12.8,0.5,13.3C441.5,293.8,443,278.1,438.5,280.1z"/>
		<path class="st5" d="M433.6,305.7c0,0-3.9,0.5-3,3.9C431.6,313.1,442.5,310.6,433.6,305.7z"/>
		<path class="st4" d="M598.1,311.6c0,0-3.9,19.2-21.2,16.7c-17.2-2.5-37.9-13.3-34.5-23.6c3.4-10.3,13.8-26.6,18.2-30.5
			s16.7-18.2,25.1-12.3C594.2,267.7,598.6,286.5,598.1,311.6z"/>
		<path class="st2" d="M568.1,267.7c0,0-4.4,10.8-6.4,30s2,25.6,5.9,25.6s7.4-12.3,8.9-24.1C577.9,287.4,579.9,254.4,568.1,267.7z"
			/>
		<path class="st2" d="M579.9,327.3c0,0-20.2-3-28.1-9.9c-7.9-6.9-4.4-19.7,4.9-33c9.4-13.3,21.7-25.6,29.6-17.7s12.8,33,10.3,46.8
			c0,0-1,3.9,3,2c3.5-1.8,6.4-27.6,0-42.4s-14.3-19.7-28.6-13.8c-14.3,5.9-27.1,28.1-31,38.9s-2.5,23.2,19.7,30
			C581.9,335.2,585.8,327.8,579.9,327.3z"/>
	</g>
</g>
<path class="st6" d="M450.9,602.2c0,0-43.9-15.4-75.3,3c-40,23.4-20.9,67.5-1.8,96c22,32.8,32,43.3,32,43.3l73.5-32.6
	c0,0-13.6-21.9-4.1-19c9.5,3,53.8,15.4,85.6,23.1s75,11.9,75,11.9L637,767l78.8,33.2c0,0,75.1-107.2,49.8-164.7
	c-3.3-7.4-58.4-22.5-149-33.2c-29.5-3.5-52.6-5-66.7-5.3c-18.7-0.5-35.4-0.5-54.1,0.8L450.9,602.2z"/>
<g class="st7">
	<path class="st8" d="M768.6,650.2l4.1-27.9c3-34.3,3.5-68.9,1.4-103.3l-2.3-26.2c0,0-7.4-53-21.6-83.3l24.6-11.6l-44.4-94.4
		l-38.8,17.2c0,0-3,92.4-20.1,117.9c-17.2,25.5-55.7,40.3-75.3,49.8l-8.3,23.1l-27.3,4.4l-43.3-22.1h-25.5c0,0-48.6,1.6-76.4-22.7
		l-10.4-0.6l-0.9,85.8c0,0,33.5,5.6,61.3-2.7l-0.5,4.4c-1.8,16.2-5.5,27.5-13,41.9l-1,1.9c0,0,30.2,13.3,143.4,32
		c53.9,8.9,111.4,11.9,111.4,11.9L768.6,650.2z"/>
	<g class="st9">
		<path class="st10" d="M517.3,493.9c0,0,19.4,37.5,51.4,53.5c0,0,9.4,73.7,5.4,91.7c0,0-70.3-12.2-121.4-29.8
			c-6.2-2.2-12.1-7.9-8.9-13.6c0.9-1.6,6.1-12.1,7.1-14.2c8.3-16.6,11-29,20.9-51l1-7.4c9.7-17.1,9-16.9,17.7-30l9,0.4L517.3,493.9z
			"/>
		<path class="st10" d="M616,479c0,0-27,56-47,68l4.6,92c0,0,54.5,11.3,197.2,13.2c5.3,0.1,8.7-6.1,9-11.4
			c0.9-19.3,2.1-88.5-8.8-146.7c0,0-64-27-91-80C680,414,680.6,452.9,616,479z"/>
		<path class="st10" d="M721.2,523.7l4.7,38.4c0.2,1.7-1.1,3.2-2.9,3.4l-59.2,5.3c-1.8,0.2-3.4-1.1-3.5-2.7l-3.8-39.8
			c-0.2-1.7,1.2-3.2,3-3.3l58.3-3.9C719.5,520.9,721,522,721.2,523.7z"/>
		<path class="st10" d="M657.7,522l60.5-5.3c1.6-0.1,3,0.9,3.2,2.4c0.6,5.1-0.1,16.1-15.9,19.4c-19.8,4-46.5,5.1-50.3-13.3
			C654.7,523.6,656,522.2,657.7,522z"/>
		<path class="st10" d="M478.9,531.7l19.9-2.2c1.2,0.4,1.9,1.7,1.6,2.9l-8.3,29.5c-0.4,1.3-1.7,2-3,1.7l-27.2-9.1l8.3-24.6
			L478.9,531.7z"/>
		<path class="st10" d="M475.4,518.8l25,7.7c1.1,0.3,1.8,1.5,1.5,2.7c-1.1,3.9-4.9,11.8-16.7,9.8c-6.1-1.1-12.4-3.8-17.5-6.2
			c-1.4-0.7-2.9-2.6-1.9-3.9C467.6,526.3,470.2,523.3,475.4,518.8z"/>
	</g>
	<polygon class="st8" points="536.6,493.5 560.6,516 530.3,529.3 506.9,494.1 	"/>
	<path class="st8" d="M587.7,488.9L560.6,516l36.7,15.1l32.7-58.2C630,472.9,616.3,481.9,587.7,488.9z"/>
	<path class="st11" d="M737.1,415c0,0,10.3-3.9,15.4-6.2"/>
	<g class="st9">
		<g>
			<path d="M669.5,517.3v-9.6h1.5v9.6H669.5z M673.8,517.3l-3.8-9.6h1.5l3.8,9.6H673.8z M673.8,517.3l3.8-9.6h1.5l-3.8,9.6H673.8z
				 M678.1,517.3v-9.6h1.5v9.6H678.1z"/>
			<path d="M685.1,517.5c-0.8,0-1.4-0.2-2.1-0.5s-1.1-0.8-1.5-1.4c-0.4-0.6-0.6-1.4-0.6-2.2v-1.7c0-0.8,0.2-1.6,0.6-2.2
				c0.4-0.6,0.9-1.1,1.5-1.4c0.6-0.3,1.3-0.5,2.1-0.5c0.7,0,1.4,0.2,2.1,0.5c0.6,0.3,1.1,0.8,1.5,1.4c0.4,0.6,0.6,1.4,0.6,2.2v1.7
				c0,0.8-0.2,1.6-0.6,2.2c-0.4,0.6-0.9,1.1-1.5,1.4S685.9,517.5,685.1,517.5z M685.1,516.1c0.5,0,0.9-0.1,1.3-0.3
				c0.4-0.2,0.7-0.5,0.9-0.9c0.2-0.4,0.3-0.9,0.3-1.5v-1.5c0-0.6-0.1-1.1-0.3-1.5c-0.2-0.4-0.5-0.7-0.9-0.9
				c-0.4-0.2-0.8-0.3-1.3-0.3c-0.5,0-0.9,0.1-1.3,0.3c-0.4,0.2-0.7,0.5-0.9,0.9c-0.2,0.4-0.3,0.9-0.3,1.5v1.5c0,0.6,0.1,1.1,0.3,1.5
				c0.2,0.4,0.5,0.7,0.9,0.9C684.2,515.9,684.6,516.1,685.1,516.1z"/>
			<path d="M690.1,509.1v-1.4h7.6v1.4H690.1z M693.1,517.3v-9h1.5v9H693.1z"/>
			<path d="M698.8,517.3v-9.6h1.5v9.6H698.8z M699.6,513.4v-1.3h3c0.6,0,1.1-0.1,1.4-0.4s0.5-0.6,0.5-1.1c0-0.5-0.2-0.9-0.5-1.1
				s-0.8-0.4-1.4-0.4h-3v-1.3h3.1c1,0,1.8,0.2,2.4,0.7c0.6,0.5,0.9,1.2,0.9,2.1c0,0.9-0.3,1.6-0.9,2.1c-0.6,0.5-1.4,0.7-2.4,0.7
				H699.6z M704.5,517.3l-2.4-4.9h1.5l2.5,4.9H704.5z"/>
			<path d="M706.8,517.3l3.4-9.6h1.5l-3.4,9.6H706.8z M709,514.5v-1.4h4.5v1.4H709z M714,517.3l-3.4-9.6h1.5l3.4,9.6H714z"/>
			<path d="M717.4,514.3c0.2,0.6,0.6,1,1,1.3c0.5,0.3,1,0.5,1.6,0.5s1.1-0.1,1.5-0.3c0.4-0.2,0.5-0.6,0.5-1c0-0.4-0.1-0.7-0.3-0.9
				c-0.2-0.2-0.6-0.4-1.1-0.5l-1.4-0.4c-0.8-0.2-1.4-0.5-1.9-0.9c-0.5-0.4-0.7-1-0.7-1.8c0-0.5,0.1-1,0.4-1.4
				c0.3-0.4,0.7-0.7,1.2-0.9c0.5-0.2,1.1-0.3,1.7-0.3c0.9,0,1.6,0.2,2.2,0.6c0.6,0.4,1.1,1,1.3,1.6l-1.3,0.6
				c-0.2-0.5-0.5-0.9-0.9-1.1c-0.4-0.3-0.8-0.4-1.4-0.4c-0.6,0-1,0.1-1.3,0.4c-0.3,0.2-0.5,0.6-0.5,1c0,0.4,0.1,0.7,0.4,0.9
				c0.2,0.2,0.6,0.4,1.1,0.5l1.4,0.4c0.8,0.2,1.4,0.5,1.9,1c0.5,0.4,0.7,1,0.7,1.8c0,0.6-0.2,1-0.5,1.4c-0.3,0.4-0.7,0.7-1.3,0.9
				c-0.5,0.2-1.1,0.3-1.8,0.3c-1,0-1.8-0.2-2.5-0.7c-0.7-0.4-1.2-1-1.5-1.8L717.4,514.3z"/>
		</g>
	</g>
</g>
<g class="st7">
	<path class="st12" d="M517.3,493.9c0,0,19.4,37.5,51.4,53.5c0,0,9.4,73.7,5.4,91.7c0,0-70.3-12.2-121.4-29.8
		c-6.2-2.2-12.1-7.9-8.9-13.6c0.9-1.6,6.1-12.1,7.1-14.2c8.3-16.6,11-29,20.9-51l1-7.4c9.7-17.1,9-16.9,17.7-30l9,0.4L517.3,493.9z"
		/>
	<path class="st12" d="M616,479c0,0-27,56-47,68l4.6,92c0,0,54.5,11.3,197.2,13.2c5.3,0.1,8.7-6.1,9-11.4
		c0.9-19.3,2.1-88.5-8.8-146.7c0,0-64-27-91-80C680,414,680.6,452.9,616,479z"/>
	<path class="st12" d="M721.2,523.7l4.7,38.4c0.2,1.7-1.1,3.2-2.9,3.4l-59.2,5.3c-1.8,0.2-3.4-1.1-3.5-2.7l-3.8-39.8
		c-0.2-1.7,1.2-3.2,3-3.3l58.3-3.9C719.5,520.9,721,522,721.2,523.7z"/>
	<path class="st12" d="M657.7,522l60.5-5.3c1.6-0.1,3,0.9,3.2,2.4c0.6,5.1-0.1,16.1-15.9,19.4c-19.8,4-46.5,5.1-50.3-13.3
		C654.7,523.6,656,522.2,657.7,522z"/>
	<path class="st12" d="M478.9,531.7l19.9-2.2c1.2,0.4,1.9,1.7,1.6,2.9l-8.3,29.5c-0.4,1.3-1.7,2-3,1.7l-27.2-9.1l8.3-24.6
		L478.9,531.7z"/>
	<path class="st12" d="M475.4,518.8l25,7.7c1.1,0.3,1.8,1.5,1.5,2.7c-1.1,3.9-4.9,11.8-16.7,9.8c-6.1-1.1-12.4-3.8-17.5-6.2
		c-1.4-0.7-2.9-2.6-1.9-3.9C467.6,526.3,470.2,523.3,475.4,518.8z"/>
</g>
<g class="st7">
	<path class="st8" d="M768.6,650.2l4.1-27.9c3-34.3,3.5-68.9,1.4-103.3l-2.3-26.2c0,0-7.4-53-21.6-83.3l24.6-11.6l-44.4-94.4
		l-38.8,17.2c0,0-3,92.4-20.1,117.9c-17.2,25.5-55.7,40.3-75.3,49.8l-8.3,23.1l-27.3,4.4l-43.3-22.1h-25.5c0,0-48.6,1.6-76.4-22.7
		l-10.4-0.6l-0.9,85.8c0,0,33.5,5.6,61.3-2.7l-0.5,4.4c-1.8,16.2-5.5,27.5-13,41.9l-1,1.9c0,0,30.2,13.3,143.4,32
		c53.9,8.9,111.4,11.9,111.4,11.9L768.6,650.2z"/>
	<polygon class="st8" points="536.6,493.5 560.6,516 530.3,529.3 506.9,494.1 	"/>
	<path class="st8" d="M587.7,488.9L560.6,516l36.7,15.1l32.7-58.2C630,472.9,616.3,481.9,587.7,488.9z"/>
	<path class="st11" d="M752.6,408.7c-5.1,2.4-15.4,6.2-15.4,6.2"/>
	<g class="st9">
		<g>
			<path d="M669.5,517.3v-9.6h1.5v9.6H669.5z M673.8,517.3l-3.8-9.6h1.5l3.8,9.6H673.8z M673.8,517.3l3.8-9.6h1.5l-3.8,9.6H673.8z
				 M678.1,517.3v-9.6h1.5v9.6H678.1z"/>
			<path d="M685.1,517.5c-0.8,0-1.4-0.2-2.1-0.5s-1.1-0.8-1.5-1.4c-0.4-0.6-0.6-1.4-0.6-2.2v-1.7c0-0.8,0.2-1.6,0.6-2.2
				c0.4-0.6,0.9-1.1,1.5-1.4c0.6-0.3,1.3-0.5,2.1-0.5c0.7,0,1.4,0.2,2.1,0.5c0.6,0.3,1.1,0.8,1.5,1.4c0.4,0.6,0.6,1.4,0.6,2.2v1.7
				c0,0.8-0.2,1.6-0.6,2.2c-0.4,0.6-0.9,1.1-1.5,1.4S685.9,517.5,685.1,517.5z M685.1,516.1c0.5,0,0.9-0.1,1.3-0.3
				c0.4-0.2,0.7-0.5,0.9-0.9c0.2-0.4,0.3-0.9,0.3-1.5v-1.5c0-0.6-0.1-1.1-0.3-1.5c-0.2-0.4-0.5-0.7-0.9-0.9
				c-0.4-0.2-0.8-0.3-1.3-0.3c-0.5,0-0.9,0.1-1.3,0.3c-0.4,0.2-0.7,0.5-0.9,0.9c-0.2,0.4-0.3,0.9-0.3,1.5v1.5c0,0.6,0.1,1.1,0.3,1.5
				c0.2,0.4,0.5,0.7,0.9,0.9C684.2,515.9,684.6,516.1,685.1,516.1z"/>
			<path d="M690.1,509.1v-1.4h7.6v1.4H690.1z M693.1,517.3v-9h1.5v9H693.1z"/>
			<path d="M698.8,517.3v-9.6h1.5v9.6H698.8z M699.6,513.4v-1.3h3c0.6,0,1.1-0.1,1.4-0.4s0.5-0.6,0.5-1.1c0-0.5-0.2-0.9-0.5-1.1
				s-0.8-0.4-1.4-0.4h-3v-1.3h3.1c1,0,1.8,0.2,2.4,0.7c0.6,0.5,0.9,1.2,0.9,2.1c0,0.9-0.3,1.6-0.9,2.1c-0.6,0.5-1.4,0.7-2.4,0.7
				H699.6z M704.5,517.3l-2.4-4.9h1.5l2.5,4.9H704.5z"/>
			<path d="M706.8,517.3l3.4-9.6h1.5l-3.4,9.6H706.8z M709,514.5v-1.4h4.5v1.4H709z M714,517.3l-3.4-9.6h1.5l3.4,9.6H714z"/>
			<path d="M717.4,514.3c0.2,0.6,0.6,1,1,1.3c0.5,0.3,1,0.5,1.6,0.5s1.1-0.1,1.5-0.3c0.4-0.2,0.5-0.6,0.5-1c0-0.4-0.1-0.7-0.3-0.9
				c-0.2-0.2-0.6-0.4-1.1-0.5l-1.4-0.4c-0.8-0.2-1.4-0.5-1.9-0.9c-0.5-0.4-0.7-1-0.7-1.8c0-0.5,0.1-1,0.4-1.4
				c0.3-0.4,0.7-0.7,1.2-0.9c0.5-0.2,1.1-0.3,1.7-0.3c0.9,0,1.6,0.2,2.2,0.6c0.6,0.4,1.1,1,1.3,1.6l-1.3,0.6
				c-0.2-0.5-0.5-0.9-0.9-1.1c-0.4-0.3-0.8-0.4-1.4-0.4c-0.6,0-1,0.1-1.3,0.4c-0.3,0.2-0.5,0.6-0.5,1c0,0.4,0.1,0.7,0.4,0.9
				c0.2,0.2,0.6,0.4,1.1,0.5l1.4,0.4c0.8,0.2,1.4,0.5,1.9,1c0.5,0.4,0.7,1,0.7,1.8c0,0.6-0.2,1-0.5,1.4c-0.3,0.4-0.7,0.7-1.3,0.9
				c-0.5,0.2-1.1,0.3-1.8,0.3c-1,0-1.8-0.2-2.5-0.7c-0.7-0.4-1.2-1-1.5-1.8L717.4,514.3z"/>
		</g>
	</g>
</g>
<g class="st7">
	<path class="st13" d="M764.4,639.6c-5.9,40.3-26.1,131.6-26.1,131.6L629.9,745l-1.5-16c0,0-97.2-23.6-133.6-31.4
		c-24.9-5.3-33.2-5.9-33.2-5.9c-59.3,19-90.1,27.9-90.1,27.9c-80-147,83.2-119.7,83.2-119.7s10.4,2.3,17.6-8.3L764.4,639.6z"/>
	<polyline class="st14" points="756.1,641 733.4,769.6 725.4,767.9 747.1,639.7 738.3,639 716.8,765.8 707.7,763.9 728.1,636 	"/>
	<polygon class="st15" points="468.7,596.9 762.6,645.5 763.4,639.1 472.3,591.6 	"/>
</g>
<g class="st7">
	<path class="st13" d="M764.4,639.6c-5.9,40.3-26.1,131.6-26.1,131.6L629.9,745l-1.5-16c0,0-97.2-23.6-133.6-31.4
		c-24.9-5.3-33.2-5.9-33.2-5.9c-59.3,19-90.1,27.9-90.1,27.9c-80-147,83.2-119.7,83.2-119.7s10.4,2.3,17.6-8.3L764.4,639.6z"/>
	<polygon class="st15" points="468.7,596.9 762.6,645.5 763.4,639.1 472.3,591.6 	"/>
</g>
<path class="st16" d="M763.3,639.4l0-0.3l-291.1-47.6c-7.1,10.7-17.6,8.3-17.6,8.3s-163.2-27.3-83.2,119.7c0,0,30.8-8.9,90.1-27.9
	c0,0,8.3,0.6,33.2,5.9c36.5,7.8,133.6,31.4,133.6,31.4l1.5,16l108.4,26.1c0,0,20.1-91.3,26.1-131.6L763.3,639.4z"/>
<g class="st7">
	<path class="st13" d="M579.7,490.7c40-9.8,74.5-26.5,91.7-52c17.2-25.5,20.1-117.9,20.1-117.9l38.8-17.2l44.4,94.4l-24.6,11.6
		c14.2,30.2,21.6,83.3,21.6,83.3l2.3,26.2c2.1,34.4,1.7,68.9-1.4,103.3l-4.1,27.9l-62.8-4.4c0,0-57.5-3-111.4-11.9
		c-113.2-18.7-143.4-32-143.4-32l1-1.9c7.6-14.4,11.2-25.7,13-41.9l0.5-4.4c-27.9,8.3-61.3,2.7-61.3,2.7l0.9-85.8l10.4,0.6
		c27.9,24.3,94.5,22.5,94.5,22.5s5.8,21.2,33.8,22.2C581.4,517.3,579.7,490.7,579.7,490.7z"/>
	<path class="st17" d="M664.7,480.8c0,0-7.3,10.6,2.1,14.3s52.6-8.2,52.6-8.2L680.2,502c0,0-21.6,8.7-25.7,0.4
		C649.5,492.2,664.7,480.8,664.7,480.8z"/>
</g>
<g class="st7">
	<g class="st9">
		<path class="st18" d="M579.7,490.7c40-9.8,74.5-26.5,91.7-52c17.2-25.5,20.1-117.9,20.1-117.9l38.8-17.2l44.4,94.4l-24.6,11.6
			c14.2,30.2,21.6,83.3,21.6,83.3l2.3,26.2c2.1,34.4,1.7,68.9-1.4,103.3l-4.1,27.9l-62.8-4.4c0,0-57.5-3-111.4-11.9
			c-113.2-18.7-143.4-32-143.4-32l1-1.9c7.6-14.4,11.2-25.7,13-41.9l0.5-4.4c-27.9,8.3-61.3,2.7-61.3,2.7l0.9-85.8l10.4,0.6
			c27.9,24.3,94.5,22.5,94.5,22.5s5.8,21.2,33.8,22.2C581.4,517.3,579.7,490.7,579.7,490.7z"/>
	</g>
	<g class="st9">
		<path class="st19" d="M706.4,496.1c0.6-2.3,1.6-3.7,2.3-4.4c0.3-0.4,0.3-1-0.2-1.3c-0.8-0.5-1.9-1.6-2.8-3.4
			c-1.5-3.2-3.2-8.8-9.6-10c-6.5-1.1-9.2,1.7-9.2,1.7s-3.4-2.5-7.4-1.5c-3.8,1-4.1,5.3-4.2,7.9c0,0.2,0.2,0.3,0.3,0.2
			c0.7-0.7,2.4-2.1,4.8-1.2c3.2,1.1,3.1,11.4,1.1,14.2c-1,1.3-1.9,2.1-2.7,2.5c-0.5,0.3-0.4,1,0,1.3c1.6,0.9,3.8,2.8,3.6,6.9
			c-0.2,6.2-0.3,8.9-2.7,10c-2,0.9-3.7-0.2-4.5-1.4c-0.2-0.3-0.7-0.2-0.7,0.2c-0.1,1,0,2.7,1.3,5c2.2,3.8,6.7,4.4,10.5,1.6
			c0,0,3.1,1.8,8.7,1.7c5.4-0.1,7.9-4.7,9.3-7.7c1.2-2.4,2.5-5.1,3.8-6.1c0.3-0.3,0.4-0.9,0.1-1.2c-0.6-0.7-1.3-1.8-1.6-3.3
			c-0.4-2.5-1.5-5.4-3.1-6.3C703.5,501.5,705.2,500.1,706.4,496.1z M698,515c-0.4,2.8-2.3,3.5-4.5,3.5c-2.6,0-4-1.9-4-1.9v-9.8
			c0,0,1.6-2.3,5.1-1.7c3.4,0.5,4.8,4.1,3.4,5.7C696.4,512.3,698.4,512.2,698,515z M697.8,490c-1.5,1.6,0.5,1.5,0.2,4.3
			c-0.4,2.8-2.3,3.5-4.5,3.5c-2.6,0-4-1.9-4-1.9v-9.8c0,0,1.6-2.3,5.1-1.7C697.9,484.9,699.3,488.4,697.8,490z"/>
		<path d="M700.8,501.2c0,0,3-0.7,4-5.2c0.6-2.6,1.2-3.9,1.7-4.5c0.2-0.3,0.2-0.7-0.1-1c-0.7-0.6-1.8-1.9-2.4-3.4
			c-1-2.4-2.7-7.7-8.9-8.7c-6.3-1-8,2.7-8,2.7s-2.5-3.3-6.5-2.4c-3.2,0.7-3.9,3.4-4,4.3c0,0.1,0.1,0.2,0.2,0.2
			c0.7-0.4,3-1.6,5.6,0.2c0,0,1.9,1.2,2.3,5.7c0.3,3.8,0.6,9.3-3.1,12.3c-0.1,0-0.1,0.1,0,0.2c0.5,0.3,2.7,1.9,2.7,6.9
			c0,5.7,0.3,14.4-7.7,11.7c-0.1,0-0.2,0-0.2,0.1c0.3,0.8,1.3,3.8,4.5,4.4c3.6,0.5,5.4-2.7,5.4-2.7s3.8,3.7,8.9,2.6s7-5.2,9.1-9.4
			c1-2.1,1.7-3,2.1-3.4c0.3-0.3,0.3-0.6,0.2-1c-0.4-0.8-1.2-2.2-1.7-3.8C703.9,504.3,702.7,501.9,700.8,501.2z M698.9,517.5
			c-1.7,2.7-7.9,3.3-10.7-0.1v-11.2c0,0,0.6-2.2,3.9-2.7c3.4-0.5,7.7,0.8,7.7,5.4c0,0,0,1.5-0.9,2.8
			C698.9,511.8,700.7,514.7,698.9,517.5z M698.9,491.1c0,0,1.7,3.1,0,5.8s-7.9,3.3-10.7-0.1v-11.2c0,0,0.6-2.2,3.9-2.7
			c3.4-0.5,7.7,0.8,7.7,5.4C699.8,488.3,699.8,489.7,698.9,491.1z"/>
	</g>
</g>
<g>
	<path class="st20" d="M750.2,409.6l24.6-11.6l-44.4-94.4l-39.4,17.2c0,0-1,101.5-26.1,125.6c-14.3,13.8-28.5,23.4-51.9,33.9
		c0,0-27,37-51.8,52.4c-14.9-9.1-38.4-38.6-38.4-38.6c-74.8,1.7-111-23.7-111-23.7l-6.8,0.3l-0.9,85.8c27.9,4.6,58.1-1.6,58.1-1.6
		c-1.8,21.3-12.7,47-12.7,47c22.7,8.4,75.6,19.2,98.5,23.7l11.6,2.1c0,0,126.4,22.7,209,22.7C768.6,650.2,794.9,500.6,750.2,409.6z"
		/>
	<path d="M410.2,470.7l-0.4,86.2l4.7,0.3l-0.1-85.5c0-0.2-2.5-1.3-2.7-1.3L410.2,470.7z"/>
	<polygon points="725.1,305.5 769.2,400.1 764.1,403.1 719.9,307.8 	"/>
	<g>
		<g>
			<path class="st19" d="M556,545.8c-3.9,1.3-9.2,2-17.2,1.1c0,0-12.3-2-19.1-2l0,0c-2.6-0.2-13.8,0-24.3,2.9
				c-1.2,0.3-1.7,0.7-2.3,1.1c-0.2,0.3-0.8,1-1.1,1.5c0,0-3.1,0.1-5.1,0.7c-2.8,0.9-3.9,2.2-3.4,4.8c1.2,6.1,8.1,7.8,8.1,7.8
				s-1.3-4.3,0.2-4.2c0.7,0,2.7,0.7,4.2,1.6c0.8,0.4,4.4,2.6,7.9,6.1l-5.6,13.6l50.9,4.4c1.7,0.1,3.3-0.1,4.8-0.5
				c-0.3,0.3-0.6,0.5-0.8,0.9l-4.3,6.3l20.7,1.8c5.2,0.4,9.9-1.9,12-5.6l46.9,4.1c5.8,0.5,10.5-1.7,12.5-5.4c2.4-4.4,0.3-7,0.3-7
				c2.4-1.2,3.7-3,4.2-4.3l3-7.1l-45.4-3.9l3.1-7.6l-6-0.5c-5.7-0.4-10.2,2.5-12.1,6.8l-39.9-3.5c3.9-1.3,10.4-4.7,14.5-16.5
				C562.7,543.1,559.8,544.7,556,545.8z"/>
		</g>
		<g>
			<path class="st19" d="M529.9,572.1c2.9,0.2,5.2-0.8,6.3-1.6c0,0-2.3,8.8-12.8,7.9l-21.1-1.8l4.6-11.2c0,0-3.8-5.3-11.4-7.9
				c-2.7-1-6.7-1.6-7.1-0.3c-0.1,0.4,0,1.7,0.1,2.8c0,0-1.2-0.7-1.9-1.7c-0.2-0.3-1.3-1.8-1.2-3.5c0-0.9,0.5-1.5,1.2-1.9
				c1.8-0.9,6.5-1,6.5-1l0.5-0.9c0.5-0.9,1-1.3,1.6-1.5c11.1-3.3,23.9-3,24-3l-0.1,0c0.9,0,2.1,0.1,3.4,0.2
				c5.8,0.1,13.5,1.5,14.1,1.6c5.6,0.8,9.3,1,11.8,0.8c3.7-0.1,7.3-2.1,7.3-2.1s-3.8,6.9-11.6,8.2c-3.3,0.6-6.5,0.4-9.6,0.1
				l-5.7-0.5c-2.9-0.2-3.7,0.8-4.1,1.7l-1,2.4c2.4,0.2,9.6,0.8,9.6,0.8c3.5,0.4,6.1-0.8,7.3-1.7c0,0-2.2,8.7-12.7,7.9
				c0,0-5.3-0.5-6.7-0.6l-2.3,5.5L529.9,572.1z"/>
		</g>
		<g>
			<g>
				<path class="st19" d="M600,557.8c-4.3-0.4-8.3,1.8-9.6,4.9l-8.4,20.7l9,0.8l10.7-26.2L600,557.8z"/>
			</g>
			<g>
				<path class="st19" d="M616.9,577.3c1.3-0.8,2.3-1.9,2.8-3.2c0,0,2.6-6.4,2.6-6.4l-14.4-1.2c-5.4-0.4-8,2-9,4.1l0,0l-5.6,13.7
					l14.7,1.3c4,0.3,7.5-1.2,9.1-4.9c0,0,1.3-3.3,1.3-3.3L616.9,577.3z M607.2,573.2l0.6-1.5l3.4,0.3l-0.6,1.5L607.2,573.2z
					 M607.9,580.3c-0.9-0.1-2.1-0.2-3.5-0.3c0.3-0.8,0.5-1.2,0.8-1.8c1.1,0.1,3.2,0.3,4.3,0.4C608.7,579.1,608.3,579.5,607.9,580.3z
					"/>
			</g>
			<g>
				<path class="st19" d="M570.2,583.8c-1.4-0.1-5.9-0.5-5.9-0.5c-4.3-0.4-7.1,0.5-8.6,2.6l-1.2,1.8l15.4,1.3
					c4.4,0.3,8.2-1.6,9.5-4.9c0,0,8-19.5,8-19.5l-14.3-1.2c0,0-6.9-0.7-9.2,4.8l-5.3,13.1l9.6,0.8c1.2,0.1,2.1,0,2.9-0.2
					L570.2,583.8z M576.2,568.9c-0.9,2.1-3,7.2-3.5,8.4c-0.8-0.1-1.8-0.2-3.1-0.3c0.9-2.1,3-7.2,3.5-8.4
					C573.9,568.7,574.9,568.8,576.2,568.9z"/>
			</g>
			<g>
				<path class="st19" d="M534.6,579.3l14.9,1.3c4,0.3,7.7-1.6,8.9-4.7c0,0,5.4-13.2,5.4-13.2l-14.6-1.3c-4.2-0.4-7.9,1.5-9.2,4.7
					c0,0-1.4,3.6-1.4,3.6l1.4,0.1c-1.3,0.7-2.3,2-2.9,3.3L534.6,579.3z M545.7,575l0.6-1.5l3.5,0.3l-0.6,1.5L545.7,575z M552.7,567
					l-0.7,1.8l-4.5-0.4c0.9-0.4,1.4-1.1,1.7-1.7L552.7,567z"/>
			</g>
			<g>
				<path class="st19" d="M616.1,586.4l12.7,1.1c5,0.4,8-2.2,9-4.9c0,0,0.6-1.5,0.1-2.8c-0.3-0.8-0.7-1.5-1.6-2.1
					c-0.5-0.3-1.4-0.8-2.3-1.3c5.1,0.1,7.1-1.9,7.8-3.7c0,0,0.6-1.5,0.6-1.5l0.7-1.6l-1.7-0.1l-11.1-1c-4.2-0.3-7.6,1.5-8.9,4.9
					c-1.1,3.1,1.3,4.5,1.3,4.5l2.8,1.6c-5.2-0.3-7.3,1.9-8,3.7L616.1,586.4z M630.5,574.2l0.2-0.5l1.4,0.1l-0.4,1.1L630.5,574.2z
					 M627.3,582c0.1-0.3,0.3-0.8,0.3-0.8s0.1-0.3,0.2-0.4c0.4,0.2,1,0.6,1.1,0.7c-0.1,0.2-0.2,0.4-0.3,0.6
					C628.2,582.1,627.9,582.1,627.3,582z"/>
			</g>
		</g>
		<g>
			<g>
				<path class="st21" d="M528.7,553.2c-3.2-0.3-4.6,0.9-5.3,2.5l-1.6,4l11.2,1c1.9,0.1,3.9,0.3,5.4-0.8c-1.3,2.6-4.8,5.3-10.7,4.6
					l-7.6-0.7l-3.2,7.9l11.7,1c1.9,0.1,3.7,0.2,5.4-0.7c-1.3,2.6-4.9,5.2-10.7,4.6l-19.4-1.7l4.3-10.4c0,0-6.4-7.9-16.5-9.3
					c-1.9-0.2-3.1-0.1-3.9,0.2c-0.9,0.4-0.5,2-0.5,2s-1-1.1-1.1-2.5c-0.1-1.3,1.6-1.9,4-2.2c1.8-0.2,3.3-0.2,3.3-0.2l0.8-1.4
					c0.2-0.4,0.4-0.6,0.7-0.8c0.4-0.3,1.1-0.5,1.1-0.5c10.5-2.7,22.7-2.7,22.7-2.7l0,0c0.9,0,2.1,0.1,3.4,0.2c5.8,0.1,14,1.6,14,1.6
					c13.5,2.2,16.3,0.1,17.7-0.7c0,0,0,0,0,0c-5.4,5.9-11.5,6.1-19.5,5.4L528.7,553.2z"/>
			</g>
			<g>
				<g>
					<g>
						<path class="st21" d="M583.5,581.8l7.7-18.9c1.2-2.7,4.8-4.5,8.3-4.3l-9.7,23.8L583.5,581.8z"/>
					</g>
					<g>
						<path class="st21" d="M610.4,577c3.7,0.2,6.7-1.4,7.7-3.9l1.9-4.9l-12.7-1.1c-3.6-0.2-6.6,1.1-7.8,3.9l-4.8,11.7l12.9,1.1
							c3.8,0.3,6.4-1.2,7.7-4.1l0.7-1.7c-3.4-0.3-6.7,0.3-7.8,2.9l-0.1,0.2l-6-0.5l1.7-4.2L610.4,577z M612.6,570.5l-1.6,3.8l-6-0.5
							l1.6-3.8L612.6,570.5z"/>
					</g>
					<g>
						<path class="st21" d="M573.2,578.1l-5.8-0.5l4.4-10.7l5.8,0.5L573.2,578.1z M556.4,586.1l13.2,1.1c3.6,0.3,7.1-1.2,8.3-4.1
							l7.3-17.9l-12.6-1.1c-3.6-0.2-6.6,1.5-7.9,4.1l-4.7,11.4l7.8,0.7c3.4,0.3,4.9-1,4.9-1l-2,5.2l-6.8-0.6
							C560.7,583.7,557.8,584.1,556.4,586.1z"/>
					</g>
					<g>
						<path class="st21" d="M549.7,576.1l-6.2-0.5l1.6-3.9l6.2,0.5L549.7,576.1z M548.6,562.1c-3.5-0.3-6.8,1.4-7.8,4l-0.8,2
							c3.3,0.4,6.8-0.4,7.8-2.9l0.1-0.3l6.2,0.5l-1.7,4.2l-6.6-0.6c-3.8-0.3-6.8,1.6-7.9,4.1l-1.9,4.6l13.1,1.1
							c3.6,0.3,6.6-1.4,7.6-3.9l4.8-11.7L548.6,562.1z"/>
					</g>
					<g>
						<path class="st21" d="M636.3,581.6c-1,2.5-3.7,4.4-7.7,4.1l-10.9-0.9l0.6-1.6c1-2.5,4.2-3.2,7.8-2.9l-1,2.4l4,0.3l0.8-1.8
							c0.1-0.4,0.1-0.7-0.2-0.9l-6.6-4c-0.7-0.5-1.2-1.8-0.8-3l0,0c1.1-2.7,3.8-4.4,7.6-4.2l11.1,1l-0.6,1.5c-1,2.5-4.1,3.2-7.8,2.9
							l0.9-2.2l-4-0.3l-0.7,1.7c-0.1,0.4-0.1,0.7,0.2,0.9l6.5,3.8C637.1,579.5,636.3,581.6,636.3,581.6z"/>
					</g>
				</g>
			</g>
		</g>
		<g>
			<path class="st19" d="M509.7,560.6l1.5-3.6c1-2.5,1.7-3.3,4.2-4.1c2.5-0.8,7.1-0.9,7.1-0.9c-6.6-1.5-20.5-2.1-25.7-0.9
				c-1.1,0.3-1.6,1.2-1.6,1.2l7.1,0l-2.8,1.4c-2.5-1.1-4.6-0.9-4.6-0.9c-1.7,0.6-2.1,2-2.1,2C501.6,555.6,509.7,560.6,509.7,560.6z"
				/>
		</g>
		<g>
			<g>
				<polygon points="585.6,549.8 584.3,549.7 584.7,544.5 578.5,544 578,549.2 576.7,549.1 577.6,539 578.9,539.1 578.6,542.4 
					584.9,543 585.2,539.7 586.5,539.8 				"/>
			</g>
			<g>
				<path d="M636.2,550.5l-2.3-0.2c-0.5,0-0.9,0-1.1,0.1c-0.4,0.1-0.6,0.5-0.7,1c0,0.5,0.1,0.8,0.5,1c0.2,0.1,0.6,0.2,1.1,0.2
					l1.9,0.2c0.7,0.1,1.1,0,1.4-0.2c0.3-0.2,0.4-0.5,0.5-0.9C637.5,551,637.1,550.6,636.2,550.5 M631.9,546.2l4.3,0.4
					c1.2,0.1,2,0.5,2.5,1.3c0.6,1,0.3,2.3,0.2,3.4c0,0.4-0.1,0.7-0.1,1.1c0,0.6-0.3,1.1-0.6,1.4c-0.3,0.4-0.7,0.6-1.3,0.5
					c-0.4,0-0.9-0.1-1.3-0.1l-2.2-0.2c-1-0.1-1.7-0.3-2.1-0.6c-0.5-0.4-0.7-1.2-0.7-2.2l0,0c0.1-1,0.5-1.7,1.1-2
					c0.4-0.2,1.1-0.3,2.1-0.2c0,0,3.7,0.4,3.7,0.3c0-0.4,0-0.8-0.4-1.1c-0.4-0.2-0.8-0.3-1.2-0.4l-4.2-0.4L631.9,546.2z"/>
			</g>
			<g>
				<path d="M602.4,543.7c1,0.1,1.7,0.4,2.2,1.1c0.5,0.6,0.7,1.2,0.6,2.3l-0.4,4.4l-1.3-0.1l0.4-4.4c0.1-0.6-0.1-0.9-0.4-1.3
					c-0.3-0.4-0.7-0.6-1.3-0.7l-1.2-0.1c-0.6,0-1,0.1-1.4,0.4c-0.4,0.3-0.6,0.6-0.6,1.2l-0.4,4.4l-1.3-0.1l0.4-4.4
					c0.1-1.1,0.4-1.7,1-2.2c0.6-0.5,1.4-0.8,2.3-0.7L602.4,543.7z"/>
			</g>
			<g>
				<path d="M618.9,545.1l-0.4,4.3c-0.1,0.6-0.2,0.9-0.6,1.2c-0.4,0.3-0.8,0.5-1.4,0.4l-0.8-0.1c-0.6,0-1-0.3-1.3-0.7
					c-0.3-0.4-0.5-0.6-0.4-1.3l0.4-4.3l-1.4-0.1l-0.4,4.3c-0.1,0.6-0.2,0.9-0.6,1.2c-0.4,0.3-0.8,0.5-1.4,0.4l-0.8-0.1
					c-0.6,0-1-0.3-1.3-0.7c-0.3-0.4-0.5-0.6-0.4-1.3l0.4-4.3l-1.3-0.1l-0.4,4.4c-0.1,1.1,0.1,1.7,0.6,2.3c0.5,0.6,1.2,1,2.2,1.1
					l1.1,0.1c1,0.1,1.7-0.1,2.3-0.7c0.1-0.1,0.1-0.1,0.2-0.2c0.1,0.1,0.1,0.1,0.2,0.2c0.5,0.6,1.2,1,2.2,1.1l1.1,0.1
					c1,0.1,1.7-0.1,2.3-0.7c0.6-0.5,0.9-1.1,1-2.2l0.4-4.4L618.9,545.1z"/>
			</g>
			<g>
				<path d="M628.7,546.8c-0.5-0.6-1.2-1-2.2-1.1l-1.5-0.1c-0.7-0.1-1.3,0-1.8,0.3l0.3-3l-1.3-0.1l-0.9,10.1l1.3,0.1l0.4-4.4
					c0.1-0.6,0.2-0.9,0.6-1.2c0.4-0.3,0.8-0.5,1.4-0.4l1.2,0.1c0.6,0,1,0.3,1.3,0.7c0.3,0.4,0.5,0.6,0.4,1.3l-0.4,4.4l1.3,0.1
					l0.4-4.4C629.4,548.1,629.2,547.5,628.7,546.8z"/>
			</g>
			<g>
				<path d="M593.1,546.8l-2.3-0.2c-0.5,0-0.9,0-1.1,0.1c-0.4,0.1-0.6,0.5-0.7,1c0,0.5,0.1,0.8,0.5,1c0.2,0.1,0.6,0.2,1.1,0.2
					l1.9,0.2c0.7,0.1,1.1,0,1.4-0.2c0.3-0.2,0.4-0.5,0.5-0.9C594.4,547.2,594,546.9,593.1,546.8 M588.8,542.5l4.3,0.4
					c1.2,0.1,2,0.5,2.5,1.3c0.6,1,0.3,2.3,0.2,3.4c0,0.4-0.1,0.7-0.1,1.1c0,0.6-0.3,1.1-0.6,1.4c-0.3,0.4-0.7,0.6-1.3,0.5
					c-0.4,0-0.9-0.1-1.3-0.1l-2.2-0.2c-1-0.1-1.7-0.3-2.1-0.6c-0.5-0.4-0.7-1.2-0.7-2.2l0,0c0.1-1,0.5-1.7,1.1-2
					c0.4-0.2,1.1-0.3,2.1-0.2c0,0,3.7,0.4,3.7,0.3c0-0.4,0-0.8-0.4-1.1c-0.4-0.2-0.8-0.3-1.2-0.4l-4.2-0.4L588.8,542.5z"/>
			</g>
		</g>
	</g>
	<line class="st22" x1="560.6" y1="541.8" x2="554" y2="625.3"/>
	<path d="M516.9,494.3c0,0,20.4,31.6,45.1,44.9l-0.2,6.6c0,0-29.5-16-49.4-51.6L516.9,494.3z"/>
	<path d="M620.1,477.1c0,0-23.3,47.4-58.1,61.9l-0.3,6.8c0,0,21-6.4,44.2-35.9c21.1-26.8,21.4-36.5,21.4-36.5L620.1,477.1z"/>
</g>
<g class="st7">
	<path class="st23" d="M750.2,409.6l24.6-11.6l-44.4-94.4l-39.4,17.2c0,0-1,101.5-26.1,125.6c-14.3,13.8-28.5,23.4-51.9,33.9
		c0,0-27,37-51.8,52.4c-14.9-9.1-38.4-38.6-38.4-38.6c-74.8,1.7-111-23.7-111-23.7l-6.8,0.3l-0.9,85.8c27.9,4.6,58.1-1.6,58.1-1.6
		c-1.8,21.3-12.7,47-12.7,47c22.7,8.4,75.6,19.2,98.5,23.7l11.6,2.1c0,0,126.4,22.7,209,22.7C768.6,650.2,794.9,500.6,750.2,409.6z"
		/>
	<path class="st9" d="M410.2,470.7l-0.4,86.2l4.7,0.3l-0.1-85.5c0-0.2-2.5-1.3-2.7-1.3L410.2,470.7z"/>
	<polygon class="st9" points="725.1,305.5 769.2,400.1 764.1,403.1 719.9,307.8 	"/>
	<g class="st9">
		<g>
			<path class="st19" d="M556,545.8c-3.9,1.3-9.2,2-17.2,1.1c0,0-12.3-2-19.1-2l0,0c-2.6-0.2-13.8,0-24.3,2.9
				c-1.2,0.3-1.7,0.7-2.3,1.1c-0.2,0.3-0.8,1-1.1,1.5c0,0-3.1,0.1-5.1,0.7c-2.8,0.9-3.9,2.2-3.4,4.8c1.2,6.1,8.1,7.8,8.1,7.8
				s-1.3-4.3,0.2-4.2c0.7,0,2.7,0.7,4.2,1.6c0.8,0.4,4.4,2.6,7.9,6.1l-5.6,13.6l50.9,4.4c1.7,0.1,3.3-0.1,4.8-0.5
				c-0.3,0.3-0.6,0.5-0.8,0.9l-4.3,6.3l20.7,1.8c5.2,0.4,9.9-1.9,12-5.6l46.9,4.1c5.8,0.5,10.5-1.7,12.5-5.4c2.4-4.4,0.3-7,0.3-7
				c2.4-1.2,3.7-3,4.2-4.3l3-7.1l-45.4-3.9l3.1-7.6l-6-0.5c-5.7-0.4-10.2,2.5-12.1,6.8l-39.9-3.5c3.9-1.3,10.4-4.7,14.5-16.5
				C562.7,543.1,559.8,544.7,556,545.8z"/>
		</g>
		<g>
			<path class="st19" d="M529.9,572.1c2.9,0.2,5.2-0.8,6.3-1.6c0,0-2.3,8.8-12.8,7.9l-21.1-1.8l4.6-11.2c0,0-3.8-5.3-11.4-7.9
				c-2.7-1-6.7-1.6-7.1-0.3c-0.1,0.4,0,1.7,0.1,2.8c0,0-1.2-0.7-1.9-1.7c-0.2-0.3-1.3-1.8-1.2-3.5c0-0.9,0.5-1.5,1.2-1.9
				c1.8-0.9,6.5-1,6.5-1l0.5-0.9c0.5-0.9,1-1.3,1.6-1.5c11.1-3.3,23.9-3,24-3l-0.1,0c0.9,0,2.1,0.1,3.4,0.2
				c5.8,0.1,13.5,1.5,14.1,1.6c5.6,0.8,9.3,1,11.8,0.8c3.7-0.1,7.3-2.1,7.3-2.1s-3.8,6.9-11.6,8.2c-3.3,0.6-6.5,0.4-9.6,0.1
				l-5.7-0.5c-2.9-0.2-3.7,0.8-4.1,1.7l-1,2.4c2.4,0.2,9.6,0.8,9.6,0.8c3.5,0.4,6.1-0.8,7.3-1.7c0,0-2.2,8.7-12.7,7.9
				c0,0-5.3-0.5-6.7-0.6l-2.3,5.5L529.9,572.1z"/>
		</g>
		<g>
			<g>
				<path class="st19" d="M600,557.8c-4.3-0.4-8.3,1.8-9.6,4.9l-8.4,20.7l9,0.8l10.7-26.2L600,557.8z"/>
			</g>
			<g>
				<path class="st19" d="M616.9,577.3c1.3-0.8,2.3-1.9,2.8-3.2c0,0,2.6-6.4,2.6-6.4l-14.4-1.2c-5.4-0.4-8,2-9,4.1l0,0l-5.6,13.7
					l14.7,1.3c4,0.3,7.5-1.2,9.1-4.9c0,0,1.3-3.3,1.3-3.3L616.9,577.3z M607.2,573.2l0.6-1.5l3.4,0.3l-0.6,1.5L607.2,573.2z
					 M607.9,580.3c-0.9-0.1-2.1-0.2-3.5-0.3c0.3-0.8,0.5-1.2,0.8-1.8c1.1,0.1,3.2,0.3,4.3,0.4C608.7,579.1,608.3,579.5,607.9,580.3z
					"/>
			</g>
			<g>
				<path class="st19" d="M570.2,583.8c-1.4-0.1-5.9-0.5-5.9-0.5c-4.3-0.4-7.1,0.5-8.6,2.6l-1.2,1.8l15.4,1.3
					c4.4,0.3,8.2-1.6,9.5-4.9c0,0,8-19.5,8-19.5l-14.3-1.2c0,0-6.9-0.7-9.2,4.8l-5.3,13.1l9.6,0.8c1.2,0.1,2.1,0,2.9-0.2
					L570.2,583.8z M576.2,568.9c-0.9,2.1-3,7.2-3.5,8.4c-0.8-0.1-1.8-0.2-3.1-0.3c0.9-2.1,3-7.2,3.5-8.4
					C573.9,568.7,574.9,568.8,576.2,568.9z"/>
			</g>
			<g>
				<path class="st19" d="M534.6,579.3l14.9,1.3c4,0.3,7.7-1.6,8.9-4.7c0,0,5.4-13.2,5.4-13.2l-14.6-1.3c-4.2-0.4-7.9,1.5-9.2,4.7
					c0,0-1.4,3.6-1.4,3.6l1.4,0.1c-1.3,0.7-2.3,2-2.9,3.3L534.6,579.3z M545.7,575l0.6-1.5l3.5,0.3l-0.6,1.5L545.7,575z M552.7,567
					l-0.7,1.8l-4.5-0.4c0.9-0.4,1.4-1.1,1.7-1.7L552.7,567z"/>
			</g>
			<g>
				<path class="st19" d="M616.1,586.4l12.7,1.1c5,0.4,8-2.2,9-4.9c0,0,0.6-1.5,0.1-2.8c-0.3-0.8-0.7-1.5-1.6-2.1
					c-0.5-0.3-1.4-0.8-2.3-1.3c5.1,0.1,7.1-1.9,7.8-3.7c0,0,0.6-1.5,0.6-1.5l0.7-1.6l-1.7-0.1l-11.1-1c-4.2-0.3-7.6,1.5-8.9,4.9
					c-1.1,3.1,1.3,4.5,1.3,4.5l2.8,1.6c-5.2-0.3-7.3,1.9-8,3.7L616.1,586.4z M630.5,574.2l0.2-0.5l1.4,0.1l-0.4,1.1L630.5,574.2z
					 M627.3,582c0.1-0.3,0.3-0.8,0.3-0.8s0.1-0.3,0.2-0.4c0.4,0.2,1,0.6,1.1,0.7c-0.1,0.2-0.2,0.4-0.3,0.6
					C628.2,582.1,627.9,582.1,627.3,582z"/>
			</g>
		</g>
		<g>
			<g>
				<path class="st21" d="M528.7,553.2c-3.2-0.3-4.6,0.9-5.3,2.5l-1.6,4l11.2,1c1.9,0.1,3.9,0.3,5.4-0.8c-1.3,2.6-4.8,5.3-10.7,4.6
					l-7.6-0.7l-3.2,7.9l11.7,1c1.9,0.1,3.7,0.2,5.4-0.7c-1.3,2.6-4.9,5.2-10.7,4.6l-19.4-1.7l4.3-10.4c0,0-6.4-7.9-16.5-9.3
					c-1.9-0.2-3.1-0.1-3.9,0.2c-0.9,0.4-0.5,2-0.5,2s-1-1.1-1.1-2.5c-0.1-1.3,1.6-1.9,4-2.2c1.8-0.2,3.3-0.2,3.3-0.2l0.8-1.4
					c0.2-0.4,0.4-0.6,0.7-0.8c0.4-0.3,1.1-0.5,1.1-0.5c10.5-2.7,22.7-2.7,22.7-2.7l0,0c0.9,0,2.1,0.1,3.4,0.2c5.8,0.1,14,1.6,14,1.6
					c13.5,2.2,16.3,0.1,17.7-0.7c0,0,0,0,0,0c-5.4,5.9-11.5,6.1-19.5,5.4L528.7,553.2z"/>
			</g>
			<g>
				<g>
					<g>
						<path class="st21" d="M583.5,581.8l7.7-18.9c1.2-2.7,4.8-4.5,8.3-4.3l-9.7,23.8L583.5,581.8z"/>
					</g>
					<g>
						<path class="st21" d="M610.4,577c3.7,0.2,6.7-1.4,7.7-3.9l1.9-4.9l-12.7-1.1c-3.6-0.2-6.6,1.1-7.8,3.9l-4.8,11.7l12.9,1.1
							c3.8,0.3,6.4-1.2,7.7-4.1l0.7-1.7c-3.4-0.3-6.7,0.3-7.8,2.9l-0.1,0.2l-6-0.5l1.7-4.2L610.4,577z M612.6,570.5l-1.6,3.8l-6-0.5
							l1.6-3.8L612.6,570.5z"/>
					</g>
					<g>
						<path class="st21" d="M573.2,578.1l-5.8-0.5l4.4-10.7l5.8,0.5L573.2,578.1z M556.4,586.1l13.2,1.1c3.6,0.3,7.1-1.2,8.3-4.1
							l7.3-17.9l-12.6-1.1c-3.6-0.2-6.6,1.5-7.9,4.1l-4.7,11.4l7.8,0.7c3.4,0.3,4.9-1,4.9-1l-2,5.2l-6.8-0.6
							C560.7,583.7,557.8,584.1,556.4,586.1z"/>
					</g>
					<g>
						<path class="st21" d="M549.7,576.1l-6.2-0.5l1.6-3.9l6.2,0.5L549.7,576.1z M548.6,562.1c-3.5-0.3-6.8,1.4-7.8,4l-0.8,2
							c3.3,0.4,6.8-0.4,7.8-2.9l0.1-0.3l6.2,0.5l-1.7,4.2l-6.6-0.6c-3.8-0.3-6.8,1.6-7.9,4.1l-1.9,4.6l13.1,1.1
							c3.6,0.3,6.6-1.4,7.6-3.9l4.8-11.7L548.6,562.1z"/>
					</g>
					<g>
						<path class="st21" d="M636.3,581.6c-1,2.5-3.7,4.4-7.7,4.1l-10.9-0.9l0.6-1.6c1-2.5,4.2-3.2,7.8-2.9l-1,2.4l4,0.3l0.8-1.8
							c0.1-0.4,0.1-0.7-0.2-0.9l-6.6-4c-0.7-0.5-1.2-1.8-0.8-3l0,0c1.1-2.7,3.8-4.4,7.6-4.2l11.1,1l-0.6,1.5c-1,2.5-4.1,3.2-7.8,2.9
							l0.9-2.2l-4-0.3l-0.7,1.7c-0.1,0.4-0.1,0.7,0.2,0.9l6.5,3.8C637.1,579.5,636.3,581.6,636.3,581.6z"/>
					</g>
				</g>
			</g>
		</g>
		<g>
			<path class="st19" d="M509.7,560.6l1.5-3.6c1-2.5,1.7-3.3,4.2-4.1c2.5-0.8,7.1-0.9,7.1-0.9c-6.6-1.5-20.5-2.1-25.7-0.9
				c-1.1,0.3-1.6,1.2-1.6,1.2l7.1,0l-2.8,1.4c-2.5-1.1-4.6-0.9-4.6-0.9c-1.7,0.6-2.1,2-2.1,2C501.6,555.6,509.7,560.6,509.7,560.6z"
				/>
		</g>
		<g>
			<g>
				<polygon points="585.6,549.8 584.3,549.7 584.7,544.5 578.5,544 578,549.2 576.7,549.1 577.6,539 578.9,539.1 578.6,542.4 
					584.9,543 585.2,539.7 586.5,539.8 				"/>
			</g>
			<g>
				<path d="M636.2,550.5l-2.3-0.2c-0.5,0-0.9,0-1.1,0.1c-0.4,0.1-0.6,0.5-0.7,1c0,0.5,0.1,0.8,0.5,1c0.2,0.1,0.6,0.2,1.1,0.2
					l1.9,0.2c0.7,0.1,1.1,0,1.4-0.2c0.3-0.2,0.4-0.5,0.5-0.9C637.5,551,637.1,550.6,636.2,550.5 M631.9,546.2l4.3,0.4
					c1.2,0.1,2,0.5,2.5,1.3c0.6,1,0.3,2.3,0.2,3.4c0,0.4-0.1,0.7-0.1,1.1c0,0.6-0.3,1.1-0.6,1.4c-0.3,0.4-0.7,0.6-1.3,0.5
					c-0.4,0-0.9-0.1-1.3-0.1l-2.2-0.2c-1-0.1-1.7-0.3-2.1-0.6c-0.5-0.4-0.7-1.2-0.7-2.2l0,0c0.1-1,0.5-1.7,1.1-2
					c0.4-0.2,1.1-0.3,2.1-0.2c0,0,3.7,0.4,3.7,0.3c0-0.4,0-0.8-0.4-1.1c-0.4-0.2-0.8-0.3-1.2-0.4l-4.2-0.4L631.9,546.2z"/>
			</g>
			<g>
				<path d="M602.4,543.7c1,0.1,1.7,0.4,2.2,1.1c0.5,0.6,0.7,1.2,0.6,2.3l-0.4,4.4l-1.3-0.1l0.4-4.4c0.1-0.6-0.1-0.9-0.4-1.3
					c-0.3-0.4-0.7-0.6-1.3-0.7l-1.2-0.1c-0.6,0-1,0.1-1.4,0.4c-0.4,0.3-0.6,0.6-0.6,1.2l-0.4,4.4l-1.3-0.1l0.4-4.4
					c0.1-1.1,0.4-1.7,1-2.2c0.6-0.5,1.4-0.8,2.3-0.7L602.4,543.7z"/>
			</g>
			<g>
				<path d="M618.9,545.1l-0.4,4.3c-0.1,0.6-0.2,0.9-0.6,1.2c-0.4,0.3-0.8,0.5-1.4,0.4l-0.8-0.1c-0.6,0-1-0.3-1.3-0.7
					c-0.3-0.4-0.5-0.6-0.4-1.3l0.4-4.3l-1.4-0.1l-0.4,4.3c-0.1,0.6-0.2,0.9-0.6,1.2c-0.4,0.3-0.8,0.5-1.4,0.4l-0.8-0.1
					c-0.6,0-1-0.3-1.3-0.7c-0.3-0.4-0.5-0.6-0.4-1.3l0.4-4.3l-1.3-0.1l-0.4,4.4c-0.1,1.1,0.1,1.7,0.6,2.3c0.5,0.6,1.2,1,2.2,1.1
					l1.1,0.1c1,0.1,1.7-0.1,2.3-0.7c0.1-0.1,0.1-0.1,0.2-0.2c0.1,0.1,0.1,0.1,0.2,0.2c0.5,0.6,1.2,1,2.2,1.1l1.1,0.1
					c1,0.1,1.7-0.1,2.3-0.7c0.6-0.5,0.9-1.1,1-2.2l0.4-4.4L618.9,545.1z"/>
			</g>
			<g>
				<path d="M628.7,546.8c-0.5-0.6-1.2-1-2.2-1.1l-1.5-0.1c-0.7-0.1-1.3,0-1.8,0.3l0.3-3l-1.3-0.1l-0.9,10.1l1.3,0.1l0.4-4.4
					c0.1-0.6,0.2-0.9,0.6-1.2c0.4-0.3,0.8-0.5,1.4-0.4l1.2,0.1c0.6,0,1,0.3,1.3,0.7c0.3,0.4,0.5,0.6,0.4,1.3l-0.4,4.4l1.3,0.1
					l0.4-4.4C629.4,548.1,629.2,547.5,628.7,546.8z"/>
			</g>
			<g>
				<path d="M593.1,546.8l-2.3-0.2c-0.5,0-0.9,0-1.1,0.1c-0.4,0.1-0.6,0.5-0.7,1c0,0.5,0.1,0.8,0.5,1c0.2,0.1,0.6,0.2,1.1,0.2
					l1.9,0.2c0.7,0.1,1.1,0,1.4-0.2c0.3-0.2,0.4-0.5,0.5-0.9C594.4,547.2,594,546.9,593.1,546.8 M588.8,542.5l4.3,0.4
					c1.2,0.1,2,0.5,2.5,1.3c0.6,1,0.3,2.3,0.2,3.4c0,0.4-0.1,0.7-0.1,1.1c0,0.6-0.3,1.1-0.6,1.4c-0.3,0.4-0.7,0.6-1.3,0.5
					c-0.4,0-0.9-0.1-1.3-0.1l-2.2-0.2c-1-0.1-1.7-0.3-2.1-0.6c-0.5-0.4-0.7-1.2-0.7-2.2l0,0c0.1-1,0.5-1.7,1.1-2
					c0.4-0.2,1.1-0.3,2.1-0.2c0,0,3.7,0.4,3.7,0.3c0-0.4,0-0.8-0.4-1.1c-0.4-0.2-0.8-0.3-1.2-0.4l-4.2-0.4L588.8,542.5z"/>
			</g>
		</g>
	</g>
	<line class="st11" x1="560.6" y1="541.8" x2="554" y2="625.3"/>
	<path class="st9" d="M516.9,494.3c0,0,20.4,31.6,45.1,44.9l-0.2,6.6c0,0-29.5-16-49.4-51.6L516.9,494.3z"/>
	<path class="st9" d="M620.1,477.1c0,0-23.3,47.4-58.1,61.9l-0.3,6.8c0,0,21-6.4,44.2-35.9c21.1-26.8,21.4-36.5,21.4-36.5
		L620.1,477.1z"/>
</g>
</svg>
