<?xml version="1.0" encoding="utf-8"?>
<!-- Generator: Adobe Illustrator 27.7.0, SVG Export Plug-In . SVG Version: 6.00 Build 0)  -->
<svg version="1.1" id="레이어_1" xmlns="http://www.w3.org/2000/svg" xmlns:xlink="http://www.w3.org/1999/xlink" x="0px"
	 y="0px" viewBox="0 0 800 800" style="enable-background:new 0 0 800 800;" xml:space="preserve">
<style type="text/css">
	.st0{fill:#9D9D9D;}
	.st1{fill:#F7F7F7;}
	.st2{fill:#04060A;}
	.st3{fill:#EB9889;}
	.st4{fill:#5AAACB;}
	.st5{fill:#87D4EE;}
	.st6{fill:#DEDF73;}
	.st7{fill:#322F28;}
</style>
<g>
	<path class="st0" d="M195.3,331.7c0,0-1.3-76.1,27.3-118.8c24.9-37,46.7-72.1,60-78.8s27.3-19.4,38-6.7s21.3,101.2,28.7,113.9
		s6.7,41.3,6.7,41.3s31.3,0.3,46.7,3.6c15.3,3.3,60,2.7,60,2.7s16-71.3,29.3-89.6c24.7-34,84-53.3,95.3-44.6
		c7.1,5.5,4.7,73.9,7.3,95.9c2.7,22,9.3,93.7,14,99.7s40.7,26.3,40.7,57.7c0,18.1-5.3,129.2-24,163.3c-18.7,34-80,66.7-125.3,74.8
		s-144,7.3-181.4-4c-37.3-11.3-66.7-40.7-82-47.4c-15.3-6.7-44.7-22.7-58-54.7c-13.3-32-30.7-82.1-20-122.1S195.3,331.7,195.3,331.7
		z"/>
	<path class="st1" d="M300,276.7c0,0,21.3-31.3,17.3-52s-18-59.3-38-54.7c-20,4.7-18.7,46.7-20,52c-1.3,5.3-40.7,40-30,66
		C239.9,314,284.6,292,300,276.7z"/>
	<path class="st1" d="M491.3,289.4c0,0,19.3-66,50-88.7s40-2,36.7,16c-3.3,18-11.3,28.7-11.3,28.7s28.7,23.3,15.3,42
		c-13.3,18.7-73.3,21.3-73.3,21.3S492,308,491.3,289.4z"/>
	<path class="st1" d="M366,414c0,0,15.3-97.3,30-101.3c14.7-4,17.3,28.7,20.7,48.7s22.7,51.3,41.3,61.3c18.7,10,86,50,85.3,106.7
		c-0.7,56.7-27.7,112.3-51.5,118.8c-23.8,6.5-123.8,8.5-184.5-11.5s-62.7-140-32.7-173.4C304.6,430,317.3,411.4,366,414z"/>
	<path class="st2" d="M323.3,284.7c0,0-4.7-43.3-13.3-63.3c-8.7-20-6-50.7-2-50.7S338.6,264.7,323.3,284.7z"/>
	<path class="st2" d="M312.6,273.4c0,0-9.3-36-26-36s9.3,16.7,14.7,25.3C306.6,271.4,308.6,276.7,312.6,273.4z"/>
	<path class="st2" d="M308.6,282.7c0,0-19.3-8-30-14.7s-16.7-12-19.3-7.3c-2.7,4.7,2.7,8.7,23.3,19.3S314,294,308.6,282.7z"/>
	<path class="st2" d="M481.3,297.4c0,0,6.7-40,20.7-64c14-24,23.3-26,25.3-22c2,4-12.7,25.3-18.7,38c0,0-10.7,21.3-13.3,33.3
		C492.6,294.7,488,300.7,481.3,297.4z"/>
	<path class="st2" d="M499.3,299.4c0,0,22.7-27.3,29.3-27.3s1.3-12-12-3.3C503.3,277.4,486.6,298,499.3,299.4z"/>
	<path class="st2" d="M506,303.4c0,0,25.3-20.7,35.3-18.7C551.3,286.7,508.6,316.7,506,303.4z"/>
	<path class="st2" d="M393.3,416.7c0,0,8.7,4.7,12.7,6c4,1.3,2.7,8.7-3.3,6.7C396.6,427.4,384,422.7,393.3,416.7z"/>
	<path class="st3" d="M457,509.1c0,0-14,64-30.7,67.3c-16.7,3.3-40.7-36.7-40.7-36.7L373,508.4l13.3-18l15.8-21.5l22.2,20.9
		L457,509.1z"/>
	<path class="st2" d="M401.3,456.7c0,0-25.3,50-44.7,48.7c-19.3-1.3-23.3-36.7-38-35.3c-14.7,1.3,15.3,44,29.3,46
		c14,2,20.7,2,20.7,2s14,51.3,54,65.3c0,0,10.7,4.7,20-14c9.3-18.7,18.7-59.3,18.7-59.3s-6.3-6.3-9.7-1.7
		c-3.3,4.7-14.7,62.7-26,63.3c-11.3,0.7-39.3-30-46-56c0,0-4.7-8,4-14.7c8.7-6.7,18.7-21.3,20.7-32
		C406.3,458.4,403.6,455,401.3,456.7z"/>
	<path class="st2" d="M484.3,475.7c0,0-10,30.7-33.3,24s-40.7-29.3-44-41.3c0,0-3.3-4.7-5.7-1.7c-2.3,3-2.3,21,21.7,40.3
		s43.3,21.3,54.7,10.7c11.3-10.7,17.3-26,17.3-26s14-24,8.7-28.7C498.3,448.4,492.3,472.4,484.3,475.7z"/>
	<path class="st2" d="M474.3,462.4c0,0,9.3,12,37.3,14.7c28,2.7,82.7-2,83.3,6.7c0.7,8.7-74,5.3-94.7,0.7
		c-20.7-4.7-31.3-13.3-31.3-20S474.3,462.4,474.3,462.4z"/>
	<path class="st2" d="M479.3,446.2c-0.2,2.3,1.9,4.2,4.2,4.1c6.1-0.3,21.9-1.9,36.1-9.2c18-9.3,54.7-20.7,94.7-18c0,0,4.7-4.7-2-8
		s-30.7-3.3-72.7,9.3c0,0-11,4.3-24.3,5.7c-13.3,1.3-32.7-5.3-34-0.7c-1.3,4.7,26.2,6.1,28,8c1.6,1.7-17.4,6.8-26.3,5
		C483,442.4,479.5,443.4,479.3,446.2z"/>
	<path class="st2" d="M319,460.4c0,0-53-5-71-10.3c-18-5.3-40.3-7-67,8.3s-0.7-27.6,45-21c46,6.7,51,12.3,86.3,14.3
		C312.3,451.7,325,453,319,460.4z"/>
	<path class="st2" d="M310.3,487.7c0,0-6.6,2-49.6,12.3s-74.4,40.3-76.4,46.3c-2,6,6,6.7,22.7-10.7c16.7-17.3,54-29.3,71.3-32.7
		S319.6,497.7,310.3,487.7z"/>
	<path class="st2" d="M418.9,655.5c-39.5,0-79.9-3-101.4-9.6c-25-7.6-46.7-23.2-62.5-34.6c-8.1-5.8-15.1-10.9-20-13
		c-16.6-7.2-46.5-24.2-60.1-56.9c-21.9-52.6-28.5-93.4-20.2-124.7c10-37.4,32.7-79.1,36.5-86.1c-0.1-9.9,0.5-79.1,28-120
		c3.5-5.3,7-10.5,10.4-15.6c21.6-32.6,38.7-58.3,51.1-64.5c2.5-1.2,5.1-2.7,7.6-4.2c10.9-6.4,24.5-14.3,35.3-1.5
		c6.2,7.4,11.3,31.9,18.3,68.5c3.9,20.2,7.9,41,10.7,46c6.2,10.7,7.1,30.8,7.2,39.4c9,0.2,31.1,0.9,43.5,3.6
		c12.4,2.7,45.6,2.7,56,2.6c3.3-14.1,17.1-71.2,29.3-88c20.1-27.7,60.1-44.6,82.1-47.7c8.9-1.3,15.3-0.5,19,2.4
		c5.5,4.3,6.5,22.3,7.3,62.4c0.3,14.6,0.6,28.4,1.5,36.1c0.6,4.7,1.3,11.6,2.2,19.5c2.6,23.6,7.9,72.7,11.1,78.2
		c0.8,0.9,3.4,3,5.9,5c12.4,9.9,35.6,28.5,35.6,55.1c0,15-4.9,129.4-24.5,165.2c-9,16.5-28.3,33.8-54.2,48.7
		c-23.9,13.8-50.9,24-74,28.1C480.5,653.6,450,655.5,418.9,655.5z M309.9,126c-4.4,0-9.8,2.8-17.5,7.2c-2.6,1.5-5.3,3.1-8,4.4
		c-10.5,5.2-28.7,32.7-48.1,61.8c-3.4,5.1-6.9,10.4-10.4,15.6c-27.6,41.2-26.7,115.8-26.7,116.5l0,1.1l-0.5,0.9
		c-0.3,0.5-25.9,46.1-36.3,85.2c-7.9,29.5-1.4,68.6,19.8,119.6c12.5,30,40.4,45.9,55.9,52.6c5.7,2.5,12.7,7.5,21.5,13.8
		c15.3,11,36.3,26.2,60.1,33.4c36.8,11.2,135.4,11.7,179.5,3.9c43.3-7.6,104.3-39.4,122.5-72.7c17.4-31.7,23.5-137.2,23.5-161.3
		c0-22.8-21.2-39.7-32.6-48.8c-3.6-2.9-5.9-4.8-7.2-6.4c-3.7-4.8-7-30.3-12.7-82.2c-0.9-7.9-1.6-14.8-2.2-19.4
		c-1-8.1-1.3-22.1-1.6-36.9c-0.3-12.8-0.6-26-1.3-36.8c-1-15.5-2.6-18.9-3.1-19.6c-0.8-0.5-3.9-1.9-12.8-0.7
		c-20,2.9-58.2,19-76.7,44.5c-12.7,17.5-28.5,87.4-28.7,88.1l-0.7,3.1l-3.2,0c-1.8,0-45.3,0.6-60.9-2.8c-14.8-3.2-45.5-3.5-45.9-3.5
		l-4.1,0l0.1-4.1c0.2-7.7-0.6-29.7-6.1-39.2c-3.4-5.8-6.6-22.2-11.7-48.5c-4.7-24.7-11.2-58.5-16.6-64.9
		C315.2,127.2,312.8,126,309.9,126z M584.7,157.8L584.7,157.8L584.7,157.8z"/>
	<path class="st4" d="M287.3,422.7c0,0-5.3,23.3-7.3,26.7c-2,3.3-12,32.7,6,40s14-26.7,15.3-37.3c1.3-10.7-0.7-34-0.7-34
		S291.3,398.7,287.3,422.7z"/>
	<path class="st5" d="M292.6,458c0,0-4,10.7-6,12.7c-2,2,0.7,8.7,5.3,8.7C296.6,479.4,297.3,454.7,292.6,458z"/>
	<path class="st6" d="M332.6,422.7c0,0,10,2,8.7-14.7c-1.3-16.7-5.3-62.7-32.7-64.7c-27.3-2-34,42.7-34.7,45.3
		c-0.7,2.7-11.3,18,19.3,28.7S332.6,422.7,332.6,422.7z"/>
	<path class="st2" d="M335.3,389.4c0,0,1.7,25.3,5.9,25.3s4.1-15.3,2.8-24c-1.3-8.7-6.7-53.3-32.7-56c-26-2.7-37.3,32-43.3,46
		c-6,14-2,34,22.7,38.7c24.7,4.7,42,10.7,47.3,4s-16-4-32.7-10c-16.7-6-33.3-5.3-26.7-26s14.7-36.7,25.3-36.7
		S326.6,349.4,335.3,389.4z"/>
	<path class="st2" d="M302,344.7c0,0-14.7,56-8.7,68.7s20-12.7,25.3-34C324,358,327.3,328,302,344.7z"/>
	<path class="st7" d="M308,361.4c0,0-2.7,17.3,0.7,18C312,380,314,358.7,308,361.4z"/>
	<path class="st7" d="M301.3,396c0,0-5.3,0.7-4,5.3C298.6,406,313.3,402.7,301.3,396z"/>
	<path class="st6" d="M524,404c0,0-5.3,26-28.7,22.7s-51.3-18-46.7-32c4.7-14,18.7-36,24.7-41.3c6-5.3,22.7-24.7,34-16.7
		C518.6,344.7,524.6,370,524,404z"/>
	<path class="st2" d="M483.3,344.7c0,0-6,14.7-8.7,40.7c-2.7,26,2.7,34.7,8,34.7c5.3,0,10-16.7,12-32.7
		C496.6,371.4,499.3,326.7,483.3,344.7z"/>
	<path class="st2" d="M499.3,425.4c0,0-27.3-4-38-13.3c-10.7-9.3-6-26.7,6.7-44.7c12.7-18,29.3-34.7,40-24
		c10.7,10.7,17.3,44.7,14,63.3c0,0-1.3,5.3,4,2.7c4.8-2.4,8.7-37.3,0-57.3s-19.3-26.7-38.7-18.7c-19.3,8-36.7,38-42,52.7
		c-5.3,14.7-3.3,31.3,26.7,40.7S507.3,426,499.3,425.4z"/>
</g>
</svg>
