<?xml version="1.0" encoding="utf-8"?>
<!-- Generator: Adobe Illustrator 27.7.0, SVG Export Plug-In . SVG Version: 6.00 Build 0)  -->
<svg version="1.1" id="레이어_1" xmlns="http://www.w3.org/2000/svg" xmlns:xlink="http://www.w3.org/1999/xlink" x="0px"
	 y="0px" viewBox="0 0 800 800" style="enable-background:new 0 0 800 800;" xml:space="preserve">
<style type="text/css">
	.st0{fill:#282828;}
	.st1{fill:#F4EEDF;}
	.st2{fill:#FF991F;}
	.st3{fill:#363536;}
</style>
<g>
	<g>
		<path class="st0" d="M197.9,474.3c0,0-16.3-222.7,203.5-220.3C614.3,256.4,600,477.4,600,477.4S330.1,437.2,197.9,474.3z"/>
		<path d="M602.8,480.8l-3.2-0.5c-2.7-0.4-270.8-39.7-400.8-3.2l-3.5,1l-0.3-3.7c-0.1-1-1.8-25.8,4-58.9
			c5.4-30.7,18.6-74.4,50.8-108.6c35.6-37.9,86.6-56.7,151.7-56c62.2,0.7,111.3,20,145.9,57.4c32.2,34.7,45.6,78.9,51.2,109.8
			c6,33.4,4.5,58.4,4.4,59.4L602.8,480.8z M352.1,455.6c34,0,67.4,1.4,96.6,3.3c72.8,4.7,133.8,13,148.4,15
			c0.2-7.8,0.2-28.9-4.5-54.9c-5.4-30.1-18.5-73-49.7-106.7c-33.5-36.1-81.1-54.7-141.6-55.4c-63.3-0.7-112.9,17.5-147.2,54.1
			c-31.1,33.1-44,75.6-49.2,105.4c-4.5,25.2-4.4,45.9-4.2,53.9C242.9,459.2,298.2,455.6,352.1,455.6z"/>
	</g>
	<g>
		<path class="st0" d="M199.7,470.1c0,0-39,58.9-4.4,69.1s101.3-34,203.8-31s183.1,31.3,202.6,36.9c29,8.3,17-40.9-2.8-69.1
			c0,0-54-52.6-209.5-50.2C247.5,427.8,199.7,470.1,199.7,470.1z"/>
		<path d="M607.6,549c-2,0-4.2-0.3-6.8-1c-2.1-0.6-4.9-1.5-8.4-2.5c-28-8.6-102.4-31.6-193.5-34.2c-56.8-1.7-101.8,11.1-138,21.3
			c-28.2,8-50.5,14.3-66.6,9.5c-7.5-2.2-12.5-6.7-14.9-13.2c-7.9-21.5,16.6-58.8,17.6-60.4l0.2-0.3l0.3-0.3
			c0.5-0.4,12.7-11.1,42.6-22c27.3-10,75.3-22,149-23.1c80.8-1.2,133.9,12.6,164.2,24.4c33.1,12.9,46.9,26.1,47.4,26.6l0.2,0.2
			l0.2,0.2c15.6,22.3,26.3,56.7,17.2,69.4C616.7,546.3,613.4,549,607.6,549z M388.9,505.1c3.4,0,6.8,0,10.3,0.2
			c91.9,2.7,166.8,25.8,195,34.5c3.5,1.1,6.2,1.9,8.3,2.5c8.1,2.3,10.4-0.9,11.2-2c6.7-9.5-1.7-40.2-17.1-62.2
			c-1.7-1.6-15.6-13.7-45.7-25.4c-29.8-11.5-81.9-25.1-161.4-23.8c-72.6,1-119.8,12.8-146.6,22.5c-26.6,9.6-38.9,19.2-40.9,20.8
			c-2.4,3.8-23.2,37-16.8,54.7c1.7,4.7,5.3,7.8,11,9.5c14.4,4.3,36-1.8,63.2-9.6C293.8,517,336,505.1,388.9,505.1z"/>
	</g>
	<g>
		<path class="st1" d="M365.1,372.5c0,0-13.2-13.7-20.7-14.8c0,0-1.2,1.4,0.4,4.5s1,3.6-1.9,1.7s-10-7.5-10.3-15.1
			c-0.3-7.5,11.5-6.1,11.5-6.1s-0.5-3.7,5.4-5.6s34.5-6,60.4-5.9s39.1-5.1,46.4-14.9c0,0,1.6-0.4,0.8,3.8
			c-0.8,4.2-4.9,23.8-19.2,31.1c0,0-2.1,0.8-2.6,2.6c-0.6,1.9-3,8.9-5.1,10.8c0,0,0.8,21.8-17.3,29.6c-18.1,7.8-53.7,0.8-53.7,0.8
			s-1.3-0.5,0-3.9S364.2,377.5,365.1,372.5z"/>
		<path class="st2" d="M447.9,327.4c-2.5,1.8-7.5,4.9-13.5,5.8c-8.5,1.2-23.7,0.6-41,1.4c-17.2,0.9-40.3,4.2-43.9,5.7
			s-5.3,4.6-5.3,4.6s-8-0.8-8.9,4.5c-0.6,3.5,1.4,6.3,2.8,7.8c0.3,0.4,1,0.1,0.9-0.4c-0.3-1.6-0.2-3.8,2.2-3.9
			c3.9-0.1,21.7,6.9,28.7,15.2l-5.2,18.3c-0.2,0.8,0.3,1.6,1.1,1.6c3.9,0.4,14.5,1.3,26.4,1.3c14.3,0,25.6-0.8,28.8-13.7
			c0.2-0.7-0.6-1.2-1.2-0.9c-2,1.1-5.7,2.7-11.2,3c-8.4,0.5-16.3-0.2-16.3-0.2l2.6-9.3c0,0,19.5,1.6,27.7-6.9
			c4.2-4.3,5.3-7.1,5.8-8.6c0.3-0.9-0.7-1.6-1.4-1.1c-2.5,1.5-8.1,4.4-15.2,4.5c-9.7,0.2-13.3-0.2-13.3-0.2s1.6-7.3,6.4-8
			c4.7-0.7,37.2,2.5,43.9-19.6C449.1,327.6,448.4,327,447.9,327.4z M403.7,343.6l-13.6,3.9c0,0-6.9,5.9-7.8,6.9s-6,11.4-6,11.4
			s-11.6-7.8-20.3-10.9c-8.7-3.1-15.9-5.8-15.9-5.8s4.8-0.9,7.7-5.2s37.5-4.9,40.1-4.9s15.5,0.5,17.1,0.5
			C406.7,339.5,403.7,343.6,403.7,343.6z"/>
		<path class="st3" d="M446.8,329.1c0,0-9.6,7.2-28.7,6.2s-57.4,3.3-66.7,5.8c0,0-3.6,0.3-6.7,5.2c0,0-6.4-0.8-8.8,1.8
			c-2.4,2.5,1.1,7.1,1.1,7.1s0-3.5,2.8-3.7s9.8,1,21.2,7.7c11.4,6.7,10.6,9.2,10.6,9.2l-5,17.8c0,0,7.8,1.4,29.5,1.2
			s22.7-10.6,22.7-10.6s-13.6,4.8-29.9,2l3.8-13.2c0,0,28.7,3,32.1-11.1c0,0-13.1,5.7-29.7,3.2c0,0,1.9-8.8,6.9-11.5
			s20.9,1,33.9-5.5C448.9,334.2,446.8,329.1,446.8,329.1z M381.1,347c-4.7,2.3-7,14.5-7,14.5c-17.4-9.4-27-9.7-28.7-11.1
			s1.1-3,2.1-3.5c1-0.4,3.8,0.4,5.7,0.8c1.9,0.4,2.5,0.4,4.4-0.5c2-0.9,0.3-1.4,0.3-1.4c-4.8,1-9.3-0.3-9.3-0.3s-2-3.8,19-3.4
			s29.6,1.3,29.6,1.3S385.8,344.6,381.1,347z"/>
	</g>
</g>
</svg>
