<?xml version="1.0" encoding="utf-8"?>
<!-- Generator: Adobe Illustrator 27.7.0, SVG Export Plug-In . SVG Version: 6.00 Build 0)  -->
<svg version="1.1" id="레이어_1" xmlns="http://www.w3.org/2000/svg" xmlns:xlink="http://www.w3.org/1999/xlink" x="0px"
	 y="0px" viewBox="0 0 800 800" style="enable-background:new 0 0 800 800;" xml:space="preserve">
<style type="text/css">
	.st0{fill:#F24922;}
	.st1{fill:#0054CE;}
	.st2{fill:#F37321;}
	.st3{fill:#FFECDE;}
	.st4{fill:none;stroke:#F24922;stroke-width:7;stroke-miterlimit:10;}
</style>
<ellipse class="st0" cx="396.1" cy="257.8" rx="19.6" ry="20.9"/>
<g>
	<path class="st1" d="M197.9,474.3c0,0-16.3-222.7,203.5-220.3C614.3,256.4,600,477.4,600,477.4S330.1,437.2,197.9,474.3z"/>
	<path d="M602.8,480.8l-3.2-0.5c-2.7-0.4-270.8-39.7-400.8-3.2l-3.5,1l-0.3-3.7c-0.1-1-1.8-25.8,4-58.9
		c5.4-30.7,18.6-74.4,50.8-108.6c35.6-37.9,86.6-56.7,151.7-56c62.2,0.7,111.3,20,145.9,57.4c32.2,34.7,45.6,78.9,51.2,109.8
		c6,33.4,4.5,58.4,4.4,59.4L602.8,480.8z M352.1,455.6c34,0,67.4,1.4,96.6,3.3c72.8,4.7,133.8,13,148.4,15
		c0.2-7.8,0.2-28.9-4.5-54.9c-5.4-30.1-18.5-73-49.7-106.7c-33.5-36.1-81.1-54.7-141.6-55.4c-63.3-0.7-112.9,17.5-147.2,54.1
		c-31.1,33.1-44,75.6-49.2,105.4c-4.5,25.2-4.4,45.9-4.2,53.9C242.9,459.2,298.2,455.6,352.1,455.6z"/>
</g>
<path class="st1" d="M199.7,470.1c0,0-39,58.9-4.4,69.1s101.3-34,203.8-31s183.1,31.3,202.6,36.9c29,8.3,17-40.9-2.8-69.1
	c0,0-54-52.6-209.5-50.2C247.5,427.8,199.7,470.1,199.7,470.1z"/>
<g>
	<path class="st2" d="M371.7,343.7l-11.7,8.1c0,0-7-16.6,9.8-28.3c16.8-11.7,30.6-11.4,42.6-11.2c12,0.1,15.7,1.7,18.4,3.5
		s3.6,5.1,3.6,5.1l-10.2,5.7c0,0-4-7-5.9-7.5c-1.9-0.4-9.2-0.6-9.2-0.6l-7.4,23.4l22.1,0.8c0,0,1.3,0.1-0.4,1.9c-1.9,1.8-6,4.1-7,4
		c-0.9,0.1-17.5,0.5-17.5,0.5s-5,18.4-14.3,24.2c0.4,0,4.1,0,18.9,0.3c14.8,0.3,16.6-1,17.1-4.2c0.5-3.2,0-4.7,0-4.7l12-4
		c0,0-1,10.2-10,16.4c-8.8,6.3-10.7,3.9-16.7,4.4c-6,0.3-40.2,3-46.6,4.6l3.3-7.8c0,0,14.3-1.2,19.4-27.3l-4.1,0.4
		c0,0-1.9,0,0.9-2.7c2.8-2.7,6.1-6.9,6.1-6.9s5.9-20.7,5.9-22.9c0,0-13.2,2-19.5,11.2C366.7,337.2,371.7,343.7,371.7,343.7z"/>
	<path class="st3" d="M401.8,312.2c3.7-0.2,7.2-0.1,10.5,0c12,0.1,15.7,1.7,18.4,3.5c2.8,1.8,3.6,5.1,3.6,5.1l-10.2,5.7
		c0,0-4-7-5.9-7.5c-1.9-0.4-9.2-0.6-9.2-0.6l-7.4,23.4l22.1,0.8c0,0,1.3,0.1-0.4,1.9c-1.9,1.8-5.9,3.9-7,4l0,0
		c-0.9,0.1-17.5,0.5-17.5,0.5s-5,18.4-14.3,24.2c0.4,0,4.1,0,18.9,0.3c3.5,0.1,6.3,0.1,8.4-0.1c7.2-0.4,8.3-1.8,8.7-4.2
		c0.5-3.2,0-4.7,0-4.7l12-4c0,0-1,10.2-10,16.4c-4.9,3.5-7.6,4.3-10,4.4c-2,0.1-3.9-0.3-6.5-0.2l-0.1,0c-6,0.3-40.2,3-46.6,4.6
		l3.3-7.8c0,0,14.3-1.2,19.4-27.3l-4.1,0.4c0,0-1.9,0,0.9-2.7c2.8-2.7,6.1-6.9,6.1-6.9s5.9-20.7,5.9-22.9c0,0-13.2,2-19.5,11.2
		c-4.7,6.8,0.2,13.4,0.2,13.4l-11.7,8.1c0,0-7-16.6,9.8-28.3C381.9,315.1,392.4,312.8,401.8,312.2 M401.6,309.1
		c-8.5,0.5-20.1,2.2-33.7,11.7c-9.7,6.8-12.2,15.2-12.6,21c-0.3,6.3,1.7,11.1,1.7,11.2l1.5,3.6l3.3-2.3l11.7-8.1l2.8-1.9l-2-2.7
		c-0.3-0.5-3.3-4.9-0.1-9.6c3.2-4.7,8.7-7.3,12.6-8.5c-1.1,4.3-2.9,10.8-4.5,16.9c-1,1.1-3.4,4-5.4,6c-0.9,0.8-3.4,3.2-2.3,6
		c0.6,1.4,2,2.4,3.6,2.3l0,0c-2.4,9.4-6.3,14.4-9.1,17c-3.3,3-6.1,3.4-6.3,3.4l-2,0.1l-0.7,1.9l-3.3,7.8l-2.7,6.1l6.6-1.7
		c5.8-1.5,38.1-4.2,45.9-4.6l0.1,0c1.2-0.1,2.3,0,3.3,0.1c1.1,0.1,2,0.2,3.2,0.1c3.6-0.2,7-1.7,11.7-5c10-7.1,11.3-18.2,11.4-18.7
		l0.5-5l-4.8,1.6l-12,4l-3.4,1.1l1.2,2.9c0,0.3,0.2,1.3-0.2,3.2c-0.1,0.3-0.1,0.4-0.1,0.5c-0.1,0.1-1.2,0.7-5.5,1
		c-2.1,0.1-4.8,0.1-8.1,0l-11.1-0.2c4.6-6.1,7.5-14,8.7-17.9c6.2-0.2,14.3-0.5,15-0.5c0.1,0,0.1,0,0.3,0c2.3-0.1,7.2-3,9-4.9
		c1.8-1.7,2.3-3.5,1.7-5.1c-0.5-1.4-1.9-2.3-3.5-2.3l-17.9-0.6l5.3-16.9c2.4,0.1,4.7,0.3,5.6,0.4c0.8,0.8,2.7,3.4,4.2,6l1.6,2.8
		l2.8-1.6l10.2-5.7l2.2-1.2l-0.7-2.5c-0.2-0.4-1.3-4.5-4.9-6.9c-3.6-2.5-7.9-4-20.2-4.1C408.9,308.8,405.4,308.9,401.6,309.1
		L401.6,309.1z"/>
</g>
<path class="st4" d="M185.2,527.3c0,0,17.6,1.8,68.2-13.6c50.7-15.4,104-21.9,141.3-21.9s117.3,8.9,167.1,25.1
	c49.8,16.2,57.8,14.6,57.8,14.6"/>
<path d="M607.6,549c-2,0-4.2-0.3-6.8-1c-2.1-0.6-4.9-1.5-8.4-2.5c-28-8.6-102.4-31.6-193.5-34.2c-56.8-1.7-101.8,11.1-138,21.3
	c-28.2,8-50.5,14.3-66.6,9.5c-7.5-2.2-12.5-6.7-14.9-13.2c-7.9-21.5,16.6-58.8,17.6-60.4l0.2-0.3l0.3-0.3c0.5-0.4,12.7-11.1,42.6-22
	c27.3-10,75.3-22,149-23.1c80.8-1.2,133.9,12.6,164.2,24.4c33.1,12.9,46.9,26.1,47.4,26.6l0.2,0.2l0.2,0.2
	c15.6,22.3,26.3,56.7,17.2,69.4C616.7,546.3,613.4,549,607.6,549z M388.9,505.1c3.4,0,6.8,0,10.3,0.2c91.9,2.7,166.8,25.8,195,34.5
	c3.5,1.1,6.2,1.9,8.3,2.5c8.1,2.3,10.4-0.9,11.2-2c6.7-9.5-1.7-40.2-17.1-62.2c-1.7-1.6-15.6-13.7-45.7-25.4
	c-29.8-11.5-81.9-25.1-161.4-23.8c-72.6,1-119.8,12.8-146.6,22.5c-26.6,9.6-38.9,19.2-40.9,20.8c-2.4,3.8-23.2,37-16.8,54.7
	c1.7,4.7,5.3,7.8,11,9.5c14.4,4.3,36-1.8,63.2-9.6C293.8,517,336,505.1,388.9,505.1z"/>
</svg>
