<?xml version="1.0" encoding="utf-8"?>
<!-- Generator: Adobe Illustrator 27.7.0, SVG Export Plug-In . SVG Version: 6.00 Build 0)  -->
<svg version="1.1" id="레이어_1" xmlns="http://www.w3.org/2000/svg" xmlns:xlink="http://www.w3.org/1999/xlink" x="0px"
	 y="0px" viewBox="0 0 800 800" style="enable-background:new 0 0 800 800;" xml:space="preserve">
<style type="text/css">
	.st0{fill:#FFCACF;}
	.st1{fill:#FCEBED;}
	.st2{fill:#110809;}
	.st3{fill:#EFEFEF;}
	.st4{fill:#08080A;}
	.st5{fill:#FFE02C;}
</style>
<g id="_x34__00000135657874613666805300000015245919091367443124_">
	<g>
		<path class="st0" d="M296.8,432.6c0,0,22.6-30.8,100.3-29.9s106.9,35.3,106.9,35.3l-9.6,10.7c0,0-42-23-96.7-23.7
			c-54.8-0.7-99.5,24-99.5,24L296.8,432.6z"/>
		<path d="M495.1,453.2l-2.6-1.5c-0.5-0.3-41.8-22.6-95.1-23.2c-53.1-0.5-97.2,23.4-97.7,23.6l-5.1,2.8l-1.9-23.3l0.7-1.1
			c1-1.4,24.5-32.4,103.3-31.5c78.4,0.9,108.4,35.1,109.6,36.6l2.2,2.5L495.1,453.2z M392.5,421.1c1.7,0,3.3-0.1,5-0.1
			c48,0.6,85.8,17.8,95.8,22.8l5.3-6c-3.2-3-10.2-8.7-21.3-14.3c-15.1-7.6-41.4-16.8-80.5-17.3c-67.1-0.8-91.8,22.4-96.4,27.5
			l0.7,9.3C314.2,436.8,349.7,421.8,392.5,421.1z"/>
	</g>
	<g>
		<path class="st0" d="M226.9,334.6c-4.1,6.1-11.6,9.2-18.9,7.8c-15.9-2.8-44.1-4-63.5,17.3c-28.5,31.1-18.4,136.8,102.6,116
			c121.1-20.9,110.3-123.1,80.7-153C300.2,295,260.1,286.4,226.9,334.6z"/>
		<path d="M219.9,482.2c-50.8,0.8-73.1-24.5-82.2-41.2c-16.6-30.5-10.7-67.3,4.3-83.6c20.9-22.8,50.9-21.3,67-18.5
			c5.9,1.1,11.7-1.4,15.1-6.3l0,0c15.2-22.1,32.6-34.1,51.9-35.8c18.5-1.6,37.8,6.6,54.5,23.6c16.1,16.2,27.1,52.2,16,87.2
			c-5.6,17.4-15.9,32.4-31,44.2c-17.1,13.7-39.9,22.9-67.7,27.8C237.7,481.2,228.3,482.1,219.9,482.2z M190.1,344.7
			c-13.9,0.2-30.4,3.9-42.9,17.6c-13.3,14.5-17.9,48.2-3.2,75.2c9.8,17.9,36,46.2,102.5,34.7c62.4-10.8,85-42.4,92.8-67.1
			c9.9-30.9,0.6-64.9-14.2-79.7c-15.2-15.3-32.3-22.9-48.6-21.4c-17,1.5-32.7,12.4-46.5,32.7c-5,7.3-13.9,10.9-22.5,9.4
			C202.8,345.4,196.8,344.6,190.1,344.7z"/>
	</g>
	<g>
		<path class="st1" d="M202.3,410.9c0,0-4.7,0.1-5.1,4.3c-0.4,4.2,1.3,8.6,10,9.5c0.3-0.6-3.2-4.3,0.1-6c3.3-1.7,16.9-1.3,16.9-1.3
			s1.6,14,3.5,14.6c2,0.6,26.5-10.4,30.8-15.9c4.3-5.5,0.7-11.8,0.7-11.8s-16.6,9.2-19.1,5.9c-2.5-3.1,15.1-7,17.9-11.3
			s0.5-8.9-2.2-8.3c-2.7,0.5-13.9,8.5-16.6,6.7c-2.7-1.8,19.7-11.6,23.7-16.7c4-5,3.7-15.1,3.7-15.1s-8.6,7.4-22.9,14.2
			C229.5,386.6,207.7,397.6,202.3,410.9z"/>
		<path class="st2" d="M227.6,433.4c-0.2,0-0.3,0-0.5,0c-0.8-0.1-2.9-0.7-4.5-14.6c-5.1-0.1-12.8,0.2-14.9,1.1
			c-0.3,0.2-0.4,0.3-0.6,0.5c-0.1,0.6,0.5,1.8,0.8,2.4c0.5,0.9,0.9,1.6,0.3,2.6l-0.4,0.8l-0.9-0.1c-4.2-0.5-7.4-1.8-9.3-3.9
			c-1.5-1.8-2.2-4.2-1.9-7.1c0.4-3.8,3.4-5.2,5.5-5.5c6-12.8,25.4-23.3,41.9-31.1c13.9-6.6,22.4-13.9,22.6-13.9l2.4-2l0,3.2
			c0,0.5,0.3,10.7-4,16c-2.1,2.6-8.2,6.2-14,9.4c-2.4,1.4-5.4,3.1-7.3,4.3c2.4-0.9,5.5-2.8,7.2-3.7c2.8-1.6,4.5-2.5,5.5-2.7
			c1.5-0.3,3.2,0.4,4.1,1.9c1.4,1.9,1.7,5.4-0.3,8.8c-1.5,2.4-6,4.2-10.6,6.2c-2.4,1.1-6,2.5-7,3.4c2,0.4,9.6-2.4,16.9-6.4l1.2-0.6
			l0.8,1.2c0.2,0.3,4,7.2-0.8,13.4C255.3,422.5,231.9,433.3,227.6,433.4z M218.7,415.9c2.6,0,4.8,0.1,5.3,0.1l1.4,0l0.2,1.2
			c0.7,5.3,1.8,11.6,2.6,13.2c3.8-0.8,25.3-10.4,29.2-15.2c2.7-3.4,1.9-6.8,1.2-8.8c-6.7,3.6-16.9,8.1-19.5,4.8
			c-0.5-0.6-0.6-1.3-0.5-2.1c0.6-2.1,3.6-3.5,9.1-5.7c3.7-1.6,8.2-3.4,9.3-5.1c1.3-2.1,1.1-4.2,0.4-5.4c-0.2-0.3-0.6-0.7-1.1-0.6
			c-0.8,0.2-2.8,1.4-4.8,2.3c-6.3,3.6-10.6,5.7-13.1,4.3c-0.6-0.4-0.9-1-0.9-1.6c0.1-2,2.8-3.7,11.2-8.5c5.1-2.9,11.4-6.5,13.1-8.8
			c2.4-2.9,3-7.9,3.3-11.1c-3.6,2.6-10.7,7.7-20.6,12.4c-9.6,4.5-35,16.5-40.7,30.3l-0.4,0.9l-0.9,0c-0.3,0-3.3,0.2-3.6,3.1
			c-0.3,2,0.2,3.6,1.3,4.8c1.1,1.2,2.6,2.1,4.9,2.5c-0.3-0.9-0.6-2.1-0.2-3.2c0.3-0.9,1-1.7,2.1-2.3
			C208.7,416.2,214.5,415.9,218.7,415.9z"/>
	</g>
	<g>
		<path class="st3" d="M585.2,299.6c0,0,9-1.8,27.6-10.4c18.6-8.6,21.4-8.5,24.3,1.4c2.9,9.9,6.8,11.1,2,20.8
			c-4.8,9.7-4.6,13.8,0.4,13.7c4.8,0.1,16.1,14.7,13.2,24.4c-2.9,9.5-8.5,14.2-8.5,14.2s10.6,62.3-15.9,94.5
			c-26.6,32.2-75.5,39.9-118.8,11.8c-43.4-28.1-76.1-72-40.2-123.5S563.8,303.2,585.2,299.6z"/>
		<path d="M566,491.1c-20.1,0.3-40.2-5.9-58.8-17.9c-22.1-14.3-49.8-38-56-69.7c-3.9-19.5,1-39.4,14.6-58.9
			c30.2-43.6,76.4-46,104.1-47.3c5.9-0.2,11-0.6,14.8-1.1c0.6-0.2,9.5-2.1,26.7-10.1c12-5.6,18.3-8,23.1-5.8
			c3.8,1.8,5.2,5.8,6.3,9.6c0.8,2.6,1.6,4.5,2.2,6.1c2.3,5.4,3.5,9.1-0.6,17.2c-2.6,5.2-3.1,7.4-3,8.5l0.2,0c4.5-0.1,8.8,4.8,11,7.8
			c4.2,5.7,7.9,14.2,5.8,21.3c-2.1,7.4-6,12.2-8.2,14.5c1.7,11.1,8,65.3-17.1,95.6c-13.8,16.7-33.5,27.4-55.6,29.8
			C572.2,490.9,569,491.1,566,491.1z M630.2,286.7c-3.3,0.1-11.4,3.8-15.9,6c-18.7,8.7-28,10.5-28.5,10.7l-0.2,0
			c-4.2,0.7-9.5,0.9-15.7,1.3c-26.2,1.3-70.1,3.7-98.2,44.2c-12.4,17.8-16.9,35.9-13.5,53.3c5.7,29.2,31.9,51.4,52.7,64.9
			c39.6,25.6,87.5,21,114-11.1c25.2-30.6,15.3-91,15.2-91.6l-0.3-2.1l1.8-1.4c0,0,4.9-4,7.3-12.3c0.9-2.9-0.1-7.4-2.8-12
			c-2.6-4.5-5.8-7.3-6.9-7.6c-3.6-0.1-5.5-1.7-6.4-3.2c-2-3.3-1.2-8,2.9-16c2.8-5.5,2.2-6.8,0.4-11c-0.8-1.8-1.7-4-2.5-7
			s-1.6-4.7-2.3-4.9C631,286.6,630.7,286.6,630.2,286.7z M639.2,328.9L639.2,328.9L639.2,328.9z"/>
	</g>
	<path class="st4" d="M496.1,382.6c-0.3-1.7,0.1-3.5,1.1-4.8c2.2-3.1,8.1-9.3,14.9-4c8.6,6.8-2.6,18.4-10.3,14.9
		C497.9,386.8,496.5,384.4,496.1,382.6z"/>
	<path class="st4" d="M589,419.6c-0.6-1.5-0.7-3.3,0.1-5c1.6-3.3,6-10.8,13.6-7.2c9.7,4.8,1.5,18.7-6.8,16.8
		C591.6,423.3,589.8,421.4,589,419.6z"/>
	<g>
		<path class="st5" d="M531.6,400.6c0,0-2.2,12.7,11.5,18.8c13.7,6,23.4-10.6,23.4-10.6S537.9,392.3,531.6,400.6z"/>
		<path class="st2" d="M549.2,422.2c-2.1,0-4.4-0.4-6.8-1.4c-14.6-6.4-12.4-20.2-12.4-20.3l0-0.3l0.1-0.3c6.8-9,33.7,6,36.8,7.7
			l1.2,0.7l-0.7,1.2C567.6,409.5,560.4,422,549.2,422.2z M533.1,401.1c-0.3,2.1-0.6,11.8,10.7,16.7c10.3,4.5,18.2-5.1,20.7-8.8
			C553.8,403.4,537.2,396.7,533.1,401.1z"/>
	</g>
	<g>
		<path class="st5" d="M544.4,410.9L544.4,410.9c0.6,0.9,1.7,1.2,2.6,0.9c1.2-0.5,2.9-0.9,4.7-0.2c3.3,1.3,9.1,5.1,15.5-1.1
			s-6.6-18.7-16.6-20.7s-19.9,2.3-20.1,10c-0.1,5.4,5.2,7.3,8.3,7.9C541,407.8,543.2,409.1,544.4,410.9z"/>
		<path class="st2" d="M559.7,415.4c-3,0-5.6-1.1-7.4-2c-0.5-0.1-0.9-0.4-1.2-0.6c-1.1-0.4-2.3-0.4-3.5,0.2
			c-1.5,0.8-3.5,0.2-4.4-1.3l1.2-0.9l-1.2,0.8c-1.1-1.5-2.8-2.5-4.6-2.9c-6.2-1.1-9.6-4.5-9.5-9.4c0.1-3.2,1.6-5.9,4.2-8.1
			c4.3-3.4,11.1-4.7,17.6-3.3c7.9,1.5,17.2,9.2,19.1,15.7c0.8,3,0.2,5.6-1.7,7.6C565.3,414.4,562.4,415.3,559.7,415.4z M549.5,409.6
			c0.9,0,1.8,0.1,2.6,0.4c0.5,0.1,0.9,0.3,1.4,0.6c3.5,1.6,7.7,3.5,12.6-1.4c1.2-1.2,1.6-2.7,1-4.7c-1.6-5.6-10-12.2-16.8-13.6
			c-5.7-1.1-11.6-0.1-15.2,2.8c-1.3,1.1-3,3.1-3.1,5.8c-0.1,4.2,3.9,5.7,7,6.4c2.7,0.4,5,2,6.5,4.1l0,0c0.2,0.3,0.5,0.4,0.8,0.3
			C547.4,410,548.4,409.7,549.5,409.6z"/>
	</g>
</g>
</svg>
