<?xml version="1.0" encoding="utf-8"?>
<!-- Generator: Adobe Illustrator 27.7.0, SVG Export Plug-In . SVG Version: 6.00 Build 0)  -->
<svg version="1.1" id="레이어_1" xmlns="http://www.w3.org/2000/svg" xmlns:xlink="http://www.w3.org/1999/xlink" x="0px"
	 y="0px" viewBox="0 0 800 800" style="enable-background:new 0 0 800 800;" xml:space="preserve">
<style type="text/css">
	.st0{fill:#F24922;}
	.st1{fill:#090815;}
</style>
<g>
	<ellipse class="st0" cx="396.1" cy="257.8" rx="19.6" ry="20.9"/>
	<path d="M396.1,281.7c-12.4,0-22.6-10.7-22.6-23.9s10.1-23.9,22.6-23.9c12.4,0,22.6,10.7,22.6,23.9S408.5,281.7,396.1,281.7z
		 M396.1,239.9c-9.1,0-16.6,8-16.6,17.9c0,9.9,7.4,17.9,16.6,17.9s16.6-8,16.6-17.9C412.7,247.9,405.2,239.9,396.1,239.9z"/>
</g>
<path class="st1" d="M197.9,474.3c0,0-16.3-222.7,203.5-220.3C614.3,256.4,600,477.4,600,477.4S330.1,437.2,197.9,474.3z"/>
<path d="M602.8,480.8l-3.2-0.5c-2.7-0.4-270.8-39.7-400.8-3.2l-3.5,1l-0.3-3.7c-0.1-1-1.8-25.8,4-58.9
	c5.4-30.7,18.6-74.4,50.8-108.6c35.6-37.9,86.6-56.7,151.7-56c62.2,0.7,111.3,20,145.9,57.4c32.2,34.7,45.6,78.9,51.2,109.8
	c6,33.4,4.5,58.4,4.4,59.4L602.8,480.8z M352.1,455.6c34,0,67.4,1.4,96.6,3.3c72.8,4.7,133.8,13,148.4,15c0.2-7.8,0.2-28.9-4.5-54.9
	c-5.4-30.1-18.5-73-49.7-106.7c-33.5-36.1-81.1-54.7-141.6-55.4c-63.3-0.7-112.9,17.5-147.2,54.1c-31.1,33.1-44,75.6-49.2,105.4
	c-4.5,25.2-4.4,45.9-4.2,53.9C242.9,459.2,298.2,455.6,352.1,455.6z"/>
<path class="st0" d="M199.7,470.1c0,0-39,58.9-4.4,69.1s101.3-34,203.8-31s183.1,31.3,202.6,36.9c29,8.3,17-40.9-2.8-69.1
	c0,0-54-52.6-209.5-50.2C247.5,427.8,199.7,470.1,199.7,470.1z"/>
<path d="M607.6,549c-2,0-4.2-0.3-6.8-1c-2.1-0.6-4.9-1.5-8.4-2.5c-28-8.6-102.4-31.6-193.5-34.2c-56.8-1.7-101.8,11.1-138,21.3
	c-28.2,8-50.5,14.3-66.6,9.5c-7.5-2.2-12.5-6.7-14.9-13.2c-7.9-21.5,16.6-58.8,17.6-60.4l0.2-0.3l0.3-0.3c0.5-0.4,12.7-11.1,42.6-22
	c27.3-10,75.3-22,149-23.1c80.8-1.2,133.9,12.6,164.2,24.4c33.1,12.9,46.9,26.1,47.4,26.6l0.2,0.2l0.2,0.2
	c15.6,22.3,26.3,56.7,17.2,69.4C616.7,546.3,613.4,549,607.6,549z M388.9,505.1c3.4,0,6.8,0,10.3,0.2c91.9,2.7,166.8,25.8,195,34.5
	c3.5,1.1,6.2,1.9,8.3,2.5c8.1,2.3,10.4-0.9,11.2-2c6.7-9.5-1.7-40.2-17.1-62.2c-1.7-1.6-15.6-13.7-45.7-25.4
	c-29.8-11.5-81.9-25.1-161.4-23.8c-72.6,1-119.8,12.8-146.6,22.5c-26.6,9.6-38.9,19.2-40.9,20.8c-2.4,3.8-23.2,37-16.8,54.7
	c1.7,4.7,5.3,7.8,11,9.5c14.4,4.3,36-1.8,63.2-9.6C293.8,517,336,505.1,388.9,505.1z"/>
<path class="st0" d="M437.9,319.1c-1.3-6.4-2.2-16-5.3-16.3c-3.1-0.5-40.7,2.4-62.9,10.7c-18.5,7-20.4,24-15.2,31.7
	c0.8,1.3,2,2.4,3.5,2.9c1,0.4,2.1,0.5,2.2-0.5c0,0-2.8-10.8,7-22c5.3-6.1,15.8-9.2,26.6-10.9c-4.3,8.4-19.8,38.9-27.4,50.4
	c-9,13.5-16,11.5-18.6,15.4c-2.6,3.9-3.3,9-0.2,9.3c3.1,0.3,2.4-2.8,21.3-3.6c19-0.8,43.4-4.9,48.6-13.6c5.2-8.8,10.6-17.4,8.5-17.6
	c-2.1-0.2-3.2,0.6-11.7,11c-8.1,9.8-37.1,10.3-46.7,10.5c-0.3,0-0.5-0.4-0.2-0.6c4.3-2,17.7-9.5,26.2-28.1c0,0,10.6-0.8,14.7-1.2
	c4.1-0.5,5.2,0.7,6.4-1.3c1.2-2,5.1-7.7,2-8c-3.1-0.5-5.6,3.5-19.2,2.8c0,0,10.7-20.1,17.2-27.3c1.3-0.1,2.6-0.1,4-0.3
	c0,0,7.5-1.1,11,4.5s1.7,11.7,5.9,11.2C439.9,327.7,439.2,325.6,437.9,319.1z"/>
</svg>
