<?xml version="1.0" encoding="utf-8"?>
<!-- Generator: Adobe Illustrator 27.7.0, SVG Export Plug-In . SVG Version: 6.00 Build 0)  -->
<svg version="1.1" id="레이어_1" xmlns="http://www.w3.org/2000/svg" xmlns:xlink="http://www.w3.org/1999/xlink" x="0px"
	 y="0px" viewBox="0 0 800 800" style="enable-background:new 0 0 800 800;" xml:space="preserve">
<style type="text/css">
	.st0{fill:#EACA96;}
	.st1{fill:#04060A;}
	.st2{fill:#EFEFEF;}
	.st3{fill:#08080A;}
	.st4{fill:#FFE02C;}
	.st5{fill:#FFB3C2;}
	.st6{fill:#F4D6A0;}
	.st7{fill:#ED6326;}
	.st8{fill:#0F090E;}
</style>
<g id="_x36_">
	<g>
		<g>
			<path class="st0" d="M296.9,432.6c0,0,22.6-30.8,100.3-29.9S504.1,438,504.1,438l-9.6,10.7c0,0-42-23-96.7-23.7
				c-54.8-0.7-99.5,24-99.5,24L296.9,432.6z"/>
			<path class="st1" d="M495.1,452.7l-2.3-1.3c-0.5-0.3-42-22.7-95.2-23.2c-53.1-0.7-97.4,23.4-97.8,23.7l-4.5,2.5l-1.9-22.6
				l0.7-1.1c1-1.4,24.4-32.2,103-31.3c40.7,0.4,68.2,10.2,84,18.3c17.3,8.9,25,17.7,25.3,18.2l1.8,2.2L495.1,452.7z M392.7,421.5
				c1.7,0,3.3-0.1,5-0.1c48.3,0.6,86.3,18,96,22.9l5.8-6.4c-3.2-3-10.2-8.7-21.6-14.6c-15.2-7.8-41.4-17-80.7-17.4
				c-39.1-0.4-63.5,7.3-77.2,14c-11.7,5.8-17.6,11.6-19.5,13.7l0.8,9.9C313.5,437.6,349.3,422.1,392.7,421.5z"/>
		</g>
		<g>
			<g>
				<path class="st2" d="M585.3,299.6c0,0,9-1.8,27.6-10.4c18.6-8.6,21.4-8.5,24.3,1.4c2.9,9.9,6.8,11.1,2,20.8
					c-4.8,9.7-4.6,13.8,0.4,13.7c4.8,0.1,16.1,14.7,13.2,24.4c-2.9,9.5-8.5,14.2-8.5,14.2s10.6,62.3-15.9,94.5
					c-26.5,32.2-75.5,39.9-118.8,11.8c-43.3-28.1-76.1-72-40.2-123.5S563.8,303.2,585.3,299.6z"/>
				<path class="st1" d="M566,490.7c-19.9,0.3-40.1-5.7-58.6-17.8c-22.1-14.3-49.6-38-55.8-69.4c-3.8-19.4,1-39.2,14.6-58.7
					c30.1-43.5,76.2-45.8,103.8-47.2c5.9-0.2,11-0.6,14.8-1.1c0.6-0.2,9.5-2.1,26.8-10.2c12.4-5.8,18.3-7.8,22.8-5.8
					c3.6,1.6,5.1,5.7,6.2,9.4c0.8,2.6,1.6,4.5,2.4,6.3c2.3,5.4,3.5,8.8-0.6,16.9c-2.9,5.9-3.2,8.2-3.2,8.9c0.2,0,0.3,0,0.5,0
					c4.5-0.1,9,5.3,10.7,7.7c4.2,5.5,7.9,14.1,5.8,21c-2.3,7.4-6.1,12.2-8.2,14.5c1.5,10.7,8.1,65.2-16.9,95.4
					c-13.8,16.7-33.4,27.2-55.3,29.8C572.2,490.4,569.2,490.6,566,490.7z M630.4,286.2c-3.5,0.1-11.3,3.6-16,6
					c-18.7,8.7-28,10.5-28.3,10.7l-0.2,0c-4.1,0.7-9.5,0.9-15.7,1.3c-26.4,1.3-70.4,3.7-98.5,44.4c-12.4,18-16.9,36-13.5,53.6
					c5.7,29.3,31.9,51.5,52.9,65.2c39.8,25.8,88,21.1,114.5-11.1c25.3-30.7,15.3-91.3,15.1-91.9l-0.3-2l1.5-1.2
					c0,0,4.9-4.1,7.5-12.5c1-3.2-0.3-8-3.2-12.9c-2.8-4.6-5.8-7-6.9-7.1c-3.5-0.1-5.3-1.6-6.1-2.9c-1.9-3.1-1-7.8,2.9-15.6
					c2.8-5.6,2.2-7.1,0.4-11.3c-0.8-1.8-1.7-4-2.5-7c-0.6-2-1.4-4.7-2.5-5.1C631.3,286.4,630.8,286.2,630.4,286.2z M639.5,328.6
					L639.5,328.6L639.5,328.6z"/>
			</g>
			<path class="st3" d="M496.9,382.6c-0.3-1.7,0.1-3.5,1.1-4.8c2.2-3.1,8.1-9.3,14.9-4c8.6,6.8-2.6,18.4-10.3,14.9
				C498.8,386.8,497.4,384.4,496.9,382.6z"/>
			<path class="st3" d="M589.2,419.6c-0.6-1.5-0.7-3.3,0.1-5c1.6-3.3,6-10.8,13.6-7.2c9.7,4.8,1.5,18.7-6.8,16.8
				C591.8,423.3,590,421.4,589.2,419.6z"/>
			<g>
				<path class="st4" d="M531.7,400.6c0,0-2.2,12.7,11.5,18.8c13.7,6,23.4-10.6,23.4-10.6S537.9,392.3,531.7,400.6z"/>
				<path class="st1" d="M549.4,424c-2.4,0-4.8-0.4-7.4-1.5c-12.8-5.5-14.4-17.1-13.5-22.4l0.1-0.8l0.4-0.6
					c3.7-4.9,11.4-4.9,23.5-0.2c8,3,15.2,7.2,15.5,7.3l2.9,1.6l-1.6,2.9C566.3,415.6,558.9,423.8,549.4,424z M534.9,402
					c-0.1,2.7,0.5,10.2,9.6,14.2c7.7,3.3,14.1-2.6,17.1-6.5C550.8,404,538.3,399.9,534.9,402z"/>
			</g>
			<g>
				<path class="st4" d="M544.5,410.9L544.5,410.9c0.6,0.9,1.7,1.2,2.6,0.9c1.2-0.5,2.9-0.9,4.7-0.2c3.3,1.3,9.1,5.1,15.5-1.1
					c6.4-6.3-6.6-18.7-16.6-20.7c-10-2-19.9,2.3-20.1,10c-0.1,5.4,5.2,7.3,8.3,7.9C541.2,407.8,543.2,409.1,544.5,410.9z"/>
				<path class="st1" d="M559.9,417.2c-3.5,0.1-6.4-1.3-8.3-2.1c-0.5-0.1-0.8-0.3-1.2-0.4c-0.2-0.1-0.9-0.3-2,0.2
					c-2.4,1.1-5.3,0.2-6.7-1.9l0,0c-0.8-1-2-1.9-3.5-2.1c-7-1.2-11.1-5.4-11-11.1c0.1-3.6,1.9-7,5-9.4c4.6-3.7,12-5.2,19.2-3.6
					c8.6,1.8,18.4,9.8,20.5,17c1.1,3.6,0.3,6.9-2.3,9.4C566.2,416,562.9,417.1,559.9,417.2z M549.6,407.8c1.2,0,2.3,0.1,3.3,0.6
					c0.5,0.1,0.9,0.4,1.4,0.6c3.9,1.7,6.8,2.6,10.5-0.9c0.4-0.5,0.9-1.2,0.6-2.7c-1.4-4.8-9.2-11-15.4-12.3
					c-5.1-1.1-10.6-0.1-13.7,2.3c-1.5,1.2-2.4,2.8-2.3,4.4c-0.1,2.3,1.9,3.7,5.5,4.4c2.9,0.6,5.5,2,7.2,4.1
					C547.7,408,548.6,407.9,549.6,407.8z M547.2,409.1L547.2,409.1L547.2,409.1z"/>
			</g>
		</g>
	</g>
	
		<ellipse transform="matrix(0.4864 -0.8737 0.8737 0.4864 -92.8507 628.1531)" class="st5" cx="487.9" cy="393.1" rx="8.1" ry="11.9"/>
	<ellipse transform="matrix(0.2454 -0.9694 0.9694 0.2454 29.6903 912.5656)" class="st5" cx="601" cy="437.2" rx="8.1" ry="11.9"/>
	<g>
		<g>
			<path class="st6" d="M160.9,416.2c0,0-7.4-9.8-13.6-1.7c-6.2,8.1-1.8,37.7,25.2,32.6s172.5-70.6,172.5-70.6s10.9-8.8,2.8-30.7
				c-8-21.9-23.1-8.8-27.6,1.5c-4.5,10.3-101.4,35.1-106.9,38.3C207.9,388.9,160.9,416.2,160.9,416.2z"/>
			<path class="st1" d="M167.2,451.1c-12.1,0.2-18.4-6.7-21.1-11.1c-5.9-9.4-5.3-22.1-1.3-27.4c2.8-3.8,6-4.6,8.1-4.5
				c3.6-0.1,6.8,2.2,8.7,4.1c9.6-5.6,45.4-26.4,50.2-29.1c1.8-1.1,7.9-2.8,24.8-7.8c15.5-4.5,34.5-10.2,50.9-15.7
				c25.7-8.7,29.4-12.4,30-13.3c2.8-6.2,10.2-15.7,19.2-15.4c4.4,0.1,10.4,2.7,14.5,14.1c8.7,23.8-3.4,34-3.8,34.3l-0.3,0.3
				l-0.4,0.2c-6,2.7-146.2,65.8-173.2,70.9C171.1,450.9,169,451.1,167.2,451.1z M152.8,414.7c-0.5,0-1.4,0-2.7,1.9
				c-2.4,3.1-2.8,12.7,1.7,19.9c2.9,4.6,8.7,9.7,20.3,7.5c25.6-4.8,162-66,171.3-70.1c1.5-1.4,8-9.2,1.5-26.7
				c-1.6-4.3-4.4-9.6-8.4-9.7c-4.7-0.1-10.5,5.7-12.9,11.4c-1.5,3.2-6.4,7.3-33.2,16.5c-16.5,5.7-36.2,11.4-51.9,16
				c-10.7,3.2-21.8,6.4-23.4,7.3c-5.5,3.1-52,30.2-52.5,30.5l-2.5,1.5l-1.8-2.4C157.5,417,154.9,414.6,152.8,414.7
				C152.9,414.7,152.9,414.7,152.8,414.7z"/>
		</g>
		<g>
			<path class="st6" d="M162.7,394.1c0,0-7.1,9.5-5.2,22.6c1.9,13.1,7.6,78.8,74.8,58.3s124.2-45.5,115.5-97.6
				c-8.7-52-72.9-53.6-72.9-53.6S184.4,351.1,162.7,394.1z"/>
			<path class="st1" d="M209.5,482.1c-10.6,0.2-19.8-2.3-27.6-7.3c-22.1-14.1-26.2-44.5-27.6-56c-0.2-0.8-0.2-1.4-0.2-1.8
				c-1.9-13.1,4.5-23,5.8-24.7c22.2-43.6,110.2-70.8,114-71.9l0.4-0.2l0.6,0c0.8,0,16.9,0.5,34.4,7.6c23.5,9.4,38,26.4,41.8,48.8
				c4.2,25.3-5.8,46.2-30.7,63.8c-23.6,16.8-57.3,28.3-87.2,37.4C224.7,480.6,216.9,482,209.5,482.1z M165.3,396.2
				c-0.1,0.2-6.3,8.7-4.7,20c0,0.6,0.2,1.2,0.3,2c1.4,10.5,5.1,38.7,24.6,51.2c11.4,7.4,26.8,8.2,45.7,2.5
				c73.6-22.4,121-47,113.2-93.8c-3.3-20.3-16.1-35-37.6-43.8c-14.7-6-28.8-6.9-31.6-7c-7.4,2.4-89.6,29-109.5,68.5l-0.1,0.3
				L165.3,396.2z"/>
		</g>
		<g>
			<path class="st7" d="M317,336.7c-6.1-15.1-47.8-64.3-109.4-31.3S162.7,394,162.7,394C260.7,362,317,336.7,317,336.7z"/>
			<path class="st1" d="M160.5,398.4l-1-3.3c-0.2-0.6-4.3-14.9-0.7-33.6c3.4-17.1,14.3-41.4,47.2-59c23.5-12.6,46.5-14.9,68.4-7
				c26.2,9.5,42.1,31,45.7,40l1.3,3l-2.8,1.3c-0.6,0.3-57.5,25.6-154.6,57.5L160.5,398.4z M247.6,297.6
				c-12.5,0.2-25.3,3.9-38.4,10.9c-24.5,13.1-39.2,31.4-43.8,54.1c-2.4,12.1-1.2,22.3-0.2,27.3c81.9-27.1,134.4-49.2,147.4-54.8
				c-5-9-19.1-25.5-40.3-33.3C264.1,298.9,255.9,297.5,247.6,297.6z"/>
		</g>
		<path class="st8" d="M219.1,323.3c0,0-4.5,3.1-3.8,6.5s-0.4,6-1.9,4s-3.1-4.5,0-8.4c3.1-4.1,14.2-10.5,17.8-11
			c0,0,3.8,0.7,1.7,3.4s-2.6-0.9-5.9,0.8c-3.4,1.7-3.3,2.9-3.1,4.1c0.2,1.2,0.5,3.6,1.7,3.4c1.2-0.2,4.3-4.3,4.5-3.1
			s-6.2,6.9-5.9,9.3s1.7,3.4,3.8,0.7c2.1-2.7,3.1-4.1,4.5-3.1c1.4,1-0.4,6-8.3,9.6c-7.9,3.6-6.6,4.6-9.1,3.8s4.1-5.6,4.9-7.9
			C220.4,332.8,220.3,323.1,219.1,323.3z"/>
		<path class="st8" d="M222.7,399.4c0,0-3.4-6.1,2.1-9.2c5.4-3.1,8.6,9.8,10.8,16.3c2.2,6.3-4.2,10.8-7.1,6.7
			C226.2,410.3,222.7,399.4,222.7,399.4z"/>
		<path class="st8" d="M253.7,386.8c0,0-3.1-6.4,2.6-9.4c5.7-3,8.5,10.4,10.5,17c1.9,6.6-4.8,10.8-7.6,6.6
			C257,397.9,253.7,386.8,253.7,386.8z"/>
		<path class="st5" d="M196.4,445.9c0,0-3.4-6.7,11.2-15c16.6-9.2,21.7-0.6,21,3c-0.7,3.8-6.8,9.5-18.6,13.6
			C198.4,451.8,196.4,445.9,196.4,445.9z"/>
		<path class="st5" d="M276.1,411.7c0,0-3.4-6.7,11.2-15c16.6-9.2,21.7-0.6,21,3c-0.7,3.8-6.8,9.5-18.6,13.6
			C278.1,417.4,276.1,411.7,276.1,411.7z"/>
		<g>
			<path class="st7" d="M162.7,394.1c0,0,12.4-18.7,66.9-39.8s77.4-28.1,86-19.6s2.4,16.6-7.1,20.3s-90.9,28.7-130.3,51.2
				C178.3,406.4,159.9,418.8,162.7,394.1z"/>
			<path class="st1" d="M169.6,412.9c-1.8,0-3.6-0.4-5.3-1.3c-4.4-2.6-6-8.5-5-17.7l0.1-0.8l0.4-0.6c0.6-0.8,13.6-19.8,68.4-41
				c58.5-22.6,79.5-28.5,89.6-18.9c5.2,5,5.6,9.7,4.9,12.9c-1.1,5.4-5.9,10-13.1,13c-1.9,0.8-6.6,2.4-13.8,4.7
				c-27.6,9.2-84.9,28.5-116,46.3C178.9,409.9,174.5,412.8,169.6,412.9z M165.9,395.4c-0.5,5.4,0.1,9.3,1.8,10.4
				c2,1.2,6.3-0.6,8.6-2.1l0.1-0.2c31.7-18.1,89.5-37.6,117.4-46.9c6.8-2.2,11.6-4,13.4-4.6c4.9-2,8.5-5.1,9.1-8.1
				c0.4-2.1-0.7-4.4-3-6.7c-7.4-7.1-32.4,1-82.5,20.3C183.2,375.9,168.6,392.1,165.9,395.4z"/>
		</g>
	</g>
</g>
</svg>
