<?xml version="1.0" encoding="utf-8"?>
<!-- Generator: Adobe Illustrator 27.7.0, SVG Export Plug-In . SVG Version: 6.00 Build 0)  -->
<svg version="1.1" id="레이어_1" xmlns="http://www.w3.org/2000/svg" xmlns:xlink="http://www.w3.org/1999/xlink" x="0px"
	 y="0px" viewBox="0 0 800 800" style="enable-background:new 0 0 800 800;" xml:space="preserve">
<style type="text/css">
	.st0{fill:#FF833E;}
	.st1{fill:#04060A;}
	.st2{fill:#C9EEF7;}
	.st3{fill:#3A1915;}
	.st4{opacity:0.66;}
	.st5{fill:#FFCC8F;}
</style>
<g id="_x38_">
	<g>
		<path class="st0" d="M175.9,468.8c0,0,329.9-17,441.6,7.1l-30.3-160.1c0,0-3.9-40.7-178.2-45.5c0,0-100.6-2.5-157.3,16.3
			c-18.7,6.2-32.1,19.2-36.2,34.6L175.9,468.8z"/>
		<path class="st1" d="M621.3,479.7l-4.5-0.9c-110.1-23.8-437.6-7.2-440.8-7l-4.2,0.2l40.8-151.6c4.4-16.4,18.7-30.1,38.1-36.6
			c56.6-18.9,154.2-16.7,158.4-16.5c72.7,2,125,10.3,155.7,24.8c22.7,10.7,25.2,21.3,25.4,23.2L621.3,479.7z M251.9,462.6
			c29.4-1,65.1-1.9,102.7-2.4c124.3-1.6,211.3,2.3,259,11.7L584,316l0,0c-0.4-1.7-10.8-38.2-175.3-42.9c-1-0.1-100.8-2.3-156.3,16.3
			c-17.5,5.8-30.3,18-34.2,32.5l-38.5,143.7C189.6,465,216.3,463.8,251.9,462.6z"/>
	</g>
	<g>
		<path class="st0" d="M180.9,444L133,504c-2.3,3,0.2,6.8,4.8,7c56,3,335.4,16.8,528,2.1c4.8-0.4,7.3-4.6,4.4-7.4l-58.8-58.8
			L180.9,444z"/>
		<path class="st1" d="M574.5,520.9c-180.6,6-390.8-4.5-436.9-6.9c-3.7-0.2-6.8-2.1-8-4.9c-1-2.3-0.7-4.9,0.9-7l48.9-61.2l1.4,0.1
			l431.7,2.9l59.7,59.7c1.9,2,2.6,4.7,1.7,7.2c-1.1,2.9-4.3,5.1-8,5.4C637.1,518.4,606.2,519.9,574.5,520.9z M182.2,447l-47.1,58.9
			c-0.4,0.4-0.2,0.7-0.2,0.8c0.3,0.6,1.2,1.2,2.8,1.4c46.2,2.5,256.2,12.9,436.4,6.9c31.7-1.1,62.4-2.7,91.2-4.8
			c1.7-0.1,2.6-0.9,2.8-1.5c0-0.1,0.1-0.4-0.3-0.9L609.9,450L182.2,447z"/>
	</g>
	<g>
		<path class="st2" d="M379.2,207.6c0,0,12.2-20.7,21.6-20.3s9.8,9.2,14.9,19.3s27.6,3.3,35.3,16.6s-17.5,21.6-16.1,30.1
			c1.4,8.4,7.3,18.5,0.6,25.3c-6.5,6.7-24.2-4.8-34.6-6.3c-10.4-1.5-18.3,10.3-32.1,6.2c-13.8-4.1-4.9-15.2-5.3-28.3
			c-0.5-13-20.8-18.3-17.2-29.8C351.3,203.5,374.4,214.8,379.2,207.6z"/>
		<path class="st1" d="M430.3,283.4c-5.3,0.2-11.7-2.4-18-4.7c-4.4-1.7-8.7-3.3-11.8-3.8c-3.7-0.6-7.2,1-11.3,3
			c-5.8,2.7-12.5,5.8-21.3,3.1c-12.1-3.6-10.3-12.5-8.8-20.2c0.7-3.4,1.4-7.1,1.2-10.8c-0.1-4.9-4.3-8.8-8.5-12.8
			c-5.1-4.8-11-10.2-8.4-18c3.9-12.1,15.5-11.9,23.9-11.9c3.9,0,8.5,0.1,9.6-1.3c2.4-4,13.6-22.3,24.2-21.8
			c8.9,0.4,11.6,6.9,14.3,13.7c0.9,2.3,1.8,4.7,3.1,7.1c1.7,3.3,7,4.2,13.1,5.3c8.2,1.4,17.4,3,22.1,11.3c5.9,10-2.8,17.6-9,23.2
			c-3.1,2.8-7,6.1-6.6,7.9c0.4,2.1,0.9,4.1,1.7,6.4c2.1,7.1,4.4,15.1-1.8,21.3C435.6,282.4,433.1,283.4,430.3,283.4z M398.4,268.8
			c0.9-0.1,2,0,2.9,0.1c3.9,0.6,8.3,2.3,13.1,4.1c7.2,2.7,16,6.2,18.9,3.1c3.5-3.4,2.4-8.2,0.3-15.5c-0.6-2.3-1.3-4.8-1.7-7.2
			c-0.8-5,3.7-9.1,8.5-13.4c7-6.1,11-10.3,7.9-15.7c-3.5-5.9-10.8-7.1-18.1-8.4c-7-1.2-14.3-2.5-17.4-8.4c-1.4-2.7-2.4-5.3-3.4-7.6
			c-2.7-6.9-4.1-9.7-9-9.9c-5.2-0.2-14.1,10.9-18.8,18.9l-0.1,0.1c-2.9,4.2-8.5,4.1-14.6,4.1c-9.4-0.1-15.8,0.3-18.1,7.6
			c-1.2,4,1.8,7.1,6.9,11.9c4.8,4.4,10.2,9.5,10.5,17c0.1,4.4-0.7,8.5-1.4,12.2c-1.7,8.6-2,11.3,4.6,13.3c6.6,2,11.7-0.4,17.1-2.8
			C390.3,270.7,394.2,269.1,398.4,268.8z"/>
	</g>
	<path class="st3" d="M439.6,335.3c-1.3-6.6-2.1-16.3-5.2-16.8c-3.2-0.5-42.3,1.9-65.3,10.2c-19.3,6.9-21.3,24.2-16.1,32.3
		c0.9,1.4,2.1,2.5,3.7,3.1c1.1,0.5,2.1,0.5,2.2-0.5c0,0-2.8-11.1,7.4-22.4c5.6-6.3,16.4-9.2,27.7-10.8c-4.5,8.6-20.8,39.5-28.9,51.1
		c-9.4,13.7-16.7,11.6-19.5,15.4c-2.7,3.9-3.4,9.2-0.3,9.5c3.2,0.5,2.6-2.9,22.1-3.3c19.5-0.4,45-4.4,50.5-13.3
		c5.5-8.8,11.1-17.7,8.9-18c-2.1-0.3-3.4,0.6-12.3,11.1c-8.5,9.8-38.7,10.1-48.5,10.1c-0.4,0-0.4-0.5-0.2-0.6
		c4.6-1.9,18.5-9.4,27.4-28.5c0,0,10.9-0.6,15.3-1.1c4.4-0.5,5.3,0.8,6.7-1.2c1.3-1.9,5.4-7.7,2.3-8.2s-5.9,3.5-19.8,2.7
		c0,0,11.3-20.4,18.2-27.6c1.4-0.1,2.7-0.2,4-0.2c0,0,7.8-1.1,11.2,4.7c3.6,5.8,1.6,11.9,6,11.5C441.6,344,440.8,341.8,439.6,335.3z
		"/>
	<g class="st4">
		<g>
			<path class="st5" d="M478,387.9c-2.8-0.5-4.8-2.7-5.8-6.5c-1-4-0.5-9.1,2.1-10c3.8-1.5,8,3.7,8.9,4.9c8,3,14.2,2.7,18.6-0.6
				c6.5-5,7.8-16.2,7-24.4c-1.2-11.7-12.7-20.8-12.9-20.8c-0.4-0.2-0.4-0.8-0.2-1.2c0.2-0.4,0.8-0.4,1.2-0.2
				c0.5,0.4,12.3,9.8,13.5,21.9c0.9,8.6-0.6,20.5-7.7,25.8c-5,3.8-11.9,4-20.6,0.7l-0.3-0.1l-0.1-0.3c-1.1-1.6-4.6-5.5-7-4.6
				c-1.3,0.6-2.1,4.4-1.1,8.1c0.5,1.8,2,5.8,6.2,5.3c0.5,0,0.9,0.2,1,0.7c0,0.5-0.2,0.9-0.7,1C479.4,388,478.6,388,478,387.9z"/>
			<path class="st5" d="M461.3,403.9c-2-0.4-3.8-1.1-5.1-2.2c-1.8-1.3-2.6-3-2.3-4.7c0.6-3.3,2.1-4.3,3-4.7l2.2-12.2
				c0-0.3,1.1-6.1,5.8-10.1c2.7-2.4,5.4-2,6.9-0.8c1.8,1.2,2.8,4,1.4,7.2c-2.3,5.6-8.3,5.9-8.5,5.9c-0.5,0-0.8-0.3-0.8-0.7
				c0-0.5,0.3-0.8,0.7-0.8l0,0c0.3,0,5.1-0.3,7-4.9c1-2.4,0.3-4.3-0.9-5.3c-1.4-1-3.2-0.7-4.8,0.7c-4.2,3.6-5.2,9-5.2,9.2l-2.4,13.4
				l-0.6,0l0,0c0,0-1.4,0.2-2,3.5c-0.2,1.3,0.9,2.6,1.7,3c2.3,1.8,6.7,2.8,9.7,1.3c0.3-0.1,0.4-0.3,0.5-0.7c0.7-2-1.5-6.6-2.5-8.2
				c-0.3-0.4-0.1-0.9,0.3-1.2s0.9-0.1,1.2,0.3c0.4,0.6,3.6,6.4,2.6,9.5c-0.2,0.8-0.7,1.3-1.3,1.6
				C465.7,404.1,463.4,404.2,461.3,403.9z"/>
			<path class="st5" d="M471.7,407c-2-0.4-3.5-2.5-4-5.9c-0.6-3.9,0.3-8.6,3.2-9.8c3.3-1.4,6,0.8,7,2.2c0.1,0.1,2.1,3,2.6,5.5
				c0.2,0.5-0.2,0.9-0.6,0.9c-0.5,0.2-0.9-0.2-0.9-0.6c-0.4-2.1-2.4-4.8-2.4-4.8c-0.1-0.1-2-2.9-5-1.7c-1.8,0.7-2.8,4.3-2.2,8.1
				c0.4,2.1,1.3,4.4,2.9,4.5c1.6,0.2,4.3-0.6,7-3.1c2.9-2.6,7.4-9.4,6.8-23.8c0-0.5,0.3-0.8,0.7-0.8c0.5,0,0.8,0.3,0.8,0.7
				c0.7,14.4-3.6,21.6-7.2,25.2c-3.1,2.9-6.3,3.9-8.3,3.6C472,407.1,471.9,407,471.7,407z"/>
			<path class="st5" d="M468.5,357.7c-0.1,0-0.3-0.1-0.4-0.2s-3.9-4.1-1.8-10.9c0.8-2.4,1.9-3.9,3.5-4.5c2.3-0.9,4.6,0.1,4.7,0.3
				c0.4,0.2,0.6,0.8,0.3,1.2s-0.8,0.6-1.2,0.3c0,0-1.7-0.8-3.3-0.2c-1.1,0.5-2,1.7-2.5,3.5c-1.8,5.8,1.4,9.2,1.4,9.2
				c0.3,0.4,0.3,0.9-0.1,1.2C469,357.6,468.8,357.8,468.5,357.7z"/>
			<path class="st5" d="M467.5,370.2c-0.1,0-0.1,0-0.3-0.1c-0.1-0.1-10.4-6.3-9.1-18c1.2-11.5,14.4-20.1,14.9-20.5
				c0.4-0.3,0.9-0.2,1.2,0.2s0.2,0.9-0.2,1.2c-0.1,0.1-13.1,8.5-14.2,19.3c-1.1,10.6,8.2,16.4,8.3,16.5c0.4,0.2,0.6,0.8,0.3,1.2
				C468.1,370.1,467.8,370.2,467.5,370.2z"/>
			<path class="st5" d="M474.4,373L474.4,373c-0.5-0.1-0.8-0.5-0.7-1c0.1-0.3,5.8-29.4,7.4-38.3c1.1-6.3,1-9.7-0.1-11.1
				c-0.4-0.6-1.2-0.8-2.3-0.8c-3.4,0.1-3.6,7.6-3.6,7.8L473,371c0,0.5-0.5,0.8-0.9,0.8c-0.5,0-0.8-0.5-0.8-0.9l2.2-41.3
				c0-0.4,0.3-9.3,5.4-9.3c1.6-0.1,2.8,0.4,3.6,1.4c1.5,1.9,1.7,5.5,0.4,12.5c-1.6,9-7.4,38.1-7.5,38.3
				C475.3,372.8,475,373.1,474.4,373z"/>
			<path class="st5" d="M491.9,322.6c-0.4-0.1-0.7-0.5-0.7-0.9c0,0,0.3-3.7-1.3-5.5c-0.6-0.6-1.4-1-2.3-0.9c-2.2,0-4.1,0.5-5.9,1
				c-2.3,0.6-4.4,1.2-6.1,0.2c-0.4-0.2-0.6-0.8-0.3-1.2c0.2-0.4,0.8-0.6,1.2-0.3c1.2,0.6,2.9,0.1,4.9-0.4c1.8-0.5,4-1,6.3-1
				c1.4,0.1,2.6,0.5,3.5,1.5c2.1,2.4,1.8,6.5,1.7,6.8C492.9,322.3,492.5,322.7,491.9,322.6C492,322.6,492,322.6,491.9,322.6z"/>
			<path class="st5" d="M468.8,309.2c0,0-4.2-1.3-5.1-0.8c-1,0.7,1.3,4.5,1.3,4.5s-4.2,4.4-3,5c1.2,0.6,5.3,1.4,5.3,1.4
				s1.6,2.8,2.8,3.5c1.2,0.6,2.7-5.5,2.7-5.5s4.3-0.1,4.6-1.7s-3.9-4.5-3.9-4.5s1-3.8-0.3-4.5C472,305.8,468.8,309.2,468.8,309.2z"
				/>
			<path class="st5" d="M497.2,352.8c0,0-1.2-0.2-2.9,4.2c-1.6,4.4,1.3,4.9,2.9,0.5S497.6,352.9,497.2,352.8z"/>
			<path class="st5" d="M503.1,355.5c0,0-1.7,0.1-2.7,3.3c-1,3.2,1,4,2.5,0.4C504.3,355.8,503.1,355.5,503.1,355.5z"/>
			<path class="st5" d="M490.7,362.7c0,0,1.3-2.7-2.8-3.5s-4.9,1.3-3.9,2.7C485.1,363.4,490.4,364.4,490.7,362.7z"/>
			<path class="st5" d="M506.7,367.8c0,0,1.2-2.4-2.4-3.1s-4.2,1.1-3.4,2.5C501.9,368.5,506.4,369.3,506.7,367.8z"/>
			<path class="st5" d="M495.1,327.3c0,0,0.4-9.3-9.5-8.9c-9.9,0.4-14.7,5.6-15,16.1l3.5-2.3c0,0-0.1-7,2.1-9.8
				c2.2-2.7,5.4-0.8,5.9,0.2c0.5,1.1,1.2,3.7-0.1,11.6c0,0,0,0,0.4,0.1c0,0,15.6-1.5,16.7-3.8C500.5,328.1,495.1,327.3,495.1,327.3z
				 M485.7,324.5c-0.2-1.2-0.1-1.9,0.1-2.6c0.6-1.5,2.7-1.2,3,0.4C489.2,324.7,486.1,327.6,485.7,324.5z"/>
		</g>
		<g>
			<path class="st5" d="M582,488.9c-1.1,1.9-3.2,2.8-6.1,2.6c-3.1-0.3-6.6-2-6.6-4.1c-0.2-3.1,4.8-4.8,5.8-5.1
				c4.2-4.9,5.7-9.4,4.5-13.5c-1.9-6-9.5-9.9-15.6-11.4c-8.6-2.1-18.2,3.7-18.3,3.7c-0.3,0.1-0.6,0-0.9-0.2c-0.1-0.3,0-0.6,0.2-0.9
				c0.4-0.3,10.1-6.2,19.2-3.9c6.3,1.6,14.5,5.7,16.6,12.3c1.4,4.5-0.1,9.5-4.8,14.9l-0.1,0.1l-0.1,0c-1.4,0.3-5.1,1.8-5.1,3.9
				c0.1,1,2.6,2.6,5.5,3c1.4,0.2,4.7,0.1,5.3-3c0.1-0.4,0.4-0.5,0.8-0.4c0.4,0.1,0.5,0.4,0.4,0.8C582.3,488,582.2,488.5,582,488.9z"
				/>
			<path class="st5" d="M589.1,505.1c-0.7,1.3-1.8,2.4-2.8,3.2c-1.4,1-2.8,1.1-4,0.5c-2.2-1.3-2.6-2.6-2.5-3.4l-8.2-4.8
				c-0.1-0.1-4-2.4-5.7-6.7c-0.9-2.6,0-4.3,1.3-5.2c1.4-0.9,3.6-1,5.5,0.9c3.3,3.1,2.1,7.4,2,7.6c-0.1,0.4-0.5,0.5-0.8,0.4
				c-0.4-0.1-0.5-0.5-0.4-0.8l0,0c0-0.1,1.1-3.7-1.6-6.3c-1.5-1.4-3.1-1.3-3.9-0.7c-1,0.7-1.3,2-0.7,3.7c1.5,4,5.2,6.1,5.2,6.1
				l9,5.2l-0.1,0.5l0,0c0,0-0.2,1.1,2,2.4c0.9,0.5,2.1,0,2.6-0.4c1.9-1.3,3.7-4.1,3.4-6.7c0-0.3-0.2-0.4-0.3-0.5
				c-1.2-1-5.1-0.6-6.5-0.3c-0.4,0-0.7-0.2-0.7-0.5c0-0.4,0.2-0.7,0.5-0.7c0.5-0.2,5.6-1,7.5,0.6c0.5,0.4,0.8,0.9,0.9,1.4
				C590.4,502,589.8,503.6,589.1,505.1z"/>
			<path class="st5" d="M594,498.4c-0.8,1.3-2.8,1.8-5.3,1.3c-2.9-0.6-6.1-2.5-6.1-4.9c-0.2-2.7,2.2-4.2,3.4-4.5
				c0.1,0,2.7-0.7,4.5-0.5c0.4,0.1,0.5,0.4,0.6,0.8c-0.1,0.4-0.4,0.5-0.8,0.6c-1.6-0.2-4,0.5-4,0.5c-0.1,0-2.6,0.8-2.4,3.1
				c0.1,1.4,2.4,3.1,5.2,3.6c1.6,0.3,3.4,0.2,4-0.9c0.5-1.1,0.6-3.2-0.5-5.8c-1.2-2.7-4.7-7.7-15.3-11c-0.4-0.1-0.5-0.5-0.4-0.8
				c0.1-0.4,0.5-0.5,0.8-0.4c10.5,3.2,14.5,8.2,16.2,11.8c1.3,2.9,1.1,5.4,0.5,6.9C594.1,498.3,594.1,498.3,594,498.4z"/>
			<path class="st5" d="M557.8,487.9c-0.1,0.1-0.1,0.1-0.2,0.3c-0.1,0-3.9,1.8-8.3-1.5c-1.5-1.1-2.2-2.4-2.3-3.8
				c-0.1-1.9,1.3-3.2,1.4-3.3c0.2-0.3,0.6-0.2,0.9,0.1c0.3,0.2,0.2,0.6-0.1,0.9c0,0-1,1-0.9,2.3c0,0.9,0.6,1.9,1.8,2.8
				c3.7,2.8,7,1.4,7,1.4c0.4-0.2,0.6,0,0.8,0.3C557.9,487.5,557.9,487.8,557.8,487.9z"/>
			<path class="st5" d="M566.5,491.9l-0.1,0.1c-0.1,0-7.2,5.7-15.3,1.9c-7.9-3.9-10.6-15.6-10.8-16c0-0.4,0.1-0.7,0.5-0.8
				c0.4,0,0.7,0.1,0.8,0.5c0,0.1,2.7,11.6,10.1,15.2c7.4,3.5,13.9-1.7,14-1.7c0.2-0.3,0.6-0.2,0.9,0.1
				C566.6,491.5,566.6,491.7,566.5,491.9z"/>
			<path class="st5" d="M570.3,487.6L570.3,487.6c-0.2,0.3-0.6,0.4-0.9,0.2c-0.1-0.1-19.6-11.8-25.5-15.3c-4.2-2.4-6.7-3.3-8-2.8
				c-0.5,0.2-0.9,0.7-1.2,1.4c-0.8,2.4,4.6,4.6,4.6,4.6l29.1,12.2c0.3,0.1,0.4,0.5,0.3,0.9c-0.1,0.3-0.5,0.4-0.9,0.3l-29.1-12.2
				c-0.3-0.1-6.5-2.6-5.3-6.2c0.3-1.1,1.1-1.9,2-2.2c1.8-0.6,4.3,0.2,9,2.9c6.1,3.4,25.3,15.2,25.5,15.3
				C570.4,487,570.5,487.4,570.3,487.6z"/>
			<path class="st5" d="M538.8,462.1c-0.1,0.3-0.5,0.4-0.8,0.3c0,0-2.5-1.2-4.3-0.5c-0.6,0.3-1,0.7-1.2,1.4
				c-0.6,1.6-0.7,3.2-0.8,4.5c-0.2,1.8-0.3,3.4-1.4,4.5c-0.2,0.3-0.6,0.3-0.9,0.1c-0.3-0.2-0.3-0.6-0.1-0.9c0.7-0.7,0.8-2,1-3.7
				c0.2-1.4,0.2-3.1,0.9-4.9c0.3-1.1,1.1-1.8,2-2.1c2.2-0.9,5.1,0.5,5.2,0.5C538.9,461.3,539,461.7,538.8,462.1
				C538.8,462,538.8,462.1,538.8,462.1z"/>
			<path class="st5" d="M523.2,475.1c0,0-2.1,2.6-1.9,3.5c0.2,0.9,3.5,0.2,3.5,0.2s2,4.1,2.8,3.5c0.8-0.6,2.3-3.4,2.3-3.4
				s2.5-0.4,3.2-1.1c0.7-0.7-3.2-3.3-3.2-3.3s1-3.1-0.1-3.6c-1.1-0.6-4.2,1.5-4.2,1.5s-2.6-1.7-3.3-1
				C521.7,472,523.2,475.1,523.2,475.1z"/>
			<path class="st5" d="M561.8,466.2c0,0-0.5,0.8,2.3,3.1c2.7,2.3,3.8,0.3,1.1-1.9C562.4,465.1,561.9,465.9,561.8,466.2z"/>
			<path class="st5" d="M565.3,462.6c0,0-0.3,1.3,1.7,2.8c2,1.5,3.1,0.3,1-1.6C565.7,461.8,565.3,462.6,565.3,462.6z"/>
			<path class="st5" d="M567.2,473.3c0,0-1.7-1.6-3.2,1.1c-1.5,2.7-0.3,3.8,1,3.5C566.2,477.6,568.2,473.9,567.2,473.3z"/>
			<path class="st5" d="M574.9,463.3c0,0-1.5-1.5-2.8,0.8c-1.3,2.3-0.2,3.3,1,3.1S576,463.7,574.9,463.3z"/>
			<path class="st5" d="M542.9,461c0,0-6.5-2.6-8.9,4.4c-2.4,7,0.3,12,7.6,15l-0.7-3.1c0,0-5-1.7-6.5-4.1c-1.3-2.4,0.8-4.1,1.7-4.1
				c0.9-0.1,3,0.1,8.3,3.1c0,0,0,0,0.1-0.3c0,0,3-11.5,1.6-13C545,457.3,542.9,461,542.9,461z M538.5,467.1
				c-0.9-0.2-1.5-0.4-1.7-0.8c-0.8-0.9-0.1-2.2,1.1-2C539.6,464.5,540.9,467.5,538.5,467.1z"/>
		</g>
		<g>
			<path class="st5" d="M283.3,399.8c2.2,1.3,4.9,1.2,7.8-0.7c3.1-2,5.9-5.7,4.8-8c-1.6-3.4-7.6-2.5-8.9-2.3c-7.1-3-11.1-7-12-12
				c-1.2-7.4,4.9-15.5,10.5-20.4c8-7,21.2-5.9,21.3-5.9c0.4,0,0.8-0.3,0.9-0.7c0-0.4-0.3-0.8-0.7-0.9c-0.5-0.1-14-1.2-22.5,6.2
				c-5.8,5.1-12.3,13.8-10.9,21.7c1,5.6,5.2,10,13.1,13.1l0.3,0.1l0.3,0c1.7-0.4,6.5-0.9,7.5,1.4c0.6,1.1-1.3,4.1-4.2,6
				c-1.4,0.9-4.9,2.6-7.3-0.2c-0.3-0.4-0.8-0.3-1-0.1c-0.4,0.3-0.3,0.8-0.1,1C282.3,398.9,282.8,399.4,283.3,399.8z"/>
			<path class="st5" d="M284.4,420.6c1.5,1,3.2,1.6,4.7,1.7c2,0.3,3.6-0.3,4.5-1.7c1.7-2.6,1.3-4.1,0.9-4.9l6.1-9.3
				c0.1-0.1,3-4.7,2.4-10.3c-0.3-3.2-2.3-4.6-4-4.7c-2-0.3-4.4,0.9-5.5,3.8c-1.8,5.1,1.8,9,1.9,9.1c0.3,0.2,0.8,0.3,1,0.1
				c0.2-0.3,0.3-0.8,0.1-1l0,0c-0.1-0.1-3.2-3.3-1.6-7.6c0.8-2.3,2.6-3,3.9-3c1.4,0.2,2.6,1.4,2.8,3.5c0.5,4.9-2.1,9.2-2.2,9.2
				l-6.7,10.3l0.4,0.5l0,0c0,0,0.8,1-0.8,3.6c-0.7,1.1-2.2,1-2.9,0.9c-2.6-0.2-6.1-2.3-7.2-5.2c-0.1-0.3,0-0.5,0.1-0.8
				c0.8-1.7,5.2-3.4,6.7-3.9c0.4-0.2,0.6-0.6,0.5-0.9s-0.6-0.6-0.9-0.5c-0.6,0.2-6.4,2-7.6,4.6c-0.4,0.7-0.3,1.3-0.2,2
				C281.4,418,282.8,419.5,284.4,420.6z"/>
			<path class="st5" d="M275.6,416.2c1.6,1,3.9,0.6,6.3-1.4c2.7-2.2,5.2-5.9,4-8.4c-1.3-2.9-4.5-3.1-6-2.9c-0.1,0-3.4,0.7-5.1,2
				c-0.4,0.3-0.5,0.7-0.2,1.1c0.3,0.4,0.7,0.5,1.1,0.2c1.5-1.1,4.5-1.7,4.5-1.7c0.1,0,3.1-0.6,4.3,2c0.7,1.5-0.9,4.6-3.5,6.7
				c-1.5,1.1-3.5,2.1-4.6,1.2c-1.1-0.9-2.4-3-2.6-6.4c-0.2-3.5,1-10.7,10.2-19.9c0.2-0.3,0.3-0.8,0.1-1c-0.3-0.2-0.8-0.3-1-0.1
				c-9.3,9.1-11,16.5-10.7,21.1c0.2,3.8,1.8,6.4,3.2,7.5C275.4,416.1,275.5,416.1,275.6,416.2z"/>
			<path class="st5" d="M308.3,385.8c0.1,0.1,0.3,0.1,0.4,0.1c0.3,0,5.1-0.3,7.9-6c0.9-2,1.1-3.7,0.5-5.2c-0.9-2-3.1-2.7-3.1-2.7
				c-0.4-0.1-0.8,0.2-0.9,0.6c-0.1,0.4,0.2,0.8,0.6,0.9c0,0,1.6,0.6,2.3,2c0.4,1,0.3,2.3-0.4,3.9c-2.5,5-6.6,5.2-6.6,5.2
				c-0.4,0-0.8,0.3-0.7,0.8C307.9,385.4,308,385.6,308.3,385.8z"/>
			<path class="st5" d="M301.2,394.6c0.1,0,0.1,0.1,0.3,0.1c0.1,0,10.8,2.1,17.1-6.3c6.3-8.3,3-22.2,2.8-22.7
				c-0.2-0.4-0.6-0.6-0.9-0.6c-0.4,0.2-0.6,0.6-0.6,0.9c0,0.1,3.4,13.8-2.6,21.5c-5.8,7.6-15.6,5.7-15.6,5.7
				c-0.4-0.1-0.8,0.2-0.9,0.6C300.8,394.1,300.9,394.4,301.2,394.6z"/>
			<path class="st5" d="M294.8,392.1L294.8,392.1c0.4,0.2,0.8,0.1,1-0.2c0.1-0.3,14.2-22.9,18.8-29.8c3.1-4.9,5.2-7.1,6.9-7.3
				c0.6,0,1.3,0.2,2,0.9c2.2,2.1-2.3,7.3-2.3,7.3L297,391.6c-0.2,0.3-0.2,0.8,0.1,1c0.3,0.2,0.8,0.2,1-0.1l24.1-28.6
				c0.2-0.3,5.5-6.3,2.2-9.4c-1-1-2-1.5-3.2-1.3c-2.2,0.3-4.5,2.6-8,7.9c-4.4,6.9-18.6,29.7-18.8,29.8
				C294.4,391.3,294.5,391.9,294.8,392.1z"/>
			<path class="st5" d="M314.4,348.1c0.3,0.2,0.8,0.1,1-0.2c0,0,2.1-2.6,4.3-2.8c0.8,0,1.4,0.2,2.1,0.8c1.5,1.4,2.4,2.9,3.4,4.2
				c1.1,1.9,2.1,3.4,3.9,4c0.4,0.1,0.8,0,0.9-0.4s0-0.8-0.4-0.9c-1.2-0.3-2-1.7-3.1-3.4c-0.9-1.5-2-3.1-3.5-4.6
				c-1-0.9-2-1.3-3.2-1.1c-2.9,0.3-5.2,3.3-5.3,3.4C314,347.4,314.2,347.9,314.4,348.1L314.4,348.1z"/>
			<path class="st5" d="M337.9,353.5c0,0,3.6,1.6,3.8,2.8c0.2,1-3.7,2.2-3.7,2.2s0,5.5-1.2,5.1c-1.2-0.3-4.3-2.4-4.3-2.4
				s-2.8,0.8-4,0.6c-1.2-0.2,1.7-5.3,1.7-5.3s-2.8-2.7-1.9-3.9c0.8-1.2,5.3-0.6,5.3-0.6s1.8-3.1,3-2.8
				C338,349.5,337.9,353.5,337.9,353.5z"/>
			<path class="st5" d="M292.4,364.9c0,0,0.9,0.6-0.7,4.5c-1.6,3.9-3.9,2.4-2.2-1.4C291.3,364,292,364.6,292.4,364.9z"/>
			<path class="st5" d="M286.8,363c0,0,1.1,1.1-0.3,3.9c-1.3,2.7-3.1,2-1.9-1.2C285.9,362.5,286.8,363,286.8,363z"/>
			<path class="st5" d="M290.5,375.3c0,0,0.8-2.6,4-0.6c3.1,2,2.4,3.9,0.9,4.1C293.7,379.3,289.7,376.6,290.5,375.3z"/>
			<path class="st5" d="M276.9,368.7c0,0,0.8-2.4,3.5-0.6c2.7,1.8,2,3.4,0.7,3.6C279.8,371.9,276.1,369.9,276.9,368.7z"/>
			<path class="st5" d="M304.8,348.8c-0.7,2.3,8.7,12.8,8.7,12.8c0.3,0.2,0.3,0.1,0.3,0.1c3.8-6.1,6.1-7.2,7-7.7
				c0.9-0.4,4.2,0.2,4,3.4c-0.2,3.3-4.7,7.7-4.7,7.7l0.9,3.7c6.3-7.1,6.3-13.5,0.1-19.8c-6.2-6.3-11.7,0-11.7,0
				S305.4,346.6,304.8,348.8z M316.7,349.8c1.1-0.8,2.6,0.2,2.2,1.6c-0.2,0.5-0.6,1.1-1.5,1.8C315.2,355,315,351.2,316.7,349.8z"/>
		</g>
		<g>
			<path class="st5" d="M323.5,479.4c0-1.8-1.1-3.6-3.4-4.6c-2.4-1.2-5.8-1.5-6.8,0c-1.6,2.3,1.4,5.7,2,6.4c0.8,5.6-0.1,9.7-2.9,12
				c-4.1,3.6-11.6,3-16.7,1.3c-7.4-2.3-11.8-11.1-11.8-11.1c-0.1-0.3-0.4-0.4-0.8-0.2c-0.3,0.1-0.4,0.4-0.2,0.8
				c0.2,0.4,4.7,9.3,12.5,11.7c5.4,1.7,13.3,2.4,17.8-1.5c3.1-2.6,4.2-7.1,3.2-13.2l0-0.1l-0.1-0.1c-0.8-1-2.9-3.7-2-5.2
				c0.5-0.8,3.1-0.8,5.4,0.4c1.1,0.6,3.5,2,2.6,4.7c-0.1,0.3,0,0.6,0.3,0.8c0.3,0.1,0.6,0,0.8-0.3
				C323.4,480.3,323.5,479.9,323.5,479.4z"/>
			<path class="st5" d="M336.2,470.8c0.1-1.3-0.3-2.6-0.7-3.6c-0.6-1.4-1.6-2.1-2.7-2.2c-2.2,0-3.1,0.8-3.5,1.2L321,466
				c-0.1,0-4,0-7.3,2.4c-1.9,1.4-2,3.2-1.5,4.4c0.6,1.3,2.2,2.4,4.5,2c3.9-0.7,5-4.6,5-4.7c0.1-0.3-0.2-0.6-0.4-0.6
				c-0.3-0.1-0.6,0.2-0.6,0.4l0,0c0,0.1-0.9,3.3-4.1,3.9c-1.7,0.4-2.9-0.4-3.3-1.3c-0.4-1,0-2.2,1.1-3.1c2.9-2.2,6.7-2.2,6.7-2.2
				l9,0.3l0.1-0.4l0,0c0,0,0.3-0.9,2.6-0.9c0.9,0.1,1.5,1,1.8,1.5c0.9,1.8,0.9,4.8-0.6,6.5c-0.1,0.1-0.2,0.3-0.5,0.3
				c-1.4,0.1-4-1.9-5-2.7c-0.3-0.2-0.5-0.2-0.8,0s-0.2,0.5,0,0.8c0.4,0.4,3.7,3.2,5.8,2.9c0.5,0,1-0.3,1.3-0.7
				C335.8,473.7,336.1,472.1,336.2,470.8z"/>
			<path class="st5" d="M336.8,477.9c0.1-1.4-1.2-2.7-3.3-3.5c-2.4-0.9-5.7-1-6.9,0.8c-1.3,2-0.3,4.1,0.5,4.8c0,0.1,1.7,1.7,3.1,2.4
				c0.3,0.1,0.6,0,0.8-0.3s0-0.6-0.3-0.8c-1.2-0.6-2.7-2.2-2.9-2.2c0-0.1-1.5-1.7-0.3-3.5c0.7-1.1,3.2-1.2,5.5-0.3
				c1.3,0.4,2.7,1.4,2.6,2.5c-0.1,1-1,2.7-3,4.1c-2.1,1.4-7.1,3.5-16.4,1.2c-0.3-0.1-0.6,0.2-0.6,0.4c-0.1,0.3,0.2,0.6,0.4,0.6
				c9.3,2.4,14.5,0.5,17.3-1.3C335.6,481.2,336.6,479.2,336.8,477.9C336.8,478,336.8,478,336.8,477.9z"/>
			<path class="st5" d="M305.2,469.2c0-0.1,0-0.3-0.1-0.3c-0.1-0.1-2.1-3.1-6.8-2.6c-1.6,0.2-2.8,0.7-3.4,1.8c-1,1.4-0.5,3-0.5,3
				c0.1,0.3,0.4,0.5,0.7,0.4s0.5-0.4,0.4-0.7c0,0-0.3-1.2,0.3-2.1c0.5-0.7,1.4-1.1,2.7-1.2c4-0.4,5.7,2.2,5.9,2.2
				c0.1,0.3,0.5,0.4,0.8,0.2C305.1,469.5,305.2,469.4,305.2,469.2z"/>
			<path class="st5" d="M313.5,470.2c0-0.1,0-0.1,0-0.3s-2.8-7.5-10.5-8.3c-7.6-0.8-15,6.7-15.3,7c-0.2,0.3-0.2,0.5,0,0.8
				c0.3,0.2,0.5,0.2,0.8,0c0.1-0.1,7.3-7.3,14.4-6.7s9.5,7.6,9.5,7.6c0.1,0.3,0.4,0.5,0.7,0.4C313.3,470.6,313.5,470.5,313.5,470.2z
				"/>
			<path class="st5" d="M314.4,475.1L314.4,475.1c0-0.3-0.3-0.5-0.6-0.6c-0.3,0-19.8-0.1-25.8-0.3c-4.2-0.2-6.4-0.6-7.3-1.6
				c-0.3-0.4-0.3-0.9-0.2-1.6c0.5-2.1,5.4-1.3,5.5-1.3l27.2,4.1c0.3,0,0.6-0.2,0.6-0.4c0-0.3-0.2-0.6-0.4-0.6l-27.2-4.1
				c-0.3,0-6-1-6.8,2.2c-0.2,1.1,0,1.8,0.4,2.5c1,1.2,3.4,1.9,8.1,2c6,0.2,25.7,0.3,26,0.3C314,475.6,314.3,475.4,314.4,475.1z"/>
			<path class="st5" d="M279.3,479.8c0-0.3-0.2-0.5-0.6-0.6c0,0-2.5-0.3-3.3-1.6c-0.3-0.5-0.4-1-0.3-1.5c0.3-1.5,0.9-2.7,1.4-3.7
				c0.7-1.5,1.3-2.7,1-4c0-0.3-0.4-0.5-0.7-0.4c-0.3,0-0.5,0.4-0.4,0.7c0.2,0.9-0.3,1.8-0.9,3.2c-0.6,1.2-1.2,2.4-1.5,4
				c-0.2,0.9,0,1.8,0.5,2.4c1.3,1.6,4,2,4.2,2C278.9,480.3,279.2,480,279.3,479.8L279.3,479.8z"/>
			<path class="st5" d="M273.7,463c0,0-0.3-3,0.2-3.4c0.6-0.6,2.7,1.4,2.7,1.4s3.4-2.1,3.6-1.2c0.3,0.9,0.2,3.6,0.2,3.6
				s1.6,1.5,1.8,2.2c0.3,0.9-3.9,1-3.9,1s-0.6,2.8-1.7,2.7c-1-0.1-2.4-3.1-2.4-3.1s-2.6,0-2.9-0.8C271.2,464.6,273.7,463,273.7,463z
				"/>
			<path class="st5" d="M298.2,487.2c0,0,0.1-0.8,3.1-1.3c3.1-0.4,3,1.5,0,2C298.2,488.3,298.2,487.5,298.2,487.2z"/>
			<path class="st5" d="M299.2,491.3c0,0,0.3-1.1,2.5-1.3c2.2-0.3,2.4,1.2,0,1.7C299.3,492.2,299.2,491.3,299.2,491.3z"/>
			<path class="st5" d="M305.5,484.3c0,0-1.9,0.5-1.8-2.2c0.1-2.7,1.5-3,2.2-2.2C306.6,480.6,306.5,484.4,305.5,484.3z"/>
			<path class="st5" d="M306.6,495.3c0,0-1.8,0.5-1.7-2c0.1-2.5,1.3-2.5,2-1.8C307.8,492.4,307.7,495.4,306.6,495.3z"/>
			<path class="st5" d="M283.4,485.5c1.7-0.5,4.8-10.4,4.8-10.4c0-0.3,0-0.3,0-0.3c-5.2-0.1-6.8-1.1-7.5-1.4
				c-0.7-0.4-1.4-2.7,0.6-3.8s6.6-0.1,6.6-0.1l2-1.9c-6.8-1.2-10.9,1.3-12.5,7.6c-1.6,6.3,4.6,7.3,4.6,7.3S281.7,486,283.4,485.5z
				 M279.5,477.7c-0.9-0.3-0.9-1.8,0.2-2c0.4,0,0.9-0.1,1.7,0.2C283.3,476.7,281.1,478.2,279.5,477.7z"/>
		</g>
		<g>
			<path class="st5" d="M424.8,428.6c0.4-1.5-0.2-3-1.7-4.2c-1.6-1.5-4.2-2.4-5.2-1.4c-1.6,1.4-0.1,4.6,0.2,5.3
				c-0.5,4.5-2.1,7.3-4.6,8.6c-3.8,1.9-9.4-0.1-13-2.4c-5.1-3.2-6.7-10.8-6.7-10.8c0-0.3-0.3-0.4-0.5-0.4c-0.3,0-0.4,0.3-0.4,0.5
				c0,0.4,1.6,8,7.1,11.5c3.8,2.4,9.6,4.6,13.8,2.5c2.9-1.5,4.7-4.6,5.2-9.4l0-0.1l0-0.1c-0.4-0.9-1.5-3.4-0.5-4.4
				c0.5-0.5,2.5,0,4,1.3c0.7,0.6,2.2,2.2,1,4.1c-0.1,0.1-0.1,0.5,0.2,0.6c0.1,0.1,0.5,0.1,0.6-0.2
				C424.6,429.3,424.7,428.9,424.8,428.6z"/>
			<path class="st5" d="M436.2,424.5c0.3-1.1,0.4-2.1,0.2-2.9c-0.2-1.2-0.8-1.9-1.7-2.1c-1.7-0.6-2.5,0-2.9,0.3l-6.2-1.9
				c-0.1,0-3-0.9-6.1,0.3c-1.8,0.7-2.1,2.1-2.1,3c0.2,1.2,1.2,2.3,3,2.4c3.1,0.2,4.7-2.5,4.8-2.6c0.1-0.3,0.1-0.5-0.2-0.6
				c-0.3-0.1-0.5-0.1-0.6,0.2l0,0c0,0.1-1.3,2.3-3.9,2.2c-1.3-0.1-2.1-0.9-2.2-1.7c-0.2-0.9,0.4-1.6,1.5-2c2.7-1.1,5.5-0.3,5.5-0.3
				l6.9,2.1l0.1-0.3l0,0c0,0,0.5-0.7,2.1-0.1c0.7,0.2,1,1,1,1.5c0.3,1.5-0.3,3.8-1.7,4.9c-0.1,0.1-0.3,0.1-0.4,0.2
				c-1.1-0.2-2.7-2.3-3.3-3.1c-0.1-0.3-0.4-0.2-0.7-0.1c-0.3,0.1-0.2,0.4-0.1,0.7c0.3,0.4,2.1,3.1,3.8,3.4c0.4,0.1,0.8,0,1.2-0.3
				C435.3,426.6,435.9,425.7,436.2,424.5z"/>
			<path class="st5" d="M435.2,430.1c0.3-1.1-0.4-2.2-1.7-3.3c-1.6-1.2-4.1-1.9-5.4-0.7c-1.4,1.2-1,3.1-0.6,3.8c0,0.1,0.9,1.8,2,2.5
				c0.1,0.1,0.5,0.1,0.6,0s0.1-0.5,0-0.6c-0.8-0.6-1.7-2.3-1.7-2.3c0-0.1-0.9-1.6,0.4-2.8c0.7-0.7,2.7-0.3,4.2,0.8
				c0.9,0.6,1.8,1.6,1.4,2.4c-0.3,0.8-1.3,1.9-3.1,2.5c-1.9,0.6-6.2,1.3-12.8-2.4c-0.3-0.1-0.5-0.1-0.6,0.2
				c-0.1,0.3-0.1,0.5,0.2,0.6c6.6,3.7,10.9,3.4,13.4,2.5c2-0.8,3.3-2,3.6-2.9C435.2,430.3,435.2,430.3,435.2,430.1z"/>
			<path class="st5" d="M413,417c0-0.1,0-0.1,0-0.3c0-0.1-0.9-2.8-4.6-3.4c-1.3-0.2-2.2,0-3,0.6c-1,0.8-1.1,2.1-1,2.3
				c0,0.3,0.2,0.4,0.4,0.5c0.3,0,0.4-0.2,0.5-0.4c0,0,0.1-1,0.7-1.6c0.5-0.4,1.3-0.6,2.2-0.4c3.2,0.5,3.9,2.8,3.9,2.8
				c0,0.3,0.3,0.4,0.5,0.2C412.9,417.3,413,417.2,413,417z"/>
			<path class="st5" d="M419.1,419.6l0-0.1c0,0-0.6-6.4-6.3-8.5c-5.6-2.2-12.8,2-13,2.2c-0.3,0.1-0.2,0.4-0.1,0.7
				c0.1,0.3,0.4,0.2,0.7,0.1c0.1,0,7.1-4,12.3-2.1c5.2,1.9,5.8,7.6,5.8,7.8c0,0.3,0.3,0.4,0.4,0.4
				C418.9,419.8,419,419.7,419.1,419.6z"/>
			<path class="st5" d="M418.7,423.4L418.7,423.4c0.1-0.3,0-0.5-0.3-0.5c-0.1,0-15.1-4.1-19.6-5.6c-3.2-1-4.8-1.8-5.1-2.7
				c-0.2-0.4,0-0.8,0.2-1.3c0.8-1.6,4.4,0.1,4.4,0.1l19.8,8.7c0.3,0.1,0.5,0,0.6-0.2c0.1-0.3,0-0.5-0.2-0.6l-19.8-8.7
				c-0.1-0.1-4.4-2-5.6,0.3c-0.4,0.7-0.4,1.5-0.2,2c0.5,1.1,2.2,2.1,5.7,3.2c4.5,1.3,19.5,5.4,19.6,5.6
				C418.4,423.8,418.7,423.6,418.7,423.4z"/>
			<path class="st5" d="M391.1,419.8c0.1-0.3,0-0.4-0.3-0.5c0,0-1.9-0.7-2.3-2c-0.2-0.4-0.2-0.8,0.1-1.3c0.5-1.1,1.2-1.9,1.8-2.6
				c0.9-1,1.6-1.8,1.5-2.8c0-0.3-0.2-0.4-0.4-0.5c-0.3,0-0.4,0.2-0.5,0.4c0,0.6-0.6,1.3-1.3,2.3c-0.6,0.7-1.5,1.6-1.9,2.7
				c-0.4,0.7-0.3,1.3-0.2,2c0.6,1.5,2.6,2.3,2.7,2.5C390.7,420.1,391,419.9,391.1,419.8L391.1,419.8z"/>
			<path class="st5" d="M390.2,405.8c0,0,0.4-2.2,0.9-2.5c0.5-0.3,1.8,1.7,1.8,1.7s2.9-0.9,3-0.3c0,0.6-0.6,2.8-0.6,2.8s1,1.4,1,2.2
				c0,0.8-3.1-0.1-3.1-0.1s-1.1,2-1.9,1.7c-0.8-0.2-1.2-2.8-1.2-2.8s-2-0.5-2-1.2C388,406.5,390.2,405.8,390.2,405.8z"/>
			<path class="st5" d="M404,429.2c0,0,0.2-0.7,2.6-0.4c2.4,0.3,2,1.7-0.4,1.5C403.7,430,403.9,429.5,404,429.2z"/>
			<path class="st5" d="M403.9,432.6c0,0,0.5-0.8,2.2-0.5c1.7,0.3,1.6,1.3-0.3,1.2C403.8,433.2,403.9,432.6,403.9,432.6z"/>
			<path class="st5" d="M410.1,428.5c0,0-1.6,0-1-2.2c0.7-2.1,1.7-2,2.2-1.2C411.8,426.1,410.9,428.9,410.1,428.5z"/>
			<path class="st5" d="M408.7,437.2c0,0-1.4-0.1-0.9-1.8c0.6-1.7,1.5-1.6,1.9-1C410.2,435,409.4,437.4,408.7,437.2z"/>
			<path class="st5" d="M393.1,425c1.4-0.1,5.7-7,5.7-7c0.1-0.3,0-0.3,0-0.3c-4-1.2-5.1-2.2-5.5-2.7s-0.5-2.3,1.3-2.8
				c1.8-0.5,5,1.3,5,1.3l1.9-1.1c-5-2.3-8.5-1.2-11,3.2s1.9,6.5,1.9,6.5S391.7,425,393.1,425z M391.7,418.2
				c-0.7-0.5-0.3-1.5,0.6-1.5c0.3,0,0.8,0.2,1.2,0.6C394.8,418.2,392.8,418.9,391.7,418.2z"/>
		</g>
		<g>
			<path class="st5" d="M247.9,326c-0.1,0-0.3,0-0.4,0c-2.3,0-3.9-1.6-4-3.8c0-0.4,0.3-0.8,0.7-0.8c0.4,0,0.8,0.3,0.8,0.7
				c0.1,2.1,1.7,2.3,2.5,2.3c2,0,5-1.4,5.3-5c0.3-2.2-0.5-3.8-1.8-4.5c-1.2-0.6-2.5-0.3-2.9,0.2c-0.2,0.3-0.8,0.3-1,0.1
				c-0.3-0.2-0.3-0.8-0.1-1c0.9-0.8,2.9-1.3,4.7-0.5c1.2,0.6,3.1,2,2.7,6C254,323.4,250.8,325.8,247.9,326z"/>
			<path class="st5" d="M245,322.9c-2.7,0.2-4.9-2.1-5.1-4.9c-0.2-2.9,2.1-5.2,4.7-5.2c2.7-0.2,4.9,2.1,5.1,4.9
				C249.8,320.4,247.6,322.8,245,322.9z M244.7,314.3c-1.8,0.1-3.3,1.7-3.2,3.6c0.1,1.9,1.6,3.4,3.4,3.5c1.8-0.1,3.3-1.7,3.2-3.6
				C248,315.8,246.5,314.2,244.7,314.3z"/>
			<path class="st5" d="M263,341.8c-3.1,0-6.3-0.7-9.1-2.4c-5.7-3.2-9.2-9.1-9.2-15c0-0.4,0.3-0.8,0.7-0.8c0.4,0,0.8,0.3,0.8,0.7
				c-0.1,5.2,3.2,10.8,8.4,13.6c5.2,3,11.2,2.8,16.4-0.4c4.5-2.9,7.4-6.9,8.1-11.9c0.8-6.2-1.7-12.2-4.5-15.1
				c-5.3-5.7-14-4.8-17.4-4.3c-4.4,0.8-6.8-0.1-8.4-0.7c-0.1-0.1-0.3-0.1-0.4-0.1l0.5,2.4c0,0.4-0.1,0.8-0.3,1.1
				c-0.2,0.3-0.6,0.4-1,0.3l-0.4-0.1c1,2.2,1.3,4.4,1.3,4.5c0,0.4-0.2,0.8-0.6,0.8c-0.4,0-0.8-0.2-0.9-0.6c0,0-0.4-2.7-1.6-4.7
				c-0.3-0.4-0.2-0.9,0.1-1.3c0.2-0.4,0.8-0.6,1.1-0.5l0.7,0.2l-0.5-2.4c0-0.4,0.1-0.8,0.3-1.1c0.2-0.3,0.6-0.4,1-0.3
				s0.8,0.2,1.3,0.4c1.6,0.6,3.6,1.4,7.6,0.6c3.7-0.6,13.1-1.5,18.8,4.7c2.9,3.2,5.7,9.7,4.8,16.4c-0.7,5.4-3.8,10-8.8,13
				C269.1,340.9,266,341.7,263,341.8z"/>
			<path class="st5" d="M278.5,316.5c-0.1,0-0.3,0-0.4-0.1c-0.4-0.2-0.6-0.6-0.3-1c0,0,1.9-3.8,0.2-5.6c-0.3-0.2-0.5-0.5-0.8-0.5
				c-0.5,0-1.1,1.1-1.4,1.5c-0.1,0.4-0.6,0.6-1,0.4s-0.6-0.6-0.4-1c0.1-0.3,0.9-2.3,2.5-2.5c0.5,0,1.4,0.1,2.3,1
				c2.4,2.6,0.1,7.2,0,7.3C279.2,316.3,278.8,316.5,278.5,316.5z"/>
			
				<ellipse transform="matrix(0.9042 -0.4271 0.4271 0.9042 -110.4988 140.9143)" class="st5" cx="258.9" cy="316.8" rx="1.3" ry="1.7"/>
			
				<ellipse transform="matrix(0.9042 -0.4271 0.4271 0.9042 -106.8805 145.3984)" class="st5" cx="270.7" cy="311" rx="1.3" ry="1.7"/>
			<path class="st5" d="M264,315.6c0,0-0.2-2.7,1.5-3.6c0.9-0.6,2.2-0.1,3,0.2c0.4,0.2,0.4,0.8,0.2,1
				C267.2,314.4,264.3,316.5,264,315.6z"/>
			<path class="st5" d="M268.3,319.8c-2.5,0.1-3.7-4-3.7-4l-0.2-0.6l0.1,0c0-1.6,1.3-2.5,3.2-2.7c0.6,0,1.2,0.3,1.5,1
				c0.6,1.9,1.3,4.4,0.6,5.6c-0.2,0.4-0.6,0.7-1.1,0.8C268.4,319.8,268.3,319.8,268.3,319.8z M266,315.5c0.3,0.8,1.3,2.9,2.4,2.7
				c0,0,0,0,0.1,0c0.2-0.4,0.2-2-0.6-4.3c-0.6,0-1.8,0.2-1.8,1.3C266,315.2,266,315.4,266,315.5C266,315.4,266,315.5,266,315.5z"/>
			
				<ellipse transform="matrix(0.849 -0.5284 0.5284 0.849 -130.1442 185.7192)" class="st5" cx="259.9" cy="320.6" rx="2.1" ry="1.3"/>
			<ellipse transform="matrix(0.849 -0.5284 0.5284 0.849 -124.251 191.7983)" class="st5" cx="273.4" cy="313.3" rx="2" ry="1.2"/>
			<path class="st5" d="M248.2,334.4L248.2,334.4c-0.3,0-3.8-0.3-5.8-1c-0.4-0.1-0.6-0.6-0.4-1c0.1-0.4,0.6-0.6,1-0.4
				c1.9,0.7,5.3,0.9,5.3,0.9c0.4,0,0.8,0.3,0.7,0.9C249,334.1,248.6,334.4,248.2,334.4z"/>
			
				<ellipse transform="matrix(0.9985 -5.490619e-02 5.490619e-02 0.9985 -17.8947 13.711)" class="st5" cx="240.6" cy="332.5" rx="2.9" ry="2.9"/>
		</g>
		<g>
			<path class="st5" d="M404.2,295.8c0.1,0,0.1-0.1,0.3-0.1c1.2-1.1,1.3-2.7,0.3-3.9c-0.1-0.3-0.5-0.2-0.8-0.1
				c-0.3,0.1-0.2,0.5-0.1,0.8c1,1.1,0.1,2.1-0.3,2.4c-1,1-3.4,1.6-5.2-0.1c-1.2-1.1-1.6-2.3-1.1-3.2c0.3-0.8,1.2-1.4,1.6-1.3
				c0.3,0,0.6-0.2,0.6-0.6c0-0.3-0.2-0.6-0.6-0.6c-0.9-0.1-2.2,0.6-2.8,2c-0.3,0.8-0.6,2.5,1.4,4.5
				C399.8,297.4,402.6,297.2,404.2,295.8z"/>
			<path class="st5" d="M399.3,292.1c-1.3-1.5-1.1-3.8,0.4-5.1s3.7-1,5.1,0.5c1.3,1.5,1.1,3.8-0.4,5.1
				C402.8,294,400.6,293.7,399.3,292.1z M400.2,291.4c0.8,1.1,2.4,1.3,3.4,0.5c1-0.8,1.2-2.4,0.2-3.5c-1-1.1-2.4-1.3-3.4-0.5
				C399.4,288.9,399.2,290.4,400.2,291.4z"/>
			<path class="st5" d="M403.8,311.6c1.7-1.4,3.1-3.4,3.9-5.7c1.6-4.5,0.7-9.4-2.3-12.5c-0.3-0.2-0.5-0.2-0.8-0.1
				c-0.2,0.3-0.2,0.5-0.1,0.8c2.6,2.7,3.4,7.4,2.1,11.4c-1.3,4.1-4.7,6.9-9.1,7.7c-3.9,0.6-7.3-0.2-10-2.6
				c-3.4-2.9-4.8-7.4-4.9-10.3c0.1-5.6,5.2-9.3,7.4-10.6c2.8-1.7,3.6-3.3,4.2-4.4c0-0.1,0.1-0.3,0.1-0.3l0.9,1.5
				c0.1,0.3,0.4,0.4,0.7,0.5c0.3,0,0.5-0.2,0.8-0.3l0.1-0.3c0.5,1.7,1.3,3.1,1.5,3c0.1,0.3,0.5,0.4,0.8,0.2c0.3-0.1,0.4-0.5,0.2-0.8
				c0,0-1.1-1.6-1.5-3.3c0-0.4-0.3-0.6-0.7-0.6c-0.3-0.1-0.6,0-0.9,0.3l-0.2,0.4L395,284c-0.1-0.3-0.4-0.4-0.7-0.4
				c-0.3,0-0.5,0.2-0.8,0.3c-0.2,0.3-0.4,0.5-0.5,0.9c-0.6,1.1-1.3,2.5-3.8,4c-2.3,1.4-7.8,5.4-7.8,11.5c-0.1,3.1,1.5,8,5.2,11.2
				c3,2.6,6.8,3.5,11,2.8C400,314,402,313,403.8,311.6z"/>
			<path class="st5" d="M383.1,305.4c0.1,0,0.1-0.1,0.1-0.3c0.1-0.3,0-0.6-0.3-0.8c0,0-2.8-1.1-2.8-3c0-0.3,0.1-0.5,0.2-0.7
				c0.4-0.2,1,0.1,1.4,0.2c0.3,0.1,0.6,0,0.8-0.3c0.1-0.3,0-0.6-0.3-0.8c-0.1-0.1-1.6-0.7-2.5-0.1c-0.4,0.2-0.7,0.7-0.7,1.6
				c0,2.6,3.3,3.9,3.5,4C382.7,305.7,383,305.5,383.1,305.4z"/>
			<ellipse transform="matrix(0.9597 -0.2811 0.2811 0.9597 -67.3459 122.688)" class="st5" cx="394" cy="296.1" rx="1" ry="1.3"/>
			
				<ellipse transform="matrix(0.9597 -0.2811 0.2811 0.9597 -68.4471 120.1974)" class="st5" cx="384.7" cy="298.7" rx="1" ry="1.3"/>
			<path class="st5" d="M390.5,297.9c0,0-1.3-1.5-2.5-1.2c-0.8,0.2-1.2,1-1.6,1.5c-0.1,0.3,0,0.6,0.4,0.6
				C388.2,298.9,390.8,298.6,390.5,297.9z"/>
			<path class="st5" d="M390.1,302.4c-0.3,0.1-0.6,0.2-1,0.1c-1.1-0.3-1.8-2-2.4-3.3c-0.2-0.4-0.1-0.9,0.3-1.2
				c1.1-0.8,2.3-0.9,3.1-0.2l0.1,0l0.3,0.5c0,0,1.2,2.8-0.2,3.9C390.3,302.3,390.1,302.4,390.1,302.4z M389.4,298.8
				C389.4,298.8,389.4,298.7,389.4,298.8c-0.6-0.6-1.2-0.2-1.7,0.1c0.6,1.7,1.3,2.5,1.7,2.6l0,0
				C390.1,301.1,389.7,299.3,389.4,298.8L389.4,298.8z"/>
			
				<ellipse transform="matrix(0.9857 -0.1687 0.1687 0.9857 -44.7131 70.9236)" class="st5" cx="395.1" cy="298.6" rx="1.6" ry="0.9"/>
			
				<ellipse transform="matrix(0.9857 -0.1687 0.1687 0.9857 -45.2973 69.137)" class="st5" cx="384.3" cy="301.2" rx="1.4" ry="0.9"/>
			<path class="st5" d="M408.1,300.6L408.1,300.6c0.1-0.1,1.8-1.9,2.7-3.3c0.1-0.3,0.1-0.7-0.2-0.8c-0.3-0.1-0.7-0.1-0.8,0.2
				c-0.7,1.2-2.4,3-2.4,3c-0.2,0.3-0.2,0.5,0,0.8C407.6,300.8,407.9,300.8,408.1,300.6z"/>
			
				<ellipse transform="matrix(0.9985 -5.490624e-02 5.490624e-02 0.9985 -15.6254 23.0352)" class="st5" cx="411.4" cy="295.9" rx="2.1" ry="2.1"/>
		</g>
		<g>
			<path class="st5" d="M447,485.8c-0.1,0-0.3,0-0.4,0c-2.3,0-3.9-1.6-4-3.8c0-0.4,0.3-0.8,0.7-0.8c0.4,0,0.8,0.3,0.8,0.7
				c0.1,2.1,1.7,2.3,2.5,2.3c2,0,5-1.4,5.3-5c0.3-2.2-0.5-3.8-1.8-4.5c-1.2-0.6-2.5-0.3-2.9,0.2c-0.2,0.3-0.8,0.3-1,0.1
				c-0.3-0.2-0.3-0.8-0.1-1c0.9-0.8,2.9-1.3,4.7-0.5c1.2,0.6,3.1,2,2.7,6C453.1,483.2,449.9,485.6,447,485.8z"/>
			<path class="st5" d="M444.1,482.7c-2.7,0.2-4.9-2.1-5.1-4.9c-0.2-2.7,2.1-5.2,4.7-5.2c2.7-0.2,4.9,2.1,5.1,4.9
				C448.9,480.2,446.7,482.6,444.1,482.7z M443.8,474.1c-1.8,0.1-3.3,1.7-3.2,3.6c0.1,1.9,1.6,3.4,3.4,3.5c1.8-0.1,3.3-1.7,3.2-3.6
				C447.1,475.5,445.6,474,443.8,474.1z"/>
			<path class="st5" d="M462.1,501.7c-3.1,0-6.3-0.7-9.1-2.4c-5.7-3.2-9.2-9.1-9.2-15c0-0.4,0.3-0.8,0.7-0.8c0.4,0,0.8,0.3,0.8,0.7
				c-0.1,5.2,3.2,10.8,8.4,13.6c5.2,3,11.2,2.8,16.4-0.4c4.5-2.9,7.4-6.9,8.1-11.9c0.8-6.2-1.7-12.2-4.5-15.1
				c-5.3-5.7-14-4.8-17.4-4.3c-4.4,0.8-6.8-0.1-8.4-0.7c-0.1-0.1-0.3-0.1-0.4-0.1l0.5,2.4c0,0.4-0.1,0.8-0.3,1.1s-0.6,0.4-1,0.3
				l-0.4-0.1c1,2.2,1.3,4.4,1.3,4.5c0,0.4-0.2,0.8-0.6,0.8c-0.4,0-0.8-0.2-0.9-0.6c0,0-0.4-2.7-1.6-4.7c-0.3-0.4-0.2-0.9,0.1-1.3
				c0.2-0.4,0.8-0.6,1.1-0.5l0.7,0.2l-0.5-2.4c0-0.4,0.1-0.8,0.3-1.1s0.6-0.4,1-0.3c0.4,0.1,0.8,0.2,1.3,0.4
				c1.6,0.6,3.6,1.4,7.6,0.6c3.7-0.6,13.1-1.5,18.8,4.7c2.9,3.2,5.7,9.7,4.8,16.4c-0.7,5.4-3.8,10-8.8,13
				C468.2,500.5,465.1,501.5,462.1,501.7z"/>
			<path class="st5" d="M477.6,476.3c-0.1,0-0.3,0-0.4-0.1c-0.4-0.2-0.6-0.6-0.3-1c0,0,1.9-3.8,0.2-5.6c-0.3-0.2-0.5-0.5-0.8-0.5
				c-0.5,0-1.1,1.1-1.4,1.5c-0.1,0.4-0.6,0.6-1,0.4c-0.4-0.1-0.6-0.6-0.4-1c0.1-0.3,0.9-2.3,2.5-2.5c0.5,0,1.4,0.1,2.3,1
				c2.4,2.6,0.1,7.2,0,7.3C478.3,476.1,478,476.3,477.6,476.3z"/>
			
				<ellipse transform="matrix(0.9042 -0.4271 0.4271 0.9042 -159.6854 241.2565)" class="st5" cx="458" cy="476.6" rx="1.3" ry="1.7"/>
			
				<ellipse transform="matrix(0.9042 -0.4271 0.4271 0.9042 -156.0671 245.7407)" class="st5" cx="469.8" cy="470.8" rx="1.3" ry="1.7"/>
			<path class="st5" d="M463.1,475.4c0,0-0.2-2.7,1.5-3.6c0.9-0.6,2.2-0.1,3,0.2c0.4,0.2,0.4,0.8,0.2,1
				C466.3,474.2,463.4,476.3,463.1,475.4z"/>
			<path class="st5" d="M467.4,479.6c-2.5,0.1-3.7-4-3.7-4l-0.2-0.6l0.1,0c0-1.6,1.3-2.5,3.2-2.7c0.6,0,1.2,0.3,1.5,1
				c0.6,1.9,1.3,4.4,0.6,5.6c-0.2,0.4-0.6,0.7-1.1,0.8C467.5,479.6,467.5,479.6,467.4,479.6z M465.1,475.3c0.3,0.8,1.3,2.9,2.4,2.7
				c0,0,0,0,0.1,0c0.2-0.4,0.2-2-0.6-4.3c-0.6,0-1.8,0.2-1.8,1.3C465.1,475,465.1,475,465.1,475.3
				C465.1,475.2,465.1,475.2,465.1,475.3z"/>
			
				<ellipse transform="matrix(0.849 -0.5284 0.5284 0.849 -184.5278 315.0611)" class="st5" cx="458.9" cy="480.4" rx="2.1" ry="1.3"/>
			
				<ellipse transform="matrix(0.849 -0.5284 0.5284 0.849 -178.6346 321.1402)" class="st5" cx="472.5" cy="473.1" rx="2" ry="1.2"/>
			<path class="st5" d="M447.3,494.3L447.3,494.3c-0.3,0-3.8-0.3-5.8-1c-0.4-0.1-0.6-0.6-0.4-1c0.1-0.4,0.6-0.6,1-0.4
				c1.9,0.7,5.3,0.9,5.3,0.9c0.4,0,0.8,0.3,0.7,0.9C448.1,494,447.7,494.2,447.3,494.3z"/>
			<circle class="st5" cx="439.7" cy="492.3" r="2.9"/>
		</g>
		<g>
			<path class="st5" d="M532.7,328.1c-0.1,0-0.1-0.1-0.3-0.1c-1.6-1.2-1.9-3-0.8-4.6c0.2-0.3,0.6-0.4,0.9-0.2
				c0.3,0.2,0.4,0.6,0.2,0.9c-1,1.5,0,2.5,0.5,2.8c1.4,1,4.3,1.5,6.2-0.9c1.2-1.5,1.7-2.8,1-4c-0.6-1-1.6-1.5-2-1.3
				c-0.4,0-0.7-0.2-0.8-0.5c0-0.4,0.2-0.7,0.5-0.8c1-0.2,2.6,0.5,3.5,2c0.6,0.9,1.1,2.9-1.1,5.5
				C538.3,329.4,534.7,329.5,532.7,328.1z"/>
			<path class="st5" d="M532.3,324.6c-1.9-1.3-2.4-3.9-1-5.9c1.3-2,3.9-2.6,5.9-1.2c1.9,1.3,2.4,3.9,1,5.9
				C536.9,325.2,534.1,325.8,532.3,324.6z M536.3,318.5c-1.3-0.8-3.2-0.5-4,0.9c-1,1.4-0.6,3.2,0.6,4c1.2,0.8,3.2,0.5,4-0.9
				C537.9,321.1,537.6,319.3,536.3,318.5z"/>
			<path class="st5" d="M535.2,346.7c-2.2-1.4-4-3.6-5.2-6.2c-2.4-5.1-1.9-11,1.1-15.1c0.2-0.3,0.6-0.3,0.9-0.2
				c0.3,0.2,0.3,0.6,0.2,0.9c-2.7,3.5-3.2,9-1.1,13.6c2.1,4.7,6.4,7.6,11.6,8c4.6,0.3,8.5-1.1,11.5-4.3c3.7-3.9,4.8-9.3,4.4-12.6
				c-0.8-6.6-7.2-10.3-9.9-11.6c-3.5-1.6-4.6-3.5-5.5-4.8c-0.1-0.1-0.1-0.3-0.3-0.4l-0.8,2c-0.1,0.3-0.4,0.5-0.8,0.6
				s-0.7-0.1-0.9-0.3l-0.3-0.2c-0.4,2-1.2,3.7-1.4,3.7c-0.1,0.3-0.6,0.4-0.9,0.3c-0.3-0.1-0.4-0.6-0.3-0.9c0,0,1.1-2,1.3-4.1
				c0-0.4,0.4-0.7,0.7-0.8s0.8,0,1.1,0.3l0.4,0.5l0.9-2c0.1-0.3,0.4-0.5,0.8-0.6s0.7,0.1,0.9,0.3c0.3,0.2,0.4,0.6,0.7,1
				c0.7,1.1,1.8,2.8,4.9,4.3c2.9,1.4,9.8,5.5,10.6,12.7c0.5,3.8-0.9,9.6-4.8,13.8c-3.2,3.4-7.5,5-12.7,4.6
				C540,348.9,537.3,348.1,535.2,346.7z"/>
			<path class="st5" d="M558.7,336.9c-0.1,0-0.1-0.1-0.3-0.2c-0.2-0.4,0-0.8,0.3-0.9c0,0,3.2-1.6,2.9-3.8c0-0.3-0.2-0.6-0.3-0.8
				c-0.4-0.2-1.3,0.2-1.7,0.4c-0.3,0.1-0.8,0-0.9-0.2c-0.1-0.3,0-0.8,0.2-0.9c0.1-0.1,1.8-1,3-0.4c0.4,0.2,1,0.7,1.1,1.8
				c0.3,3-3.5,5-3.6,5.2C559.1,337,558.9,337,558.7,336.9z"/>
			
				<ellipse transform="matrix(0.1827 -0.9832 0.9832 0.1827 123.7351 803.1865)" class="st5" cx="545" cy="327.2" rx="1.6" ry="1.2"/>
			
				<ellipse transform="matrix(0.1827 -0.9832 0.9832 0.1827 131.0071 815.6655)" class="st5" cx="556.1" cy="329" rx="1.6" ry="1.2"/>
			<path class="st5" d="M549,329c0,0,1.3-1.9,2.8-1.7c0.9,0.1,1.6,1,2,1.7c0.2,0.4-0.1,0.8-0.5,0.8C552,329.7,548.8,329.8,549,329z"
				/>
			<path class="st5" d="M549.8,334c-1.8-1.2-0.6-4.7-0.6-4.7l0.2-0.5l0.1,0c0.9-1.1,2.2-1.2,3.6-0.2c0.4,0.4,0.7,0.9,0.5,1.4
				c-0.4,1.6-1.2,3.7-2.4,4.2c-0.4,0.2-0.8,0.2-1.2,0.1C550.1,334.1,550,334,549.8,334z M550.5,329.9c-0.2,0.7-0.5,2.8,0.2,3.1
				c0,0,0,0,0.1,0c0.4-0.2,1.1-1.2,1.6-3.2c-0.5-0.4-1.3-0.7-1.8,0C550.7,329.7,550.5,329.8,550.5,329.9
				C550.5,329.8,550.5,329.8,550.5,329.9z"/>
			
				<ellipse transform="matrix(6.822697e-02 -0.9977 0.9977 6.822697e-02 177.0325 850.2645)" class="st5" cx="543.7" cy="330.4" rx="1.2" ry="1.8"/>
			
				<ellipse transform="matrix(6.822697e-02 -0.9977 0.9977 6.822697e-02 187.5106 864.9634)" class="st5" cx="556.8" cy="332.1" rx="1" ry="1.6"/>
			<path class="st5" d="M528.7,334.3C528.7,334.1,528.7,334.1,528.7,334.3c-0.1-0.1-2.5-2.1-3.5-3.6c-0.1-0.3-0.2-0.8,0.2-0.9
				c0.3-0.1,0.8-0.2,0.9,0.2c1,1.4,3.2,3.2,3.2,3.3c0.3,0.2,0.3,0.6,0.1,0.9C529.4,334.4,529,334.4,528.7,334.3z"/>
			
				<ellipse transform="matrix(0.9985 -5.490622e-02 5.490622e-02 0.9985 -17.2751 29.2901)" class="st5" cx="524.4" cy="329" rx="2.5" ry="2.5"/>
		</g>
		<g>
			<path class="st5" d="M567.2,405.2c0.1,0,0.3,0,0.4,0c2.6-0.3,4.3-2.1,4.2-4.7c0-0.5-0.4-0.9-1-0.9c-0.5,0-0.9,0.4-0.9,1
				c0.1,2.3-1.8,2.7-2.6,2.9c-2.2,0.3-5.8-1.4-6.4-5.3c-0.4-2.6,0.2-4.3,1.7-5.2c1.3-0.7,2.8-0.4,3.3,0c0.4,0.4,0.9,0.3,1.3-0.1
				c0.4-0.4,0.3-0.9-0.1-1.3c-1-1-3.3-1.3-5.4-0.2c-1.3,0.7-3.4,2.5-2.6,7.1C560,402.8,563.9,405.3,567.2,405.2z"/>
			<path class="st5" d="M564.6,395.9c0-3.3,2.3-5.9,5.4-6s5.6,2.4,5.8,5.5c0,3.3-2.3,5.9-5.4,6C567.3,401.6,564.6,399,564.6,395.9z
				 M566.3,395.8c0.1,2.2,1.8,3.9,3.9,3.8c2.1-0.1,3.7-1.9,3.7-4.1c-0.1-2.2-1.8-3.9-3.9-3.8S566.3,393.6,566.3,395.8z"/>
			<path class="st5" d="M551.2,424.5c3.5-0.1,7.1-1.3,10.2-3.3c6.3-4.1,9.9-11.1,9.3-17.8c0-0.5-0.4-0.9-1-0.9c-0.5,0-0.9,0.4-0.9,1
				c0.6,6-3,12.5-8.5,16.2c-5.8,3.8-12.5,4.1-18.9,0.8c-5.5-3-9-7.5-10.1-13c-1.4-7,1.1-14,4-17.6c5.6-6.8,15.5-6.6,19.5-6.2
				c5.1,0.5,7.8-0.7,9.6-1.6c0.1-0.1,0.4-0.2,0.5-0.3l-0.4,2.9c-0.1,0.4,0.1,0.9,0.5,1.1c0.4,0.2,0.8,0.3,1.2,0.2l0.5-0.2
				c-0.9,2.5-1.2,5-1.2,5.1c-0.1,0.5,0.3,0.9,0.8,1c0.5,0,0.9-0.3,1-0.8c0,0,0.2-3.1,1.4-5.6c0.2-0.5,0.2-1.1-0.2-1.4
				c-0.3-0.4-0.9-0.6-1.3-0.4l-0.8,0.3l0.4-2.9c0.1-0.4,0-0.9-0.5-1.1c-0.3-0.2-0.8-0.3-1.2-0.3c-0.5,0.2-0.9,0.3-1.5,0.6
				c-1.8,0.7-4.1,1.9-8.7,1.4c-4.3-0.4-15-0.7-21.1,6.8c-3.2,4-5.9,11.5-4.3,19c1.3,6.2,5,11.1,11,14.3
				C544.2,423.8,547.8,424.6,551.2,424.5z"/>
			<path class="st5" d="M531.4,396.8c0.1,0,0.3,0,0.4-0.2c0.4-0.3,0.6-0.8,0.3-1.2c0,0-2.4-4.2-0.6-6.4c0.2-0.3,0.6-0.7,0.9-0.6
				c0.7,0.1,1.4,1.1,1.7,1.7c0.2,0.4,0.7,0.6,1.2,0.5c0.4-0.2,0.6-0.7,0.5-1.2c-0.1-0.3-1.3-2.5-3-2.7c-0.7-0.1-1.6,0.1-2.5,1.3
				c-2.4,3.1,0.5,8.2,0.6,8.3C530.9,396.6,531.1,396.8,531.4,396.8z"/>
			
				<ellipse transform="matrix(0.3663 -0.9305 0.9305 0.3663 -16.9667 766.2667)" class="st5" cx="554.1" cy="395.6" rx="2" ry="1.6"/>
			<ellipse transform="matrix(0.3663 -0.9305 0.9305 0.3663 -20.4707 749.4379)" class="st5" cx="540" cy="389.7" rx="2" ry="1.6"/>
			<path class="st5" d="M548,394.6c0,0,0-3.1-1.9-3.9c-1.1-0.5-2.5,0-3.5,0.5c-0.5,0.3-0.5,0.9-0.1,1.2
				C544.3,393.5,547.6,395.7,548,394.6z"/>
			<path class="st5" d="M543,399.7c-0.5-0.1-1.1-0.3-1.3-0.8c-0.9-1.4-0.4-4.3,0.2-6.4c0.2-0.7,0.8-1.2,1.6-1.3
				c2.2,0,3.8,1.1,3.9,2.8l0.1,0.1l-0.2,0.8c0,0-1.3,4.8-4,4.8C543.4,399.7,543.3,399.7,543,399.7z M545.7,394.5c0-0.1,0-0.1,0-0.3
				c-0.1-1.2-1.2-1.2-2-1.3c-0.8,2.6-0.8,4.5-0.4,4.8c0,0,0,0,0.1,0C544.4,398.1,545.5,395.5,545.7,394.5
				C545.7,394.6,545.7,394.5,545.7,394.5z"/>
			<ellipse transform="matrix(0.471 -0.8821 0.8821 0.471 -60.2703 699.4512)" class="st5" cx="553" cy="400" rx="1.6" ry="2.5"/>
			<ellipse transform="matrix(0.471 -0.8821 0.8821 0.471 -62.2891 681.4471)" class="st5" cx="537" cy="392.7" rx="1.3" ry="2.2"/>
			<path class="st5" d="M567.5,414.9L567.5,414.9c0.3,0,4.3-0.6,6.6-1.7c0.5-0.2,0.6-0.7,0.5-1.2s-0.7-0.6-1.2-0.5
				c-2,0.9-5.9,1.5-5.9,1.5c-0.5,0-0.9,0.6-0.7,1C566.5,414.7,566.9,414.9,567.5,414.9z"/>
			
				<ellipse transform="matrix(0.9985 -5.490625e-02 5.490625e-02 0.9985 -21.7649 32.2504)" class="st5" cx="576" cy="412.2" rx="3.4" ry="3.4"/>
		</g>
		<g>
			<path class="st5" d="M217.1,469.1c0.1,0,0.1-0.1,0.2-0.3c1.6-1.5,1.8-3.5,0.5-5.2c-0.3-0.4-0.7-0.4-1-0.1c-0.4,0.3-0.4,0.7-0.1,1
				c1.3,1.5,0.2,2.7-0.3,3.1c-1.4,1.2-4.6,2.1-6.9-0.3c-1.5-1.5-2-3-1.4-4.4c0.6-1.1,1.7-1.8,2.1-1.7c0.4,0.1,0.8-0.3,0.9-0.7
				s-0.3-0.8-0.7-0.9c-1.2-0.1-3,0.8-3.6,2.5c-0.5,1.1-1,3.3,1.8,6C211.1,471.1,214.8,470.8,217.1,469.1z"/>
			<path class="st5" d="M210.5,464.3c-1.7-2.1-1.5-5.1,0.5-6.7c2-1.5,5-1.2,6.7,0.8c1.7,2.1,1.5,5.1-0.5,6.7
				C215.2,466.6,212.2,466.3,210.5,464.3z M211.8,463.3c1.1,1.5,3.2,1.8,4.6,0.7c1.4-1.1,1.5-3.1,0.4-4.6c-1.1-1.5-3.2-1.8-4.6-0.7
				C210.8,459.8,210.7,461.8,211.8,463.3z"/>
			<path class="st5" d="M216,489.9c2.4-1.8,4.1-4.4,5.2-7.3c2.2-5.9,1-12.4-2.7-16.5c-0.3-0.2-0.8-0.3-1-0.1c-0.2,0.3-0.3,0.8-0.1,1
				c3.3,3.7,4.3,9.8,2.4,15.1c-1.9,5.4-6.4,9-12.2,9.9c-5,0.8-9.7-0.5-13.2-3.7c-4.4-3.9-6.3-9.8-6.1-13.7c0.2-7.3,7-12.1,9.9-13.8
				c3.7-2.2,4.8-4.3,5.7-5.8c0.1-0.1,0.1-0.3,0.2-0.4l1.2,2.2c0.2,0.4,0.5,0.5,0.9,0.6c0.4,0,0.8-0.2,1-0.4l0.2-0.3
				c0.6,2.2,1.8,3.9,1.8,4.1c0.3,0.4,0.7,0.5,1.1,0.2s0.5-0.7,0.2-1.1c0,0-1.4-2.1-1.8-4.5c0-0.4-0.4-0.8-0.8-0.9
				c-0.4-0.1-0.9,0.1-1.1,0.5l-0.4,0.5l-1.2-2.2c-0.2-0.4-0.5-0.5-0.8-0.6c-0.4,0-0.8,0.2-0.9,0.4c-0.2,0.3-0.5,0.7-0.7,1.1
				c-0.7,1.3-1.8,3.2-5.1,5.2c-3.2,1.9-10.4,7-10.6,15.1c-0.2,4.2,1.9,10.6,6.7,14.9c3.8,3.4,8.9,4.9,14.4,4
				C210.9,492.9,213.7,491.7,216,489.9z"/>
			<path class="st5" d="M188.9,481.4c0.1-0.1,0.1-0.1,0.2-0.3c0.1-0.4,0-0.8-0.4-1c0,0-3.6-1.6-3.6-4c0-0.3,0.1-0.8,0.3-0.9
				c0.4-0.3,1.4,0.1,2,0.3c0.4,0.2,0.8,0.1,1-0.3c0.2-0.4,0.1-0.8-0.3-1c-0.3-0.1-2-1.1-3.4-0.2c-0.5,0.3-1,0.8-1.1,2.1
				c-0.1,3.4,4.3,5.2,4.6,5.4C188.4,481.5,188.8,481.5,188.9,481.4z"/>
			
				<ellipse transform="matrix(0.9645 -0.264 0.264 0.9645 -116.6389 70.3296)" class="st5" cx="203.4" cy="469.2" rx="1.3" ry="1.7"/>
			
				<ellipse transform="matrix(0.9645 -0.264 0.264 0.9645 -117.9006 67.2182)" class="st5" cx="191.2" cy="472.4" rx="1.3" ry="1.7"/>
			<path class="st5" d="M199,471.7c0,0-1.7-2-3.2-1.6c-1,0.2-1.6,1.3-2.1,2.1c-0.2,0.4,0.1,0.9,0.6,0.9
				C195.9,472.8,199.3,472.4,199,471.7z"/>
			<path class="st5" d="M198.2,477.5c-0.4,0.3-0.9,0.3-1.3,0.1c-1.3-0.4-2.4-2.6-3.1-4.4c-0.2-0.6-0.1-1.2,0.4-1.6
				c1.5-1.1,3.1-1.2,4-0.1l0.1,0l0.3,0.6c0,0,1.5,3.8-0.2,5.2C198.4,477.3,198.4,477.4,198.2,477.5z M197.5,472.7l-0.1-0.1
				c-0.6-0.8-1.4-0.2-2.1,0.1c0.9,2.2,1.7,3.3,2.1,3.5c0,0,0,0,0.1,0C198.3,475.8,197.8,473.4,197.5,472.7L197.5,472.7z"/>
			
				<ellipse transform="matrix(0.9885 -0.1511 0.1511 0.9885 -69.0509 36.3951)" class="st5" cx="205" cy="472.6" rx="2.1" ry="1.3"/>
			
				<ellipse transform="matrix(0.9885 -0.1511 0.1511 0.9885 -69.6916 34.2525)" class="st5" cx="190.6" cy="475.8" rx="1.8" ry="1.2"/>
			<path class="st5" d="M222,475.5C222.1,475.5,222.1,475.5,222,475.5c0.1-0.1,2.5-2.5,3.5-4.4c0.2-0.4,0.1-0.8-0.3-1
				c-0.4-0.2-0.8-0.1-1,0.3c-1,1.6-3.2,4-3.3,4c-0.2,0.3-0.3,0.8,0.1,1C221.3,475.8,221.7,475.8,222,475.5z"/>
			<circle class="st5" cx="226.5" cy="469.4" r="2.7"/>
		</g>
		<g>
			<path class="st5" d="M400.8,475.3c0.1,0,0.1,0,0.3,0c1.7-0.5,2.5-1.8,2.2-3.5c0-0.3-0.4-0.5-0.7-0.5c-0.3,0-0.5,0.4-0.5,0.7
				c0.3,1.4-0.8,2-1.3,2.2c-1.4,0.5-3.9-0.2-4.7-2.6c-0.6-1.5-0.4-2.8,0.5-3.5c0.8-0.6,1.8-0.6,2.1-0.4c0.3,0.1,0.7,0.1,0.8-0.2
				c0.1-0.3,0.1-0.7-0.2-0.8c-0.8-0.5-2.4-0.4-3.5,0.5c-0.8,0.6-1.8,2.1-0.8,4.9C396,474.7,398.8,475.8,400.8,475.3z"/>
			<path class="st5" d="M398,469.7c-0.5-2.1,0.8-4.1,2.8-4.5c1.9-0.5,4,0.8,4.3,2.9c0.5,2.1-0.8,4.1-2.8,4.5
				C400.4,473,398.4,471.7,398,469.7z M399.1,469.4c0.3,1.4,1.7,2.3,3,2.1c1.3-0.3,2.1-1.7,1.8-3.1s-1.7-2.3-3-2.1
				C399.5,466.5,398.8,468,399.1,469.4z"/>
			<path class="st5" d="M392.9,489.7c2.3-0.5,4.3-1.7,6.2-3.3c3.5-3.4,5-8.4,3.7-12.6c-0.1-0.3-0.4-0.5-0.7-0.4
				c-0.3,0.1-0.5,0.4-0.4,0.7c1.1,3.7-0.3,8.4-3.5,11.4c-3.2,3.2-7.6,4.2-12,2.7c-3.8-1.2-6.6-3.7-8.1-7.1c-1.8-4.3-1-9.1,0.4-11.8
				c2.7-5.1,9.2-6.1,11.8-6.3c3.4-0.3,4.9-1.4,6-2.2c0.1-0.1,0.3-0.1,0.3-0.1l0.1,1.8c0,0.3,0.2,0.5,0.4,0.8c0.3,0.1,0.5,0.1,0.8,0
				l0.3-0.1c-0.3,1.7-0.1,3.4-0.1,3.5c0,0.3,0.3,0.5,0.7,0.5c0.3,0,0.5-0.3,0.5-0.7c0,0-0.2-2.1,0.2-3.7c0.1-0.4,0-0.6-0.3-0.9
				c-0.3-0.2-0.7-0.2-0.9-0.1l-0.5,0.3l-0.1-1.9c0-0.3-0.2-0.5-0.4-0.8c-0.3-0.1-0.5-0.1-0.8-0.1c-0.3,0.1-0.5,0.3-0.9,0.6
				c-1,0.7-2.4,1.7-5.4,1.9c-2.9,0.3-9.7,1.3-12.7,7c-1.5,2.8-2.3,8.1-0.5,12.7c1.5,3.8,4.5,6.5,8.8,7.7
				C388.3,490.1,390.7,490.1,392.9,489.7z"/>
			<path class="st5" d="M376.9,474.3c0.1,0,0.1,0,0.3-0.1c0.2-0.3,0.2-0.5,0.1-0.8c0,0-2.1-2.4-1.1-4c0.1-0.3,0.4-0.5,0.5-0.5
				c0.4,0,0.9,0.6,1.2,0.8c0.1,0.3,0.5,0.4,0.8,0.1c0.3-0.1,0.4-0.5,0.1-0.8c-0.1-0.1-1.1-1.4-2.3-1.3c-0.4,0-1,0.3-1.5,1.1
				c-1.2,2.3,1.2,5.1,1.3,5.3C376.5,474.3,376.6,474.3,376.9,474.3z"/>
			
				<ellipse transform="matrix(0.1862 -0.9825 0.9825 0.1862 -144.2063 767.4687)" class="st5" cx="391.2" cy="470.8" rx="1.3" ry="1"/>
			
				<ellipse transform="matrix(0.1862 -0.9825 0.9825 0.1862 -150.0231 756.3429)" class="st5" cx="381.6" cy="468.7" rx="1.3" ry="1"/>
			<path class="st5" d="M387.3,471c0,0-0.5-1.9-1.7-2.3c-0.8-0.2-1.7,0.4-2.2,0.8c-0.3,0.1-0.2,0.7,0,0.8
				C384.6,470.6,387.2,471.6,387.3,471z"/>
			<path class="st5" d="M384.7,474.8c-0.4,0-0.7-0.1-0.9-0.3c-0.7-0.7-0.8-2.7-0.6-4.1c0.1-0.5,0.3-0.8,0.9-1
				c1.4-0.3,2.6,0.2,2.8,1.3l0.1,0l0,0.5c0,0-0.2,3.1-2,3.6C384.9,474.7,384.7,474.8,384.7,474.8z M385.7,471.1l0-0.1
				c-0.2-0.6-1-0.7-1.5-0.6c-0.2,1.8,0,2.9,0.3,3.2l0,0C385.3,473.6,385.8,471.7,385.7,471.1C385.7,471.2,385.7,471.1,385.7,471.1z"
				/>
			
				<ellipse transform="matrix(0.2981 -0.9545 0.9545 0.2981 -177.7217 705.7387)" class="st5" cx="391" cy="473.7" rx="1" ry="1.6"/>
			
				<ellipse transform="matrix(0.2981 -0.9545 0.9545 0.2981 -182.8174 693.2584)" class="st5" cx="380" cy="470.9" rx="0.9" ry="1.4"/>
			<path class="st5" d="M402.1,481.6C402.2,481.6,402.2,481.6,402.1,481.6c0.1,0,2.7-0.9,3.9-1.8c0.3-0.1,0.4-0.5,0.1-0.8
				c-0.1-0.3-0.5-0.4-0.8-0.1c-1.3,0.9-3.6,1.6-3.7,1.6c-0.3,0.1-0.5,0.4-0.3,0.8C401.5,481.5,401.8,481.6,402.1,481.6z"/>
			
				<ellipse transform="matrix(0.9985 -5.490622e-02 5.490622e-02 0.9985 -25.671 23.0829)" class="st5" cx="407.3" cy="478.7" rx="2.2" ry="2.2"/>
		</g>
	</g>
</g>
</svg>
