<?xml version="1.0" encoding="utf-8"?>
<!-- Generator: Adobe Illustrator 27.7.0, SVG Export Plug-In . SVG Version: 6.00 Build 0)  -->
<svg version="1.1" id="레이어_1" xmlns="http://www.w3.org/2000/svg" xmlns:xlink="http://www.w3.org/1999/xlink" x="0px"
	 y="0px" viewBox="0 0 800 800" style="enable-background:new 0 0 800 800;" xml:space="preserve">
<style type="text/css">
	.st0{fill:#303030;}
</style>
<g>
	<path class="st0" d="M602.1,563.1l-39.6-324.9c0,0.9-100.6-0.2-149.5-0.8l0-0.3c0,0-4.9,0.1-13,0.2c-8.1-0.1-13-0.2-13-0.2l0,0.3
		c-48.9,0.6-149.5,1.7-149.5,0.8l-39.6,324.9h184.5L400,375.9l17.5,187.2H602.1z"/>
	<path d="M565.4,237.8l40,328.3H414.8L400,407.7L385.2,566H194.6l40-328.3l0.4-2.5L565.4,237.8z M559.7,243l-319.5-1.7l-38.9,318.8
		h178.5L397,375.6h5.9l17.3,184.5h178.5l-38.9-317.2"/>
</g>
</svg>
