<?xml version="1.0" encoding="utf-8"?>
<!-- Generator: Adobe Illustrator 27.7.0, SVG Export Plug-In . SVG Version: 6.00 Build 0)  -->
<svg version="1.1" id="레이어_1" xmlns="http://www.w3.org/2000/svg" xmlns:xlink="http://www.w3.org/1999/xlink" x="0px"
	 y="0px" viewBox="0 0 1080 1013.3" style="enable-background:new 0 0 1080 1013.3;" xml:space="preserve">
<style type="text/css">
	.st0{fill:#564235;}
	.st1{fill:#1C191A;}
	.st2{fill:#33412A;}
	.st3{fill:#6A5755;}
</style>
<g>
	<path class="st0" d="M347.4,462.3l-36,49.8c0,0,76.3,39.2,102.2,35.6s39.7-12,39.7-12l-9.9-49.7L421,475.6
		C421,475.6,393.8,482.8,347.4,462.3z"/>
	<path d="M420.9,476.1l-11.8,1.2c-14.6,1.3-31.9,2.5-60.7-11.3l-32.5,45c14.4,7.2,75.5,36.8,97.3,33.8c19.7-2.7,32.3-8.3,36.7-10.6
		l-10.1-49.3l6.2,2.5l10.6,49.8l-1.8,1.1c-0.6,0.4-14.6,8.7-40.8,12.4c-1.2,0.2-2.5,0.2-4,0.2c-29.2,0-97-34.6-100-36.1l-3.1-1.6
		l39.4-54.6l2.2,1.1c28.5,14.1,48.1,12.6,62.3,11.4L420.9,476.1z"/>
	<path class="st0" d="M705.5,319.5l43.8,62.6c0,0,11.3-12.8,26.6-7.4c15.4,5.5,20.7,26.6,20.7,26.6l50.7-38.9
		c0,0-29.6-54.7-78.8-60.6C733.8,297.6,705.5,319.5,705.5,319.5z"/>
	<path d="M794.9,406.3l-1.1-4.4c0-0.2-5.1-19.7-18.8-24.5c-13.2-4.7-23,6.1-23.4,6.6l-2.5,2.8l-2.1-3l-45.5-64.9l2.2-1.7
		c1.2-0.9,29.7-22.6,65.2-18.3c20.8,2.5,41.5,14.1,59.7,33.4c13.7,14.5,21.1,28.1,21.4,28.7l1.2,2.2L794.9,406.3z M768.3,370.3
		c2.7,0,5.6,0.4,8.7,1.5c12.5,4.4,18.7,17.6,21.2,24.5l45.3-34.8c-2.6-4.4-9.3-14.7-19.3-25.4c-12-12.7-31.5-28.5-56-31.5
		c-27.6-3.3-51.3,10.7-58.6,15.5l40.2,57.3C753.3,374.6,759.8,370.3,768.3,370.3z"/>
	<g>
		<g>
			<polygon class="st1" points="775.7,314.6 769.8,314.6 769.8,319.9 759.8,319.9 759.8,329.9 754.5,329.9 754.5,338.7 759.8,338.7 
				759.8,344.5 750.4,344.5 750.4,349.3 748.1,349.3 748.1,355.1 756.3,355.1 756.3,351 761.6,351 761.6,344.5 764.5,344.5 
				764.5,338.7 767.5,338.7 767.5,331 779.2,331 779.2,319.9 775.7,319.9 			"/>
			<polygon class="st1" points="798.6,334 786.3,334 786.3,340.4 781,340.4 781,345.7 786.9,345.7 786.9,343.4 797.4,343.4 
				797.4,348.7 785.7,348.7 785.7,356.3 801.6,356.3 801.6,349.3 803.3,349.3 803.3,342.8 798.6,342.8 			"/>
		</g>
		<g>
			<polygon class="st1" points="789.2,326.9 783.3,326.9 783.3,332.2 773.3,332.2 773.3,342.2 768.1,342.2 768.1,351 773.3,351 
				773.3,356.9 763.9,356.9 763.9,361.6 761.6,361.6 761.6,367.5 769.8,367.5 769.8,363.4 775.1,363.4 775.1,356.9 778,356.9 
				778,351 781,351 781,343.4 792.7,343.4 792.7,332.2 789.2,332.2 			"/>
			<polygon class="st1" points="812.1,346.3 799.8,346.3 799.8,352.8 794.5,352.8 794.5,358.1 800.4,358.1 800.4,355.7 811,355.7 
				811,361 799.2,361 799.2,368.6 815.1,368.6 815.1,361.6 816.8,361.6 816.8,355.1 812.1,355.1 			"/>
			<rect x="812.5" y="332.4" class="st1" width="4.7" height="4.7"/>
			<rect x="721.2" y="324.5" class="st1" width="6.5" height="4.1"/>
		</g>
		<rect x="730.9" y="334.6" class="st2" width="8.8" height="9.4"/>
		<rect x="791" y="341" class="st2" width="9.4" height="9.4"/>
		<rect x="796.9" y="336.9" class="st2" width="12.9" height="11.8"/>
		<rect x="798.6" y="328.1" class="st2" width="6.5" height="5.9"/>
		<rect x="788.6" y="318.1" class="st2" width="5.9" height="5.9"/>
		<rect x="748.7" y="326.9" class="st2" width="12.9" height="7.1"/>
		<rect x="743.4" y="339.3" class="st2" width="7.1" height="7.1"/>
		<rect x="790.4" y="361.6" class="st2" width="7.1" height="7.1"/>
		<rect x="779.2" y="366.3" class="st2" width="11.8" height="5.9"/>
		<rect x="734" y="318.7" class="st2" width="7.6" height="7.6"/>
		<rect x="819.8" y="360.4" class="st2" width="7.1" height="7.1"/>
		<rect x="823.3" y="344" class="st3" width="7.6" height="6.5"/>
		<rect x="744" y="359.2" class="st3" width="8.8" height="5.3"/>
		<rect x="749.4" y="365.9" class="st3" width="5.3" height="5.9"/>
		<rect x="821" y="349.3" class="st3" width="11.1" height="6.5"/>
		<rect x="797.7" y="377.5" class="st3" width="7.6" height="6.5"/>
		<rect x="794.4" y="371.9" class="st3" width="17.6" height="6.5"/>
		<rect x="765.7" y="305.8" class="st3" width="5.9" height="5.9"/>
		<rect x="726.7" y="311.6" class="st3" width="4.7" height="4.7"/>
		<rect x="747.5" y="313.4" class="st3" width="7.6" height="4.7"/>
	</g>
	<g>
		<g>
			<polygon class="st1" points="392,482.9 386.8,482.9 386.8,487.6 377.8,487.6 377.8,496.5 373.1,496.5 373.1,504.4 377.8,504.4 
				377.8,509.7 369.4,509.7 369.4,513.9 367.3,513.9 367.3,519.2 374.7,519.2 374.7,515.5 379.4,515.5 379.4,509.7 382,509.7 
				382,504.4 384.7,504.4 384.7,497.6 395.2,497.6 395.2,487.6 392,487.6 			"/>
			<polygon class="st1" points="417.9,498 405.5,498 405.5,504.5 400.2,504.5 400.2,509.8 406.1,509.8 406.1,507.4 416.7,507.4 
				416.7,512.7 404.9,512.7 404.9,520.3 420.8,520.3 420.8,513.3 422.6,513.3 422.6,506.8 417.9,506.8 			"/>
		</g>
		<g>
			<polygon class="st1" points="408.4,490.9 402.6,490.9 402.6,496.2 392.6,496.2 392.6,506.2 387.3,506.2 387.3,515 392.6,515 
				392.6,520.9 383.2,520.9 383.2,525.6 380.8,525.6 380.8,531.5 389,531.5 389,527.4 394.3,527.4 394.3,520.9 397.3,520.9 
				397.3,515 400.2,515 400.2,507.4 412,507.4 412,496.2 408.4,496.2 			"/>
			<polygon class="st1" points="431.4,510.3 419,510.3 419,516.8 413.7,516.8 413.7,522.1 419.6,522.1 419.6,519.7 430.2,519.7 
				430.2,525 418.4,525 418.4,532.7 434.3,532.7 434.3,525.6 436.1,525.6 436.1,519.2 431.4,519.2 			"/>
			<rect x="340.4" y="488.5" class="st1" width="6.5" height="4.1"/>
		</g>
		<rect x="338" y="508" class="st2" width="11.6" height="10.5"/>
		<rect x="346.7" y="502.1" class="st2" width="8.8" height="9.4"/>
		<rect x="410.2" y="505.1" class="st2" width="9.4" height="9.4"/>
		<rect x="416.1" y="500.9" class="st2" width="12.9" height="11.8"/>
		<rect x="367.9" y="490.9" class="st2" width="12.9" height="7.1"/>
		<rect x="362.6" y="503.3" class="st2" width="7.1" height="7.1"/>
		<rect x="409.6" y="525.6" class="st2" width="7.1" height="7.1"/>
		<rect x="398.5" y="530.3" class="st2" width="11.8" height="5.9"/>
		<rect x="353.2" y="482.7" class="st2" width="7.6" height="7.6"/>
		<rect x="439" y="524.4" class="st2" width="7.1" height="7.1"/>
		<rect x="436.7" y="511.6" class="st2" width="5.6" height="5.6"/>
		<rect x="363.2" y="523.3" class="st3" width="8.8" height="5.3"/>
		<rect x="326.8" y="503.3" class="st3" width="5.3" height="5.9"/>
		<rect x="345.9" y="475.6" class="st3" width="4.7" height="4.7"/>
		<rect x="366.7" y="477.4" class="st3" width="7.6" height="4.7"/>
	</g>
	<path d="M408.6,471.2c0,0,17.8,13.8,38.2,19.4l-1.5-6.7c0,0-10.5-3.1-27.2-13.5L408.6,471.2z"/>
</g>
</svg>
