<?xml version="1.0" encoding="utf-8"?>
<!-- Generator: Adobe Illustrator 27.7.0, SVG Export Plug-In . SVG Version: 6.00 Build 0)  -->
<svg version="1.1" id="레이어_1" xmlns="http://www.w3.org/2000/svg" xmlns:xlink="http://www.w3.org/1999/xlink" x="0px"
	 y="0px" viewBox="0 0 1080 1013.3" style="enable-background:new 0 0 1080 1013.3;" xml:space="preserve">
<style type="text/css">
	.st0{fill:#FEF0E8;}
</style>
<path class="st0" d="M347.4,462.3l-36,49.8c0,0,76.3,39.2,102.2,35.6s39.7-12,39.7-12l-9.9-49.7L421,475.6
	C421,475.6,393.8,482.8,347.4,462.3z"/>
<path d="M420.9,476.1l-11.8,1.2c-14.6,1.3-31.9,2.5-60.7-11.3l-32.5,45c14.4,7.2,75.5,36.8,97.3,33.8c19.7-2.7,32.3-8.3,36.7-10.6
	l-10.1-49.3l6.2,2.5l10.6,49.8l-1.8,1.1c-0.6,0.4-14.6,8.7-40.8,12.4c-1.2,0.2-2.5,0.2-4,0.2c-29.2,0-97-34.6-100-36.1l-3.1-1.6
	l39.4-54.6l2.2,1.1c28.5,14.1,48.1,12.6,62.3,11.4L420.9,476.1z"/>
<path class="st0" d="M705.5,319.5l43.8,62.6c0,0,11.3-12.8,26.6-7.4c15.4,5.5,20.7,26.6,20.7,26.6l50.7-38.9
	c0,0-29.6-54.7-78.8-60.6C733.8,297.6,705.5,319.5,705.5,319.5z"/>
<path d="M794.9,406.3l-1.1-4.4c0-0.2-5.1-19.7-18.8-24.5c-13.2-4.7-23,6.1-23.4,6.6l-2.5,2.8l-2.1-3l-45.5-64.9l2.2-1.7
	c1.2-0.9,29.7-22.6,65.2-18.3c20.8,2.5,41.5,14.1,59.7,33.4c13.7,14.5,21.1,28.1,21.4,28.7l1.2,2.2L794.9,406.3z M768.3,370.3
	c2.7,0,5.6,0.4,8.7,1.5c12.5,4.4,18.7,17.6,21.2,24.5l45.3-34.8c-2.6-4.4-9.3-14.7-19.3-25.4c-12-12.7-31.5-28.5-56-31.5
	c-27.6-3.3-51.3,10.7-58.6,15.5l40.2,57.3C753.3,374.6,759.8,370.3,768.3,370.3z"/>
<path d="M408.6,471.2c0,0,17.8,13.8,38.2,19.4l-1.5-6.7c0,0-10.5-3.1-27.2-13.5L408.6,471.2z"/>
</svg>
