<?xml version="1.0" encoding="utf-8"?>
<!-- Generator: Adobe Illustrator 27.7.0, SVG Export Plug-In . SVG Version: 6.00 Build 0)  -->
<svg version="1.1" id="레이어_1" xmlns="http://www.w3.org/2000/svg" xmlns:xlink="http://www.w3.org/1999/xlink" x="0px"
	 y="0px" viewBox="0 0 800 800" style="enable-background:new 0 0 800 800;" xml:space="preserve">
<style type="text/css">
	.st0{fill:#554235;}
	.st1{fill:#1B191A;}
	.st2{fill:#32412A;}
	.st3{fill:#6A5755;}
</style>
<g>
	<circle class="st0" cx="400" cy="400" r="244.4"/>
	<g>
		<g>
			<polygon class="st1" points="416,325.7 397.9,325.7 397.9,342.1 367,342.1 367,372.9 350.7,372.9 350.7,400.2 367,400.2 
				367,418.3 338,418.3 338,432.9 330.7,432.9 330.7,451 356.1,451 356.1,438.3 372.5,438.3 372.5,418.3 381.5,418.3 381.5,400.2 
				390.6,400.2 390.6,376.6 426.9,376.6 426.9,342.1 416,342.1 			"/>
			<polygon class="st1" points="505.2,378 462.6,378 462.6,400.3 444.3,400.3 444.3,418.6 464.6,418.6 464.6,410.4 501.2,410.4 
				501.2,428.7 460.6,428.7 460.6,455.1 515.4,455.1 515.4,430.7 521.5,430.7 521.5,408.4 505.2,408.4 			"/>
		</g>
		<g>
			<polygon class="st1" points="472.7,353.6 452.5,353.6 452.5,371.9 418,371.9 418,406.4 399.7,406.4 399.7,436.8 418,436.8 
				418,457.1 385.5,457.1 385.5,473.4 377.4,473.4 377.4,493.7 405.8,493.7 405.8,479.4 424,479.4 424,457.1 434.2,457.1 
				434.2,436.8 444.3,436.8 444.3,410.4 484.9,410.4 484.9,371.9 472.7,371.9 			"/>
			<polygon class="st1" points="551.9,420.6 509.3,420.6 509.3,442.9 491,442.9 491,461.2 511.3,461.2 511.3,453.1 547.8,453.1 
				547.8,471.3 507.2,471.3 507.2,497.7 562,497.7 562,473.4 568.1,473.4 568.1,451 551.9,451 			"/>
			<rect x="237.9" y="345.3" class="st1" width="22.3" height="14.2"/>
		</g>
		<rect x="229.7" y="412.5" class="st2" width="40.1" height="36.2"/>
		<rect x="259.7" y="392.2" class="st2" width="30.4" height="32.5"/>
		<rect x="478.8" y="402.3" class="st2" width="32.5" height="32.5"/>
		<rect x="499.1" y="388.1" class="st2" width="44.6" height="40.6"/>
		<rect x="332.7" y="353.6" class="st2" width="44.6" height="24.4"/>
		<rect x="314.5" y="396.2" class="st2" width="24.4" height="24.4"/>
		<rect x="476.8" y="473.4" class="st2" width="24.4" height="24.4"/>
		<rect x="438.2" y="489.6" class="st2" width="40.6" height="20.3"/>
		<rect x="282" y="325.2" class="st2" width="26.4" height="26.4"/>
		<rect x="578.3" y="469.3" class="st2" width="24.4" height="24.4"/>
		<rect x="570.4" y="424.8" class="st2" width="19.3" height="19.3"/>
		<rect x="316.5" y="465.2" class="st3" width="30.4" height="18.3"/>
		<rect x="190.7" y="396.4" class="st3" width="18.3" height="20.3"/>
		<rect x="256.8" y="300.7" class="st3" width="16.2" height="16.2"/>
		<rect x="328.7" y="306.9" class="st3" width="26.4" height="16.2"/>
	</g>
</g>
</svg>
