<?xml version="1.0" encoding="utf-8"?>
<!-- Generator: Adobe Illustrator 27.7.0, SVG Export Plug-In . SVG Version: 6.00 Build 0)  -->
<svg version="1.1" id="레이어_1" xmlns="http://www.w3.org/2000/svg" xmlns:xlink="http://www.w3.org/1999/xlink" x="0px"
	 y="0px" viewBox="0 0 1080 1013.3" style="enable-background:new 0 0 1080 1013.3;" xml:space="preserve">
<style type="text/css">
	.st0{fill:#303030;}
</style>
<g>
	<path class="st0" d="M450.9,602.2c0,0-43.9-15.4-75.3,3c-40,23.4-20.9,67.5-1.8,96c22,32.8,32,43.3,32,43.3l73.5-32.6
		c0,0-13.6-21.9-4.1-19c9.5,3,53.8,15.4,85.6,23.1s75,11.9,75,11.9L637,767l78.8,33.2c0,0,75.1-107.2,49.8-164.7
		c-3.3-7.4-58.4-22.5-149-33.2c-29.5-3.5-52.6-5-66.7-5.3c-18.7-0.5-35.4-0.5-54.1,0.8L450.9,602.2z"/>
	<path d="M716.7,803.2l-82.2-34.6l-1.2-38.5c-9.2-1-45.7-5-73.2-11.7c-31.3-7.6-76-20.1-85.7-23.2c0,0-0.1,0-0.1,0
		c0.3,2.6,3.3,9.2,7.1,15.3l1.5,2.4l-77.7,34.5l-1.2-1.3c-0.4-0.4-10.4-11-32.3-43.6c-12.5-18.7-26.3-45.9-20.9-69.6
		c2.9-12.5,10.8-22.5,23.5-30c30.5-17.8,71.4-5.2,76.8-3.3l44.3-4.5c16.8-1.1,33-1.3,54.4-0.8c8.3,0.2,31.6,1.2,66.9,5.4
		c52.7,6.2,87.6,13.1,107.6,17.9c26.7,6.3,41.3,12,43.5,16.8c10.8,24.6,5.6,60.2-15.4,106c-15.5,33.8-34.4,60.9-34.6,61.2
		L716.7,803.2z M639.5,765.3l75.5,31.8c9.3-13.7,71.2-108.9,48.4-160.6c-0.9-1.8-10.5-7-40.5-14c-19.8-4.7-54.4-11.5-106.6-17.7
		c-35.1-4.1-58.2-5.1-66.4-5.3c-21.2-0.6-37.3-0.3-53.8,0.8l-45.4,4.6l-0.5-0.2c-0.4-0.2-43.1-14.8-73.2,2.8
		c-11.5,6.7-18.6,15.7-21.2,26.8c-5,21.9,8.2,47.8,20.2,65.7c17.4,26,27.4,38,30.6,41.6l69.2-30.7c-4.3-7.3-8.1-15.6-5.5-19
		c0.7-0.9,2.3-2.2,5.7-1.2c9.7,3,54.2,15.5,85.4,23.1c31.2,7.6,74.2,11.8,74.7,11.8l2.2,0.2L639.5,765.3z"/>
</g>
</svg>
