<?xml version="1.0" encoding="utf-8"?>
<!-- Generator: Adobe Illustrator 27.7.0, SVG Export Plug-In . SVG Version: 6.00 Build 0)  -->
<svg version="1.1" id="레이어_1" xmlns="http://www.w3.org/2000/svg" xmlns:xlink="http://www.w3.org/1999/xlink" x="0px"
	 y="0px" viewBox="0 0 1080 1013.3" style="enable-background:new 0 0 1080 1013.3;" xml:space="preserve">
<style type="text/css">
	.st0{fill:#262626;}
	.st1{fill:#FFFFFF;}
</style>
<g>
	<g>
		<path class="st0" d="M764.4,639.6c-5.9,40.3-26.1,131.6-26.1,131.6L629.9,745l-1.5-16c0,0-97.2-23.6-133.6-31.4
			c-24.9-5.3-33.2-5.9-33.2-5.9c-59.3,19-90.1,27.9-90.1,27.9c-80-147,83.2-119.7,83.2-119.7s10.4,2.3,17.6-8.3L764.4,639.6z"/>
		<path d="M740.2,774.1L627.6,747l-1.5-16c-13.2-3.2-98.5-23.8-131.8-31c-21.2-4.5-30.3-5.6-32.4-5.8
			c-58.3,18.7-89.4,27.6-89.7,27.7l-1.9,0.6l-1-1.8c-24.2-44.5-28.8-78-13.5-99.4c25.5-35.8,96.3-24.4,99.3-23.9l0.1,0
			c0.3,0.1,8.9,1.7,14.9-7.3l0.9-1.3l1.6,0.3l294.6,48.4l-0.4,2.4c-5.9,39.9-25.9,130.8-26.1,131.7L740.2,774.1z M632.2,743
			l104.2,25.1c3.2-14.6,19.5-89.5,25.1-126.5l-288.2-47.3c-7.6,10.1-18,8.3-19.1,8.1c-2.1-0.3-70.9-11-94.4,21.9
			c-13.8,19.4-9.5,50.5,12.9,92.3c7.6-2.2,37.7-11.2,88.1-27.3l0.5-0.1l0.5,0c0.3,0,8.8,0.7,33.5,6c36.1,7.7,132.7,31.2,133.7,31.4
			l1.7,0.4L632.2,743z"/>
	</g>
	<g>
		<polyline class="st1" points="756.1,641 733.4,769.6 725.4,767.9 747.1,639.7 738.3,639 716.8,765.8 707.7,763.9 728.1,636 		"/>
		<polygon points="735.5,772.6 722.6,769.9 744.2,642 740.4,641.6 718.8,768.8 704.8,765.8 725.6,635.6 730.6,636.4 710.5,761.9 
			714.7,762.8 736.3,636.3 750,637.4 728.3,766 731.4,766.6 753.6,640.6 758.6,641.5 		"/>
	</g>
	<g>
		<polygon points="468.7,596.9 762.6,645.5 763.4,639.1 472.3,591.6 		"/>
		<path d="M764.8,648.4l-300.3-49.7l6.6-9.9L766.1,637L764.8,648.4z M472.9,595.1l287.5,47.5l0.2-1.4l-287.2-46.9L472.9,595.1z"/>
	</g>
</g>
</svg>
