<?xml version="1.0" encoding="utf-8"?>
<!-- Generator: Adobe Illustrator 27.7.0, SVG Export Plug-In . SVG Version: 6.00 Build 0)  -->
<svg version="1.1" id="레이어_1" xmlns="http://www.w3.org/2000/svg" xmlns:xlink="http://www.w3.org/1999/xlink" x="0px"
	 y="0px" viewBox="0 0 1080 1013.3" style="enable-background:new 0 0 1080 1013.3;" xml:space="preserve">
<style type="text/css">
	.st0{fill:#DDC0AF;}
</style>
<g>
	<path class="st0" d="M763.3,639.4l0-0.3l-291.1-47.6c-7.1,10.7-17.6,8.3-17.6,8.3s-163.2-27.3-83.2,119.7c0,0,30.8-8.9,90.1-27.9
		c0,0,8.3,0.6,33.2,5.9c36.5,7.8,133.6,31.4,133.6,31.4l1.5,16l108.4,26.1c0,0,20.1-91.3,26.1-131.6L763.3,639.4z"/>
	<path d="M740.2,774.1L627.6,747l-1.5-16c-13.2-3.2-98.5-23.8-131.8-31c-21.2-4.5-30.3-5.6-32.4-5.8c-58.3,18.7-89.4,27.6-89.7,27.7
		l-1.9,0.6l-1-1.8c-24.2-44.5-28.8-78-13.5-99.4c25.5-35.8,96.3-24.4,99.3-23.9l0.1,0c0.3,0.1,8.9,1.7,14.9-7.3l0.9-1.3l1.6,0.3
		L766.1,637l0,0.3l1.1,0.2l-0.4,2.4c-5.9,39.9-25.9,130.8-26.1,131.7L740.2,774.1z M632.2,743l104.2,25.1
		c3.2-14.6,19.5-89.5,25.1-126.5l-1-0.2l0-0.3l-287.2-46.9c-7.6,10.1-18,8.3-19.1,8.1c-2.1-0.3-70.9-11-94.4,21.9
		c-13.8,19.4-9.5,50.5,12.9,92.3c7.6-2.2,37.7-11.2,88.1-27.3l0.5-0.1l0.5,0c0.3,0,8.8,0.7,33.5,6c36.1,7.7,132.7,31.2,133.7,31.4
		l1.7,0.4L632.2,743z"/>
</g>
</svg>
