<?xml version="1.0" encoding="utf-8"?>
<!-- Generator: Adobe Illustrator 27.7.0, SVG Export Plug-In . SVG Version: 6.00 Build 0)  -->
<svg version="1.1" id="레이어_1" xmlns="http://www.w3.org/2000/svg" xmlns:xlink="http://www.w3.org/1999/xlink" x="0px"
	 y="0px" viewBox="0 0 1080 1013.3" style="enable-background:new 0 0 1080 1013.3;" xml:space="preserve">
<style type="text/css">
	.st0{fill:#FF8B22;}
	.st1{fill:#F4EEDF;}
	.st2{fill:#FF991F;}
	.st3{fill:#363536;}
</style>
<g id="_x32__00000000901555497058367150000000045365512660973455_">
	<path class="st0" d="M360.6,236.7c0,0-5.8-134,169.1-123C699,124.3,680.4,255.9,680.4,255.9S467,220.2,360.6,236.7z"/>
	<path d="M682.9,259.4l-3-0.5c-2.1-0.4-214.1-35.4-318.8-19.2l-3.3,0.5l-0.1-3.3c-0.1-2.1-1.7-50.8,35.8-87.6
		c30-29.4,75.9-42.3,136.5-38.5c58,3.6,100.6,21.7,126.7,53.6c33.6,41.2,27.1,89.9,26.8,92L682.9,259.4z M429.2,229.4
		c100.4,0,226.9,19.6,248.5,23c0.8-11.2,1.4-51-25.9-84.4c-25-30.6-66.1-47.9-122.3-51.4c-58.8-3.7-103.2,8.7-131.8,36.8
		c-30.2,29.5-33.7,68.3-34,79.8C382.8,230.5,405.3,229.4,429.2,229.4z"/>
	<path class="st0" d="M362.2,234.2c0,0-32.9,33.5-5.8,41.2c27.2,7.6,81.7-16,163.2-9.7c81.4,6.3,144.7,26.6,160,30.8
		c22.8,6.2,14.9-23.8,0-41.5c0,0-41.2-33.8-165.1-39.1C401.6,211,362.2,234.2,362.2,234.2z"/>
	<path d="M685.1,300.3c-1.8,0-3.9-0.3-6.3-0.9c-1.6-0.4-3.7-1-6.3-1.8c-22-6.4-80.5-23.3-153.2-28.9c-45.2-3.5-81.5,2.2-110.6,6.8
		c-22.6,3.6-40.5,6.4-53.1,2.8c-6.8-1.9-11-5.6-12.4-10.8c-3.7-13.9,14.8-33.2,16.9-35.3l0.3-0.3l0.3-0.2c1.6-1,41.5-23.6,154-18.7
		c123.5,5.3,165.2,38.4,166.9,39.8l0.2,0.2l0.2,0.2c11,13.1,18.8,33.2,12.9,42.4C693.3,297.9,690.4,300.3,685.1,300.3z M491.2,261.6
		c9.1,0,18.7,0.3,28.6,1.1c73.3,5.7,132.2,22.7,154.4,29.1c2.5,0.7,4.6,1.3,6.2,1.8c4.8,1.3,8,0.9,9.4-1.3c3.8-6-2.2-22.9-12.3-35.1
		c-3.2-2.4-46.2-33.3-163.1-38.3c-105.1-4.6-146.3,15.6-150.3,17.7c-5.3,5.5-17.4,20.5-15.1,29.3c0.8,3.1,3.5,5.3,8.2,6.6
		c11.4,3.2,28.7,0.5,50.6-3C430.9,265.9,458.3,261.6,491.2,261.6z"/>
	<g>
		<path class="st1" d="M495.8,178.9c0,0-10.5-10.9-16.5-11.8c0,0-1,1.1,0.3,3.6s0.8,2.9-1.5,1.4s-8-6-8.2-12s9.2-4.9,9.2-4.9
			s-0.4-2.9,4.3-4.4c4.7-1.5,27.5-4.8,48.1-4.7c20.6,0.1,31.1-4.1,37-11.9c0,0,1.3-0.3,0.6,3s-3.9,18.9-15.3,24.8
			c0,0-1.7,0.6-2.1,2.1s-2.4,7.1-4.1,8.6c0,0,0.7,17.4-13.8,23.6c-14.4,6.2-42.8,0.7-42.8,0.7s-1.1-0.4,0-3.1
			C492.2,191.1,495,182.9,495.8,178.9z"/>
		<path class="st2" d="M561.7,142.9c-2,1.4-6,3.9-10.8,4.6c-6.8,1-18.9,0.5-32.7,1.2c-13.7,0.7-32.1,3.3-35,4.5s-4.2,3.7-4.2,3.7
			s-6.4-0.7-7.1,3.6c-0.5,2.8,1.1,5,2.2,6.2c0.3,0.3,0.8,0,0.7-0.4c-0.2-1.3-0.2-3,1.8-3.1c3.1-0.1,17.3,5.5,22.9,12.1l-4.1,14.5
			c-0.2,0.6,0.3,1.3,0.9,1.3c3.1,0.3,11.5,1,21,1c11.4,0,20.4-0.6,23-10.9c0.1-0.5-0.4-1-0.9-0.7c-1.6,0.9-4.6,2.2-8.9,2.4
			c-6.7,0.4-13-0.2-13-0.2l2.1-7.4c0,0,15.6,1.2,22.1-5.5c3.3-3.4,4.2-5.6,4.6-6.9c0.2-0.7-0.5-1.3-1.2-0.9c-2,1.2-6.4,3.5-12.1,3.6
			c-7.7,0.2-10.6-0.2-10.6-0.2s1.3-5.8,5.1-6.4c3.7-0.6,29.7,2,35-15.6C562.7,143,562.1,142.6,561.7,142.9z M526.5,155.8l-10.8,3.1
			c0,0-5.5,4.7-6.2,5.5s-4.8,9.1-4.8,9.1s-9.2-6.2-16.1-8.7s-12.6-4.6-12.6-4.6s3.8-0.7,6.1-4.1c2.3-3.4,29.9-3.9,32-3.9
			c2.1,0,12.3,0.4,13.6,0.4S526.5,155.8,526.5,155.8z"/>
		<path class="st3" d="M560.9,144.3c0,0-7.6,5.7-22.9,4.9c-15.2-0.8-45.7,2.6-53.1,4.6c0,0-2.8,0.2-5.3,4.1c0,0-5.1-0.6-7,1.4
			s0.9,5.6,0.9,5.6s0-2.8,2.2-2.9c2.2-0.2,7.8,0.8,16.9,6.1s8.4,7.4,8.4,7.4l-4,14.2c0,0,6.2,1.1,23.5,1c17.3-0.2,18.1-8.4,18.1-8.4
			s-10.8,3.8-23.8,1.6l3-10.5c0,0,22.9,2.4,25.6-8.9c0,0-10.5,4.5-23.7,2.6c0,0,1.5-7,5.5-9.2s16.6,0.8,27-4.4
			C562.5,148.3,560.9,144.3,560.9,144.3z M508.5,158.5c-3.7,1.9-5.6,11.6-5.6,11.6c-13.8-7.5-21.6-7.7-22.9-8.9
			c-1.4-1.2,0.9-2.4,1.7-2.8c0.8-0.4,3.1,0.4,4.6,0.7s2,0.3,3.5-0.4c1.6-0.7,0.3-1.1,0.3-1.1c-3.8,0.8-7.4-0.2-7.4-0.2
			s-1.6-3,15.2-2.7c16.7,0.3,23.6,1,23.6,1S512.2,156.6,508.5,158.5z"/>
	</g>
</g>
</svg>
