<?xml version="1.0" encoding="utf-8"?>
<!-- Generator: Adobe Illustrator 27.7.0, SVG Export Plug-In . SVG Version: 6.00 Build 0)  -->
<svg version="1.1" id="레이어_1" xmlns="http://www.w3.org/2000/svg" xmlns:xlink="http://www.w3.org/1999/xlink" x="0px"
	 y="0px" viewBox="0 0 1080 1013.3" style="enable-background:new 0 0 1080 1013.3;" xml:space="preserve">
<style type="text/css">
	.st0{fill:#F24922;}
	.st1{fill:#0054CE;}
	.st2{fill:#F37321;}
	.st3{fill:#FFECDE;}
</style>
<g id="_x33__00000122714103082829568520000016565663044272894640_">
	<path class="st0" d="M506.9,112.4c0,0-2.8-13.8,15-12.1c17.7,1.7,12.2,16.7,12.2,16.7L506.9,112.4z"/>
	<path class="st1" d="M358.8,237.3c0,0-5.9-135.8,171.4-124.7C701.9,123.3,683,256.7,683,256.7S466.7,220.5,358.8,237.3z"/>
	<path d="M685.6,260.3l-3-0.5c-2.1-0.4-217.1-35.9-323.2-19.5l-3.3,0.5l-0.1-3.3c-0.1-2.1-1.7-51.5,36.3-88.8
		c30.4-29.8,76.9-42.9,138.4-39c58.8,3.6,102,22,128.4,54.3c34.1,41.8,27.5,91.1,27.2,93.3L685.6,260.3z M428.4,229.9
		c101.8,0,230,19.9,251.9,23.3c0.8-11.4,1.4-51.7-26.3-85.6c-25.3-31-67-48.6-124-52.1c-59.6-3.8-104.6,8.8-133.6,37.3
		c-30.6,29.9-34.2,69.2-34.5,80.9C381.3,231,404.1,229.9,428.4,229.9z"/>
	<path class="st1" d="M360.4,234.7c0,0-33.4,34-5.9,41.8c27.6,7.7,82.8-16.2,165.4-9.8c82.5,6.4,146.7,27,162.2,31.2
		c23.1,6.3,15.1-24.1,0-42.1c0,0-41.8-34.3-167.4-39.6C400.4,211.2,360.4,234.7,360.4,234.7z"/>
	<path class="st0" d="M696.6,293.1c-7.9-0.1-23-4.1-42-9.3c-23.9-6.4-53.7-14.5-83.9-18.7c-64.3-9.1-113.8-8.5-165.4,1.8
		c-24.2,4.9-54.1,9.9-58.9,6.6c-0.8-0.6-1.1-1.3-1.1-1.7l4.4-0.7c-0.1-0.8-0.6-1.2-0.8-1.3c0.6,0.3,7.3,2.5,55.6-7.2
		c52.1-10.5,102-11,166.8-1.9c30.4,4.3,60.4,12.3,84.4,18.8c18.7,5,33.5,9,40.9,9.1L696.6,293.1z"/>
	<path d="M687.8,301.8c-1.8,0-4-0.3-6.4-0.9c-1.6-0.4-3.8-1-6.4-1.8c-22.3-6.5-81.6-23.6-155.3-29.3c-45.8-3.5-82.6,2.2-112.1,6.9
		c-22.9,3.6-41.1,6.5-53.8,2.8c-6.9-1.9-11.2-5.7-12.6-10.9c-3.8-14.1,15-33.7,17.1-35.8l0.3-0.3l0.3-0.2c1.6-1,42.1-23.9,156.1-19
		c125.2,5.4,167.5,38.9,169.2,40.3l0.2,0.2l0.2,0.2c11.2,13.3,19.1,33.7,13.1,43C696.1,299.3,693.2,301.8,687.8,301.8z M491.2,262.5
		c9.2,0,19,0.3,29,1.1c74.3,5.8,134,23,156.5,29.5c2.5,0.7,4.7,1.3,6.3,1.8c4.9,1.3,8.1,0.9,9.5-1.3c3.9-6.1-2.2-23.2-12.5-35.6
		c-3.2-2.4-46.8-33.8-165.3-38.8c-106.5-4.7-148.3,15.8-152.4,17.9c-5.4,5.6-17.6,20.8-15.3,29.7c0.8,3.1,3.5,5.4,8.3,6.7
		c11.6,3.2,29.1,0.5,51.3-3C430.1,266.9,457.9,262.5,491.2,262.5z"/>
	<g>
		<path class="st2" d="M496.8,163.4l-9.1,5.6c0,0-4.6-12.8,8.5-20.9c13.1-8.1,23.5-7.3,32.5-6.7c9,0.6,11.7,1.9,13.7,3.4
			c2,1.5,2.5,4,2.5,4l-7.9,3.9c0,0-2.7-5.4-4.1-5.9c-1.4-0.4-6.9-0.8-6.9-0.8l-6.5,17.3l16.6,1.5c0,0,1,0.1-0.4,1.4
			c-1.5,1.3-4.7,2.8-5.4,2.7c-0.7,0-13.2-0.3-13.2-0.3s-4.5,13.6-11.7,17.6c0.3,0,3.1,0.2,14.2,1c11.1,0.8,12.5-0.1,13-2.5
			s0.2-3.5,0.2-3.5l9.2-2.5c0,0-1.2,7.6-8.2,11.9c-6.9,4.4-8.2,2.5-12.7,2.6c-4.5,0-30.3,0.6-35.2,1.6l2.8-5.7
			c0,0,10.8-0.3,15.7-19.7l-3.1,0.1c0,0-1.4-0.1,0.8-2s4.9-4.9,4.9-4.9s5.3-15.3,5.4-17c0,0-10,1-15.1,7.6
			C493.3,158.3,496.8,163.4,496.8,163.4z"/>
		<path class="st3" d="M520.7,141c2.8,0,5.4,0.2,7.9,0.4c9,0.6,11.7,1.9,13.7,3.4c2,1.5,2.5,4,2.5,4l-7.9,3.9c0,0-2.7-5.4-4.1-5.9
			c-1.4-0.4-6.9-0.8-6.9-0.8l-6.5,17.3l16.6,1.5c0,0,1,0.1-0.4,1.4c-1.5,1.3-4.6,2.7-5.4,2.7c0,0,0,0,0,0c-0.7,0-13.2-0.3-13.2-0.3
			s-4.5,13.6-11.7,17.6c0.3,0,3.1,0.2,14.2,1c2.6,0.2,4.7,0.3,6.3,0.3c5.4,0,6.3-1,6.7-2.8c0.5-2.4,0.2-3.5,0.2-3.5l9.2-2.5
			c0,0-1.2,7.6-8.2,11.9c-3.8,2.4-5.9,2.9-7.7,2.9c-1.5,0-2.9-0.4-4.9-0.4c0,0-0.1,0-0.1,0c-4.5,0-30.3,0.6-35.2,1.6l2.8-5.7
			c0,0,10.8-0.3,15.7-19.7l-3.1,0.1c0,0-1.4-0.1,0.8-2c2.2-1.9,4.9-4.9,4.9-4.9s5.3-15.3,5.4-17c0,0-10,1-15.1,7.6
			c-3.8,4.9-0.4,10.1-0.4,10.1l-9.1,5.6c0,0-4.6-12.8,8.5-20.9C505.6,142.3,513.6,141,520.7,141 M520.7,138.6
			c-6.4,0-15.2,0.8-25.8,7.4c-7.6,4.7-9.8,10.9-10.3,15.3c-0.5,4.7,0.8,8.4,0.8,8.5l1,2.8l2.6-1.6l9.1-5.6l2.2-1.3l-1.4-2.1
			c-0.2-0.4-2.3-3.8,0.3-7.2c2.6-3.4,6.8-5.1,9.8-5.9c-1,3.2-2.6,8-4.1,12.5c-0.8,0.8-2.7,2.9-4.3,4.3c-0.7,0.6-2.7,2.3-2,4.4
			c0.4,1.1,1.4,1.9,2.6,1.9l0,0c-2.2,7-5.3,10.6-7.5,12.4c-2.6,2.1-4.7,2.3-4.9,2.3l-1.5,0l-0.6,1.4l-2.8,5.7l-2.3,4.5l5-1
			c4.4-0.9,28.8-1.6,34.7-1.6l0.1,0c0.9,0,1.7,0.1,2.5,0.2c0.8,0.1,1.5,0.2,2.4,0.2c2.7,0,5.3-1,9-3.3c7.8-4.9,9.2-13.2,9.3-13.6
			l0.6-3.7l-3.7,1l-9.2,2.5l-2.6,0.7l0.8,2.2c0,0.2,0.1,1-0.3,2.4c-0.1,0.2-0.1,0.3-0.1,0.4c-0.1,0.1-0.9,0.5-4.2,0.5
			c-1.6,0-3.6-0.1-6.1-0.3l-8.3-0.6c3.7-4.4,6.2-10.2,7.3-13.1c4.7,0.1,10.8,0.2,11.3,0.2c0.1,0,0.1,0,0.2,0c1.7,0,5.5-2,7-3.3
			c1.4-1.2,1.9-2.5,1.5-3.8c-0.3-1.1-1.3-1.8-2.5-1.9l-13.4-1.2l4.7-12.5c1.8,0.2,3.5,0.4,4.2,0.5c0.6,0.6,1.9,2.7,2.9,4.7l1.1,2.2
			l2.2-1.1l7.9-3.9l1.7-0.8l-0.4-1.9c-0.1-0.3-0.8-3.4-3.4-5.4c-2.6-2-5.8-3.3-15-3.9C526.2,138.7,523.5,138.6,520.7,138.6
			L520.7,138.6z"/>
	</g>
</g>
</svg>
