<?xml version="1.0" encoding="utf-8"?>
<!-- Generator: Adobe Illustrator 27.7.0, SVG Export Plug-In . SVG Version: 6.00 Build 0)  -->
<svg version="1.1" id="레이어_1" xmlns="http://www.w3.org/2000/svg" xmlns:xlink="http://www.w3.org/1999/xlink" x="0px"
	 y="0px" viewBox="0 0 1080 1013.3" style="enable-background:new 0 0 1080 1013.3;" xml:space="preserve">
<style type="text/css">
	.st0{fill:#FFCACF;}
	.st1{fill:#FCEBED;}
	.st2{fill:#110809;}
	.st3{fill:#EFEFEF;}
	.st4{fill:#08080A;}
	.st5{fill:#FFE02C;}
</style>
<g id="_x34__00000135657874613666805300000015245919091367443124_">
	<g>
		<path class="st0" d="M446.3,232c0,0,15.3-20.2,66.8-18.8s70.5,24.5,70.5,24.5l-6.5,7c0,0-27.6-15.7-63.9-16.7
			c-36.3-1-66.2,14.9-66.2,14.9L446.3,232z"/>
		<path d="M577.6,247.7l-1.7-1c-0.3-0.2-27.5-15.4-62.8-16.4c-35.2-0.9-64.7,14.5-65,14.6l-3.4,1.8l-1-15.5l0.5-0.7
			c0.7-0.9,16.6-21.2,68.8-19.8c52,1.4,71.5,24.4,72.3,25.4l1.4,1.7L577.6,247.7z M509.9,225.4c1.1,0,2.2,0,3.3,0
			c31.8,0.9,56.7,12.7,63.3,16.1l3.6-3.9c-2.1-2-6.7-5.9-14-9.7c-9.9-5.2-27.3-11.6-53.2-12.3c-44.5-1.2-61.1,13.9-64.2,17.2
			l0.4,6.2C457.8,235,481.5,225.4,509.9,225.4z"/>
	</g>
	<g>
		<path class="st0" d="M401,166.3c-2.8,4-7.8,6-12.6,5c-10.5-2-29.2-3.1-42.3,10.8c-19.2,20.3-13.6,90.5,66.8,78
			c80.5-12.6,74.4-80.5,55.1-100.6C450,140.8,423.5,134.7,401,166.3z"/>
		<path d="M394.8,264.1c-33.7,0-48.2-17-54.1-28.2c-10.7-20.4-6.4-44.7,3.7-55.4c14.1-14.9,34-13.6,44.6-11.6
			c3.9,0.8,7.8-0.8,10.1-4l0,0c10.3-14.5,22-22.3,34.8-23.2c12.3-0.9,25,4.8,35.9,16.2c10.5,10.9,17.4,34.9,9.7,58
			c-3.9,11.5-10.9,21.3-21,29c-11.5,8.9-26.7,14.8-45.2,17.7C406.6,263.6,400.4,264.1,394.8,264.1z M376.5,172.6
			c-9.2,0-20.2,2.3-28.6,11.2c-9,9.5-12.4,31.8-2.9,49.8c6.3,12,23.4,31,67.6,24.1c41.5-6.5,56.8-27.2,62.2-43.5
			c6.9-20.4,1.1-43-8.6-53c-9.9-10.3-21.2-15.5-32-14.7c-11.3,0.8-21.8,7.9-31.2,21.2c-3.4,4.8-9.3,7.1-15,6
			C384.9,173.2,380.9,172.6,376.5,172.6z"/>
	</g>
	<g>
		<path class="st1" d="M383.9,216.6c0,0-3.1,0-3.4,2.8s0.8,5.7,6.5,6.4c0.2-0.4-2.1-2.9,0.1-4c2.2-1.1,11.2-0.7,11.2-0.7
			s0.9,9.3,2.2,9.7c1.3,0.4,17.7-6.6,20.6-10.2s0.6-7.8,0.6-7.8s-11.1,5.9-12.7,3.7c-1.6-2.1,10.1-4.5,12-7.3
			c1.9-2.8,0.4-5.9-1.4-5.5c-1.8,0.3-9.3,5.5-11.1,4.3c-1.8-1.2,13.2-7.5,15.9-10.8s2.6-10,2.6-10s-5.8,4.8-15.3,9.2
			S387.6,207.9,383.9,216.6z"/>
		<path class="st2" d="M400.4,231.8c-0.1,0-0.2,0-0.3,0c-0.5-0.1-1.9-0.5-2.8-9.7c-3.4-0.1-8.5,0-9.9,0.6c-0.2,0.1-0.3,0.2-0.4,0.3
			c-0.1,0.4,0.3,1.2,0.5,1.6c0.3,0.6,0.6,1.1,0.2,1.7l-0.3,0.5l-0.6-0.1c-2.8-0.4-4.9-1.3-6.1-2.7c-1-1.2-1.4-2.8-1.2-4.7
			c0.3-2.5,2.3-3.4,3.7-3.6c4.1-8.4,17.1-15.2,28.1-20.2c9.3-4.2,15-9,15.1-9l1.6-1.3l0,2.1c0,0.3,0.1,7.1-2.8,10.6
			c-1.4,1.7-5.5,4-9.4,6.1c-1.6,0.9-3.6,2-4.9,2.8c1.6-0.6,3.7-1.8,4.8-2.4c1.9-1,3-1.6,3.7-1.7c1-0.2,2.1,0.3,2.7,1.3
			c0.9,1.3,1.1,3.6-0.3,5.8c-1,1.6-4,2.7-7.1,4c-1.6,0.7-4,1.6-4.7,2.2c1.3,0.3,6.4-1.5,11.3-4.1l0.8-0.4l0.5,0.8
			c0.1,0.2,2.6,4.8-0.7,8.9C418.9,224.9,403.3,231.8,400.4,231.8z M394.7,220.1c1.7,0,3.2,0.1,3.5,0.1l0.9,0l0.1,0.8
			c0.4,3.5,1.1,7.7,1.6,8.8c2.5-0.5,16.9-6.6,19.5-9.8c1.8-2.2,1.3-4.5,0.9-5.8c-4.5,2.3-11.3,5.2-13,3c-0.3-0.4-0.4-0.9-0.3-1.4
			c0.4-1.4,2.4-2.3,6.1-3.7c2.5-1,5.5-2.2,6.2-3.3c0.9-1.4,0.8-2.8,0.3-3.6c-0.1-0.2-0.4-0.5-0.7-0.4c-0.5,0.1-1.9,0.9-3.2,1.5
			c-4.2,2.3-7.1,3.7-8.7,2.7c-0.4-0.3-0.6-0.7-0.6-1.1c0.1-1.3,1.9-2.4,7.5-5.5c3.4-1.9,7.6-4.2,8.8-5.7c1.6-1.9,2.1-5.2,2.3-7.3
			c-2.4,1.7-7.2,5-13.8,8c-6.4,2.9-23.4,10.6-27.3,19.7l-0.3,0.6l-0.6,0c-0.2,0-2.2,0.1-2.4,2c-0.2,1.3,0.1,2.4,0.8,3.2
			c0.7,0.8,1.7,1.4,3.2,1.7c-0.2-0.6-0.4-1.4-0.1-2.1c0.2-0.6,0.7-1.1,1.4-1.5C388.1,220.2,391.9,220.1,394.7,220.1z"/>
	</g>
	<g>
		<path class="st3" d="M638.9,146.8c0,0,6-1.1,18.4-6.6s14.3-5.4,16.1,1.2c1.8,6.6,4.4,7.4,1.1,13.8c-3.3,6.4-3.2,9.1,0.1,9.1
			c3.2,0.1,10.5,9.9,8.5,16.3c-2,6.3-5.8,9.3-5.8,9.3s6.4,41.4-11.5,62.5c-18,21.1-50.5,25.7-78.9,6.6
			c-28.5-19.1-49.7-48.5-25.4-82.3S624.7,149,638.9,146.8z"/>
		<path d="M624.2,273.6c-13.3,0-26.6-4.3-38.8-12.5c-14.5-9.7-32.6-25.7-36.4-46.8c-2.4-13,1.1-26.1,10.3-38.9
			c20.5-28.6,51.1-29.7,69.5-30.3c3.9-0.1,7.3-0.3,9.8-0.6c0.4-0.1,6.3-1.3,17.8-6.4c8-3.6,12.2-5.1,15.4-3.6
			c2.5,1.2,3.4,3.9,4.1,6.4c0.5,1.7,1,3,1.4,4.1c1.5,3.6,2.2,6.1-0.6,11.4c-1.8,3.4-2.1,4.9-2.1,5.6c0,0,0.1,0,0.1,0
			c3,0,5.8,3.3,7.2,5.3c2.7,3.8,5.1,9.5,3.6,14.2c-1.5,4.9-4.1,8-5.6,9.5c1,7.4,4.6,43.4-12.3,63.2c-9.3,10.9-22.5,17.8-37.2,19.2
			C628.3,273.5,626.2,273.6,624.2,273.6z M668.9,138.7c-2.2,0-7.6,2.4-10.6,3.8c-12.5,5.6-18.7,6.7-19,6.8l-0.1,0
			c-2.8,0.4-6.3,0.5-10.4,0.7c-17.4,0.6-46.5,1.7-65.6,28.3c-8.4,11.7-11.6,23.6-9.5,35.2c3.5,19.4,20.6,34.4,34.3,43.6
			c26,17.4,57.8,14.8,75.7-6.2c17-20,11.1-60.2,11-60.6l-0.2-1.4l1.2-0.9c0,0,3.3-2.6,5-8.1c0.6-1.9,0-4.9-1.7-8
			c-1.7-3-3.8-4.9-4.5-5.1c-2.4-0.1-3.6-1.2-4.2-2.2c-1.3-2.2-0.7-5.3,2.1-10.6c1.9-3.6,1.5-4.5,0.4-7.3c-0.5-1.2-1.1-2.7-1.6-4.7
			c-0.5-2-1-3.1-1.5-3.3C669.4,138.7,669.2,138.7,668.9,138.7z M674.4,166.8L674.4,166.8L674.4,166.8z"/>
	</g>
	<path class="st4" d="M579,200.9c-0.2-1.1,0.1-2.3,0.8-3.2c1.5-2,5.5-6.1,9.9-2.5c5.6,4.6-1.9,12.2-7,9.8
		C580.1,203.7,579.2,202.1,579,200.9z"/>
	<path class="st4" d="M640.2,226.4c-0.4-1-0.4-2.2,0.1-3.3c1.1-2.2,4.1-7.1,9.1-4.6c6.4,3.3,0.8,12.4-4.7,11.1
		C641.9,228.9,640.7,227.6,640.2,226.4z"/>
	<g>
		<path class="st5" d="M602.3,213.2c0,0-1.6,8.4,7.4,12.6c9,4.1,15.6-6.8,15.6-6.8S606.6,207.8,602.3,213.2z"/>
		<path class="st2" d="M613.8,227.7c-1.4,0-2.9-0.3-4.5-1c-9.6-4.4-8-13.5-8-13.6l0-0.2l0.1-0.2c4.6-5.9,22.3,4.3,24.3,5.5l0.8,0.5
			l-0.5,0.8C626.1,219.5,621.2,227.7,613.8,227.7z M603.3,213.6c-0.2,1.4-0.5,7.8,6.9,11.2c6.8,3.1,12.1-3.2,13.8-5.6
			C617,215.3,606.1,210.7,603.3,213.6z"/>
	</g>
	<g>
		<path class="st5" d="M610.7,220.2C610.7,220.2,610.7,220.2,610.7,220.2c0.4,0.6,1.1,0.8,1.7,0.6c0.8-0.3,1.9-0.6,3.1-0.1
			c2.2,0.9,6,3.5,10.3-0.6c4.3-4.1-4.2-12.5-10.8-13.9s-13.2,1.3-13.4,6.4c-0.1,3.6,3.4,4.9,5.4,5.3
			C608.5,218.1,609.9,219,610.7,220.2z"/>
		<path class="st2" d="M620.8,223.3c-2,0-3.7-0.8-4.9-1.4c-0.3-0.1-0.6-0.3-0.8-0.4c-0.7-0.3-1.5-0.3-2.3,0.1
			c-1,0.5-2.3,0.1-2.9-0.9l0.8-0.6l-0.8,0.5c-0.7-1-1.8-1.7-3-2c-4.1-0.8-6.3-3.1-6.2-6.3c0.1-2.1,1.1-3.9,2.9-5.3
			c2.9-2.2,7.4-3,11.7-2c5.2,1.1,11.3,6.3,12.5,10.6c0.5,2,0.1,3.7-1.2,5C624.5,222.7,622.6,223.3,620.8,223.3z M614.1,219.4
			c0.6,0,1.2,0.1,1.7,0.3c0.3,0.1,0.6,0.2,0.9,0.4c2.3,1.1,5.1,2.4,8.4-0.8c0.8-0.8,1.1-1.8,0.7-3.1c-1-3.7-6.5-8.2-11-9.2
			c-3.8-0.8-7.7-0.2-10.1,1.7c-0.9,0.7-2,2-2.1,3.8c-0.1,2.8,2.5,3.8,4.6,4.3c1.8,0.3,3.3,1.4,4.3,2.8l0,0c0.1,0.2,0.3,0.3,0.5,0.2
			C612.7,219.6,613.4,219.4,614.1,219.4z"/>
	</g>
</g>
</svg>
