<?xml version="1.0" encoding="utf-8"?>
<!-- Generator: Adobe Illustrator 27.7.0, SVG Export Plug-In . SVG Version: 6.00 Build 0)  -->
<svg version="1.1" id="레이어_1" xmlns="http://www.w3.org/2000/svg" xmlns:xlink="http://www.w3.org/1999/xlink" x="0px"
	 y="0px" viewBox="0 0 1080 1013.3" style="enable-background:new 0 0 1080 1013.3;" xml:space="preserve">
<style type="text/css">
	.st0{fill:#F24922;}
	.st1{fill:#04060A;}
	.st2{fill:#090815;}
</style>
<g id="_x35__00000062901181287699190560000014599130630904291513_">
	<g>
		<path class="st0" d="M506.7,115.3c0,0-1-13.2,12.3-13.7c16.2-0.6,16.2,14.7,13.2,17.7C529.3,122.1,508.6,126.5,506.7,115.3z"/>
		<path class="st1" d="M518.9,124.8c-2.4,0-4.7-0.3-6.7-0.9c-4.3-1.4-7-4.2-7.7-8.2l0-0.2c0-0.3-0.5-6.9,3.8-11.6
			c2.5-2.8,6.1-4.3,10.6-4.5c10.3-0.4,14.3,5.2,15.8,8.5c2.2,5,1.3,10.7-0.9,12.9C531.7,122.8,525.2,124.8,518.9,124.8z M508.9,115
			c0.4,2.3,2,3.8,4.6,4.6c6.2,2,15.8-0.7,17.1-2c0.7-0.7,1.5-4.5,0-8.1c-1.8-4-5.8-6.1-11.6-5.8c-3.3,0.1-5.8,1.1-7.5,3
			C508.8,109.8,508.9,114.3,508.9,115z"/>
	</g>
	<g>
		<path class="st2" d="M356.8,237.2c0,0-1.5-130,163.4-124.6S685.7,235.6,681,257L356.8,237.2z"/>
		<path class="st1" d="M682.7,259.3l-328.1-20l0-2.1c0-0.5-0.1-12.7,4.5-29.5c4.2-15.5,13.3-38.1,33-57.3
			c29-28.4,72.2-41.9,128.2-40c34.5,1.1,64.3,7.3,88.6,18.3c20.6,9.4,37.4,22.3,50,38.5c28.1,36.2,27,78.4,24.3,90.3L682.7,259.3z
			 M359,235.1l320.1,19.5c2.2-13.4,1.9-51.6-23.9-84.8c-26.8-34.5-72.3-53-135.2-55.1c-54.8-1.8-96.8,11.2-124.9,38.7
			c-18.9,18.5-27.7,40.2-31.8,55.2C360,221.1,359.2,231,359,235.1z"/>
	</g>
	<g>
		<path class="st0" d="M510.5,217.6c0,0-106.3-8.6-153.7,19.6c0,0-21.8,24.3-10.5,36.1c11.3,11.8,42.2,5.4,82.4-1.5
			c40.2-6.9,71.5-7.3,139.4,2.1c84.4,11.6,121.7,36.2,127.5,22.4C704,276.7,681,257,681,257S628.9,222.7,510.5,217.6z"/>
		<path class="st1" d="M687.6,302.6c-1.3,0-2.6-0.1-3.8-0.3c-6.4-0.8-14.8-3.2-26.6-6.6c-21-6-49.7-14.2-89.5-19.7
			c-71-9.8-101.3-8.5-138.7-2.1c-2.8,0.5-5.6,1-8.4,1.4c-37.6,6.5-64.7,11.2-76-0.6c-12.6-13.1,9.6-38,10.5-39.1l0.2-0.2l0.3-0.2
			c20-11.9,52.1-18.8,95.6-20.7c31.6-1.3,58.1,0.7,59.3,0.8c61.4,2.6,104.7,13.3,130.2,21.7c27.8,9.2,40.8,17.7,41.4,18l0.2,0.2
			c1,0.8,24.2,21.1,15.2,41.9C695.8,301.6,691.6,302.6,687.6,302.6z M485.1,264.5c22.9,0,48.5,2.4,83.3,7.2
			c40.1,5.5,69,13.8,90.2,19.8c11.1,3.2,19.9,5.7,25.9,6.4c6.8,0.8,8.4-0.8,9.2-2.5c7.4-17.2-12.3-35.2-13.9-36.7
			c-1.4-0.9-14.5-9-40.4-17.5c-25.2-8.3-68-18.8-128.8-21.4l-0.1,0c-0.3,0-26.9-2.1-58.9-0.8c-41.9,1.8-74.1,8.6-93.2,19.9
			c-5.8,6.6-18.4,24.5-10.4,32.8c9.7,10.1,37.2,5.3,72.1-0.7c2.7-0.5,5.5-1,8.4-1.4C448,266.2,465.5,264.5,485.1,264.5z"/>
	</g>
	<path class="st0" d="M542.8,153.4c-0.7-4.4-1-10.9-3.1-11.2c-2.1-0.4-27.7,0.4-43,5.4c-12.8,4.2-14.6,15.7-11.3,21.1
		c0.5,0.9,1.3,1.7,2.3,2.1c0.7,0.3,1.4,0.4,1.5-0.3c0,0-1.6-7.4,5.4-14.7c3.8-4,11-5.8,18.4-6.6c-3.2,5.6-14.6,25.8-20.1,33.4
		c-6.5,8.9-11.2,7.3-13.1,9.9s-2.5,6-0.4,6.3s1.7-1.8,14.6-1.8s29.6-2,33.4-7.8c3.8-5.8,7.7-11.5,6.3-11.7c-1.4-0.2-2.2,0.3-8.3,7.1
		c-5.8,6.4-25.5,5.9-32,5.7c-0.2,0-0.3-0.3-0.1-0.4c3-1.2,12.3-5.9,18.6-18.3c0,0,7.2-0.2,10-0.4s3.5,0.6,4.4-0.7
		c0.9-1.3,3.7-5.1,1.6-5.4c-2.1-0.4-3.9,2.2-13.1,1.3c0,0,7.9-13.3,12.5-18c0.9,0,1.8,0,2.7-0.1c0,0,5.1-0.5,7.3,3.4
		c2.2,3.9,0.8,8,3.7,7.8C543.9,159.3,543.5,157.8,542.8,153.4z"/>
</g>
</svg>
