<?xml version="1.0" encoding="utf-8"?>
<!-- Generator: Adobe Illustrator 27.7.0, SVG Export Plug-In . SVG Version: 6.00 Build 0)  -->
<svg version="1.1" id="레이어_1" xmlns="http://www.w3.org/2000/svg" xmlns:xlink="http://www.w3.org/1999/xlink" x="0px"
	 y="0px" viewBox="0 0 1080 1013.3" style="enable-background:new 0 0 1080 1013.3;" xml:space="preserve">
<style type="text/css">
	.st0{fill:#EACA96;}
	.st1{fill:#04060A;}
	.st2{fill:#EFEFEF;}
	.st3{fill:#08080A;}
	.st4{fill:#FFE02C;}
	.st5{fill:#FFB3C2;}
	.st6{fill:#F4D6A0;}
	.st7{fill:#ED6326;}
	.st8{fill:#0F090E;}
</style>
<g id="_x36_">
	<g>
		<g>
			<path class="st0" d="M441.9,232c0,0,15.3-20.2,66.8-18.8c51.5,1.4,70.5,24.5,70.5,24.5l-6.5,7c0,0-27.6-15.7-63.9-16.7
				s-66.2,14.9-66.2,14.9L441.9,232z"/>
			<path class="st1" d="M573.1,247.4l-1.5-0.9c-0.3-0.2-27.6-15.5-62.9-16.4c-35.2-1-64.8,14.5-65.1,14.7l-3,1.6l-1-15l0.5-0.7
				c0.7-0.9,16.5-21.1,68.6-19.7c27,0.7,45.1,7.5,55.5,13c11.4,6.1,16.4,12,16.6,12.3l1.2,1.5L573.1,247.4z M505.5,225.6
				c1.1,0,2.2,0,3.3,0c32,0.9,57,12.8,63.4,16.2l3.9-4.2c-2.1-2-6.7-5.9-14.2-9.9c-10-5.3-27.3-11.7-53.3-12.4
				c-25.9-0.7-42.2,4.2-51.3,8.5c-7.8,3.7-11.8,7.5-13.1,8.9l0.4,6.6C452.8,235.5,476.7,225.6,505.5,225.6z"/>
		</g>
		<g>
			<g>
				<path class="st2" d="M634.5,146.8c0,0,6-1.1,18.4-6.6s14.3-5.4,16.1,1.2c1.8,6.6,4.4,7.4,1.1,13.8c-3.3,6.4-3.2,9.1,0.1,9.1
					c3.2,0.1,10.5,9.9,8.5,16.3c-2,6.3-5.8,9.3-5.8,9.3s6.4,41.4-11.5,62.5s-50.5,25.7-78.9,6.6s-49.7-48.5-25.4-82.3
					S620.2,149,634.5,146.8z"/>
				<path class="st1" d="M619.7,273.3c-13.2,0-26.5-4.2-38.7-12.4c-14.5-9.7-32.5-25.7-36.3-46.6c-2.3-12.9,1.1-26,10.3-38.8
					c20.4-28.5,51-29.6,69.3-30.2c3.9-0.1,7.3-0.3,9.8-0.6c0.4-0.1,6.3-1.3,17.9-6.5c8.3-3.7,12.2-5,15.2-3.6c2.4,1.1,3.3,3.8,4,6.3
					c0.5,1.7,1,3,1.5,4.2c1.5,3.6,2.2,5.9-0.6,11.2c-2,3.9-2.2,5.4-2.2,5.9c0.1,0,0.2,0,0.3,0c3,0,5.9,3.6,7,5.2
					c2.7,3.7,5.1,9.4,3.6,14c-1.6,4.9-4.2,8-5.6,9.5c0.9,7.1,4.7,43.3-12.2,63.1c-9.3,10.9-22.4,17.7-37,19.2
					C623.8,273.2,621.8,273.3,619.7,273.3z M664.5,138.4c-2.3,0-7.5,2.3-10.7,3.8c-12.5,5.6-18.7,6.7-18.9,6.8l-0.1,0
					c-2.7,0.4-6.3,0.5-10.4,0.7c-17.5,0.6-46.7,1.7-65.8,28.4c-8.4,11.8-11.6,23.7-9.5,35.4c3.5,19.5,20.6,34.5,34.4,43.8
					c26.1,17.5,58.1,14.9,76-6.2c17.1-20.1,11.1-60.4,11-60.8l-0.2-1.3l1-0.8c0,0,3.3-2.7,5.1-8.2c0.7-2.1-0.1-5.3-2-8.6
					c-1.8-3.1-3.8-4.7-4.5-4.8c-2.3-0.1-3.5-1.1-4-2c-1.2-2.1-0.6-5.2,2.1-10.3c1.9-3.7,1.5-4.7,0.4-7.5c-0.5-1.2-1.1-2.7-1.6-4.7
					c-0.4-1.3-0.9-3.1-1.6-3.4C665.1,138.5,664.8,138.4,664.5,138.4z M670.1,166.6C670.1,166.6,670.1,166.6,670.1,166.6
					C670.1,166.6,670.1,166.6,670.1,166.6z"/>
			</g>
			<path class="st3" d="M575,200.9c-0.2-1.1,0.1-2.3,0.8-3.2c1.5-2,5.5-6.1,9.9-2.5c5.6,4.6-1.9,12.2-7,9.8
				C576.2,203.7,575.3,202.1,575,200.9z"/>
			<path class="st3" d="M635.8,226.4c-0.4-1-0.4-2.2,0.1-3.3c1.1-2.2,4.1-7.1,9.1-4.6c6.4,3.3,0.8,12.4-4.7,11.1
				C637.5,228.9,636.3,227.6,635.8,226.4z"/>
			<g>
				<path class="st4" d="M597.9,213.2c0,0-1.6,8.4,7.4,12.6c9,4.1,15.6-6.8,15.6-6.8S602.1,207.8,597.9,213.2z"/>
				<path class="st1" d="M609.4,228.9c-1.6,0-3.2-0.3-4.9-1.1c-8.4-3.8-9.4-11.5-8.7-15l0.1-0.5l0.3-0.4c2.5-3.2,7.6-3.1,15.6,0.1
					c5.3,2.1,10,4.9,10.2,5l1.9,1.1l-1.1,1.9C620.7,223.5,615.7,228.9,609.4,228.9z M600,214.2c-0.1,1.8,0.2,6.8,6.2,9.5
					c5.1,2.3,9.4-1.6,11.4-4.1C610.5,215.7,602.3,212.8,600,214.2z"/>
			</g>
			<g>
				<path class="st4" d="M606.3,220.2C606.3,220.2,606.3,220.2,606.3,220.2c0.4,0.6,1.1,0.8,1.7,0.6c0.8-0.3,1.9-0.6,3.1-0.1
					c2.2,0.9,6,3.5,10.3-0.6c4.3-4.1-4.2-12.5-10.8-13.9c-6.6-1.4-13.2,1.3-13.4,6.4c-0.1,3.6,3.4,4.9,5.4,5.3
					C604.1,218.1,605.4,219,606.3,220.2z"/>
				<path class="st1" d="M616.4,224.5c-2.3,0-4.2-0.9-5.5-1.5c-0.3-0.1-0.5-0.2-0.8-0.3c-0.1-0.1-0.6-0.2-1.3,0.1
					c-1.6,0.7-3.5,0.1-4.4-1.3l0,0c-0.5-0.7-1.3-1.3-2.3-1.4c-4.6-0.9-7.3-3.7-7.2-7.5c0.1-2.4,1.3-4.6,3.4-6.2
					c3.1-2.4,8-3.3,12.8-2.2c5.7,1.3,12.1,6.7,13.4,11.5c0.7,2.4,0.1,4.6-1.6,6.2C620.6,223.8,618.4,224.5,616.4,224.5z
					 M609.7,218.2c0.8,0,1.5,0.1,2.2,0.4c0.3,0.1,0.6,0.3,0.9,0.4c2.6,1.2,4.5,1.8,7-0.5c0.3-0.3,0.6-0.8,0.4-1.8
					c-0.9-3.2-6-7.4-10.1-8.3c-3.4-0.8-7-0.2-9.1,1.4c-1,0.8-1.6,1.8-1.6,2.9c-0.1,1.5,1.2,2.5,3.6,3c1.9,0.4,3.6,1.4,4.7,2.8
					C608.4,218.3,609,218.2,609.7,218.2z M608.1,219L608.1,219C608.1,219,608.1,219,608.1,219z"/>
			</g>
		</g>
	</g>
	<ellipse transform="matrix(0.5 -0.866 0.866 0.5 104.4995 596.5244)" class="st5" cx="568.9" cy="207.8" rx="5.4" ry="7.9"/>
	
		<ellipse transform="matrix(0.2606 -0.9655 0.9655 0.2606 245.8303 797.3383)" class="st5" cx="643.4" cy="238.2" rx="5.4" ry="7.9"/>
	<g>
		<g>
			<path class="st6" d="M351.9,219.7c0,0-4.8-6.6-9-1.3s-1.6,25,16.4,21.9c18-3.1,115.1-45,115.1-45s7.3-5.7,2.2-20.3
				s-15.2-6.1-18.3,0.7c-3.1,6.8-67.6,22.2-71.3,24.3C383.3,202.1,351.9,219.7,351.9,219.7z"/>
			<path class="st1" d="M355.7,242.9c-8,0-12.1-4.6-13.9-7.6c-3.8-6.3-3.3-14.7-0.6-18.2c1.9-2.5,4-3,5.4-2.9c2.4,0,4.5,1.5,5.7,2.8
				c6.4-3.6,30.4-17,33.6-18.8c1.2-0.7,5.3-1.8,16.5-4.9c10.3-2.8,23-6.4,33.9-9.9c17.1-5.5,19.6-7.9,20-8.5
				c1.9-4.1,6.9-10.3,12.9-10c2.9,0.1,6.9,1.9,9.5,9.5c5.5,15.9-2.6,22.5-2.9,22.7l-0.2,0.2l-0.3,0.1c-4,1.7-97.6,42.1-115.6,45.2
				C358.3,242.8,356.9,242.9,355.7,242.9z M346.5,218.6c-0.3,0-0.9,0-1.8,1.2c-1.6,2-2,8.4,0.9,13.2c1.9,3.1,5.7,6.5,13.4,5.2
				c17-2.9,108.1-42.1,114.3-44.7c1-0.9,5.4-6,1.3-17.7c-1-2.9-2.8-6.4-5.5-6.5c-3.1-0.1-7,3.7-8.7,7.4c-1,2.1-4.3,4.8-22.2,10.6
				c-11,3.6-24.1,7.2-34.6,10.1c-7.1,2-14.5,4-15.6,4.6c-3.7,2-34.8,19.5-35.1,19.7l-1.7,1l-1.2-1.6
				C349.6,220.2,347.9,218.6,346.5,218.6C346.6,218.6,346.6,218.6,346.5,218.6z"/>
		</g>
		<g>
			<path class="st6" d="M353.3,205.1c0,0-4.8,6.2-3.7,14.9c1.1,8.7,4.2,52.3,49,39.4c44.8-12.9,82.8-28.9,77.6-63.5
				c-5.2-34.6-47.8-36.3-47.8-36.3S368.1,176.8,353.3,205.1z"/>
			<path class="st1" d="M383.4,263.9c-7,0-13.1-1.7-18.2-5.1c-14.5-9.6-16.9-29.8-17.7-37.4c-0.1-0.5-0.1-0.9-0.1-1.2
				c-1.1-8.7,3.2-15.2,4.1-16.3c15.2-28.7,73.8-45.8,76.3-46.5l0.3-0.1l0.4,0c0.5,0,11.2,0.5,22.7,5.4c15.5,6.5,24.9,17.9,27.2,32.8
				c2.5,16.8-4.3,30.6-21,42c-15.8,10.9-38.3,18.2-58.2,23.9C393.5,263.1,388.3,263.9,383.4,263.9z M355,206.5
				c-0.1,0.1-4.3,5.7-3.3,13.2c0,0.4,0.1,0.8,0.2,1.3c0.8,7,3,25.7,15.8,34.2c7.5,5,17.7,5.7,30.3,2.1c49-14.1,80.7-29.9,76-61
				c-2-13.5-10.3-23.4-24.5-29.4c-9.7-4.1-19-4.9-20.9-5c-4.9,1.5-59.7,18.3-73.3,44.3l-0.1,0.2L355,206.5z"/>
		</g>
		<g>
			<path class="st7" d="M456.2,168.6c-3.9-10.1-31-43.1-72.2-21.9s-30.7,58.3-30.7,58.3C418.6,184.8,456.2,168.6,456.2,168.6z"/>
			<path class="st1" d="M351.8,207.9l-0.6-2.2c-0.1-0.4-2.7-9.9-0.1-22.3c2.4-11.3,9.9-27.3,31.9-38.6c15.7-8.1,31-9.4,45.4-3.9
				c17.3,6.6,27.6,21,29.9,27l0.8,2l-1.9,0.8c-0.4,0.2-38.4,16.4-103.1,36.5L351.8,207.9z M410.6,142c-8.3,0-16.8,2.3-25.6,6.8
				c-16.4,8.4-26.3,20.4-29.6,35.4c-1.7,8-1,14.8-0.4,18.1c54.6-17.1,89.6-31.2,98.3-34.8c-3.2-6-12.4-17.1-26.4-22.5
				C421.5,143,416.1,142,410.6,142z"/>
		</g>
		<path class="st8" d="M391.4,158.7c0,0-3,2-2.6,4.3s-0.3,4-1.3,2.6s-2-3,0.1-5.6c2.1-2.7,9.5-6.8,11.9-7.1c0,0,2.5,0.5,1.1,2.3
			c-1.4,1.8-1.7-0.6-3.9,0.5c-2.3,1.1-2.2,1.9-2.1,2.7s0.3,2.4,1.1,2.3c0.8-0.1,2.9-2.8,3-2c0.1,0.8-4.2,4.5-4,6.1
			c0.2,1.6,1.1,2.3,2.5,0.5s2.1-2.7,3-2s-0.3,4-5.6,6.3c-5.3,2.3-4.4,3-6.1,2.4s2.8-3.7,3.3-5.2C392.2,165,392.2,158.6,391.4,158.7z
			"/>
		<path class="st8" d="M393,209.2c0,0-2.2-4.1,1.5-6.1c3.6-2,5.6,6.6,7,10.9c1.4,4.2-2.9,7.1-4.8,4.4
			C395.2,216.5,393,209.2,393,209.2z"/>
		<path class="st8" d="M413.7,201.2c0,0-2-4.3,1.8-6.2s5.5,7,6.8,11.4c1.2,4.4-3.3,7.1-5.1,4.3C415.8,208.6,413.7,201.2,413.7,201.2
			z"/>
		<path class="st5" d="M375.1,239.8c0,0-2.2-4.5,7.6-9.8c11.1-5.9,14.4-0.2,13.9,2.2c-0.5,2.5-4.6,6.2-12.5,8.8
			C376.4,243.7,375.1,239.8,375.1,239.8z"/>
		<path class="st5" d="M428.3,217.9c0,0-2.2-4.5,7.6-9.8c11.1-5.9,14.4-0.2,13.9,2.2c-0.5,2.5-4.6,6.2-12.5,8.8
			C429.6,221.7,428.3,217.9,428.3,217.9z"/>
		<g>
			<path class="st7" d="M353.3,205.1c0,0,8.4-12.3,44.8-25.7c36.4-13.4,51.6-17.8,57.2-12.1s1.4,11-4.9,13.4s-60.6,18.1-86.9,32.6
				C363.5,213.4,351.2,221.4,353.3,205.1z"/>
			<path class="st1" d="M357.7,217.6c-1.2,0-2.4-0.3-3.5-0.9c-2.9-1.8-3.9-5.7-3.1-11.8l0.1-0.5l0.3-0.4c0.4-0.5,9.2-13,45.8-26.5
				c39-14.4,53-18.1,59.6-11.6c3.4,3.4,3.6,6.5,3.1,8.6c-0.8,3.6-4,6.6-8.8,8.5c-1.3,0.5-4.4,1.5-9.2,3c-18.4,5.8-56.6,18-77.4,29.5
				C363.9,215.7,360.9,217.6,357.7,217.6z M355.4,206c-0.4,3.6,0,6.2,1.1,6.9c1.3,0.8,4.2-0.3,5.7-1.3l0.1-0.1
				c21.2-11.7,59.7-24,78.3-29.9c4.5-1.4,7.7-2.5,8.9-2.9c3.3-1.3,5.7-3.3,6.1-5.3c0.3-1.4-0.4-2.9-1.9-4.5
				c-4.8-4.8-21.5,0.3-54.9,12.6C367.1,193.2,357.2,203.8,355.4,206z"/>
		</g>
	</g>
</g>
</svg>
