<?xml version="1.0" encoding="utf-8"?>
<!-- Generator: Adobe Illustrator 27.7.0, SVG Export Plug-In . SVG Version: 6.00 Build 0)  -->
<svg version="1.1" id="레이어_1" xmlns="http://www.w3.org/2000/svg" xmlns:xlink="http://www.w3.org/1999/xlink" x="0px"
	 y="0px" viewBox="0 0 1080 1013.3" style="enable-background:new 0 0 1080 1013.3;" xml:space="preserve">
<style type="text/css">
	.st0{fill:#FF833E;}
	.st1{fill:#04060A;}
	.st2{fill:#C9EEF7;}
	.st3{fill:#3A1915;}
	.st4{opacity:0.66;}
	.st5{fill:#FFCC8F;}
</style>
<g id="_x38_">
	<g>
		<path class="st0" d="M343.9,236.8c0,0,253.8,0.9,338.5,24.1l-16.5-124.1c0,0-1.3-31.4-134.8-42.4c0,0-77.1-6.2-121.4,5.9
			c-14.6,4-25.4,13.4-29.2,25L343.9,236.8z"/>
		<path class="st1" d="M685.2,264l-3.4-0.9c-83.5-22.9-335.4-24-337.9-24l-3.2,0l37.7-114.6c4.1-12.4,15.6-22.3,30.8-26.5
			c44.2-12.1,119-6.3,122.2-6c55.7,4.6,95.5,13.2,118.4,25.6c17,9.2,18.4,17.4,18.5,18.9L685.2,264z M402.5,235.3
			c22.6,0.5,50,1.3,78.9,2.5c95.4,4,162,10.7,198.2,19.9l-16.1-120.9l0,0c-0.2-1.3-6.7-29.8-132.7-40.3c-0.8-0.1-77.2-6-120.6,5.9
			c-13.7,3.7-24,12.5-27.6,23.5L347,234.5C354.6,234.5,375.1,234.7,402.5,235.3z"/>
	</g>
	<g>
		<path class="st0" d="M348.8,218l-39.3,44c-1.9,2.2-0.1,5.2,3.4,5.6c42.8,4.7,256.6,27,405,23.9c3.7-0.1,5.8-3.2,3.7-5.5
			l-42.6-47.6L348.8,218z"/>
		<path class="st1" d="M647.5,293.6c-138.8-3-299.6-19.9-334.9-23.7c-2.8-0.3-5.1-1.9-5.9-4.1c-0.7-1.8-0.3-3.8,1-5.3l40.1-44.9
			l1.1,0.1L680,236.1l43.3,48.3c1.4,1.6,1.8,3.7,1,5.6c-1,2.2-3.5,3.7-6.4,3.8C695.7,294.3,671.9,294.2,647.5,293.6z M349.7,220.4
			l-38.6,43.2c-0.3,0.3-0.2,0.5-0.2,0.6c0.2,0.5,0.9,1,2.1,1.2c35.3,3.9,196,20.7,334.5,23.7c24.4,0.5,48,0.6,70.2,0.2
			c1.3,0,2-0.6,2.2-1c0-0.1,0.1-0.3-0.2-0.7l-42-46.9L349.7,220.4z"/>
	</g>
	<g>
		<path class="st2" d="M510.9,45c0,0,10.2-15.4,17.4-14.7s7.1,7.5,10.6,15.4s21,3.7,26.4,14.2S551,75.7,551.7,82.3
			c0.7,6.5,4.8,14.5-0.6,19.4c-5.3,4.9-18.4-4.7-26.3-6.3c-7.9-1.6-14.5,7.1-24.9,3.4c-10.4-3.7-3.1-11.9-2.9-21.9
			c0.2-10-15.2-14.9-11.9-23.6C489.7,40.7,506.9,50.3,510.9,45z"/>
		<path class="st1" d="M546.9,105.3c-4.1-0.1-8.9-2.3-13.6-4.4c-3.3-1.5-6.5-2.9-8.9-3.4c-2.8-0.6-5.6,0.5-8.8,1.8
			c-4.6,1.8-9.8,3.9-16.5,1.5c-9.1-3.3-7.4-10-5.9-15.9c0.7-2.6,1.4-5.4,1.4-8.2c0.1-3.8-2.9-6.9-6-10.2c-3.7-3.9-8-8.3-5.7-14.2
			c3.5-9.1,12.4-8.5,18.8-8.1c3,0.2,6.5,0.4,7.4-0.6c2-3,11.4-16.5,19.5-15.7c6.8,0.7,8.6,5.8,10.4,11.1c0.6,1.8,1.2,3.7,2.1,5.6
			c1.2,2.6,5.2,3.5,9.8,4.6c6.2,1.4,13.2,3,16.5,9.6c4.1,7.9-2.9,13.4-7.9,17.4c-2.5,2-5.6,4.4-5.4,5.8c0.2,1.6,0.5,3.2,1,5
			c1.3,5.5,2.7,11.8-2.3,16.3C551,104.8,549.1,105.4,546.9,105.3z M523.1,92.8c0.7,0,1.5,0.1,2.2,0.2c3,0.6,6.3,2.1,9.9,3.7
			c5.4,2.4,12,5.4,14.4,3.2c2.8-2.5,2.2-6.2,0.9-11.9c-0.4-1.8-0.8-3.7-1-5.6c-0.4-3.9,3.2-6.8,7.1-9.9c5.6-4.4,8.9-7.4,6.7-11.7
			c-2.4-4.7-8-5.9-13.5-7.2c-5.3-1.2-10.9-2.5-13-7.2c-1-2.1-1.6-4.2-2.3-6c-1.8-5.4-2.7-7.6-6.5-8c-4-0.4-11.3,7.8-15.2,13.7
			l-0.1,0.1c-2.4,3.1-6.7,2.8-11.4,2.5c-7.2-0.5-12.1-0.4-14.2,5.1c-1.1,3,1.1,5.5,4.8,9.4c3.5,3.6,7.4,7.7,7.3,13.5
			c-0.1,3.4-0.9,6.5-1.6,9.3c-1.7,6.5-2,8.6,3,10.4c5,1.8,9,0.2,13.2-1.4C516.8,93.9,519.8,92.8,523.1,92.8z"/>
	</g>
	<path class="st3" d="M551.9,145.5c-0.7-5.1-0.9-12.6-3.3-13.1c-2.4-0.5-32.5-0.3-50.5,5.1c-15.1,4.5-17.4,17.7-13.7,24.1
		c0.6,1.1,1.5,2,2.7,2.5c0.8,0.4,1.6,0.5,1.7-0.3c0,0-1.7-8.6,6.6-16.9c4.6-4.6,13-6.4,21.7-7.1c-3.8,6.4-17.6,29.4-24.3,38
		c-7.8,10.1-13.3,8.2-15.6,11c-2.2,2.9-3,6.9-0.6,7.3c2.4,0.5,2.1-2.1,17.1-1.6s34.7-1.5,39.3-8.1c4.6-6.5,9.3-13.1,7.6-13.4
		c-1.6-0.3-2.6,0.3-9.9,8c-6.9,7.2-30.1,6.1-37.6,5.7c-0.3,0-0.3-0.4-0.1-0.5c3.6-1.3,14.6-6.4,22.2-20.7c0,0,8.4,0,11.8-0.2
		c3.4-0.2,4,0.8,5.2-0.6c1.1-1.4,4.5-5.7,2.1-6.2c-2.4-0.5-4.7,2.4-15.3,1.2c0,0,9.5-15.2,15.1-20.4c1.1,0,2.1,0,3.1,0
		c0,0,6-0.5,8.4,4.1c2.5,4.6,0.7,9.2,4.1,9.1C553,152.3,552.5,150.6,551.9,145.5z"/>
	<g class="st4">
		<g>
			<path class="st5" d="M579.1,187.5c-2.1-0.5-3.6-2.3-4.2-5.2c-0.6-3.1,0-7,2-7.6c3-1,6,3.2,6.6,4.1c6,2.6,10.8,2.7,14.3,0.3
				c5.2-3.6,6.7-12.1,6.4-18.4c-0.4-9-8.9-16.5-9-16.5c-0.3-0.2-0.3-0.6-0.1-0.9c0.2-0.3,0.6-0.3,0.9-0.1c0.4,0.3,9,8,9.4,17.4
				c0.3,6.6-1.3,15.7-7,19.5c-4,2.7-9.3,2.6-15.8-0.3l-0.2-0.1l-0.1-0.2c-0.8-1.3-3.3-4.4-5.2-3.8c-1,0.4-1.8,3.3-1.2,6.2
				c0.3,1.4,1.3,4.5,4.5,4.3c0.4,0,0.7,0.2,0.7,0.6c0,0.4-0.2,0.7-0.6,0.7C580.2,187.6,579.6,187.6,579.1,187.5z"/>
			<path class="st5" d="M565.6,199.1c-1.5-0.4-2.9-1-3.8-1.9c-1.3-1.1-1.9-2.4-1.6-3.7c0.6-2.5,1.8-3.2,2.5-3.5l2.2-9.3
				c0-0.2,1.1-4.6,4.9-7.5c2.2-1.7,4.2-1.3,5.3-0.3c1.3,1,2,3.2,0.8,5.6c-2,4.2-6.6,4.2-6.8,4.2c-0.4,0-0.6-0.3-0.6-0.6
				c0-0.4,0.3-0.6,0.6-0.6l0,0c0.2,0,3.9,0,5.6-3.5c0.9-1.8,0.4-3.3-0.5-4.1c-1-0.8-2.4-0.7-3.7,0.3c-3.4,2.6-4.4,6.7-4.4,6.8
				l-2.4,10.2l-0.5,0l0,0c0,0-1.1,0.1-1.7,2.6c-0.2,1,0.6,2,1.2,2.4c1.7,1.5,5,2.4,7.4,1.4c0.2-0.1,0.3-0.2,0.4-0.5
				c0.6-1.5-0.9-5.1-1.6-6.4c-0.2-0.3,0-0.7,0.3-0.9c0.3-0.2,0.7,0,0.9,0.3c0.3,0.5,2.5,5.1,1.6,7.4c-0.2,0.6-0.6,1-1.1,1.2
				C569,199.4,567.2,199.4,565.6,199.1z"/>
			<path class="st5" d="M573.5,201.9c-1.5-0.4-2.6-2.1-2.8-4.7c-0.3-3,0.6-6.6,2.9-7.4c2.6-0.9,4.6,0.9,5.3,2
				c0.1,0.1,1.5,2.4,1.8,4.3c0.1,0.4-0.2,0.7-0.5,0.7c-0.4,0.1-0.7-0.2-0.7-0.5c-0.2-1.6-1.6-3.8-1.6-3.8c-0.1-0.1-1.4-2.3-3.8-1.5
				c-1.4,0.5-2.3,3.2-2,6.1c0.2,1.6,0.8,3.4,2,3.6c1.2,0.2,3.3-0.3,5.5-2.1c2.3-1.9,6.1-6.9,6.2-18c0-0.4,0.3-0.6,0.6-0.6
				c0.4,0,0.6,0.3,0.6,0.6c-0.1,11.1-3.7,16.4-6.6,19c-2.5,2.1-5,2.7-6.5,2.4C573.7,202,573.6,201.9,573.5,201.9z"/>
			<path class="st5" d="M573.1,163.9c-0.1,0-0.2-0.1-0.3-0.2c-0.1-0.1-2.8-3.3-0.9-8.4c0.7-1.8,1.6-2.9,2.9-3.3
				c1.8-0.6,3.5,0.3,3.6,0.4c0.3,0.2,0.4,0.6,0.2,0.9c-0.2,0.3-0.6,0.4-0.9,0.2c0,0-1.3-0.7-2.5-0.3c-0.9,0.3-1.6,1.2-2.1,2.6
				c-1.6,4.4,0.7,7.1,0.7,7.1c0.2,0.3,0.2,0.7-0.1,0.9C573.5,163.9,573.3,164,573.1,163.9z"/>
			<path class="st5" d="M571.8,173.5c-0.1,0-0.1,0-0.2-0.1c-0.1-0.1-7.7-5.3-6.2-14.2c1.4-8.8,11.9-14.8,12.3-15.1
				c0.3-0.2,0.7-0.1,0.9,0.2c0.2,0.3,0.1,0.7-0.2,0.9c-0.1,0.1-10.4,6-11.7,14.2c-1.3,8.1,5.6,12.9,5.7,13c0.3,0.2,0.4,0.6,0.2,0.9
				C572.3,173.4,572,173.5,571.8,173.5z"/>
			<path class="st5" d="M577,175.9C577,175.9,577,175.9,577,175.9c-0.4-0.1-0.6-0.4-0.5-0.8c0.1-0.2,5.7-22.3,7.3-29.1
				c1.1-4.8,1.2-7.4,0.4-8.5c-0.3-0.5-0.9-0.7-1.7-0.7c-2.6-0.1-3.1,5.7-3.1,5.8l-3.4,31.7c0,0.4-0.4,0.6-0.7,0.6
				c-0.4,0-0.6-0.4-0.6-0.7l3.4-31.6c0-0.3,0.6-7.1,4.5-6.9c1.2,0,2.1,0.4,2.7,1.2c1.1,1.5,1.1,4.3-0.2,9.6
				c-1.6,6.8-7.3,28.9-7.4,29.1C577.7,175.8,577.4,176,577,175.9z"/>
			<path class="st5" d="M592.5,138c-0.3-0.1-0.5-0.4-0.5-0.7c0,0,0.4-2.8-0.8-4.3c-0.4-0.5-1-0.8-1.7-0.8c-1.7-0.1-3.2,0.2-4.6,0.5
				c-1.8,0.4-3.4,0.7-4.7-0.1c-0.3-0.2-0.4-0.6-0.2-0.9c0.2-0.3,0.6-0.4,0.9-0.2c0.9,0.5,2.2,0.2,3.8-0.1c1.4-0.3,3.1-0.6,4.9-0.5
				c1.1,0.1,2,0.5,2.6,1.3c1.5,1.9,1.1,5.1,1,5.3C593.3,137.8,593,138.1,592.5,138C592.6,138,592.6,138,592.5,138z"/>
			<path class="st5" d="M575.4,126.7c0,0-3.2-1.2-3.9-0.8c-0.8,0.5,0.8,3.5,0.8,3.5s-3.4,3.2-2.5,3.7c0.9,0.5,4,1.3,4,1.3
				s1.1,2.2,2,2.8c0.9,0.5,2.3-4.1,2.3-4.1s3.3,0.1,3.6-1.1c0.3-1.2-2.8-3.6-2.8-3.6s0.9-2.9,0-3.5S575.4,126.7,575.4,126.7z"/>
			<path class="st5" d="M595.3,161.4c0,0-0.9-0.2-2.4,3.1c-1.4,3.3,0.8,3.8,2.2,0.5C596.5,161.7,595.6,161.5,595.3,161.4z"/>
			<path class="st5" d="M599.7,163.7c0,0-1.3,0-2.2,2.4c-0.9,2.4,0.6,3.1,1.9,0.4C600.6,164,599.7,163.7,599.7,163.7z"/>
			<path class="st5" d="M589.9,168.7c0,0,1.1-2-2-2.8s-3.8,0.8-3.1,1.9C585.6,169,589.6,170,589.9,168.7z"/>
			<path class="st5" d="M602,173.3c0,0,1-1.8-1.7-2.5s-3.3,0.7-2.7,1.8C598.3,173.6,601.7,174.4,602,173.3z"/>
			<path class="st5" d="M594.8,141.7c0,0,0.7-7.1-6.9-7.2s-11.5,3.7-12.2,11.7l2.8-1.6c0,0,0.2-5.4,2-7.4s4.2-0.4,4.5,0.4
				c0.3,0.9,0.8,2.9-0.6,8.9c0,0,0,0,0.3,0.1c0,0,12-0.5,13-2.2C598.9,142.6,594.8,141.7,594.8,141.7z M587.7,139.2
				c-0.1-0.9,0-1.5,0.2-2c0.5-1.1,2.1-0.8,2.3,0.4C590.4,139.5,587.9,141.6,587.7,139.2z"/>
		</g>
		<g>
			<path class="st5" d="M654.6,269.4c-0.9,1.4-2.6,2-4.8,1.7c-2.4-0.4-5-1.8-4.9-3.4c0-2.4,3.9-3.5,4.7-3.7c3.4-3.6,4.8-7,4-10.2
				c-1.2-4.7-6.9-8-11.5-9.4c-6.5-2-14.1,2.1-14.2,2.1c-0.2,0.1-0.5,0-0.7-0.2c-0.1-0.2,0-0.5,0.2-0.7c0.3-0.2,8-4.3,14.9-2.2
				c4.8,1.5,10.9,5,12.2,10.1c0.9,3.5-0.5,7.3-4.3,11.2l-0.1,0.1l-0.1,0c-1.1,0.2-4,1.2-4.1,2.8c0,0.8,1.9,2.1,4.1,2.5
				c1.1,0.2,3.6,0.3,4.2-2.1c0.1-0.3,0.3-0.4,0.6-0.3c0.3,0.1,0.4,0.3,0.3,0.6C654.9,268.7,654.8,269.1,654.6,269.4z"/>
			<path class="st5" d="M659.4,282.1c-0.6,1-1.5,1.8-2.3,2.3c-1.1,0.7-2.2,0.7-3.1,0.2c-1.6-1.1-1.9-2.1-1.8-2.7l-6.1-4
				c-0.1-0.1-3-2-4.1-5.4c-0.6-2,0.2-3.3,1.2-3.9c1.1-0.6,2.8-0.6,4.2,0.9c2.4,2.5,1.3,5.8,1.2,5.9c-0.1,0.3-0.4,0.4-0.6,0.3
				c-0.3-0.1-0.4-0.4-0.3-0.6l0,0c0-0.1,1-2.8-1-4.9c-1.1-1.1-2.3-1.1-3-0.7c-0.8,0.5-1.1,1.5-0.7,2.8c1,3.1,3.7,4.9,3.7,4.9
				l6.7,4.4l-0.1,0.4l0,0c0,0-0.2,0.8,1.4,1.9c0.7,0.4,1.6,0.1,2-0.2c1.5-0.9,3-3,2.9-5c0-0.2-0.1-0.3-0.2-0.4
				c-0.9-0.8-3.9-0.7-5-0.5c-0.3,0-0.5-0.2-0.5-0.4c0-0.3,0.2-0.5,0.4-0.5c0.4-0.1,4.3-0.5,5.7,0.8c0.4,0.3,0.6,0.7,0.6,1.1
				C660.5,279.8,660,281,659.4,282.1z"/>
			<path class="st5" d="M663.4,277.2c-0.7,1-2.2,1.3-4.1,0.8c-2.2-0.6-4.6-2.2-4.5-4c0-2.1,1.9-3.1,2.8-3.3c0.1,0,2.1-0.4,3.5-0.2
				c0.3,0.1,0.4,0.3,0.4,0.6c-0.1,0.3-0.3,0.4-0.6,0.4c-1.2-0.2-3.1,0.2-3.1,0.2c-0.1,0-2,0.5-2,2.3c0,1.1,1.7,2.5,3.8,3
				c1.2,0.3,2.6,0.3,3.1-0.5c0.4-0.8,0.6-2.4-0.1-4.5c-0.8-2.1-3.3-6.1-11.3-9.1c-0.3-0.1-0.4-0.4-0.3-0.6c0.1-0.3,0.4-0.4,0.6-0.3
				c7.9,2.9,10.8,6.9,11.9,9.7c0.9,2.3,0.6,4.2,0.1,5.3C663.5,277.1,663.5,277.1,663.4,277.2z"/>
			<path class="st5" d="M636.1,267.6c-0.1,0.1-0.1,0.1-0.2,0.2c-0.1,0-3.1,1.2-6.3-1.5c-1.1-0.9-1.6-1.9-1.6-3
				c0-1.5,1.1-2.4,1.2-2.5c0.2-0.2,0.5-0.1,0.7,0.1c0.2,0.2,0.1,0.5-0.1,0.7c0,0-0.8,0.7-0.8,1.7c0,0.7,0.4,1.5,1.3,2.2
				c2.7,2.3,5.3,1.4,5.3,1.4c0.3-0.1,0.5,0,0.6,0.3C636.2,267.3,636.2,267.5,636.1,267.6z"/>
			<path class="st5" d="M642.6,271c0,0-0.1,0.1-0.1,0.1c-0.1,0-5.8,4.1-11.8,0.8c-5.9-3.3-7.5-12.4-7.6-12.7c0-0.3,0.1-0.5,0.4-0.6
				c0.3,0,0.5,0.1,0.6,0.4c0,0.1,1.6,9,7.1,12.1c5.5,3,10.7-0.7,10.8-0.7c0.2-0.2,0.5-0.1,0.7,0.1
				C642.7,270.7,642.7,270.9,642.6,271z"/>
			<path class="st5" d="M645.7,267.9C645.7,267.9,645.7,267.9,645.7,267.9c-0.2,0.2-0.5,0.3-0.7,0.1c-0.1-0.1-14.5-9.9-18.9-12.8
				c-3.1-2-5-2.8-6-2.5c-0.4,0.1-0.7,0.5-1,1c-0.7,1.8,3.3,3.7,3.3,3.7l21.8,10.6c0.2,0.1,0.3,0.4,0.2,0.7c-0.1,0.2-0.4,0.3-0.7,0.2
				l-21.8-10.6c-0.2-0.1-4.9-2.3-3.8-5c0.3-0.8,0.9-1.4,1.6-1.6c1.4-0.4,3.3,0.3,6.8,2.6c4.5,2.9,18.8,12.7,18.9,12.8
				C645.8,267.4,645.9,267.7,645.7,267.9z"/>
			<path class="st5" d="M622.6,247c-0.1,0.2-0.4,0.3-0.6,0.2c0,0-1.9-1-3.3-0.6c-0.5,0.2-0.8,0.5-1,1c-0.5,1.2-0.7,2.4-0.8,3.4
				c-0.2,1.4-0.4,2.6-1.3,3.4c-0.2,0.2-0.5,0.2-0.7,0c-0.2-0.2-0.2-0.5,0-0.7c0.6-0.5,0.7-1.5,0.9-2.8c0.2-1.1,0.3-2.4,0.9-3.7
				c0.3-0.8,0.9-1.3,1.6-1.5c1.7-0.6,3.9,0.6,4,0.6C622.7,246.4,622.8,246.7,622.6,247C622.6,246.9,622.6,247,622.6,247z"/>
			<path class="st5" d="M610.1,256.3c0,0-1.7,1.9-1.6,2.6c0.1,0.7,2.7,0.3,2.7,0.3s1.4,3.2,2,2.8s1.9-2.5,1.9-2.5s1.9-0.2,2.5-0.7
				c0.6-0.5-2.3-2.7-2.3-2.7s0.9-2.3,0.1-2.8s-3.3,1-3.3,1s-1.9-1.4-2.5-0.9C609.1,253.9,610.1,256.3,610.1,256.3z"/>
			<path class="st5" d="M640.1,251.1c0,0-0.4,0.6,1.6,2.5c2,1.9,2.9,0.4,0.9-1.4C640.6,250.3,640.2,250.9,640.1,251.1z"/>
			<path class="st5" d="M642.9,248.5c0,0-0.3,1,1.2,2.2s2.4,0.4,0.8-1.2C643.3,247.9,642.9,248.5,642.9,248.5z"/>
			<path class="st5" d="M643.9,256.8c0,0-1.2-1.3-2.5,0.7c-1.3,2-0.4,2.9,0.6,2.7C643,260,644.7,257.3,643.9,256.8z"/>
			<path class="st5" d="M650.3,249.4c0,0-1.1-1.2-2.2,0.5s-0.3,2.5,0.6,2.4S651.1,249.8,650.3,249.4z"/>
			<path class="st5" d="M625.8,246.3c0,0-4.9-2.3-7,3s-0.3,9.2,5.2,11.8l-0.4-2.4c0,0-3.8-1.5-4.8-3.4c-0.9-1.9,0.8-3.1,1.5-3.1
				c0.7,0,2.3,0.2,6.2,2.7c0,0,0,0,0.1-0.2c0,0,2.8-8.7,1.8-9.9C627.6,243.6,625.8,246.3,625.8,246.3z M622.2,250.8
				c-0.7-0.2-1.1-0.4-1.3-0.7c-0.6-0.7,0-1.7,0.9-1.5C623.1,248.9,624,251.2,622.2,250.8z"/>
		</g>
		<g>
			<path class="st5" d="M429.2,188.4c1.6,1.1,3.7,1.1,6-0.2c2.5-1.4,4.8-4.1,4-5.9c-1.1-2.7-5.7-2.2-6.7-2.1
				c-5.3-2.6-8.2-5.8-8.7-9.7c-0.6-5.7,4.4-11.7,8.9-15.2c6.4-5,16.5-3.6,16.6-3.6c0.3,0,0.6-0.2,0.7-0.5c0-0.3-0.2-0.6-0.5-0.7
				c-0.4-0.1-10.7-1.5-17.5,3.8c-4.7,3.7-10,10.1-9.3,16.2c0.5,4.3,3.6,7.9,9.5,10.6l0.2,0.1l0.2,0c1.3-0.2,5-0.4,5.7,1.4
				c0.4,0.9-1.2,3.1-3.5,4.4c-1.1,0.6-3.9,1.8-5.6-0.5c-0.2-0.3-0.6-0.3-0.8-0.1c-0.3,0.2-0.3,0.6-0.1,0.8
				C428.5,187.7,428.9,188.1,429.2,188.4z"/>
			<path class="st5" d="M429.2,204.4c1.1,0.8,2.4,1.4,3.5,1.5c1.5,0.3,2.8-0.1,3.5-1.1c1.4-1.9,1.2-3.1,0.9-3.7l5.1-6.9
				c0.1-0.1,2.5-3.5,2.3-7.8c-0.1-2.5-1.6-3.6-2.9-3.8c-1.5-0.3-3.4,0.5-4.4,2.7c-1.6,3.8,1,7,1.1,7.1c0.2,0.2,0.6,0.3,0.8,0.1
				c0.2-0.2,0.3-0.6,0.1-0.8l0,0c-0.1-0.1-2.3-2.7-0.9-5.9c0.7-1.7,2.1-2.2,3.1-2.1c1.1,0.2,1.9,1.2,2,2.8c0.2,3.8-2,7-2.1,7
				l-5.6,7.6l0.3,0.4l0,0c0,0,0.6,0.8-0.8,2.7c-0.6,0.8-1.7,0.7-2.3,0.6c-2-0.3-4.6-2-5.3-4.3c-0.1-0.2,0-0.4,0.1-0.6
				c0.7-1.3,4.1-2.4,5.3-2.7c0.3-0.1,0.5-0.4,0.4-0.7c-0.1-0.3-0.4-0.5-0.7-0.4c-0.5,0.1-5,1.3-6,3.2c-0.3,0.5-0.3,1-0.2,1.5
				C427,202.3,428,203.5,429.2,204.4z"/>
			<path class="st5" d="M422.6,200.7c1.2,0.8,3,0.6,4.9-0.8c2.2-1.6,4.2-4.3,3.4-6.3c-0.9-2.3-3.3-2.6-4.5-2.5c-0.1,0-2.6,0.4-4,1.3
				c-0.3,0.2-0.4,0.5-0.2,0.8c0.2,0.3,0.5,0.4,0.8,0.2c1.2-0.8,3.5-1.1,3.5-1.1c0.1,0,2.4-0.3,3.2,1.7c0.5,1.2-0.9,3.5-3,5
				c-1.2,0.8-2.8,1.5-3.6,0.7c-0.8-0.7-1.7-2.4-1.7-5c0-2.7,1.2-8.2,8.7-14.8c0.2-0.2,0.3-0.6,0.1-0.8c-0.2-0.2-0.6-0.3-0.8-0.1
				c-7.5,6.6-9.1,12.2-9.1,15.7c0,2.9,1.1,5,2.1,5.9C422.5,200.6,422.6,200.6,422.6,200.7z"/>
			<path class="st5" d="M449,178.7c0.1,0.1,0.2,0.1,0.3,0.1c0.2,0,3.9,0,6.3-4.3c0.8-1.5,1-2.8,0.6-4c-0.6-1.6-2.3-2.2-2.3-2.2
				c-0.3-0.1-0.6,0.1-0.7,0.4c-0.1,0.3,0.1,0.6,0.4,0.7c0,0,1.2,0.5,1.7,1.6c0.3,0.8,0.1,1.8-0.5,3c-2.1,3.7-5.3,3.7-5.3,3.7
				c-0.3,0-0.6,0.2-0.6,0.6C448.7,178.4,448.8,178.6,449,178.7z"/>
			<path class="st5" d="M443.2,185.2c0.1,0,0.1,0.1,0.2,0.1c0.1,0,8.2,2.1,13.4-4.1c5.2-6.1,3.2-16.9,3.1-17.3
				c-0.1-0.3-0.4-0.5-0.7-0.5c-0.3,0.1-0.5,0.4-0.5,0.7c0,0.1,2,10.7-2.9,16.4c-4.8,5.6-12.2,3.7-12.2,3.7c-0.3-0.1-0.6,0.1-0.7,0.4
				C442.9,184.8,443,185,443.2,185.2z"/>
			<path class="st5" d="M438.4,183C438.4,183,438.4,183,438.4,183c0.3,0.2,0.6,0.1,0.8-0.1c0.1-0.2,11.9-17,15.7-22.1
				c2.6-3.6,4.3-5.2,5.6-5.3c0.5,0,1,0.2,1.5,0.8c1.6,1.7-2.1,5.5-2.1,5.5l-19.8,20.9c-0.2,0.2-0.2,0.6,0,0.8c0.2,0.2,0.6,0.2,0.8,0
				l19.7-20.9c0.2-0.2,4.5-4.6,2.1-7.1c-0.7-0.8-1.5-1.2-2.4-1.1c-1.7,0.1-3.6,1.8-6.5,5.7c-3.7,5.1-15.5,22-15.7,22.1
				C438.1,182.4,438.2,182.8,438.4,183z"/>
			<path class="st5" d="M455.3,150.1c0.2,0.2,0.6,0.1,0.8-0.1c0,0,1.7-1.9,3.4-2c0.6,0,1.1,0.2,1.6,0.7c1.1,1.1,1.7,2.3,2.4,3.4
				c0.8,1.5,1.5,2.7,2.8,3.2c0.3,0.1,0.6,0,0.7-0.3c0.1-0.3,0-0.6-0.3-0.7c-0.9-0.3-1.5-1.4-2.2-2.7c-0.6-1.2-1.4-2.5-2.5-3.7
				c-0.7-0.7-1.5-1.1-2.4-1c-2.2,0.1-4.1,2.3-4.2,2.4C455,149.5,455.1,149.9,455.3,150.1C455.3,150.1,455.3,150.1,455.3,150.1z"/>
			<path class="st5" d="M473.1,155.2c0,0,2.7,1.4,2.8,2.3c0.1,0.8-2.9,1.5-2.9,1.5s-0.2,4.2-1.1,3.9c-0.9-0.3-3.2-2-3.2-2
				s-2.2,0.5-3.1,0.3s1.5-4,1.5-4s-2-2.2-1.3-3.1c0.7-0.9,4.1-0.2,4.1-0.2s1.5-2.3,2.4-2C473.3,152.1,473.1,155.2,473.1,155.2z"/>
			<path class="st5" d="M437.7,162c0,0,0.7,0.5-0.7,3.4c-1.4,2.9-3.1,1.7-1.6-1.2S437.4,161.8,437.7,162z"/>
			<path class="st5" d="M433.5,160.3c0,0,0.8,0.9-0.4,3c-1.1,2-2.5,1.4-1.4-1S433.5,160.3,433.5,160.3z"/>
			<path class="st5" d="M435.8,169.9c0,0,0.7-2,3.1-0.3c2.3,1.7,1.7,3.1,0.5,3.2C438.1,173.1,435.1,170.9,435.8,169.9z"/>
			<path class="st5" d="M425.6,164.3c0,0,0.7-1.8,2.7-0.3c2,1.5,1.4,2.7,0.4,2.8S425,165.2,425.6,164.3z"/>
			<path class="st5" d="M447.9,150.2c-0.6,1.7,6.1,10.2,6.1,10.2c0.2,0.2,0.2,0.1,0.2,0.1c3.2-4.5,5-5.3,5.7-5.6
				c0.7-0.3,3.2,0.3,2.9,2.8s-3.9,5.7-3.9,5.7l0.5,2.9c5.1-5.2,5.4-10.1,0.9-15.2c-4.5-5.1-9-0.5-9-0.5S448.4,148.5,447.9,150.2z
				 M457,151.5c0.9-0.6,2,0.3,1.6,1.3c-0.2,0.4-0.5,0.8-1.2,1.3C455.6,155.4,455.6,152.5,457,151.5z"/>
		</g>
		<g>
			<path class="st5" d="M456.7,251.2c0.1-1.4-0.7-2.8-2.4-3.7c-1.8-1-4.4-1.4-5.2-0.3c-1.3,1.7,0.8,4.4,1.3,5
				c0.4,4.3-0.5,7.4-2.7,9.1c-3.3,2.6-9,1.8-12.9,0.3c-5.6-2.1-8.6-9-8.6-9c-0.1-0.2-0.3-0.3-0.6-0.2c-0.2,0.1-0.3,0.3-0.2,0.6
				c0.1,0.3,3.2,7.3,9.1,9.5c4.1,1.5,10.1,2.4,13.7-0.4c2.5-1.9,3.5-5.3,3-10l0-0.1l-0.1-0.1c-0.6-0.8-2.1-3-1.3-4.1
				c0.4-0.6,2.4-0.5,4.1,0.5c0.8,0.5,2.6,1.7,1.8,3.7c-0.1,0.2,0,0.5,0.2,0.6c0.2,0.1,0.5,0,0.6-0.2
				C456.6,251.9,456.7,251.6,456.7,251.2z"/>
			<path class="st5" d="M466.8,245.1c0.1-1-0.1-2-0.4-2.8c-0.4-1.1-1.1-1.7-2-1.8c-1.7-0.1-2.4,0.5-2.7,0.8l-6.3-0.5
				c-0.1,0-3.1-0.2-5.7,1.5c-1.5,1-1.7,2.4-1.3,3.3c0.4,1,1.6,1.9,3.4,1.7c3-0.4,4-3.3,4-3.4c0.1-0.2-0.1-0.5-0.3-0.5
				c-0.2-0.1-0.5,0.1-0.5,0.3l0,0c0,0.1-0.8,2.5-3.3,2.8c-1.3,0.2-2.2-0.4-2.5-1.1c-0.3-0.8,0.1-1.7,1-2.3c2.3-1.6,5.2-1.4,5.2-1.4
				l6.9,0.6l0.1-0.3l0,0c0,0,0.3-0.7,2-0.6c0.7,0.1,1.1,0.8,1.3,1.2c0.6,1.4,0.5,3.7-0.7,5c-0.1,0.1-0.2,0.2-0.4,0.2
				c-1.1,0-3-1.6-3.7-2.3c-0.2-0.2-0.4-0.2-0.6,0c-0.2,0.2-0.2,0.4,0,0.6c0.3,0.3,2.7,2.6,4.3,2.5c0.4,0,0.8-0.2,1-0.5
				C466.4,247.3,466.7,246.1,466.8,245.1z"/>
			<path class="st5" d="M467,250.6c0.1-1.1-0.8-2.1-2.4-2.8c-1.8-0.8-4.3-1-5.3,0.3c-1.1,1.5-0.4,3.1,0.2,3.7c0,0.1,1.2,1.4,2.3,2
				c0.2,0.1,0.5,0,0.6-0.2c0.1-0.2,0-0.5-0.2-0.6c-0.9-0.5-2-1.8-2.1-1.8c0-0.1-1.1-1.4-0.1-2.7c0.6-0.8,2.5-0.8,4.2,0
				c1,0.4,2,1.2,1.9,2c-0.1,0.8-0.9,2-2.5,3c-1.7,1-5.6,2.4-12.6,0.2c-0.2-0.1-0.5,0.1-0.5,0.3c-0.1,0.2,0.1,0.5,0.3,0.5
				c7,2.2,11.1,1,13.3-0.3c1.8-1.1,2.7-2.6,2.9-3.6C467,250.7,467,250.7,467,250.6z"/>
			<path class="st5" d="M443.1,242.6c0-0.1,0-0.2-0.1-0.2c-0.1-0.1-1.5-2.5-5.1-2.3c-1.2,0.1-2.2,0.4-2.7,1.2
				c-0.8,1-0.5,2.3-0.5,2.3c0.1,0.2,0.3,0.4,0.5,0.3c0.2-0.1,0.4-0.3,0.3-0.5c0,0-0.2-0.9,0.3-1.6c0.4-0.5,1.1-0.8,2.1-0.8
				c3.1-0.1,4.3,1.9,4.4,1.9c0.1,0.2,0.4,0.3,0.6,0.2C443,242.8,443.1,242.7,443.1,242.6z"/>
			<path class="st5" d="M449.4,243.7c0-0.1,0-0.1,0-0.2c0-0.1-1.8-5.9-7.7-6.8c-5.8-0.9-11.8,4.5-12,4.7c-0.2,0.2-0.2,0.4,0,0.6
				c0.2,0.2,0.4,0.2,0.6,0c0.1-0.1,5.9-5.3,11.3-4.5c5.4,0.8,7,6.2,7,6.2c0.1,0.2,0.3,0.4,0.5,0.3
				C449.3,244,449.4,243.9,449.4,243.7z"/>
			<path class="st5" d="M449.9,247.5C449.9,247.5,449.9,247.5,449.9,247.5c0-0.2-0.2-0.4-0.4-0.5c-0.2,0-15.2-0.9-19.8-1.3
				c-3.2-0.3-4.9-0.7-5.5-1.5c-0.2-0.3-0.2-0.7-0.1-1.2c0.5-1.6,4.2-0.8,4.3-0.8l20.7,4.3c0.2,0,0.5-0.1,0.5-0.3
				c0-0.2-0.1-0.5-0.3-0.5l-20.7-4.3c-0.2,0-4.6-1-5.3,1.4c-0.2,0.8-0.1,1.4,0.2,1.9c0.7,1,2.5,1.6,6.1,1.9
				c4.6,0.4,19.7,1.3,19.9,1.3C449.6,247.9,449.8,247.7,449.9,247.5z"/>
			<path class="st5" d="M422.8,249.6c0-0.2-0.1-0.4-0.4-0.5c0,0-1.9-0.3-2.5-1.4c-0.2-0.4-0.3-0.8-0.2-1.2c0.3-1.1,0.8-2,1.2-2.8
				c0.6-1.1,1.1-2,0.9-3c0-0.2-0.3-0.4-0.5-0.3c-0.2,0-0.4,0.3-0.3,0.5c0.1,0.7-0.3,1.4-0.8,2.4c-0.5,0.9-1,1.8-1.3,3
				c-0.2,0.7-0.1,1.4,0.3,1.9c0.9,1.3,3,1.7,3.1,1.7C422.5,250,422.7,249.8,422.8,249.6C422.8,249.6,422.8,249.6,422.8,249.6z"/>
			<path class="st5" d="M419.2,236.5c0,0-0.1-2.3,0.3-2.6c0.5-0.4,2,1.2,2,1.2s2.7-1.5,2.8-0.8c0.2,0.7,0,2.8,0,2.8s1.2,1.2,1.3,1.8
				c0.2,0.7-3,0.6-3,0.6s-0.6,2.1-1.4,2c-0.8-0.1-1.7-2.5-1.7-2.5s-2-0.1-2.2-0.7C417.2,237.6,419.2,236.5,419.2,236.5z"/>
			<path class="st5" d="M437,256.1c0,0,0.1-0.6,2.4-0.9c2.4-0.2,2.2,1.3-0.1,1.5C436.9,256.9,437,256.3,437,256.1z"/>
			<path class="st5" d="M437.6,259.3c0,0,0.3-0.8,2-0.9c1.7-0.1,1.8,1-0.1,1.3S437.6,259.3,437.6,259.3z"/>
			<path class="st5" d="M442.7,254.2c0,0-1.5,0.3-1.3-1.8c0.2-2.1,1.3-2.2,1.8-1.6S443.5,254.3,442.7,254.2z"/>
			<path class="st5" d="M443.1,262.7c0,0-1.4,0.3-1.2-1.6s1.1-1.9,1.6-1.3C444.1,260.5,443.9,262.8,443.1,262.7z"/>
			<path class="st5" d="M425.7,254.2c1.3-0.3,4.1-7.8,4.1-7.8c0-0.2,0-0.2,0-0.2c-4-0.3-5.2-1.1-5.7-1.4c-0.5-0.3-1-2.1,0.6-2.9
				c1.6-0.8,5.1,0.2,5.1,0.2l1.6-1.4c-5.2-1.2-8.4,0.5-9.9,5.3c-1.5,4.8,3.2,5.8,3.2,5.8S424.4,254.5,425.7,254.2z M423,248
				c-0.7-0.3-0.6-1.4,0.2-1.5c0.3,0,0.7,0,1.3,0.2C426,247.4,424.2,248.5,423,248z"/>
		</g>
		<g>
			<path class="st5" d="M536.6,216.5c0.4-1.1,0-2.3-1.1-3.3c-1.2-1.2-3.1-2-3.9-1.3c-1.3,1-0.3,3.5-0.1,4.1
				c-0.6,3.4-1.9,5.5-3.9,6.4c-3,1.3-7.2-0.5-9.9-2.4c-3.8-2.7-4.7-8.6-4.7-8.6c0-0.2-0.2-0.3-0.4-0.3c-0.2,0-0.3,0.2-0.3,0.4
				c0,0.3,0.9,6.2,5,9.1c2.8,2,7.2,3.9,10.5,2.5c2.3-1,3.8-3.3,4.4-7l0-0.1l0-0.1c-0.3-0.7-1-2.7-0.2-3.4c0.4-0.4,1.9,0.1,3,1.2
				c0.5,0.5,1.6,1.8,0.6,3.2c-0.1,0.1-0.1,0.4,0.1,0.5c0.1,0.1,0.4,0.1,0.5-0.1C536.4,217,536.5,216.7,536.6,216.5z"/>
			<path class="st5" d="M545.5,213.8c0.3-0.8,0.4-1.6,0.3-2.2c-0.1-0.9-0.5-1.5-1.2-1.7c-1.3-0.5-1.9-0.1-2.2,0.1l-4.7-1.7
				c-0.1,0-2.3-0.8-4.7,0c-1.4,0.5-1.7,1.5-1.7,2.2c0.1,0.9,0.8,1.8,2.2,2c2.4,0.3,3.7-1.7,3.8-1.8c0.1-0.2,0.1-0.4-0.1-0.5
				c-0.2-0.1-0.4-0.1-0.5,0.1l0,0c0,0.1-1.1,1.7-3.1,1.5c-1-0.1-1.6-0.8-1.6-1.4c-0.1-0.7,0.4-1.2,1.2-1.5c2.1-0.7,4.2,0,4.2,0
				l5.2,1.9l0.1-0.2v0c0,0,0.4-0.5,1.6,0c0.5,0.2,0.7,0.8,0.7,1.2c0.2,1.2-0.4,2.9-1.5,3.7c-0.1,0.1-0.2,0.1-0.3,0.1
				c-0.8-0.2-2-1.9-2.4-2.5c-0.1-0.2-0.3-0.2-0.5-0.1c-0.2,0.1-0.2,0.3-0.1,0.5c0.2,0.3,1.5,2.5,2.8,2.8c0.3,0.1,0.6,0,0.9-0.2
				C544.7,215.4,545.2,214.7,545.5,213.8z"/>
			<path class="st5" d="M544.5,218.1c0.3-0.8-0.2-1.7-1.2-2.6c-1.2-1-3.1-1.6-4.1-0.8c-1.1,0.9-0.9,2.3-0.6,2.9c0,0.1,0.6,1.4,1.4,2
				c0.1,0.1,0.4,0.1,0.5,0c0.1-0.1,0.1-0.4,0-0.5c-0.6-0.5-1.2-1.8-1.2-1.8c0-0.1-0.6-1.3,0.4-2.1c0.6-0.5,2.1-0.1,3.2,0.8
				c0.7,0.5,1.3,1.3,1,1.9c-0.3,0.6-1.1,1.4-2.5,1.8c-1.5,0.4-4.8,0.7-9.7-2.4c-0.2-0.1-0.4-0.1-0.5,0.1c-0.1,0.2-0.1,0.4,0.1,0.5
				c4.9,3.1,8.2,3.1,10.2,2.5c1.6-0.5,2.6-1.4,2.9-2.1C544.5,218.2,544.5,218.2,544.5,218.1z"/>
			<path class="st5" d="M528,207.1c0-0.1,0-0.1,0-0.2c0-0.1-0.6-2.2-3.4-2.8c-1-0.2-1.7-0.1-2.3,0.3c-0.8,0.6-0.9,1.6-0.9,1.7
				c0,0.2,0.1,0.3,0.3,0.4c0.2,0,0.3-0.1,0.4-0.3c0,0,0.1-0.8,0.6-1.2c0.4-0.3,1-0.4,1.7-0.2c2.4,0.5,2.9,2.3,2.9,2.3
				c0,0.2,0.2,0.3,0.4,0.2C527.9,207.3,528,207.2,528,207.1z"/>
			<path class="st5" d="M532.6,209.3c0,0,0-0.1,0-0.1c0,0-0.2-4.9-4.5-6.8c-4.2-1.9-9.9,1-10.1,1.1c-0.2,0.1-0.2,0.3-0.1,0.5
				c0.1,0.2,0.3,0.2,0.5,0.1c0.1,0,5.6-2.8,9.5-1.1c3.9,1.7,4.1,6.1,4.1,6.2c0,0.2,0.2,0.3,0.3,0.3
				C532.4,209.5,532.5,209.4,532.6,209.3z"/>
			<path class="st5" d="M532.1,212.2C532.1,212.2,532.1,212.2,532.1,212.2c0.1-0.2,0-0.4-0.2-0.4c-0.1,0-11.4-3.8-14.8-5.1
				c-2.4-0.9-3.6-1.6-3.8-2.3c-0.1-0.3,0-0.6,0.2-1c0.7-1.2,3.4,0.3,3.4,0.3l14.8,7.5c0.2,0.1,0.4,0,0.5-0.1c0.1-0.2,0-0.4-0.1-0.5
				l-14.8-7.5c-0.1-0.1-3.3-1.7-4.3,0c-0.3,0.5-0.4,1.1-0.2,1.5c0.3,0.9,1.6,1.7,4.2,2.7c3.4,1.2,14.7,5,14.8,5.1
				C531.9,212.5,532.1,212.4,532.1,212.2z"/>
			<path class="st5" d="M511.1,208.3c0.1-0.2,0-0.3-0.2-0.4c0,0-1.4-0.6-1.7-1.6c-0.1-0.3-0.1-0.6,0.1-1c0.4-0.8,1-1.4,1.5-1.9
				c0.7-0.7,1.3-1.3,1.3-2.1c0-0.2-0.1-0.3-0.3-0.4c-0.2,0-0.3,0.1-0.4,0.3c0,0.5-0.5,1-1.1,1.7c-0.5,0.5-1.2,1.2-1.6,2
				c-0.3,0.5-0.3,1-0.2,1.5c0.4,1.2,1.9,1.9,2,2C510.8,208.5,511,208.4,511.1,208.3C511.1,208.3,511.1,208.3,511.1,208.3z"/>
			<path class="st5" d="M511,197.5c0,0,0.4-1.7,0.8-1.9c0.4-0.2,1.3,1.4,1.3,1.4s2.3-0.6,2.3-0.1s-0.6,2.1-0.6,2.1s0.7,1.1,0.7,1.7
				s-2.4-0.2-2.4-0.2s-0.9,1.5-1.5,1.2c-0.6-0.2-0.8-2.2-0.8-2.2s-1.5-0.5-1.5-1S511,197.5,511,197.5z"/>
			<path class="st5" d="M520.6,216.1c0,0,0.2-0.5,2-0.2c1.8,0.3,1.5,1.4-0.4,1.1C520.3,216.7,520.5,216.3,520.6,216.1z"/>
			<path class="st5" d="M520.4,218.7c0,0,0.4-0.6,1.7-0.3s1.2,1.1-0.3,0.9S520.4,218.7,520.4,218.7z"/>
			<path class="st5" d="M525.3,215.8c0,0-1.2-0.1-0.7-1.7c0.6-1.6,1.4-1.5,1.7-0.8C526.7,214,525.9,216.1,525.3,215.8z"/>
			<path class="st5" d="M523.9,222.4c0,0-1.1-0.1-0.6-1.4c0.5-1.3,1.2-1.2,1.5-0.7S524.4,222.6,523.9,222.4z"/>
			<path class="st5" d="M512.4,212.4c1.1,0,4.7-5.1,4.7-5.1c0.1-0.2,0-0.2,0-0.2c-3-1.1-3.8-1.9-4.1-2.3c-0.3-0.4-0.3-1.8,1.1-2.1
				s3.8,1.2,3.8,1.2l1.5-0.8c-3.7-2-6.5-1.3-8.6,2c-2.1,3.3,1.2,5.1,1.2,5.1S511.3,212.3,512.4,212.4z M511.6,207.1
				c-0.5-0.4-0.2-1.2,0.5-1.1c0.2,0,0.6,0.2,0.9,0.5C514,207.2,512.4,207.7,511.6,207.1z"/>
		</g>
		<g>
			<path class="st5" d="M405.2,130.3c-0.1,0-0.2,0-0.3,0c-1.8-0.1-2.9-1.4-2.9-3.1c0-0.3,0.3-0.6,0.6-0.6c0.3,0,0.6,0.3,0.6,0.6
				c0,1.6,1.2,1.8,1.8,1.9c1.5,0.1,3.9-0.9,4.3-3.6c0.3-1.7-0.2-2.9-1.2-3.5c-0.9-0.5-1.9-0.3-2.2,0c-0.2,0.2-0.6,0.2-0.8,0
				c-0.2-0.2-0.2-0.6,0-0.8c0.7-0.6,2.3-0.9,3.6-0.2c0.9,0.5,2.3,1.7,1.8,4.7C410,128.6,407.4,130.3,405.2,130.3z"/>
			<path class="st5" d="M403.1,127.8c-2.1,0-3.7-1.8-3.7-4s1.8-3.9,3.8-3.8c2.1,0,3.7,1.8,3.7,4
				C406.9,126.1,405.1,127.8,403.1,127.8z M403.2,121.2c-1.4,0-2.6,1.2-2.6,2.6c0,1.5,1.1,2.7,2.5,2.8c1.4,0,2.6-1.2,2.6-2.6
				C405.7,122.5,404.6,121.2,403.2,121.2z"/>
			<path class="st5" d="M416.1,143.1c-2.4-0.1-4.8-0.8-6.9-2.2c-4.2-2.7-6.7-7.4-6.4-11.9c0-0.3,0.3-0.6,0.6-0.6
				c0.3,0,0.6,0.3,0.6,0.6c-0.3,4,2,8.4,5.9,10.8c3.9,2.5,8.5,2.6,12.6,0.4c3.6-2,6-5,6.7-8.8c0.9-4.7-0.8-9.4-2.8-11.8
				c-3.8-4.6-10.5-4.3-13.2-4c-3.4,0.4-5.2-0.4-6.4-0.9c-0.1-0.1-0.2-0.1-0.3-0.1l0.3,1.9c0,0.3-0.1,0.6-0.3,0.8
				c-0.2,0.2-0.5,0.3-0.8,0.2l-0.3-0.1c0.7,1.7,0.8,3.4,0.8,3.5c0,0.3-0.2,0.6-0.5,0.6c-0.3,0-0.6-0.2-0.7-0.5c0,0-0.2-2.1-1-3.7
				c-0.2-0.3-0.1-0.7,0.1-1c0.2-0.3,0.6-0.4,0.9-0.3l0.5,0.2l-0.3-1.9c0-0.3,0.1-0.6,0.3-0.8c0.2-0.2,0.5-0.3,0.8-0.2
				c0.3,0.1,0.6,0.2,1,0.4c1.2,0.5,2.7,1.2,5.8,0.8c2.9-0.3,10.1-0.6,14.2,4.4c2.1,2.6,4,7.7,3,12.8c-0.8,4.1-3.3,7.5-7.3,9.6
				C420.8,142.6,418.4,143.1,416.1,143.1z"/>
			<path class="st5" d="M429.1,124.3c-0.1,0-0.2,0-0.3-0.1c-0.3-0.2-0.4-0.5-0.2-0.8c0,0,1.6-2.8,0.4-4.3c-0.2-0.2-0.4-0.4-0.6-0.4
				c-0.4,0-0.9,0.8-1.1,1.1c-0.1,0.3-0.5,0.4-0.8,0.3c-0.3-0.1-0.4-0.5-0.3-0.8c0.1-0.2,0.8-1.7,2-1.8c0.4,0,1.1,0.1,1.7,0.9
				c1.7,2.1-0.2,5.5-0.3,5.6C429.6,124.2,429.3,124.3,429.1,124.3z"/>
			<ellipse transform="matrix(0.9263 -0.3768 0.3768 0.9263 -16.0888 165.1145)" class="st5" cx="414" cy="123.7" rx="1" ry="1.3"/>
			
				<ellipse transform="matrix(0.9263 -0.3768 0.3768 0.9263 -13.8935 168.3538)" class="st5" cx="423.3" cy="119.7" rx="1" ry="1.3"/>
			<path class="st5" d="M418,123c0,0,0-2.1,1.3-2.7c0.7-0.4,1.7,0,2.3,0.3c0.3,0.2,0.3,0.6,0.1,0.8C420.5,122.2,418.2,123.7,418,123
				z"/>
			<path class="st5" d="M421.1,126.4c-1.9,0-2.7-3.2-2.7-3.2l-0.1-0.5l0.1,0c0.1-1.2,1.1-1.9,2.6-1.9c0.5,0,0.9,0.3,1.1,0.8
				c0.4,1.5,0.8,3.4,0.2,4.3c-0.2,0.3-0.5,0.5-0.9,0.6C421.2,126.4,421.1,126.4,421.1,126.4z M419.5,123c0.2,0.6,0.9,2.3,1.7,2.2
				c0,0,0,0,0.1,0c0.2-0.3,0.2-1.5-0.3-3.3c-0.5,0-1.4,0.1-1.4,0.9C419.5,122.8,419.5,122.9,419.5,123
				C419.5,122.9,419.5,123,419.5,123z"/>
			<ellipse transform="matrix(0.8767 -0.481 0.481 0.8767 -9.7858 215.061)" class="st5" cx="414.6" cy="126.6" rx="1.6" ry="1"/>
			
				<ellipse transform="matrix(0.8767 -0.481 0.481 0.8767 -6.0348 219.5861)" class="st5" cx="425.3" cy="121.6" rx="1.5" ry="0.9"/>
			<path class="st5" d="M405.1,136.8C405.1,136.8,405.1,136.8,405.1,136.8c-0.2,0-2.9-0.4-4.4-1c-0.3-0.1-0.4-0.5-0.3-0.8
				c0.1-0.3,0.5-0.4,0.8-0.3c1.4,0.6,4,0.9,4,0.9c0.3,0,0.6,0.3,0.5,0.7C405.7,136.6,405.4,136.8,405.1,136.8z"/>
			<circle class="st5" cx="399.3" cy="135" r="2.2"/>
		</g>
		<g>
			<path class="st5" d="M526.4,113.7c0.1,0,0.1-0.1,0.2-0.1c1-0.8,1.1-2,0.4-3c-0.1-0.2-0.4-0.2-0.6-0.1c-0.2,0.1-0.2,0.4-0.1,0.6
				c0.7,0.9,0,1.6-0.3,1.8c-0.8,0.7-2.7,1.1-4-0.3c-0.9-0.9-1.1-1.8-0.7-2.5c0.3-0.6,1-1,1.3-0.9c0.2,0,0.5-0.1,0.5-0.4
				c0-0.2-0.1-0.5-0.4-0.5c-0.7-0.1-1.7,0.4-2.2,1.4c-0.3,0.6-0.6,1.9,0.9,3.5C522.9,114.8,525.1,114.7,526.4,113.7z"/>
			<path class="st5" d="M522.8,110.7c-0.9-1.2-0.7-3,0.5-3.9c1.2-0.9,2.9-0.6,3.9,0.6c0.9,1.2,0.7,3-0.5,3.9
				C525.4,112.3,523.7,112,522.8,110.7z M523.5,110.2c0.6,0.9,1.8,1.1,2.6,0.5c0.8-0.6,1-1.8,0.3-2.7s-1.8-1.1-2.6-0.5
				C523,108.2,522.8,109.4,523.5,110.2z"/>
			<path class="st5" d="M525.4,125.8c1.4-1,2.5-2.5,3.2-4.2c1.4-3.4,0.9-7.2-1.2-9.7c-0.2-0.2-0.4-0.2-0.6-0.1
				c-0.2,0.2-0.2,0.4-0.1,0.6c1.9,2.2,2.3,5.8,1.1,8.8c-1.2,3.1-3.9,5.1-7.3,5.5c-3,0.3-5.6-0.5-7.6-2.4c-2.5-2.4-3.4-5.9-3.3-8.1
				c0.3-4.3,4.4-6.9,6.1-7.8c2.2-1.2,2.9-2.4,3.4-3.2c0-0.1,0.1-0.2,0.1-0.2l0.6,1.2c0.1,0.2,0.3,0.3,0.5,0.4c0.2,0,0.4-0.1,0.6-0.2
				l0.1-0.2c0.3,1.3,0.9,2.4,1,2.4c0.1,0.2,0.4,0.3,0.6,0.2c0.2-0.1,0.3-0.4,0.2-0.6c0,0-0.8-1.3-1-2.6c0-0.3-0.2-0.5-0.5-0.5
				c-0.2-0.1-0.5,0-0.7,0.2l-0.2,0.3l-0.6-1.3c-0.1-0.2-0.3-0.3-0.5-0.3c-0.2,0-0.4,0.1-0.6,0.2c-0.2,0.2-0.3,0.4-0.4,0.7
				c-0.5,0.8-1.1,1.9-3.1,2.9c-1.8,1-6.2,3.8-6.5,8.5c-0.2,2.4,0.8,6.2,3.5,8.8c2.2,2.1,5.1,3,8.3,2.6
				C522.4,127.5,524,126.8,525.4,125.8z"/>
			<path class="st5" d="M509.8,120.2c0.1,0,0.1-0.1,0.1-0.2c0.1-0.2,0-0.5-0.2-0.6c0,0-2.1-1-2-2.4c0-0.2,0.1-0.4,0.2-0.5
				c0.3-0.1,0.8,0.1,1.1,0.2c0.2,0.1,0.5,0,0.6-0.2c0.1-0.2,0-0.5-0.2-0.6c-0.1-0.1-1.2-0.6-1.9-0.2c-0.3,0.1-0.6,0.5-0.6,1.2
				c-0.1,2,2.4,3.1,2.5,3.2C509.5,120.4,509.7,120.3,509.8,120.2z"/>
			<ellipse transform="matrix(0.9737 -0.228 0.228 0.9737 -12.2252 121.221)" class="st5" cx="518.5" cy="113.5" rx="0.8" ry="1"/>
			<ellipse transform="matrix(0.9737 -0.228 0.228 0.9737 -12.7714 119.6213)" class="st5" cx="511.3" cy="115.1" rx="0.8" ry="1"/>
			<path class="st5" d="M515.8,114.8c0,0-0.9-1.2-1.9-1c-0.6,0.1-1,0.7-1.3,1.1c-0.1,0.2,0,0.5,0.3,0.5
				C514,115.4,516,115.3,515.8,114.8z"/>
			<path class="st5" d="M515.3,118.2c-0.2,0.1-0.5,0.1-0.8,0c-0.8-0.3-1.3-1.6-1.7-2.6c-0.1-0.3,0-0.7,0.3-0.9
				c0.9-0.6,1.8-0.6,2.4,0l0.1,0l0.2,0.4c0,0,0.8,2.2-0.3,3C515.4,118.1,515.3,118.2,515.3,118.2z M514.9,115.4
				C514.9,115.4,514.9,115.3,514.9,115.4c-0.4-0.5-0.9-0.2-1.3,0c0.4,1.3,0.9,2,1.2,2.1c0,0,0,0,0,0
				C515.3,117.2,515.1,115.8,514.9,115.4C514.9,115.4,514.9,115.4,514.9,115.4z"/>
			
				<ellipse transform="matrix(0.9934 -0.1143 0.1143 0.9934 -9.8044 60.1423)" class="st5" cx="519.3" cy="115.5" rx="1.2" ry="0.7"/>
			
				<ellipse transform="matrix(0.9934 -0.1143 0.1143 0.9934 -10.0302 59.1891)" class="st5" cx="510.9" cy="117" rx="1.1" ry="0.7"/>
			<path class="st5" d="M529.2,117.6C529.2,117.6,529.2,117.6,529.2,117.6c0.1-0.1,1.5-1.4,2.2-2.4c0.1-0.2,0.1-0.5-0.1-0.6
				c-0.2-0.1-0.5-0.1-0.6,0.1c-0.6,0.9-2,2.2-2,2.2c-0.2,0.2-0.2,0.4,0,0.6C528.8,117.7,529,117.7,529.2,117.6z"/>
			<circle class="st5" cx="531.9" cy="114.1" r="1.6"/>
		</g>
		<g>
			<path class="st5" d="M551.2,261.3c-0.1,0-0.2,0-0.3,0c-1.8-0.1-2.9-1.4-2.9-3.1c0-0.3,0.3-0.6,0.6-0.6c0.3,0,0.6,0.3,0.6,0.6
				c0,1.6,1.2,1.8,1.8,1.9c1.5,0.1,3.9-0.9,4.3-3.6c0.3-1.7-0.2-2.9-1.2-3.5c-0.9-0.5-1.9-0.3-2.2,0c-0.2,0.2-0.6,0.2-0.8,0
				c-0.2-0.2-0.2-0.6,0-0.8c0.7-0.6,2.3-0.9,3.6-0.2c0.9,0.5,2.3,1.7,1.8,4.7C556,259.6,553.4,261.3,551.2,261.3z"/>
			<path class="st5" d="M549.1,258.8c-2.1,0-3.7-1.8-3.7-4c0-2.1,1.8-3.9,3.8-3.8c2.1,0,3.7,1.8,3.7,4
				C552.9,257.1,551.1,258.8,549.1,258.8z M549.2,252.2c-1.4,0-2.6,1.2-2.6,2.6c0,1.5,1.1,2.7,2.5,2.8c1.4,0,2.6-1.2,2.6-2.6
				C551.7,253.4,550.6,252.2,549.2,252.2z"/>
			<path class="st5" d="M562.1,274.1c-2.4-0.1-4.8-0.8-6.9-2.2c-4.2-2.7-6.7-7.4-6.4-11.9c0-0.3,0.3-0.6,0.6-0.6
				c0.3,0,0.6,0.3,0.6,0.6c-0.3,4,2,8.4,5.9,10.8c3.9,2.5,8.5,2.6,12.6,0.4c3.6-2,6-5,6.7-8.8c0.9-4.7-0.8-9.4-2.8-11.8
				c-3.8-4.6-10.5-4.3-13.2-4c-3.4,0.4-5.2-0.4-6.4-0.9c-0.1-0.1-0.2-0.1-0.3-0.1l0.3,1.9c0,0.3-0.1,0.6-0.3,0.8
				c-0.2,0.2-0.5,0.3-0.8,0.2l-0.3-0.1c0.7,1.7,0.8,3.4,0.8,3.5c0,0.3-0.2,0.6-0.5,0.6c-0.3,0-0.6-0.2-0.7-0.5c0,0-0.2-2.1-1-3.7
				c-0.2-0.3-0.1-0.7,0.1-1c0.2-0.3,0.6-0.4,0.9-0.3l0.5,0.2l-0.3-1.9c0-0.3,0.1-0.6,0.3-0.8c0.2-0.2,0.5-0.3,0.8-0.2
				c0.3,0.1,0.6,0.2,1,0.4c1.2,0.5,2.7,1.2,5.8,0.8c2.9-0.3,10.1-0.6,14.2,4.4c2.1,2.6,4,7.7,3,12.8c-0.8,4.1-3.3,7.5-7.3,9.6
				C566.8,273.5,564.4,274.1,562.1,274.1z"/>
			<path class="st5" d="M575.1,255.3c-0.1,0-0.2,0-0.3-0.1c-0.3-0.2-0.4-0.5-0.2-0.8c0,0,1.6-2.8,0.4-4.3c-0.2-0.2-0.4-0.4-0.6-0.4
				c-0.4,0-0.9,0.8-1.1,1.1c-0.1,0.3-0.5,0.4-0.8,0.3c-0.3-0.1-0.4-0.5-0.3-0.8c0.1-0.2,0.8-1.7,2-1.8c0.4,0,1.1,0.1,1.7,0.9
				c1.7,2.1-0.2,5.5-0.3,5.6C575.6,255.2,575.4,255.3,575.1,255.3z"/>
			<ellipse transform="matrix(0.9263 -0.3768 0.3768 0.9263 -54.6875 229.7938)" class="st5" cx="560" cy="254.7" rx="1" ry="1.3"/>
			
				<ellipse transform="matrix(0.9263 -0.3768 0.3768 0.9263 -52.4921 233.0331)" class="st5" cx="569.3" cy="250.7" rx="1" ry="1.3"/>
			<path class="st5" d="M564,254c0,0,0-2.1,1.3-2.7c0.7-0.4,1.7,0,2.3,0.3c0.3,0.2,0.3,0.6,0.1,0.8C566.5,253.2,564.2,254.7,564,254
				z"/>
			<path class="st5" d="M567.1,257.4c-1.9,0-2.7-3.2-2.7-3.2l-0.1-0.5l0.1,0c0.1-1.2,1.1-1.9,2.6-1.9c0.5,0,0.9,0.3,1.1,0.8
				c0.4,1.5,0.8,3.4,0.2,4.3c-0.2,0.3-0.5,0.5-0.9,0.6C567.2,257.4,567.2,257.4,567.1,257.4z M565.5,254c0.2,0.6,0.9,2.3,1.7,2.2
				c0,0,0,0,0.1,0c0.2-0.3,0.2-1.5-0.3-3.3c-0.5,0-1.4,0.1-1.4,0.9C565.5,253.8,565.5,253.8,565.5,254
				C565.5,253.9,565.5,253.9,565.5,254z"/>
			<ellipse transform="matrix(0.8767 -0.481 0.481 0.8767 -54.7941 301.447)" class="st5" cx="560.6" cy="257.6" rx="1.6" ry="1"/>
			
				<ellipse transform="matrix(0.8767 -0.481 0.481 0.8767 -51.0431 305.9721)" class="st5" cx="571.3" cy="252.6" rx="1.5" ry="0.9"/>
			<path class="st5" d="M551.1,267.8C551.1,267.8,551.1,267.8,551.1,267.8c-0.2,0-2.9-0.4-4.4-1c-0.3-0.1-0.4-0.5-0.3-0.8
				c0.1-0.3,0.5-0.4,0.8-0.3c1.4,0.6,4,0.9,4,0.9c0.3,0,0.6,0.3,0.5,0.7C551.7,267.6,551.4,267.8,551.1,267.8z"/>
			<circle class="st5" cx="545.3" cy="266" r="2.2"/>
		</g>
		<g>
			<path class="st5" d="M623.6,143.9c-0.1,0-0.1-0.1-0.2-0.1c-1.2-1-1.3-2.4-0.4-3.6c0.2-0.2,0.5-0.3,0.7-0.1s0.3,0.5,0.1,0.7
				c-0.8,1.1-0.1,1.9,0.3,2.2c1,0.8,3.2,1.3,4.8-0.4c1-1.1,1.4-2.1,0.9-3c-0.4-0.8-1.2-1.2-1.5-1.1c-0.3,0-0.5-0.2-0.6-0.4
				c0-0.3,0.2-0.5,0.4-0.6c0.8-0.1,2,0.5,2.6,1.7c0.4,0.7,0.7,2.3-1.1,4.2C627.8,145.2,625.1,145.1,623.6,143.9z"/>
			<path class="st5" d="M623.4,141.2c-1.4-1.1-1.7-3.1-0.5-4.6c1.1-1.5,3.1-1.8,4.6-0.7c1.4,1.1,1.7,3.1,0.5,4.6
				C626.9,141.9,624.8,142.2,623.4,141.2z M626.8,136.7c-1-0.7-2.4-0.5-3.1,0.5c-0.8,1-0.6,2.4,0.3,3.1s2.4,0.5,3.1-0.5
				C627.9,138.8,627.7,137.4,626.8,136.7z"/>
			<path class="st5" d="M624.7,158.3c-1.6-1.2-2.9-2.9-3.7-5c-1.6-4-1-8.5,1.5-11.5c0.2-0.2,0.5-0.2,0.7-0.1
				c0.2,0.2,0.2,0.5,0.1,0.7c-2.2,2.6-2.8,6.8-1.4,10.4c1.4,3.7,4.6,6.1,8.6,6.6c3.5,0.4,6.6-0.5,9-2.8c3-2.8,4.1-6.9,3.9-9.5
				c-0.3-5.1-5.1-8.2-7.1-9.3c-2.6-1.4-3.4-2.9-4-3.9c-0.1-0.1-0.1-0.2-0.2-0.3l-0.7,1.5c-0.1,0.2-0.3,0.4-0.6,0.4
				c-0.3,0-0.5-0.1-0.7-0.3l-0.2-0.2c-0.4,1.5-1.1,2.8-1.2,2.8c-0.1,0.2-0.5,0.3-0.7,0.2c-0.2-0.1-0.3-0.5-0.2-0.7
				c0,0,0.9-1.5,1.2-3.1c0-0.3,0.3-0.5,0.6-0.6c0.3-0.1,0.6,0,0.8,0.3l0.3,0.4l0.8-1.5c0.1-0.2,0.3-0.4,0.6-0.4
				c0.3,0,0.5,0.1,0.7,0.3c0.2,0.2,0.3,0.5,0.5,0.8c0.5,0.9,1.3,2.2,3.6,3.5c2.2,1.2,7.3,4.6,7.6,10.2c0.2,2.9-1.1,7.3-4.3,10.4
				c-2.6,2.5-6,3.5-9.9,3C628.3,160.2,626.3,159.5,624.7,158.3z"/>
			<path class="st5" d="M643.2,151.8c-0.1,0-0.1-0.1-0.2-0.2c-0.1-0.3,0-0.6,0.3-0.7c0,0,2.5-1.1,2.4-2.8c0-0.2-0.1-0.5-0.2-0.6
				c-0.3-0.2-1,0.1-1.3,0.2c-0.2,0.1-0.6,0-0.7-0.2c-0.1-0.2,0-0.6,0.2-0.7c0.1-0.1,1.4-0.7,2.3-0.2c0.3,0.2,0.7,0.6,0.8,1.4
				c0.1,2.3-2.9,3.7-3,3.8C643.5,151.9,643.3,151.9,643.2,151.8z"/>
			
				<ellipse transform="matrix(0.2364 -0.9717 0.9717 0.2364 343.6636 724.8262)" class="st5" cx="633" cy="143.8" rx="1.2" ry="0.9"/>
			
				<ellipse transform="matrix(0.2364 -0.9717 0.9717 0.2364 348.2769 734.5378)" class="st5" cx="641.5" cy="145.7" rx="1.2" ry="0.9"/>
			<path class="st5" d="M636.1,145.3c0,0,1.1-1.4,2.2-1.2c0.7,0.1,1.2,0.8,1.5,1.4c0.1,0.3-0.1,0.6-0.4,0.6
				C638.3,146,635.9,145.9,636.1,145.3z"/>
			<path class="st5" d="M636.5,149.2c-1.3-1-0.3-3.6-0.3-3.6l0.2-0.4l0.1,0c0.7-0.8,1.7-0.8,2.8,0c0.3,0.3,0.5,0.7,0.3,1.1
				c-0.4,1.2-1.1,2.8-2,3.1c-0.3,0.1-0.6,0.1-0.9,0C636.7,149.3,636.6,149.2,636.5,149.2z M637.2,146.1c-0.2,0.5-0.5,2.1,0,2.4
				c0,0,0,0,0.1,0c0.3-0.1,0.9-0.9,1.4-2.4c-0.4-0.3-1-0.6-1.4-0.1C637.3,145.9,637.2,146,637.2,146.1
				C637.2,146,637.2,146,637.2,146.1z"/>
			
				<ellipse transform="matrix(0.1229 -0.9924 0.9924 0.1229 409.2872 755.3665)" class="st5" cx="632" cy="146.1" rx="0.9" ry="1.4"/>
			
				<ellipse transform="matrix(0.1229 -0.9924 0.9924 0.1229 416.1679 766.8456)" class="st5" cx="641.9" cy="148" rx="0.8" ry="1.2"/>
			<path class="st5" d="M620.3,148.5C620.3,148.4,620.3,148.4,620.3,148.5c-0.1-0.1-1.8-1.7-2.5-2.9c-0.1-0.2-0.1-0.6,0.2-0.7
				c0.2-0.1,0.6-0.1,0.7,0.2c0.7,1.1,2.3,2.6,2.3,2.7c0.2,0.2,0.2,0.5,0,0.7C620.8,148.6,620.5,148.6,620.3,148.5z"/>
			<circle class="st5" cx="617.2" cy="144.3" r="1.9"/>
		</g>
		<g>
			<path class="st5" d="M646.8,204.5c0.1,0,0.2,0,0.3,0c2-0.1,3.4-1.4,3.4-3.4c0-0.4-0.3-0.7-0.7-0.7s-0.7,0.3-0.7,0.7
				c0,1.8-1.5,2-2.1,2.1c-1.7,0.1-4.4-1.3-4.7-4.3c-0.2-2,0.3-3.3,1.5-3.9c1-0.5,2.2-0.2,2.5,0.1c0.3,0.3,0.7,0.3,1,0
				c0.3-0.3,0.3-0.7,0-1c-0.7-0.8-2.5-1.1-4.1-0.4c-1,0.5-2.7,1.8-2.3,5.3C641.4,202.4,644.3,204.5,646.8,204.5z"/>
			<path class="st5" d="M645.2,197.3c0.1-2.5,2-4.4,4.4-4.4s4.2,2.1,4.2,4.5c-0.1,2.5-2,4.4-4.4,4.4
				C647,201.8,645.1,199.7,645.2,197.3z M646.5,197.3c0,1.7,1.2,3.1,2.8,3.1c1.6,0,2.9-1.3,3-3c0-1.7-1.2-3.1-2.8-3.1
				S646.6,195.6,646.5,197.3z"/>
			<path class="st5" d="M633.7,218.7c2.7,0.1,5.5-0.7,8-2.1c5-2.9,8.1-8.1,7.9-13.3c0-0.4-0.3-0.7-0.7-0.7c-0.4,0-0.7,0.3-0.7,0.7
				c0.2,4.6-2.8,9.5-7.2,12.1c-4.6,2.7-9.8,2.6-14.5-0.2c-4.1-2.5-6.6-6.1-7.2-10.4c-0.8-5.4,1.4-10.7,3.8-13.3
				c4.6-5,12.2-4.4,15.2-3.9c3.9,0.6,6-0.2,7.4-0.8c0.1-0.1,0.3-0.1,0.4-0.2l-0.4,2.2c-0.1,0.3,0,0.7,0.3,0.9
				c0.3,0.2,0.6,0.3,0.9,0.2l0.4-0.1c-0.8,1.9-1.1,3.8-1.1,3.9c-0.1,0.4,0.2,0.7,0.6,0.8c0.4,0,0.7-0.2,0.8-0.6c0,0,0.3-2.4,1.3-4.2
				c0.2-0.4,0.2-0.8-0.1-1.1c-0.2-0.3-0.7-0.5-1-0.4l-0.6,0.2l0.4-2.2c0.1-0.3,0-0.7-0.3-0.9c-0.2-0.2-0.6-0.3-0.9-0.3
				c-0.4,0.1-0.7,0.2-1.2,0.4c-1.4,0.5-3.2,1.3-6.7,0.7c-3.3-0.5-11.5-1.2-16.5,4.3c-2.6,2.9-5,8.6-4.1,14.4
				c0.7,4.8,3.4,8.7,7.8,11.4C628.4,217.8,631.1,218.6,633.7,218.7z"/>
			<path class="st5" d="M619.7,196.6c0.1,0,0.2,0,0.3-0.1c0.3-0.2,0.5-0.6,0.3-0.9c0,0-1.7-3.3-0.2-4.9c0.2-0.2,0.5-0.5,0.7-0.4
				c0.5,0.1,1,0.9,1.2,1.4c0.1,0.3,0.5,0.5,0.9,0.4c0.3-0.1,0.5-0.5,0.4-0.9c-0.1-0.2-0.9-2-2.2-2.2c-0.5-0.1-1.2,0-2,0.9
				c-2,2.3,0,6.3,0.1,6.4C619.3,196.4,619.5,196.6,619.7,196.6z"/>
			
				<ellipse transform="matrix(0.4168 -0.909 0.909 0.4168 192.8872 693.7889)" class="st5" cx="637.1" cy="196.6" rx="1.5" ry="1.2"/>
			
				<ellipse transform="matrix(0.4168 -0.909 0.909 0.4168 191.3235 681.2931)" class="st5" cx="626.6" cy="191.5" rx="1.5" ry="1.2"/>
			<path class="st5" d="M632.5,195.6c0,0,0.1-2.4-1.3-3.1c-0.8-0.4-1.9-0.1-2.7,0.2c-0.4,0.2-0.4,0.7-0.1,0.9
				C629.7,194.6,632.2,196.4,632.5,195.6z"/>
			<path class="st5" d="M628.5,199.3c-0.4-0.1-0.8-0.3-1-0.7c-0.6-1.1-0.1-3.3,0.4-4.9c0.2-0.5,0.7-0.9,1.3-0.9
				c1.7,0.1,2.9,1,2.9,2.3l0.1,0.1l-0.2,0.6c0,0-1.2,3.6-3.3,3.5C628.8,199.3,628.7,199.3,628.5,199.3z M630.8,195.4
				c0-0.1,0-0.1,0-0.2c0-0.9-0.9-1-1.5-1.1c-0.7,2-0.8,3.4-0.5,3.7c0,0,0,0,0.1,0C629.6,198.1,630.6,196.2,630.8,195.4
				C630.8,195.5,630.8,195.4,630.8,195.4z"/>
			
				<ellipse transform="matrix(0.5187 -0.8549 0.8549 0.5187 135.2829 640.1307)" class="st5" cx="636.2" cy="199.9" rx="1.2" ry="1.9"/>
			
				<ellipse transform="matrix(0.5187 -0.8549 0.8549 0.5187 134.9111 626.849)" class="st5" cx="624.2" cy="193.6" rx="1" ry="1.7"/>
			<path class="st5" d="M646.6,212C646.6,212,646.6,212,646.6,212c0.2,0,3.3-0.3,5.1-1c0.4-0.1,0.5-0.5,0.4-0.9
				c-0.1-0.4-0.5-0.5-0.9-0.4c-1.6,0.6-4.6,0.9-4.6,0.9c-0.4,0-0.7,0.4-0.6,0.7C645.9,211.8,646.2,212,646.6,212z"/>
			<circle class="st5" cx="653.3" cy="210.3" r="2.6"/>
		</g>
		<g>
			<path class="st5" d="M375.5,238.8c0.1,0,0.1-0.1,0.2-0.2c1.3-1.1,1.5-2.6,0.6-4c-0.2-0.3-0.5-0.3-0.8-0.1
				c-0.3,0.2-0.3,0.5-0.1,0.8c0.9,1.2,0,2.1-0.4,2.4c-1.1,0.9-3.6,1.4-5.3-0.5c-1.1-1.2-1.4-2.4-0.9-3.4c0.5-0.8,1.4-1.3,1.7-1.2
				c0.3,0.1,0.6-0.2,0.7-0.5c0.1-0.3-0.2-0.6-0.5-0.7c-0.9-0.1-2.3,0.5-2.9,1.8c-0.4,0.8-0.9,2.5,1.1,4.7
				C370.8,240.1,373.7,240,375.5,238.8z"/>
			<path class="st5" d="M370.7,234.8c-1.2-1.7-0.9-4,0.7-5.1c1.6-1.1,3.9-0.7,5.1,0.9c1.2,1.7,0.9,4-0.7,5.1
				C374.2,236.8,371.9,236.4,370.7,234.8z M371.7,234.1c0.8,1.2,2.4,1.5,3.5,0.7s1.3-2.3,0.5-3.5s-2.4-1.5-3.5-0.7
				C371.1,231.4,370.9,232.9,371.7,234.1z"/>
			<path class="st5" d="M373.8,254.7c1.9-1.3,3.3-3.2,4.3-5.4c1.9-4.4,1.3-9.5-1.4-12.8c-0.2-0.2-0.6-0.3-0.8-0.1
				c-0.2,0.2-0.3,0.6-0.1,0.8c2.4,3,2.9,7.7,1.2,11.7c-1.7,4.1-5.3,6.6-9.8,7.1c-3.9,0.4-7.4-0.8-10-3.4c-3.2-3.2-4.4-7.8-4.1-10.8
				c0.5-5.6,5.9-9,8.2-10.2c2.9-1.5,3.9-3.1,4.6-4.2c0.1-0.1,0.1-0.2,0.2-0.3l0.8,1.7c0.1,0.3,0.4,0.4,0.7,0.5
				c0.3,0,0.6-0.1,0.8-0.3l0.2-0.2c0.4,1.7,1.2,3.1,1.2,3.2c0.2,0.3,0.5,0.4,0.8,0.2c0.3-0.2,0.4-0.5,0.2-0.8c0,0-1-1.7-1.2-3.5
				c0-0.3-0.3-0.6-0.6-0.7c-0.3-0.1-0.7,0-0.9,0.3l-0.3,0.4l-0.8-1.7c-0.1-0.3-0.4-0.4-0.6-0.5c-0.3,0-0.6,0.1-0.7,0.3
				c-0.2,0.2-0.4,0.5-0.6,0.8c-0.6,1-1.5,2.4-4.1,3.8c-2.5,1.3-8.3,4.9-8.8,11.1c-0.3,3.2,1,8.2,4.5,11.7c2.8,2.8,6.6,4.1,10.9,3.7
				C369.8,256.8,372,256,373.8,254.7z"/>
			<path class="st5" d="M353.4,247c0.1-0.1,0.1-0.1,0.2-0.2c0.1-0.3,0-0.6-0.3-0.8c0,0-2.7-1.4-2.6-3.2c0-0.2,0.1-0.6,0.3-0.7
				c0.3-0.2,1.1,0.1,1.5,0.3c0.3,0.2,0.6,0.1,0.8-0.2c0.2-0.3,0.1-0.6-0.2-0.8c-0.2-0.1-1.5-0.9-2.6-0.3c-0.4,0.2-0.8,0.6-0.9,1.6
				c-0.2,2.6,3.1,4.2,3.3,4.3C353,247.1,353.3,247.1,353.4,247z"/>
			<ellipse transform="matrix(0.9776 -0.2106 0.2106 0.9776 -41.9975 82.2127)" class="st5" cx="365" cy="238.3" rx="1" ry="1.3"/>
			<ellipse transform="matrix(0.9776 -0.2106 0.2106 0.9776 -42.61 80.2482)" class="st5" cx="355.5" cy="240.2" rx="1" ry="1.3"/>
			<path class="st5" d="M361.5,240c0,0-1.2-1.6-2.4-1.4c-0.8,0.1-1.3,0.9-1.7,1.5c-0.2,0.3,0,0.7,0.4,0.7
				C359.1,240.7,361.7,240.6,361.5,240z"/>
			<path class="st5" d="M360.7,244.4c-0.3,0.2-0.7,0.2-1,0c-1-0.4-1.7-2.1-2.2-3.5c-0.1-0.5,0-0.9,0.4-1.2c1.2-0.8,2.4-0.8,3.1,0.1
				l0.1,0l0.2,0.5c0,0,1,3-0.4,4C360.8,244.3,360.8,244.4,360.7,244.4z M360.3,240.7c0,0-0.1-0.1-0.1-0.1c-0.4-0.6-1.1-0.2-1.6,0
				c0.6,1.7,1.2,2.6,1.5,2.8c0,0,0,0,0.1,0C360.8,243.1,360.5,241.3,360.3,240.7C360.3,240.7,360.3,240.7,360.3,240.7z"/>
			
				<ellipse transform="matrix(0.9953 -9.656839e-02 9.656839e-02 0.9953 -21.5605 36.4788)" class="st5" cx="366.1" cy="241" rx="1.6" ry="1"/>
			
				<ellipse transform="matrix(0.9953 -9.656839e-02 9.656839e-02 0.9953 -21.7834 35.4107)" class="st5" cx="354.9" cy="242.8" rx="1.4" ry="0.9"/>
			<path class="st5" d="M379,243.9C379.1,243.9,379.1,243.9,379,243.9c0.1-0.1,2-1.8,2.9-3.2c0.2-0.3,0.1-0.6-0.2-0.8
				c-0.3-0.2-0.6-0.1-0.8,0.2c-0.8,1.2-2.6,2.9-2.7,2.9c-0.2,0.2-0.3,0.6,0,0.8C378.5,244.1,378.8,244.1,379,243.9z"/>
			<circle class="st5" cx="382.7" cy="239.4" r="2.1"/>
		</g>
		<g>
			<path class="st5" d="M516.2,251.3c0.1,0,0.1,0,0.2,0c1.3-0.3,2-1.3,1.8-2.6c0-0.2-0.3-0.4-0.5-0.4c-0.2,0-0.4,0.3-0.4,0.5
				c0.2,1.1-0.7,1.5-1.1,1.6c-1.1,0.3-3-0.3-3.5-2.2c-0.4-1.2-0.2-2.2,0.5-2.7c0.6-0.4,1.4-0.4,1.6-0.2c0.2,0.1,0.5,0.1,0.6-0.1
				c0.1-0.2,0.1-0.5-0.1-0.6c-0.6-0.4-1.8-0.4-2.7,0.2c-0.6,0.4-1.5,1.5-0.8,3.7C512.5,250.6,514.6,251.6,516.2,251.3z"/>
			<path class="st5" d="M514.3,246.9c-0.3-1.6,0.8-3.1,2.3-3.3c1.5-0.3,3,0.8,3.2,2.4c0.3,1.6-0.8,3.1-2.3,3.3
				C516,249.5,514.5,248.4,514.3,246.9z M515.1,246.7c0.2,1.1,1.2,1.8,2.2,1.7c1-0.2,1.7-1.2,1.5-2.3c-0.2-1.1-1.2-1.8-2.2-1.7
				S515,245.6,515.1,246.7z"/>
			<path class="st5" d="M509.5,262c1.8-0.3,3.4-1.1,4.9-2.3c2.8-2.5,4.2-6.2,3.4-9.5c-0.1-0.2-0.3-0.4-0.5-0.3
				c-0.2,0.1-0.4,0.3-0.3,0.5c0.7,2.9-0.6,6.4-3.2,8.6c-2.6,2.3-6,2.9-9.3,1.6c-2.9-1.1-4.9-3.1-5.9-5.8c-1.2-3.4-0.4-7,0.8-9
				c2.3-3.8,7.3-4.3,9.3-4.3c2.6-0.1,3.8-0.9,4.7-1.4c0.1-0.1,0.2-0.1,0.2-0.1l0,1.4c0,0.2,0.1,0.4,0.3,0.6c0.2,0.1,0.4,0.1,0.6,0
				l0.2-0.1c-0.3,1.3-0.2,2.6-0.2,2.7c0,0.2,0.2,0.4,0.5,0.4c0.2,0,0.4-0.2,0.4-0.5c0,0-0.1-1.6,0.3-2.8c0.1-0.3,0-0.5-0.2-0.7
				c-0.2-0.2-0.5-0.2-0.7-0.1l-0.4,0.2l0-1.5c0-0.2-0.1-0.4-0.3-0.6c-0.2-0.1-0.4-0.1-0.6-0.1c-0.2,0.1-0.4,0.2-0.7,0.4
				c-0.8,0.5-1.9,1.2-4.2,1.2c-2.2,0.1-7.5,0.6-10,4.8c-1.3,2.1-2.1,6.1-0.9,9.7c1,3,3.2,5.2,6.4,6.3
				C506,262.1,507.8,262.2,509.5,262z"/>
			<path class="st5" d="M497.9,249.5c0.1,0,0.1,0,0.2-0.1c0.2-0.2,0.2-0.4,0.1-0.6c0,0-1.5-1.9-0.7-3.1c0.1-0.2,0.3-0.4,0.4-0.4
				c0.3,0,0.7,0.5,0.9,0.7c0.1,0.2,0.4,0.3,0.6,0.1c0.2-0.1,0.3-0.4,0.1-0.6c-0.1-0.1-0.8-1.1-1.7-1.1c-0.3,0-0.8,0.2-1.2,0.8
				c-1,1.7,0.7,4,0.8,4.1C497.6,249.5,497.7,249.5,497.9,249.5z"/>
			<ellipse transform="matrix(0.2399 -0.9708 0.9708 0.2399 146.735 682.2144)" class="st5" cx="509" cy="247.4" rx="1" ry="0.8"/>
			
				<ellipse transform="matrix(0.2399 -0.9708 0.9708 0.2399 143.0334 673.6035)" class="st5" cx="501.7" cy="245.5" rx="1" ry="0.8"/>
			<path class="st5" d="M506,247.4c0,0-0.3-1.5-1.2-1.8c-0.6-0.2-1.3,0.2-1.7,0.5c-0.2,0.1-0.2,0.5,0,0.6
				C504,247,505.9,247.9,506,247.4z"/>
			<path class="st5" d="M503.9,250.2c-0.3,0-0.5-0.1-0.7-0.3c-0.5-0.6-0.5-2.1-0.3-3.2c0.1-0.4,0.3-0.6,0.7-0.7
				c1.1-0.2,2,0.3,2.1,1.1l0.1,0l0,0.4c0,0-0.3,2.4-1.7,2.7C504,250.2,503.9,250.2,503.9,250.2z M504.8,247.4c0,0,0-0.1,0-0.1
				c-0.1-0.5-0.7-0.6-1.1-0.5c-0.2,1.4-0.1,2.2,0.1,2.5c0,0,0,0,0,0C504.4,249.3,504.8,247.9,504.8,247.4
				C504.8,247.5,504.8,247.4,504.8,247.4z"/>
			
				<ellipse transform="matrix(0.3501 -0.9367 0.9367 0.3501 96.8416 638.8784)" class="st5" cx="508.8" cy="249.6" rx="0.8" ry="1.2"/>
			
				<ellipse transform="matrix(0.3501 -0.9367 0.9367 0.3501 93.7759 629.2909)" class="st5" cx="500.4" cy="247.1" rx="0.7" ry="1.1"/>
			<path class="st5" d="M516.9,256.2C517,256.2,517,256.2,516.9,256.2c0.1,0,2.1-0.6,3.1-1.2c0.2-0.1,0.3-0.4,0.1-0.6
				c-0.1-0.2-0.4-0.3-0.6-0.1c-1,0.6-2.8,1.1-2.9,1.1c-0.2,0.1-0.4,0.3-0.3,0.6C516.5,256.1,516.7,256.2,516.9,256.2z"/>
			<circle class="st5" cx="521" cy="254.2" r="1.7"/>
		</g>
	</g>
</g>
</svg>
