<?xml version="1.0" encoding="utf-8"?>
<!-- Generator: Adobe Illustrator 27.7.0, SVG Export Plug-In . SVG Version: 6.00 Build 0)  -->
<svg version="1.1" id="위치" xmlns="http://www.w3.org/2000/svg" xmlns:xlink="http://www.w3.org/1999/xlink" x="0px" y="0px"
	 viewBox="0 0 450 450" style="enable-background:new 0 0 450 450;" xml:space="preserve">
<style type="text/css">
	.st0{fill:#FFFFFF;stroke:#B7B7B7;stroke-width:9;stroke-miterlimit:10;}
</style>
<path class="st0" d="M78.5,217.4c24.6-12.4,78.3-47,112.8-124.6c2.5-5.7,10.6-5.5,12.9,0.2c12.4,30,45.6,92.6,116.3,126.1
	c5,2.4,5.4,9.4,0.7,12.3c-25.9,16.2-87.8,61.4-117.5,140.2c-2.2,6-10.7,6.1-13,0.2C177,337.7,142.2,266.3,78.1,229.8
	C73.4,227,73.5,219.9,78.5,217.4z"/>
<path class="st0" d="M292,98.9c9.5-4.8,30.3-18.2,43.6-48.2c1-2.2,4.1-2.1,5,0.1c4.8,11.6,17.6,35.8,45,48.7
	c1.9,0.9,2.1,3.6,0.3,4.7c-10,6.3-33.9,23.8-45.4,54.2c-0.9,2.3-4.1,2.3-5.1,0.1c-5.3-13.1-18.7-40.7-43.5-54.8
	C290,102.6,290.1,99.9,292,98.9z"/>
</svg>
