<?xml version="1.0" encoding="utf-8"?>
<!-- Generator: Adobe Illustrator 27.7.0, SVG Export Plug-In . SVG Version: 6.00 Build 0)  -->
<svg version="1.1" id="위치" xmlns="http://www.w3.org/2000/svg" xmlns:xlink="http://www.w3.org/1999/xlink" x="0px" y="0px"
	 viewBox="0 0 450 450" style="enable-background:new 0 0 450 450;" xml:space="preserve">
<style type="text/css">
	.st0{display:none;fill:#FFE7DF;stroke:#000000;stroke-width:6;stroke-miterlimit:10;}
	.st1{fill:none;stroke:#B7B7B7;stroke-width:9;stroke-miterlimit:10;}
</style>
<g>
	<path id="귀_1_" class="st0" d="M376.6,315.1c27,0,50.5,1.4,54.8-47.2s-36.8-47.6-36.8-47.6H57.1c0,0-41.1-1.2-36.8,47.6
		c4.3,48.7,27.8,47.2,54.8,47.2H376.6z"/>
</g>
<g>
	<path id="_x31__1_" class="st1" d="M389.1,164.3L219,337.3c-40.1,41.1-104.6,36.2-137.4-17.2L58.2,280
		c-26.1-45.1-3.4-102.9,46.2-118.4l237.5-73.9C388.6,73.5,423.1,129.8,389.1,164.3z M285.7,167.5l-114.5,45.6
		c-11.6,3.9-16.7,17.2-10.6,28.3l5.6,9.4c6.7,11.6,22.8,14.5,32.8,5l92.3-79C295.1,172.6,291.2,165.8,285.7,167.5z"/>
</g>
</svg>
