<?xml version="1.0" encoding="utf-8"?>
<!-- Generator: Adobe Illustrator 27.7.0, SVG Export Plug-In . SVG Version: 6.00 Build 0)  -->
<svg version="1.1" id="위치" xmlns="http://www.w3.org/2000/svg" xmlns:xlink="http://www.w3.org/1999/xlink" x="0px" y="0px"
	 viewBox="0 0 450 450" style="enable-background:new 0 0 450 450;" xml:space="preserve">
<style type="text/css">
	.st0{fill:#FFFFFF;stroke:#B7B7B7;stroke-width:9;stroke-miterlimit:10;}
	.st1{fill:none;stroke:#B7B7B7;stroke-width:9;stroke-miterlimit:10;}
</style>
<g>
	<path class="st0" d="M429.7,325.6L400.5,281c0,0-0.3-0.3-0.9-0.7c0,0.5,0,0.7,0,0.7s0,0-0.1,0c0,0-0.1,0-0.2,0
		c-0.2-0.1-0.5-0.1-0.9-0.3l0,0c-0.1,0-0.1,0-0.2-0.1c-0.1,0-0.1,0-0.2-0.1c-17.4-5.1-180.4-50.7-342.3-1.1c-0.6,0.4-1,0.6-1,0.6
		l-30.9,48c-15.7,24.1,7.1,54.7,34.7,46.6c43.5-12.7,102.1-23.8,174-23.8c67.7,0,122.1,9.9,162.8,21.6
		C422.8,380.3,445.4,349.6,429.7,325.6z"/>
</g>
<path class="st0" d="M54,280.1c0,0-10.5-198.6,166.1-198.6S399.6,281,399.6,281S225.9,226.6,54,280.1z"/>
<path class="st1" d="M220.1,81.5c8.7,0,16.9,0.5,24.8,1.4v-3.3c0-10-8.1-18.1-18.1-18.1s-18.1,8.1-18.1,18.1v2.2
	C212.4,81.6,216.2,81.5,220.1,81.5z"/>
<path class="st1" d="M147.2,261c0,0,8.1-124.8,70.3-176.3c4.7-3.9,11.6-3.4,15.8,1.1c16.6,17.8,55.6,69.8,63.8,174.3"/>
</svg>
