<?xml version="1.0" encoding="utf-8"?>
<!-- Generator: Adobe Illustrator 27.7.0, SVG Export Plug-In . SVG Version: 6.00 Build 0)  -->
<svg version="1.1" id="레이어_1" xmlns="http://www.w3.org/2000/svg" xmlns:xlink="http://www.w3.org/1999/xlink" x="0px"
	 y="0px" viewBox="0 0 800 800" style="enable-background:new 0 0 800 800;" xml:space="preserve">
<style type="text/css">
	.st0{fill:#FFFFFF;}
	.st1{fill:#FF0000;}
	.st2{fill:#8C5A31;}
	.st3{fill:none;}
</style>
<g>
	<circle class="st0" cx="400" cy="400" r="121.2"/>
	<g>
		<path class="st1" d="M473.9,465.8c4-1.2,7.1-1.2,7.4-1.2c3.1,0.1,5.5-2.4,5.5-5.4c0.1-3-2.3-5.5-5.3-5.6c-0.4,0-6.4-0.1-13.5,2.6
			c-2.9-5.2-5.4-10.6-7.5-16.2c4.6-1,8.2-0.7,8.2-0.6c3,0.3,5.7-1.8,6.1-4.8s-1.8-5.7-4.8-6.1c-0.4-0.1-5.9-0.6-12.8,1.1
			c-1.4-5.4-2.5-10.9-3.1-16.6c4.1-0.2,7,0.6,7.3,0.6c2.9,0.8,5.9-1,6.7-3.8c0.8-2.9-0.9-5.9-3.8-6.7c-0.4-0.1-4.8-1.3-10.8-1
			c0-0.8-0.1-1.5-0.1-2.3c0-4.9,0.3-9.7,0.9-14.5c3.4,0.8,5.6,2,5.8,2.1c0.8,0.5,1.7,0.7,2.6,0.7c1.9,0,3.8-1,4.8-2.8
			c1.5-2.6,0.5-5.9-2.1-7.4c-0.3-0.2-3.9-2.1-9.2-3.3c1.1-4.9,2.4-9.6,4.1-14.2c3.1,1.9,4.8,3.9,4.9,3.9c1.1,1.2,2.6,1.8,4,1.8
			c1.3,0,2.6-0.5,3.7-1.4c2.2-2,2.4-5.5,0.4-7.7c-0.3-0.3-3.4-3.7-8.7-6.7c2-4.2,4.3-8.3,6.8-12.3c2.8,2.5,4.3,4.8,4.3,4.9
			c1,1.7,2.8,2.6,4.6,2.6c1,0,2-0.3,2.9-0.8c2.6-1.6,3.4-4.9,1.8-7.5c-0.2-0.3-2.7-4.2-7.3-8.1c3.3-4.3,7-8.3,10.9-12.1
			c-2.5-2.7-5.1-5.2-7.8-7.6c-4.5,4.4-8.6,9-12.4,14c-3.8-1.6-8.3-2.8-13.4-2.8l0,0c-3,0-5.4,2.4-5.5,5.4c0,3,2.4,5.5,5.4,5.5
			c2.6,0,4.9,0.4,7,1.1c-2.8,4.4-5.3,9-7.6,13.8c-4-0.9-8.6-1.2-13.6-0.3c-3,0.5-4.9,3.4-4.4,6.3c0.5,3,3.4,4.9,6.3,4.4
			c2.6-0.5,5.1-0.5,7.3-0.1c-2,5.5-3.7,11.3-4.9,17.1c-4.4,0.3-9.2,1.4-14.1,4.1c-2.6,1.5-3.6,4.8-2.2,7.4s4.8,3.6,7.4,2.2
			c2.4-1.3,4.7-2.1,7-2.5c-0.6,4.9-0.9,9.8-0.9,14.9c0,1.5,0.1,2.9,0.1,4.4c-3.9,1.4-7.9,3.6-11.6,7c-2.2,2-2.4,5.5-0.3,7.7
			c1.1,1.2,2.5,1.8,4,1.8c1.3,0,2.6-0.5,3.7-1.4c1.6-1.5,3.4-2.7,5.1-3.6c0.8,6.2,2,12.2,3.6,18.1c-3.1,1.9-6.1,4.3-8.8,7.7
			c-1.9,2.3-1.5,5.8,0.8,7.7c1,0.8,2.2,1.2,3.4,1.2c1.6,0,3.2-0.7,4.3-2c1.2-1.5,2.5-2.7,3.8-3.7c2.2,5.9,4.9,11.6,7.9,17
			c-2.6,2.1-5.2,4.7-7.3,8c-1.7,2.5-0.9,5.9,1.6,7.6c0.9,0.6,2,0.9,3,0.9c1.8,0,3.5-0.9,4.6-2.5c1.2-1.8,2.6-3.3,4-4.6
			c4.8,7,10.2,13.5,16.3,19.4c2.7-2.4,5.3-5,7.8-7.6C483,477.7,478.2,472,473.9,465.8z"/>
		<path class="st1" d="M311.6,317.1c3.9,3.8,7.6,7.8,10.9,12.1c-4.6,3.9-7.1,7.8-7.3,8.1c-1.6,2.6-0.8,5.9,1.8,7.5
			c0.9,0.6,1.9,0.8,2.9,0.8c1.8,0,3.6-0.9,4.6-2.6c0-0.1,1.5-2.4,4.3-4.9c2.5,3.9,4.8,8,6.8,12.3c-5.3,3-8.5,6.4-8.7,6.7
			c-2,2.2-1.9,5.7,0.4,7.7c1,0.9,2.4,1.4,3.7,1.4c1.5,0,3-0.6,4-1.8c0,0,1.8-2,4.9-3.9c1.7,4.6,3,9.3,4.1,14.2
			c-5.4,1.2-8.9,3.2-9.2,3.3c-2.6,1.5-3.5,4.8-2.1,7.4c1,1.8,2.9,2.8,4.8,2.8c0.9,0,1.8-0.2,2.6-0.7c0.2-0.1,2.4-1.3,5.8-2.1
			c0.6,4.7,0.9,9.6,0.9,14.5c0,0.8,0,1.5-0.1,2.3c-6.1-0.3-10.5,0.9-10.8,1c-2.9,0.8-4.6,3.8-3.8,6.7c0.8,2.9,3.8,4.6,6.7,3.8
			c0.3-0.1,3.2-0.8,7.3-0.6c-0.6,5.7-1.7,11.2-3.1,16.6c-6.9-1.7-12.4-1.1-12.8-1.1c-3,0.4-5.1,3.1-4.8,6.1c0.4,3,3.1,5.1,6.1,4.8
			c0.1,0,3.6-0.4,8.2,0.6c-2.1,5.6-4.6,11.1-7.5,16.2c-7.1-2.7-13.1-2.6-13.5-2.6c-3,0.1-5.4,2.6-5.3,5.6s2.5,5.4,5.5,5.4
			c0.3,0,3.4,0,7.4,1.2c-4.3,6.1-9.1,11.8-14.5,17c2.5,2.7,5.1,5.2,7.8,7.6c6-5.9,11.5-12.4,16.3-19.4c1.4,1.3,2.8,2.8,4,4.6
			c1,1.6,2.8,2.5,4.6,2.5c1,0,2.1-0.3,3-0.9c2.5-1.7,3.2-5,1.6-7.6c-2.2-3.3-4.7-5.9-7.3-8c3-5.4,5.7-11.1,7.9-17
			c1.3,1,2.6,2.2,3.8,3.7c1.1,1.3,2.7,2,4.3,2c1.2,0,2.4-0.4,3.4-1.2c2.4-1.9,2.7-5.3,0.8-7.7c-2.7-3.3-5.7-5.8-8.8-7.7
			c1.6-5.9,2.9-11.9,3.6-18.1c1.7,0.9,3.5,2,5.1,3.6c1,1,2.4,1.4,3.7,1.4c1.5,0,2.9-0.6,4-1.8c2-2.2,1.9-5.7-0.3-7.7
			c-3.7-3.4-7.7-5.6-11.6-7c0-1.4,0.1-2.9,0.1-4.4c0-5-0.3-10-0.9-14.9c2.3,0.4,4.6,1.2,7,2.5c2.6,1.5,6,0.5,7.4-2.2
			c1.5-2.6,0.5-6-2.2-7.4c-4.8-2.7-9.6-3.8-14.1-4.1c-1.2-5.9-2.9-11.6-4.9-17.1c2.3-0.3,4.7-0.3,7.3,0.1c3,0.5,5.8-1.4,6.3-4.4
			s-1.4-5.8-4.4-6.3c-5-0.9-9.6-0.6-13.6,0.3c-2.2-4.8-4.8-9.4-7.6-13.8c2.1-0.7,4.4-1.1,7-1.1c3,0,5.4-2.5,5.4-5.5
			s-2.5-5.4-5.5-5.4l0,0c-5.1,0-9.5,1.1-13.4,2.8c-3.8-5-7.9-9.6-12.4-14C316.7,311.9,314.1,314.5,311.6,317.1z"/>
	</g>
	<path d="M400,526.7c-69.8,0-126.7-56.8-126.7-126.7S330.2,273.3,400,273.3S526.7,330.1,526.7,400S469.8,526.7,400,526.7z
		 M400,284.2c-63.8,0-115.8,51.9-115.8,115.8s52,115.8,115.8,115.8s115.8-52,115.8-115.8S463.8,284.2,400,284.2z"/>
</g>
<g id="_x32__00000139284173730003390590000015329508720917973661_">
	<g id="_x32__00000088126787224670322260000002519412270608332984_">
		<g>
			<path class="st2" d="M282.5,565.6L161,487.9c0,0-17.8-197.5,139.7-206.6c157.5-9.2,115.8,125.9,115.8,125.9s50.6-14.4,44.3,30.9
				C454.3,483.2,391.9,548.8,282.5,565.6z"/>
			<path d="M465.1,417.7c2.1,5.9,2.6,12.8,1.5,21.1c-3.7,25.8-22.7,54.3-52.5,78.3c-24.1,19.4-66.2,44.5-130.7,54.5l-2.2,0.3
				l-126.1-80.4l-0.3-2.9c-0.3-4.2-8.6-104.4,44.9-166.5c24.6-28.5,58.4-44.3,100.6-46.8c51.4-3,88,8.8,108.7,34.9
				c23.7,30.4,19.3,71,15.4,89.2c9.5-1.1,23.8-1.2,33.2,7.1C461.2,409.6,463.5,413.4,465.1,417.7z M283.8,559.3
				c108.6-17.5,165.4-81.9,170.9-122.3c1.4-10.2-0.1-17.3-4.9-21.4c-8.5-7.4-25.8-4.4-31.8-2.8l-10.6,3.1l3.3-10.6
				c0.1-0.5,16-53.2-11-87.8c-18-23.1-51.2-33.2-98.4-30.5c-38.7,2.2-69.6,16.7-92.1,42.7c-45.5,52.6-43.2,137.9-42.3,154.7
				L283.8,559.3z"/>
		</g>
		<g>
			<polygon class="st2" points="282.5,565.6 267.2,592.3 150.2,514.5 163.4,487 			"/>
			<path d="M290.5,563.7l-21.3,37l-126.9-84.1l18.8-38.4L290.5,563.7z M265.1,583.8l9.4-16.4l-108.7-71.6l-8.2,16.7L265.1,583.8z"/>
		</g>
		<g>
			<line class="st3" x1="245.3" y1="579.8" x2="263" y2="553"/>
			<rect x="238.2" y="560.4" transform="matrix(0.5488 -0.836 0.836 0.5488 -358.8241 468.0168)" width="31.9" height="12"/>
		</g>
		<g>
			<line class="st3" x1="219.7" y1="561" x2="238.2" y2="534.7"/>
			<rect x="212.9" y="541.8" transform="matrix(0.5744 -0.8186 0.8186 0.5744 -350.9885 420.6243)" width="32.1" height="12"/>
		</g>
		<g>
			<line class="st3" x1="196.7" y1="545.3" x2="214.1" y2="520.2"/>
			<rect x="190.1" y="526.8" transform="matrix(0.568 -0.823 0.823 0.568 -349.8152 399.1221)" width="30.4" height="12"/>
		</g>
		<g>
			<line class="st3" x1="174.8" y1="530.6" x2="189.9" y2="504"/>
			<rect x="166.8" y="511.2" transform="matrix(0.4976 -0.8674 0.8674 0.4976 -357.1202 417.8414)" width="30.7" height="12"/>
		</g>
		<rect x="328.5" y="334.5" transform="matrix(0.3383 -0.941 0.941 0.3383 -74.697 574.8132)" width="85.8" height="12"/>
		<rect x="263.8" y="320.2" transform="matrix(0.1676 -0.9859 0.9859 0.1676 -64.4968 576.0641)" width="90.1" height="12"/>
		
			<rect x="206.9" y="325.8" transform="matrix(3.413495e-02 -0.9994 0.9994 3.413495e-02 -95.738 564.4792)" width="74.5" height="12"/>
		<g>
			<g>
				<polygon class="st2" points="353.7,324.3 390.9,321.6 393.9,325.6 356.6,328.1 				"/>
				<path d="M353.7,324.3l37.3-2.5l2.9,3.8l-37.3,2.5L353.7,324.3 M349.1,322.2l2.6,3.7l2.9,3.8l0.9,1l1.2-0.2l37.3-2.5l4.5-0.3
					l-2.6-3.7l-2.9-3.8l-0.9-1l-1.2,0.2l-37.3,2.5L349.1,322.2L349.1,322.2z"/>
			</g>
			<g>
				<polygon class="st2" points="365,309.8 387.5,339.7 382.6,340.2 360.2,310 				"/>
				<path d="M360.2,310l4.8-0.2l22.5,29.9l-4.8,0.2L360.2,310 M355.6,307.8l2.6,3.7l22.5,29.9l0.9,1l1.2-0.2l4.8-0.2l4.5-0.3
					l-2.6-3.7l-22.5-29.9l-0.9-1l-1.2,0.2l-4.8,0.2L355.6,307.8L355.6,307.8z"/>
			</g>
		</g>
		<g>
			<g>
				<polygon class="st2" points="291.7,316.4 324.7,299.1 329.1,301.4 295.8,318.7 				"/>
				<path d="M291.7,316.4l33.2-17.3l4.2,2.3l-33.2,17.3L291.7,316.4 M286.6,316.4l3.8,2.2l4.2,2.3l1.2,0.6l1-0.6l33.2-17.3l3.8-2.1
					l-3.8-2.2l-4.2-2.3l-1.2-0.6l-1,0.6l-33.2,17.3L286.6,316.4L286.6,316.4z"/>
			</g>
			<g>
				<polygon class="st2" points="296.2,298.5 328.9,317 324.6,319.3 291.9,300.8 				"/>
				<path d="M291.9,300.8l4.3-2.3l32.6,18.3l-4.3,2.3L291.9,300.8 M286.8,300.8l3.8,2.2l32.6,18.3l1.2,0.6l1-0.6l4.3-2.3l3.8-2.1
					l-3.8-2.2l-32.6-18.3l-1.2-0.6l-1,0.6l-4.3,2.3L286.8,300.8L286.8,300.8z"/>
			</g>
		</g>
		<g>
			<g>
				<polygon class="st2" points="232.1,339.7 252.5,308.1 257.4,308.1 236.8,339.5 				"/>
				<path d="M232.1,339.7l20.5-31.4l4.9,0l-20.5,31.4L232.1,339.7 M227.8,342l4.3,0l4.9,0l1.3,0l0.7-1l20.5-31.4l2.5-3.7l-4.3,0
					l-4.9,0l-1.3,0l-0.7,1l-20.5,31.4L227.8,342L227.8,342z"/>
			</g>
			<g>
				<polygon class="st2" points="227.4,321.8 264.9,322 262.1,326.1 224.8,325.8 				"/>
				<path d="M224.8,325.8l2.6-4l37.5,0.2l-2.6,4L224.8,325.8 M220.3,328.2l4.3,0l37.5,0.2l1.3,0l0.7-1l2.6-4l2.5-3.7l-4.3,0
					l-37.5-0.2l-1.3,0l-0.7,1l-2.6,4L220.3,328.2L220.3,328.2z"/>
			</g>
		</g>
	</g>
</g>
</svg>
