<?xml version="1.0" encoding="utf-8"?>
<!-- Generator: Adobe Illustrator 27.7.0, SVG Export Plug-In . SVG Version: 6.00 Build 0)  -->
<svg version="1.1" id="레이어_1" xmlns="http://www.w3.org/2000/svg" xmlns:xlink="http://www.w3.org/1999/xlink" x="0px"
	 y="0px" viewBox="0 0 800 800" style="enable-background:new 0 0 800 800;" xml:space="preserve">
<style type="text/css">
	.st0{fill:#F9F5F2;}
	.st1{clip-path:url(#SVGID_00000102535845617501431120000002969441484454461363_);}
	.st2{clip-path:url(#SVGID_00000036221513708953755260000003147283842259892911_);fill:#F24922;}
	.st3{clip-path:url(#SVGID_00000142165976033891253280000009307638033317547666_);}
	.st4{clip-path:url(#SVGID_00000134225566029365773410000001643920026992353160_);}
	.st5{clip-path:url(#SVGID_00000085226747012559277350000010906063059579264165_);}
	.st6{clip-path:url(#SVGID_00000090977655961168284430000011825923867255354758_);}
	.st7{fill:#FFECDE;}
	.st8{clip-path:url(#SVGID_00000073713508601973319520000004172146708987870339_);}
	.st9{clip-path:url(#SVGID_00000164475503078014602820000013575402533580555947_);}
	.st10{clip-path:url(#SVGID_00000149358809654616771770000006749157865222036355_);}
	.st11{clip-path:url(#SVGID_00000045608520248063106010000003623138231745495985_);fill:#F24922;}
	.st12{clip-path:url(#SVGID_00000011016676395740035450000001944110311330967463_);}
	.st13{clip-path:url(#SVGID_00000131367617796798242650000008020097361350384820_);fill:#F24922;}
	.st14{clip-path:url(#SVGID_00000160164865679520254140000007213064597340795837_);}
	.st15{clip-path:url(#SVGID_00000030465682164666373060000009481373041450893195_);}
	.st16{clip-path:url(#SVGID_00000124120476558556944700000010633797688596186504_);}
	.st17{clip-path:url(#SVGID_00000179625139070698203870000013530276545261879971_);}
	.st18{clip-path:url(#SVGID_00000039823592520923380290000005573027513026152867_);}
	.st19{clip-path:url(#SVGID_00000072245321287069037000000000324662608088948646_);}
	.st20{clip-path:url(#SVGID_00000081634187042109969430000003080974858364377022_);}
	.st21{clip-path:url(#SVGID_00000010298839069836616320000012722107845837001894_);fill:#F24922;}
	.st22{clip-path:url(#SVGID_00000134250004514651671740000017062690745228472983_);}
	.st23{clip-path:url(#SVGID_00000153701252858417824770000004312539891067568267_);}
	.st24{clip-path:url(#SVGID_00000094611250926719836540000016668261218449130140_);}
	.st25{clip-path:url(#SVGID_00000173844251910816434110000012933405785964154246_);}
	.st26{clip-path:url(#SVGID_00000102512438002827379770000011737871675503354772_);}
	.st27{clip-path:url(#SVGID_00000047743521953357963320000006301166716851018895_);}
	.st28{clip-path:url(#SVGID_00000038394509611411141930000000325860452202163901_);}
	.st29{clip-path:url(#SVGID_00000056412564353082941630000001769648457326089407_);fill:#F24922;}
	.st30{clip-path:url(#SVGID_00000156574717320506525380000014011115013751335838_);}
	.st31{clip-path:url(#SVGID_00000006703468520897420670000013968839487499017881_);fill:#F24922;}
	.st32{clip-path:url(#SVGID_00000024720398397259488650000018349533764461613475_);}
	.st33{clip-path:url(#SVGID_00000146478593549957546540000008297602498214237578_);}
	.st34{clip-path:url(#SVGID_00000170258782725301191750000016246874190093012376_);}
	.st35{clip-path:url(#SVGID_00000136392415241213474030000014556793489388928931_);}
	.st36{clip-path:url(#SVGID_00000100358804638594884380000013653742817730243740_);}
	.st37{clip-path:url(#SVGID_00000065044012584712647720000003506561259204594081_);}
</style>
<g id="_x33_">
	<g id="_x33__00000072981339844164507270000016083705355312080007_">
		<g>
			<g>
				<g>
					<path id="XMLID_00000001628173275877989690000011521208063503488187_" class="st0" d="M543.6,72.7c0,0-40.1-10.7-51.6,33.2
						C480.5,149.8,428.9,677,428.9,677s-30.2,0.8-33.3,41.1c-3.1,40.3,79.4,57,97.4,16.1c18-40.8-14.9-47.2-14.9-47.2L582.7,134
						C582.6,134,598.4,84.1,543.6,72.7z"/>
				</g>
				<g>
					<defs>
						<path id="SVGID_1_" d="M543.6,72.7c0,0-40.1-10.7-51.6,33.2C480.5,149.8,428.9,677,428.9,677s-30.2,0.8-33.3,41.1
							c-3.1,40.3,79.4,57,97.4,16.1c18-40.8-14.9-47.2-14.9-47.2L582.7,134C582.6,134,598.4,84.1,543.6,72.7z"/>
					</defs>
					<clipPath id="SVGID_00000143591869168502792850000004423064812286585246_">
						<use xlink:href="#SVGID_1_"  style="overflow:visible;"/>
					</clipPath>
				</g>
				<g>
					<defs>
						<path id="SVGID_00000057869240176552728180000002245072203799607993_" d="M543.6,72.7c0,0-40.1-10.7-51.6,33.2
							C480.5,149.8,428.9,677,428.9,677s-30.2,0.8-33.3,41.1c-3.1,40.3,79.4,57,97.4,16.1c18-40.8-14.9-47.2-14.9-47.2L582.7,134
							C582.6,134,598.4,84.1,543.6,72.7z"/>
					</defs>
					<defs>
						<path id="SVGID_00000088843743697532717390000009143368733480948367_" d="M543.6,72.7c0,0-40.1-10.7-51.6,33.2
							C480.5,149.8,428.9,677,428.9,677s-30.2,0.8-33.3,41.1c-3.1,40.3,79.4,57,97.4,16.1c18-40.8-14.9-47.2-14.9-47.2L582.7,134
							C582.6,134,598.4,84.1,543.6,72.7z"/>
					</defs>
					<clipPath id="SVGID_00000134248847071482555830000003684371318637151385_">
						<use xlink:href="#SVGID_00000057869240176552728180000002245072203799607993_"  style="overflow:visible;"/>
					</clipPath>
					
						<clipPath id="SVGID_00000149355265144112572730000000947516707927822224_" style="clip-path:url(#SVGID_00000134248847071482555830000003684371318637151385_);">
						<use xlink:href="#SVGID_00000088843743697532717390000009143368733480948367_"  style="overflow:visible;"/>
					</clipPath>
					<path style="clip-path:url(#SVGID_00000149355265144112572730000000947516707927822224_);fill:#F24922;" d="M441.1,459.6
						l93.4,13.8L603.9,78c0,0-107.5-29.6-111.2-23.6c-3.7,5.9-40.8,30.6-45.5,79.7C442.4,183.1,441.1,459.6,441.1,459.6z"/>
				</g>
				<g>
					<defs>
						<path id="SVGID_00000151503318109469235140000008435387915777362054_" d="M543.6,72.7c0,0-40.1-10.7-51.6,33.2
							C480.5,149.8,428.9,677,428.9,677s-30.2,0.8-33.3,41.1c-3.1,40.3,79.4,57,97.4,16.1c18-40.8-14.9-47.2-14.9-47.2L582.7,134
							C582.6,134,598.4,84.1,543.6,72.7z"/>
					</defs>
					<defs>
						<path id="SVGID_00000121257155304430168890000017835643366595215533_" d="M543.6,72.7c0,0-40.1-10.7-51.6,33.2
							C480.5,149.8,428.9,677,428.9,677s-30.2,0.8-33.3,41.1c-3.1,40.3,79.4,57,97.4,16.1c18-40.8-14.9-47.2-14.9-47.2L582.7,134
							C582.6,134,598.4,84.1,543.6,72.7z"/>
					</defs>
					<clipPath id="SVGID_00000021814810359488692900000009638611866629767827_">
						<use xlink:href="#SVGID_00000151503318109469235140000008435387915777362054_"  style="overflow:visible;"/>
					</clipPath>
					
						<clipPath id="SVGID_00000031199870480252354040000015701466782454127276_" style="clip-path:url(#SVGID_00000021814810359488692900000009638611866629767827_);">
						<use xlink:href="#SVGID_00000121257155304430168890000017835643366595215533_"  style="overflow:visible;"/>
					</clipPath>
					<path style="clip-path:url(#SVGID_00000031199870480252354040000015701466782454127276_);" d="M560.1,245.6l-15.2,9.5
						c0,0,11.5-25,4.1-45c0,0-11.6,21.9-19.4,28.3c-8.8,7.1-29.9,18.4-44.7,46.2c-16.4,30.7-14,37.5-14,37.5s-11.1,16.5-2.8,22.5
						c8.3,6.2,11.3-3.2,11.3-3.2s-4.6-4.3,1.2-9c5.8-4.7,14.9-4.3,14.9-4.3s5.5,28.7,6.3,28.2s30.7-30,37-37.8
						c6.3-7.8,4.7-13.1,4.7-13.1s1.8,1.1,10.4-6.7C562.5,290.9,566.5,249.6,560.1,245.6z"/>
				</g>
				<g>
					<defs>
						<path id="SVGID_00000132786059468459324350000002227898660794978224_" d="M543.6,72.7c0,0-40.1-10.7-51.6,33.2
							C480.5,149.8,428.9,677,428.9,677s-30.2,0.8-33.3,41.1c-3.1,40.3,79.4,57,97.4,16.1c18-40.8-14.9-47.2-14.9-47.2L582.7,134
							C582.6,134,598.4,84.1,543.6,72.7z"/>
					</defs>
					<defs>
						<path id="SVGID_00000065058023897589554160000013083897451216134314_" d="M543.6,72.7c0,0-40.1-10.7-51.6,33.2
							C480.5,149.8,428.9,677,428.9,677s-30.2,0.8-33.3,41.1c-3.1,40.3,79.4,57,97.4,16.1c18-40.8-14.9-47.2-14.9-47.2L582.7,134
							C582.6,134,598.4,84.1,543.6,72.7z"/>
					</defs>
					<clipPath id="SVGID_00000003796084078496084690000013522142955145162919_">
						<use xlink:href="#SVGID_00000132786059468459324350000002227898660794978224_"  style="overflow:visible;"/>
					</clipPath>
					
						<clipPath id="SVGID_00000054263308712720020050000001054180013766635168_" style="clip-path:url(#SVGID_00000003796084078496084690000013522142955145162919_);">
						<use xlink:href="#SVGID_00000065058023897589554160000013083897451216134314_"  style="overflow:visible;"/>
					</clipPath>
					<g style="clip-path:url(#SVGID_00000054263308712720020050000001054180013766635168_);">
						<path class="st7" d="M544.6,225.4c0,0,0.6,16.3-6.9,26.8c-7.5,10.5-21.8,18.6-24.4,24.3c-2.5,5.7,1.3,9,1.3,9
							s16.2-14.2,20.1-21.5c0,0,2.7,11.4-2.8,20.2c-5.4,8.8-15.3,15.4-15.3,15.4l1.7,11.2c0,0,8-5.2,12.2-9.5
							c4.2-4.3,7.8-11.7,7.8-11.7s3.1,14.6-6.9,26.8s-28.8,27.7-28.8,27.7l-5-23.4c0,0-11.8-1.4-18,6.3c-6.3,7.8-5.1,16.9-5.1,16.9
							s-5.7,1.4-6.6-5c-0.9-6.3,4.4-16.7,4.4-16.7s1.6-16,13.4-34.9c11.8-18.9,19.6-29.2,34.9-39.1
							C536.2,238,544.6,225.4,544.6,225.4z"/>
					</g>
				</g>
				<g>
					<defs>
						<path id="SVGID_00000072959624724214443010000016283956516635470503_" d="M543.6,72.7c0,0-40.1-10.7-51.6,33.2
							C480.5,149.8,428.9,677,428.9,677s-30.2,0.8-33.3,41.1c-3.1,40.3,79.4,57,97.4,16.1c18-40.8-14.9-47.2-14.9-47.2L582.7,134
							C582.6,134,598.4,84.1,543.6,72.7z"/>
					</defs>
					<defs>
						<path id="SVGID_00000043455954872657388000000007348514441445272200_" d="M543.6,72.7c0,0-40.1-10.7-51.6,33.2
							C480.5,149.8,428.9,677,428.9,677s-30.2,0.8-33.3,41.1c-3.1,40.3,79.4,57,97.4,16.1c18-40.8-14.9-47.2-14.9-47.2L582.7,134
							C582.6,134,598.4,84.1,543.6,72.7z"/>
					</defs>
					<clipPath id="SVGID_00000167366227660838903830000004085980143397771430_">
						<use xlink:href="#SVGID_00000072959624724214443010000016283956516635470503_"  style="overflow:visible;"/>
					</clipPath>
					
						<clipPath id="SVGID_00000103958705195212638940000013024013250822673547_" style="clip-path:url(#SVGID_00000167366227660838903830000004085980143397771430_);">
						<use xlink:href="#SVGID_00000043455954872657388000000007348514441445272200_"  style="overflow:visible;"/>
					</clipPath>
					<g style="clip-path:url(#SVGID_00000103958705195212638940000013024013250822673547_);">
						<path class="st7" d="M559.2,248.9c0,0-14.9,9.2-17.5,16.4c-2.4,7.2-2.7,15.4-0.4,18.7c0,0-1.2,6.5-0.8,13.1
							c0.4,6.6,4,6.9,4,6.9s8.8-7.1,11.4-11.5C558.4,288.1,564.6,247.9,559.2,248.9z"/>
					</g>
				</g>
				<g>
					<defs>
						<path id="SVGID_00000165949924004153409860000009410456064255560339_" d="M543.6,72.7c0,0-40.1-10.7-51.6,33.2
							C480.5,149.8,428.9,677,428.9,677s-30.2,0.8-33.3,41.1c-3.1,40.3,79.4,57,97.4,16.1c18-40.8-14.9-47.2-14.9-47.2L582.7,134
							C582.6,134,598.4,84.1,543.6,72.7z"/>
					</defs>
					<defs>
						<path id="SVGID_00000093871088559220248450000013738267575671705022_" d="M543.6,72.7c0,0-40.1-10.7-51.6,33.2
							C480.5,149.8,428.9,677,428.9,677s-30.2,0.8-33.3,41.1c-3.1,40.3,79.4,57,97.4,16.1c18-40.8-14.9-47.2-14.9-47.2L582.7,134
							C582.6,134,598.4,84.1,543.6,72.7z"/>
					</defs>
					<clipPath id="SVGID_00000036239883398699605230000013223315536250500504_">
						<use xlink:href="#SVGID_00000165949924004153409860000009410456064255560339_"  style="overflow:visible;"/>
					</clipPath>
					
						<clipPath id="SVGID_00000132796043479826506140000002805119677219165066_" style="clip-path:url(#SVGID_00000036239883398699605230000013223315536250500504_);">
						<use xlink:href="#SVGID_00000093871088559220248450000013738267575671705022_"  style="overflow:visible;"/>
					</clipPath>
					<path style="clip-path:url(#SVGID_00000132796043479826506140000002805119677219165066_);fill:#F24922;" d="M543.4,229.4
						c0,0-12.7,17.4-27.2,25c-14.4,7.6-41.1,49.8-42.7,68.8c0,0-10.6,17.2-0.5,19.5c0,0-3.6-24.1,25.2-24.2l4.2,22.1
						c0,0,26.7-24.3,31.3-32.6c4.6-8.3,3.2-11.6,3.2-11.6s-6.1,7.4-9.8,9.4s-10.6,9.9-10.6,9.9l-2.8-18.2c0,0,17.9-9.2,18.7-27.2
						c0,0-16,17.3-20.6,18.4c0,0-6.5-11.4,0.7-19.1C519.6,262,542.2,255.9,543.4,229.4z"/>
				</g>
				<g>
					<defs>
						<path id="SVGID_00000048483974016812853740000008954855689645387423_" d="M543.6,72.7c0,0-40.1-10.7-51.6,33.2
							C480.5,149.8,428.9,677,428.9,677s-30.2,0.8-33.3,41.1c-3.1,40.3,79.4,57,97.4,16.1c18-40.8-14.9-47.2-14.9-47.2L582.7,134
							C582.6,134,598.4,84.1,543.6,72.7z"/>
					</defs>
					<defs>
						<path id="SVGID_00000176032856541230719080000017173424008317523858_" d="M543.6,72.7c0,0-40.1-10.7-51.6,33.2
							C480.5,149.8,428.9,677,428.9,677s-30.2,0.8-33.3,41.1c-3.1,40.3,79.4,57,97.4,16.1c18-40.8-14.9-47.2-14.9-47.2L582.7,134
							C582.6,134,598.4,84.1,543.6,72.7z"/>
					</defs>
					<clipPath id="SVGID_00000005268212441869357350000018202357964411506311_">
						<use xlink:href="#SVGID_00000048483974016812853740000008954855689645387423_"  style="overflow:visible;"/>
					</clipPath>
					
						<clipPath id="SVGID_00000028292098512824000700000017503538809217547195_" style="clip-path:url(#SVGID_00000005268212441869357350000018202357964411506311_);">
						<use xlink:href="#SVGID_00000176032856541230719080000017173424008317523858_"  style="overflow:visible;"/>
					</clipPath>
					<path style="clip-path:url(#SVGID_00000028292098512824000700000017503538809217547195_);fill:#F24922;" d="M559.3,252.1
						c0,0-16.6,11.2-17.5,16.4s-0.6,11.3,0.1,11.7c0.7,0.4,5.5-4.9,6.2-8.3c0.7-3.4,1.5-7.8,6.9-10.4c0,0,0.4,8-2.2,11.3
						s-8.2,4.5-9.4,13.6c-1.2,9,0.2,14.7,0.2,14.7s8.3-6.5,11.1-11.6C557.4,284.4,559.4,251.9,559.3,252.1z"/>
				</g>
				<g>
					<defs>
						<path id="SVGID_00000021839189797917884700000011548349837090632598_" d="M543.6,72.7c0,0-40.1-10.7-51.6,33.2
							C480.5,149.8,428.9,677,428.9,677s-30.2,0.8-33.3,41.1c-3.1,40.3,79.4,57,97.4,16.1c18-40.8-14.9-47.2-14.9-47.2L582.7,134
							C582.6,134,598.4,84.1,543.6,72.7z"/>
					</defs>
					<defs>
						<path id="SVGID_00000109000837707196809210000014477735018878171814_" d="M543.6,72.7c0,0-40.1-10.7-51.6,33.2
							C480.5,149.8,428.9,677,428.9,677s-30.2,0.8-33.3,41.1c-3.1,40.3,79.4,57,97.4,16.1c18-40.8-14.9-47.2-14.9-47.2L582.7,134
							C582.6,134,598.4,84.1,543.6,72.7z"/>
					</defs>
					<clipPath id="SVGID_00000106114566361085316830000002713581148645393590_">
						<use xlink:href="#SVGID_00000021839189797917884700000011548349837090632598_"  style="overflow:visible;"/>
					</clipPath>
					
						<clipPath id="SVGID_00000109017740841878501230000000319578461417018779_" style="clip-path:url(#SVGID_00000106114566361085316830000002713581148645393590_);">
						<use xlink:href="#SVGID_00000109000837707196809210000014477735018878171814_"  style="overflow:visible;"/>
					</clipPath>
					<g style="clip-path:url(#SVGID_00000109017740841878501230000000319578461417018779_);">
						<path class="st7" d="M552.8,279.5c0,0-3.5,0.2-5,5.6c-1.5,5.5,0.5,7,2.7,5.1C552.8,288.3,552.8,279.5,552.8,279.5z"/>
					</g>
				</g>
				<g>
					<defs>
						<path id="SVGID_00000115480198714003919210000017554919666641279659_" d="M543.6,72.7c0,0-40.1-10.7-51.6,33.2
							C480.5,149.8,428.9,677,428.9,677s-30.2,0.8-33.3,41.1c-3.1,40.3,79.4,57,97.4,16.1c18-40.8-14.9-47.2-14.9-47.2L582.7,134
							C582.6,134,598.4,84.1,543.6,72.7z"/>
					</defs>
					<defs>
						<path id="SVGID_00000133487054006844092630000016084655020957165456_" d="M543.6,72.7c0,0-40.1-10.7-51.6,33.2
							C480.5,149.8,428.9,677,428.9,677s-30.2,0.8-33.3,41.1c-3.1,40.3,79.4,57,97.4,16.1c18-40.8-14.9-47.2-14.9-47.2L582.7,134
							C582.6,134,598.4,84.1,543.6,72.7z"/>
					</defs>
					<clipPath id="SVGID_00000139280174349268074680000007093252717494961071_">
						<use xlink:href="#SVGID_00000115480198714003919210000017554919666641279659_"  style="overflow:visible;"/>
					</clipPath>
					
						<clipPath id="SVGID_00000120554659742276055770000003979001100949118095_" style="clip-path:url(#SVGID_00000139280174349268074680000007093252717494961071_);">
						<use xlink:href="#SVGID_00000133487054006844092630000016084655020957165456_"  style="overflow:visible;"/>
					</clipPath>
					<g style="clip-path:url(#SVGID_00000120554659742276055770000003979001100949118095_);">
						<path class="st7" d="M475.1,326.9c0.1,0.9,9.2-14.2,22.8-18c0,0-4-10.8-2.2-15.9c1.8-5.2,8.4-15.1,8.3-14.8
							c-0.2,0.4-16.8,17.8-21,25.3c-4.3,7.6-5.9,14.3-5.9,14.3l4.7-6.9C481.6,310.9,475,323.8,475.1,326.9z"/>
					</g>
				</g>
				<g>
					<defs>
						<path id="SVGID_00000057866888159516114470000012238502531294184594_" d="M543.6,72.7c0,0-40.1-10.7-51.6,33.2
							C480.5,149.8,428.9,677,428.9,677s-30.2,0.8-33.3,41.1c-3.1,40.3,79.4,57,97.4,16.1c18-40.8-14.9-47.2-14.9-47.2L582.7,134
							C582.6,134,598.4,84.1,543.6,72.7z"/>
					</defs>
					<defs>
						<path id="SVGID_00000155853129562964049310000016007632656445652382_" d="M543.6,72.7c0,0-40.1-10.7-51.6,33.2
							C480.5,149.8,428.9,677,428.9,677s-30.2,0.8-33.3,41.1c-3.1,40.3,79.4,57,97.4,16.1c18-40.8-14.9-47.2-14.9-47.2L582.7,134
							C582.6,134,598.4,84.1,543.6,72.7z"/>
					</defs>
					<clipPath id="SVGID_00000176012475011032275070000013612704369029717914_">
						<use xlink:href="#SVGID_00000057866888159516114470000012238502531294184594_"  style="overflow:visible;"/>
					</clipPath>
					
						<clipPath id="SVGID_00000016045386386286871030000002233820234886301608_" style="clip-path:url(#SVGID_00000176012475011032275070000013612704369029717914_);">
						<use xlink:href="#SVGID_00000155853129562964049310000016007632656445652382_"  style="overflow:visible;"/>
					</clipPath>
					<g style="clip-path:url(#SVGID_00000016045386386286871030000002233820234886301608_);">
						<path d="M437.5,433.5c1.8,0.2,75.6,5.6,96,15.3c20.4,9.7-1.7,10.6-1.7,10.6s-81.1-15.8-110.4-14
							C392,447.1,437.5,433.5,437.5,433.5z"/>
					</g>
				</g>
			</g>
			<path id="XMLID_00000181060824211418925330000004604417311507965852_" d="M561.2,78.6c33.7,17.2,21.5,55.4,21.5,55.4l-104.5,553
				c0,0,2.9,0.6,6.4,2.4c8.6,4.4,21.2,16,8.5,44.8c-11.7,26.5-50.8,28.8-75.7,16.1c-13.4-6.9-22.9-18.1-21.7-32.2
				c3.1-40.3,33.3-41.1,33.3-41.1s51.7-527.4,63.1-571.1c11.5-43.7,51.6-33.2,51.6-33.2C550.7,74.2,556.4,76.2,561.2,78.6
				 M564.8,71.7c-5.7-2.9-12-5.1-19.3-6.6c-2.6-0.6-20.6-4.7-37.3,5c-11.4,6.6-19.3,17.9-23.6,33.6c-11.1,42-56.8,505.3-62.9,566.4
				c-3.5,0.9-7.9,2.6-12.5,5.6c-8.6,5.8-19.3,17.6-21.3,41.6c-1.3,16.1,8.3,30.6,25.9,39.7c18,9.2,41,10.9,58.9,4.6
				c12.9-4.6,22.4-13,27.5-24.5c6.4-14.6,7.8-27.1,4-37.4c-2.8-7.5-8.4-13.6-16-17.5c-0.4-0.2-0.7-0.4-1.1-0.6L590.4,136
				c0.7-2.3,3.2-12.1,2.1-23.9C590.6,94,581,80,564.8,71.7L564.8,71.7z"/>
		</g>
	</g>
	<g id="_x33__00000155846821391745178890000005521711800856346279_">
		<g>
			<g>
				<g>
					<path id="XMLID_00000063634445074734740700000014352853876636241318_" class="st0" d="M231.8,81.2c0,0-41,6.1-34.1,51
						s169,549.2,169,549.2s-27.4,12.7-14.2,51c13.2,38.3,95.5,20.7,95.8-24c0.3-44.6-32.5-37.4-32.5-37.4L292.1,122
						C291.9,121.9,286.7,69.9,231.8,81.2z"/>
				</g>
				<g>
					<defs>
						<path id="SVGID_00000140014874493666125800000012447858440706431379_" d="M231.8,81.2c0,0-41,6.1-34.1,51s169,549.2,169,549.2
							s-27.4,12.7-14.2,51c13.2,38.3,95.5,20.7,95.8-24c0.3-44.6-32.5-37.4-32.5-37.4L292.1,122C291.9,121.9,286.7,69.9,231.8,81.2z
							"/>
					</defs>
					<clipPath id="SVGID_00000154409667262860073890000010018216391391888799_">
						<use xlink:href="#SVGID_00000140014874493666125800000012447858440706431379_"  style="overflow:visible;"/>
					</clipPath>
				</g>
				<g>
					<defs>
						<path id="SVGID_00000152224740730150188630000016073321447859134609_" d="M231.8,81.2c0,0-41,6.1-34.1,51s169,549.2,169,549.2
							s-27.4,12.7-14.2,51c13.2,38.3,95.5,20.7,95.8-24c0.3-44.6-32.5-37.4-32.5-37.4L292.1,122C291.9,121.9,286.7,69.9,231.8,81.2z
							"/>
					</defs>
					<defs>
						<path id="SVGID_00000118387690563119061380000007508202314087049139_" d="M231.8,81.2c0,0-41,6.1-34.1,51s169,549.2,169,549.2
							s-27.4,12.7-14.2,51c13.2,38.3,95.5,20.7,95.8-24c0.3-44.6-32.5-37.4-32.5-37.4L292.1,122C291.9,121.9,286.7,69.9,231.8,81.2z
							"/>
					</defs>
					<clipPath id="SVGID_00000126324946940222395920000010328449619920331173_">
						<use xlink:href="#SVGID_00000152224740730150188630000016073321447859134609_"  style="overflow:visible;"/>
					</clipPath>
					
						<clipPath id="SVGID_00000110436177334139563250000010961645349752571788_" style="clip-path:url(#SVGID_00000126324946940222395920000010328449619920331173_);">
						<use xlink:href="#SVGID_00000118387690563119061380000007508202314087049139_"  style="overflow:visible;"/>
					</clipPath>
					<path style="clip-path:url(#SVGID_00000110436177334139563250000010961645349752571788_);fill:#F24922;" d="M291.5,476.9
						l91.2-24.4L289.2,62.1c0,0-110.4,15.6-111.4,22.5s-25.3,44.2-10.1,91.2S291.5,476.9,291.5,476.9z"/>
				</g>
				<g>
					<defs>
						<path id="SVGID_00000093170175178160950290000008907541756936339102_" d="M231.8,81.2c0,0-41,6.1-34.1,51s169,549.2,169,549.2
							s-27.4,12.7-14.2,51c13.2,38.3,95.5,20.7,95.8-24c0.3-44.6-32.5-37.4-32.5-37.4L292.1,122C291.9,121.9,286.7,69.9,231.8,81.2z
							"/>
					</defs>
					<defs>
						<path id="SVGID_00000115475001301909789800000013714859703024912791_" d="M231.8,81.2c0,0-41,6.1-34.1,51s169,549.2,169,549.2
							s-27.4,12.7-14.2,51c13.2,38.3,95.5,20.7,95.8-24c0.3-44.6-32.5-37.4-32.5-37.4L292.1,122C291.9,121.9,286.7,69.9,231.8,81.2z
							"/>
					</defs>
					<clipPath id="SVGID_00000151538414784583225390000012336942091444100773_">
						<use xlink:href="#SVGID_00000093170175178160950290000008907541756936339102_"  style="overflow:visible;"/>
					</clipPath>
					
						<clipPath id="SVGID_00000132790596113814220860000011690816961906427053_" style="clip-path:url(#SVGID_00000151538414784583225390000012336942091444100773_);">
						<use xlink:href="#SVGID_00000115475001301909789800000013714859703024912791_"  style="overflow:visible;"/>
					</clipPath>
					<path style="clip-path:url(#SVGID_00000132790596113814220860000011690816961906427053_);" d="M315.7,233.3l-10.2,14.8
						c0,0,0.6-27.5-14.1-42.9c0,0-1.9,24.7-6.6,33.6c-5.3,10-20.1,28.8-22.6,60.2c-2.9,34.7,2.1,39.9,2.1,39.9s-3.6,19.5,6.4,21.7
						c10,2.4,9.1-7.4,9.1-7.4s-5.9-2.1-2.5-8.8c3.4-6.6,11.9-9.9,11.9-9.9s16.4,24.1,17,23.4c0.5-0.8,16.2-39.7,18.9-49.4
						s-0.9-13.9-0.9-13.9s2.1,0.3,6.9-10.2C335.9,273.9,323.1,234.4,315.7,233.3z"/>
				</g>
				<g>
					<defs>
						<path id="SVGID_00000176750442360675513500000009341299076173015936_" d="M231.8,81.2c0,0-41,6.1-34.1,51s169,549.2,169,549.2
							s-27.4,12.7-14.2,51c13.2,38.3,95.5,20.7,95.8-24c0.3-44.6-32.5-37.4-32.5-37.4L292.1,122C291.9,121.9,286.7,69.9,231.8,81.2z
							"/>
					</defs>
					<defs>
						<path id="SVGID_00000147209937688364467320000004539850286041314998_" d="M231.8,81.2c0,0-41,6.1-34.1,51s169,549.2,169,549.2
							s-27.4,12.7-14.2,51c13.2,38.3,95.5,20.7,95.8-24c0.3-44.6-32.5-37.4-32.5-37.4L292.1,122C291.9,121.9,286.7,69.9,231.8,81.2z
							"/>
					</defs>
					<clipPath id="SVGID_00000095336016047365620650000016936485563626817211_">
						<use xlink:href="#SVGID_00000176750442360675513500000009341299076173015936_"  style="overflow:visible;"/>
					</clipPath>
					
						<clipPath id="SVGID_00000021808907563565497660000017285387082726001582_" style="clip-path:url(#SVGID_00000095336016047365620650000016936485563626817211_);">
						<use xlink:href="#SVGID_00000147209937688364467320000004539850286041314998_"  style="overflow:visible;"/>
					</clipPath>
					<g style="clip-path:url(#SVGID_00000021808907563565497660000017285387082726001582_);">
						<path class="st7" d="M293.4,220.9c0,0,7,14.8,4.3,27.3c-2.7,12.6-12.6,25.8-12.7,32c-0.1,6.2,4.8,7.8,4.8,7.8
							s9.2-19.5,9.9-27.7c0,0,7,9.4,5.4,19.6c-1.5,10.3-8,20.2-8,20.2l6.1,9.6c0,0,5.3-7.9,7.4-13.5s2.5-13.9,2.5-13.9
							s8.6,12.2,4.3,27.3c-4.3,15.2-15.4,36.9-15.4,36.9L288,327.1c0,0-11.4,3.4-14,13c-2.7,9.7,2.1,17.5,2.1,17.5s-4.7,3.5-8-1.9
							c-3.3-5.5-2.6-17-2.6-17s-4.9-15.3-1.6-37.4c3.3-22.1,6.4-34.6,16.6-49.7C290.7,235.9,293.4,220.9,293.4,220.9z"/>
					</g>
				</g>
				<g>
					<defs>
						<path id="SVGID_00000112603383301462543290000015938575794777011607_" d="M231.8,81.2c0,0-41,6.1-34.1,51s169,549.2,169,549.2
							s-27.4,12.7-14.2,51c13.2,38.3,95.5,20.7,95.8-24c0.3-44.6-32.5-37.4-32.5-37.4L292.1,122C291.9,121.9,286.7,69.9,231.8,81.2z
							"/>
					</defs>
					<defs>
						<path id="SVGID_00000027585896638573526500000002038271912711598484_" d="M231.8,81.2c0,0-41,6.1-34.1,51s169,549.2,169,549.2
							s-27.4,12.7-14.2,51c13.2,38.3,95.5,20.7,95.8-24c0.3-44.6-32.5-37.4-32.5-37.4L292.1,122C291.9,121.9,286.7,69.9,231.8,81.2z
							"/>
					</defs>
					<clipPath id="SVGID_00000140698319491806112480000008692272706274678409_">
						<use xlink:href="#SVGID_00000112603383301462543290000015938575794777011607_"  style="overflow:visible;"/>
					</clipPath>
					
						<clipPath id="SVGID_00000142859563249867755490000015858543904263378053_" style="clip-path:url(#SVGID_00000140698319491806112480000008692272706274678409_);">
						<use xlink:href="#SVGID_00000027585896638573526500000002038271912711598484_"  style="overflow:visible;"/>
					</clipPath>
					<g style="clip-path:url(#SVGID_00000142859563249867755490000015858543904263378053_);">
						<path class="st7" d="M316.1,236.7c0,0-10,14.3-9.5,22c0.6,7.5,3.6,15.2,7,17.3c0,0,1.5,6.5,4.5,12.4s6.4,4.7,6.4,4.7
							s5.3-10,5.9-15.1S320.8,233.6,316.1,236.7z"/>
					</g>
				</g>
				<g>
					<defs>
						<path id="SVGID_00000084489308131952815550000014450746518445118106_" d="M231.8,81.2c0,0-41,6.1-34.1,51s169,549.2,169,549.2
							s-27.4,12.7-14.2,51c13.2,38.3,95.5,20.7,95.8-24c0.3-44.6-32.5-37.4-32.5-37.4L292.1,122C291.9,121.9,286.7,69.9,231.8,81.2z
							"/>
					</defs>
					<defs>
						<path id="SVGID_00000107551421653750789110000016198934666737071516_" d="M231.8,81.2c0,0-41,6.1-34.1,51s169,549.2,169,549.2
							s-27.4,12.7-14.2,51c13.2,38.3,95.5,20.7,95.8-24c0.3-44.6-32.5-37.4-32.5-37.4L292.1,122C291.9,121.9,286.7,69.9,231.8,81.2z
							"/>
					</defs>
					<clipPath id="SVGID_00000052095829236930531840000012414609078647484577_">
						<use xlink:href="#SVGID_00000084489308131952815550000014450746518445118106_"  style="overflow:visible;"/>
					</clipPath>
					
						<clipPath id="SVGID_00000181785342431599427230000001389543940345611163_" style="clip-path:url(#SVGID_00000052095829236930531840000012414609078647484577_);">
						<use xlink:href="#SVGID_00000107551421653750789110000016198934666737071516_"  style="overflow:visible;"/>
					</clipPath>
					<path style="clip-path:url(#SVGID_00000181785342431599427230000001389543940345611163_);fill:#F24922;" d="M293.9,225.1
						c0,0-4.7,21-15.1,33.7c-10.2,12.7-18,62.1-11.8,80.1c0,0-2.9,20,7.3,18.1c0,0-12.8-20.7,13.5-32.2l12.7,18.6
						c0,0,14.8-33,15.8-42.3c0.9-9.5-1.6-11.9-1.6-11.9s-2.7,9.2-5.3,12.6c-2.6,3.3-5.8,13.3-5.8,13.3l-9.8-15.6
						c0,0,12.8-15.6,6.4-32.4c0,0-7.8,22.3-11.6,25c0,0-10.5-7.8-7-17.8C285,264.5,303.3,249.9,293.9,225.1z"/>
				</g>
				<g>
					<defs>
						<path id="SVGID_00000055692449102832596550000013437675043840693948_" d="M231.8,81.2c0,0-41,6.1-34.1,51s169,549.2,169,549.2
							s-27.4,12.7-14.2,51c13.2,38.3,95.5,20.7,95.8-24c0.3-44.6-32.5-37.4-32.5-37.4L292.1,122C291.9,121.9,286.7,69.9,231.8,81.2z
							"/>
					</defs>
					<defs>
						<path id="SVGID_00000021102590309825640670000008368264923462910629_" d="M231.8,81.2c0,0-41,6.1-34.1,51s169,549.2,169,549.2
							s-27.4,12.7-14.2,51c13.2,38.3,95.5,20.7,95.8-24c0.3-44.6-32.5-37.4-32.5-37.4L292.1,122C291.9,121.9,286.7,69.9,231.8,81.2z
							"/>
					</defs>
					<clipPath id="SVGID_00000109027690550570647550000001849269234642161576_">
						<use xlink:href="#SVGID_00000055692449102832596550000013437675043840693948_"  style="overflow:visible;"/>
					</clipPath>
					
						<clipPath id="SVGID_00000022526880854291338750000010416351290016542885_" style="clip-path:url(#SVGID_00000109027690550570647550000001849269234642161576_);">
						<use xlink:href="#SVGID_00000021102590309825640670000008368264923462910629_"  style="overflow:visible;"/>
					</clipPath>
					<path style="clip-path:url(#SVGID_00000022526880854291338750000010416351290016542885_);fill:#F24922;" d="M317.5,239.6
						c0,0-10.8,16.8-9.5,22c1.3,5.2,3.9,10.6,4.7,10.7c0.8,0.1,3.1-6.6,2.4-10c-0.7-3.4-1.7-7.8,2.2-12.3c0,0,3.5,7.2,2.5,11.3
						s-5.7,7.4-3.3,16.2c2.5,8.8,6,13.4,6,13.4s5-9.2,5.6-15.1C328.6,270,317.5,239.3,317.5,239.6z"/>
				</g>
				<g>
					<defs>
						<path id="SVGID_00000018933377825983468020000014012835955282442135_" d="M231.8,81.2c0,0-41,6.1-34.1,51s169,549.2,169,549.2
							s-27.4,12.7-14.2,51c13.2,38.3,95.5,20.7,95.8-24c0.3-44.6-32.5-37.4-32.5-37.4L292.1,122C291.9,121.9,286.7,69.9,231.8,81.2z
							"/>
					</defs>
					<defs>
						<path id="SVGID_00000027576719488483351670000005567954684736698550_" d="M231.8,81.2c0,0-41,6.1-34.1,51s169,549.2,169,549.2
							s-27.4,12.7-14.2,51c13.2,38.3,95.5,20.7,95.8-24c0.3-44.6-32.5-37.4-32.5-37.4L292.1,122C291.9,121.9,286.7,69.9,231.8,81.2z
							"/>
					</defs>
					<clipPath id="SVGID_00000049918860284923787690000009587629735548635815_">
						<use xlink:href="#SVGID_00000018933377825983468020000014012835955282442135_"  style="overflow:visible;"/>
					</clipPath>
					
						<clipPath id="SVGID_00000048493775137060644350000004409758954093860024_" style="clip-path:url(#SVGID_00000049918860284923787690000009587629735548635815_);">
						<use xlink:href="#SVGID_00000027576719488483351670000005567954684736698550_"  style="overflow:visible;"/>
					</clipPath>
					<g style="clip-path:url(#SVGID_00000048493775137060644350000004409758954093860024_);">
						<path class="st7" d="M322.4,267.3c0,0-3.1,1.6-2.4,7.2s3.3,6.3,4.5,3.6C325.9,275.4,322.4,267.3,322.4,267.3z"/>
					</g>
				</g>
				<g>
					<defs>
						<path id="SVGID_00000173858078271301353400000005753212937919930761_" d="M231.8,81.2c0,0-41,6.1-34.1,51s169,549.2,169,549.2
							s-27.4,12.7-14.2,51c13.2,38.3,95.5,20.7,95.8-24c0.3-44.6-32.5-37.4-32.5-37.4L292.1,122C291.9,121.9,286.7,69.9,231.8,81.2z
							"/>
					</defs>
					<defs>
						<path id="SVGID_00000162322527965654446940000017452433705298934414_" d="M231.8,81.2c0,0-41,6.1-34.1,51s169,549.2,169,549.2
							s-27.4,12.7-14.2,51c13.2,38.3,95.5,20.7,95.8-24c0.3-44.6-32.5-37.4-32.5-37.4L292.1,122C291.9,121.9,286.7,69.9,231.8,81.2z
							"/>
					</defs>
					<clipPath id="SVGID_00000141435842727963978350000012376429987947525765_">
						<use xlink:href="#SVGID_00000173858078271301353400000005753212937919930761_"  style="overflow:visible;"/>
					</clipPath>
					
						<clipPath id="SVGID_00000042015985174803955370000008494885176137446804_" style="clip-path:url(#SVGID_00000141435842727963978350000012376429987947525765_);">
						<use xlink:href="#SVGID_00000162322527965654446940000017452433705298934414_"  style="overflow:visible;"/>
					</clipPath>
					<g style="clip-path:url(#SVGID_00000042015985174803955370000008494885176137446804_);">
						<path class="st7" d="M269.9,341.7c0.4,0.8,2.8-16.7,13.7-25.5c0,0-7.9-8.3-8.4-13.7c-0.4-5.4,1.7-17.2,1.7-16.9
							c0,0.5-8.3,23-9.2,31.6c-0.9,8.7,0.3,15.5,0.3,15.5l1.6-8.2C269.6,324.4,268.7,338.9,269.9,341.7z"/>
					</g>
				</g>
				<g>
					<defs>
						<path id="SVGID_00000119115254140012088200000011901667128803599273_" d="M231.8,81.2c0,0-41,6.1-34.1,51s169,549.2,169,549.2
							s-27.4,12.7-14.2,51c13.2,38.3,95.5,20.7,95.8-24c0.3-44.6-32.5-37.4-32.5-37.4L292.1,122C291.9,121.9,286.7,69.9,231.8,81.2z
							"/>
					</defs>
					<defs>
						<path id="SVGID_00000018222887389927958200000017867654296407953823_" d="M231.8,81.2c0,0-41,6.1-34.1,51s169,549.2,169,549.2
							s-27.4,12.7-14.2,51c13.2,38.3,95.5,20.7,95.8-24c0.3-44.6-32.5-37.4-32.5-37.4L292.1,122C291.9,121.9,286.7,69.9,231.8,81.2z
							"/>
					</defs>
					<clipPath id="SVGID_00000064355513108813975210000017307483647665117083_">
						<use xlink:href="#SVGID_00000119115254140012088200000011901667128803599273_"  style="overflow:visible;"/>
					</clipPath>
					
						<clipPath id="SVGID_00000096038883707086669890000012699046522703941524_" style="clip-path:url(#SVGID_00000064355513108813975210000017307483647665117083_);">
						<use xlink:href="#SVGID_00000018222887389927958200000017867654296407953823_"  style="overflow:visible;"/>
					</clipPath>
					<g style="clip-path:url(#SVGID_00000096038883707086669890000012699046522703941524_);">
						<path d="M277.8,454.4c1.8-0.5,71.6-24.9,94.2-24.1c22.6,0.8,2.7,10.4,2.7,10.4s-80.7,17.8-106.9,31.1
							C241.5,485,277.8,454.4,277.8,454.4z"/>
					</g>
				</g>
			</g>
			<path id="XMLID_00000076577767691154615350000015567354603463012756_" d="M250.4,79.6c37.7,2.4,41.7,42.3,41.7,42.3l123.8,549
				c0,0,2.9-0.6,6.9-0.4c9.7,0.6,25.9,6.3,25.6,37.8c-0.3,29-35.1,46.6-63,44.8c-15.1-1-28.2-7.5-32.7-20.9
				c-13.2-38.3,14.2-51,14.2-51s-162.1-504.5-169-549.2c-6.9-44.7,34.1-51,34.1-51C238.9,79.7,245,79.3,250.4,79.6 M250.9,71.9
				c-6.3-0.4-13.1,0.1-20.3,1.6c-2.6,0.5-20.8,3.9-32.3,19.4c-7.8,10.6-10.6,24.2-8.3,40.2c6.5,42.9,148.6,486.3,167.4,544.8
				c-2.8,2.2-6.2,5.5-9.2,10.1c-5.7,8.7-10.8,23.8-3,46.6c5.2,15.3,19.7,24.8,39.6,26.1c20.1,1.3,41.9-6.2,55.8-19.2
				c10-9.4,15.3-20.8,15.5-33.4c0.1-15.9-3.6-27.9-11.2-35.9c-5.5-5.8-13.1-9.1-21.7-9.7c-0.5,0-0.8-0.1-1.3-0.1L300,120.7
				c-0.3-2.4-1.9-12.4-7.6-22.8C283.5,82.1,269.1,73,250.9,71.9L250.9,71.9z"/>
		</g>
	</g>
</g>
</svg>
