<?xml version="1.0" encoding="utf-8"?>
<!-- Generator: Adobe Illustrator 27.7.0, SVG Export Plug-In . SVG Version: 6.00 Build 0)  -->
<svg version="1.1" id="레이어_1" xmlns="http://www.w3.org/2000/svg" xmlns:xlink="http://www.w3.org/1999/xlink" x="0px"
	 y="0px" viewBox="0 0 800 800" style="enable-background:new 0 0 800 800;" xml:space="preserve">
<style type="text/css">
	.st0{fill:#F24922;}
	.st1{clip-path:url(#SVGID_00000066517657513793288590000000420423918651645088_);fill:#04060A;}
	.st2{clip-path:url(#SVGID_00000076570836771149957730000013844447533122130582_);fill:#04060A;}
	.st3{fill:#04060A;}
	.st4{fill:#F76F46;}
	.st5{clip-path:url(#SVGID_00000155125146772359030840000004884716406537326527_);fill:#04060A;}
	.st6{clip-path:url(#SVGID_00000019643344336502352550000001768755976702308505_);fill:#04060A;}
</style>
<g id="_x34_">
	<g id="_x34__00000052803749285612341590000002955470134613452205_">
		<g>
			<g>
				<g>
					<path id="XMLID_00000172401516350378410630000018081028321967186066_" class="st0" d="M544.9,71.5c0,0-40.1-10.7-51.6,33.2
						s-63.1,571.1-63.1,571.1s-30.2,0.8-33.3,41.1c-3.1,40.3,79.4,57,97.4,16.1c18-40.8-14.9-47.2-14.9-47.2l104.7-552.9
						C584,133,599.9,83,544.9,71.5z"/>
				</g>
				<g>
					<defs>
						<path id="SVGID_1_" d="M544.9,71.5c0,0-40.1-10.7-51.6,33.2s-63.1,571.1-63.1,571.1s-30.2,0.8-33.3,41.1
							c-3.1,40.3,79.4,57,97.4,16.1c18-40.8-14.9-47.2-14.9-47.2l104.7-552.9C584,133,599.9,83,544.9,71.5z"/>
					</defs>
					<clipPath id="SVGID_00000039108382196701533680000012621780600854479506_">
						<use xlink:href="#SVGID_1_"  style="overflow:visible;"/>
					</clipPath>
					<path style="clip-path:url(#SVGID_00000039108382196701533680000012621780600854479506_);fill:#04060A;" d="M444.9,415.4
						l32.9,158.5l76.4-152.7l0.1,40.6l-85.1,156.7c0,0-26.9-124.7-29.4-119.9s-11.7,27.2-11.7,27.2l34.4,127.8L561.3,500l-7.5,42.6
						l-97.1,145.7L404,521.2L444.9,415.4z"/>
				</g>
				<g>
					<defs>
						<path id="SVGID_00000002380990101469553230000010918210650560327052_" d="M544.9,71.5c0,0-40.1-10.7-51.6,33.2
							s-63.1,571.1-63.1,571.1s-30.2,0.8-33.3,41.1c-3.1,40.3,79.4,57,97.4,16.1c18-40.8-14.9-47.2-14.9-47.2l104.7-552.9
							C584,133,599.9,83,544.9,71.5z"/>
					</defs>
					<clipPath id="SVGID_00000034802150465851982280000009605094620160336518_">
						<use xlink:href="#SVGID_00000002380990101469553230000010918210650560327052_"  style="overflow:visible;"/>
					</clipPath>
					<path style="clip-path:url(#SVGID_00000034802150465851982280000009605094620160336518_);fill:#04060A;" d="M550.8,398.7
						c2.2-0.5,3.3-2.2,3.7-4c0.4-1.8-0.2-3.8-1.2-5.1c-1.1-1.1-3.7-3.7-7.2-6.9c-3.5-3.2-8-7.3-12.7-11.8c-4.7-4.4-8.4-10-10.5-15
						c-2.1-5-2.6-9.5-0.7-11.9c1.9-2.3,4.4-2.4,6.6-2c2.1,0.4,3.8,1.4,3.8,1.4c-1.3,5.7-1,11.8,0.4,16.8c1.5,5.1,4.1,9.1,7.6,10.7
						c3.6,1.7,7.2,1.6,9.9-0.3c2.8-2,4.6-5.9,4.7-12.3c-0.2-6.3-4.2-12.3-9.5-17.3c-5.3-5-11.8-9.1-16.5-11.4
						c-4.7-2.4-7.3-5.5-8.2-8c-0.9-2.4,0-4.1,2.4-3.4c2.4,0.5,16.5,8.8,30,16.7c13.4,7.9,26.3,15.9,26.3,15.9l0-5.7l0-5.7
						c0,0-11.3-6.5-23.5-13.8c-12.2-7.3-25.4-15.3-29.1-18.4s-5.6-6.1-6.7-8.2c-1-2.1-1.2-3.6-1.2-3.6l16.3,8.9l16.3,8.9
						c0,0,0.2-1.7,0.3-3.8s0.3-4.3,0.3-5.4s-0.8-2.2-1.5-2.9c-0.8-0.8-1.5-1.3-1.5-1.3c6.1-11.3,2.8-20.5-3-27.4
						c-5.8-6.9-13.9-11.2-17.5-12.9c-3.6-1.7-7.3-3.9-9.7-6.2c-2.4-2.3-3.4-4.6-1.6-6c1.9-1.3,10.3,2.2,18.1,6.4
						c7.9,4.2,15.3,8.4,15.3,8.4s-0.1-0.6-0.3-1.6c-0.2-1-0.3-2.5-0.4-4.5c-0.1-1.8-1-3.6-1.9-4.9c-0.9-1.4-1.7-1.9-1.7-1.9
						s1.6-2,2.5-5.7c0.9-3.5,1-8.6-1.9-14.5c-2.9-5.9-8.1-10.4-13.4-13.6c-5.3-3.2-10.3-5.6-13.1-7.2c-2.7-1.7-5.6-4.3-8.2-7.4
						c-2.4-3-4.3-6.5-4.8-9.8c-0.5-3.3-1.3-7.3-2-10.5c-0.7-3.2-1.1-5.6-1.1-5.6c3.6,5.2,10.7,9,16.7,11.6c6,2.5,11.3,3.8,11.3,3.8
						s0.1,0.4,0.3,1.9s0.3,3.9,0.3,7.8s1.8,5.9,3.6,7c1.8,0.9,3.6,1,3.6,1l-1.4-7.8l-1.4-7.8l13.4,5.8L565,204c0,0,0.8,0.4,1.5,2
						c0.6,1.6,1.4,4.3,1.1,9c-0.3,4.7-3.1,7.5-5.9,9.1c-2.8,1.6-5.6,2.2-5.6,2.2l10.1,0.9l10.1,0.9c0,0-0.5-3.8-1.3-8.9
						c-0.7-5.2-1.6-11.5-2.3-17.1c-0.7-5.3-2-14.2-5-22.4c-3-8.1-7.6-15.5-15.1-17.9c-7.5-2.4-13.2-0.3-17.2,2.3c-4,2.6-6.1,6-6.1,6
						c15.4-5.7,24.2-0.9,28.9,5.3c4.8,6.2,5.8,13.8,5.8,13.8s-1.6-1.2-5.7-2.9s-10.5-3.9-20.1-6.1c-9.6-2.1-17-4.4-22.5-6.7
						c-5.6-2.3-9.3-4.6-11.8-6.6c-2.5-2.2-4.7-3.1-6.3-3.7c-1.7-0.5-2.7-0.7-2.7-0.7s0.9,4.2,2,10.1c1.1,5.9,2.7,13.3,4.1,19.6
						c1.4,6.3,5.2,10.7,8.7,13.4c3.6,2.7,6.8,3.8,6.8,3.8s-2.3-0.3-4.8,0.7c-2.5,1-4.9,3.4-5.1,8.6c-0.2,5.3,3,9.9,6.1,13.1
						s6.3,5.2,6.3,5.2c-1.8-0.6-4.8-0.5-7,0.7s-3.8,3.6-3.3,7.9c0.7,4.3,3.6,7.6,6.4,9.9c2.8,2.3,5.6,3.4,5.6,3.4
						c-10.1,1.3-10.8,7.2-9,12.7c1.8,5.6,6.2,11,6.2,11s-2-0.7-4.7-2.4c-2.7-1.7-6.1-4.4-8.9-8.1c-2.9-3.8-2.9-7.9-2.3-10.8
						c0.5-3.1,1.8-5.2,1.8-5.2c-3.6,0.1-6.9,2.7-8.7,6.6c-2,3.8-2.5,8.7-0.7,13.6c1.9,4.7,6.4,8.8,10.4,11.7c4,2.9,7.8,4.7,7.8,4.7
						c-0.2,2.9,1.4,6.3,3.2,9.1c1.8,2.7,3.5,4.6,3.5,4.6c-8.8,4.6-8,10.7-5.1,15.9c2.9,5.1,8,9.1,8,9.1c-3.5,0.5-6.5,2.6-7.8,6.5
						c-1.3,4-1.3,9.9,1.4,18.2c2.8,8.2,9.7,16.6,16,22.8s11.9,10.5,11.9,10.5s-4,0.8-8.4,1.1c-4.5,0-9.5-0.6-11.8-3.7s-1.9-6-1-8.2
						c0.9-2.2,2.3-3.5,2.3-3.5c-2.8-0.4-6.5,0.6-8.8,3.2c-2.2,2.6-3.3,6.9-0.8,13c2.4,6.1,10.2,8.3,18,8.7
						C540.9,400.4,548.6,399.2,550.8,398.7z M543.4,364.2c-4.1-2.1-5.8-6.7-6.4-10.8c-0.6-4.1-0.4-7.7-0.4-7.7
						c7.4,4.3,11.1,10,12.1,14C549.5,363.9,547.5,366.3,543.4,364.2z M514.6,222.1c0.7-1.8,3.4-2.5,7.5-1.7s9.3,3.5,15.1,8.6
						s6.9,9.2,6.4,12.2c-0.4,2.8-2.3,4.5-2.3,4.5c-6.5-3-13.7-7.4-19.1-11.9C516.9,229.3,513.5,224.9,514.6,222.1z M519.7,271.1
						c3.2-2.5,9.1,0,14.4,4c5.3,4,10.2,9,11.4,11.9c1,2.5,0.6,4.8-0.1,6.5c-0.7,1.8-1.8,2.8-1.8,2.8c-5.1-2.6-13.1-7.6-18.6-12.5
						C519.3,278.7,515.8,273.7,519.7,271.1z"/>
				</g>
			</g>
			<path class="st3" d="M416.9,752.2c-15.7-8-24.6-21-23.4-35.5c1.8-22.3,11.4-33.2,19.4-38.3c5.6-3.6,11-5.1,14.1-5.6
				c4.5-46.1,51.7-526.5,62.9-568.9c3.9-14.6,11.2-25,21.6-31.1c15.5-9,32.5-5,34.3-4.6c17.7,3.7,30.4,11.8,37.6,23.8
				c10.6,18.3,4.9,39.3,4.2,41.7l-104,549.5c4.4,1.5,12.2,5.4,16.6,13.9c5,9.7,4.2,22.1-2.5,37.3c-10.8,24.6-41.5,29.3-65.4,23.3
				C426.4,756.3,421.4,754.5,416.9,752.2z M544.1,75c-1.6-0.4-36.7-9.1-47.2,30.6c-11.5,43-62.6,565.2-63,570.5l-0.3,3.1l-3.1,0
				c-1.1,0-26.9,1.4-29.9,37.9c-1.4,18.4,17.1,29.8,33.2,33.8c21.8,5.4,48.6,0.6,57.4-19.4c5.8-13.1,6.7-23.5,2.7-31.1
				c-4.8-9.1-15-11.2-15-11.1l-3.4-0.7l0.7-3.4l104.6-553.2l0.1-0.1c0.1-0.1,6.1-20.1-3.4-36.3c-6.1-10.4-17.1-17.1-32.9-20.5
				L544.1,75z"/>
			<g>
				<path class="st4" d="M428.4,676.6l50.9,9.3c0,0,26.3,2.9,23.2,31.1c-3,28.3-20.6,46.2-64.1,39.3c-43.6-6.9-47.1-35.9-38.5-57.7
					S428.4,676.6,428.4,676.6z"/>
				<path class="st3" d="M415.1,752.9c-7.8-4-13.6-9.3-17.5-16.1c-8.5-14.9-4.3-31.1-1.1-39.4c9.3-23.8,30.8-24.4,31.8-24.4l0.4,0
					l51.2,9.4c2.5,0.4,29.4,5,26.2,35c-1.6,15.4-7.3,26.9-17,34.3c-11.5,8.9-28.7,11.5-51.1,8.1
					C429.1,758.4,421.3,756.1,415.1,752.9z M428.1,680c-2.4,0.2-17.8,1.8-25,19.9c-2.8,7.2-6.5,21.1,0.6,33.5
					c5.9,10.1,17.7,16.7,35.4,19.5c20.3,3.2,35.7,1,45.7-6.8c8-6.3,12.9-16.1,14.3-29.4c2.6-24.3-19.3-27.2-20.2-27.2l-0.1-0.1
					L428.1,680z"/>
			</g>
			<g>
				<path class="st4" d="M430,637.2l-1.5,16.9c-0.2,2.2,1.3,4.1,3.4,4.4l50.5,8.3c2.3,0.4,4.3-1.2,4.8-3.4l2.8-15.3
					c0.4-2.3-1.1-4.5-3.4-4.9l-51.8-10C432.5,633,430.4,634.7,430,637.2z"/>
				<path class="st3" d="M429.3,661.3c-2.7-1.4-4.4-4.4-4.2-7.5l1.5-16.9c0.2-2.2,1.2-4.2,3-5.4c1.7-1.3,4-1.9,6.1-1.4l51.8,10
					c4.2,0.9,6.9,4.7,6.1,9l-2.8,15.3c-0.8,4-4.7,6.9-8.9,6.2l-50.5-8.3C430.7,662,430,661.6,429.3,661.3z M486.4,646.9l-0.1-0.1
					l-51.8-10c-0.3-0.1-0.4,0-0.6,0.1c-0.1,0.1-0.3,0.2-0.2,0.4l0,0l-1.5,16.9c0,0.4,0.2,0.6,0.6,0.6l50.5,8.3
					c0.4,0,0.6-0.2,0.8-0.5l2.8-15.3C486.9,647.4,486.7,647.1,486.4,646.9z"/>
			</g>
		</g>
	</g>
	<g id="_x34__00000146472792957433398180000003685740249523352461_">
		<g>
			<g>
				<g>
					<path id="XMLID_00000111869664597948195810000002976823356867973044_" class="st0" d="M232.6,79.6c0,0-41,6.1-34.1,51
						s169,549.2,169,549.2s-27.4,12.7-14.2,51c13.2,38.3,95.5,20.7,95.8-24c0.3-44.6-32.5-37.4-32.5-37.4l-123.6-549
						C292.9,120.5,287.6,68.3,232.6,79.6z"/>
				</g>
				<g>
					<defs>
						<path id="SVGID_00000024694522246226190510000004985687129664814483_" d="M232.6,79.6c0,0-41,6.1-34.1,51s169,549.2,169,549.2
							s-27.4,12.7-14.2,51c13.2,38.3,95.5,20.7,95.8-24c0.3-44.6-32.5-37.4-32.5-37.4l-123.6-549C292.9,120.5,287.6,68.3,232.6,79.6
							z"/>
					</defs>
					<clipPath id="SVGID_00000179618730958109826730000016727227739567287982_">
						<use xlink:href="#SVGID_00000024694522246226190510000004985687129664814483_"  style="overflow:visible;"/>
					</clipPath>
					<path style="clip-path:url(#SVGID_00000179618730958109826730000016727227739567287982_);fill:#04060A;" d="M277.4,434.9
						l93.1,132.4l9.5-170.5l16.2,37.2l-15.8,177.6c0,0-74.2-103.8-74.6-98.4s0,29.6,0,29.6l82.4,103.6l29.7-180.1l10,42l-31.2,172.3
						L281.9,548.2L277.4,434.9z"/>
				</g>
				<g>
					<defs>
						<path id="SVGID_00000173158810021703198770000004844358858602244771_" d="M232.6,79.6c0,0-41,6.1-34.1,51s169,549.2,169,549.2
							s-27.4,12.7-14.2,51c13.2,38.3,95.5,20.7,95.8-24c0.3-44.6-32.5-37.4-32.5-37.4l-123.6-549C292.9,120.5,287.6,68.3,232.6,79.6
							z"/>
					</defs>
					<clipPath id="SVGID_00000016045323587244415090000000648934649158335135_">
						<use xlink:href="#SVGID_00000173158810021703198770000004844358858602244771_"  style="overflow:visible;"/>
					</clipPath>
					<path style="clip-path:url(#SVGID_00000016045323587244415090000000648934649158335135_);fill:#04060A;" d="M368,377.5
						c1.8-1.3,2.1-3.4,1.8-5.1c-0.4-1.8-1.7-3.5-3.1-4.2c-1.4-0.6-4.8-1.9-9.3-3.5c-4.5-1.6-10.3-3.5-16.3-5.8
						c-6.1-2.1-11.7-5.8-15.6-9.6c-3.9-3.8-6.2-7.7-5.4-10.7c0.8-2.8,3.1-3.9,5.2-4.4c2.1-0.5,4-0.2,4-0.2c1.1,5.8,3.7,11.2,7,15.3
						c3.4,4,7.4,6.7,11.2,6.8c4,0.1,7.3-1.4,9-4.2c1.8-2.9,1.9-7.2-0.6-13.1c-2.7-5.7-8.8-9.6-15.6-12.1c-6.8-2.5-14.4-3.6-19.6-4
						c-5.2-0.3-8.9-2.2-10.7-4c-1.8-1.9-1.7-3.8,0.9-4.1c2.4-0.5,18.7,1.5,34.2,3.5c15.5,1.9,30.5,4.2,30.5,4.2l-2.2-5.2l-2.2-5.2
						c0,0-13-1.5-27-3.3c-14.1-1.9-29.4-3.9-34-5.4c-4.7-1.4-7.6-3.4-9.4-4.9s-2.5-2.9-2.5-2.9l18.5,1.7l18.5,1.7
						c0,0-0.5-1.6-1.2-3.6c-0.7-2-1.5-4.1-1.9-5.1c-0.4-1-1.6-1.7-2.6-2.1c-1.1-0.4-1.9-0.6-1.9-0.6c1.1-12.8-5.6-19.9-13.6-24
						c-8-4-17.2-4.8-21.2-4.9s-8.2-0.7-11.3-1.8c-3.1-1.2-4.9-2.9-3.8-4.9c1.2-2,10.3-2,19.2-1.3c8.9,0.7,17.4,1.6,17.4,1.6
						s-0.3-0.5-0.9-1.3s-1.3-2.2-2.1-4c-0.8-1.6-2.4-2.9-3.7-3.7s-2.3-1.1-2.3-1.1s0.6-2.5,0.1-6.2c-0.6-3.5-2.5-8.3-7.5-12.6
						c-5-4.3-11.5-6.3-17.7-7.2c-6.2-0.9-11.7-1.1-14.9-1.4c-3.2-0.5-6.9-1.7-10.4-3.5c-3.4-1.8-6.6-4.2-8.3-7.1
						c-1.7-2.8-4.1-6.2-6-8.8c-1.9-2.7-3.2-4.7-3.2-4.7c5.4,3.4,13.4,4,20,4c6.5-0.1,11.8-1,11.8-1s0.3,0.3,1,1.7
						c0.7,1.3,1.8,3.5,3.4,7.1s4,4.7,6,5c2.1,0.1,3.7-0.6,3.7-0.6l-4.4-6.6l-4.4-6.6l14.6,0l14.6,0c0,0,1,0.1,2.1,1.3
						c1.2,1.2,3,3.4,4.6,7.8c1.6,4.4,0.1,8.1-1.8,10.7c-1.9,2.6-4.2,4.2-4.2,4.2l9.6-3.2l9.6-3.2c0,0-2-3.3-4.8-7.6
						c-2.7-4.5-6.1-9.9-8.9-14.7c-2.7-4.6-7.5-12.3-13.5-18.5c-6-6.3-13.1-11.2-21-10.4c-7.8,0.8-12.3,4.9-14.9,8.9
						s-3.2,7.9-3.2,7.9c11.9-11.3,21.8-10.4,28.6-6.6c6.9,3.8,10.8,10.4,10.8,10.4s-1.9-0.4-6.3-0.4c-4.5,0-11.2,0.6-20.8,2.3
						c-9.7,1.9-17.4,2.7-23.3,2.8c-6.1,0.1-10.3-0.5-13.4-1.3c-3.1-1-5.5-1-7.3-0.9c-1.8,0.2-2.7,0.5-2.7,0.5s2.5,3.5,5.8,8.5
						c3.3,5,7.7,11.2,11.5,16.3c3.8,5.2,9.1,7.7,13.3,8.8c4.4,1.1,7.7,0.8,7.7,0.8s-2.3,0.7-4.1,2.6c-1.9,1.9-3.2,5-1.3,9.9
						c1.9,4.9,6.7,7.9,10.8,9.6c4.2,1.7,7.8,2.3,7.8,2.3c-1.9,0.2-4.6,1.5-6.1,3.4c-1.6,2-2.1,4.8,0.1,8.6c2.3,3.7,6.3,5.5,9.8,6.5
						c3.4,1,6.5,0.9,6.5,0.9c-8.8,5.2-7.1,10.9-3.2,15.2c3.9,4.4,10,7.6,10,7.6s-2.1,0.2-5.2-0.3c-3.2-0.5-7.4-1.6-11.4-3.9
						c-4.1-2.3-5.8-6.1-6.4-9c-0.8-3.1-0.4-5.4-0.4-5.4c-3.3,1.5-5.3,5.2-5.4,9.5c-0.3,4.3,1.2,9,4.8,12.7c3.6,3.6,9.4,5.5,14.2,6.6
						c4.9,1.1,9,1.2,9,1.2c0.9,2.8,3.8,5.2,6.6,7.1c2.8,1.8,5.1,2.9,5.1,2.9c-6.2,7.7-3.1,13,1.6,16.7c4.7,3.5,11,5.2,11,5.2
						c-3,1.9-4.9,4.9-4.6,9.1c0.4,4.2,2.7,9.6,8.5,16.1c5.8,6.4,15.5,11.3,23.7,14.6c8.2,3.2,15.1,4.9,15.1,4.9s-3.3,2.3-7.3,4.3
						c-4.1,1.8-9,3.2-12.3,1.3s-4.2-4.7-4.2-7.1c0-2.4,0.7-4.1,0.7-4.1c-2.8,0.8-5.8,3.1-6.8,6.4c-1,3.3-0.3,7.6,4.5,12.2
						c4.6,4.6,12.7,3.5,20,0.8C359.5,383,366.1,378.8,368,377.5z M347.5,348.8c-4.6-0.3-8-3.9-10.2-7.3c-2.2-3.5-3.4-6.9-3.4-6.9
						c8.5,1,14.2,4.7,16.7,8.1C352.9,346.1,352.1,349.1,347.5,348.8z M264.5,229.8c0-1.9,2.1-3.7,6.2-4.5c4-0.9,9.9-0.5,17.2,1.9
						s10,5.7,10.8,8.6c0.8,2.8-0.3,5.1-0.3,5.1c-7.2-0.1-15.5-1.3-22.2-3.3C269.6,235.5,264.7,232.8,264.5,229.8z M288.7,272.7
						c2-3.5,8.3-3.6,14.8-2.1s12.9,4.2,15.2,6.4c1.9,1.9,2.4,4.1,2.5,6c0,1.9-0.5,3.3-0.5,3.3c-5.7-0.4-15-1.8-22-4.1
						C291.4,279.9,286.2,276.7,288.7,272.7z"/>
				</g>
			</g>
			<path class="st3" d="M385.5,755.1c-17.6-1.1-30.9-9.5-35.6-23.3c-7.2-21.2-2.7-35,2.6-42.8c3.7-5.5,8.1-9,10.7-10.8
				C349,634.2,201.5,174.5,194.9,131.1c-2.2-14.9,0.3-27.4,7.5-37.1C213,79.6,230.2,76.5,232,76.2c17.7-3.6,32.6-1.3,44,6.9
				c17,12.6,20.1,34.1,20.4,36.6l122.9,545.6c4.6-0.3,13.4,0.1,20.8,6.1c8.5,6.9,12.7,18.6,12.6,35.2c-0.1,26.9-26.5,43.4-50.8,47.4
				C395.9,755.1,390.6,755.4,385.5,755.1z M233.2,83.1c-1.6,0.2-37.3,6.2-31.2,46.9c6.6,44,167.1,543.5,168.9,548.6l0.9,2.9
				l-2.8,1.3c-1,0.4-24.2,12-12.4,46.6c6.1,17.4,27.5,20.5,43.9,17.8c22.2-3.7,44.8-18.8,44.9-40.6c0.1-14.3-3.2-24.2-9.9-29.6
				c-8-6.4-18.2-4.3-18.2-4.2l-3.4,0.7l-0.7-3.4L289.5,120.9l0-0.2c0-0.2-2.3-20.8-17.5-32c-9.7-7.1-22.5-8.9-38.3-5.8L233.2,83.1z"
				/>
			<g>
				<path class="st4" d="M366.1,681.1l50.4-11.7c0,0,25.3-7.8,33.6,19.3c8.5,27.1-0.5,50.6-43.3,61.6c-42.7,11-57.5-14.2-58.2-37.6
					C347.9,689.2,366.1,681.1,366.1,681.1z"/>
				<path class="st3" d="M384.2,756.4c-8.7-0.6-16.2-3.1-22.4-7.8c-13.7-10.3-16.3-26.8-16.7-35.8c-0.9-25.5,18.6-34.6,19.4-35.1
					l0.3-0.1l50.7-11.7c2.4-0.6,28.9-7.1,37.9,21.7c4.6,14.8,4,27.6-2,38.2c-7,12.8-21.8,22-43.6,27.8
					C399.2,756,391.2,756.9,384.2,756.4z M367.1,684.3c-2.1,1.1-15.7,8.7-15,28.2c0.3,7.7,2.4,22,13.8,30.5c9.4,7,22.9,8.3,40.2,3.8
					c19.9-5.1,33.2-13.3,39.3-24.4c4.9-8.9,5.4-19.9,1.5-32.7c-7.3-23.4-28.5-17.3-29.3-17l-0.2,0L367.1,684.3z"/>
			</g>
			<g>
				<path class="st4" d="M351.9,644.4l5.3,16.1c0.7,2.1,2.8,3.2,4.9,2.7l49.7-12.4c2.3-0.5,3.5-2.8,3-5.1l-3.5-15.2
					c-0.5-2.3-2.8-3.7-5-3.2l-51.5,11.4C352.5,639.5,351.2,641.9,351.9,644.4z"/>
				<path class="st3" d="M360.8,666.7c-3-0.2-5.7-2.3-6.8-5.2l-5.3-16.1c-0.7-2.1-0.5-4.3,0.6-6.2c1.1-1.8,2.9-3.3,5-3.7l51.5-11.4
					c4.2-0.8,8.2,1.6,9.2,5.8l3.5,15.2c0.9,4-1.6,8.2-5.7,9.2L363,666.9C362.4,666.9,361.6,666.8,360.8,666.7z M407.5,630.9l-0.2,0
					l-51.5,11.4c-0.3,0-0.3,0.1-0.5,0.3c0,0.2-0.2,0.3,0,0.5l0,0l5.3,16.1c0.1,0.3,0.4,0.5,0.8,0.4l49.7-12.4
					c0.3-0.1,0.5-0.4,0.5-0.8l-3.5-15.2C408.1,631.1,407.8,630.9,407.5,630.9z"/>
			</g>
		</g>
	</g>
</g>
</svg>
