<?xml version="1.0" encoding="utf-8"?>
<!-- Generator: Adobe Illustrator 27.7.0, SVG Export Plug-In . SVG Version: 6.00 Build 0)  -->
<svg version="1.1" id="레이어_1" xmlns="http://www.w3.org/2000/svg" xmlns:xlink="http://www.w3.org/1999/xlink" x="0px"
	 y="0px" viewBox="0 0 800 800" style="enable-background:new 0 0 800 800;" xml:space="preserve">
<style type="text/css">
	.st0{fill:#F24922;}
	.st1{clip-path:url(#SVGID_00000033359299613585328830000006426882960802679992_);fill:#FFFFFF;}
	.st2{clip-path:url(#SVGID_00000103983928870054106530000016397633900310696625_);fill:#FFFFFF;}
	.st3{clip-path:url(#SVGID_00000098922643756440423850000012712800595358010815_);fill:#F24922;}
	.st4{clip-path:url(#SVGID_00000127746331702188382280000009238728763598834072_);fill:#FFFFFF;}
	.st5{clip-path:url(#SVGID_00000103986576289007557320000010855864830592613293_);}
	.st6{fill:#412A1B;}
	.st7{fill:#B5CBDB;}
	.st8{fill:#EFBD7D;}
	.st9{fill:#652711;}
	.st10{fill:#FFFFFF;}
	.st11{fill:#FDBDBA;}
	.st12{fill:#04060A;}
	.st13{clip-path:url(#SVGID_00000180342665330555280380000000438082990145015743_);fill:#FFFFFF;}
	.st14{clip-path:url(#SVGID_00000168092621646407076900000011944334671729508497_);fill:#FFFFFF;}
	.st15{clip-path:url(#SVGID_00000043420723031522414080000012344743822714474382_);fill:#F24922;}
	.st16{clip-path:url(#SVGID_00000107566999849332349350000013337554486100741775_);fill:#FFFFFF;}
	.st17{clip-path:url(#SVGID_00000010297751432292162900000009655801655051347349_);}
</style>
<g id="_x35_">
	<g id="_x35__00000094592367297500030020000002139805727697365121_">
		<g>
			<g>
				<g>
					<g>
						<path id="SVGID_00000144303438322339770330000009573643760856321955_" class="st0" d="M542.7,72.9c0,0-40.1-10.7-51.6,33.2
							C479.6,150,428,677.3,428,677.3s-30.2,0.8-33.3,41.1s79.4,57,97.4,16.1c18-40.8-14.9-47.2-14.9-47.2l104.7-552.9
							C581.7,134.2,597.6,84.4,542.7,72.9z"/>
					</g>
					<g>
						<defs>
							<path id="SVGID_1_" d="M542.7,72.9c0,0-40.1-10.7-51.6,33.2C479.6,150,428,677.3,428,677.3s-30.2,0.8-33.3,41.1
								s79.4,57,97.4,16.1c18-40.8-14.9-47.2-14.9-47.2l104.7-552.9C581.7,134.2,597.6,84.4,542.7,72.9z"/>
						</defs>
						<clipPath id="SVGID_00000102546809132856483320000002021445091513340309_">
							<use xlink:href="#SVGID_1_"  style="overflow:visible;"/>
						</clipPath>
						<path style="clip-path:url(#SVGID_00000102546809132856483320000002021445091513340309_);fill:#FFFFFF;" d="M548.5,400
							c2.2-0.5,3.3-2.2,3.7-4c0.4-1.8-0.2-3.8-1.2-5.1c-1.1-1.1-3.7-3.7-7.2-6.9c-3.5-3.2-8-7.3-12.7-11.8c-4.7-4.4-8.4-10-10.5-15
							c-2.1-5-2.6-9.5-0.7-11.9c1.9-2.3,4.4-2.4,6.6-2s3.8,1.4,3.8,1.4c-1.3,5.7-1,11.8,0.4,16.8c1.5,5.1,4.1,9.1,7.6,10.7
							c3.6,1.7,7.2,1.6,9.9-0.3c2.8-2,4.6-5.9,4.7-12.3c-0.2-6.3-4.2-12.3-9.5-17.3c-5.3-5-11.8-9.1-16.5-11.4
							c-4.7-2.4-7.3-5.5-8.2-8s0-4.1,2.4-3.4s16.5,8.8,30,16.7c13.4,7.9,26.3,15.9,26.3,15.9l0-5.7l0-5.7c0,0-11.3-6.5-23.5-13.8
							c-12.2-7.3-25.4-15.3-29.1-18.4s-5.6-6.1-6.7-8.2c-1-2.1-1.2-3.6-1.2-3.6l16.3,8.9l16.3,8.9c0,0,0.2-1.7,0.3-3.8
							s0.3-4.3,0.3-5.4c0-1.1-0.8-2.2-1.5-2.9c-0.8-0.8-1.5-1.3-1.5-1.3c6.1-11.3,2.8-20.5-3-27.4c-5.8-6.9-13.9-11.2-17.5-12.9
							c-3.6-1.7-7.3-3.9-9.7-6.2c-2.4-2.3-3.4-4.6-1.6-6c1.9-1.3,10.3,2.2,18.1,6.4c7.9,4,15.3,8.4,15.3,8.4s-0.1-0.6-0.3-1.6
							c-0.2-1-0.3-2.5-0.4-4.5c-0.1-1.8-1-3.6-1.9-4.9c-0.8-1.1-1.7-1.9-1.7-1.9s1.6-2,2.5-5.7c0.9-3.5,1-8.6-1.9-14.5
							c-2.9-5.9-8.1-10.4-13.4-13.6c-5.3-3.2-10.3-5.6-13.1-7.2c-2.7-1.7-5.6-4.3-8.2-7.4c-2.4-3-4.3-6.5-4.8-9.8
							c-0.5-3.3-1.3-7.3-2-10.5c-0.7-3.2-1.1-5.6-1.1-5.6c3.6,5.2,10.7,9,16.7,11.6c6,2.5,11.3,3.8,11.3,3.8s0.1,0.4,0.3,1.9
							c0.1,1.5,0.3,3.9,0.3,7.8c0.1,4,1.8,5.9,3.6,7c1.8,0.9,3.6,1,3.6,1l-1.4-7.8l-1.4-7.8l13.4,5.8l13.4,5.8c0,0,0.8,0.4,1.5,2
							c0.6,1.6,1.4,4.3,1.1,9c-0.3,4.7-3.1,7.5-5.9,9.1s-5.6,2.2-5.6,2.2l10.1,0.9l10.1,0.9c0,0-0.5-3.8-1.3-8.9
							c-0.7-5.2-1.6-11.5-2.3-17.1c-0.7-5.5-2-14.2-5-22.4c-3-8.1-7.6-15.5-15.1-17.9s-13.2-0.3-17.2,2.3s-6.1,6-6.1,6
							c15.4-5.7,24.2-0.9,28.9,5.3c4.8,6.2,5.8,13.8,5.8,13.8s-1.6-1.2-5.7-2.9c-4.1-1.7-10.5-3.9-20.1-6.1
							c-9.6-2.1-17-4.4-22.5-6.7c-5.6-2.3-9.3-4.6-11.8-6.6c-2.5-2.2-4.7-3.1-6.3-3.7c-1.7-0.5-2.7-0.7-2.7-0.7s0.9,4.2,2,10.1
							c1.1,5.9,2.7,13.3,4.1,19.6c1.4,6.3,5.2,10.7,8.7,13.4c3.6,2.7,6.8,3.8,6.8,3.8s-2.3-0.3-4.8,0.7s-4.9,3.4-5.1,8.6
							c-0.2,5.3,3,9.9,6.1,13.1c3.2,3.2,6.3,5.2,6.3,5.2c-1.8-0.6-4.8-0.5-7,0.7c-2.2,1.2-3.8,3.6-3.3,7.9c0.7,4.3,3.6,7.6,6.4,9.9
							c2.8,2.2,5.6,3.4,5.6,3.4c-10.1,1.3-10.8,7.2-9,12.7c1.8,5.6,6.2,11,6.2,11s-2-0.7-4.7-2.4c-2.7-1.7-6.1-4.4-8.9-8.1
							c-2.9-3.8-2.9-7.9-2.3-10.8c0.5-3.1,1.8-5.2,1.8-5.2c-3.6,0.1-6.9,2.7-8.7,6.6c-2,3.8-2.5,8.7-0.7,13.6
							c1.9,4.7,6.4,8.8,10.4,11.7c4,2.9,7.8,4.7,7.8,4.7c-0.2,2.9,1.4,6.3,3.2,9.1c1.8,2.7,3.5,4.6,3.5,4.6
							c-8.8,4.6-8,10.7-5.1,15.9c2.9,5.1,8,9.1,8,9.1c-3.5,0.5-6.5,2.6-7.8,6.5c-1.3,4-1.3,9.9,1.4,18.2c2.8,8.2,9.7,16.6,16,22.8
							s11.9,10.5,11.9,10.5s-4,0.8-8.4,1.1c-4.5,0-9.5-0.6-11.8-3.7s-1.9-6-1-8.2s2.3-3.5,2.3-3.5c-2.8-0.4-6.5,0.6-8.8,3.2
							c-2.2,2.6-3.3,6.9-0.8,13c2.4,6.1,10.2,8.3,18,8.7C538.7,401.7,546.3,400.5,548.5,400z M541.2,365.4
							c-4.1-2.1-5.8-6.7-6.4-10.8c-0.7-4.1-0.4-7.7-0.4-7.7c7.4,4.3,11.1,10,12.1,14C547.4,365.1,545.3,367.5,541.2,365.4z
							 M512.2,223.4c0.7-1.8,3.4-2.5,7.5-1.7s9.3,3.5,15.1,8.6c5.8,5.1,6.9,9.2,6.4,12.2c-0.5,3-2.3,4.5-2.3,4.5
							c-6.5-3-13.7-7.4-19.1-11.9C514.6,230.6,511.2,226.1,512.2,223.4z M517.4,272.3c3.2-2.5,9.1,0,14.4,4
							c5.4,3.8,10.2,9,11.4,11.9c1,2.5,0.6,4.8-0.1,6.5c-0.7,1.8-1.8,2.8-1.8,2.8c-5.1-2.6-13.1-7.6-18.6-12.5
							C517.1,280.2,513.6,275.2,517.4,272.3z"/>
					</g>
					<g>
						<defs>
							<path id="SVGID_00000074423206266477677680000011259153894005289347_" d="M542.7,72.9c0,0-40.1-10.7-51.6,33.2
								C479.6,150,428,677.3,428,677.3s-30.2,0.8-33.3,41.1s79.4,57,97.4,16.1c18-40.8-14.9-47.2-14.9-47.2l104.7-552.9
								C581.7,134.2,597.6,84.4,542.7,72.9z"/>
						</defs>
						<clipPath id="SVGID_00000061470942916312397810000005483066227369365675_">
							<use xlink:href="#SVGID_00000074423206266477677680000011259153894005289347_"  style="overflow:visible;"/>
						</clipPath>
						<polygon style="clip-path:url(#SVGID_00000061470942916312397810000005483066227369365675_);fill:#FFFFFF;" points="
							426.1,442.2 554.8,459.1 501.5,829.2 320.9,820.9 						"/>
					</g>
					<g>
						<defs>
							<path id="SVGID_00000098182976738769060810000010897859689070541472_" d="M542.7,72.9c0,0-40.1-10.7-51.6,33.2
								C479.6,150,428,677.3,428,677.3s-30.2,0.8-33.3,41.1s79.4,57,97.4,16.1c18-40.8-14.9-47.2-14.9-47.2l104.7-552.9
								C581.7,134.2,597.6,84.4,542.7,72.9z"/>
						</defs>
						<clipPath id="SVGID_00000026861703370454891150000012933885767934261407_">
							<use xlink:href="#SVGID_00000098182976738769060810000010897859689070541472_"  style="overflow:visible;"/>
						</clipPath>
						<polygon style="clip-path:url(#SVGID_00000026861703370454891150000012933885767934261407_);fill:#F24922;" points="
							404.8,449.7 572.3,471.4 572.5,484.7 371.4,463.4 						"/>
					</g>
					<g>
						<defs>
							<path id="SVGID_00000095332297069333663900000002018568084188406191_" d="M542.7,72.9c0,0-40.1-10.7-51.6,33.2
								C479.6,150,428,677.3,428,677.3s-30.2,0.8-33.3,41.1s79.4,57,97.4,16.1c18-40.8-14.9-47.2-14.9-47.2l104.7-552.9
								C581.7,134.2,597.6,84.4,542.7,72.9z"/>
						</defs>
						<clipPath id="SVGID_00000178192030233465564970000002223012823841083068_">
							<use xlink:href="#SVGID_00000095332297069333663900000002018568084188406191_"  style="overflow:visible;"/>
						</clipPath>
						<path style="clip-path:url(#SVGID_00000178192030233465564970000002223012823841083068_);fill:#FFFFFF;" d="M483.4,95.1
							c1.4-1.1,53.3-23.6,128.1,23.4s-1.8,8.7-1.8,8.7s-64.2-38.9-126-22.3S483.4,95.1,483.4,95.1z"/>
					</g>
					<g>
						<defs>
							<path id="SVGID_00000174602008174205906520000003642052909340800918_" d="M542.7,72.9c0,0-40.1-10.7-51.6,33.2
								C479.6,150,428,677.3,428,677.3s-30.2,0.8-33.3,41.1s79.4,57,97.4,16.1c18-40.8-14.9-47.2-14.9-47.2l104.7-552.9
								C581.7,134.2,597.6,84.4,542.7,72.9z"/>
						</defs>
						<clipPath id="SVGID_00000132050220680435927350000013457304890756254379_">
							<use xlink:href="#SVGID_00000174602008174205906520000003642052909340800918_"  style="overflow:visible;"/>
						</clipPath>
						<g style="clip-path:url(#SVGID_00000132050220680435927350000013457304890756254379_);">
							<path class="st6" d="M546.4,163.5c0.1-0.1,0.1-0.1,0.1-0.3c0.2-0.1,0.5,0.1,0.6,0.1c0,0,2,3.9,3.5,8.9
								c0.4,1.3,0.2,2.4-0.5,3.3c-1.6,2.4-6.1,2.8-6.3,2.9c-0.2,0.1-0.4-0.2-0.5-0.4c-0.1-0.2,0.2-0.4,0.4-0.5c0,0,4.3-0.3,5.7-2.4
								c0.6-0.8,0.7-1.6,0.2-2.6c-1.4-4.8-3.4-8.7-3.4-8.7C546.4,163.8,546.4,163.6,546.4,163.5z"/>
							<g>
								<path class="st7" d="M549.2,159.7l1.1,1.3c0.5,0.4,0.1,1.1-0.4,1.2l-1.4,0.2c-0.2,0.1-0.4,0.1-0.6,0.4l-0.6,1.1
									c-0.3,0.6-1,0.6-1.3,0.1l-0.7-1.1c-0.1-0.2-0.4-0.4-0.6-0.3l-1.8-0.2c-0.7,0-1-0.9-0.4-1.3l0.9-0.8c0.3-0.2,0.3-0.6,0.2-0.8
									l-0.4-1.3c-0.2-0.6,0.4-1.2,1-0.9l1.4,0.7c0.3,0.1,0.5,0.1,0.8-0.1l0.9-0.8c0.6-0.4,1.3-0.1,1.3,0.5l0.1,1.5
									C549.1,159.3,549.2,159.5,549.2,159.7z"/>
								<path class="st6" d="M543,157.6c0.1-0.1,0.2-0.4,0.3-0.6c0.4-0.4,0.9-0.4,1.4-0.2l1.4,0.7c0.1,0.1,0.4,0,0.4,0l0.9-0.8
									c0.4-0.4,0.9-0.3,1.1-0.1c0.4,0.2,0.6,0.5,0.7,1.1l0.1,1.5l0.1,0.2l1.1,1.3c0.4,0.4,0.3,0.7,0.3,1.2l0,0
									c-0.2,0.4-0.5,0.6-0.9,0.8l-1.4,0.2c-0.1-0.1-0.2,0.1-0.3,0.2l-0.6,1.1c-0.2,0.4-0.5,0.6-1.1,0.7c-0.4,0-0.8-0.2-1.1-0.6
									l-0.7-1.1c-0.1-0.1-0.1-0.1-0.3-0.1l-1.8-0.2c-0.5-0.1-0.8-0.4-1-0.9c-0.1-0.4-0.1-0.9,0.3-1.3l0.9-0.8
									c0.1-0.1,0.1-0.3,0.1-0.3l-0.4-1.3C542.9,158.1,542.9,157.8,543,157.6z M548.9,160L548.9,160c-0.2-0.3-0.3-0.5-0.3-0.7
									l-0.1-1.5c-0.1-0.2-0.2-0.3-0.2-0.3s-0.1-0.1-0.4,0l-0.9,0.8c-0.4,0.4-0.9,0.3-1.3,0.1l-1.4-0.7c-0.1-0.1-0.4,0-0.4,0
									s-0.1,0.1-0.1,0.3l0.4,1.3c0.1,0.4,0.1,0.9-0.3,1.3l-0.9,0.8c-0.1,0.1-0.1,0.3,0,0.4c0,0,0.1,0.2,0.3,0.1l1.8,0.2
									c0.4,0,0.8,0.2,0.9,0.6l0.7,1.1c0.1,0.2,0.3,0.1,0.3,0.1s0.2-0.1,0.3-0.2l0.6-1.1c0.1-0.3,0.5-0.6,0.9-0.6l1.4-0.2
									c0.2-0.1,0.3-0.2,0.3-0.2s0.1-0.1,0-0.4L548.9,160z"/>
							</g>
							<g>
								<path class="st8" d="M527.1,196.4c0,0,3.2,2.9-0.9,3.8c-4.1,1-6.5-4.7-6.5-4.7S523.3,194.3,527.1,196.4z"/>
								<path class="st6" d="M519.2,195.1l0.4-0.1c0.2-0.1,3.8-1.1,7.7,1.1l0.1,0.1c0.1,0.1,1.5,1.5,1.3,2.8
									c-0.2,0.8-0.9,1.3-2.3,1.7c-4.3,1-7-4.8-7.1-5L519.2,195.1z M526.9,196.9c-2.8-1.6-5.4-1.3-6.4-1.1c0.8,1.3,2.9,4.9,5.7,4.2
									c0.6-0.2,1.5-0.5,1.6-1.1C528.1,198,527.3,197.1,526.9,196.9z"/>
							</g>
							<g>
								<path class="st8" d="M512.1,169.5c-0.8-0.2-5.9-3.7-10.3-2.9c-4.3,0.8-7.3,1.3-8,0.9c-0.8-0.2-5-2.5-6.5,1.9
									c-1.5,4.4,0.2,6.3,2.1,7c0,0-3.4,0.8-2.8,4.5c0.5,3.8,3,6,6.2,5.7c0,0,8.1,4,16-2.3C517,177.9,517.4,171.1,512.1,169.5z"/>
								<path class="st6" d="M486.9,169.3c0.5-1.3,1.2-2.3,2.1-2.7c1.6-0.8,3.6,0,4.6,0.4c0.1,0.1,0.3,0.1,0.3,0.1
									c0.9,0.3,5.9-0.7,7.8-1c3.6-0.7,7.8,1.5,9.8,2.5c0.4,0.2,0.7,0.4,0.8,0.4c2,0.7,3.4,2.1,3.7,4c0.6,3.3-1.8,7.7-6.6,11.6
									c-7.6,6.1-15.4,3-16.4,2.5c-3.5,0.2-6-2.2-6.6-6c-0.4-2.7,1.2-4,2.2-4.6C486.9,175.5,485.6,173.6,486.9,169.3z M514.8,176.2
									c0.4-1.1,0.5-2.1,0.3-3.1c-0.3-1.6-1.5-2.7-3.1-3.4c-0.1-0.1-0.4-0.2-1-0.5c-1.7-0.9-5.7-3.1-9.1-2.4
									c-5.1,0.9-7.4,1.2-8.2,1c-0.1-0.1-0.1-0.1-0.3-0.1c-0.8-0.4-2.5-1.1-3.9-0.4c-0.7,0.3-1.3,1.1-1.7,2.2
									c-1.1,3.5-0.4,5.7,1.9,6.5l1.6,0.4l-1.6,0.3c-0.1-0.1-3,0.6-2.5,4.1c0.5,3.5,2.7,5.5,5.9,5.3l0.1,0.1l0.1,0.1
									c0.1,0.1,8.1,3.8,15.7-2.3C512,181.4,514,178.7,514.8,176.2z"/>
							</g>
							<g>
								<path class="st8" d="M508.3,182.2c0,0-0.2,12.9,6.7,15.2c6.9,2.3,16.5-0.9,24.9-9.9c8.3-9,3.6-15.1-1.3-19.4
									s-24-17.3-28.2,1.1C510.3,169.3,508.7,174.2,508.3,182.2z"/>
								<path class="st6" d="M510.4,167.2c1.3-4,3.5-6.4,6.7-7.5c7.5-2.4,18.3,5.1,21.7,8.1c2.7,2.4,5.8,5.7,6,9.9
									c0.1,3.3-1.4,6.6-4.6,10.1c-8,8.6-17.8,12.5-25.2,9.9c-7.2-2.4-7-15.2-7-15.7l0,0c0.4-8,2-12.9,2-12.9
									C510.1,168.5,510.3,167.9,510.4,167.2z M543.5,181.1c0.4-1.1,0.6-2.2,0.5-3.3c-0.2-3.8-3.2-7-5.8-9.2
									c-3.5-3-13.8-10.3-21-7.9c-3.2,1-5.4,4-6.6,8.8c-0.1,0.1-1.6,4.9-1.9,12.8c0,0.4,0,12.6,6.3,14.8c7.2,2.4,16.6-1.3,24.5-9.8
									C541.6,185.1,542.8,183.1,543.5,181.1z M508.3,182.2L508.3,182.2L508.3,182.2z"/>
							</g>
							<g>
								<path class="st8" d="M527.5,169.1c0,0,3.1-1.6,1.4-4.1c-2-2.4-7.5-0.3-9,1.1"/>
								<path class="st6" d="M519.5,165.9l0.1-0.1c1.1-1.1,4.3-2.4,6.9-2.4c1.2,0.1,2.1,0.5,2.8,1.2c0.5,0.8,0.8,1.5,0.6,2.3
									c-0.4,1.4-2.1,2.3-2.2,2.5c-0.2,0.1-0.5-0.1-0.6-0.1c-0.1-0.2,0.1-0.5,0.1-0.6c0,0,1.4-0.7,1.7-1.8c0.1-0.5,0-1.1-0.5-1.5
									c-0.4-0.6-1.1-0.9-2.1-0.9c-2.3-0.1-5.3,1.2-6.2,2c-0.1,0.1-0.4,0.1-0.6,0.1C519.5,166.3,519.5,166.2,519.5,165.9z"/>
							</g>
							<path id="XMLID_00000047035857539573352120000015417666382515871643_" class="st9" d="M510.2,173.7c0,0,0.5,2.4,1.9,1.2
								c1.4-1.3,29.2-5.2,29.2-5.2s2.2-0.1,1.7-2.5c-0.5-2.4-2.5-2.2-7.1-1.5c-4.8,0.6-23.7,6.6-24.6,6.3
								C510.5,171.7,510.1,172.4,510.2,173.7z"/>
							<path class="st10" d="M515.1,171l0.6,2.6l-3.2,0.7l-1.4,1.1l-0.3-1.8c0,0,0.4-1.6,0.9-1.7C512,171.8,515.1,171,515.1,171z"/>
							<path class="st6" d="M509.8,172.3c0.1-0.3,0.3-0.6,0.5-0.6c0.2-0.1,0.5-0.3,1-0.2c0.7,0,5.5-1.3,9.7-2.5
								c5.8-1.7,12.3-3.4,14.8-3.8c4.8-0.7,7-1.1,7.7,1.8c0.3,0.9,0.1,1.6-0.4,2.1c-0.6,0.9-1.7,0.9-1.7,0.9
								c-10.6,1.5-27.9,4.3-28.9,5.2c-0.6,0.6-1,0.6-1.4,0.6c-0.9-0.3-1.2-1.5-1.4-1.8l0,0C509.8,173.1,509.8,172.6,509.8,172.3z
								 M510.2,173.7L510.2,173.7L510.2,173.7z M542.6,168.1c0.1-0.3,0.1-0.6,0-1.1c-0.4-2-1.8-1.8-6.7-1.1c-2.5,0.3-9,2.2-14.6,3.8
								c-7.7,2.1-9.6,2.8-10,2.5c-0.1-0.1-0.4,0-0.4,0s-0.3,0.2-0.4,1.4c0.1,0.4,0.3,1.1,0.7,1.1c0.1,0.1,0.4-0.1,0.5-0.3
								c1.4-1.4,24.8-4.8,29.5-5.4c0,0,0.8-0.1,1.2-0.6C542.5,168.4,542.5,168.3,542.6,168.1z"/>
							<path class="st11" d="M521.2,182.7c0,0,1.9-0.3,0.9-3.8c-0.8-2.6-2.7-2.7-2.2,0.1C520.2,182,520,182.8,521.2,182.7"/>
							<path class="st11" d="M521.9,196.1c0,0,1.6-0.3,0.7-3.2c-0.6-2.3-2.3-2.2-1.8,0.1C521,195.4,521,196.2,521.9,196.1"/>
							<path class="st6" d="M523.1,184.7c-0.1-0.2,0.1-0.5,0.4-0.7c1.1-0.5,4.1-1.8,5.3-0.7C529.9,184.7,523.6,186.4,523.1,184.7z"
								/>
							<path class="st6" d="M523.8,189.6c-0.1-0.2,0.1-0.5,0.3-0.6c0.9-0.4,3.9-1.6,4.8-0.6C530.1,189.6,524.4,191.3,523.8,189.6z"
								/>
							<g>
								<path class="st8" d="M506.8,179.8c0,0,6.9-3.1,3-6.7c0,0-2-1.9-6.8,1.4c-4.8,3.4-1.1,7.8-1.1,7.8"/>
								<path class="st6" d="M500.5,177.3c0.4-1.1,1.1-2.1,2.4-3c5-3.5,7.2-1.5,7.3-1.3c1,0.9,1.3,1.9,1.2,2.9
									c-0.4,2.5-4.4,4.4-4.4,4.4c-0.2,0.1-0.5-0.1-0.6-0.3s0.1-0.5,0.3-0.6c0,0,3.6-1.7,3.9-3.7c0.2-0.8-0.1-1.5-1-2.1
									c0,0-2-1.7-6.3,1.4c-1.4,0.9-2.2,2.1-2.2,3.3c-0.3,2,1.1,3.8,1.1,3.8c0.1,0.2,0.1,0.4-0.1,0.6c-0.2,0.1-0.4,0.1-0.6-0.1
									c-0.1-0.1-1.6-2.1-1.3-4.4C500.3,177.9,500.5,177.6,500.5,177.3z"/>
							</g>
							<g>
								<path class="st8" d="M495.2,184.2c0,0-1.1,1.8-2.6,2.4"/>
								<path class="st6" d="M492.1,186.4c0.1-0.1,0.1-0.1,0.3-0.2c1.4-0.7,2.4-2.3,2.4-2.3c0.1-0.1,0.4-0.4,0.6-0.1
									c0.1,0.1,0.4,0.4,0.1,0.6c-0.1,0.1-1.2,1.9-2.8,2.7c-0.2,0.1-0.5-0.1-0.6-0.3C492.2,186.6,492,186.5,492.1,186.4z"/>
							</g>
							<g>
								<path class="st8" d="M497.4,181.2c0,0,1.1-7.8-7.8-4.9"/>
								<path class="st6" d="M489.2,176.3c0.1-0.1,0.1-0.3,0.3-0.2c3.2-1,5.5-0.9,7,0.3c2,1.7,1.4,4.8,1.6,4.9
									c-0.1,0.1-0.2,0.4-0.5,0.3c-0.1-0.1-0.4-0.2-0.3-0.5c0,0,0.4-2.8-1.2-4.2c-1.3-1-3.2-1.1-6.1-0.3c-0.2,0.1-0.5-0.1-0.6-0.3
									C489.1,176.5,489.1,176.5,489.2,176.3z"/>
							</g>
							<g>
								<path class="st8" d="M495.2,171.6c0,0-1,3.8-3.1,4.3"/>
								<path class="st6" d="M491.6,175.8c0.1-0.1,0.1-0.3,0.3-0.2c1.5-0.5,2.7-3.1,2.8-4.1c0.1-0.1,0.4-0.4,0.5-0.3
									c0.1,0.1,0.4,0.4,0.3,0.5c-0.1,0.1-1.1,3.9-3.5,4.7c-0.2,0.1-0.5-0.1-0.6-0.3C491.5,175.9,491.6,175.8,491.6,175.8z"/>
							</g>
							<g>
								<path class="st8" d="M509.9,168.6c0,0,2.5,2.4,0.7,5.3c0,0-1.3-2.4-5.6-0.5c-2.1,0.9-3.2-4.1-3.2-4.1"/>
								<path class="st6" d="M501.5,169.1c0.1-0.1,0.1-0.3,0.3-0.2c0.2-0.1,0.5,0.1,0.6,0.3c0.3,0.9,1,3.3,2,3.9
									c0.1,0.1,0.5,0.1,0.6-0.1c3.4-1.5,5.1-0.6,5.8,0.1c1.1-2.5-0.9-4.2-1-4.4c-0.1-0.1-0.1-0.4-0.1-0.6s0.4-0.1,0.6-0.1
									c0,0,2.9,2.7,0.7,5.9l-0.4,0.7l-0.3-0.7c0,0-1.1-2-5.2-0.3c-0.4,0.1-1,0.2-1.4,0c-1.6-0.8-2.4-4.1-2.4-4.4
									C501.4,169.2,501.4,169.2,501.5,169.1z"/>
							</g>
						</g>
					</g>
				</g>
			</g>
			<path class="st12" d="M414.6,753.4c-15.7-8-24.6-21-23.4-35.5c1.8-22.3,11.4-33.2,19.4-38.3c5.6-3.6,11-5.1,14.1-5.6
				c4.5-45.9,51.7-526.5,63-568.9c3.9-14.6,11.2-25,21.6-31.1c15.5-9,32.5-5,34.3-4.6c17.7,3.7,30.4,11.8,37.6,23.8
				c10.6,18.3,4.9,39.3,4.2,41.7l-104,549.5c4.4,1.5,12.2,5.4,16.6,13.9c5.1,9.6,4.2,22.1-2.5,37.3C484.8,760.4,454,765,430.1,759
				C424.3,757.6,419.2,755.7,414.6,753.4z M541.8,76.2c-1.6-0.4-36.7-9.1-47.2,30.6c-11.5,43-62.6,565.2-63,570.5l-0.3,3.1l-3.1,0
				c-1.1,0-26.9,1.4-29.9,37.9c-1.4,18.4,17.1,29.8,33.2,33.8c21.8,5.4,48.6,0.6,57.4-19.4c5.7-13,6.6-23.4,2.7-31.1
				c-4.7-9-15-11.2-15.1-11.3l-3.4-0.7l0.7-3.4l104.6-553.2l0.1-0.1c0.1-0.1,6.1-20.1-3.4-36.3C569,86.2,558,79.5,542.2,76.1
				L541.8,76.2z"/>
			<g>
				<path class="st0" d="M424.9,658l-1.5,16.9c-0.2,2.2,1.3,4.1,3.4,4.4l50.5,8.3c2.3,0.4,4.3-1.2,4.8-3.4l2.8-15.3
					c0.4-2.3-1.1-4.5-3.4-4.9l-51.8-10C427.4,653.8,425.1,655.5,424.9,658z"/>
				<path class="st12" d="M424.1,682.2c-2.7-1.4-4.4-4.4-4.2-7.5l1.5-16.9c0.2-2.2,1.2-4.2,3-5.4c1.7-1.3,4-1.9,6.1-1.4l51.8,10
					c4.2,0.9,6.9,4.7,6.1,9l-2.8,15.3c-0.8,4-4.7,6.9-8.9,6.2l-50.5-8.3C425.6,682.8,424.8,682.6,424.1,682.2z M481.3,667.7
					l-0.1-0.1l-51.8-10c-0.3-0.1-0.4,0-0.6,0.1c-0.1,0.1-0.3,0.2-0.2,0.4l0,0L427,675c0,0.4,0.2,0.6,0.6,0.6l50.5,8.3
					c0.4,0,0.6-0.2,0.8-0.5l2.8-15.3C481.7,668.2,481.5,667.9,481.3,667.7z"/>
			</g>
		</g>
	</g>
	<g id="_x35__00000008122770635932156110000018077474408520149165_">
		<g>
			<g>
				<g>
					<g>
						<path id="SVGID_00000030485060207998234300000000072978948499811508_" class="st0" d="M231.1,81.7c0,0-41,6.1-34.1,51
							s169,549.2,169,549.2s-27.4,12.7-14.2,51c13.2,38.3,95.5,20.7,95.8-24c0.3-44.6-32.5-37.4-32.5-37.4l-123.6-549
							C291.3,122.5,286,70.4,231.1,81.7z"/>
					</g>
					<g>
						<defs>
							<path id="SVGID_00000181768570032379558740000007004208502538521786_" d="M231.1,81.7c0,0-41,6.1-34.1,51
								s169,549.2,169,549.2s-27.4,12.7-14.2,51c13.2,38.3,95.5,20.7,95.8-24c0.3-44.6-32.5-37.4-32.5-37.4l-123.6-549
								C291.3,122.5,286,70.4,231.1,81.7z"/>
						</defs>
						<clipPath id="SVGID_00000023250265885504760570000018199644999802223791_">
							<use xlink:href="#SVGID_00000181768570032379558740000007004208502538521786_"  style="overflow:visible;"/>
						</clipPath>
						<path style="clip-path:url(#SVGID_00000023250265885504760570000018199644999802223791_);fill:#FFFFFF;" d="M366.4,379.6
							c1.8-1.3,2.1-3.4,1.8-5.1c-0.4-1.8-1.7-3.5-3.1-4.2c-1.4-0.6-4.8-1.9-9.3-3.5c-4.5-1.6-10.3-3.5-16.3-5.8
							c-6.1-2.1-11.7-5.8-15.6-9.6c-3.9-3.8-6.2-7.7-5.4-10.7c0.8-2.8,3.1-3.9,5.2-4.4c2.1-0.5,4-0.2,4-0.2c1.1,5.8,3.7,11.2,7,15.3
							c3.4,4,7.4,6.7,11.2,6.8c4,0.1,7.3-1.4,9-4.2c1.8-2.9,1.9-7.2-0.6-13.1c-2.7-5.7-8.8-9.6-15.6-12.1c-6.8-2.5-14.4-3.6-19.6-4
							c-5.2-0.3-8.9-2.2-10.7-4s-1.7-3.8,0.9-4.1c2.6-0.3,18.7,1.5,34.2,3.5c15.5,1.9,30.5,4.2,30.5,4.2l-2.2-5.2l-2.2-5.2
							c0,0-13-1.5-27-3.3c-14.1-1.9-29.4-3.9-34-5.4s-7.6-3.4-9.4-4.9c-1.8-1.5-2.5-2.9-2.5-2.9l18.5,1.7l18.5,1.7
							c0,0-0.5-1.6-1.2-3.6c-0.7-2-1.5-4.1-1.9-5.1c-0.4-1-1.6-1.7-2.6-2.1c-1.1-0.4-1.9-0.6-1.9-0.6c1.1-12.8-5.6-19.9-13.6-24
							c-8-4-17.2-4.8-21.2-4.9c-4-0.1-8.2-0.7-11.3-1.8c-3.1-1.2-4.9-2.9-3.8-4.9c1.2-2,10.3-2,19.2-1.3c8.9,0.6,17.4,1.6,17.4,1.6
							s-0.3-0.5-0.9-1.3c-0.6-0.8-1.3-2.2-2.1-4c-0.8-1.6-2.4-2.9-3.7-3.7c-1.2-0.7-2.3-1.1-2.3-1.1s0.6-2.5,0.1-6.2
							c-0.6-3.5-2.5-8.3-7.5-12.6c-5-4.3-11.5-6.3-17.7-7.2s-11.7-1.1-14.9-1.4c-3.2-0.5-6.9-1.7-10.4-3.5c-3.4-1.8-6.6-4.2-8.3-7.1
							c-1.7-2.8-4.1-6.2-6-8.8c-1.9-2.7-3.2-4.7-3.2-4.7c5.4,3.4,13.4,4,20,4c6.5-0.1,11.8-1,11.8-1s0.3,0.3,1,1.7
							c0.7,1.3,1.8,3.5,3.4,7.1c1.7,3.6,4,4.7,6,5c2.1,0.1,3.7-0.6,3.7-0.6l-4.4-6.6l-4.4-6.6l14.6,0l14.6,0c0,0,1,0.1,2.1,1.3
							s3,3.4,4.6,7.8c1.6,4.4,0.1,8.1-1.8,10.7c-1.9,2.6-4.2,4.2-4.2,4.2l9.6-3.2l9.6-3.2c0,0-2-3.3-4.8-7.6
							c-2.7-4.5-6.1-9.9-8.9-14.7c-2.9-4.8-7.5-12.3-13.5-18.5s-13.1-11.2-21-10.4c-7.9,0.8-12.3,4.9-14.9,8.9
							c-2.6,4-3.2,7.9-3.2,7.9c11.9-11.3,21.8-10.4,28.6-6.6c6.9,3.8,10.8,10.4,10.8,10.4s-1.9-0.4-6.3-0.4
							c-4.5,0-11.2,0.6-20.8,2.3c-9.7,1.9-17.4,2.7-23.3,2.8c-6.1,0.1-10.3-0.5-13.4-1.3c-3.1-1-5.5-1-7.3-0.9
							c-1.8,0.2-2.7,0.5-2.7,0.5s2.5,3.5,5.8,8.5c3.3,5,7.7,11.2,11.5,16.3c3.8,5.2,9.1,7.7,13.3,8.8c4.4,1.1,7.7,0.8,7.7,0.8
							s-2.3,0.7-4.1,2.6s-3.2,5-1.3,9.9c1.9,4.9,6.7,7.9,10.8,9.6c4.2,1.7,7.8,2.3,7.8,2.3c-1.9,0.2-4.6,1.5-6.1,3.4
							c-1.6,2-2.1,4.8,0.1,8.6c2.3,3.7,6.3,5.5,9.8,6.5c3.4,0.9,6.5,0.9,6.5,0.9c-8.8,5.2-7.1,10.9-3.2,15.2c3.9,4.4,10,7.6,10,7.6
							s-2.1,0.2-5.2-0.3c-3.2-0.5-7.4-1.6-11.4-3.9c-4.1-2.3-5.8-6.1-6.4-9c-0.8-3.1-0.4-5.4-0.4-5.4c-3.3,1.5-5.3,5.2-5.4,9.5
							c-0.3,4.3,1.2,9,4.8,12.7c3.6,3.6,9.4,5.5,14.2,6.6c4.9,1.1,9,1.2,9,1.2c0.9,2.8,3.8,5.2,6.6,7.1c2.8,1.8,5.1,2.9,5.1,2.9
							c-6.2,7.7-3.1,13,1.6,16.7c4.7,3.5,11,5.2,11,5.2c-3,1.9-4.9,4.9-4.6,9.1c0.4,4.2,2.7,9.6,8.5,16.1
							c5.8,6.4,15.5,11.3,23.7,14.6s15.1,4.9,15.1,4.9s-3.3,2.3-7.3,4.3c-4.1,1.8-9,3.2-12.3,1.3s-4.2-4.7-4.2-7.1s0.7-4.1,0.7-4.1
							c-2.8,0.8-5.8,3.1-6.8,6.4c-1,3.3-0.3,7.6,4.5,12.2c4.6,4.6,12.7,3.5,20,0.8C358.1,385,364.5,381,366.4,379.6z M345.9,350.8
							c-4.6-0.3-8-3.9-10.2-7.3c-2.3-3.5-3.4-6.9-3.4-6.9c8.5,1,14.2,4.7,16.7,8.1C351.5,348,350.5,351.1,345.9,350.8z M262.9,232
							c0-1.9,2.1-3.7,6.2-4.5s9.9-0.5,17.2,1.9s10,5.7,10.8,8.6c0.8,2.9-0.3,5.1-0.3,5.1c-7.2-0.1-15.5-1.3-22.2-3.3
							C268,237.6,263.1,234.9,262.9,232z M287.1,274.8c2-3.5,8.3-3.6,14.8-2.1c6.4,1.4,12.9,4.2,15.2,6.4c1.9,1.9,2.4,4.1,2.5,6
							c0,1.9-0.5,3.3-0.5,3.3c-5.7-0.4-15-1.8-22-4.1C290,282.1,284.8,278.9,287.1,274.8z"/>
					</g>
					<g>
						<defs>
							<path id="SVGID_00000119827241443003155660000002540201008341949356_" d="M231.1,81.7c0,0-41,6.1-34.1,51
								s169,549.2,169,549.2s-27.4,12.7-14.2,51c13.2,38.3,95.5,20.7,95.8-24c0.3-44.6-32.5-37.4-32.5-37.4l-123.6-549
								C291.3,122.5,286,70.4,231.1,81.7z"/>
						</defs>
						<clipPath id="SVGID_00000017505830378283182780000008735725140703390082_">
							<use xlink:href="#SVGID_00000119827241443003155660000002540201008341949356_"  style="overflow:visible;"/>
						</clipPath>
						<polygon style="clip-path:url(#SVGID_00000017505830378283182780000008735725140703390082_);fill:#FFFFFF;" points="
							270.8,467 395.7,431.4 493.8,792.2 324.7,856.3 						"/>
					</g>
					<g>
						<defs>
							<path id="SVGID_00000138572195467331682460000003969324480058393476_" d="M231.1,81.7c0,0-41,6.1-34.1,51
								s169,549.2,169,549.2s-27.4,12.7-14.2,51c13.2,38.3,95.5,20.7,95.8-24c0.3-44.6-32.5-37.4-32.5-37.4l-123.6-549
								C291.3,122.5,286,70.4,231.1,81.7z"/>
						</defs>
						<clipPath id="SVGID_00000021828024451319037380000012175735150925599622_">
							<use xlink:href="#SVGID_00000138572195467331682460000003969324480058393476_"  style="overflow:visible;"/>
						</clipPath>
						<polygon style="clip-path:url(#SVGID_00000021828024451319037380000012175735150925599622_);fill:#F24922;" points="
							254.2,482.3 416.6,435.7 422,447.8 229,508.1 						"/>
					</g>
					<g>
						<defs>
							<path id="SVGID_00000099660534410456969250000003348813545744962465_" d="M231.1,81.7c0,0-41,6.1-34.1,51
								s169,549.2,169,549.2s-27.4,12.7-14.2,51c13.2,38.3,95.5,20.7,95.8-24c0.3-44.6-32.5-37.4-32.5-37.4l-123.6-549
								C291.3,122.5,286,70.4,231.1,81.7z"/>
						</defs>
						<clipPath id="SVGID_00000067222862919187987370000001423401187025644211_">
							<use xlink:href="#SVGID_00000099660534410456969250000003348813545744962465_"  style="overflow:visible;"/>
						</clipPath>
						<path style="clip-path:url(#SVGID_00000067222862919187987370000001423401187025644211_);fill:#FFFFFF;" d="M185.5,125.6
							c0.9-1.5,39.5-42.8,126.9-29.5s1.8,8.7,1.8,8.7s-74.3-10.2-124.5,29.6S185.5,125.6,185.5,125.6z"/>
					</g>
					<g>
						<defs>
							<path id="SVGID_00000102516247699871771740000009821715226970809499_" d="M231.1,81.7c0,0-41,6.1-34.1,51
								s169,549.2,169,549.2s-27.4,12.7-14.2,51c13.2,38.3,95.5,20.7,95.8-24c0.3-44.6-32.5-37.4-32.5-37.4l-123.6-549
								C291.3,122.5,286,70.4,231.1,81.7z"/>
						</defs>
						<clipPath id="SVGID_00000016785051090356192310000018400498066133099197_">
							<use xlink:href="#SVGID_00000102516247699871771740000009821715226970809499_"  style="overflow:visible;"/>
						</clipPath>
						<g style="clip-path:url(#SVGID_00000016785051090356192310000018400498066133099197_);">
							<path class="st6" d="M270.5,163.4c0-0.2,0-0.2,0-0.3c0.2-0.1,0.5-0.1,0.6-0.1c0,0,3.3,2.8,6.7,6.8c0.9,1,1.1,2.1,0.9,3.2
								c-0.5,2.8-4.5,5-4.6,5.1c-0.2,0.1-0.5,0-0.6-0.2c-0.1-0.2,0-0.5,0.2-0.6c0,0,3.8-2,4.3-4.5c0.2-0.9,0-1.8-0.8-2.4
								c-3.3-3.9-6.6-6.6-6.6-6.6C270.6,163.7,270.5,163.5,270.5,163.4z"/>
							<g>
								<path class="st7" d="M271.6,158.8l1.5,0.7c0.6,0.2,0.6,1,0.1,1.3l-1.2,0.7c-0.2,0.1-0.3,0.3-0.4,0.6l-0.1,1.3
									c0,0.6-0.7,0.9-1.2,0.6l-1.1-0.7c-0.1-0.2-0.5-0.2-0.6,0l-1.8,0.5c-0.7,0.3-1.2-0.4-0.9-1l0.5-1.1c0.2-0.3,0-0.6-0.1-0.8
									l-0.9-1c-0.4-0.5-0.1-1.3,0.6-1.2l1.6,0.1c0.3,0,0.5-0.1,0.7-0.4l0.5-1.1c0.4-0.6,1.2-0.6,1.4-0.1l0.7,1.3
									C271.3,158.5,271.4,158.7,271.6,158.8z"/>
								<path class="st6" d="M265,159.4c0-0.2,0-0.5,0-0.6c0.2-0.5,0.7-0.8,1.2-0.7l1.6,0.1c0.2,0,0.3-0.1,0.3-0.1l0.5-1.1
									c0.2-0.5,0.7-0.6,1-0.6c0.5,0,0.8,0.2,1.1,0.7l0.7,1.3l0.1,0.2l1.5,0.7c0.5,0.2,0.6,0.5,0.7,1l0,0c0,0.5-0.2,0.8-0.5,1.1
									l-1.2,0.7c-0.2,0-0.2,0.1-0.2,0.3l-0.1,1.3c0,0.5-0.2,0.8-0.7,1.1c-0.3,0.1-0.8,0.1-1.3-0.1l-1.1-0.7c-0.2,0-0.2,0-0.3,0
									l-1.8,0.5c-0.5,0.1-1-0.1-1.2-0.4s-0.4-0.8-0.2-1.3l0.5-1.1c0-0.2,0-0.3,0-0.3l-0.9-1C265.1,159.9,265,159.5,265,159.4z
									 M271.4,159.1L271.4,159.1c-0.3-0.2-0.5-0.3-0.6-0.5l-0.7-1.3c-0.1-0.2-0.3-0.2-0.3-0.2s-0.2,0-0.3,0.1l-0.5,1.1
									c-0.2,0.5-0.7,0.6-1.2,0.6l-1.6-0.1c-0.2,0-0.3,0.1-0.3,0.1s0,0.2,0,0.3l0.9,1c0.3,0.3,0.4,0.8,0.2,1.3l-0.5,1.1
									c0,0.2,0,0.3,0.1,0.3c0,0,0.1,0.2,0.3,0l1.8-0.5c0.3-0.1,0.8-0.1,1.1,0.2l1.1,0.7c0.1,0.2,0.3,0,0.3,0s0.2-0.1,0.2-0.3
									l0.1-1.3c0-0.3,0.2-0.8,0.5-0.9l1.2-0.7c0.2-0.1,0.2-0.3,0.2-0.3s0-0.2-0.1-0.3L271.4,159.1z"/>
							</g>
							<g>
								<path class="st8" d="M265.8,201.3c0,0,4.1,1.4,0.7,3.9s-7.8-1.8-7.8-1.8S261.6,200.9,265.8,201.3z"/>
								<path class="st6" d="M258.1,203.2l0.3-0.3c0.2-0.1,3-2.5,7.5-2.1l0.2,0c0.2,0,2,0.8,2.3,2.1c0.1,0.8-0.3,1.6-1.4,2.5
									c-3.5,2.6-8.3-1.6-8.5-1.8L258.1,203.2z M265.8,201.8c-3.2-0.4-5.5,0.9-6.3,1.5c1.2,0.9,4.6,3.3,6.9,1.6
									c0.5-0.4,1.2-1,1.1-1.7C267.4,202.3,266.3,201.8,265.8,201.8z"/>
							</g>
							<g>
								<path class="st8" d="M241.4,182.5c-0.8,0.1-6.9-1.1-10.6,1.4s-6.2,4.1-6.9,4c-0.8,0.1-5.5-0.4-5.2,4.3s2.7,5.7,4.7,5.6
									c0,0-2.8,2-0.8,5.2c2,3.3,5.1,4.3,7.9,2.7c0,0,9,0.4,13.8-8.5C249.2,188.3,246.9,181.9,241.4,182.5z"/>
								<path class="st6" d="M218.2,192.4c-0.1-1.4,0.2-2.5,0.8-3.3c1.2-1.4,3.3-1.4,4.4-1.5c0.2,0,0.3,0,0.3,0c1-0.1,5.1-3,6.8-4
									c3-2,7.8-1.7,10-1.6c0.5,0,0.8,0.1,1,0.1c2.1-0.2,3.9,0.6,5,2.2c1.9,2.8,1.4,7.7-1.5,13.3c-4.5,8.6-13,8.9-14.1,8.8
									c-3.1,1.6-6.4,0.4-8.4-2.9c-1.4-2.3-0.5-4.2,0.2-5.1C220.7,198.1,218.7,196.8,218.2,192.4z M246.5,187.6
									c-0.1-1.1-0.3-2.1-0.9-2.9c-0.9-1.3-2.4-1.9-4.2-1.9c-0.2,0-0.5,0-1.1-0.1c-1.9-0.1-6.5-0.6-9.3,1.5
									c-4.3,2.9-6.3,4.1-7.1,4.2c-0.2,0-0.2,0-0.3,0c-1-0.1-2.7,0-3.7,1.2c-0.5,0.6-0.7,1.5-0.6,2.7c0.4,3.7,1.9,5.4,4.3,5.2
									l1.6-0.2l-1.3,0.9c-0.2,0-2.5,1.8-0.6,4.7c1.9,3,4.7,4,7.5,2.5l0.2,0l0.2,0c0.2,0,8.9,0.3,13.4-8.4
									C246,193.5,246.8,190.2,246.5,187.6z"/>
							</g>
							<g>
								<path class="st8" d="M243,195.7c0,0,5,11.9,12.2,11.3c7.2-0.7,14.8-7.3,18.9-19c4.1-11.5-2.7-15.3-8.9-17.3
									s-28.9-6.3-25.5,12.2C239.6,183.1,240.1,188.2,243,195.7z"/>
								<path class="st6" d="M239,181.1c-0.4-4.2,0.6-7.3,3.2-9.5c5.9-5.2,18.8-2.6,23.2-1.2c3.4,1.2,7.6,2.9,9.4,6.7
									c1.4,3,1.3,6.6-0.2,11.1c-3.9,11.1-11.4,18.5-19.2,19.1c-7.5,0.6-12.5-11.1-12.6-11.6l0,0c-2.9-7.5-3.3-12.6-3.3-12.6
									C239.2,182.4,239.1,181.8,239,181.1z M274.8,180.7c-0.1-1.1-0.3-2.3-0.9-3.2c-1.7-3.5-5.7-5.1-9-6.1
									c-4.4-1.4-16.8-3.9-22.4,1.1c-2.5,2.2-3.4,5.8-2.6,10.7c0,0.2,0.5,5.1,3.3,12.5c0.1,0.3,5,11.6,11.7,11.1
									c7.5-0.6,14.7-7.8,18.5-18.7C274.7,185.1,275,182.8,274.8,180.7z M243,195.7L243,195.7L243,195.7z"/>
							</g>
							<g>
								<path class="st8" d="M255.4,176.1c0,0,2.2-2.7-0.4-4.3c-2.8-1.5-7,2.7-7.8,4.6"/>
								<path class="st6" d="M246.7,176.4l0-0.2c0.6-1.4,3-3.9,5.4-4.9c1.1-0.4,2.1-0.3,3,0c0.8,0.5,1.4,1,1.5,1.8
									c0.2,1.4-1,3-1,3.1c-0.2,0.1-0.5,0.1-0.6,0.1c-0.1-0.2-0.1-0.5-0.1-0.6c0,0,1-1.2,0.8-2.3c-0.1-0.5-0.4-1-1-1.2
									c-0.6-0.4-1.4-0.4-2.2,0c-2.1,0.8-4.3,3.2-4.9,4.3c0,0.2-0.3,0.3-0.5,0.3C246.9,176.7,246.9,176.5,246.7,176.4z"/>
							</g>
							<path id="XMLID_00000110461261008146761600000012662268158772756620_" class="st9" d="M241.3,187.1c0,0,1.5,2,2.2,0.3
								c0.7-1.7,24.8-16.4,24.8-16.4s2-1,0.5-3c-1.5-2-3.1-1-7.1,1.5c-4.1,2.4-19.1,15.5-20.1,15.6
								C240.8,185.2,240.7,186,241.3,187.1z"/>
							<path class="st10" d="M244.7,182.8l1.6,2.2l-2.7,1.9l-0.9,1.5l-1-1.5c0,0-0.2-1.6,0.1-1.9
								C242.2,184.7,244.7,182.8,244.7,182.8z"/>
							<path class="st6" d="M240.4,186c0-0.3,0-0.6,0.2-0.8c0.2-0.1,0.3-0.5,0.8-0.6c0.7-0.3,4.5-3.4,7.9-6.2
								c4.7-3.8,9.9-8,12.1-9.4c4.1-2.6,6-3.8,7.7-1.4c0.6,0.7,0.7,1.5,0.5,2.1c-0.2,1.1-1.2,1.5-1.2,1.5
								c-9.1,5.6-23.9,15-24.4,16.3c-0.4,0.8-0.7,0.9-1,1c-1,0.1-1.7-0.9-2-1.1l0,0C240.7,186.8,240.5,186.3,240.4,186z
								 M241.3,187.1L241.3,187.1L241.3,187.1z M268.8,169.2c0-0.3-0.1-0.6-0.4-1c-1.2-1.7-2.3-0.9-6.6,1.6
								c-2.2,1.3-7.4,5.6-11.9,9.3c-6.2,5-7.7,6.4-8.2,6.3c-0.2,0-0.3,0.1-0.3,0.1s-0.2,0.3,0.2,1.4c0.3,0.3,0.7,0.8,1.1,0.7
								c0.2,0,0.3-0.3,0.3-0.5c0.8-1.9,20.8-14.3,24.9-16.7c0,0,0.7-0.4,0.9-1.1C268.8,169.5,268.8,169.3,268.8,169.2z"/>
							<path class="st11" d="M255,191c0,0,1.7-1-0.7-3.9c-1.8-2-3.6-1.3-2,1C253.8,190.8,253.9,191.6,255,191"/>
							<path class="st11" d="M261,203c0,0,1.3-0.9-0.6-3.2c-1.5-1.8-3-1.1-1.6,0.8C259.9,202.8,260.1,203.5,261,203"/>
							<path class="st6" d="M257.5,192.2c-0.1-0.2-0.1-0.5,0.1-0.8c0.9-0.9,3.1-3.3,4.6-2.7C263.7,189.4,258.7,193.5,257.5,192.2z"
								/>
							<path class="st6" d="M260.1,196.3c-0.1-0.2-0.1-0.5,0-0.6c0.7-0.8,2.9-3,4.1-2.4C265.8,193.8,261.3,197.7,260.1,196.3z"/>
							<g>
								<path class="st8" d="M240.7,194.1c0,0,5.1-5.6,0.1-7.3c0,0-2.6-1-5.7,3.9c-3,5.1,2.1,7.6,2.1,7.6"/>
								<path class="st6" d="M233.8,194.3c-0.1-1.1,0.2-2.4,1-3.8c3.2-5.2,6-4.2,6.2-4.1c1.2,0.4,2,1.2,2.2,2.2
									c0.6,2.4-2.3,5.7-2.3,5.7c-0.2,0.1-0.5,0.1-0.6,0c-0.1-0.2-0.1-0.5,0-0.6c0,0,2.6-3,2.1-5c-0.1-0.8-0.7-1.3-1.8-1.5
									c0,0-2.5-0.8-5.2,3.8c-0.9,1.4-1.1,2.8-0.7,3.9c0.5,1.9,2.5,3,2.5,3c0.1,0.2,0.3,0.3,0.1,0.6c-0.2,0.1-0.3,0.3-0.6,0.1
									c-0.2,0-2.3-1.3-3-3.5C233.9,195,233.9,194.6,233.8,194.3z"/>
							</g>
							<g>
								<path class="st8" d="M231.7,202.8c0,0-0.3,2.1-1.5,3.2"/>
								<path class="st6" d="M229.7,206c0-0.2,0-0.2,0.2-0.3c1-1.2,1.3-3.1,1.3-3.1c0-0.2,0.2-0.5,0.5-0.3c0.2,0,0.5,0.2,0.3,0.5
									c0,0.2-0.3,2.2-1.5,3.6c-0.2,0.1-0.5,0.1-0.6,0C229.9,206.2,229.7,206.1,229.7,206z"/>
							</g>
							<g>
								<path class="st8" d="M232.5,199.2c0,0-2.1-7.6-9.1-1.4"/>
								<path class="st6" d="M223.1,197.9c0-0.2,0-0.3,0.2-0.3c2.5-2.2,4.7-3,6.5-2.4c2.5,0.8,3.3,3.9,3.4,3.9c0,0.2,0,0.5-0.3,0.5
									c-0.2,0-0.5,0-0.5-0.3c0,0-0.8-2.8-2.8-3.4c-1.6-0.4-3.4,0.3-5.7,2.2c-0.2,0.1-0.5,0.1-0.6,0
									C223.1,198.1,223.1,198.1,223.1,197.9z"/>
							</g>
							<g>
								<path class="st8" d="M226.7,191.1c0,0,0.5,3.9-1.1,5.2"/>
								<path class="st6" d="M225.1,196.5c0-0.2,0-0.3,0.2-0.3c1.2-1,1.2-3.9,0.9-4.9c0-0.2,0.2-0.5,0.3-0.5c0.2,0,0.5,0.2,0.5,0.3
									c0,0.2,0.5,4-1.3,5.6c-0.2,0.1-0.5,0.1-0.6,0C225.1,196.6,225.1,196.5,225.1,196.5z"/>
							</g>
							<g>
								<path class="st8" d="M239,182.5c0,0,3.3,1.2,2.7,4.6c0,0-2.1-1.7-5.4,1.7c-1.5,1.7-4.6-2.5-4.6-2.5"/>
								<path class="st6" d="M231.5,186.4c0-0.2,0-0.3,0.2-0.3c0.2-0.1,0.5-0.1,0.6,0c0.6,0.7,2.2,2.7,3.3,2.8
									c0.2,0,0.5-0.1,0.5-0.3c2.6-2.7,4.5-2.6,5.4-2.2c0-2.7-2.5-3.5-2.6-3.7c-0.2,0-0.3-0.3-0.3-0.5s0.3-0.3,0.5-0.3
									c0,0,3.7,1.4,3,5.1l-0.1,0.8l-0.6-0.5c0,0-1.8-1.4-4.9,1.8c-0.3,0.3-0.8,0.6-1.3,0.6c-1.7-0.1-3.8-2.8-3.9-3.1
									C231.4,186.5,231.4,186.5,231.5,186.4z"/>
							</g>
						</g>
					</g>
				</g>
			</g>
			<path class="st12" d="M383.9,757.1c-17.6-1.1-30.9-9.5-35.6-23.3c-7.2-21.2-2.7-35,2.6-42.8c3.7-5.5,8.1-9,10.7-10.8
				c-14.1-43.9-161.7-503.7-168.2-547.1c-2.2-14.9,0.3-27.4,7.5-37.1c10.6-14.4,27.9-17.5,29.6-17.8c17.7-3.6,32.6-1.3,44,6.9
				c17,12.6,20.1,34.1,20.4,36.6l122.9,545.6c4.6-0.3,13.4,0.1,20.8,6.1c8.5,6.8,12.7,18.6,12.6,35.2c-0.1,26.9-26.5,43.4-50.8,47.4
				C394.4,757.1,389,757.4,383.9,757.1z M231.6,85.1c-1.6,0.2-37.3,6.2-31.2,46.9c6.6,44,167.1,543.5,168.9,548.6l0.9,2.9l-2.8,1.3
				c-1,0.4-24.2,12-12.4,46.6c6.1,17.4,27.5,20.5,43.9,17.8c22.2-3.7,44.8-18.8,44.9-40.6c0.1-14.2-3.2-24.1-9.9-29.6
				c-7.9-6.4-18.2-4.3-18.3-4.4l-3.4,0.7l-0.7-3.4L287.7,122.8l0-0.2c0-0.2-2.3-20.8-17.5-32c-9.7-7.1-22.5-8.9-38.3-5.8L231.6,85.1
				z"/>
			<g>
				<path class="st0" d="M355.4,665.5l5.3,16.1c0.7,2.1,2.8,3.2,4.9,2.7l49.7-12.4c2.3-0.5,3.5-2.8,3-5.1l-3.5-15.2
					c-0.5-2.3-2.8-3.7-5-3.2l-51.5,11.4C356,660.6,354.6,663.1,355.4,665.5z"/>
				<path class="st12" d="M364.3,688c-3-0.2-5.7-2.3-6.8-5.2l-5.3-16.1c-0.7-2.1-0.5-4.3,0.6-6.2c1.1-1.8,2.9-3.3,5-3.7l51.5-11.4
					c4.2-0.8,8.2,1.6,9.2,5.8l3.5,15.2c0.9,4-1.6,8.2-5.7,9.2l-49.7,12.4C365.9,688,365.1,688.1,364.3,688z M411,652l-0.2,0
					l-51.5,11.4c-0.3,0-0.3,0.1-0.5,0.3c0,0.2-0.2,0.3,0,0.5l0,0l5.3,16.1c0.1,0.3,0.4,0.5,0.8,0.4l49.7-12.4
					c0.3-0.1,0.5-0.4,0.5-0.8l-3.5-15.2C411.7,652.2,411.3,652,411,652z"/>
			</g>
		</g>
	</g>
</g>
</svg>
