<?xml version="1.0" encoding="utf-8"?>
<!-- Generator: Adobe Illustrator 27.7.0, SVG Export Plug-In . SVG Version: 6.00 Build 0)  -->
<svg version="1.1" id="레이어_1" xmlns="http://www.w3.org/2000/svg" xmlns:xlink="http://www.w3.org/1999/xlink" x="0px"
	 y="0px" viewBox="0 0 1080 1013.3" style="enable-background:new 0 0 1080 1013.3;" xml:space="preserve">
<style type="text/css">
	.st0{fill:#FFFFFF;}
	.st1{fill:#FF0000;}
</style>
<g id="_x31__00000030444540254362127580000015874118718527077039_">
	<circle class="st0" cx="237.2" cy="436.4" r="55.6"/>
	<g>
		<path class="st1" d="M282.5,440c1.1-1.5,2.3-2.4,2.4-2.5c1.1-0.8,1.4-2.4,0.5-3.5c-0.8-1.1-2.4-1.4-3.5-0.6
			c-0.2,0.1-2.4,1.8-4.2,4.7c-2.5-1.1-4.9-2.4-7.2-3.8c1.4-1.7,2.8-2.5,2.8-2.5c1.2-0.7,1.6-2.2,0.9-3.4c-0.7-1.2-2.2-1.6-3.4-0.9
			c-0.2,0.1-2.3,1.4-4.4,3.9c-2-1.6-3.9-3.3-5.7-5.2c1.4-1.2,2.7-1.7,2.8-1.8c1.3-0.5,1.9-2,1.4-3.3s-2-1.9-3.2-1.4
			c-0.2,0.1-2.1,0.9-4.2,2.6c-0.2-0.3-0.4-0.5-0.6-0.8c-1.4-1.8-2.6-3.6-3.7-5.5c1.5-0.6,2.6-0.8,2.7-0.8c0.4-0.1,0.8-0.2,1.1-0.5
			c0.7-0.5,1.1-1.4,1-2.3c-0.2-1.4-1.4-2.3-2.8-2.1c-0.2,0-2,0.3-4.3,1.3c-0.9-2.1-1.8-4.2-2.4-6.3c1.7-0.1,2.8,0.1,2.9,0.1
			c0.7,0.1,1.4-0.1,2-0.5c0.5-0.4,0.8-0.9,0.9-1.5c0.3-1.4-0.6-2.7-2-2.9c-0.2,0-2.3-0.4-5,0c-0.4-2.1-0.7-4.2-0.9-6.4
			c1.7,0.2,2.9,0.6,2.9,0.6c0.8,0.3,1.7,0.2,2.4-0.3c0.4-0.3,0.6-0.6,0.8-1.1c0.5-1.3-0.1-2.7-1.4-3.2c-0.2-0.1-2.1-0.8-4.9-0.9
			c0-2.5,0.2-5,0.6-7.5c-1.6-0.3-3.3-0.5-5-0.6c-0.4,2.8-0.7,5.7-0.7,8.5c-1.8,0.5-3.8,1.3-5.7,2.7l0,0c-1.1,0.8-1.3,2.4-0.5,3.5
			s2.4,1.3,3.5,0.5c0.9-0.7,1.9-1.2,2.9-1.5c0.2,2.4,0.6,4.8,1.1,7.1c-1.7,0.8-3.5,1.9-5,3.6c-0.9,1-0.9,2.6,0.2,3.5
			c1,0.9,2.6,0.9,3.5-0.2c0.8-0.9,1.7-1.6,2.6-2.1c0.8,2.6,1.8,5.1,3,7.6c-1.5,1.3-3,3.1-4,5.4c-0.6,1.3,0,2.7,1.3,3.3
			c1.3,0.6,2.7,0,3.3-1.3c0.5-1.1,1.2-2.1,1.9-2.8c1.1,1.9,2.4,3.8,3.8,5.7c0.4,0.5,0.8,1,1.2,1.6c-1,1.6-1.9,3.5-2.3,5.8
			c-0.2,1.4,0.7,2.7,2,2.9c0.7,0.1,1.4-0.1,2-0.5c0.5-0.4,0.8-0.9,1-1.6c0.2-1,0.5-1.9,0.9-2.7c2,2,4.1,3.9,6.3,5.6
			c-0.6,1.5-1,3.3-1.1,5.2c0,1.4,1,2.5,2.4,2.6c0.6,0,1.1-0.2,1.6-0.5c0.6-0.4,1-1.1,1-1.9c0-0.9,0.2-1.7,0.4-2.4
			c2.4,1.5,5,2.9,7.6,4c-0.4,1.5-0.6,3.1-0.5,5c0.1,1.4,1.3,2.4,2.7,2.3c0.5,0,1-0.2,1.3-0.5c0.6-0.5,1-1.3,1-2.2
			c-0.1-1,0-1.9,0.2-2.8c3.7,1.2,7.5,2.1,11.3,2.6c0.3-1.6,0.6-3.3,0.7-5C289.1,441.8,285.7,441,282.5,440z"/>
		<path class="st1" d="M182,430.6c2.5,0.3,4.9,0.8,7.3,1.4c-0.6,2.7-0.4,4.8-0.4,5c0.1,1.4,1.4,2.4,2.7,2.3c0.5,0,0.9-0.2,1.3-0.5
			c0.7-0.5,1.1-1.3,1-2.2c0,0-0.1-1.3,0.2-3c2,0.7,4,1.6,5.9,2.6c-1.1,2.6-1.3,4.7-1.3,4.9c-0.1,1.4,0.9,2.6,2.3,2.7
			c0.6,0.1,1.3-0.1,1.7-0.5c0.5-0.4,0.9-1,1-1.8c0,0,0.1-1.2,0.7-2.8c1.9,1.2,3.7,2.6,5.4,4c-1.6,1.9-2.4,3.6-2.5,3.8
			c-0.5,1.3,0,2.7,1.3,3.3c0.9,0.4,1.8,0.2,2.5-0.3c0.3-0.2,0.6-0.6,0.8-1c0-0.1,0.5-1.1,1.5-2.4c1.5,1.6,3,3.2,4.3,5
			c0.2,0.3,0.4,0.6,0.6,0.8c-2.3,1.6-3.6,3.2-3.7,3.4c-0.8,1.1-0.6,2.6,0.5,3.5c1.1,0.8,2.7,0.6,3.5-0.4c0.1-0.1,1-1.2,2.5-2.2
			c1.3,2.2,2.5,4.6,3.5,6.9c-3,1.3-4.8,3-5,3.2c-1,1-1,2.5-0.1,3.5c1,1,2.5,1,3.5,0.1c0,0,1.2-1.2,3.2-2c0.8,2.6,1.4,5.3,1.7,8
			c-3.3,1-5.5,2.7-5.7,2.8c-1.1,0.9-1.3,2.4-0.4,3.5c0.9,1.1,2.4,1.3,3.5,0.4c0.1-0.1,1.2-0.9,3-1.6c0.1,3.4-0.1,6.9-0.6,10.2
			c1.6,0.3,3.3,0.5,5,0.6c0.6-3.8,0.8-7.7,0.6-11.6c0.9,0.1,1.8,0.2,2.7,0.6c0.8,0.3,1.7,0.1,2.3-0.4c0.4-0.3,0.7-0.7,0.8-1.2
			c0.5-1.3-0.2-2.7-1.5-3.2c-1.7-0.6-3.4-0.9-4.9-0.9c-0.4-2.8-1-5.6-1.8-8.4c0.8,0,1.6,0.1,2.4,0.3c0.8,0.2,1.5,0,2.1-0.4
			c0.4-0.3,0.8-0.8,0.9-1.4c0.3-1.3-0.5-2.7-1.8-3c-1.9-0.5-3.7-0.5-5.3-0.4c-1-2.6-2.3-5.2-3.7-7.6c0.9-0.2,1.8-0.2,2.9-0.1
			c0.7,0.1,1.3-0.1,1.8-0.5s0.9-1,1-1.8c0.1-1.4-0.9-2.6-2.2-2.7c-2.3-0.2-4.4,0.1-6.2,0.7c-0.4-0.5-0.8-1.1-1.2-1.6
			c-1.4-1.8-2.9-3.6-4.5-5.2c0.9-0.5,2-0.9,3.2-1c1.4-0.2,2.3-1.5,2.1-2.8c-0.2-1.4-1.5-2.3-2.8-2.1c-2.5,0.4-4.6,1.3-6.3,2.4
			c-2.1-1.8-4.3-3.4-6.5-4.9c0.7-0.7,1.6-1.4,2.7-2c1.2-0.6,1.7-2.1,1.1-3.4c-0.6-1.2-2.1-1.7-3.4-1.1c-2.1,1.1-3.7,2.4-4.9,3.9
			c-2.1-1.1-4.3-2.1-6.6-3c0.6-0.8,1.3-1.6,2.3-2.3c1.1-0.8,1.3-2.4,0.5-3.5s-2.4-1.3-3.5-0.5l0,0c-1.9,1.4-3.2,3.1-4.1,4.7
			c-2.8-0.8-5.6-1.3-8.4-1.7C182.4,427.3,182.2,428.9,182,430.6z"/>
	</g>
	<path d="M272.3,482.7c-25.5,19.3-62,14.3-81.3-11.2s-14.3-62,11.2-81.3s62-14.3,81.3,11.2C302.9,426.8,297.8,463.3,272.3,482.7z
		 M205.2,394.1c-23.3,17.7-27.9,51-10.2,74.3s51,27.9,74.3,10.2s27.9-51,10.2-74.3C261.9,381,228.5,376.4,205.2,394.1z"/>
</g>
</svg>
