<?xml version="1.0" encoding="utf-8"?>
<!-- Generator: Adobe Illustrator 27.7.0, SVG Export Plug-In . SVG Version: 6.00 Build 0)  -->
<svg version="1.1" id="레이어_1" xmlns="http://www.w3.org/2000/svg" xmlns:xlink="http://www.w3.org/1999/xlink" x="0px"
	 y="0px" viewBox="0 0 1080 1013.3" style="enable-background:new 0 0 1080 1013.3;" xml:space="preserve">
<style type="text/css">
	.st0{fill:#FFFFFF;}
	.st1{fill:#FF0000;}
	.st2{fill:#8C5A31;}
	.st3{fill:none;}
</style>
<g id="_x32__00000139284173730003390590000015329508720917973661_">
	<g id="_x31__00000070094832132290190570000001847403481500250289_">
		<circle class="st0" cx="839.1" cy="460" r="55.6"/>
		<g>
			<path class="st1" d="M884.4,463.6c1.1-1.5,2.3-2.4,2.4-2.5c1.1-0.8,1.4-2.4,0.5-3.5c-0.8-1.1-2.4-1.4-3.5-0.6
				c-0.2,0.1-2.4,1.8-4.2,4.7c-2.5-1.1-4.9-2.4-7.2-3.8c1.4-1.7,2.8-2.5,2.8-2.5c1.2-0.7,1.6-2.2,0.9-3.4c-0.7-1.2-2.2-1.6-3.4-0.9
				c-0.2,0.1-2.3,1.4-4.4,3.9c-2-1.6-3.9-3.3-5.7-5.2c1.4-1.2,2.7-1.7,2.8-1.8c1.3-0.5,1.9-2,1.4-3.3s-2-1.9-3.2-1.4
				c-0.2,0.1-2.1,0.9-4.2,2.6c-0.2-0.3-0.4-0.5-0.6-0.8c-1.4-1.8-2.6-3.6-3.7-5.5c1.5-0.6,2.6-0.8,2.7-0.8c0.4-0.1,0.8-0.2,1.1-0.5
				c0.7-0.5,1.1-1.4,1-2.3c-0.2-1.4-1.4-2.3-2.8-2.1c-0.2,0-2,0.3-4.3,1.3c-0.9-2.1-1.8-4.2-2.4-6.3c1.7-0.1,2.8,0.1,2.9,0.1
				c0.7,0.1,1.4-0.1,2-0.5c0.5-0.4,0.8-0.9,0.9-1.5c0.3-1.4-0.6-2.7-2-2.9c-0.2,0-2.3-0.4-5,0c-0.4-2.1-0.7-4.2-0.9-6.4
				c1.7,0.2,2.9,0.6,2.9,0.6c0.8,0.3,1.7,0.2,2.4-0.3c0.4-0.3,0.6-0.6,0.8-1.1c0.5-1.3-0.1-2.7-1.4-3.2c-0.2-0.1-2.1-0.8-4.9-0.9
				c0-2.5,0.2-5,0.6-7.5c-1.6-0.3-3.3-0.5-5-0.6c-0.4,2.8-0.7,5.7-0.7,8.5c-1.8,0.5-3.8,1.3-5.7,2.7l0,0c-1.1,0.8-1.3,2.4-0.5,3.5
				c0.8,1.1,2.4,1.3,3.5,0.5c0.9-0.7,1.9-1.2,2.9-1.5c0.2,2.4,0.6,4.8,1.1,7.1c-1.7,0.8-3.5,1.9-5,3.6c-0.9,1-0.9,2.6,0.2,3.5
				c1,0.9,2.6,0.9,3.5-0.2c0.8-0.9,1.7-1.6,2.6-2.1c0.8,2.6,1.8,5.1,3,7.6c-1.5,1.3-3,3.1-4,5.4c-0.6,1.3,0,2.7,1.3,3.3
				c1.3,0.6,2.7,0,3.3-1.3c0.5-1.1,1.2-2.1,1.9-2.8c1.1,1.9,2.4,3.8,3.8,5.7c0.4,0.5,0.8,1,1.2,1.6c-1,1.6-1.9,3.5-2.3,5.8
				c-0.2,1.4,0.7,2.7,2,2.9c0.7,0.1,1.4-0.1,2-0.5c0.5-0.4,0.8-0.9,1-1.6c0.2-1,0.5-1.9,0.9-2.7c2,2,4.1,3.9,6.3,5.6
				c-0.6,1.5-1,3.3-1.1,5.2c0,1.4,1,2.5,2.4,2.6c0.6,0,1.1-0.2,1.6-0.5c0.6-0.4,1-1.1,1-1.9c0-0.9,0.2-1.7,0.4-2.4
				c2.4,1.5,5,2.9,7.6,4c-0.4,1.5-0.6,3.1-0.5,5c0.1,1.4,1.3,2.4,2.7,2.3c0.5,0,1-0.2,1.3-0.5c0.6-0.5,1-1.3,1-2.2
				c-0.1-1,0-1.9,0.2-2.8c3.7,1.2,7.5,2.1,11.3,2.6c0.3-1.6,0.6-3.3,0.7-5C891,465.4,887.6,464.6,884.4,463.6z"/>
			<path class="st1" d="M783.9,454.2c2.5,0.3,4.9,0.8,7.3,1.4c-0.6,2.7-0.4,4.8-0.4,5c0.1,1.4,1.4,2.4,2.7,2.3
				c0.5,0,0.9-0.2,1.3-0.5c0.7-0.5,1.1-1.3,1-2.2c0,0-0.1-1.3,0.2-3c2,0.7,4,1.6,5.9,2.6c-1.1,2.6-1.3,4.7-1.3,4.9
				c-0.1,1.4,0.9,2.6,2.3,2.7c0.6,0.1,1.3-0.1,1.7-0.5c0.5-0.4,0.9-1,1-1.8c0,0,0.1-1.2,0.7-2.8c1.9,1.2,3.7,2.6,5.4,4
				c-1.6,1.9-2.4,3.6-2.5,3.8c-0.5,1.3,0,2.7,1.3,3.3c0.9,0.4,1.8,0.2,2.5-0.3c0.3-0.2,0.6-0.6,0.8-1c0-0.1,0.5-1.1,1.5-2.4
				c1.5,1.6,3,3.2,4.3,5c0.2,0.3,0.4,0.6,0.6,0.8c-2.3,1.6-3.6,3.2-3.7,3.4c-0.8,1.1-0.6,2.6,0.5,3.5c1.1,0.8,2.7,0.6,3.5-0.4
				c0.1-0.1,1-1.2,2.5-2.2c1.3,2.2,2.5,4.6,3.5,6.9c-3,1.3-4.8,3-5,3.2c-1,1-1,2.5-0.1,3.5c1,1,2.5,1,3.5,0.1c0,0,1.2-1.2,3.2-2
				c0.8,2.6,1.4,5.3,1.7,8c-3.3,1-5.5,2.7-5.7,2.8c-1.1,0.9-1.3,2.4-0.4,3.5c0.9,1.1,2.4,1.3,3.5,0.4c0.1-0.1,1.2-0.9,3-1.6
				c0.1,3.4-0.1,6.9-0.6,10.2c1.6,0.3,3.3,0.5,5,0.6c0.6-3.8,0.8-7.7,0.6-11.6c0.9,0.1,1.8,0.2,2.7,0.6c0.8,0.3,1.7,0.1,2.3-0.4
				c0.4-0.3,0.7-0.7,0.8-1.2c0.5-1.3-0.2-2.7-1.5-3.2c-1.7-0.6-3.4-0.9-4.9-0.9c-0.4-2.8-1-5.6-1.8-8.4c0.8,0,1.6,0.1,2.4,0.3
				c0.8,0.2,1.5,0,2.1-0.4c0.4-0.3,0.8-0.8,0.9-1.4c0.3-1.3-0.5-2.7-1.8-3c-1.9-0.5-3.7-0.5-5.3-0.4c-1-2.6-2.3-5.2-3.7-7.6
				c0.9-0.2,1.8-0.2,2.9-0.1c0.7,0.1,1.3-0.1,1.8-0.5s0.9-1,1-1.8c0.1-1.4-0.9-2.6-2.2-2.7c-2.3-0.2-4.4,0.1-6.2,0.7
				c-0.4-0.5-0.8-1.1-1.2-1.6c-1.4-1.8-2.9-3.6-4.5-5.2c0.9-0.5,2-0.9,3.2-1c1.4-0.2,2.3-1.5,2.1-2.8c-0.2-1.4-1.5-2.3-2.8-2.1
				c-2.5,0.4-4.6,1.3-6.3,2.4c-2.1-1.8-4.3-3.4-6.5-4.9c0.7-0.7,1.6-1.4,2.7-2c1.2-0.6,1.7-2.1,1.1-3.4c-0.6-1.2-2.1-1.7-3.4-1.1
				c-2.1,1.1-3.7,2.4-4.9,3.9c-2.1-1.1-4.3-2.1-6.6-3c0.6-0.8,1.3-1.6,2.3-2.3c1.1-0.8,1.3-2.4,0.5-3.5c-0.8-1.1-2.4-1.3-3.5-0.5
				l0,0c-1.9,1.4-3.2,3.1-4.1,4.7c-2.8-0.8-5.6-1.3-8.4-1.7C784.3,450.9,784.1,452.5,783.9,454.2z"/>
		</g>
		<path d="M874.2,506.3c-25.5,19.3-62,14.3-81.3-11.2c-19.3-25.5-14.3-62,11.2-81.3s62-14.3,81.3,11.2
			C904.8,450.4,899.7,486.9,874.2,506.3z M807.1,417.7c-23.3,17.7-27.9,51-10.2,74.3c17.7,23.3,51,27.9,74.3,10.2s27.9-51,10.2-74.3
			C863.8,404.6,830.4,400,807.1,417.7z"/>
	</g>
	<g id="_x32__00000088126787224670322260000002519412270608332984_">
		<g>
			<path class="st2" d="M790.2,387.7l47.7-36.7c0,0,80,21,61.3,84.1s-65.8,27.6-65.8,27.6s-1.5,21.9-18.4,13
				C798.2,466.8,781.3,433,790.2,387.7z"/>
			<path d="M822.4,480.3c-2.6,0-5.4-0.8-8.5-2.4c-9.6-5.1-18.1-16.6-23.3-31.7c-4.2-12.2-8.1-32.3-2.9-59l0.2-0.9l49.4-38.1l1.2,0.3
				c1.7,0.5,42.2,11.4,59,41.2c7.7,13.7,9.1,29.2,4.1,46.1c-6.1,20.6-15.9,33.3-29.1,37.7c-15.3,5-30.6-2.5-37.2-6.6
				c-0.9,3.9-2.9,9.5-7.5,12C826.1,479.9,824.3,480.3,822.4,480.3z M792.5,389.1c-8.5,45.1,8.7,76.5,23.8,84.4
				c3.8,2,6.8,2.4,9.1,1.1c4.1-2.3,5.4-9.5,5.6-12.1l0.3-4.6l3.7,2.8c0.2,0.1,18.6,13.8,36,8.1c11.6-3.8,20.3-15.4,25.9-34.3
				c4.6-15.5,3.3-29.7-3.7-42.2c-14.2-25.3-48-36.5-54.7-38.5L792.5,389.1z"/>
		</g>
		<g>
			<polygon class="st2" points="790.2,387.7 781.9,377.9 829,343 837.9,352.1 			"/>
			<path d="M789.8,391.1l-11.5-13.6l51-37.9l12.4,12.8L789.8,391.1z M785.5,378.3l5.1,6l43.5-32.5l-5.4-5.6L785.5,378.3z"/>
		</g>
		<g>
			<line class="st3" x1="789.9" y1="371.1" x2="797.9" y2="381.8"/>
			<rect x="791.4" y="369.8" transform="matrix(0.8 -0.6 0.6 0.8 -67.0886 551.6311)" width="5" height="13.3"/>
		</g>
		<g>
			<line class="st3" x1="800.9" y1="363.7" x2="808.6" y2="374.7"/>
			<rect x="802.2" y="362.5" transform="matrix(0.8182 -0.575 0.575 0.8182 -65.9449 529.837)" width="5" height="13.4"/>
		</g>
		<g>
			<line class="st3" x1="810.3" y1="356.9" x2="817.7" y2="367.3"/>
			<rect x="811.5" y="355.7" transform="matrix(0.8137 -0.5813 0.5813 0.8137 -58.8039 540.6236)" width="5" height="12.7"/>
		</g>
		<g>
			<line class="st3" x1="819.2" y1="350.4" x2="827.5" y2="360.1"/>
			<rect x="820.9" y="348.8" transform="matrix(0.7625 -0.647 0.647 0.7625 -34.2428 617.0618)" width="5" height="12.8"/>
		</g>
		<rect x="863.4" y="436.6" transform="matrix(0.6377 -0.7703 0.7703 0.6377 -36.3464 831.6258)" width="5" height="35.8"/>
		<rect x="877.9" y="413.1" transform="matrix(0.4923 -0.8704 0.8704 0.4923 71.0587 985.6238)" width="5" height="37.6"/>
		<rect x="884.9" y="390.2" transform="matrix(0.3714 -0.9285 0.9285 0.3714 181.0735 1079.0269)" width="5" height="31.1"/>
		<g>
			<g>
				<polygon class="st2" points="874.8,449.8 870.6,464.8 868.6,465.4 872.9,450.4 				"/>
				<path d="M874.8,449.8l-4.3,15l-1.9,0.6l4.3-15L874.8,449.8 M876.3,448.3l-1.8,0.5l-1.9,0.6l-0.5,0.2l-0.1,0.5l-4.3,15l-0.5,1.8
					l1.8-0.5l1.9-0.6l0.5-0.2l0.1-0.5l4.3-15L876.3,448.3L876.3,448.3z"/>
			</g>
			<g>
				<polygon class="st2" points="878.9,456.3 864,460.9 864.5,458.9 879.5,454.4 				"/>
				<path d="M879.5,454.4l-0.6,1.9l-14.9,4.6l0.6-1.9L879.5,454.4 M881,452.9l-1.8,0.5l-14.9,4.6l-0.5,0.2l-0.1,0.5l-0.6,1.9
					l-0.5,1.8l1.8-0.5l14.9-4.6l0.5-0.2l0.1-0.5l0.6-1.9L881,452.9L881,452.9z"/>
			</g>
		</g>
		<g>
			<g>
				<polygon class="st2" points="886.7,426.6 888.8,442 887.3,443.4 885.2,427.9 				"/>
				<path d="M886.7,426.6l2.1,15.5l-1.5,1.3l-2.1-15.5L886.7,426.6 M887.4,424.6l-1.4,1.2l-1.5,1.3l-0.4,0.4l0.1,0.5l2.1,15.5
					l0.3,1.8l1.4-1.2l1.5-1.3l0.4-0.4l-0.1-0.5l-2.1-15.5L887.4,424.6L887.4,424.6z"/>
			</g>
			<g>
				<polygon class="st2" points="893.1,430.9 881.2,441.1 880.9,439.1 892.8,428.9 				"/>
				<path d="M892.8,428.9l0.3,2l-11.8,10.2l-0.3-2L892.8,428.9 M893.5,426.9l-1.4,1.2l-11.8,10.2l-0.4,0.4l0.1,0.5l0.3,2l0.3,1.8
					l1.4-1.2l11.8-10.2l0.4-0.4l-0.1-0.5l-0.3-2L893.5,426.9L893.5,426.9z"/>
			</g>
		</g>
		<g>
			<g>
				<polygon class="st2" points="886,399.9 895.5,412.4 894.8,414.3 885.4,401.8 				"/>
				<path d="M886,399.9l9.4,12.5l-0.7,1.9l-9.4-12.5L886,399.9 M885.7,397.9l-0.6,1.7l-0.7,1.9l-0.2,0.5l0.3,0.4l9.4,12.5l1.1,1.5
					l0.6-1.7l0.7-1.9l0.2-0.5l-0.3-0.4l-9.4-12.5L885.7,397.9L885.7,397.9z"/>
			</g>
			<g>
				<polygon class="st2" points="893.7,400.6 888.3,415.3 887.1,413.6 892.5,399 				"/>
				<path d="M892.5,399l1.2,1.6l-5.4,14.7l-1.2-1.6L892.5,399 M892.2,396.9l-0.6,1.7l-5.4,14.7l-0.2,0.5l0.3,0.4l1.2,1.6l1.1,1.5
					l0.6-1.7l5.4-14.7l0.2-0.5l-0.3-0.4l-1.2-1.6L892.2,396.9L892.2,396.9z"/>
			</g>
		</g>
	</g>
</g>
</svg>
