<?xml version="1.0" encoding="utf-8"?>
<!-- Generator: Adobe Illustrator 27.7.0, SVG Export Plug-In . SVG Version: 6.00 Build 0)  -->
<svg version="1.1" id="레이어_1" xmlns="http://www.w3.org/2000/svg" xmlns:xlink="http://www.w3.org/1999/xlink" x="0px"
	 y="0px" viewBox="0 0 1080 1013.3" style="enable-background:new 0 0 1080 1013.3;" xml:space="preserve">
<style type="text/css">
	.st0{clip-path:url(#XMLID_00000130638573192760487010000008324460932530732968_);}
	.st1{clip-path:url(#XMLID_00000114778311496114611760000003554819651984218297_);fill:#F24922;}
	.st2{clip-path:url(#XMLID_00000114778311496114611760000003554819651984218297_);}
	.st3{fill:#FFECDE;}
	.st4{clip-path:url(#XMLID_00000137122166749235994980000016034962084899138182_);}
	.st5{clip-path:url(#XMLID_00000040539921188042475110000009239337569174845336_);fill:#F24922;}
	.st6{clip-path:url(#XMLID_00000040539921188042475110000009239337569174845336_);}
</style>
<g id="_x33__00000155846821391745178890000005521711800856346279_">
	<g>
		<g>
			<defs>
				<path id="XMLID_00000134234172771764344610000002120871077823267977_" d="M952.5,57.8c0,0-24.1-10-35,16.4
					c-10.9,26.4-87.1,351-87.1,351s-18.9-2-24.2,22.9c-5.3,24.9,44.8,42.2,59.4,18.2c14.6-24-5.4-30.7-5.4-30.7L971.7,99.3
					C971.7,99.3,985.7,69.5,952.5,57.8z"/>
			</defs>
			<defs>
				<path id="XMLID_00000140716523613198035750000006197066881697271999_" d="M952.5,57.8c0,0-24.1-10-35,16.4
					c-10.9,26.4-87.1,351-87.1,351s-18.9-2-24.2,22.9c-5.3,24.9,44.8,42.2,59.4,18.2c14.6-24-5.4-30.7-5.4-30.7L971.7,99.3
					C971.7,99.3,985.7,69.5,952.5,57.8z"/>
			</defs>
			<use xlink:href="#XMLID_00000134234172771764344610000002120871077823267977_"  style="overflow:visible;fill:#F9F5F2;"/>
			<clipPath id="XMLID_00000012449159675463578830000008360477701497080229_">
				<use xlink:href="#XMLID_00000134234172771764344610000002120871077823267977_"  style="overflow:visible;"/>
			</clipPath>
			
				<clipPath id="XMLID_00000034799390185479245660000006559659335602779541_" style="clip-path:url(#XMLID_00000012449159675463578830000008360477701497080229_);">
				<use xlink:href="#XMLID_00000140716523613198035750000006197066881697271999_"  style="overflow:visible;"/>
			</clipPath>
			<path style="clip-path:url(#XMLID_00000034799390185479245660000006559659335602779541_);fill:#F24922;" d="M856.3,290.6
				l57.1,16.5l76.2-241c0,0-64.6-27.5-67.4-24.1s-28,15.7-35,45.9C880.2,118.2,856.3,290.6,856.3,290.6z"/>
			<path style="clip-path:url(#XMLID_00000034799390185479245660000006559659335602779541_);" d="M948.4,167.1l-10.3,4.7
				c0,0,9.3-14.6,6.3-27.8c0,0-9,12.7-14.5,16c-6.1,3.7-20.2,9-31.7,25.1c-12.8,17.8-11.9,22.2-11.9,22.2s-8.3,9.3-3.6,13.8
				s7.3-1.1,7.3-1.1s-2.5-3.1,1.5-5.5c4-2.4,9.6-1.5,9.6-1.5s1.1,18.4,1.6,18.1s21.7-16.2,26.3-20.5c4.6-4.3,4-7.8,4-7.8
				s1,0.8,7.1-3.3C946.2,195.5,952,170,948.4,167.1z"/>
			<g style="clip-path:url(#XMLID_00000034799390185479245660000006559659335602779541_);">
				<path class="st3" d="M940.3,153.1c0,0-1,10.3-6.5,16.2c-5.5,5.9-15.1,9.8-17.2,13.1s0,5.7,0,5.7s11.3-7.6,14.4-11.8
					c0,0,0.7,7.3-3.4,12.3c-4.1,5-10.8,8.3-10.8,8.3l0.2,7.2c0,0,5.5-2.6,8.4-4.9c2.9-2.3,5.8-6.7,5.8-6.7s0.7,9.3-6.5,16.2
					c-7.3,6.8-20.3,14.9-20.3,14.9l-1.1-15c0,0-7.2-1.9-11.8,2.4c-4.6,4.3-4.6,10.1-4.6,10.1s-3.7,0.4-3.7-3.7c0-4.1,4.2-10,4.2-10
					s2.4-9.8,11.3-20.7c8.9-10.8,14.6-16.6,25-21.5C934,160.3,940.3,153.1,940.3,153.1z"/>
			</g>
			<g style="clip-path:url(#XMLID_00000034799390185479245660000006559659335602779541_);">
				<path class="st3" d="M947.4,169c0,0-10.1,4.5-12.3,8.8s-3,9.3-1.8,11.6c0,0-1.3,4-1.6,8.1c-0.3,4.1,1.9,4.6,1.9,4.6
					s6.1-3.7,8.1-6.1C943.8,193.6,950.9,168.8,947.4,169z"/>
			</g>
			<path style="clip-path:url(#XMLID_00000034799390185479245660000006559659335602779541_);fill:#F24922;" d="M939.3,155.6
				c0,0-9.4,9.8-19,13.3c-9.6,3.5-29.8,27.7-32.3,39.4c0,0-8.1,9.8-1.9,12.2c0,0-0.2-15.3,17.7-13l0.8,14.1c0,0,18.7-12.9,22.3-17.7
				s3-6.9,3-6.9s-4.4,4.1-6.9,5.1c-2.5,1-7.4,5.3-7.4,5.3l-0.2-11.6c0,0,12-4.3,14-15.4c0,0-11.5,9.4-14.4,9.7c0,0-3.2-7.6,2-11.8
				C922.1,174.1,936.3,171.9,939.3,155.6z"/>
			<path style="clip-path:url(#XMLID_00000034799390185479245660000006559659335602779541_);fill:#F24922;" d="M947.3,171
				c0,0-11.3,5.5-12.3,8.8s-1.3,7-0.9,7.3c0.4,0.3,3.8-2.6,4.5-4.7s1.6-4.8,5.2-5.9c0,0-0.4,5-2.3,6.9s-5.5,2.2-7,7.7
				s-1.1,9.2-1.1,9.2s5.8-3.3,7.9-6.3S947.4,170.8,947.3,171z"/>
			<g style="clip-path:url(#XMLID_00000034799390185479245660000006559659335602779541_);">
				<path class="st3" d="M941,187.5c0,0-2.2-0.2-3.6,3.1s-0.3,4.5,1.3,3.4C940.2,193,941,187.5,941,187.5z"/>
			</g>
			<g style="clip-path:url(#XMLID_00000034799390185479245660000006559659335602779541_);">
				<path class="st3" d="M888.5,210.6c-0.1,0.5,7-8.1,15.7-9.3c0,0-1.6-7-0.1-10.2c1.5-3.1,6.5-8.8,6.4-8.6
					c-0.2,0.2-12,9.7-15.2,14.1s-4.9,8.4-4.9,8.4l3.5-3.9C893.9,201.2,888.7,208.7,888.5,210.6z"/>
			</g>
			<g style="clip-path:url(#XMLID_00000034799390185479245660000006559659335602779541_);">
				<path d="M856.2,274c1.1,0.3,46.8,9.8,58.6,17.5s-2,6.5-2,6.5s-49.3-16.6-67.7-17.9C826.7,278.7,856.2,274,856.2,274z"/>
			</g>
		</g>
		<path id="XMLID_00000170259229401704672620000014712646871240998334_" d="M942.1,56c6,0,10.5,1.9,10.5,1.9
			c33.3,11.7,19.2,41.5,19.2,41.5L860.4,435.6c0,0,20.1,6.7,5.4,30.7c-4.9,8.1-13.9,11.5-23.4,11.5c-18.7,0-39.5-13.1-36-29.7
			c4.6-21.4,19.2-22.9,23.1-22.9c0.7,0,1,0,1,0s76.2-324.6,87.1-351C923.8,59.2,934.3,56,942.1,56 M942.1,51.1
			c-5.7,0-10.9,1.4-15.4,4.2c-5.8,3.6-10.4,9.3-13.6,17c-10.4,25.2-77.6,310.5-86.4,348.1c-3,0.4-7,1.4-11.1,4
			c-7,4.5-11.7,12.1-13.9,22.6c-1.5,7,0.3,13.9,5.3,20c7.6,9.3,21.8,15.6,35.6,15.6c5.7,0,10.9-1.1,15.5-3.2
			c5.2-2.4,9.3-6,12.1-10.7c5.9-9.6,7.5-18.1,4.9-25.4c-1.9-5.1-5.5-8.4-8.5-10.3l110-332c1-2.2,6.3-15.4,0.9-28.4
			c-3.7-8.9-11.4-15.4-22.9-19.5C953.3,52.8,948.5,51.1,942.1,51.1L942.1,51.1z"/>
	</g>
	<g>
		<g>
			<defs>
				<path id="XMLID_00000063634445074734740700000014352853876636241318_" d="M135.9,101.9c0,0-25.5,5.5-19.4,33.4
					s128.2,338.2,128.2,338.2s-16.7,9.1-6.9,32.6c9.8,23.5,60.8,9.2,59.2-18.9c-1.6-28-21.9-22.2-21.9-22.2l-99.7-339.9
					C175.3,125.1,169.9,92.6,135.9,101.9z"/>
			</defs>
			<defs>
				<path id="XMLID_00000116937016260134043580000002625492797507601335_" d="M135.9,101.9c0,0-25.5,5.5-19.4,33.4
					s128.2,338.2,128.2,338.2s-16.7,9.1-6.9,32.6c9.8,23.5,60.8,9.2,59.2-18.9c-1.6-28-21.9-22.2-21.9-22.2l-99.7-339.9
					C175.3,125.1,169.9,92.6,135.9,101.9z"/>
			</defs>
			<use xlink:href="#XMLID_00000063634445074734740700000014352853876636241318_"  style="overflow:visible;fill:#F9F5F2;"/>
			<clipPath id="XMLID_00000080887500091157478090000015646260454831472546_">
				<use xlink:href="#XMLID_00000063634445074734740700000014352853876636241318_"  style="overflow:visible;"/>
			</clipPath>
			
				<clipPath id="XMLID_00000024682501839755131860000017854454536154543239_" style="clip-path:url(#XMLID_00000080887500091157478090000015646260454831472546_);">
				<use xlink:href="#XMLID_00000116937016260134043580000002625492797507601335_"  style="overflow:visible;"/>
			</clipPath>
			<path style="clip-path:url(#XMLID_00000024682501839755131860000017854454536154543239_);fill:#F24922;" d="M189.3,348.1l56.3-19
				L171.2,87.6c0,0-68.7,14.2-69.1,18.6s-14.1,28.8-2.7,57.7S189.3,348.1,189.3,348.1z"/>
			<path style="clip-path:url(#XMLID_00000024682501839755131860000017854454536154543239_);" d="M194.7,194.1l-5.8,9.7
				c0,0-0.7-17.3-10.6-26.4c0,0-0.2,15.6-2.8,21.4c-2.9,6.5-11.5,18.9-11.8,38.7c-0.4,21.9,2.9,25,2.9,25s-1.5,12.4,4.9,13.4
				c6.4,1.1,5.4-5,5.4-5s-3.8-1.1-1.9-5.4c1.9-4.3,7.1-6.7,7.1-6.7s11.3,14.5,11.6,14c0.3-0.5,8.6-25.6,9.9-31.8
				c1.3-6.2-1.1-8.7-1.1-8.7s1.3,0.1,3.9-6.7S199.4,194.5,194.7,194.1z"/>
			<g style="clip-path:url(#XMLID_00000024682501839755131860000017854454536154543239_);">
				<path class="st3" d="M180.2,187.2c0,0,5,9,3.8,17c-1.2,8-6.9,16.7-6.7,20.6c0.2,3.9,3.3,4.7,3.3,4.7s5-12.6,5.1-17.8
					c0,0,4.8,5.6,4.2,12.1c-0.5,6.5-4.2,13-4.2,13l4.2,5.8c0,0,3-5.2,4.1-8.8c1.1-3.6,1-8.8,1-8.8s5.9,7.3,3.8,17
					s-8.2,23.8-8.2,23.8l-9.5-11.7c0,0-7,2.6-8.3,8.7c-1.3,6.2,2,10.9,2,10.9s-2.8,2.4-5.1-0.9c-2.3-3.3-2.3-10.6-2.3-10.6
					s-3.7-9.4-2.5-23.4c1.2-14,2.6-22,8.4-31.9C179.1,196.7,180.2,187.2,180.2,187.2z"/>
			</g>
			<g style="clip-path:url(#XMLID_00000024682501839755131860000017854454536154543239_);">
				<path class="st3" d="M195.1,196.2c0,0-5.7,9.4-5.1,14.2c0.7,4.7,2.9,9.4,5.1,10.6c0,0,1.2,4,3.3,7.6s4.2,2.7,4.2,2.7
					s2.9-6.5,3.1-9.7S197.9,194.1,195.1,196.2z"/>
			</g>
			<path style="clip-path:url(#XMLID_00000024682501839755131860000017854454536154543239_);fill:#F24922;" d="M180.7,189.8
				c0,0-2.1,13.4-8.1,21.8c-5.9,8.4-8.8,39.7-4.2,50.8c0,0-1,12.7,5.3,11.1c0,0-8.9-12.5,7.2-20.8l8.7,11.2c0,0,8-21.3,8.2-27.2
				c0.2-6-1.5-7.4-1.5-7.4s-1.3,5.9-2.8,8.1s-3.1,8.6-3.1,8.6l-6.8-9.4c0,0,7.4-10.3,2.7-20.6c0,0-4,14.3-6.3,16.2
				c0,0-6.9-4.5-5.1-10.9S187.6,205,180.7,189.8z"/>
			<path style="clip-path:url(#XMLID_00000024682501839755131860000017854454536154543239_);fill:#F24922;" d="M196.1,198
				c0,0-6.1,11-5.1,14.2s2.9,6.5,3.4,6.5s1.7-4.3,1.1-6.4s-1.4-4.8,0.9-7.8c0,0,2.5,4.4,2,7c-0.5,2.6-3.3,4.9-1.4,10.3
				c1.9,5.4,4.3,8.2,4.3,8.2s2.8-6,2.9-9.7S196.1,197.8,196.1,198z"/>
			<g style="clip-path:url(#XMLID_00000024682501839755131860000017854454536154543239_);">
				<path class="st3" d="M200.3,215.2c0,0-1.9,1.1-1.2,4.6s2.3,3.8,3,2.1C202.8,220.1,200.3,215.2,200.3,215.2z"/>
			</g>
			<g style="clip-path:url(#XMLID_00000024682501839755131860000017854454536154543239_);">
				<path class="st3" d="M170.3,264c0.3,0.5,1.1-10.6,7.6-16.6c0,0-5.3-4.9-5.8-8.3c-0.5-3.4,0.4-10.9,0.4-10.7
					c0,0.3-4.3,14.8-4.5,20.2c-0.2,5.5,0.8,9.7,0.8,9.7l0.7-5.2C169.4,253.2,169.4,262.3,170.3,264z"/>
			</g>
			<g style="clip-path:url(#XMLID_00000024682501839755131860000017854454536154543239_);">
				<path d="M179.8,334.5c1.1-0.4,44-18.5,58.2-18.9s2.1,6.4,2.1,6.4s-50,14.4-65.9,23.8C158.2,355.2,179.8,334.5,179.8,334.5z"/>
			</g>
		</g>
		<path id="XMLID_00000076577767691154615350000015567354603463012756_" d="M147.5,100.2c23.8,0,27.9,24.9,27.9,24.9L275.2,465
			c0,0,1.8-0.5,4.3-0.5c6.1,0,16.5,2.9,17.6,22.7c1,18.2-20.2,30.7-37.8,30.7c-9.5,0-18-3.6-21.4-11.8c-9.8-23.5,6.9-32.6,6.9-32.6
			S122.7,163.1,116.6,135.3s19.4-33.4,19.4-33.4C140.3,100.7,144.1,100.2,147.5,100.2 M147.5,95.3c-4,0-8.2,0.6-12.7,1.8
			c-1.6,0.4-12.9,3.3-19.5,13.5c-4.5,7-5.7,15.6-3.6,25.6c5.8,26.7,112.9,299.5,127,335.5c-1.7,1.5-3.7,3.7-5.4,6.7
			c-3.2,5.7-5.8,15.4,0,29.4c3.9,9.4,13.4,14.8,25.9,14.8c12.7,0,26.1-5.6,34.3-14.3c5.9-6.3,8.8-13.7,8.4-21.6
			c-0.6-10-3.4-17.4-8.5-22.1c-3.7-3.4-8.6-5.2-14-5.2c-0.3,0-0.5,0-0.8,0L180.3,124c-0.3-1.5-1.7-7.7-5.7-14
			C168.4,100.4,159,95.3,147.5,95.3L147.5,95.3z"/>
	</g>
</g>
</svg>
