<?xml version="1.0" encoding="utf-8"?>
<!-- Generator: Adobe Illustrator 27.7.0, SVG Export Plug-In . SVG Version: 6.00 Build 0)  -->
<svg version="1.1" id="레이어_1" xmlns="http://www.w3.org/2000/svg" xmlns:xlink="http://www.w3.org/1999/xlink" x="0px"
	 y="0px" viewBox="0 0 1080 1013.3" style="enable-background:new 0 0 1080 1013.3;" xml:space="preserve">
<style type="text/css">
	.st0{clip-path:url(#XMLID_00000182513922591214355890000004610681901241153962_);fill:#04060A;}
	.st1{fill:#04060A;}
	.st2{fill:#F76F46;}
	.st3{clip-path:url(#XMLID_00000013181302550982845590000000243640210267914161_);fill:#04060A;}
</style>
<g id="_x34__00000146472792957433398180000003685740249523352461_">
	<g>
		<g>
			<defs>
				<path id="XMLID_00000145738920093603396390000011961282381023450510_" d="M953.5,57.1c0,0-24-10.1-35,16.3
					c-11,26.3-88.1,350.8-88.1,350.8s-18.8-2.1-24.2,22.8c-5.4,24.9,44.6,42.3,59.4,18.4c14.7-23.9-5.3-30.7-5.3-30.7L972.6,98.7
					C972.6,98.7,986.8,68.9,953.5,57.1z"/>
			</defs>
			<use xlink:href="#XMLID_00000145738920093603396390000011961282381023450510_"  style="overflow:visible;fill:#F24922;"/>
			<clipPath id="XMLID_00000168829272824364513350000010107245449703469745_">
				<use xlink:href="#XMLID_00000145738920093603396390000011961282381023450510_"  style="overflow:visible;"/>
			</clipPath>
			<path style="clip-path:url(#XMLID_00000168829272824364513350000010107245449703469745_);fill:#04060A;" d="M861.8,262.9l7,101.6
				l60.7-88.7l-3.4,25.3l-66.4,90.6c0,0-6.1-80.1-8.1-77.3s-9.6,15.9-9.6,15.9l10.5,82.7l74.7-87.3l-8.3,25.9l-73.1,82.6
				l-18.6-108.8L861.8,262.9z"/>
			<path style="clip-path:url(#XMLID_00000168829272824364513350000010107245449703469745_);fill:#04060A;" d="M929.2,261.6
				c1.4-0.1,2.3-1.1,2.6-2.2c0.4-1.1,0.2-2.4-0.3-3.3c-0.5-0.8-2-2.6-3.9-4.9s-4.4-5.3-6.9-8.4c-2.6-3.2-4.4-6.9-5.3-10.2
				c-0.9-3.3-0.8-6.2,0.6-7.5c1.3-1.3,2.9-1.1,4.2-0.7c1.3,0.4,2.2,1.2,2.2,1.2c-1.3,3.5-1.7,7.2-1.2,10.5s1.8,6,3.9,7.3
				c2.1,1.3,4.4,1.6,6.3,0.7c1.9-1,3.4-3.3,3.9-7.2c0.5-4-1.6-8.1-4.5-11.7c-2.9-3.6-6.6-6.7-9.3-8.6s-4.1-4.1-4.5-5.7
				c-0.4-1.6,0.3-2.5,1.8-2c1.5,0.6,9.5,6.9,17.2,13c7.7,6.2,15,12.2,15,12.2l0.5-3.6l0.5-3.6c0,0-6.5-5-13.5-10.6
				c-7-5.6-14.5-11.7-16.6-13.9s-3.1-4.3-3.5-5.7c-0.5-1.4-0.4-2.3-0.4-2.3l9.5,6.9l9.5,6.9c0,0,0.3-1.1,0.5-2.3
				c0.3-1.3,0.6-2.7,0.6-3.3s-0.3-1.4-0.8-2s-0.8-1-0.8-1c4.8-6.5,3.5-12.6,0.5-17.4c-3-4.8-7.7-8.2-9.8-9.5
				c-2.1-1.3-4.2-3.1-5.5-4.7s-1.7-3.2-0.4-3.9c1.3-0.7,6.2,2.3,10.8,5.5c4.6,3.2,8.9,6.6,8.9,6.6s0-0.4,0-1s0-1.6,0.1-2.8
				c0.1-1.2-0.3-2.4-0.8-3.2c-0.4-0.8-0.9-1.4-0.9-1.4s1.2-1.2,2-3.3c0.8-2.1,1.4-5.3,0.1-9.2c-1.3-3.9-4.2-7.1-7.1-9.7
				c-3-2.5-6-4.4-7.5-5.6c-1.5-1.3-3.2-3.2-4.4-5.3c-1.3-2.1-2.1-4.4-2.2-6.5c-0.1-2.1-0.2-4.6-0.3-6.7c-0.1-2.1-0.2-3.6-0.2-3.6
				c1.8,3.6,5.9,6.5,9.5,8.6c3.6,2.1,6.7,3.3,6.7,3.3s0.1,0.3,0,1.2s-0.1,2.5-0.5,5c-0.3,2.5,0.6,3.9,1.7,4.6s2.2,0.9,2.2,0.9
				l-0.2-5l-0.2-5l7.9,4.8l7.9,4.8c0,0,0.4,0.3,0.8,1.4c0.3,1,0.5,2.8-0.1,5.7c-0.6,2.8-2.6,4.4-4.5,5.2s-3.6,0.9-3.6,0.9l6.2,1.4
				l6.2,1.4c0,0,0-2.4-0.1-5.7c0-3.3,0-7.4,0-10.8c0.1-3.4,0-9-1.2-14.4s-3.5-10.3-7.9-12.4c-4.4-2.1-8.2-1.3-10.9,0
				s-4.3,3.2-4.3,3.2c10.1-2.2,15.1,1.5,17.6,5.8c2.5,4.3,2.4,9.1,2.4,9.1s-0.9-0.9-3.3-2.3c-2.4-1.4-6.2-3.4-12-5.5
				s-10.2-4.2-13.5-6.1c-3.3-1.9-5.4-3.6-6.8-5.1s-2.7-2.4-3.6-2.9s-1.6-0.6-1.6-0.6s0.2,2.7,0.4,6.5c0.2,3.7,0.5,8.5,0.8,12.5
				c0.3,4.1,2.4,7.1,4.3,9.1c2,2,3.9,3,3.9,3s-1.5-0.4-3.1,0.1s-3.4,1.7-3.9,5c-0.6,3.3,1,6.4,2.7,8.7c1.7,2.3,3.5,3.8,3.5,3.8
				c-1.1-0.5-2.9-0.7-4.4-0.2c-1.5,0.5-2.7,1.9-2.7,4.6c0,2.7,1.6,5.1,3.2,6.7c1.6,1.6,3.1,2.6,3.1,2.6c-6.4-0.1-7.3,3.5-6.7,7.2
				s2.9,7.3,2.9,7.3s-1.2-0.6-2.7-1.9c-1.5-1.3-3.4-3.2-4.9-5.8s-1.2-5.1-0.5-7c0.6-1.9,1.6-3.1,1.6-3.1c-2.3-0.3-4.5,1.1-6,3.4
				c-1.5,2.2-2.3,5.3-1.6,8.4c0.7,3.1,3.2,6,5.5,8.2s4.4,3.5,4.4,3.5c-0.4,1.8,0.4,4.1,1.2,5.9c0.9,1.8,1.8,3.2,1.8,3.2
				c-5.8,2.1-5.9,6.1-4.5,9.5c1.4,3.4,4.2,6.3,4.2,6.3c-2.2,0-4.2,1.1-5.4,3.5s-1.6,6.1-0.6,11.5s4.6,11.2,8,15.6
				c3.4,4.5,6.5,7.6,6.5,7.6s-2.5,0.2-5.3-0.1c-2.8-0.3-5.9-1.2-7.1-3.3c-1.2-2.1-0.7-3.9,0.1-5.2c0.7-1.3,1.8-2,1.8-2
				c-1.8-0.5-4.1-0.2-5.8,1.3c-1.7,1.5-2.6,4-1.6,8c1,4,5.7,6,10.5,7C922.9,261.8,927.8,261.7,929.2,261.6z M927.6,239.4
				c-2.4-1.7-3.1-4.7-3.2-7.3c-0.1-2.6,0.4-4.8,0.4-4.8c4.2,3.3,6.1,7.2,6.3,9.8S929.9,241.1,927.6,239.4z M921.7,148.3
				c0.6-1,2.4-1.3,4.8-0.4c2.4,0.9,5.5,3,8.7,6.6c3.2,3.7,3.5,6.4,3,8.1c-0.5,1.8-1.8,2.6-1.8,2.6c-3.8-2.4-7.9-5.8-10.9-9
				C922.5,153.1,920.8,150,921.7,148.3z M920.7,179.3c2.2-1.2,5.7,0.8,8.7,3.7c3,2.8,5.6,6.5,6.1,8.4c0.5,1.6,0,3.1-0.6,4.1
				c-0.6,1-1.3,1.6-1.3,1.6c-2.9-2.1-7.5-5.8-10.6-9.4C919.8,184.1,918.1,180.7,920.7,179.3z"/>
		</g>
		<path class="st1" d="M842.3,478.9c-6.1,0-12.3-1.3-17.8-3.5c-15-6-23.1-17.4-20.6-28.9c3-13.7,10-19.7,15.3-22.3
			c3.8-1.8,7.2-2.2,9.3-2.3c6.7-28.2,77.2-323.9,87.8-349.4c3.6-8.7,9.1-14.6,16.1-17.5c10.5-4.3,20.7-0.3,21.7,0.1
			c10.8,3.8,18,9.9,21.3,18.1c5.1,12.3-0.3,24.9-1,26.4L862.9,433.4c2.6,1.4,7.1,4.4,9.2,10c2.3,6.4,0.7,14.2-4.7,23
			C861.9,475.4,852.3,478.9,842.3,478.9z M829.2,426.3c-3.7,0-16.6,1.4-20.9,21.1c-2.5,11.4,8.1,20,17.9,23.9
			c13.2,5.3,30.2,4.5,37.4-7.2c4.7-7.6,6.1-14.1,4.3-19.2c-2.2-6-8.4-8.3-8.5-8.3l-2.1-0.7l0.7-2.1l112.5-336l0.1-0.1
			c0.1-0.1,5.5-12,0.9-23c-2.9-7-9.2-12.2-18.8-15.6l-0.1,0c-0.9-0.4-22.2-8.9-32.1,15.1c-10.8,25.9-87.2,347.2-88,350.4l-0.5,1.9
			l-1.9-0.2C830.1,426.3,829.7,426.3,829.2,426.3z"/>
		<g>
			<path class="st2" d="M829.2,424.4l31,10.1c0,0,16.1,4.1,11.8,21.4c-4.3,17.3-16.8,27-43.3,19.1c-26.6-8-26.3-26.3-19.1-39.3
				S829.2,424.4,829.2,424.4z"/>
			<path class="st1" d="M845.6,480.1c-5.2,0-11.1-1-17.5-2.9c-12.1-3.6-19.9-9.6-23.2-17.7c-4-10,0-19.8,2.7-24.7
				c7.8-14.1,21.3-12.6,21.9-12.5l0.2,0l0.2,0.1l30.9,10.1c1.5,0.4,17.9,5.6,13.3,24.1c-2.3,9.5-6.9,16.2-13.5,20
				C856.4,478.9,851.4,480.1,845.6,480.1z M827.9,426.6c-3,0-11.2,0.9-16.4,10.3c-2.4,4.3-5.9,12.6-2.5,20.9
				c2.8,6.9,9.6,12,20.3,15.2c12.4,3.7,22.2,3.6,29.1-0.3c5.5-3.2,9.4-8.9,11.4-17.2c3.7-14.9-9.7-18.6-10.2-18.8l-0.1,0l-30.7-10.1
				C828.6,426.6,828.3,426.6,827.9,426.6z"/>
		</g>
		<g>
			<path class="st2" d="M833.6,400l-2.4,10.5c-0.3,1.3,0.5,2.7,1.8,3.1l30.8,9.5c1.4,0.4,2.8-0.3,3.3-1.7l3.1-9.3
				c0.5-1.4-0.3-2.9-1.7-3.3L837,398.1C835.6,397.6,834,398.5,833.6,400z"/>
			<path class="st1" d="M864.6,425.4c-0.5,0-0.9-0.1-1.4-0.2l-30.8-9.5c-2.4-0.7-3.8-3.2-3.3-5.7l2.4-10.5c0.3-1.3,1.2-2.5,2.4-3.2
				c1.2-0.7,2.6-0.8,3.9-0.4l31.5,10.7c2.5,0.9,3.9,3.6,3,6.1l-3.1,9.3C868.5,424.1,866.6,425.4,864.6,425.4z M836.2,400.2
				c-0.1,0-0.2,0-0.2,0.1c-0.1,0-0.2,0.1-0.2,0.3h0l-2.4,10.5c0,0.2,0.1,0.4,0.3,0.5l30.8,9.5c0.2,0.1,0.5-0.1,0.5-0.3l3.1-9.3
				c0.1-0.2,0-0.5-0.3-0.5l-31.5-10.7C836.3,400.2,836.2,400.2,836.2,400.2z"/>
		</g>
	</g>
	<g>
		<g>
			<defs>
				<path id="XMLID_00000111869664597948195810000002976823356867973044_" d="M136.8,101.1c0,0-25.5,5.5-19.4,33.4
					s128.2,338.2,128.2,338.2s-16.7,9.1-6.9,32.6c9.8,23.5,60.8,9.2,59.2-18.9c-1.6-28-21.9-22.2-21.9-22.2l-99.7-339.9
					C176.3,124.4,170.9,91.8,136.8,101.1z"/>
			</defs>
			<use xlink:href="#XMLID_00000111869664597948195810000002976823356867973044_"  style="overflow:visible;fill:#F24922;"/>
			<clipPath id="XMLID_00000126316144843049940980000001794960267782644142_">
				<use xlink:href="#XMLID_00000111869664597948195810000002976823356867973044_"  style="overflow:visible;"/>
			</clipPath>
			<path style="clip-path:url(#XMLID_00000126316144843049940980000001794960267782644142_);fill:#04060A;" d="M179.2,322.5
				l63.8,79.4l-0.9-107.5l11.7,22.7L251,429.3c0,0-50.8-62.2-50.8-58.8s1.2,18.6,1.2,18.6l55.9,61.8l11.4-114.3l8,26L264,472.1
				l-77.4-78.6L179.2,322.5z"/>
			<path style="clip-path:url(#XMLID_00000126316144843049940980000001794960267782644142_);fill:#04060A;" d="M233.8,282.8
				c1.1-0.9,1.2-2.2,0.9-3.3c-0.3-1.1-1.2-2.1-2.1-2.5c-0.9-0.3-3.1-1-6-1.8c-2.9-0.8-6.6-1.8-10.5-3c-3.9-1.1-7.6-3.2-10.2-5.4
				c-2.6-2.2-4.2-4.6-3.8-6.5c0.4-1.8,1.8-2.6,3.1-3s2.5-0.3,2.5-0.3c0.9,3.6,2.8,6.9,5,9.3c2.3,2.4,4.9,3.9,7.3,3.8
				c2.5-0.1,4.5-1.2,5.5-3c1-1.9,0.9-4.6-0.9-8.2c-1.9-3.5-5.9-5.7-10.3-7c-4.4-1.3-9.2-1.7-12.5-1.7c-3.3,0-5.7-1-6.9-2.1
				s-1.2-2.3,0.4-2.6c1.5-0.4,11.8,0.2,21.6,0.8c9.8,0.6,19.3,1.4,19.3,1.4l-1.6-3.2l-1.6-3.2c0,0-8.2-0.4-17.1-1
				c-8.9-0.6-18.6-1.3-21.6-2c-3-0.7-4.9-1.8-6.1-2.7c-1.2-0.9-1.7-1.7-1.7-1.7l11.7,0.3l11.7,0.3c0,0-0.4-1-0.9-2.2
				c-0.5-1.2-1.1-2.5-1.4-3.1c-0.3-0.6-1.1-1-1.7-1.2c-0.7-0.2-1.2-0.3-1.2-0.3c0.2-8.1-4.3-12.3-9.5-14.5s-11-2.3-13.5-2.2
				s-5.2-0.1-7.2-0.7s-3.2-1.6-2.6-2.9c0.7-1.3,6.4-1.7,12-1.6s11,0.3,11,0.3s-0.2-0.3-0.6-0.8c-0.4-0.5-0.9-1.3-1.5-2.4
				c-0.6-1-1.6-1.7-2.5-2.2s-1.5-0.6-1.5-0.6s0.3-1.6-0.2-3.9c-0.5-2.2-1.9-5.1-5.2-7.6c-3.3-2.5-7.5-3.5-11.4-3.8s-7.4-0.2-9.4-0.3
				c-2-0.2-4.4-0.8-6.7-1.8c-2.2-1-4.3-2.4-5.5-4.1s-2.8-3.7-4.1-5.3c-1.3-1.6-2.2-2.8-2.2-2.8c3.5,1.9,8.6,2,12.7,1.7
				c4.1-0.3,7.4-1.1,7.4-1.1s0.2,0.2,0.7,1c0.5,0.8,1.3,2.1,2.4,4.3s2.7,2.8,4,2.9c1.3,0,2.3-0.5,2.3-0.5l-3-4l-3-4l9.2-0.6l9.2-0.6
				c0,0,0.6,0,1.4,0.7s2,2,3.2,4.7s0.4,5.1-0.7,6.8c-1.1,1.7-2.5,2.8-2.5,2.8l5.9-2.4l5.9-2.4c0,0-1.4-2-3.3-4.6
				c-1.9-2.7-4.2-6-6.2-8.9c-1.9-2.8-5.2-7.4-9.2-11.1c-4-3.7-8.7-6.5-13.6-5.7s-7.5,3.6-9,6.2s-1.7,5.1-1.7,5.1
				c7-7.6,13.3-7.4,17.7-5.3c4.5,2.1,7.2,6.1,7.2,6.1s-1.2-0.2-4,0s-7,0.8-13,2.3c-6,1.6-10.8,2.4-14.5,2.7
				c-3.8,0.3-6.5,0.1-8.5-0.3c-2-0.5-3.5-0.4-4.6-0.3c-1.1,0.2-1.7,0.4-1.7,0.4s1.7,2.1,4,5.1s5.3,6.7,7.9,9.8s6,4.5,8.7,5
				c2.8,0.5,4.9,0.2,4.9,0.2s-1.4,0.5-2.5,1.8s-1.8,3.3-0.4,6.3c1.4,3,4.5,4.7,7.2,5.6c2.7,0.9,5,1.1,5,1.1
				c-1.2,0.2-2.8,1.1-3.7,2.4s-1.1,3.1,0.4,5.4c1.6,2.2,4.2,3.2,6.4,3.7s4.1,0.3,4.1,0.3c-5.3,3.6-4,7.1-1.4,9.7
				c2.6,2.6,6.6,4.4,6.6,4.4s-1.3,0.2-3.3,0c-2-0.2-4.7-0.7-7.3-2c-2.7-1.3-3.9-3.6-4.4-5.4c-0.6-1.9-0.5-3.4-0.5-3.4
				c-2,1.1-3.1,3.5-3,6.2c0,2.7,1.1,5.6,3.5,7.8c2.4,2.1,6.1,3.1,9.2,3.6c3.1,0.5,5.7,0.4,5.7,0.4c0.7,1.7,2.6,3.1,4.4,4.2
				c1.8,1,3.3,1.6,3.3,1.6c-3.6,5.1-1.4,8.3,1.7,10.4c3.1,2,7.1,2.8,7.1,2.8c-1.8,1.3-2.9,3.3-2.5,5.9c0.4,2.6,2.1,5.9,6,9.8
				c3.9,3.8,10.2,6.5,15.5,8.2c5.3,1.7,9.7,2.5,9.7,2.5s-2,1.6-4.4,3c-2.5,1.3-5.5,2.4-7.7,1.3c-2.2-1.1-2.8-2.8-2.9-4.3
				c-0.1-1.5,0.3-2.6,0.3-2.6c-1.7,0.6-3.5,2.2-4,4.3c-0.5,2.1,0.1,4.8,3.3,7.5c3.1,2.7,8.1,1.7,12.6-0.3
				C228.7,286.6,232.7,283.7,233.8,282.8z M219.8,265.6c-2.9,0-5.2-2.1-6.7-4.2s-2.4-4.2-2.4-4.2c5.4,0.3,9.1,2.4,10.8,4.4
				C223.1,263.7,222.7,265.6,219.8,265.6z M162.9,194.2c-0.1-1.2,1.2-2.4,3.7-3.1s6.2-0.7,10.9,0.5c4.7,1.2,6.5,3.2,7.1,5
				c0.6,1.7,0,3.2,0,3.2c-4.5,0.2-9.8-0.2-14.1-1.2C166.3,197.6,163.1,196.1,162.9,194.2z M179.8,220.2c1.1-2.3,5.1-2.6,9.2-1.9
				s8.3,2.1,9.8,3.4c1.3,1.1,1.7,2.5,1.8,3.7c0.1,1.2-0.2,2.1-0.2,2.1c-3.6,0-9.5-0.5-14-1.7C181.8,224.6,178.4,222.8,179.8,220.2z"
				/>
		</g>
		<path class="st1" d="M260,519.3c-11.1,0-19.8-4.7-23.3-13.2c-5.4-13-3.1-21.9-0.1-27c2.1-3.6,4.7-6,6.3-7.2
			C232.2,444.8,121.1,162,115.2,135c-2-9.3-0.9-17.2,3.2-23.6c6.1-9.5,16.8-12.1,17.9-12.4c11-3,20.4-2.1,27.9,2.6
			c11.2,7.2,14,20.6,14.3,22.2l99.1,337.8c2.9-0.4,8.4-0.5,13.3,3c5.6,4,8.7,11.2,9.3,21.6c1,16.9-14.9,28.3-30,31.8
			C266.5,518.9,263.2,519.3,260,519.3z M137.3,103.3c-1,0.2-23.2,5.4-17.7,30.7c5.9,27.4,126.8,334.7,128.1,337.8l0.7,1.8l-1.7,0.9
			c-0.6,0.3-14.7,8.5-5.9,29.8c4.5,10.7,18.1,11.8,28.3,9.4c13.8-3.2,27.4-13.6,26.6-27.3c-0.5-9-3-15.1-7.4-18.2
			c-5.3-3.7-11.6-2-11.6-1.9l-2.1,0.6l-0.6-2.1l-99.8-340l0-0.1c0-0.1-2.3-13-12.3-19.4c-6.4-4.1-14.5-4.7-24.3-2.1L137.3,103.3z"/>
		<g>
			<path class="st2" d="M244.8,473.6l31.2-9.4c0,0,15.6-5.9,21.9,10.8c6.4,16.7,1.7,31.8-24.7,40.4s-36.7-6.6-38.1-21.3
				S244.8,473.6,244.8,473.6z"/>
			<path class="st1" d="M259.2,520.2c-5.5,0-10.3-1.3-14.4-4c-9-5.9-11.3-16.2-11.9-21.8c-1.6-16,10.3-22.5,10.8-22.8l0.2-0.1
				l31.4-9.4c1.5-0.5,17.9-5.6,24.7,12.1c3.5,9.1,3.6,17.2,0.3,24.1c-3.9,8.3-12.8,14.7-26.3,19.2
				C268.6,519.3,263.6,520.2,259.2,520.2z M245.6,475.6c-1.3,0.8-9.5,6.1-8.3,18.3c0.5,4.8,2.4,13.7,9.9,18.6
				c6.2,4,14.7,4.3,25.4,0.8c12.3-4,20.3-9.7,23.7-16.9c2.7-5.8,2.6-12.7-0.4-20.6c-5.5-14.4-18.6-9.7-19.1-9.5l-0.1,0L245.6,475.6z
				"/>
		</g>
		<g>
			<path class="st2" d="M234.4,451.1l4,9.9c0.5,1.3,1.9,1.9,3.2,1.5l30.7-9.8c1.4-0.4,2.1-1.9,1.7-3.3l-2.8-9.4
				c-0.4-1.4-1.9-2.2-3.3-1.8l-31.9,9.2C234.6,448,233.9,449.6,234.4,451.1z"/>
			<path class="st1" d="M240.9,464.8c-1.9,0-3.7-1.2-4.5-3l-4-9.9c-0.5-1.3-0.5-2.7,0.1-3.9c0.6-1.2,1.7-2.2,3-2.5l31.9-9.2
				c2.6-0.7,5.2,0.7,6,3.3l2.8,9.4c0.7,2.5-0.7,5.2-3.2,6l-30.7,9.8C241.9,464.8,241.4,464.8,240.9,464.8z M268.8,440.4
				c0,0-0.1,0-0.1,0l-31.9,9.2c-0.2,0-0.2,0.1-0.3,0.2c0,0.1-0.1,0.2,0,0.3v0l4,9.9c0.1,0.2,0.3,0.3,0.5,0.2l30.7-9.8
				c0.2-0.1,0.3-0.3,0.3-0.5l-2.8-9.4C269.2,440.5,269,440.4,268.8,440.4z"/>
		</g>
	</g>
</g>
</svg>
