<?xml version="1.0" encoding="utf-8"?>
<!-- Generator: Adobe Illustrator 27.7.0, SVG Export Plug-In . SVG Version: 6.00 Build 0)  -->
<svg version="1.1" id="레이어_1" xmlns="http://www.w3.org/2000/svg" xmlns:xlink="http://www.w3.org/1999/xlink" x="0px"
	 y="0px" viewBox="0 0 1080 1013.3" style="enable-background:new 0 0 1080 1013.3;" xml:space="preserve">
<style type="text/css">
	.st0{clip-path:url(#SVGID_00000114752699806877013350000006371889726116719789_);fill:#FFFFFF;}
	.st1{clip-path:url(#SVGID_00000114752699806877013350000006371889726116719789_);fill:#F24922;}
	.st2{clip-path:url(#SVGID_00000114752699806877013350000006371889726116719789_);}
	.st3{fill:#412A1B;}
	.st4{fill:#B5CBDB;}
	.st5{fill:#EFBD7D;}
	.st6{fill:#652711;}
	.st7{fill:#FFFFFF;}
	.st8{fill:#FDBDBA;}
	.st9{fill:#04060A;}
	.st10{fill:#F24922;}
	.st11{clip-path:url(#SVGID_00000178921030639709792250000016731113735112377529_);fill:#FFFFFF;}
	.st12{clip-path:url(#SVGID_00000178921030639709792250000016731113735112377529_);fill:#F24922;}
	.st13{clip-path:url(#SVGID_00000178921030639709792250000016731113735112377529_);}
</style>
<g id="_x35__00000008122770635932156110000018077474408520149165_">
	<g>
		<g>
			<g>
				<defs>
					<path id="SVGID_00000030485060207998234300000000072978948499811508_" d="M135.8,102.7c0,0-25.5,5.5-19.4,33.4
						s128.2,338.2,128.2,338.2s-16.7,9.1-6.9,32.6c9.8,23.5,60.8,9.2,59.2-18.9c-1.6-28-21.9-22.2-21.9-22.2l-99.7-339.9
						C175.2,125.9,169.8,93.4,135.8,102.7z"/>
				</defs>
				<use xlink:href="#SVGID_00000030485060207998234300000000072978948499811508_"  style="overflow:visible;fill:#F24922;"/>
				<clipPath id="SVGID_00000171688491054884434220000000701445470314053262_">
					<use xlink:href="#SVGID_00000030485060207998234300000000072978948499811508_"  style="overflow:visible;"/>
				</clipPath>
				<path style="clip-path:url(#SVGID_00000171688491054884434220000000701445470314053262_);fill:#FFFFFF;" d="M232.7,284.4
					c1.1-0.9,1.2-2.2,0.9-3.3c-0.3-1.1-1.2-2.1-2.1-2.5c-0.9-0.3-3.1-1-6-1.8c-2.9-0.8-6.6-1.8-10.5-3c-3.9-1.1-7.6-3.2-10.2-5.4
					s-4.2-4.6-3.8-6.5c0.4-1.8,1.8-2.6,3.1-3s2.5-0.3,2.5-0.3c0.9,3.6,2.8,6.9,5,9.3c2.3,2.4,4.9,3.9,7.3,3.8c2.5-0.1,4.5-1.2,5.5-3
					c1-1.9,0.9-4.6-0.9-8.2c-1.9-3.5-5.9-5.7-10.3-7c-4.4-1.3-9.2-1.7-12.5-1.7c-3.3,0-5.7-1-6.9-2.1s-1.2-2.3,0.4-2.6
					s11.8,0.2,21.6,0.8c9.8,0.6,19.3,1.4,19.3,1.4l-1.6-3.2l-1.6-3.2c0,0-8.2-0.4-17.1-1c-8.9-0.6-18.6-1.3-21.6-2
					c-3-0.7-4.9-1.8-6.1-2.7c-1.2-0.9-1.7-1.7-1.7-1.7l11.7,0.3l11.7,0.3c0,0-0.4-1-0.9-2.2c-0.5-1.2-1.1-2.5-1.4-3.1
					c-0.3-0.6-1.1-1-1.7-1.2c-0.7-0.2-1.2-0.3-1.2-0.3c0.2-8.1-4.3-12.3-9.5-14.5s-11-2.3-13.5-2.2c-2.5,0.1-5.2-0.1-7.2-0.7
					s-3.2-1.6-2.6-2.9c0.7-1.3,6.4-1.7,12-1.6c5.6,0,11,0.3,11,0.3s-0.2-0.3-0.6-0.8c-0.4-0.5-0.9-1.3-1.5-2.4
					c-0.6-1-1.6-1.7-2.5-2.2c-0.8-0.4-1.5-0.6-1.5-0.6s0.3-1.6-0.2-3.9c-0.5-2.2-1.9-5.1-5.2-7.6c-3.3-2.5-7.5-3.5-11.4-3.8
					s-7.4-0.2-9.4-0.3c-2-0.2-4.4-0.8-6.7-1.8c-2.2-1-4.3-2.4-5.5-4.1s-2.8-3.7-4.1-5.3c-1.3-1.6-2.2-2.8-2.2-2.8
					c3.5,1.9,8.6,2,12.7,1.7c4.1-0.3,7.4-1.1,7.4-1.1s0.2,0.2,0.7,1c0.5,0.8,1.3,2.1,2.4,4.3c1.2,2.2,2.7,2.8,4,2.9
					c1.3,0,2.3-0.5,2.3-0.5l-3-4l-3-4l9.2-0.6l9.2-0.6c0,0,0.6,0,1.4,0.7s2,2,3.2,4.7s0.4,5.1-0.7,6.8s-2.5,2.8-2.5,2.8l5.9-2.4
					l5.9-2.4c0,0-1.4-2-3.3-4.6c-1.9-2.7-4.2-6-6.2-8.9s-5.2-7.4-9.2-11.1c-4-3.7-8.7-6.5-13.6-5.7s-7.5,3.6-9,6.2s-1.7,5.1-1.7,5.1
					c7-7.6,13.3-7.4,17.7-5.3c4.5,2.1,7.2,6.1,7.2,6.1s-1.2-0.2-4,0s-7,0.8-13,2.3c-6,1.6-10.8,2.4-14.5,2.7
					c-3.8,0.3-6.5,0.1-8.5-0.3c-2-0.5-3.5-0.4-4.6-0.3c-1.1,0.2-1.7,0.4-1.7,0.4s1.7,2.1,4,5.1s5.3,6.7,7.9,9.8s6,4.5,8.7,5
					c2.8,0.5,4.9,0.2,4.9,0.2s-1.4,0.5-2.5,1.8s-1.8,3.3-0.4,6.3c1.4,3,4.5,4.7,7.2,5.6c2.7,0.9,5,1.1,5,1.1
					c-1.2,0.2-2.8,1.1-3.7,2.4s-1.1,3.1,0.4,5.4c1.6,2.2,4.2,3.2,6.4,3.7c2.2,0.4,4.1,0.3,4.1,0.3c-5.3,3.6-4,7.1-1.4,9.7
					c2.6,2.6,6.6,4.4,6.6,4.4s-1.3,0.2-3.3,0c-2-0.2-4.7-0.7-7.3-2c-2.7-1.3-3.9-3.6-4.4-5.4c-0.6-1.9-0.5-3.4-0.5-3.4
					c-2,1.1-3.1,3.5-3,6.2c0,2.7,1.1,5.6,3.5,7.8c2.4,2.1,6.1,3.1,9.2,3.6c3.1,0.5,5.7,0.4,5.7,0.4c0.7,1.7,2.6,3.1,4.4,4.2
					c1.8,1,3.3,1.6,3.3,1.6c-3.6,5.1-1.4,8.3,1.7,10.4c3.1,2,7.1,2.8,7.1,2.8c-1.8,1.3-2.9,3.3-2.5,5.9c0.4,2.6,2.1,5.9,6,9.8
					c3.9,3.8,10.2,6.5,15.5,8.2s9.7,2.5,9.7,2.5s-2,1.6-4.4,3c-2.5,1.3-5.5,2.4-7.7,1.3c-2.2-1.1-2.8-2.8-2.9-4.3
					c-0.1-1.5,0.3-2.6,0.3-2.6c-1.7,0.6-3.5,2.2-4,4.3s0.1,4.8,3.3,7.5c3.1,2.7,8.1,1.7,12.6-0.3
					C227.7,288.1,231.6,285.3,232.7,284.4z M218.7,267.1c-2.9,0-5.2-2.1-6.7-4.2c-1.6-2.1-2.4-4.2-2.4-4.2c5.4,0.3,9.1,2.4,10.8,4.4
					S221.6,267.1,218.7,267.1z M161.8,195.8c-0.1-1.2,1.2-2.4,3.7-3.1s6.2-0.7,10.9,0.5c4.7,1.2,6.5,3.2,7.1,5s0,3.2,0,3.2
					c-4.5,0.2-9.8-0.2-14.1-1.2C165.2,199.1,162,197.6,161.8,195.8z M178.7,221.7c1.1-2.3,5.1-2.6,9.2-1.9c4.1,0.6,8.3,2.1,9.8,3.4
					c1.3,1.1,1.7,2.5,1.8,3.7c0.1,1.2-0.2,2.1-0.2,2.1c-3.6,0-9.5-0.5-14-1.7C180.8,226.2,177.4,224.4,178.7,221.7z"/>
				<polygon style="clip-path:url(#SVGID_00000171688491054884434220000000701445470314053262_);fill:#FFFFFF;" points="
					176.2,343.1 253.2,315.7 329.3,538.4 225.7,585.5 				"/>
				<polygon style="clip-path:url(#SVGID_00000171688491054884434220000000701445470314053262_);fill:#F24922;" points="
					166.4,353.4 266.5,317.6 270.4,325 151.6,370.6 				"/>
				<path style="clip-path:url(#SVGID_00000171688491054884434220000000701445470314053262_);fill:#FFFFFF;" d="M108.9,132.1
					c0.5-1,23.1-28.5,78.5-23.6s1.5,5.4,1.5,5.4s-47.1-3.4-77,23.6S108.9,132.1,108.9,132.1z"/>
				<g style="clip-path:url(#SVGID_00000171688491054884434220000000701445470314053262_);">
					<path class="st3" d="M163.8,152.4c0-0.1,0-0.1,0-0.2c0.1-0.1,0.3-0.1,0.4-0.1c0,0,2.2,1.6,4.5,4c0.6,0.6,0.8,1.3,0.7,2
						c-0.2,1.8-2.6,3.3-2.7,3.4c-0.1,0.1-0.3,0-0.4-0.1c-0.1-0.1,0-0.3,0.1-0.4c0,0,2.3-1.4,2.5-3c0.1-0.6-0.1-1.1-0.6-1.5
						c-2.2-2.3-4.4-3.9-4.4-3.9C163.9,152.6,163.8,152.5,163.8,152.4z"/>
					<g>
						<path class="st4" d="M164.3,149.5l1,0.4c0.4,0.1,0.4,0.6,0.1,0.8l-0.7,0.5c-0.1,0.1-0.2,0.2-0.2,0.4l0,0.8
							c0,0.4-0.4,0.6-0.7,0.4l-0.7-0.4c-0.1-0.1-0.3-0.1-0.4,0l-1.1,0.4c-0.4,0.2-0.8-0.2-0.6-0.6l0.3-0.7c0.1-0.2,0-0.4-0.1-0.5
							l-0.6-0.6c-0.3-0.3-0.1-0.8,0.3-0.8l1,0c0.2,0,0.3-0.1,0.4-0.3l0.3-0.7c0.2-0.4,0.7-0.4,0.9-0.1l0.5,0.8
							C164.1,149.3,164.2,149.4,164.3,149.5z"/>
						<path class="st3" d="M160.2,150.1c0-0.1,0-0.3,0-0.4c0.1-0.3,0.4-0.5,0.7-0.5l1,0c0.1,0,0.2-0.1,0.2-0.1l0.3-0.7
							c0.1-0.3,0.4-0.4,0.6-0.4c0.3,0,0.5,0.1,0.7,0.4l0.5,0.8c0,0,0.1,0.1,0.1,0.1l1,0.4c0.3,0.1,0.4,0.3,0.5,0.6c0,0,0,0,0,0
							c0,0.3-0.1,0.5-0.3,0.7l-0.7,0.5c-0.1,0-0.1,0.1-0.1,0.2l0,0.8c0,0.3-0.1,0.5-0.4,0.7c-0.2,0.1-0.5,0.1-0.8,0l-0.7-0.4
							c-0.1,0-0.1,0-0.2,0l-1.1,0.4c-0.3,0.1-0.6,0-0.8-0.2c-0.2-0.2-0.3-0.5-0.2-0.8l0.3-0.7c0-0.1,0-0.2,0-0.2l-0.6-0.6
							C160.3,150.4,160.2,150.2,160.2,150.1z M164.2,149.7L164.2,149.7c-0.2-0.1-0.3-0.2-0.4-0.3l-0.5-0.8c-0.1-0.1-0.2-0.1-0.2-0.1
							c0,0-0.1,0-0.2,0.1l-0.3,0.7c-0.1,0.3-0.4,0.4-0.7,0.4l-1,0c-0.1,0-0.2,0.1-0.2,0.1c0,0,0,0.1,0,0.2l0.6,0.6
							c0.2,0.2,0.3,0.5,0.2,0.8l-0.3,0.7c0,0.1,0,0.2,0.1,0.2c0,0,0.1,0.1,0.2,0l1.1-0.4c0.2-0.1,0.5-0.1,0.7,0.1l0.7,0.4
							c0.1,0.1,0.2,0,0.2,0c0,0,0.1-0.1,0.1-0.2l0-0.8c0-0.2,0.1-0.5,0.3-0.6l0.7-0.5c0.1-0.1,0.1-0.2,0.1-0.2c0,0,0-0.1-0.1-0.2
							L164.2,149.7z"/>
					</g>
					<g>
						<path class="st5" d="M162.4,176.4c0,0,2.6,0.7,0.6,2.4s-5-0.8-5-0.8S159.7,176.3,162.4,176.4z"/>
						<path class="st3" d="M157.6,177.9l0.2-0.2c0.1-0.1,1.8-1.7,4.6-1.6l0.1,0c0.1,0,1.3,0.4,1.5,1.2c0.1,0.5-0.1,1-0.8,1.6
							c-2.1,1.8-5.3-0.7-5.4-0.8L157.6,177.9z M162.4,176.7c-2-0.1-3.4,0.8-3.9,1.2c0.8,0.5,3,1.9,4.4,0.7c0.3-0.3,0.7-0.7,0.6-1.1
							C163.4,177,162.7,176.7,162.4,176.7z"/>
					</g>
					<g>
						<path class="st5" d="M146.3,165.6c-0.5,0.1-4.4-0.4-6.6,1.3c-2.2,1.7-3.7,2.8-4.2,2.8c-0.5,0.1-3.5,0-3.1,2.9s1.9,3.5,3.2,3.3
							c0,0-1.7,1.4-0.3,3.3c1.4,2,3.4,2.5,5.1,1.4c0,0,5.7-0.1,8.3-5.9C151.4,168.9,149.7,165,146.3,165.6z"/>
						<path class="st3" d="M132.1,172.7c-0.1-0.9,0-1.6,0.4-2.1c0.7-0.9,2-1,2.7-1.1c0.1,0,0.2,0,0.2,0c0.6-0.1,3.1-2.1,4.1-2.8
							c1.8-1.4,4.8-1.4,6.2-1.4c0.3,0,0.5,0,0.6,0c1.3-0.2,2.5,0.2,3.2,1.2c1.3,1.7,1.2,4.8-0.4,8.4c-2.5,5.6-7.8,6.1-8.5,6.1
							c-1.9,1.1-4,0.5-5.4-1.5c-1-1.4-0.5-2.6-0.1-3.2C133.9,176.2,132.6,175.5,132.1,172.7z M149.7,168.6c-0.1-0.7-0.3-1.3-0.7-1.8
							c-0.6-0.8-1.6-1.1-2.7-1c-0.1,0-0.3,0-0.7,0c-1.2,0-4.1-0.1-5.8,1.3c-2.6,2-3.8,2.8-4.3,2.9c-0.1,0-0.1,0-0.2,0
							c-0.6,0-1.7,0.1-2.3,0.9c-0.3,0.4-0.4,1-0.3,1.7c0.4,2.3,1.4,3.3,2.9,3.1l1-0.2l-0.8,0.6c-0.1,0-1.5,1.2-0.2,3
							c1.3,1.8,3.1,2.3,4.8,1.3l0.1,0l0.1,0c0.1,0,5.6-0.2,8.1-5.8C149.6,172.3,150,170.2,149.7,168.6z"/>
					</g>
					<g>
						<path class="st5" d="M147.8,173.8c0,0,3.6,7.3,8.1,6.6s9-5.2,11.1-12.7c2.1-7.4-2.3-9.5-6.3-10.5c-4-1-18.4-2.8-15.5,8.7
							C145.2,166,145.7,169.2,147.8,173.8z"/>
						<path class="st3" d="M144.7,164.8c-0.4-2.6,0.1-4.6,1.6-6.1c3.5-3.5,11.7-2.4,14.5-1.7c2.2,0.6,4.9,1.5,6.2,3.8
							c1,1.8,1.1,4.1,0.3,7c-2,7.1-6.4,12.1-11.3,12.8c-4.7,0.7-8.3-6.5-8.4-6.8l0,0c-2.1-4.6-2.6-7.8-2.6-7.8
							C144.9,165.6,144.8,165.2,144.7,164.8z M167.2,163.1c-0.1-0.7-0.3-1.4-0.7-2c-1.2-2.1-3.8-3-5.9-3.5c-2.8-0.7-10.7-1.8-14,1.6
							c-1.5,1.5-1.9,3.8-1.2,6.8c0,0.1,0.5,3.2,2.6,7.7c0.1,0.2,3.6,7.1,7.8,6.5c4.7-0.7,8.9-5.5,10.9-12.5
							C167.3,165.9,167.4,164.4,167.2,163.1z M147.8,173.8L147.8,173.8L147.8,173.8z"/>
					</g>
					<g>
						<path class="st5" d="M154.8,161c0,0,1.3-1.8-0.4-2.7c-1.8-0.8-4.3,2-4.7,3.2"/>
						<path class="st3" d="M149.4,161.5c0,0,0-0.1,0-0.1c0.3-0.9,1.7-2.6,3.2-3.3c0.7-0.3,1.3-0.3,1.9-0.1c0.5,0.3,0.9,0.6,1,1.1
							c0.2,0.9-0.5,1.9-0.5,2c-0.1,0.1-0.3,0.1-0.4,0.1c-0.1-0.1-0.1-0.3-0.1-0.4c0,0,0.6-0.8,0.4-1.5c-0.1-0.3-0.3-0.6-0.7-0.7
							c-0.4-0.2-0.9-0.2-1.4,0.1c-1.3,0.6-2.6,2.2-2.9,2.9c0,0.1-0.2,0.2-0.3,0.2C149.5,161.7,149.5,161.6,149.4,161.5z"/>
					</g>
					<path id="XMLID_00000110461261008146761600000012662268158772756620_" class="st6" d="M146.4,168.5c0,0,1,1.2,1.4,0.1
						c0.4-1.1,14.9-11.3,14.9-11.3s1.2-0.7,0.2-1.9c-1-1.2-2-0.5-4.4,1.2c-2.5,1.7-11.4,10.5-12,10.6
						C146,167.3,146,167.8,146.4,168.5z"/>
					<path class="st7" d="M148.4,165.6l1.1,1.3l-1.6,1.3l-0.5,1l-0.7-0.9c0,0-0.2-1,0-1.2S148.4,165.6,148.4,165.6z"/>
					<path class="st3" d="M145.8,167.8c0-0.2,0-0.4,0.1-0.5c0.1-0.1,0.2-0.3,0.5-0.4c0.4-0.2,2.7-2.3,4.7-4.2
						c2.8-2.6,5.9-5.4,7.2-6.4c2.5-1.8,3.6-2.6,4.8-1.2c0.4,0.4,0.5,0.9,0.4,1.3c-0.1,0.7-0.7,1-0.7,1c-5.5,3.9-14.4,10.4-14.7,11.2
						c-0.2,0.5-0.4,0.6-0.6,0.7c-0.6,0.1-1.1-0.5-1.3-0.6l0,0C146,168.3,145.9,168,145.8,167.8z M146.4,168.5L146.4,168.5
						L146.4,168.5z M163,156.1c0-0.2-0.1-0.4-0.3-0.6c-0.8-1-1.5-0.5-4.1,1.3c-1.3,0.9-4.4,3.8-7.1,6.3c-3.7,3.4-4.6,4.3-4.9,4.3
						c-0.1,0-0.2,0.1-0.2,0.1c0,0-0.1,0.2,0.2,0.9c0.2,0.2,0.5,0.5,0.7,0.4c0.1,0,0.2-0.2,0.2-0.3c0.4-1.2,12.5-9.8,15-11.5
						c0,0,0.4-0.3,0.5-0.7C163,156.3,163,156.2,163,156.1z"/>
					<path class="st8" d="M155.2,170.4c0,0,1-0.7-0.6-2.4c-1.2-1.2-2.3-0.7-1.2,0.7C154.4,170.3,154.5,170.8,155.2,170.4"/>
					<path class="st8" d="M159.4,177.7c0,0,0.8-0.6-0.5-2c-1-1.1-1.9-0.6-1,0.6C158.7,177.6,158.9,178,159.4,177.7"/>
					<path class="st3" d="M156.8,171c-0.1-0.1-0.1-0.3,0-0.5c0.5-0.6,1.8-2.2,2.8-1.9C160.6,169,157.6,171.8,156.8,171z"/>
					<path class="st3" d="M158.6,173.5c-0.1-0.1-0.1-0.3,0-0.4c0.4-0.5,1.7-2,2.5-1.7C162.1,171.7,159.4,174.3,158.6,173.5z"/>
					<g>
						<path class="st5" d="M146.3,172.9c0,0,3-3.7-0.2-4.6c0,0-1.7-0.5-3.4,2.7c-1.7,3.3,1.6,4.7,1.6,4.7"/>
						<path class="st3" d="M142,173.3c-0.1-0.7,0-1.5,0.5-2.4c1.8-3.4,3.6-2.9,3.7-2.8c0.8,0.2,1.3,0.7,1.5,1.3
							c0.5,1.5-1.2,3.7-1.2,3.7c-0.1,0.1-0.3,0.1-0.4,0c-0.1-0.1-0.1-0.3,0-0.4c0,0,1.5-2,1.1-3.2c-0.1-0.5-0.5-0.8-1.2-0.9
							c0,0-1.6-0.4-3.1,2.6c-0.5,0.9-0.6,1.8-0.3,2.5c0.4,1.2,1.7,1.8,1.7,1.8c0.1,0.1,0.2,0.2,0.1,0.4c-0.1,0.1-0.2,0.2-0.4,0.1
							c-0.1,0-1.5-0.7-2-2.1C142.1,173.7,142.1,173.5,142,173.3z"/>
					</g>
					<g>
						<path class="st5" d="M141,178.7c0,0-0.1,1.3-0.8,2.1"/>
						<path class="st3" d="M139.9,180.8c0-0.1,0-0.1,0.1-0.2c0.6-0.8,0.7-2,0.7-2c0-0.1,0.1-0.3,0.3-0.2c0.1,0,0.3,0.1,0.2,0.3
							c0,0.1-0.1,1.4-0.8,2.3c-0.1,0.1-0.3,0.1-0.4,0C140,180.9,139.9,180.9,139.9,180.8z"/>
					</g>
					<g>
						<path class="st5" d="M141.4,176.4c0,0-1.6-4.7-5.8-0.5"/>
						<path class="st3" d="M135.4,176c0-0.1,0-0.2,0.1-0.2c1.5-1.5,2.8-2.1,4-1.8c1.6,0.4,2.2,2.3,2.3,2.3c0,0.1,0,0.3-0.2,0.3
							c-0.1,0-0.3,0-0.3-0.2c0,0-0.6-1.7-1.9-2c-1-0.2-2.1,0.3-3.5,1.6c-0.1,0.1-0.3,0.1-0.4,0C135.4,176.1,135.4,176.1,135.4,176z"
							/>
					</g>
					<g>
						<path class="st5" d="M137.4,171.6c0,0,0.5,2.4-0.5,3.3"/>
						<path class="st3" d="M136.6,175c0-0.1,0-0.2,0.1-0.2c0.7-0.7,0.6-2.5,0.4-3.1c0-0.1,0.1-0.3,0.2-0.3s0.3,0.1,0.3,0.2
							c0,0.1,0.5,2.5-0.6,3.6c-0.1,0.1-0.3,0.1-0.4,0C136.6,175.1,136.6,175,136.6,175z"/>
					</g>
					<g>
						<path class="st5" d="M144.8,165.7c0,0,2.1,0.6,1.9,2.8c0,0-1.4-1-3.3,1.3c-0.9,1.1-3-1.4-3-1.4"/>
						<path class="st3" d="M140.2,168.4c0-0.1,0-0.2,0.1-0.2c0.1-0.1,0.3-0.1,0.4,0c0.4,0.4,1.5,1.6,2.2,1.6c0.1,0,0.3-0.1,0.3-0.2
							c1.5-1.8,2.7-1.8,3.3-1.6c-0.1-1.7-1.7-2.1-1.8-2.2c-0.1,0-0.2-0.2-0.2-0.3c0-0.1,0.2-0.2,0.3-0.2c0,0,2.4,0.7,2.1,3.1l0,0.5
							l-0.4-0.3c0,0-1.2-0.8-3,1.3c-0.2,0.2-0.5,0.4-0.8,0.4c-1.1,0-2.5-1.6-2.6-1.8C140.2,168.5,140.2,168.5,140.2,168.4z"/>
					</g>
				</g>
			</g>
		</g>
		<path class="st9" d="M258.9,520.8c-11.1,0-19.8-4.7-23.3-13.2c-5.4-13-3.1-21.9-0.1-27c2.1-3.6,4.7-6,6.3-7.2
			c-10.6-27-121.8-309.9-127.6-336.9c-2-9.3-0.9-17.2,3.2-23.6c6.1-9.5,16.8-12.1,17.9-12.4c11-3,20.4-2.1,27.9,2.6
			c11.2,7.2,14,20.6,14.3,22.2l99.1,337.8c2.9-0.4,8.4-0.5,13.3,3c5.6,3.9,8.7,11.2,9.3,21.6c1,16.9-14.9,28.3-30,31.8
			C265.5,520.4,262.1,520.8,258.9,520.8z M136.2,104.8c-1,0.2-23.2,5.4-17.7,30.7c5.9,27.4,126.8,334.7,128.1,337.8l0.7,1.8
			l-1.7,0.9c-0.6,0.3-14.7,8.5-5.9,29.8c4.5,10.7,18.1,11.8,28.3,9.4c13.8-3.2,27.4-13.6,26.6-27.3c-0.5-8.9-3-15-7.4-18.2
			c-5.2-3.7-11.6-2-11.7-2l-2.1,0.6l-0.6-2.1l-99.8-340l0-0.1c0-0.1-2.3-13-12.3-19.4c-6.4-4.1-14.5-4.7-24.3-2.1L136.2,104.8z"/>
		<g>
			<path class="st10" d="M237.3,464.4l4,9.9c0.5,1.3,1.9,1.9,3.2,1.5l30.7-9.8c1.4-0.4,2.1-1.9,1.7-3.3l-2.8-9.4
				c-0.4-1.4-1.9-2.2-3.3-1.8l-31.9,9.2C237.5,461.3,236.7,462.9,237.3,464.4z"/>
			<path class="st9" d="M243.8,478.2c-1.9,0-3.7-1.2-4.5-3l-4-9.9c-0.5-1.3-0.5-2.7,0.1-3.9c0.6-1.2,1.7-2.2,3-2.5l31.9-9.2
				c2.6-0.7,5.2,0.7,6,3.3l2.8,9.4c0.7,2.5-0.7,5.2-3.2,6l-30.7,9.8C244.8,478.1,244.3,478.2,243.8,478.2z M271.7,453.7
				c0,0-0.1,0-0.1,0l-31.9,9.2c-0.2,0-0.2,0.1-0.3,0.2c0,0.1-0.1,0.2,0,0.3v0l4,9.9c0.1,0.2,0.3,0.3,0.5,0.2l30.7-9.8
				c0.2-0.1,0.3-0.3,0.3-0.5l-2.8-9.4C272.1,453.8,271.9,453.7,271.7,453.7z"/>
		</g>
	</g>
	<g>
		<g>
			<g>
				<defs>
					<path id="SVGID_00000042698275118959804210000010804626250667469448_" d="M953.6,59.4c0,0-24-10.1-35,16.2S830,426.3,830,426.3
						s-18.8-2.1-24.3,22.8s44.6,42.3,59.3,18.4c14.7-23.9-5.3-30.7-5.3-30.7l112.8-335.8C972.6,101.1,986.8,71.3,953.6,59.4z"/>
				</defs>
				<use xlink:href="#SVGID_00000042698275118959804210000010804626250667469448_"  style="overflow:visible;fill:#F24922;"/>
				<clipPath id="SVGID_00000103950439696229834200000015411038832709917619_">
					<use xlink:href="#SVGID_00000042698275118959804210000010804626250667469448_"  style="overflow:visible;"/>
				</clipPath>
				<path style="clip-path:url(#SVGID_00000103950439696229834200000015411038832709917619_);fill:#FFFFFF;" d="M929,263.9
					c1.4-0.1,2.3-1.1,2.6-2.2c0.4-1.1,0.2-2.4-0.3-3.3c-0.5-0.8-2-2.6-3.9-4.9s-4.4-5.3-6.9-8.5c-2.6-3.2-4.4-6.9-5.3-10.3
					c-0.9-3.3-0.8-6.2,0.6-7.5c1.3-1.2,2.9-1.1,4.2-0.7c1.3,0.4,2.2,1.2,2.2,1.2c-1.3,3.5-1.7,7.2-1.2,10.5c0.5,3.3,1.8,6,3.9,7.3
					c2.1,1.3,4.4,1.6,6.3,0.7c1.9-1,3.4-3.3,3.9-7.2s-1.6-8.1-4.4-11.7c-2.9-3.6-6.5-6.7-9.3-8.6c-2.7-1.9-4.1-4.1-4.5-5.7
					c-0.4-1.6,0.3-2.5,1.8-2s9.5,6.9,17.2,13c7.7,6.2,15,12.2,15,12.2l0.5-3.5l0.5-3.5c0,0-6.5-5-13.4-10.6
					c-7-5.6-14.5-11.7-16.5-14c-2.1-2.3-3-4.3-3.5-5.7c-0.5-1.4-0.4-2.3-0.4-2.3l9.5,6.9l9.5,6.9c0,0,0.3-1.1,0.5-2.3
					s0.6-2.7,0.6-3.3c0.1-0.7-0.3-1.4-0.7-2c-0.4-0.6-0.8-1-0.8-1c4.8-6.5,3.5-12.6,0.5-17.4c-3-4.8-7.7-8.2-9.8-9.5
					s-4.2-3.1-5.5-4.8c-1.3-1.7-1.7-3.2-0.4-3.9c1.3-0.7,6.2,2.3,10.8,5.6s8.9,6.6,8.9,6.6s0-0.4,0-1c0-0.7,0-1.6,0.1-2.8
					s-0.3-2.4-0.8-3.2s-0.9-1.4-0.9-1.4s1.2-1.2,2-3.3c0.8-2.1,1.4-5.3,0.1-9.2s-4.2-7.1-7.1-9.7c-3-2.5-6-4.4-7.5-5.7
					c-1.5-1.3-3.2-3.2-4.4-5.3c-1.3-2.1-2.1-4.4-2.2-6.5c-0.1-2.1-0.2-4.6-0.3-6.7s-0.2-3.6-0.2-3.6c1.8,3.6,5.9,6.5,9.5,8.6
					c3.6,2.1,6.7,3.3,6.7,3.3s0.1,0.3,0,1.2c0,0.9-0.1,2.5-0.5,5s0.6,3.9,1.7,4.6c1,0.8,2.2,0.9,2.2,0.9l-0.2-5l-0.2-5l7.9,4.8
					l7.9,4.8c0,0,0.4,0.3,0.8,1.4c0.3,1.1,0.5,2.8-0.1,5.7c-0.6,2.8-2.6,4.4-4.5,5.2c-1.9,0.8-3.6,0.9-3.6,0.9l6.2,1.4l6.2,1.4
					c0,0,0-2.4-0.1-5.7c0-3.3,0-7.4,0-10.8c0.1-3.4,0-9-1.1-14.4c-1.2-5.3-3.4-10.3-7.9-12.5c-4.4-2.1-8.2-1.4-10.9,0
					c-2.7,1.3-4.3,3.2-4.3,3.2c10.1-2.2,15.1,1.5,17.6,5.8c2.5,4.3,2.4,9.1,2.4,9.1s-0.9-0.9-3.3-2.3c-2.4-1.4-6.2-3.4-12-5.5
					c-5.8-2.1-10.2-4.2-13.5-6.1s-5.4-3.6-6.8-5.1c-1.3-1.5-2.7-2.4-3.6-2.9s-1.6-0.6-1.6-0.6s0.2,2.7,0.4,6.5
					c0.2,3.7,0.5,8.5,0.8,12.5c0.3,4.1,2.3,7.1,4.3,9.1c2,2,3.9,3,3.9,3s-1.5-0.4-3.1,0.1s-3.4,1.7-3.9,5s1,6.4,2.7,8.7
					c1.7,2.3,3.5,3.8,3.5,3.8c-1.1-0.5-2.9-0.7-4.4-0.2c-1.5,0.5-2.7,1.9-2.7,4.6c0,2.7,1.6,5.1,3.1,6.7c1.6,1.6,3.1,2.6,3.1,2.6
					c-6.4-0.1-7.3,3.5-6.7,7.2c0.7,3.7,2.9,7.3,2.9,7.3s-1.2-0.6-2.7-1.9s-3.4-3.2-4.8-5.8c-1.4-2.6-1.1-5.1-0.5-7s1.6-3.1,1.6-3.1
					c-2.3-0.3-4.5,1.1-6,3.3s-2.3,5.3-1.6,8.4c0.7,3.1,3.2,6,5.5,8.2c2.3,2.2,4.4,3.5,4.4,3.5c-0.4,1.8,0.4,4.1,1.2,5.9
					c0.9,1.8,1.8,3.2,1.8,3.2c-5.8,2.1-5.9,6.1-4.5,9.5c1.4,3.4,4.2,6.3,4.2,6.3c-2.2,0-4.2,1.1-5.4,3.5c-1.2,2.4-1.6,6.1-0.6,11.5
					s4.6,11.2,8,15.6c3.4,4.5,6.5,7.6,6.5,7.6s-2.5,0.2-5.3-0.1c-2.8-0.3-5.9-1.2-7.1-3.3c-1.1-2.1-0.7-3.9,0.1-5.2
					c0.7-1.3,1.8-2,1.8-2c-1.8-0.5-4.1-0.2-5.8,1.3s-2.6,4-1.6,8s5.7,6,10.5,7S927.6,264,929,263.9z M927.4,241.8
					c-2.4-1.7-3.1-4.7-3.1-7.3c-0.1-2.6,0.4-4.8,0.4-4.8c4.2,3.3,6.1,7.2,6.3,9.8C931.2,242.1,929.8,243.4,927.4,241.8z
					 M921.6,150.7c0.6-1,2.4-1.3,4.8-0.4s5.5,3,8.7,6.6c3.2,3.7,3.4,6.4,3,8.1c-0.5,1.8-1.8,2.6-1.8,2.6c-3.8-2.4-7.9-5.8-10.9-9
					S920.7,152.3,921.6,150.7z M920.6,181.6c2.2-1.2,5.7,0.8,8.7,3.7c3,2.8,5.6,6.5,6.1,8.4c0.5,1.6,0,3.1-0.6,4.1s-1.3,1.6-1.3,1.6
					c-2.9-2.1-7.4-5.8-10.6-9.4C919.7,186.4,918,183,920.6,181.6z"/>
				<polygon style="clip-path:url(#SVGID_00000103950439696229834200000015411038832709917619_);fill:#FFFFFF;" points="849,279.7 
					927.9,301.3 862.7,527.5 750.9,506.8 				"/>
				<polygon style="clip-path:url(#SVGID_00000103950439696229834200000015411038832709917619_);fill:#F24922;" points="
					835.1,282.5 937.6,310.5 936.6,318.8 813.2,288.2 				"/>
				<path style="clip-path:url(#SVGID_00000103950439696229834200000015411038832709917619_);fill:#FFFFFF;" d="M914.7,68.2
					c1-0.5,35.2-10.1,77.9,25.6s-1.9,5.3-1.9,5.3S954,69.4,914,74.3S914.7,68.2,914.7,68.2z"/>
				<g style="clip-path:url(#SVGID_00000103950439696229834200000015411038832709917619_);">
					<path class="st3" d="M948.1,116.3c0-0.1,0.1-0.1,0.2-0.1c0.1,0,0.3,0,0.3,0.2c0,0,0.9,2.6,1.4,5.8c0.1,0.8-0.1,1.5-0.5,2
						c-1.2,1.4-4.1,1.2-4.2,1.2c-0.1,0-0.3-0.1-0.3-0.3c0-0.1,0.1-0.3,0.3-0.3c0,0,2.7,0.2,3.7-1c0.4-0.4,0.5-0.9,0.4-1.6
						c-0.5-3.2-1.4-5.7-1.4-5.7C948,116.4,948,116.4,948.1,116.3z"/>
					<g>
						<path class="st4" d="M950.2,114.1l0.6,0.9c0.2,0.3,0,0.8-0.4,0.8l-0.9,0c-0.2,0-0.3,0.1-0.4,0.2l-0.4,0.7
							c-0.2,0.3-0.7,0.3-0.9-0.1l-0.3-0.7c-0.1-0.1-0.2-0.2-0.3-0.3l-1.1-0.3c-0.4-0.1-0.5-0.6-0.2-0.9l0.6-0.4
							c0.2-0.1,0.2-0.3,0.2-0.5l-0.1-0.9c-0.1-0.4,0.4-0.7,0.7-0.5l0.9,0.6c0.2,0.1,0.4,0.1,0.5,0l0.6-0.4c0.3-0.2,0.8,0.1,0.7,0.4
							l0,1C950.1,113.9,950.1,114,950.2,114.1z"/>
						<path class="st3" d="M946.4,112.3c0.1-0.1,0.1-0.2,0.3-0.3c0.3-0.2,0.6-0.2,0.8,0l0.9,0.6c0.1,0,0.2,0,0.2,0l0.6-0.4
							c0.2-0.1,0.5-0.1,0.8,0c0.2,0.1,0.4,0.4,0.4,0.7l0,1c0,0,0,0.1,0,0.1l0.6,0.9c0.2,0.2,0.2,0.5,0.1,0.8c0,0,0,0,0,0
							c-0.1,0.3-0.4,0.4-0.6,0.4l-0.9,0c-0.1,0-0.1,0-0.2,0.1l-0.4,0.7c-0.2,0.2-0.4,0.4-0.7,0.3c-0.3,0-0.5-0.2-0.6-0.4l-0.3-0.7
							c0-0.1-0.1-0.1-0.1-0.1l-1.1-0.3c-0.3-0.1-0.5-0.3-0.6-0.6c-0.1-0.3,0.1-0.6,0.3-0.8l0.6-0.4c0.1,0,0.1-0.1,0.1-0.2l-0.1-0.9
							C946.3,112.6,946.4,112.4,946.4,112.3z M950,114.3L950,114.3c-0.1-0.1-0.1-0.3-0.1-0.5l0-1c0-0.1-0.1-0.2-0.1-0.2
							c0,0-0.1-0.1-0.2,0l-0.6,0.4c-0.2,0.1-0.5,0.1-0.8,0l-0.9-0.6c-0.1-0.1-0.2,0-0.2,0c0,0-0.1,0.1-0.1,0.2l0.1,0.9
							c0,0.3-0.1,0.6-0.3,0.8l-0.6,0.4c-0.1,0.1-0.1,0.2-0.1,0.2c0,0,0,0.1,0.2,0.2l1.1,0.3c0.2,0.1,0.4,0.2,0.5,0.4l0.3,0.7
							c0,0.1,0.1,0.1,0.2,0.1c0,0,0.1,0,0.2-0.1l0.4-0.7c0.1-0.2,0.4-0.3,0.6-0.3l0.9,0c0.1,0,0.2-0.1,0.2-0.1c0,0,0.1-0.1,0-0.2
							L950,114.3z"/>
					</g>
					<g>
						<path class="st5" d="M933.2,135.1c0,0,1.7,2-0.8,2.3c-2.5,0.3-3.7-3.6-3.7-3.6S931,133.5,933.2,135.1z"/>
						<path class="st3" d="M928.4,133.6l0.3-0.1c0.1,0,2.4-0.4,4.7,1.3l0,0c0.1,0.1,0.9,1.1,0.5,1.9c-0.2,0.5-0.7,0.8-1.5,0.9
							c-2.7,0.3-3.9-3.6-3.9-3.8L928.4,133.6z M933,135.3c-1.6-1.2-3.2-1.3-3.9-1.2c0.3,0.9,1.4,3.3,3.3,3.1c0.4,0,1-0.2,1.1-0.5
							C933.6,136.2,933.2,135.6,933,135.3z"/>
					</g>
					<g>
						<path class="st5" d="M926.1,117c-0.5-0.2-3.4-2.9-6.2-2.7s-4.6,0.2-5.1-0.1c-0.5-0.2-2.9-2-4.2,0.6c-1.3,2.7-0.4,4,0.8,4.6
							c0,0-2.2,0.1-2.1,2.6c0,2.4,1.4,4,3.4,4.1c0,0,4.7,3.2,10.2-0.1C928.5,122.6,929.3,118.5,926.1,117z"/>
						<path class="st3" d="M910.5,114.8c0.4-0.8,0.9-1.3,1.6-1.5c1.1-0.3,2.3,0.3,2.8,0.6c0.1,0,0.1,0.1,0.2,0.1
							c0.6,0.3,3.7,0.1,4.9,0c2.3-0.1,4.7,1.6,5.8,2.4c0.2,0.2,0.4,0.3,0.5,0.3c1.2,0.6,1.9,1.6,2,2.8c0.1,2.2-1.8,4.6-5.1,6.6
							c-5.2,3.1-9.9,0.5-10.5,0.1c-2.2-0.1-3.6-1.8-3.6-4.3c0-1.7,1-2.4,1.7-2.7C909.9,118.7,909.2,117.3,910.5,114.8z M927.3,121.5
							c0.3-0.6,0.5-1.3,0.4-1.9c0-1-0.6-1.8-1.7-2.3c-0.1-0.1-0.3-0.2-0.6-0.4c-1-0.7-3.3-2.4-5.5-2.3c-3.2,0.2-4.7,0.1-5.2-0.1
							c-0.1,0-0.1-0.1-0.2-0.1c-0.5-0.3-1.5-0.9-2.4-0.6c-0.5,0.2-0.9,0.6-1.2,1.2c-1,2.1-0.8,3.5,0.6,4.2l0.9,0.4l-1,0.1
							c-0.1,0-1.9,0.2-1.9,2.3c0,2.2,1.2,3.7,3.2,3.8l0.1,0l0.1,0c0,0,4.7,3.1,9.9-0.1C925,124.4,926.6,122.9,927.3,121.5z"/>
					</g>
					<g>
						<path class="st5" d="M922.7,124.6c0,0-1.2,8.1,2.9,10.1c4.1,2,10.4,0.9,16.3-4s3.5-9.1,0.8-12.2s-13.5-12.9-17.7-1.7
							C925.1,116.8,923.6,119.7,922.7,124.6z"/>
						<path class="st3" d="M925.3,115.5c1.1-2.4,2.8-3.7,4.8-4.1c4.9-0.9,11,4.7,12.9,6.9c1.5,1.7,3.1,4,2.9,6.7
							c-0.2,2-1.4,4-3.8,5.9c-5.8,4.7-12.1,6.3-16.6,4.1c-4.2-2.1-3.1-10-3-10.4l0,0c0.9-4.9,2.3-7.9,2.4-7.9
							C925,116.2,925.1,115.9,925.3,115.5z M944.8,127c0.3-0.7,0.5-1.3,0.6-2c0.2-2.5-1.4-4.6-2.8-6.3c-1.9-2.2-7.7-7.6-12.4-6.8
							c-2.1,0.4-3.8,2-4.9,4.9c0,0.1-1.4,3-2.3,7.8c0,0.2-1.1,7.9,2.7,9.8c4.3,2.1,10.5,0.6,16.1-4
							C943.2,129.3,944.2,128.2,944.8,127z M922.7,124.6L922.7,124.6L922.7,124.6z"/>
					</g>
					<g>
						<path class="st5" d="M935.8,118.1c0,0,2.2-0.7,1.2-2.4c-1-1.7-4.7-0.8-5.7-0.1"/>
						<path class="st3" d="M931.1,115.5C931.1,115.5,931.1,115.4,931.1,115.5c0.8-0.6,2.9-1.3,4.5-1c0.8,0.1,1.3,0.5,1.6,1
							c0.3,0.5,0.4,1,0.2,1.5c-0.3,0.9-1.5,1.3-1.5,1.3c-0.1,0-0.3,0-0.3-0.2c0-0.1,0-0.3,0.2-0.3c0,0,1-0.3,1.2-1
							c0.1-0.3,0.1-0.6-0.2-1c-0.2-0.4-0.6-0.6-1.2-0.8c-1.4-0.3-3.4,0.3-4,0.8c-0.1,0.1-0.3,0.1-0.4-0.1
							C931,115.7,931,115.6,931.1,115.5z"/>
					</g>
					<path id="XMLID_00000003809271386059912730000017222634352667592359_" class="st6" d="M924.6,119.5c0,0,0.2,1.6,1.1,0.9
						c1-0.7,18.7-0.8,18.7-0.8s1.4,0.1,1.3-1.5c-0.1-1.6-1.3-1.6-4.4-1.5c-3,0-15.4,2.1-15.9,1.8
						C924.9,118.2,924.7,118.6,924.6,119.5z"/>
					<path class="st7" d="M927.9,118.3l0.1,1.7l-2.1,0.2l-1,0.5l-0.1-1.1c0,0,0.4-1,0.7-1S927.9,118.3,927.9,118.3z"/>
					<path class="st3" d="M924.5,118.6c0.1-0.2,0.2-0.3,0.3-0.4c0.1-0.1,0.4-0.1,0.7,0c0.4,0.1,3.5-0.4,6.2-0.7
						c3.7-0.5,7.9-1.1,9.6-1.1c3.1,0,4.5,0,4.6,1.8c0,0.6-0.1,1-0.4,1.3c-0.5,0.5-1.2,0.4-1.2,0.4c-6.7,0-17.7,0.2-18.5,0.7
						c-0.4,0.3-0.7,0.3-0.9,0.2c-0.5-0.2-0.6-1.1-0.7-1.2l0-0.1C924.3,119.1,924.4,118.8,924.5,118.6z M924.6,119.5L924.6,119.5
						L924.6,119.5z M945.3,118.9c0.1-0.2,0.1-0.4,0.1-0.7c-0.1-1.3-0.9-1.3-4.1-1.3c-1.6,0-5.8,0.6-9.5,1.1c-5,0.7-6.2,0.8-6.5,0.7
						c-0.1-0.1-0.2,0-0.2,0c0,0-0.2,0.2-0.3,0.8c0,0.3,0.2,0.7,0.3,0.8c0.1,0,0.3-0.1,0.3-0.1c1-0.7,15.9-0.8,18.8-0.8
						c0,0,0.5,0,0.8-0.3C945.2,119,945.3,118.9,945.3,118.9z"/>
					<path class="st8" d="M930.7,126.1c0,0,1.2,0,0.8-2.3c-0.3-1.7-1.5-1.9-1.4-0.1C930.1,125.5,929.9,126,930.7,126.1"/>
					<path class="st8" d="M930,134.5c0,0,1,0,0.7-2c-0.2-1.4-1.2-1.6-1.2-0.1C929.5,134,929.4,134.4,930,134.5"/>
					<path class="st3" d="M931.6,127.5c0-0.2,0.1-0.3,0.3-0.4c0.7-0.2,2.8-0.8,3.4,0C936,128,931.9,128.7,931.6,127.5z"/>
					<path class="st3" d="M931.7,130.6c0-0.2,0.1-0.3,0.2-0.4c0.6-0.2,2.5-0.7,3,0C935.6,131.1,931.9,131.6,931.7,130.6z"/>
					<g>
						<path class="st5" d="M922,123.1c0,0,4.6-1.4,2.5-3.9c0,0-1.1-1.4-4.3,0.3c-3.2,1.7-1.4,4.7-1.4,4.7"/>
						<path class="st3" d="M918.3,120.9c0.3-0.7,0.9-1.2,1.8-1.7c3.4-1.8,4.6-0.3,4.7-0.2c0.5,0.6,0.7,1.3,0.5,1.9
							c-0.5,1.6-3,2.3-3.1,2.4c-0.1,0-0.3,0-0.3-0.2c0-0.1,0-0.3,0.2-0.3c0,0,2.4-0.7,2.8-2c0.1-0.5,0-0.9-0.4-1.4c0,0-1-1.2-4,0.4
							c-0.9,0.5-1.5,1.1-1.7,1.9c-0.3,1.2,0.4,2.4,0.4,2.5c0.1,0.1,0,0.3-0.1,0.4c-0.1,0.1-0.3,0-0.4-0.1c0-0.1-0.8-1.4-0.4-2.9
							C918.1,121.3,918.2,121.1,918.3,120.9z"/>
					</g>
					<g>
						<path class="st5" d="M914.3,124.7c0,0-0.8,1-1.8,1.3"/>
						<path class="st3" d="M912.2,125.9c0-0.1,0.1-0.1,0.2-0.1c0.9-0.3,1.7-1.2,1.7-1.2c0.1-0.1,0.3-0.1,0.4,0
							c0.1,0.1,0.1,0.3,0,0.4c0,0-0.9,1-2,1.4c-0.1,0-0.3,0-0.3-0.2C912.2,126,912.2,125.9,912.2,125.9z"/>
					</g>
					<g>
						<path class="st5" d="M916,123.1c0,0,1.4-4.7-4.5-3.7"/>
						<path class="st3" d="M911.2,119.3c0-0.1,0.1-0.1,0.2-0.1c2-0.4,3.5-0.1,4.3,0.8c1.1,1.2,0.5,3.1,0.5,3.2
							c0,0.1-0.2,0.2-0.3,0.2c-0.1,0-0.2-0.2-0.2-0.3c0,0,0.5-1.7-0.4-2.7c-0.7-0.7-1.9-1-3.8-0.6c-0.1,0-0.3-0.1-0.3-0.2
							C911.2,119.4,911.2,119.4,911.2,119.3z"/>
					</g>
					<g>
						<path class="st5" d="M915.4,116.9c0,0-1,2.2-2.3,2.4"/>
						<path class="st3" d="M912.8,119.2c0-0.1,0.1-0.1,0.2-0.1c1-0.2,1.9-1.7,2.1-2.3c0.1-0.1,0.2-0.2,0.4-0.1
							c0.1,0.1,0.2,0.2,0.1,0.4c0,0.1-1,2.3-2.5,2.6c-0.1,0-0.3-0.1-0.3-0.2C912.8,119.3,912.8,119.2,912.8,119.2z"/>
					</g>
					<g>
						<path class="st5" d="M924.9,116.2c0,0,1.4,1.7,0,3.4c0,0-0.6-1.6-3.5-0.8c-1.3,0.4-1.6-2.9-1.6-2.9"/>
						<path class="st3" d="M919.5,115.9c0-0.1,0.1-0.1,0.2-0.2c0.1,0,0.3,0.1,0.3,0.2c0,0.6,0.3,2.2,0.9,2.6
							c0.1,0.1,0.2,0.1,0.4,0.1c2.2-0.6,3.2,0.1,3.6,0.6c0.9-1.4-0.2-2.7-0.2-2.8c-0.1-0.1-0.1-0.3,0-0.4c0.1-0.1,0.3-0.1,0.4,0
							c0,0,1.5,1.9,0,3.8l-0.3,0.4l-0.2-0.4c0-0.1-0.5-1.4-3.2-0.6c-0.3,0.1-0.6,0-0.8-0.1c-0.9-0.6-1.1-2.7-1.1-3
							C919.5,116,919.5,115.9,919.5,115.9z"/>
					</g>
				</g>
			</g>
		</g>
		<path class="st9" d="M815.1,472.8c-9.1-6.3-13.5-15.2-11.5-24.2c3-13.7,10-19.7,15.4-22.2c3.8-1.8,7.2-2.2,9.3-2.3
			c6.8-28.2,77.6-323.8,88.2-349.3c3.7-8.7,9.1-14.6,16.1-17.5c10.5-4.3,20.7-0.3,21.7,0.1c10.8,3.8,17.9,9.9,21.3,18.1
			c5.1,12.3-0.3,24.9-1,26.4L862.5,435.6c2.6,1.4,7.1,4.4,9.2,10c2.3,6.4,0.7,14.2-4.7,23c-8.9,14.4-28.4,14.7-42.8,8.9
			C820.7,476.2,817.7,474.6,815.1,472.8z M952.7,61.5c-1-0.4-22.2-8.8-32.1,15c-10.8,25.9-87.7,347.1-88.4,350.3l-0.5,1.9l-1.9-0.2
			c-0.7-0.1-17-1.5-21.9,21c-2.5,11.3,8.1,20,17.9,23.9c13.1,5.3,30.2,4.6,37.4-7.1c4.7-7.6,6.2-14.1,4.3-19.2
			c-2.2-6-8.4-8.3-8.5-8.3l-2.1-0.7l0.7-2.1l112.9-335.9l0.1-0.1c0.1-0.1,5.5-12,1-23c-2.9-7-9.2-12.2-18.8-15.6L952.7,61.5z"/>
		<g>
			<path class="st10" d="M829.7,414.1l-2.4,10.5c-0.3,1.3,0.5,2.7,1.8,3.1l30.8,9.5c1.4,0.4,2.8-0.3,3.3-1.7l3.1-9.3
				c0.5-1.4-0.3-2.9-1.7-3.3l-31.5-10.7C831.7,411.7,830.1,412.6,829.7,414.1z"/>
			<path class="st9" d="M827.2,429.2c-1.6-1.1-2.4-3.1-2-5l2.4-10.5c0.3-1.3,1.2-2.5,2.4-3.2c1.2-0.7,2.6-0.8,3.9-0.4l31.5,10.7
				c2.5,0.9,3.9,3.6,3,6.1l-3.1,9.3c-0.8,2.5-3.5,3.9-6,3.1l-30.8-9.5C828,429.7,827.6,429.4,827.2,429.2z M864,425.1
				c0,0-0.1,0-0.1-0.1l-31.5-10.7c-0.1-0.1-0.3,0-0.3,0c-0.1,0-0.2,0.1-0.2,0.3l0,0l-2.4,10.5c0,0.2,0.1,0.4,0.3,0.5l30.7,9.5
				c0.2,0.1,0.5-0.1,0.5-0.3l3.1-9.3C864.2,425.4,864.2,425.2,864,425.1z"/>
		</g>
	</g>
</g>
</svg>
