<?xml version="1.0" encoding="utf-8"?>
<!-- Generator: Adobe Illustrator 27.7.0, SVG Export Plug-In . SVG Version: 6.00 Build 0)  -->
<svg version="1.1" id="레이어_1" xmlns="http://www.w3.org/2000/svg" xmlns:xlink="http://www.w3.org/1999/xlink" x="0px"
	 y="0px" viewBox="0 0 1080 1013.3" style="enable-background:new 0 0 1080 1013.3;" xml:space="preserve">
<style type="text/css">
	.st0{fill:#FF5562;stroke:#000000;stroke-width:8;stroke-miterlimit:10;}
</style>
<g id="머리장식">
	<g id="_x31_2">
		<path class="st0" d="M542.3,270.7c40.6,0,79.6,12,102.1,16.5c4.6,0.9,7-5.2,3.1-7.7c-17.3-11-47.6-25.4-87.1-25.4h-40
			c-39.5,0-69.8,14.5-87.1,25.4c-4,2.5-1.5,8.6,3.1,7.7c22.4-4.6,61.5-16.5,102.1-16.5H542.3z"/>
		<g>
			<path class="st0" d="M539.2,246.1c0,0,6.2-32.3-27.9-49.7s-67.5-40.6-67.5-40.6S426,273.3,528.7,259.6
				C528.6,259.5,539.9,262.5,539.2,246.1z"/>
			<path d="M531,245.8l-23.2-20.9c-1.7-1.5-4.4-1.4-5.9,0.3l-0.2,0.3c-1.5,1.7-1.4,4.4,0.4,5.9l23.4,20.6c1.9,1.6,4.8,1.3,6.2-0.8
				l0,0C532.9,249.6,532.6,247.2,531,245.8z"/>
			<path class="st0" d="M541.6,246.1c0,0-6.2-32.3,27.9-49.7c34.1-17.4,67.5-40.6,67.5-40.6s17.8,117.5-84.9,103.8
				C552.2,259.5,540.9,262.5,541.6,246.1z"/>
			<path d="M549.8,245.8l23.2-20.9c1.7-1.5,4.4-1.4,5.9,0.3l0.2,0.3c1.5,1.7,1.4,4.4-0.4,5.9L555.3,252c-1.9,1.6-4.8,1.3-6.2-0.8
				l0,0C547.9,249.6,548.2,247.2,549.8,245.8z"/>
			<path class="st0" d="M543.4,265.5h-3.5c-6.4,0-11.6-5.2-11.6-11.6v-10c0-6.4,5.2-11.6,11.6-11.6h3.5c6.4,0,11.6,5.2,11.6,11.6v10
				C555,260.3,549.8,265.5,543.4,265.5z"/>
		</g>
	</g>
</g>
</svg>
