<?xml version="1.0" encoding="utf-8"?>
<!-- Generator: Adobe Illustrator 27.7.0, SVG Export Plug-In . SVG Version: 6.00 Build 0)  -->
<svg version="1.1" id="레이어_1" xmlns="http://www.w3.org/2000/svg" xmlns:xlink="http://www.w3.org/1999/xlink" x="0px"
	 y="0px" viewBox="0 0 1080 1013.3" style="enable-background:new 0 0 1080 1013.3;" xml:space="preserve">
<style type="text/css">
	.st0{fill:#DB1D1D;stroke:#231815;stroke-width:8;stroke-linecap:round;stroke-linejoin:round;stroke-miterlimit:10;}
	.st1{fill:#E4A073;stroke:#231815;stroke-width:8;stroke-linecap:round;stroke-linejoin:round;stroke-miterlimit:10;}
</style>
<path class="st0" d="M410.7,242.9c0,0-31.5,7.5-58.6,22.3c-4.5,2.5-6.4,7.9-4.6,12.7c4.1,10.3,11.5,27.7,18.5,36.5
	c0,0,38.8-40.7,104.3-54.4S410.7,242.9,410.7,242.9z"/>
<path class="st0" d="M669.9,242.9c0,0,31.5,7.5,58.6,22.3c4.5,2.5,6.4,7.9,4.6,12.7c-4.1,10.3-11.5,27.7-18.5,36.5
	c0,0-38.8-40.7-104.3-54.4S669.9,242.9,669.9,242.9z"/>
<path class="st0" d="M543.1,251.2c0,0-61.6-90.8-117.8-74c-3.5,1-6.4,3.6-7.9,6.9c-5,10.7-15,36.4-6.7,58.9c0,0-12.9,26.1,6.9,35.1
	c0,0,48.5-24.8,117.8-26.3L543.1,251.2z"/>
<path class="st1" d="M483.6,232.4c0,0,17.2-3.6,52.4,13.9"/>
<path class="st0" d="M535.7,251.2c0,0,61.6-90.8,117.8-74c3.5,1,6.4,3.6,7.9,6.9c5,10.7,15,36.4,6.7,58.9c0,0,12.9,26.1-6.9,35.1
	c0,0-48.5-24.8-117.8-26.3L535.7,251.2z"/>
<path class="st1" d="M595.3,232.4c0,0-17.2-3.6-52.4,13.9"/>
<path class="st0" d="M524.5,225.8c0,0-4.3,3.7-1.8,11.9c2.5,8.2-3.8,12.7,4.5,15.4c8.3,2.7,15.1,0.1,21.9,0c6.8-0.1,3.8-8.8,5.5-15
	c1.7-6.2-0.5-13.2-5.6-13.2C543.8,225,532.5,222.5,524.5,225.8z"/>
</svg>
