<?xml version="1.0" encoding="utf-8"?>
<!-- Generator: Adobe Illustrator 27.7.0, SVG Export Plug-In . SVG Version: 6.00 Build 0)  -->
<svg version="1.1" id="레이어_1" xmlns="http://www.w3.org/2000/svg" xmlns:xlink="http://www.w3.org/1999/xlink" x="0px"
	 y="0px" viewBox="0 0 1080 1013.3" style="enable-background:new 0 0 1080 1013.3;" xml:space="preserve">
<style type="text/css">
	.st0{fill:#FFFFFF;stroke:#231815;stroke-width:8;stroke-linecap:round;stroke-linejoin:round;stroke-miterlimit:10;}
	.st1{fill:#FFA1A2;}
	.st2{fill:#FFFFFF;}
	.st3{clip-path:url(#SVGID_00000169554616181310968450000011047980406194157217_);fill:#FFCECE;}
	.st4{fill:none;stroke:#231815;stroke-width:8;stroke-linecap:round;stroke-linejoin:round;stroke-miterlimit:10;}
	.st5{fill:#231815;}
	.st6{fill:#FFA1A2;stroke:#231815;stroke-width:8;stroke-linecap:round;stroke-linejoin:round;stroke-miterlimit:10;}
	.st7{display:none;}
	
		.st8{display:inline;fill:#FFC82C;stroke:#231815;stroke-width:8;stroke-linecap:round;stroke-linejoin:round;stroke-miterlimit:10;}
	
		.st9{display:inline;fill:#E4A073;stroke:#231815;stroke-width:8;stroke-linecap:round;stroke-linejoin:round;stroke-miterlimit:10;}
	.st10{display:inline;fill:#FFFFFF;}
	
		.st11{display:inline;fill:#DB1D1D;stroke:#231815;stroke-width:8;stroke-linecap:round;stroke-linejoin:round;stroke-miterlimit:10;}
	.st12{display:inline;}
	.st13{fill:#FF5562;stroke:#000000;stroke-width:8;stroke-miterlimit:10;}
	.st14{fill:#F74D6B;stroke:#231815;stroke-width:7;stroke-linecap:round;stroke-linejoin:round;stroke-miterlimit:10;}
	.st15{fill:#FFC50D;stroke:#231815;stroke-width:7;stroke-linecap:round;stroke-linejoin:round;stroke-miterlimit:10;}
	.st16{display:inline;fill:#231815;stroke:#231815;stroke-width:5;stroke-miterlimit:10;}
	
		.st17{display:inline;fill:#FFC82C;stroke:#231815;stroke-width:7;stroke-linecap:round;stroke-linejoin:round;stroke-miterlimit:10;}
	
		.st18{display:inline;fill:#FFFFFF;stroke:#231815;stroke-width:8;stroke-linecap:round;stroke-linejoin:round;stroke-miterlimit:10;}
	.st19{fill:#FFC0C0;}
	.st20{fill:#9E7E6C;stroke:#231815;stroke-width:8;stroke-linecap:round;stroke-linejoin:round;stroke-miterlimit:10;}
	.st21{fill:#E4A073;stroke:#231815;stroke-width:8;stroke-linecap:round;stroke-linejoin:round;stroke-miterlimit:10;}
	.st22{fill:#F4DBCE;stroke:#231815;stroke-width:8;stroke-linecap:round;stroke-linejoin:round;stroke-miterlimit:10;}
</style>
<g>
	<g>
		<path class="st0" d="M386.2,644.3L374,658.7c-12.9,14.7-38.9,47.7-59.3,94.9c-18.5,42.8,51.6,83.1,73.7,22
			c0,0-15.7,107.1,5.2,176.4c0,0,6.7,17.3,46.9,17.3s20-40.9,39.7-47.6H600c19.8,6.8-0.4,47.6,39.7,47.6c40.2,0,46.9-17.3,46.9-17.3
			c21-69.3,5.2-176.4,5.2-176.4c22.2,61,92.2,20.8,73.7-22c-20.3-47.1-46.3-80.1-59.2-94.8c0,0-11.3-13.3-11.3-13.4L386.2,644.3z"/>
		<path class="st1" d="M547.1,856.4h-22.3c-28.4,0-51.4-23-51.4-51.4v-11.7c0-28.4,23-51.4,51.4-51.4h22.3c28.4,0,51.4,23,51.4,51.4
			V805C598.5,833.3,575.5,856.4,547.1,856.4z"/>
		<path class="st0" d="M458.7,919.7c0,0,4.8,2,27.4,2s96.6,3.4,135.2-2.7"/>
	</g>
	<g>
		<g>
			<g>
				<path id="SVGID_1_" class="st2" d="M677.6,662.1c23.4-5.2,45.8-14.4,65.5-27.9c11.2-7.7,21.4-16.4,30-27.4
					c33.3-42.2-0.3-94.3-0.3-150.9c0-79.5-47.3-144.6-100.4-172.7c-4.1-2.1-8-4-11.9-5.8c0,0,1.3-54.2-14.3-80.7
					c-7-11.9-16.3-11.4-29.8,2.6l-45.9,51.8l-9.2-14.2l-10,14.1c-3.8-0.1-7.4-0.5-11.2-0.5c-4.3,0-8.5,0.4-12.8,0.6l-10-14.2
					l-9.1,14.1l-45.8-51.7c-12.3-12.6-22.8-14.6-29.8-2.6C416.8,223.6,418,278,418,278c-4.2,1.9-8.2,4-11.9,6.2
					c-52.1,28.1-98.6,93.2-98.6,171.7c0,56-33.9,107.8-1.2,149.8c8.7,11.2,19,20.2,30.4,28c20.4,14,43.5,23.6,67.7,28.7
					C454.2,673,559.6,688.3,677.6,662.1z"/>
			</g>
			<g>
				<g>
					<g>
						<defs>
							<path id="SVGID_00000102524408221963972390000007577413569888770717_" d="M677.6,662.1c23.4-5.2,45.8-14.4,65.5-27.9
								c11.2-7.7,21.4-16.4,30-27.4c33.3-42.2-0.3-94.3-0.3-150.9c0-79.5-47.3-144.6-100.4-172.7c-4.1-2.1-8-4-11.9-5.8
								c0,0,1.3-54.2-14.3-80.7c-7-11.9-16.3-11.4-29.8,2.6l-45.9,51.8l-9.2-14.2l-10,14.1c-3.8-0.1-7.4-0.5-11.2-0.5
								c-4.3,0-8.5,0.4-12.8,0.6l-10-14.2l-9.1,14.1l-45.8-51.7c-12.3-12.6-22.8-14.6-29.8-2.6C416.8,223.6,418,278,418,278
								c-4.2,1.9-8.2,4-11.9,6.2c-52.1,28.1-98.6,93.2-98.6,171.7c0,56-33.9,107.8-1.2,149.8c8.7,11.2,19,20.2,30.4,28
								c20.4,14,43.5,23.6,67.7,28.7C454.2,673,559.6,688.3,677.6,662.1z"/>
						</defs>
						<clipPath id="SVGID_00000070822437909861445190000004029102216240284094_">
							<use xlink:href="#SVGID_00000102524408221963972390000007577413569888770717_"  style="overflow:visible;"/>
						</clipPath>
						<path style="clip-path:url(#SVGID_00000070822437909861445190000004029102216240284094_);fill:#FFCECE;" d="M527.4,250.9
							c0,0-29,134.9-209.1,140.2c-157.7,4.7,105.4-277.4,165.8-238.2S527.4,250.9,527.4,250.9z"/>
					</g>
				</g>
			</g>
			<g>
				<path id="SVGID_00000062186905032790719750000018411701498820584085_" class="st4" d="M677.6,662.1
					c23.4-5.2,45.8-14.4,65.5-27.9c11.2-7.7,21.4-16.4,30-27.4c33.3-42.2-0.3-94.3-0.3-150.9c0-79.5-47.3-144.6-100.4-172.7
					c-4.1-2.1-8-4-11.9-5.8c0,0,1.3-54.2-14.3-80.7c-7-11.9-16.3-11.4-29.8,2.6l-45.9,51.8l-9.2-14.2l-10,14.1
					c-3.8-0.1-7.4-0.5-11.2-0.5c-4.3,0-8.5,0.4-12.8,0.6l-10-14.2l-9.1,14.1l-45.8-51.7c-12.3-12.6-22.8-14.6-29.8-2.6
					C416.8,223.6,418,278,418,278c-4.2,1.9-8.2,4-11.9,6.2c-52.1,28.1-98.6,93.2-98.6,171.7c0,56-33.9,107.8-1.2,149.8
					c8.7,11.2,19,20.2,30.4,28c20.4,14,43.5,23.6,67.7,28.7C454.2,673,559.6,688.3,677.6,662.1z"/>
			</g>
		</g>
		<line class="st4" x1="539.3" y1="530.1" x2="539.3" y2="501"/>
		<path class="st4" d="M580.2,530.1l-12.7,4.8c-6.6,2.5-13.9,2.1-20.2-1l-7.7-3.8l-8,3.9c-6.3,3.1-13.5,3.4-20.1,1l-13-4.9"/>
		<ellipse class="st1" cx="411.3" cy="510.9" rx="34.7" ry="27.7"/>
		<ellipse class="st1" cx="668.6" cy="510.9" rx="34.7" ry="27.7"/>
		<g>
			<line class="st4" x1="456.6" y1="517.3" x2="405.7" y2="520.8"/>
			<line class="st4" x1="457.8" y1="493.2" x2="411.2" y2="482.8"/>
		</g>
		<g>
			<line class="st4" x1="622" y1="517.3" x2="673" y2="520.8"/>
			<line class="st4" x1="620.9" y1="493.2" x2="667.4" y2="482.8"/>
		</g>
		<g>
			<path class="st5" d="M587.1,466.2c0-10.1,6.6-18.3,14.7-18.3s14.7,8.2,14.7,18.3c0,10.1-6.6,8.3-14.7,8.3
				S587.1,476.3,587.1,466.2z"/>
			<path class="st5" d="M491.9,466.2c0-10.1-6.6-18.3-14.7-18.3s-14.7,8.2-14.7,18.3c0,10.1,6.6,8.3,14.7,8.3
				S491.9,476.3,491.9,466.2z"/>
		</g>
		<path class="st4" d="M625.3,421.7c0,0-16.8-27.5-36.6-1.3"/>
		<path class="st6" d="M551.3,496.5l-8.1,5.1c-2.4,1.5-5.3,1.5-7.7,0l-8.1-5.1c-3.3-2-4.7-6.4-3.5-10.2l0.5-1.6
			c1.1-3.4,4-5.7,7.3-5.7H547c3.3,0,6.2,2.3,7.3,5.7l0.5,1.6C556,490.1,554.6,494.4,551.3,496.5z"/>
		<g>
			<path class="st1" d="M448.1,226.7l-3,25.8c-0.2,2.1,1.6,3.7,3.3,3l20.4-8.7c1.8-0.7,2.2-3.3,0.8-4.7L452.2,225
				C450.7,223.5,448.4,224.5,448.1,226.7z"/>
			<path class="st1" d="M631.8,226.7l3,25.8c0.2,2.1-1.6,3.7-3.3,3l-20.4-8.7c-1.8-0.7-2.2-3.3-0.8-4.7l17.4-17.1
				C629.2,223.5,631.6,224.5,631.8,226.7z"/>
		</g>
		<path class="st0" d="M528,597.4c0,0,12.7,5.3,24.8,0"/>
		<path class="st6" d="M516.3,536.2l17.4,27.5c3.2,3.7,9.1,3.5,12.2-0.3l15.2-27c0,0-11.3,0.2-21.5-6.3
			C539.5,530.1,527,538.6,516.3,536.2z"/>
	</g>
</g>
<g class="st7">
	<path class="st8" d="M527.3,251.1c0,0,63.5,33.5,179.9,56.7L679.6,90.1L527.3,251.1z"/>
	<circle class="st9" cx="677.9" cy="90.1" r="25.3"/>
	<circle class="st10" cx="655.6" cy="162.6" r="13.9"/>
	<circle class="st10" cx="618.4" cy="197.4" r="13.9"/>
	<circle class="st10" cx="627.7" cy="250.2" r="13.9"/>
	<circle class="st10" cx="579.1" cy="232.1" r="13.9"/>
	<circle class="st10" cx="676.3" cy="263" r="13.9"/>
	<circle class="st10" cx="664.9" cy="212.8" r="13.9"/>
</g>
<g class="st7">
	<path class="st11" d="M410.7,242.9c0,0-31.5,7.5-58.6,22.3c-4.5,2.5-6.4,7.9-4.6,12.7c4.1,10.3,11.5,27.7,18.5,36.5
		c0,0,38.8-40.7,104.3-54.4S410.7,242.9,410.7,242.9z"/>
	<path class="st11" d="M669.9,242.9c0,0,31.5,7.5,58.6,22.3c4.5,2.5,6.4,7.9,4.6,12.7c-4.1,10.3-11.5,27.7-18.5,36.5
		c0,0-38.8-40.7-104.3-54.4S669.9,242.9,669.9,242.9z"/>
	<path class="st11" d="M543.1,251.2c0,0-61.6-90.8-117.8-74c-3.5,1-6.4,3.6-7.9,6.9c-5,10.7-15,36.4-6.7,58.9
		c0,0-12.9,26.1,6.9,35.1c0,0,48.5-24.8,117.8-26.3L543.1,251.2z"/>
	<path class="st9" d="M483.6,232.4c0,0,17.2-3.6,52.4,13.9"/>
	<path class="st11" d="M535.7,251.2c0,0,61.6-90.8,117.8-74c3.5,1,6.4,3.6,7.9,6.9c5,10.7,15,36.4,6.7,58.9c0,0,12.9,26.1-6.9,35.1
		c0,0-48.5-24.8-117.8-26.3L535.7,251.2z"/>
	<path class="st9" d="M595.3,232.4c0,0-17.2-3.6-52.4,13.9"/>
	<path class="st11" d="M524.5,225.8c0,0-4.3,3.7-1.8,11.9c2.5,8.2-3.8,12.7,4.5,15.4c8.3,2.7,15.1,0.1,21.9,0
		c6.8-0.1,3.8-8.8,5.5-15c1.7-6.2-0.5-13.2-5.6-13.2C543.8,225,532.5,222.5,524.5,225.8z"/>
</g>
<g id="머리장식" class="st7">
	<g id="_x31_2" class="st12">
		<path class="st13" d="M542.3,270.7c40.6,0,79.6,12,102.1,16.5c4.6,0.9,7-5.2,3.1-7.7c-17.3-11-47.6-25.4-87.1-25.4h-40
			c-39.5,0-69.8,14.5-87.1,25.4c-4,2.5-1.5,8.6,3.1,7.7c22.4-4.6,61.5-16.5,102.1-16.5H542.3z"/>
		<g>
			<path class="st13" d="M539.2,246.1c0,0,6.2-32.3-27.9-49.7s-67.5-40.6-67.5-40.6S426,273.3,528.7,259.6
				C528.6,259.5,539.9,262.5,539.2,246.1z"/>
			<path d="M531,245.8l-23.2-20.9c-1.7-1.5-4.4-1.4-5.9,0.3l-0.2,0.3c-1.5,1.7-1.4,4.4,0.4,5.9l23.4,20.6c1.9,1.6,4.8,1.3,6.2-0.8
				l0,0C532.9,249.6,532.6,247.2,531,245.8z"/>
			<path class="st13" d="M541.6,246.1c0,0-6.2-32.3,27.9-49.7c34.1-17.4,67.5-40.6,67.5-40.6s17.8,117.5-84.9,103.8
				C552.2,259.5,540.9,262.5,541.6,246.1z"/>
			<path d="M549.8,245.8l23.2-20.9c1.7-1.5,4.4-1.4,5.9,0.3l0.2,0.3c1.5,1.7,1.4,4.4-0.4,5.9L555.3,252c-1.9,1.6-4.8,1.3-6.2-0.8
				l0,0C547.9,249.6,548.2,247.2,549.8,245.8z"/>
			<path class="st13" d="M543.4,265.5h-3.5c-6.4,0-11.6-5.2-11.6-11.6v-10c0-6.4,5.2-11.6,11.6-11.6h3.5c6.4,0,11.6,5.2,11.6,11.6
				v10C555,260.3,549.8,265.5,543.4,265.5z"/>
		</g>
	</g>
</g>
<g id="머리장식_00000124884122261820687480000000219245256434015380_">
	<g id="핀3">
		<path class="st14" d="M392.7,375.5l-58.8-16.1c-3.3-0.9-5.2-4.3-4.3-7.7l0,0c0.9-3.3,4.3-5.2,7.7-4.3l58.8,16.1
			c3.3,0.9,5.2,4.3,4.3,7.7l0,0C399.4,374.4,396.1,376.4,392.7,375.5z"/>
		<path class="st15" d="M406.3,352.2l-58.8-16.1c-3.3-0.9-5.2-4.3-4.3-7.7l0,0c0.9-3.3,4.3-5.2,7.7-4.3l58.8,16.1
			c3.3,0.9,5.2,4.3,4.3,7.7l0,0C413.1,351.2,409.7,353.1,406.3,352.2z"/>
	</g>
</g>
<g id="머리장식_00000160173953187546140020000008064700194963557261_" class="st7">
	<path id="핀2" class="st16" d="M359.6,337.5c0,0,55.6,30.2,55.2,36.5c-0.3,6.3-59.1-25.8-59.1-25.8s-24.5,2.9-22.5-7
		c1.4-7,7.5-6.7,11-6c0.9,0.2,1.7-0.8,1.2-1.6c-1.7-3.6-3.8-10.2,2-11.7C356.6,319.2,359.6,337.5,359.6,337.5z"/>
</g>
<g id="머리장식_00000143589390246492544660000013371869875757871773_" class="st7">
	<path class="st17" d="M411.1,363.5c0,0-14.2-18.5-40.6-30.4c-26.4-12-41.3-10.9-44.5,6.5c-3.3,17.4,19.9,25.7,42.5,26.8
		C391.2,367.5,413.3,366,411.1,363.5z M362.2,352.7c-5.7-0.2-11.6-2.3-10.8-6.7c0.9-4.3,4.6-4.6,11.2-1.6s13.9,8.1,13.9,8.1
		C377.2,353.1,367.9,353.1,362.2,352.7z"/>
</g>
<g class="st7">
	<path class="st18" d="M542.3,269.7c40.6,0,79.6,12,102.1,16.5c4.6,0.9,7-5.2,3.1-7.7c-17.3-11-47.6-25.4-87.1-25.4h-40
		c-39.5,0-69.8,14.5-87.1,25.4c-4,2.5-1.5,8.6,3.1,7.7c22.4-4.6,61.5-16.5,102.1-16.5H542.3z"/>
	<g id="머리장식_00000111871537032622148830000005107844135346692792_" class="st12">
		<g id="머리띠">
			<path class="st0" d="M535.4,246.9c0,0-7.3-74.3-58.3-90.1s-64.5,65.9,49.7,113L535.4,246.9z"/>
			<path class="st19" d="M543.5,262.9c0,0-28-58.2-59.3-65c-31.4-6.8,18.3,50.1,53.2,65C537.3,262.9,541.9,266.2,543.5,262.9z"/>
			<path class="st0" d="M536.5,246.9c0,0,7.3-74.3,58.3-90.1c51-15.7,64.5,65.9-49.7,113L536.5,246.9z"/>
			<path class="st19" d="M528.4,262.9c0,0,28-58.2,59.3-65c31.4-6.8-18.3,50.1-53.2,65C534.6,262.9,529.9,266.2,528.4,262.9z"/>
			<path class="st0" d="M525.5,243.4c0,0-9.8,3.3-7.5,11.8s-1.3,17.7,13,19.4c14.4,1.7,20.7,0.6,22.9-12.6
				C556.3,248.9,557.6,235,525.5,243.4z"/>
		</g>
	</g>
</g>
<g id="머리장식_00000047743094396728519120000016608317498419204506_" class="st7">
	<g id="밀짚모자" class="st12">
		<path class="st20" d="M217.6,442.3c5.1,5.6,69.4,20.4,89.9,33.5l2.7-45.9c0,0-70.3,5.1-91.6,9.4
			C217.2,439.6,216.6,441.2,217.6,442.3z"/>
		<path class="st20" d="M863.2,442.3c-5.1,5.6-69.4,20.4-89.9,33.5l-2.7-45.9c0,0,70.3,5.1,91.6,9.4
			C863.6,439.6,864.2,441.2,863.2,442.3z"/>
		<polyline class="st21" points="330.4,339.8 330.4,382.3 540.2,382.3 540.6,382.3 750.4,382.3 750.4,339.8 		"/>
		<path class="st21" d="M865,435.4l-114.6-87.1c-92.6-12-202.5-20.7-209.8-20.7l0,0c0,0-0.1,0-0.2,0c-0.1,0-0.2,0-0.2,0l0,0
			c-7.3,0-117.3,8.7-209.8,20.7l-114.6,87.1c-2.2,3.2,0.6,7.5,4.2,6.5c27-8.2,156-26.8,320.4-26.8s293.4,18.6,320.4,26.8
			C864.4,442.9,867.2,438.6,865,435.4z"/>
		<path class="st21" d="M328.5,340c0,0-8-147.1,209.3-147.1s215.8,146.9,215.8,146.9L328.5,340z"/>
		<path class="st22" d="M333.1,309.3l-15.6,49.8c0,0,137.9-33.4,445.8,0l-15.6-49.8C747.8,309.3,532.6,267.9,333.1,309.3z"/>
	</g>
</g>
</svg>
